G04 #@! TF.GenerationSoftware,KiCad,Pcbnew,(5.1.2)-1*
G04 #@! TF.CreationDate,2019-06-15T18:16:21+09:00*
G04 #@! TF.ProjectId,ESP32-breakout-THD,45535033-322d-4627-9265-616b6f75742d,rev?*
G04 #@! TF.SameCoordinates,Original*
G04 #@! TF.FileFunction,Copper,L1,Top*
G04 #@! TF.FilePolarity,Positive*
%FSLAX46Y46*%
G04 Gerber Fmt 4.6, Leading zero omitted, Abs format (unit mm)*
G04 Created by KiCad (PCBNEW (5.1.2)-1) date 2019-06-15 18:16:21*
%MOMM*%
%LPD*%
G04 APERTURE LIST*
%ADD10R,1.000000X1.000000*%
%ADD11C,0.100000*%
%ADD12C,1.250000*%
%ADD13O,1.700000X1.700000*%
%ADD14R,1.700000X1.700000*%
%ADD15O,2.500000X0.900000*%
%ADD16O,0.900000X2.500000*%
%ADD17R,6.000000X6.000000*%
%ADD18C,0.975000*%
%ADD19C,2.000000*%
%ADD20C,1.700000*%
%ADD21O,1.700000X2.000000*%
%ADD22O,1.700000X1.950000*%
%ADD23C,2.200000*%
%ADD24C,0.800000*%
%ADD25C,1.000000*%
%ADD26C,0.500000*%
%ADD27C,0.250000*%
%ADD28C,0.254000*%
G04 APERTURE END LIST*
D10*
X157988000Y-128905000D03*
X160528000Y-128905000D03*
D11*
G36*
X156225504Y-125872204D02*
G01*
X156249773Y-125875804D01*
X156273571Y-125881765D01*
X156296671Y-125890030D01*
X156318849Y-125900520D01*
X156339893Y-125913133D01*
X156359598Y-125927747D01*
X156377777Y-125944223D01*
X156394253Y-125962402D01*
X156408867Y-125982107D01*
X156421480Y-126003151D01*
X156431970Y-126025329D01*
X156440235Y-126048429D01*
X156446196Y-126072227D01*
X156449796Y-126096496D01*
X156451000Y-126121000D01*
X156451000Y-127371000D01*
X156449796Y-127395504D01*
X156446196Y-127419773D01*
X156440235Y-127443571D01*
X156431970Y-127466671D01*
X156421480Y-127488849D01*
X156408867Y-127509893D01*
X156394253Y-127529598D01*
X156377777Y-127547777D01*
X156359598Y-127564253D01*
X156339893Y-127578867D01*
X156318849Y-127591480D01*
X156296671Y-127601970D01*
X156273571Y-127610235D01*
X156249773Y-127616196D01*
X156225504Y-127619796D01*
X156201000Y-127621000D01*
X155451000Y-127621000D01*
X155426496Y-127619796D01*
X155402227Y-127616196D01*
X155378429Y-127610235D01*
X155355329Y-127601970D01*
X155333151Y-127591480D01*
X155312107Y-127578867D01*
X155292402Y-127564253D01*
X155274223Y-127547777D01*
X155257747Y-127529598D01*
X155243133Y-127509893D01*
X155230520Y-127488849D01*
X155220030Y-127466671D01*
X155211765Y-127443571D01*
X155205804Y-127419773D01*
X155202204Y-127395504D01*
X155201000Y-127371000D01*
X155201000Y-126121000D01*
X155202204Y-126096496D01*
X155205804Y-126072227D01*
X155211765Y-126048429D01*
X155220030Y-126025329D01*
X155230520Y-126003151D01*
X155243133Y-125982107D01*
X155257747Y-125962402D01*
X155274223Y-125944223D01*
X155292402Y-125927747D01*
X155312107Y-125913133D01*
X155333151Y-125900520D01*
X155355329Y-125890030D01*
X155378429Y-125881765D01*
X155402227Y-125875804D01*
X155426496Y-125872204D01*
X155451000Y-125871000D01*
X156201000Y-125871000D01*
X156225504Y-125872204D01*
X156225504Y-125872204D01*
G37*
D12*
X155826000Y-126746000D03*
D11*
G36*
X159025504Y-125872204D02*
G01*
X159049773Y-125875804D01*
X159073571Y-125881765D01*
X159096671Y-125890030D01*
X159118849Y-125900520D01*
X159139893Y-125913133D01*
X159159598Y-125927747D01*
X159177777Y-125944223D01*
X159194253Y-125962402D01*
X159208867Y-125982107D01*
X159221480Y-126003151D01*
X159231970Y-126025329D01*
X159240235Y-126048429D01*
X159246196Y-126072227D01*
X159249796Y-126096496D01*
X159251000Y-126121000D01*
X159251000Y-127371000D01*
X159249796Y-127395504D01*
X159246196Y-127419773D01*
X159240235Y-127443571D01*
X159231970Y-127466671D01*
X159221480Y-127488849D01*
X159208867Y-127509893D01*
X159194253Y-127529598D01*
X159177777Y-127547777D01*
X159159598Y-127564253D01*
X159139893Y-127578867D01*
X159118849Y-127591480D01*
X159096671Y-127601970D01*
X159073571Y-127610235D01*
X159049773Y-127616196D01*
X159025504Y-127619796D01*
X159001000Y-127621000D01*
X158251000Y-127621000D01*
X158226496Y-127619796D01*
X158202227Y-127616196D01*
X158178429Y-127610235D01*
X158155329Y-127601970D01*
X158133151Y-127591480D01*
X158112107Y-127578867D01*
X158092402Y-127564253D01*
X158074223Y-127547777D01*
X158057747Y-127529598D01*
X158043133Y-127509893D01*
X158030520Y-127488849D01*
X158020030Y-127466671D01*
X158011765Y-127443571D01*
X158005804Y-127419773D01*
X158002204Y-127395504D01*
X158001000Y-127371000D01*
X158001000Y-126121000D01*
X158002204Y-126096496D01*
X158005804Y-126072227D01*
X158011765Y-126048429D01*
X158020030Y-126025329D01*
X158030520Y-126003151D01*
X158043133Y-125982107D01*
X158057747Y-125962402D01*
X158074223Y-125944223D01*
X158092402Y-125927747D01*
X158112107Y-125913133D01*
X158133151Y-125900520D01*
X158155329Y-125890030D01*
X158178429Y-125881765D01*
X158202227Y-125875804D01*
X158226496Y-125872204D01*
X158251000Y-125871000D01*
X159001000Y-125871000D01*
X159025504Y-125872204D01*
X159025504Y-125872204D01*
G37*
D12*
X158626000Y-126746000D03*
D10*
X163068000Y-128905000D03*
D13*
X149606000Y-128270000D03*
X149606000Y-125730000D03*
X149606000Y-123190000D03*
X149606000Y-120650000D03*
X149606000Y-118110000D03*
X149606000Y-115570000D03*
X149606000Y-113030000D03*
X149606000Y-110490000D03*
X149606000Y-107950000D03*
X149606000Y-105410000D03*
X149606000Y-102870000D03*
X149606000Y-100330000D03*
X149606000Y-97790000D03*
D14*
X149606000Y-95250000D03*
D13*
X178816000Y-128270000D03*
X178816000Y-125730000D03*
X178816000Y-123190000D03*
X178816000Y-120650000D03*
X178816000Y-118110000D03*
X178816000Y-115570000D03*
X178816000Y-113030000D03*
X178816000Y-110490000D03*
X178816000Y-107950000D03*
X178816000Y-105410000D03*
X178816000Y-102870000D03*
X178816000Y-100330000D03*
X178816000Y-97790000D03*
D14*
X178816000Y-95250000D03*
D15*
X173330000Y-95110000D03*
X173330000Y-96380000D03*
X173330000Y-97650000D03*
X173330000Y-98920000D03*
X173330000Y-100190000D03*
X173330000Y-101460000D03*
X173330000Y-102730000D03*
X173330000Y-104000000D03*
X173330000Y-105270000D03*
X173330000Y-106540000D03*
X173330000Y-107810000D03*
X173330000Y-109080000D03*
X173330000Y-110350000D03*
X173330000Y-111620000D03*
D16*
X170045000Y-113110000D03*
X168775000Y-113110000D03*
X167505000Y-113110000D03*
X166235000Y-113110000D03*
X164965000Y-113110000D03*
X163695000Y-113110000D03*
X162425000Y-113110000D03*
X161155000Y-113110000D03*
X159885000Y-113110000D03*
X158615000Y-113110000D03*
D15*
X155330000Y-111620000D03*
X155330000Y-110350000D03*
X155330000Y-109080000D03*
X155330000Y-107810000D03*
X155330000Y-106540000D03*
X155330000Y-105270000D03*
X155330000Y-104000000D03*
X155330000Y-102730000D03*
X155330000Y-101460000D03*
X155330000Y-100190000D03*
X155330000Y-98920000D03*
X155330000Y-97650000D03*
X155330000Y-96380000D03*
X155330000Y-95110000D03*
D17*
X164030000Y-102810000D03*
D11*
G36*
X153134142Y-97636174D02*
G01*
X153157803Y-97639684D01*
X153181007Y-97645496D01*
X153203529Y-97653554D01*
X153225153Y-97663782D01*
X153245670Y-97676079D01*
X153264883Y-97690329D01*
X153282607Y-97706393D01*
X153298671Y-97724117D01*
X153312921Y-97743330D01*
X153325218Y-97763847D01*
X153335446Y-97785471D01*
X153343504Y-97807993D01*
X153349316Y-97831197D01*
X153352826Y-97854858D01*
X153354000Y-97878750D01*
X153354000Y-98366250D01*
X153352826Y-98390142D01*
X153349316Y-98413803D01*
X153343504Y-98437007D01*
X153335446Y-98459529D01*
X153325218Y-98481153D01*
X153312921Y-98501670D01*
X153298671Y-98520883D01*
X153282607Y-98538607D01*
X153264883Y-98554671D01*
X153245670Y-98568921D01*
X153225153Y-98581218D01*
X153203529Y-98591446D01*
X153181007Y-98599504D01*
X153157803Y-98605316D01*
X153134142Y-98608826D01*
X153110250Y-98610000D01*
X152197750Y-98610000D01*
X152173858Y-98608826D01*
X152150197Y-98605316D01*
X152126993Y-98599504D01*
X152104471Y-98591446D01*
X152082847Y-98581218D01*
X152062330Y-98568921D01*
X152043117Y-98554671D01*
X152025393Y-98538607D01*
X152009329Y-98520883D01*
X151995079Y-98501670D01*
X151982782Y-98481153D01*
X151972554Y-98459529D01*
X151964496Y-98437007D01*
X151958684Y-98413803D01*
X151955174Y-98390142D01*
X151954000Y-98366250D01*
X151954000Y-97878750D01*
X151955174Y-97854858D01*
X151958684Y-97831197D01*
X151964496Y-97807993D01*
X151972554Y-97785471D01*
X151982782Y-97763847D01*
X151995079Y-97743330D01*
X152009329Y-97724117D01*
X152025393Y-97706393D01*
X152043117Y-97690329D01*
X152062330Y-97676079D01*
X152082847Y-97663782D01*
X152104471Y-97653554D01*
X152126993Y-97645496D01*
X152150197Y-97639684D01*
X152173858Y-97636174D01*
X152197750Y-97635000D01*
X153110250Y-97635000D01*
X153134142Y-97636174D01*
X153134142Y-97636174D01*
G37*
D18*
X152654000Y-98122500D03*
D11*
G36*
X153134142Y-99511174D02*
G01*
X153157803Y-99514684D01*
X153181007Y-99520496D01*
X153203529Y-99528554D01*
X153225153Y-99538782D01*
X153245670Y-99551079D01*
X153264883Y-99565329D01*
X153282607Y-99581393D01*
X153298671Y-99599117D01*
X153312921Y-99618330D01*
X153325218Y-99638847D01*
X153335446Y-99660471D01*
X153343504Y-99682993D01*
X153349316Y-99706197D01*
X153352826Y-99729858D01*
X153354000Y-99753750D01*
X153354000Y-100241250D01*
X153352826Y-100265142D01*
X153349316Y-100288803D01*
X153343504Y-100312007D01*
X153335446Y-100334529D01*
X153325218Y-100356153D01*
X153312921Y-100376670D01*
X153298671Y-100395883D01*
X153282607Y-100413607D01*
X153264883Y-100429671D01*
X153245670Y-100443921D01*
X153225153Y-100456218D01*
X153203529Y-100466446D01*
X153181007Y-100474504D01*
X153157803Y-100480316D01*
X153134142Y-100483826D01*
X153110250Y-100485000D01*
X152197750Y-100485000D01*
X152173858Y-100483826D01*
X152150197Y-100480316D01*
X152126993Y-100474504D01*
X152104471Y-100466446D01*
X152082847Y-100456218D01*
X152062330Y-100443921D01*
X152043117Y-100429671D01*
X152025393Y-100413607D01*
X152009329Y-100395883D01*
X151995079Y-100376670D01*
X151982782Y-100356153D01*
X151972554Y-100334529D01*
X151964496Y-100312007D01*
X151958684Y-100288803D01*
X151955174Y-100265142D01*
X151954000Y-100241250D01*
X151954000Y-99753750D01*
X151955174Y-99729858D01*
X151958684Y-99706197D01*
X151964496Y-99682993D01*
X151972554Y-99660471D01*
X151982782Y-99638847D01*
X151995079Y-99618330D01*
X152009329Y-99599117D01*
X152025393Y-99581393D01*
X152043117Y-99565329D01*
X152062330Y-99551079D01*
X152082847Y-99538782D01*
X152104471Y-99528554D01*
X152126993Y-99520496D01*
X152150197Y-99514684D01*
X152173858Y-99511174D01*
X152197750Y-99510000D01*
X153110250Y-99510000D01*
X153134142Y-99511174D01*
X153134142Y-99511174D01*
G37*
D18*
X152654000Y-99997500D03*
D11*
G36*
X153134142Y-94001674D02*
G01*
X153157803Y-94005184D01*
X153181007Y-94010996D01*
X153203529Y-94019054D01*
X153225153Y-94029282D01*
X153245670Y-94041579D01*
X153264883Y-94055829D01*
X153282607Y-94071893D01*
X153298671Y-94089617D01*
X153312921Y-94108830D01*
X153325218Y-94129347D01*
X153335446Y-94150971D01*
X153343504Y-94173493D01*
X153349316Y-94196697D01*
X153352826Y-94220358D01*
X153354000Y-94244250D01*
X153354000Y-94731750D01*
X153352826Y-94755642D01*
X153349316Y-94779303D01*
X153343504Y-94802507D01*
X153335446Y-94825029D01*
X153325218Y-94846653D01*
X153312921Y-94867170D01*
X153298671Y-94886383D01*
X153282607Y-94904107D01*
X153264883Y-94920171D01*
X153245670Y-94934421D01*
X153225153Y-94946718D01*
X153203529Y-94956946D01*
X153181007Y-94965004D01*
X153157803Y-94970816D01*
X153134142Y-94974326D01*
X153110250Y-94975500D01*
X152197750Y-94975500D01*
X152173858Y-94974326D01*
X152150197Y-94970816D01*
X152126993Y-94965004D01*
X152104471Y-94956946D01*
X152082847Y-94946718D01*
X152062330Y-94934421D01*
X152043117Y-94920171D01*
X152025393Y-94904107D01*
X152009329Y-94886383D01*
X151995079Y-94867170D01*
X151982782Y-94846653D01*
X151972554Y-94825029D01*
X151964496Y-94802507D01*
X151958684Y-94779303D01*
X151955174Y-94755642D01*
X151954000Y-94731750D01*
X151954000Y-94244250D01*
X151955174Y-94220358D01*
X151958684Y-94196697D01*
X151964496Y-94173493D01*
X151972554Y-94150971D01*
X151982782Y-94129347D01*
X151995079Y-94108830D01*
X152009329Y-94089617D01*
X152025393Y-94071893D01*
X152043117Y-94055829D01*
X152062330Y-94041579D01*
X152082847Y-94029282D01*
X152104471Y-94019054D01*
X152126993Y-94010996D01*
X152150197Y-94005184D01*
X152173858Y-94001674D01*
X152197750Y-94000500D01*
X153110250Y-94000500D01*
X153134142Y-94001674D01*
X153134142Y-94001674D01*
G37*
D18*
X152654000Y-94488000D03*
D11*
G36*
X153134142Y-95876674D02*
G01*
X153157803Y-95880184D01*
X153181007Y-95885996D01*
X153203529Y-95894054D01*
X153225153Y-95904282D01*
X153245670Y-95916579D01*
X153264883Y-95930829D01*
X153282607Y-95946893D01*
X153298671Y-95964617D01*
X153312921Y-95983830D01*
X153325218Y-96004347D01*
X153335446Y-96025971D01*
X153343504Y-96048493D01*
X153349316Y-96071697D01*
X153352826Y-96095358D01*
X153354000Y-96119250D01*
X153354000Y-96606750D01*
X153352826Y-96630642D01*
X153349316Y-96654303D01*
X153343504Y-96677507D01*
X153335446Y-96700029D01*
X153325218Y-96721653D01*
X153312921Y-96742170D01*
X153298671Y-96761383D01*
X153282607Y-96779107D01*
X153264883Y-96795171D01*
X153245670Y-96809421D01*
X153225153Y-96821718D01*
X153203529Y-96831946D01*
X153181007Y-96840004D01*
X153157803Y-96845816D01*
X153134142Y-96849326D01*
X153110250Y-96850500D01*
X152197750Y-96850500D01*
X152173858Y-96849326D01*
X152150197Y-96845816D01*
X152126993Y-96840004D01*
X152104471Y-96831946D01*
X152082847Y-96821718D01*
X152062330Y-96809421D01*
X152043117Y-96795171D01*
X152025393Y-96779107D01*
X152009329Y-96761383D01*
X151995079Y-96742170D01*
X151982782Y-96721653D01*
X151972554Y-96700029D01*
X151964496Y-96677507D01*
X151958684Y-96654303D01*
X151955174Y-96630642D01*
X151954000Y-96606750D01*
X151954000Y-96119250D01*
X151955174Y-96095358D01*
X151958684Y-96071697D01*
X151964496Y-96048493D01*
X151972554Y-96025971D01*
X151982782Y-96004347D01*
X151995079Y-95983830D01*
X152009329Y-95964617D01*
X152025393Y-95946893D01*
X152043117Y-95930829D01*
X152062330Y-95916579D01*
X152082847Y-95904282D01*
X152104471Y-95894054D01*
X152126993Y-95885996D01*
X152150197Y-95880184D01*
X152173858Y-95876674D01*
X152197750Y-95875500D01*
X153110250Y-95875500D01*
X153134142Y-95876674D01*
X153134142Y-95876674D01*
G37*
D18*
X152654000Y-96363000D03*
D11*
G36*
X164564142Y-121082674D02*
G01*
X164587803Y-121086184D01*
X164611007Y-121091996D01*
X164633529Y-121100054D01*
X164655153Y-121110282D01*
X164675670Y-121122579D01*
X164694883Y-121136829D01*
X164712607Y-121152893D01*
X164728671Y-121170617D01*
X164742921Y-121189830D01*
X164755218Y-121210347D01*
X164765446Y-121231971D01*
X164773504Y-121254493D01*
X164779316Y-121277697D01*
X164782826Y-121301358D01*
X164784000Y-121325250D01*
X164784000Y-121812750D01*
X164782826Y-121836642D01*
X164779316Y-121860303D01*
X164773504Y-121883507D01*
X164765446Y-121906029D01*
X164755218Y-121927653D01*
X164742921Y-121948170D01*
X164728671Y-121967383D01*
X164712607Y-121985107D01*
X164694883Y-122001171D01*
X164675670Y-122015421D01*
X164655153Y-122027718D01*
X164633529Y-122037946D01*
X164611007Y-122046004D01*
X164587803Y-122051816D01*
X164564142Y-122055326D01*
X164540250Y-122056500D01*
X163627750Y-122056500D01*
X163603858Y-122055326D01*
X163580197Y-122051816D01*
X163556993Y-122046004D01*
X163534471Y-122037946D01*
X163512847Y-122027718D01*
X163492330Y-122015421D01*
X163473117Y-122001171D01*
X163455393Y-121985107D01*
X163439329Y-121967383D01*
X163425079Y-121948170D01*
X163412782Y-121927653D01*
X163402554Y-121906029D01*
X163394496Y-121883507D01*
X163388684Y-121860303D01*
X163385174Y-121836642D01*
X163384000Y-121812750D01*
X163384000Y-121325250D01*
X163385174Y-121301358D01*
X163388684Y-121277697D01*
X163394496Y-121254493D01*
X163402554Y-121231971D01*
X163412782Y-121210347D01*
X163425079Y-121189830D01*
X163439329Y-121170617D01*
X163455393Y-121152893D01*
X163473117Y-121136829D01*
X163492330Y-121122579D01*
X163512847Y-121110282D01*
X163534471Y-121100054D01*
X163556993Y-121091996D01*
X163580197Y-121086184D01*
X163603858Y-121082674D01*
X163627750Y-121081500D01*
X164540250Y-121081500D01*
X164564142Y-121082674D01*
X164564142Y-121082674D01*
G37*
D18*
X164084000Y-121569000D03*
D11*
G36*
X164564142Y-122957674D02*
G01*
X164587803Y-122961184D01*
X164611007Y-122966996D01*
X164633529Y-122975054D01*
X164655153Y-122985282D01*
X164675670Y-122997579D01*
X164694883Y-123011829D01*
X164712607Y-123027893D01*
X164728671Y-123045617D01*
X164742921Y-123064830D01*
X164755218Y-123085347D01*
X164765446Y-123106971D01*
X164773504Y-123129493D01*
X164779316Y-123152697D01*
X164782826Y-123176358D01*
X164784000Y-123200250D01*
X164784000Y-123687750D01*
X164782826Y-123711642D01*
X164779316Y-123735303D01*
X164773504Y-123758507D01*
X164765446Y-123781029D01*
X164755218Y-123802653D01*
X164742921Y-123823170D01*
X164728671Y-123842383D01*
X164712607Y-123860107D01*
X164694883Y-123876171D01*
X164675670Y-123890421D01*
X164655153Y-123902718D01*
X164633529Y-123912946D01*
X164611007Y-123921004D01*
X164587803Y-123926816D01*
X164564142Y-123930326D01*
X164540250Y-123931500D01*
X163627750Y-123931500D01*
X163603858Y-123930326D01*
X163580197Y-123926816D01*
X163556993Y-123921004D01*
X163534471Y-123912946D01*
X163512847Y-123902718D01*
X163492330Y-123890421D01*
X163473117Y-123876171D01*
X163455393Y-123860107D01*
X163439329Y-123842383D01*
X163425079Y-123823170D01*
X163412782Y-123802653D01*
X163402554Y-123781029D01*
X163394496Y-123758507D01*
X163388684Y-123735303D01*
X163385174Y-123711642D01*
X163384000Y-123687750D01*
X163384000Y-123200250D01*
X163385174Y-123176358D01*
X163388684Y-123152697D01*
X163394496Y-123129493D01*
X163402554Y-123106971D01*
X163412782Y-123085347D01*
X163425079Y-123064830D01*
X163439329Y-123045617D01*
X163455393Y-123027893D01*
X163473117Y-123011829D01*
X163492330Y-122997579D01*
X163512847Y-122985282D01*
X163534471Y-122975054D01*
X163556993Y-122966996D01*
X163580197Y-122961184D01*
X163603858Y-122957674D01*
X163627750Y-122956500D01*
X164540250Y-122956500D01*
X164564142Y-122957674D01*
X164564142Y-122957674D01*
G37*
D18*
X164084000Y-123444000D03*
D11*
G36*
X164564142Y-115083674D02*
G01*
X164587803Y-115087184D01*
X164611007Y-115092996D01*
X164633529Y-115101054D01*
X164655153Y-115111282D01*
X164675670Y-115123579D01*
X164694883Y-115137829D01*
X164712607Y-115153893D01*
X164728671Y-115171617D01*
X164742921Y-115190830D01*
X164755218Y-115211347D01*
X164765446Y-115232971D01*
X164773504Y-115255493D01*
X164779316Y-115278697D01*
X164782826Y-115302358D01*
X164784000Y-115326250D01*
X164784000Y-115813750D01*
X164782826Y-115837642D01*
X164779316Y-115861303D01*
X164773504Y-115884507D01*
X164765446Y-115907029D01*
X164755218Y-115928653D01*
X164742921Y-115949170D01*
X164728671Y-115968383D01*
X164712607Y-115986107D01*
X164694883Y-116002171D01*
X164675670Y-116016421D01*
X164655153Y-116028718D01*
X164633529Y-116038946D01*
X164611007Y-116047004D01*
X164587803Y-116052816D01*
X164564142Y-116056326D01*
X164540250Y-116057500D01*
X163627750Y-116057500D01*
X163603858Y-116056326D01*
X163580197Y-116052816D01*
X163556993Y-116047004D01*
X163534471Y-116038946D01*
X163512847Y-116028718D01*
X163492330Y-116016421D01*
X163473117Y-116002171D01*
X163455393Y-115986107D01*
X163439329Y-115968383D01*
X163425079Y-115949170D01*
X163412782Y-115928653D01*
X163402554Y-115907029D01*
X163394496Y-115884507D01*
X163388684Y-115861303D01*
X163385174Y-115837642D01*
X163384000Y-115813750D01*
X163384000Y-115326250D01*
X163385174Y-115302358D01*
X163388684Y-115278697D01*
X163394496Y-115255493D01*
X163402554Y-115232971D01*
X163412782Y-115211347D01*
X163425079Y-115190830D01*
X163439329Y-115171617D01*
X163455393Y-115153893D01*
X163473117Y-115137829D01*
X163492330Y-115123579D01*
X163512847Y-115111282D01*
X163534471Y-115101054D01*
X163556993Y-115092996D01*
X163580197Y-115087184D01*
X163603858Y-115083674D01*
X163627750Y-115082500D01*
X164540250Y-115082500D01*
X164564142Y-115083674D01*
X164564142Y-115083674D01*
G37*
D18*
X164084000Y-115570000D03*
D11*
G36*
X164564142Y-116958674D02*
G01*
X164587803Y-116962184D01*
X164611007Y-116967996D01*
X164633529Y-116976054D01*
X164655153Y-116986282D01*
X164675670Y-116998579D01*
X164694883Y-117012829D01*
X164712607Y-117028893D01*
X164728671Y-117046617D01*
X164742921Y-117065830D01*
X164755218Y-117086347D01*
X164765446Y-117107971D01*
X164773504Y-117130493D01*
X164779316Y-117153697D01*
X164782826Y-117177358D01*
X164784000Y-117201250D01*
X164784000Y-117688750D01*
X164782826Y-117712642D01*
X164779316Y-117736303D01*
X164773504Y-117759507D01*
X164765446Y-117782029D01*
X164755218Y-117803653D01*
X164742921Y-117824170D01*
X164728671Y-117843383D01*
X164712607Y-117861107D01*
X164694883Y-117877171D01*
X164675670Y-117891421D01*
X164655153Y-117903718D01*
X164633529Y-117913946D01*
X164611007Y-117922004D01*
X164587803Y-117927816D01*
X164564142Y-117931326D01*
X164540250Y-117932500D01*
X163627750Y-117932500D01*
X163603858Y-117931326D01*
X163580197Y-117927816D01*
X163556993Y-117922004D01*
X163534471Y-117913946D01*
X163512847Y-117903718D01*
X163492330Y-117891421D01*
X163473117Y-117877171D01*
X163455393Y-117861107D01*
X163439329Y-117843383D01*
X163425079Y-117824170D01*
X163412782Y-117803653D01*
X163402554Y-117782029D01*
X163394496Y-117759507D01*
X163388684Y-117736303D01*
X163385174Y-117712642D01*
X163384000Y-117688750D01*
X163384000Y-117201250D01*
X163385174Y-117177358D01*
X163388684Y-117153697D01*
X163394496Y-117130493D01*
X163402554Y-117107971D01*
X163412782Y-117086347D01*
X163425079Y-117065830D01*
X163439329Y-117046617D01*
X163455393Y-117028893D01*
X163473117Y-117012829D01*
X163492330Y-116998579D01*
X163512847Y-116986282D01*
X163534471Y-116976054D01*
X163556993Y-116967996D01*
X163580197Y-116962184D01*
X163603858Y-116958674D01*
X163627750Y-116957500D01*
X164540250Y-116957500D01*
X164564142Y-116958674D01*
X164564142Y-116958674D01*
G37*
D18*
X164084000Y-117445000D03*
D19*
X160964000Y-122174000D03*
X156464000Y-122174000D03*
X160964000Y-115674000D03*
X156464000Y-115674000D03*
X167132000Y-115674000D03*
X171632000Y-115674000D03*
X167132000Y-122174000D03*
X171632000Y-122174000D03*
D11*
G36*
X152516504Y-135780204D02*
G01*
X152540773Y-135783804D01*
X152564571Y-135789765D01*
X152587671Y-135798030D01*
X152609849Y-135808520D01*
X152630893Y-135821133D01*
X152650598Y-135835747D01*
X152668777Y-135852223D01*
X152685253Y-135870402D01*
X152699867Y-135890107D01*
X152712480Y-135911151D01*
X152722970Y-135933329D01*
X152731235Y-135956429D01*
X152737196Y-135980227D01*
X152740796Y-136004496D01*
X152742000Y-136029000D01*
X152742000Y-137529000D01*
X152740796Y-137553504D01*
X152737196Y-137577773D01*
X152731235Y-137601571D01*
X152722970Y-137624671D01*
X152712480Y-137646849D01*
X152699867Y-137667893D01*
X152685253Y-137687598D01*
X152668777Y-137705777D01*
X152650598Y-137722253D01*
X152630893Y-137736867D01*
X152609849Y-137749480D01*
X152587671Y-137759970D01*
X152564571Y-137768235D01*
X152540773Y-137774196D01*
X152516504Y-137777796D01*
X152492000Y-137779000D01*
X151292000Y-137779000D01*
X151267496Y-137777796D01*
X151243227Y-137774196D01*
X151219429Y-137768235D01*
X151196329Y-137759970D01*
X151174151Y-137749480D01*
X151153107Y-137736867D01*
X151133402Y-137722253D01*
X151115223Y-137705777D01*
X151098747Y-137687598D01*
X151084133Y-137667893D01*
X151071520Y-137646849D01*
X151061030Y-137624671D01*
X151052765Y-137601571D01*
X151046804Y-137577773D01*
X151043204Y-137553504D01*
X151042000Y-137529000D01*
X151042000Y-136029000D01*
X151043204Y-136004496D01*
X151046804Y-135980227D01*
X151052765Y-135956429D01*
X151061030Y-135933329D01*
X151071520Y-135911151D01*
X151084133Y-135890107D01*
X151098747Y-135870402D01*
X151115223Y-135852223D01*
X151133402Y-135835747D01*
X151153107Y-135821133D01*
X151174151Y-135808520D01*
X151196329Y-135798030D01*
X151219429Y-135789765D01*
X151243227Y-135783804D01*
X151267496Y-135780204D01*
X151292000Y-135779000D01*
X152492000Y-135779000D01*
X152516504Y-135780204D01*
X152516504Y-135780204D01*
G37*
D20*
X151892000Y-136779000D03*
D21*
X149392000Y-136779000D03*
D11*
G36*
X179948504Y-135805204D02*
G01*
X179972773Y-135808804D01*
X179996571Y-135814765D01*
X180019671Y-135823030D01*
X180041849Y-135833520D01*
X180062893Y-135846133D01*
X180082598Y-135860747D01*
X180100777Y-135877223D01*
X180117253Y-135895402D01*
X180131867Y-135915107D01*
X180144480Y-135936151D01*
X180154970Y-135958329D01*
X180163235Y-135981429D01*
X180169196Y-136005227D01*
X180172796Y-136029496D01*
X180174000Y-136054000D01*
X180174000Y-137504000D01*
X180172796Y-137528504D01*
X180169196Y-137552773D01*
X180163235Y-137576571D01*
X180154970Y-137599671D01*
X180144480Y-137621849D01*
X180131867Y-137642893D01*
X180117253Y-137662598D01*
X180100777Y-137680777D01*
X180082598Y-137697253D01*
X180062893Y-137711867D01*
X180041849Y-137724480D01*
X180019671Y-137734970D01*
X179996571Y-137743235D01*
X179972773Y-137749196D01*
X179948504Y-137752796D01*
X179924000Y-137754000D01*
X178724000Y-137754000D01*
X178699496Y-137752796D01*
X178675227Y-137749196D01*
X178651429Y-137743235D01*
X178628329Y-137734970D01*
X178606151Y-137724480D01*
X178585107Y-137711867D01*
X178565402Y-137697253D01*
X178547223Y-137680777D01*
X178530747Y-137662598D01*
X178516133Y-137642893D01*
X178503520Y-137621849D01*
X178493030Y-137599671D01*
X178484765Y-137576571D01*
X178478804Y-137552773D01*
X178475204Y-137528504D01*
X178474000Y-137504000D01*
X178474000Y-136054000D01*
X178475204Y-136029496D01*
X178478804Y-136005227D01*
X178484765Y-135981429D01*
X178493030Y-135958329D01*
X178503520Y-135936151D01*
X178516133Y-135915107D01*
X178530747Y-135895402D01*
X178547223Y-135877223D01*
X178565402Y-135860747D01*
X178585107Y-135846133D01*
X178606151Y-135833520D01*
X178628329Y-135823030D01*
X178651429Y-135814765D01*
X178675227Y-135808804D01*
X178699496Y-135805204D01*
X178724000Y-135804000D01*
X179924000Y-135804000D01*
X179948504Y-135805204D01*
X179948504Y-135805204D01*
G37*
D20*
X179324000Y-136779000D03*
D22*
X176824000Y-136779000D03*
X174324000Y-136779000D03*
X171824000Y-136779000D03*
D11*
G36*
X166232504Y-135805204D02*
G01*
X166256773Y-135808804D01*
X166280571Y-135814765D01*
X166303671Y-135823030D01*
X166325849Y-135833520D01*
X166346893Y-135846133D01*
X166366598Y-135860747D01*
X166384777Y-135877223D01*
X166401253Y-135895402D01*
X166415867Y-135915107D01*
X166428480Y-135936151D01*
X166438970Y-135958329D01*
X166447235Y-135981429D01*
X166453196Y-136005227D01*
X166456796Y-136029496D01*
X166458000Y-136054000D01*
X166458000Y-137504000D01*
X166456796Y-137528504D01*
X166453196Y-137552773D01*
X166447235Y-137576571D01*
X166438970Y-137599671D01*
X166428480Y-137621849D01*
X166415867Y-137642893D01*
X166401253Y-137662598D01*
X166384777Y-137680777D01*
X166366598Y-137697253D01*
X166346893Y-137711867D01*
X166325849Y-137724480D01*
X166303671Y-137734970D01*
X166280571Y-137743235D01*
X166256773Y-137749196D01*
X166232504Y-137752796D01*
X166208000Y-137754000D01*
X165008000Y-137754000D01*
X164983496Y-137752796D01*
X164959227Y-137749196D01*
X164935429Y-137743235D01*
X164912329Y-137734970D01*
X164890151Y-137724480D01*
X164869107Y-137711867D01*
X164849402Y-137697253D01*
X164831223Y-137680777D01*
X164814747Y-137662598D01*
X164800133Y-137642893D01*
X164787520Y-137621849D01*
X164777030Y-137599671D01*
X164768765Y-137576571D01*
X164762804Y-137552773D01*
X164759204Y-137528504D01*
X164758000Y-137504000D01*
X164758000Y-136054000D01*
X164759204Y-136029496D01*
X164762804Y-136005227D01*
X164768765Y-135981429D01*
X164777030Y-135958329D01*
X164787520Y-135936151D01*
X164800133Y-135915107D01*
X164814747Y-135895402D01*
X164831223Y-135877223D01*
X164849402Y-135860747D01*
X164869107Y-135846133D01*
X164890151Y-135833520D01*
X164912329Y-135823030D01*
X164935429Y-135814765D01*
X164959227Y-135808804D01*
X164983496Y-135805204D01*
X165008000Y-135804000D01*
X166208000Y-135804000D01*
X166232504Y-135805204D01*
X166232504Y-135805204D01*
G37*
D20*
X165608000Y-136779000D03*
D22*
X163108000Y-136779000D03*
X160608000Y-136779000D03*
X158108000Y-136779000D03*
D23*
X164084000Y-126111000D03*
D24*
X168656000Y-131572000D03*
D23*
X164084000Y-102743000D03*
D24*
X166370000Y-100584000D03*
X166370000Y-102616000D03*
X164846000Y-107950000D03*
X166370000Y-104902000D03*
X164846000Y-110490000D03*
X153924000Y-94742000D03*
X167386000Y-107950000D03*
X162306000Y-107950000D03*
X159766000Y-95250000D03*
X167386000Y-95250000D03*
X169926000Y-95250000D03*
X167386000Y-110490000D03*
X162306000Y-110490000D03*
X159766000Y-97790000D03*
X162306000Y-97790000D03*
X164846000Y-97790000D03*
X167386000Y-97790000D03*
X174498000Y-115824000D03*
X174498000Y-118110000D03*
X171958000Y-113411000D03*
X171196000Y-108458000D03*
X171196000Y-110490000D03*
X174498000Y-121412000D03*
X159766000Y-102616000D03*
X159766000Y-105410000D03*
X160401000Y-107950000D03*
X160401000Y-110490000D03*
X181102000Y-94996000D03*
X147574000Y-94996000D03*
X181102000Y-97536000D03*
X147574000Y-97536000D03*
X181102000Y-100076000D03*
X147574000Y-100076000D03*
X181102000Y-102616000D03*
X147574000Y-102616000D03*
X181102000Y-105156000D03*
X147574000Y-105156000D03*
X181102000Y-107696000D03*
X147574000Y-107696000D03*
X181102000Y-110236000D03*
X147574000Y-110236000D03*
X181102000Y-112776000D03*
X147574000Y-112776000D03*
X181102000Y-115316000D03*
X147574000Y-115316000D03*
X181102000Y-117856000D03*
X147574000Y-117856000D03*
X181102000Y-120396000D03*
X147574000Y-120396000D03*
X181102000Y-122936000D03*
X147574000Y-122936000D03*
X181102000Y-125476000D03*
X147574000Y-125476000D03*
X181102000Y-128016000D03*
X147574000Y-128016000D03*
X181102000Y-130556000D03*
X147574000Y-130556000D03*
X181102000Y-135763000D03*
X147574000Y-135763000D03*
X147574000Y-138303000D03*
X168402000Y-142875000D03*
X170942000Y-142875000D03*
X173482000Y-142875000D03*
X176022000Y-142875000D03*
X178562000Y-142875000D03*
X181102000Y-142875000D03*
X147574000Y-142875000D03*
X150114000Y-142875000D03*
X152654000Y-142875000D03*
X155194000Y-142875000D03*
X157734000Y-142875000D03*
X160274000Y-142875000D03*
X162814000Y-142875000D03*
X165354000Y-142875000D03*
X172212000Y-95250000D03*
X174752000Y-95250000D03*
X177292000Y-95250000D03*
X157226000Y-95250000D03*
X157226000Y-95250000D03*
X150876000Y-99060000D03*
X147574000Y-133096000D03*
X181102000Y-133096000D03*
X158242000Y-135001000D03*
X176276000Y-127508000D03*
X176530000Y-135001000D03*
X176276000Y-130048000D03*
X175641000Y-132461000D03*
X152400000Y-127508000D03*
X170434000Y-131572000D03*
X172974000Y-131572000D03*
X166624000Y-129540000D03*
X166624000Y-127508000D03*
X170688000Y-129540000D03*
X172720000Y-127508000D03*
X168656000Y-129540000D03*
X166624000Y-127508000D03*
X166878000Y-133731000D03*
X170434000Y-133731000D03*
X168910000Y-133731000D03*
X172974000Y-133223000D03*
X165100000Y-95250000D03*
X162560000Y-95250000D03*
X151638000Y-132715000D03*
X154940000Y-136144000D03*
X155956000Y-128905000D03*
X151638000Y-100076000D03*
X153416000Y-99568000D03*
X152400000Y-101092000D03*
X151384000Y-101092000D03*
X150876000Y-96266000D03*
X154940000Y-114046000D03*
X168656000Y-127508000D03*
X170688000Y-127508000D03*
X166624000Y-125222000D03*
X168656000Y-125222000D03*
X170688000Y-125222000D03*
X172720000Y-125222000D03*
X166624000Y-131572000D03*
X164084000Y-104902000D03*
X164084000Y-100584000D03*
X161798000Y-102616000D03*
X161798000Y-104902000D03*
X161798000Y-100584000D03*
X155956000Y-131572000D03*
X154432000Y-125222000D03*
X147574000Y-140589000D03*
X181102000Y-140589000D03*
X181102000Y-138303000D03*
X172720000Y-129540000D03*
X169291000Y-110490000D03*
X169291000Y-107950000D03*
X168910000Y-104902000D03*
X168910000Y-102616000D03*
X168910000Y-100584000D03*
X170180000Y-120142000D03*
X176276000Y-125222000D03*
X169418000Y-116840000D03*
X167132000Y-118872000D03*
X172720000Y-118110000D03*
X161290000Y-125222000D03*
X165862000Y-119888000D03*
X162052000Y-119888000D03*
X156464000Y-119126000D03*
X158750000Y-125222000D03*
X160782000Y-117602000D03*
X154686000Y-119126000D03*
X154432000Y-122936000D03*
X153670000Y-126492000D03*
X150622000Y-130429000D03*
X152908000Y-130810000D03*
X150622000Y-133223000D03*
X155956000Y-133096000D03*
X161925000Y-133223000D03*
X164338000Y-133096000D03*
X159258000Y-133096000D03*
X162052000Y-135001000D03*
X164592000Y-135001000D03*
X172974000Y-135001000D03*
X170942000Y-135001000D03*
X164338000Y-131572000D03*
X161798000Y-131191000D03*
X176022000Y-123444000D03*
X168910000Y-106553000D03*
X154432000Y-120904000D03*
X153035000Y-124206000D03*
X161290000Y-127127000D03*
X155956000Y-112903000D03*
X174244000Y-114046000D03*
X175514000Y-102362000D03*
X176530000Y-103505000D03*
X171196000Y-102616000D03*
X164084000Y-106680000D03*
X157226000Y-97790000D03*
X164084000Y-119380000D03*
X157226000Y-106680000D03*
X157226000Y-105410000D03*
X157226000Y-104140000D03*
X157226000Y-100330000D03*
X157226000Y-99060000D03*
X171196000Y-98806000D03*
X171196000Y-100076000D03*
X171196000Y-101346000D03*
X171196000Y-103886000D03*
X171196000Y-105156000D03*
X171196000Y-106426000D03*
D25*
X155313000Y-96363000D02*
X155330000Y-96380000D01*
X152654000Y-96363000D02*
X155313000Y-96363000D01*
X151227000Y-97790000D02*
X149606000Y-97790000D01*
X152654000Y-96363000D02*
X152654000Y-98122500D01*
X151559500Y-98122500D02*
X152654000Y-98122500D01*
X151227000Y-97790000D02*
X151559500Y-98122500D01*
X158326001Y-97261999D02*
X158326001Y-110405999D01*
X157514011Y-96450009D02*
X158326001Y-97261999D01*
X155400009Y-96450009D02*
X157514011Y-96450009D01*
X155330000Y-96380000D02*
X155400009Y-96450009D01*
X151892000Y-135679000D02*
X151892000Y-136779000D01*
X151892000Y-134896998D02*
X151892000Y-135679000D01*
X153141999Y-133646999D02*
X151892000Y-134896998D01*
X153604003Y-133646999D02*
X153141999Y-133646999D01*
X164709628Y-137677372D02*
X165608000Y-136779000D01*
X163932990Y-138454010D02*
X164709628Y-137677372D01*
X152467010Y-138454010D02*
X163932990Y-138454010D01*
X151892000Y-137879000D02*
X152467010Y-138454010D01*
X151892000Y-136779000D02*
X151892000Y-137879000D01*
X163527763Y-116126237D02*
X163368083Y-116126237D01*
X164084000Y-115570000D02*
X163527763Y-116126237D01*
X178425628Y-137677372D02*
X179324000Y-136779000D01*
X177648990Y-138454010D02*
X178425628Y-137677372D01*
X168233010Y-138454010D02*
X177648990Y-138454010D01*
X166558000Y-136779000D02*
X168233010Y-138454010D01*
X165608000Y-136779000D02*
X166558000Y-136779000D01*
X157353000Y-111379000D02*
X157353000Y-114046998D01*
X158326001Y-110405999D02*
X157353000Y-111379000D01*
D26*
X157353000Y-114416998D02*
X157988000Y-115051998D01*
X157353000Y-114046998D02*
X157353000Y-114416998D01*
D25*
X154008001Y-132862001D02*
X153350003Y-133519999D01*
X154008001Y-127838999D02*
X154008001Y-132862001D01*
X155101000Y-126746000D02*
X154008001Y-127838999D01*
X155826000Y-126746000D02*
X155101000Y-126746000D01*
X158103000Y-116551002D02*
X158164001Y-116490001D01*
X163396510Y-116257490D02*
X162896512Y-116257490D01*
X163527763Y-116126237D02*
X163396510Y-116257490D01*
X160253999Y-118702001D02*
X158103000Y-116551002D01*
X162896512Y-116257490D02*
X161882001Y-117272001D01*
X158164001Y-116490001D02*
X158164001Y-115051998D01*
X161882001Y-117272001D02*
X161882001Y-118130001D01*
X161882001Y-118130001D02*
X161310001Y-118702001D01*
X161310001Y-118702001D02*
X160253999Y-118702001D01*
X155826000Y-125771000D02*
X155826000Y-126746000D01*
X158164001Y-123432999D02*
X155826000Y-125771000D01*
X158164001Y-121616999D02*
X158164001Y-123432999D01*
X160253999Y-119527001D02*
X158164001Y-121616999D01*
X160253999Y-118702001D02*
X160253999Y-119527001D01*
D26*
X158164001Y-114731807D02*
X158164001Y-115051998D01*
X157479192Y-114046998D02*
X158164001Y-114731807D01*
X157353000Y-114046998D02*
X157479192Y-114046998D01*
D25*
X177025000Y-95110000D02*
X177165000Y-95250000D01*
X173330000Y-95110000D02*
X177025000Y-95110000D01*
X154708000Y-94488000D02*
X155330000Y-95110000D01*
X152654000Y-94488000D02*
X154708000Y-94488000D01*
X157086000Y-95110000D02*
X157226000Y-95250000D01*
X155330000Y-95110000D02*
X157086000Y-95110000D01*
X152654000Y-99997500D02*
X152321500Y-99997500D01*
X178295000Y-95110000D02*
X178435000Y-95250000D01*
X173330000Y-95110000D02*
X178295000Y-95110000D01*
X152654000Y-99997500D02*
X152067500Y-99997500D01*
X152067500Y-99997500D02*
X151384000Y-99314000D01*
X160470000Y-95250000D02*
X164030000Y-98810000D01*
X157226000Y-95250000D02*
X160470000Y-95250000D01*
X164030000Y-98810000D02*
X164030000Y-102810000D01*
X167610010Y-95229990D02*
X164030000Y-98810000D01*
X172486010Y-95229990D02*
X167610010Y-95229990D01*
X172606000Y-95110000D02*
X172486010Y-95229990D01*
X173330000Y-95110000D02*
X172606000Y-95110000D01*
X164030000Y-102810000D02*
X164030000Y-102810000D01*
X151813500Y-100838000D02*
X152654000Y-99997500D01*
X151384000Y-100838000D02*
X151813500Y-100838000D01*
X151062440Y-99322510D02*
X150837965Y-99098035D01*
X151384000Y-100838000D02*
X151384000Y-99644070D01*
X151384000Y-99644070D02*
X151062440Y-99322510D01*
X153083500Y-99568000D02*
X152654000Y-99997500D01*
X153416000Y-99568000D02*
X153083500Y-99568000D01*
X147828000Y-95250000D02*
X147574000Y-94996000D01*
X149606000Y-95250000D02*
X147828000Y-95250000D01*
X149606000Y-95250000D02*
X149606000Y-95504000D01*
X149606000Y-95250000D02*
X149860000Y-95250000D01*
X149860000Y-95250000D02*
X150876000Y-96266000D01*
X150876000Y-95250000D02*
X150876000Y-96266000D01*
X151638000Y-94488000D02*
X150876000Y-95250000D01*
X152654000Y-94488000D02*
X151638000Y-94488000D01*
X153670000Y-94996000D02*
X153924000Y-94742000D01*
X147574000Y-94996000D02*
X153670000Y-94996000D01*
X148717000Y-96139000D02*
X148717000Y-96393000D01*
X147574000Y-94996000D02*
X148717000Y-96139000D01*
X149606000Y-95504000D02*
X148717000Y-96393000D01*
X148717000Y-96393000D02*
X147574000Y-97536000D01*
D27*
X148495001Y-101694999D02*
X150527001Y-101694999D01*
X147574000Y-102616000D02*
X148495001Y-101694999D01*
D25*
X151156001Y-102335999D02*
X151156001Y-102497715D01*
X152400000Y-101092000D02*
X151156001Y-102335999D01*
D27*
X150876000Y-103308046D02*
X151222023Y-102962023D01*
X150139045Y-104045001D02*
X150876000Y-103308046D01*
X148684999Y-104045001D02*
X150139045Y-104045001D01*
X147574000Y-105156000D02*
X148684999Y-104045001D01*
X177292000Y-95250000D02*
X176276000Y-94234000D01*
X176276000Y-94234000D02*
X171704000Y-94234000D01*
D25*
X176726315Y-95250000D02*
X175964315Y-94488000D01*
X177292000Y-95250000D02*
X176726315Y-95250000D01*
X175964315Y-94488000D02*
X171450000Y-94488000D01*
X178593809Y-95250000D02*
X178695534Y-95351725D01*
X177292000Y-95250000D02*
X178593809Y-95250000D01*
D26*
X150527001Y-101706999D02*
X151156001Y-102335999D01*
X150527001Y-101694999D02*
X150527001Y-101706999D01*
X151797001Y-101694999D02*
X152400000Y-101092000D01*
X150527001Y-101694999D02*
X151797001Y-101694999D01*
X151275999Y-99459999D02*
X150876000Y-99060000D01*
X151275999Y-100584003D02*
X151275999Y-99459999D01*
X150527001Y-101333001D02*
X151275999Y-100584003D01*
X150527001Y-101694999D02*
X150527001Y-101333001D01*
X150781001Y-101694999D02*
X151384000Y-101092000D01*
X150527001Y-101694999D02*
X150781001Y-101694999D01*
D27*
X180702001Y-105555999D02*
X181102000Y-105156000D01*
X179672999Y-106585001D02*
X180702001Y-105555999D01*
X178251999Y-106585001D02*
X179672999Y-106585001D01*
X176929999Y-105263001D02*
X178251999Y-106585001D01*
X176929999Y-103904999D02*
X176929999Y-105263001D01*
X176530000Y-103505000D02*
X176929999Y-103904999D01*
X180702001Y-109836001D02*
X181102000Y-110236000D01*
X180155589Y-109289589D02*
X180702001Y-109836001D01*
X178416587Y-109289589D02*
X180155589Y-109289589D01*
X176530000Y-107403002D02*
X178416587Y-109289589D01*
X176530000Y-103505000D02*
X176530000Y-107403002D01*
X176530000Y-104070685D02*
X176599315Y-104140000D01*
X176530000Y-103505000D02*
X176530000Y-104070685D01*
D25*
X176565989Y-104503506D02*
X176766241Y-104703758D01*
X176565989Y-103667989D02*
X176565989Y-104503506D01*
X176530000Y-103505000D02*
X176530000Y-103632000D01*
X176530000Y-103632000D02*
X176565989Y-103667989D01*
X168910000Y-102616000D02*
X166370000Y-102616000D01*
X159766000Y-102616000D02*
X161798000Y-102616000D01*
X164084000Y-106680000D02*
X164084000Y-104902000D01*
X149379918Y-96239999D02*
X149592818Y-95973031D01*
X150350001Y-96239999D02*
X149379918Y-96239999D01*
X153924000Y-94742000D02*
X151848000Y-94742000D01*
X151848000Y-94742000D02*
X150350001Y-96239999D01*
X154323999Y-94342001D02*
X157969001Y-94342001D01*
X153924000Y-94742000D02*
X154323999Y-94342001D01*
D26*
X157086000Y-97650000D02*
X157226000Y-97790000D01*
X155330000Y-97650000D02*
X157086000Y-97650000D01*
X161569000Y-121569000D02*
X160964000Y-122174000D01*
X164084000Y-121569000D02*
X161569000Y-121569000D01*
X164084000Y-117445000D02*
X164084000Y-119380000D01*
X164084000Y-119380000D02*
X164084000Y-121569000D01*
X153580000Y-110350000D02*
X153162000Y-110768000D01*
X155330000Y-110350000D02*
X153580000Y-110350000D01*
X153162000Y-110768000D02*
X153162000Y-116462020D01*
X153162000Y-116462020D02*
X152530020Y-117094000D01*
X152530020Y-121255943D02*
X151357962Y-122428000D01*
X152530020Y-117094000D02*
X152530020Y-121255943D01*
X151357962Y-123978038D02*
X149606000Y-125730000D01*
X151357962Y-122428000D02*
X151357962Y-123978038D01*
X153580000Y-109080000D02*
X152146000Y-110514000D01*
X155330000Y-109080000D02*
X153580000Y-109080000D01*
X152146000Y-110514000D02*
X152146000Y-116332000D01*
X150455999Y-122340001D02*
X149606000Y-123190000D01*
X151830010Y-120965990D02*
X150455999Y-122340001D01*
X151830010Y-116647990D02*
X151830010Y-120965990D01*
X152146000Y-116332000D02*
X151830010Y-116647990D01*
X155330000Y-107810000D02*
X153580000Y-107810000D01*
X153580000Y-107810000D02*
X151130000Y-110260000D01*
X150455999Y-119800001D02*
X149606000Y-120650000D01*
X151130000Y-110260000D02*
X151130000Y-118110000D01*
X151130000Y-118110000D02*
X150906001Y-118333999D01*
X150906001Y-118333999D02*
X150906001Y-119349999D01*
X150906001Y-119349999D02*
X150455999Y-119800001D01*
X155330000Y-106540000D02*
X157086000Y-106540000D01*
X157086000Y-106540000D02*
X157226000Y-106680000D01*
X155330000Y-105270000D02*
X157086000Y-105270000D01*
X157086000Y-105270000D02*
X157226000Y-105410000D01*
X155330000Y-104000000D02*
X157086000Y-104000000D01*
X157086000Y-104000000D02*
X157226000Y-104140000D01*
X150455999Y-109640001D02*
X149606000Y-110490000D01*
X153133202Y-106397202D02*
X150455999Y-109640001D01*
X153266597Y-103990597D02*
X153133202Y-106397202D01*
X155330000Y-102730000D02*
X154527194Y-102730000D01*
X154527194Y-102730000D02*
X153266597Y-103990597D01*
X154527194Y-101460000D02*
X152400000Y-103587194D01*
X155330000Y-101460000D02*
X154527194Y-101460000D01*
X152400000Y-105156000D02*
X149606000Y-107950000D01*
X152400000Y-103587194D02*
X152400000Y-105156000D01*
D27*
X155330000Y-100190000D02*
X157086000Y-100190000D01*
X157086000Y-100190000D02*
X157226000Y-100330000D01*
D26*
X154527194Y-100190000D02*
X155330000Y-100190000D01*
X153629990Y-101087204D02*
X154527194Y-100190000D01*
X153629990Y-101367242D02*
X153629990Y-101087204D01*
X150455999Y-104541233D02*
X153629990Y-101367242D01*
X150455999Y-104560001D02*
X150455999Y-104541233D01*
X149606000Y-105410000D02*
X150455999Y-104560001D01*
X157086000Y-98920000D02*
X157226000Y-99060000D01*
X155330000Y-98920000D02*
X157086000Y-98920000D01*
D27*
X173330000Y-96380000D02*
X172530000Y-96380000D01*
D26*
X177025000Y-96380000D02*
X178435000Y-97790000D01*
X173330000Y-96380000D02*
X177025000Y-96380000D01*
D27*
X173330000Y-97650000D02*
X172530000Y-97650000D01*
X173330000Y-97650000D02*
X174485000Y-97650000D01*
D26*
X175755000Y-97650000D02*
X178435000Y-100330000D01*
X173330000Y-97650000D02*
X175755000Y-97650000D01*
D27*
X173330000Y-98920000D02*
X172530000Y-98920000D01*
D26*
X173330000Y-98920000D02*
X171310000Y-98920000D01*
X171310000Y-98920000D02*
X171196000Y-98806000D01*
X177966001Y-102020001D02*
X178816000Y-102870000D01*
X177515999Y-101569999D02*
X177966001Y-102020001D01*
X177515999Y-100400961D02*
X177515999Y-101569999D01*
X176035038Y-98920000D02*
X177515999Y-100400961D01*
X173330000Y-98920000D02*
X176035038Y-98920000D01*
D27*
X173330000Y-100190000D02*
X172530000Y-100190000D01*
X173330000Y-100190000D02*
X174130000Y-100190000D01*
X173330000Y-100190000D02*
X173956029Y-100190000D01*
D26*
X173330000Y-100190000D02*
X174132806Y-100190000D01*
X173330000Y-100190000D02*
X171310000Y-100190000D01*
X171310000Y-100190000D02*
X171196000Y-100076000D01*
X177515999Y-104109999D02*
X178816000Y-105410000D01*
X177515999Y-102559962D02*
X177515999Y-104109999D01*
X176815989Y-101859952D02*
X177515999Y-102559962D01*
X176815989Y-100690913D02*
X176815989Y-101859952D01*
X173330000Y-100190000D02*
X176315076Y-100190000D01*
X176315076Y-100190000D02*
X176815989Y-100690913D01*
D27*
X173330000Y-101460000D02*
X174130000Y-101460000D01*
D26*
X173330000Y-101460000D02*
X171310000Y-101460000D01*
X171310000Y-101460000D02*
X171196000Y-101346000D01*
D27*
X173330000Y-102730000D02*
X174130000Y-102730000D01*
X173330000Y-102730000D02*
X172530000Y-102730000D01*
X178790011Y-109739599D02*
X178790011Y-110490000D01*
D26*
X177585001Y-109640001D02*
X178435000Y-110490000D01*
X175260000Y-107315000D02*
X177585001Y-109640001D01*
X175260000Y-103857194D02*
X175260000Y-107315000D01*
X174132806Y-102730000D02*
X175260000Y-103857194D01*
X173330000Y-102730000D02*
X174132806Y-102730000D01*
X173330000Y-104000000D02*
X171310000Y-104000000D01*
X171310000Y-104000000D02*
X171196000Y-103886000D01*
D27*
X173330000Y-105270000D02*
X174130000Y-105270000D01*
D26*
X173330000Y-105270000D02*
X171310000Y-105270000D01*
X171310000Y-105270000D02*
X171196000Y-105156000D01*
X173330000Y-106540000D02*
X171310000Y-106540000D01*
X171310000Y-106540000D02*
X171196000Y-106426000D01*
D27*
X173330000Y-107810000D02*
X174130000Y-107810000D01*
D26*
X174132806Y-107810000D02*
X177038000Y-110715194D01*
X173330000Y-107810000D02*
X174132806Y-107810000D01*
X177038000Y-118872000D02*
X178816000Y-120650000D01*
X177038000Y-110715194D02*
X177038000Y-118872000D01*
X174132806Y-109080000D02*
X176276000Y-111223194D01*
X173330000Y-109080000D02*
X174132806Y-109080000D01*
X176276000Y-116586000D02*
X176337990Y-116647990D01*
X176276000Y-111223194D02*
X176276000Y-116586000D01*
X176337990Y-119161953D02*
X177064038Y-119888000D01*
X176337990Y-116647990D02*
X176337990Y-119161953D01*
X177064038Y-121438038D02*
X178816000Y-123190000D01*
X177064038Y-119888000D02*
X177064038Y-121438038D01*
X177966001Y-124880001D02*
X178816000Y-125730000D01*
X177380001Y-124294001D02*
X177966001Y-124880001D01*
X177380001Y-122743963D02*
X177380001Y-124294001D01*
X173330000Y-110350000D02*
X174132806Y-110350000D01*
X174132806Y-110350000D02*
X175514000Y-111731194D01*
X175514000Y-111731194D02*
X175514000Y-119327926D01*
X175514000Y-119327926D02*
X176364028Y-120177954D01*
X176364028Y-120177954D02*
X176364028Y-121727991D01*
X176364028Y-121727991D02*
X177380001Y-122743963D01*
X173330000Y-113976000D02*
X171632000Y-115674000D01*
X173330000Y-111620000D02*
X173330000Y-113976000D01*
X171632000Y-117088213D02*
X171632000Y-122174000D01*
X171632000Y-115674000D02*
X171632000Y-117088213D01*
X171632000Y-122174000D02*
X174514001Y-125056001D01*
X177613919Y-128270000D02*
X178816000Y-128270000D01*
X177017918Y-128866001D02*
X177613919Y-128270000D01*
X175867999Y-128866001D02*
X177017918Y-128866001D01*
X174514001Y-127512003D02*
X175867999Y-128866001D01*
X174514001Y-125056001D02*
X174514001Y-127512003D01*
X155330000Y-111620000D02*
X155330000Y-111624000D01*
X155330000Y-111624000D02*
X153924000Y-112268000D01*
X153924000Y-112776000D02*
X153862010Y-112837990D01*
X153924000Y-112268000D02*
X153924000Y-112776000D01*
X150906001Y-125419962D02*
X150906001Y-126969999D01*
X153924000Y-112776000D02*
X153924000Y-116689983D01*
X150906001Y-126969999D02*
X150455999Y-127420001D01*
X153924000Y-116689983D02*
X153230030Y-117383953D01*
X153230030Y-117383953D02*
X153230030Y-121545896D01*
X153230030Y-121545896D02*
X152057972Y-122717954D01*
X152057972Y-122717954D02*
X152057972Y-124267991D01*
X150455999Y-127420001D02*
X149606000Y-128270000D01*
X152057972Y-124267991D02*
X150906001Y-125419962D01*
D28*
G36*
X156218000Y-113157000D02*
G01*
X155575000Y-113157000D01*
X155575000Y-112705000D01*
X156183294Y-112705000D01*
X156218000Y-112701582D01*
X156218000Y-113157000D01*
X156218000Y-113157000D01*
G37*
X156218000Y-113157000D02*
X155575000Y-113157000D01*
X155575000Y-112705000D01*
X156183294Y-112705000D01*
X156218000Y-112701582D01*
X156218000Y-113157000D01*
G36*
X171821609Y-94278413D02*
G01*
X171672986Y-94432592D01*
X171557298Y-94612803D01*
X171485592Y-94815999D01*
X171612498Y-94983000D01*
X173101000Y-94983000D01*
X173101000Y-95237000D01*
X171612498Y-95237000D01*
X171485592Y-95404001D01*
X171557298Y-95607197D01*
X171646537Y-95746208D01*
X171623491Y-95774290D01*
X171522741Y-95962780D01*
X171460700Y-96167303D01*
X171439751Y-96380000D01*
X171460700Y-96592697D01*
X171522741Y-96797220D01*
X171623491Y-96985710D01*
X171647529Y-97015000D01*
X171623491Y-97044290D01*
X171522741Y-97232780D01*
X171460700Y-97437303D01*
X171439751Y-97650000D01*
X171454740Y-97802190D01*
X171297939Y-97771000D01*
X171094061Y-97771000D01*
X170894102Y-97810774D01*
X170705744Y-97888795D01*
X170536226Y-98002063D01*
X170392063Y-98146226D01*
X170278795Y-98315744D01*
X170200774Y-98504102D01*
X170161000Y-98704061D01*
X170161000Y-98907939D01*
X170200774Y-99107898D01*
X170278795Y-99296256D01*
X170375510Y-99441000D01*
X170278795Y-99585744D01*
X170200774Y-99774102D01*
X170161000Y-99974061D01*
X170161000Y-100177939D01*
X170200774Y-100377898D01*
X170278795Y-100566256D01*
X170375510Y-100711000D01*
X170278795Y-100855744D01*
X170200774Y-101044102D01*
X170161000Y-101244061D01*
X170161000Y-101447939D01*
X170200774Y-101647898D01*
X170278795Y-101836256D01*
X170392063Y-102005774D01*
X170536226Y-102149937D01*
X170705744Y-102263205D01*
X170894102Y-102341226D01*
X171094061Y-102381000D01*
X171297939Y-102381000D01*
X171478925Y-102345000D01*
X171512967Y-102345000D01*
X171460700Y-102517303D01*
X171439751Y-102730000D01*
X171454740Y-102882190D01*
X171297939Y-102851000D01*
X171094061Y-102851000D01*
X170894102Y-102890774D01*
X170705744Y-102968795D01*
X170536226Y-103082063D01*
X170392063Y-103226226D01*
X170278795Y-103395744D01*
X170200774Y-103584102D01*
X170161000Y-103784061D01*
X170161000Y-103987939D01*
X170200774Y-104187898D01*
X170278795Y-104376256D01*
X170375510Y-104521000D01*
X170278795Y-104665744D01*
X170200774Y-104854102D01*
X170161000Y-105054061D01*
X170161000Y-105257939D01*
X170200774Y-105457898D01*
X170278795Y-105646256D01*
X170375510Y-105791000D01*
X170278795Y-105935744D01*
X170200774Y-106124102D01*
X170161000Y-106324061D01*
X170161000Y-106527939D01*
X170200774Y-106727898D01*
X170278795Y-106916256D01*
X170392063Y-107085774D01*
X170536226Y-107229937D01*
X170705744Y-107343205D01*
X170894102Y-107421226D01*
X171094061Y-107461000D01*
X171297939Y-107461000D01*
X171478925Y-107425000D01*
X171512967Y-107425000D01*
X171460700Y-107597303D01*
X171439751Y-107810000D01*
X171460700Y-108022697D01*
X171522741Y-108227220D01*
X171623491Y-108415710D01*
X171647529Y-108445000D01*
X171623491Y-108474290D01*
X171522741Y-108662780D01*
X171460700Y-108867303D01*
X171439751Y-109080000D01*
X171460700Y-109292697D01*
X171522741Y-109497220D01*
X171623491Y-109685710D01*
X171647529Y-109715000D01*
X171623491Y-109744290D01*
X171522741Y-109932780D01*
X171460700Y-110137303D01*
X171439751Y-110350000D01*
X171460700Y-110562697D01*
X171522741Y-110767220D01*
X171623491Y-110955710D01*
X171647529Y-110985000D01*
X171623491Y-111014290D01*
X171522741Y-111202780D01*
X171460700Y-111407303D01*
X171439751Y-111620000D01*
X171460700Y-111832697D01*
X171522741Y-112037220D01*
X171623491Y-112225710D01*
X171759078Y-112390922D01*
X171924290Y-112526509D01*
X172112780Y-112627259D01*
X172317303Y-112689300D01*
X172445000Y-112701877D01*
X172445001Y-113157000D01*
X171130000Y-113157000D01*
X171130000Y-112256706D01*
X171114300Y-112097303D01*
X171052259Y-111892780D01*
X170951509Y-111704290D01*
X170815922Y-111539078D01*
X170650710Y-111403491D01*
X170462220Y-111302741D01*
X170257697Y-111240700D01*
X170045000Y-111219751D01*
X169832304Y-111240700D01*
X169627781Y-111302741D01*
X169439291Y-111403491D01*
X169410001Y-111427529D01*
X169380710Y-111403491D01*
X169192220Y-111302741D01*
X168987697Y-111240700D01*
X168775000Y-111219751D01*
X168562304Y-111240700D01*
X168357781Y-111302741D01*
X168169291Y-111403491D01*
X168140001Y-111427529D01*
X168110710Y-111403491D01*
X167922220Y-111302741D01*
X167717697Y-111240700D01*
X167505000Y-111219751D01*
X167292304Y-111240700D01*
X167087781Y-111302741D01*
X166899291Y-111403491D01*
X166870001Y-111427529D01*
X166840710Y-111403491D01*
X166652220Y-111302741D01*
X166447697Y-111240700D01*
X166235000Y-111219751D01*
X166022304Y-111240700D01*
X165817781Y-111302741D01*
X165629291Y-111403491D01*
X165600001Y-111427529D01*
X165570710Y-111403491D01*
X165382220Y-111302741D01*
X165177697Y-111240700D01*
X164965000Y-111219751D01*
X164752304Y-111240700D01*
X164547781Y-111302741D01*
X164359291Y-111403491D01*
X164330001Y-111427529D01*
X164300710Y-111403491D01*
X164112220Y-111302741D01*
X163907697Y-111240700D01*
X163695000Y-111219751D01*
X163482304Y-111240700D01*
X163277781Y-111302741D01*
X163089291Y-111403491D01*
X163060001Y-111427529D01*
X163030710Y-111403491D01*
X162842220Y-111302741D01*
X162637697Y-111240700D01*
X162425000Y-111219751D01*
X162212304Y-111240700D01*
X162007781Y-111302741D01*
X161819291Y-111403491D01*
X161790001Y-111427529D01*
X161760710Y-111403491D01*
X161572220Y-111302741D01*
X161367697Y-111240700D01*
X161155000Y-111219751D01*
X160942304Y-111240700D01*
X160737781Y-111302741D01*
X160549291Y-111403491D01*
X160520001Y-111427529D01*
X160490710Y-111403491D01*
X160302220Y-111302741D01*
X160097697Y-111240700D01*
X159885000Y-111219751D01*
X159672304Y-111240700D01*
X159467781Y-111302741D01*
X159279291Y-111403491D01*
X159250001Y-111427529D01*
X159220710Y-111403491D01*
X159033635Y-111303497D01*
X159089141Y-111247991D01*
X159132450Y-111212448D01*
X159274285Y-111039622D01*
X159379677Y-110842446D01*
X159444578Y-110628498D01*
X159461001Y-110461751D01*
X159461001Y-110461744D01*
X159466491Y-110406000D01*
X159461001Y-110350256D01*
X159461001Y-105810000D01*
X160391928Y-105810000D01*
X160404188Y-105934482D01*
X160440498Y-106054180D01*
X160499463Y-106164494D01*
X160578815Y-106261185D01*
X160675506Y-106340537D01*
X160785820Y-106399502D01*
X160905518Y-106435812D01*
X161030000Y-106448072D01*
X163744250Y-106445000D01*
X163903000Y-106286250D01*
X163903000Y-102937000D01*
X164157000Y-102937000D01*
X164157000Y-106286250D01*
X164315750Y-106445000D01*
X167030000Y-106448072D01*
X167154482Y-106435812D01*
X167274180Y-106399502D01*
X167384494Y-106340537D01*
X167481185Y-106261185D01*
X167560537Y-106164494D01*
X167619502Y-106054180D01*
X167655812Y-105934482D01*
X167668072Y-105810000D01*
X167665000Y-103095750D01*
X167506250Y-102937000D01*
X164157000Y-102937000D01*
X163903000Y-102937000D01*
X160553750Y-102937000D01*
X160395000Y-103095750D01*
X160391928Y-105810000D01*
X159461001Y-105810000D01*
X159461001Y-99810000D01*
X160391928Y-99810000D01*
X160395000Y-102524250D01*
X160553750Y-102683000D01*
X163903000Y-102683000D01*
X163903000Y-99333750D01*
X164157000Y-99333750D01*
X164157000Y-102683000D01*
X167506250Y-102683000D01*
X167665000Y-102524250D01*
X167668072Y-99810000D01*
X167655812Y-99685518D01*
X167619502Y-99565820D01*
X167560537Y-99455506D01*
X167481185Y-99358815D01*
X167384494Y-99279463D01*
X167274180Y-99220498D01*
X167154482Y-99184188D01*
X167030000Y-99171928D01*
X164315750Y-99175000D01*
X164157000Y-99333750D01*
X163903000Y-99333750D01*
X163744250Y-99175000D01*
X161030000Y-99171928D01*
X160905518Y-99184188D01*
X160785820Y-99220498D01*
X160675506Y-99279463D01*
X160578815Y-99358815D01*
X160499463Y-99455506D01*
X160440498Y-99565820D01*
X160404188Y-99685518D01*
X160391928Y-99810000D01*
X159461001Y-99810000D01*
X159461001Y-97317740D01*
X159466491Y-97261998D01*
X159461001Y-97206256D01*
X159461001Y-97206247D01*
X159444578Y-97039500D01*
X159379677Y-96825552D01*
X159274285Y-96628376D01*
X159132450Y-96455550D01*
X159089141Y-96420007D01*
X158356006Y-95686873D01*
X158320460Y-95643560D01*
X158147634Y-95501725D01*
X157950458Y-95396333D01*
X157736510Y-95331432D01*
X157569763Y-95315009D01*
X157569762Y-95315009D01*
X157514011Y-95309518D01*
X157458260Y-95315009D01*
X157106782Y-95315009D01*
X157047502Y-95237000D01*
X155575000Y-95237000D01*
X155575000Y-94983000D01*
X157047502Y-94983000D01*
X157174408Y-94815999D01*
X157102702Y-94612803D01*
X156987014Y-94432592D01*
X156838391Y-94278413D01*
X156663709Y-94157000D01*
X171996291Y-94157000D01*
X171821609Y-94278413D01*
X171821609Y-94278413D01*
G37*
X171821609Y-94278413D02*
X171672986Y-94432592D01*
X171557298Y-94612803D01*
X171485592Y-94815999D01*
X171612498Y-94983000D01*
X173101000Y-94983000D01*
X173101000Y-95237000D01*
X171612498Y-95237000D01*
X171485592Y-95404001D01*
X171557298Y-95607197D01*
X171646537Y-95746208D01*
X171623491Y-95774290D01*
X171522741Y-95962780D01*
X171460700Y-96167303D01*
X171439751Y-96380000D01*
X171460700Y-96592697D01*
X171522741Y-96797220D01*
X171623491Y-96985710D01*
X171647529Y-97015000D01*
X171623491Y-97044290D01*
X171522741Y-97232780D01*
X171460700Y-97437303D01*
X171439751Y-97650000D01*
X171454740Y-97802190D01*
X171297939Y-97771000D01*
X171094061Y-97771000D01*
X170894102Y-97810774D01*
X170705744Y-97888795D01*
X170536226Y-98002063D01*
X170392063Y-98146226D01*
X170278795Y-98315744D01*
X170200774Y-98504102D01*
X170161000Y-98704061D01*
X170161000Y-98907939D01*
X170200774Y-99107898D01*
X170278795Y-99296256D01*
X170375510Y-99441000D01*
X170278795Y-99585744D01*
X170200774Y-99774102D01*
X170161000Y-99974061D01*
X170161000Y-100177939D01*
X170200774Y-100377898D01*
X170278795Y-100566256D01*
X170375510Y-100711000D01*
X170278795Y-100855744D01*
X170200774Y-101044102D01*
X170161000Y-101244061D01*
X170161000Y-101447939D01*
X170200774Y-101647898D01*
X170278795Y-101836256D01*
X170392063Y-102005774D01*
X170536226Y-102149937D01*
X170705744Y-102263205D01*
X170894102Y-102341226D01*
X171094061Y-102381000D01*
X171297939Y-102381000D01*
X171478925Y-102345000D01*
X171512967Y-102345000D01*
X171460700Y-102517303D01*
X171439751Y-102730000D01*
X171454740Y-102882190D01*
X171297939Y-102851000D01*
X171094061Y-102851000D01*
X170894102Y-102890774D01*
X170705744Y-102968795D01*
X170536226Y-103082063D01*
X170392063Y-103226226D01*
X170278795Y-103395744D01*
X170200774Y-103584102D01*
X170161000Y-103784061D01*
X170161000Y-103987939D01*
X170200774Y-104187898D01*
X170278795Y-104376256D01*
X170375510Y-104521000D01*
X170278795Y-104665744D01*
X170200774Y-104854102D01*
X170161000Y-105054061D01*
X170161000Y-105257939D01*
X170200774Y-105457898D01*
X170278795Y-105646256D01*
X170375510Y-105791000D01*
X170278795Y-105935744D01*
X170200774Y-106124102D01*
X170161000Y-106324061D01*
X170161000Y-106527939D01*
X170200774Y-106727898D01*
X170278795Y-106916256D01*
X170392063Y-107085774D01*
X170536226Y-107229937D01*
X170705744Y-107343205D01*
X170894102Y-107421226D01*
X171094061Y-107461000D01*
X171297939Y-107461000D01*
X171478925Y-107425000D01*
X171512967Y-107425000D01*
X171460700Y-107597303D01*
X171439751Y-107810000D01*
X171460700Y-108022697D01*
X171522741Y-108227220D01*
X171623491Y-108415710D01*
X171647529Y-108445000D01*
X171623491Y-108474290D01*
X171522741Y-108662780D01*
X171460700Y-108867303D01*
X171439751Y-109080000D01*
X171460700Y-109292697D01*
X171522741Y-109497220D01*
X171623491Y-109685710D01*
X171647529Y-109715000D01*
X171623491Y-109744290D01*
X171522741Y-109932780D01*
X171460700Y-110137303D01*
X171439751Y-110350000D01*
X171460700Y-110562697D01*
X171522741Y-110767220D01*
X171623491Y-110955710D01*
X171647529Y-110985000D01*
X171623491Y-111014290D01*
X171522741Y-111202780D01*
X171460700Y-111407303D01*
X171439751Y-111620000D01*
X171460700Y-111832697D01*
X171522741Y-112037220D01*
X171623491Y-112225710D01*
X171759078Y-112390922D01*
X171924290Y-112526509D01*
X172112780Y-112627259D01*
X172317303Y-112689300D01*
X172445000Y-112701877D01*
X172445001Y-113157000D01*
X171130000Y-113157000D01*
X171130000Y-112256706D01*
X171114300Y-112097303D01*
X171052259Y-111892780D01*
X170951509Y-111704290D01*
X170815922Y-111539078D01*
X170650710Y-111403491D01*
X170462220Y-111302741D01*
X170257697Y-111240700D01*
X170045000Y-111219751D01*
X169832304Y-111240700D01*
X169627781Y-111302741D01*
X169439291Y-111403491D01*
X169410001Y-111427529D01*
X169380710Y-111403491D01*
X169192220Y-111302741D01*
X168987697Y-111240700D01*
X168775000Y-111219751D01*
X168562304Y-111240700D01*
X168357781Y-111302741D01*
X168169291Y-111403491D01*
X168140001Y-111427529D01*
X168110710Y-111403491D01*
X167922220Y-111302741D01*
X167717697Y-111240700D01*
X167505000Y-111219751D01*
X167292304Y-111240700D01*
X167087781Y-111302741D01*
X166899291Y-111403491D01*
X166870001Y-111427529D01*
X166840710Y-111403491D01*
X166652220Y-111302741D01*
X166447697Y-111240700D01*
X166235000Y-111219751D01*
X166022304Y-111240700D01*
X165817781Y-111302741D01*
X165629291Y-111403491D01*
X165600001Y-111427529D01*
X165570710Y-111403491D01*
X165382220Y-111302741D01*
X165177697Y-111240700D01*
X164965000Y-111219751D01*
X164752304Y-111240700D01*
X164547781Y-111302741D01*
X164359291Y-111403491D01*
X164330001Y-111427529D01*
X164300710Y-111403491D01*
X164112220Y-111302741D01*
X163907697Y-111240700D01*
X163695000Y-111219751D01*
X163482304Y-111240700D01*
X163277781Y-111302741D01*
X163089291Y-111403491D01*
X163060001Y-111427529D01*
X163030710Y-111403491D01*
X162842220Y-111302741D01*
X162637697Y-111240700D01*
X162425000Y-111219751D01*
X162212304Y-111240700D01*
X162007781Y-111302741D01*
X161819291Y-111403491D01*
X161790001Y-111427529D01*
X161760710Y-111403491D01*
X161572220Y-111302741D01*
X161367697Y-111240700D01*
X161155000Y-111219751D01*
X160942304Y-111240700D01*
X160737781Y-111302741D01*
X160549291Y-111403491D01*
X160520001Y-111427529D01*
X160490710Y-111403491D01*
X160302220Y-111302741D01*
X160097697Y-111240700D01*
X159885000Y-111219751D01*
X159672304Y-111240700D01*
X159467781Y-111302741D01*
X159279291Y-111403491D01*
X159250001Y-111427529D01*
X159220710Y-111403491D01*
X159033635Y-111303497D01*
X159089141Y-111247991D01*
X159132450Y-111212448D01*
X159274285Y-111039622D01*
X159379677Y-110842446D01*
X159444578Y-110628498D01*
X159461001Y-110461751D01*
X159461001Y-110461744D01*
X159466491Y-110406000D01*
X159461001Y-110350256D01*
X159461001Y-105810000D01*
X160391928Y-105810000D01*
X160404188Y-105934482D01*
X160440498Y-106054180D01*
X160499463Y-106164494D01*
X160578815Y-106261185D01*
X160675506Y-106340537D01*
X160785820Y-106399502D01*
X160905518Y-106435812D01*
X161030000Y-106448072D01*
X163744250Y-106445000D01*
X163903000Y-106286250D01*
X163903000Y-102937000D01*
X164157000Y-102937000D01*
X164157000Y-106286250D01*
X164315750Y-106445000D01*
X167030000Y-106448072D01*
X167154482Y-106435812D01*
X167274180Y-106399502D01*
X167384494Y-106340537D01*
X167481185Y-106261185D01*
X167560537Y-106164494D01*
X167619502Y-106054180D01*
X167655812Y-105934482D01*
X167668072Y-105810000D01*
X167665000Y-103095750D01*
X167506250Y-102937000D01*
X164157000Y-102937000D01*
X163903000Y-102937000D01*
X160553750Y-102937000D01*
X160395000Y-103095750D01*
X160391928Y-105810000D01*
X159461001Y-105810000D01*
X159461001Y-99810000D01*
X160391928Y-99810000D01*
X160395000Y-102524250D01*
X160553750Y-102683000D01*
X163903000Y-102683000D01*
X163903000Y-99333750D01*
X164157000Y-99333750D01*
X164157000Y-102683000D01*
X167506250Y-102683000D01*
X167665000Y-102524250D01*
X167668072Y-99810000D01*
X167655812Y-99685518D01*
X167619502Y-99565820D01*
X167560537Y-99455506D01*
X167481185Y-99358815D01*
X167384494Y-99279463D01*
X167274180Y-99220498D01*
X167154482Y-99184188D01*
X167030000Y-99171928D01*
X164315750Y-99175000D01*
X164157000Y-99333750D01*
X163903000Y-99333750D01*
X163744250Y-99175000D01*
X161030000Y-99171928D01*
X160905518Y-99184188D01*
X160785820Y-99220498D01*
X160675506Y-99279463D01*
X160578815Y-99358815D01*
X160499463Y-99455506D01*
X160440498Y-99565820D01*
X160404188Y-99685518D01*
X160391928Y-99810000D01*
X159461001Y-99810000D01*
X159461001Y-97317740D01*
X159466491Y-97261998D01*
X159461001Y-97206256D01*
X159461001Y-97206247D01*
X159444578Y-97039500D01*
X159379677Y-96825552D01*
X159274285Y-96628376D01*
X159132450Y-96455550D01*
X159089141Y-96420007D01*
X158356006Y-95686873D01*
X158320460Y-95643560D01*
X158147634Y-95501725D01*
X157950458Y-95396333D01*
X157736510Y-95331432D01*
X157569763Y-95315009D01*
X157569762Y-95315009D01*
X157514011Y-95309518D01*
X157458260Y-95315009D01*
X157106782Y-95315009D01*
X157047502Y-95237000D01*
X155575000Y-95237000D01*
X155575000Y-94983000D01*
X157047502Y-94983000D01*
X157174408Y-94815999D01*
X157102702Y-94612803D01*
X156987014Y-94432592D01*
X156838391Y-94278413D01*
X156663709Y-94157000D01*
X171996291Y-94157000D01*
X171821609Y-94278413D01*
G36*
X148130188Y-94275518D02*
G01*
X148117928Y-94400000D01*
X148121000Y-94964250D01*
X148279750Y-95123000D01*
X149479000Y-95123000D01*
X149479000Y-95103000D01*
X149733000Y-95103000D01*
X149733000Y-95123000D01*
X150932250Y-95123000D01*
X151091000Y-94964250D01*
X151094072Y-94400000D01*
X151081812Y-94275518D01*
X151045860Y-94157000D01*
X151318311Y-94157000D01*
X151319000Y-94202250D01*
X151477750Y-94361000D01*
X152527000Y-94361000D01*
X152527000Y-94341000D01*
X152781000Y-94341000D01*
X152781000Y-94361000D01*
X152801000Y-94361000D01*
X152801000Y-94615000D01*
X152781000Y-94615000D01*
X152781000Y-94635000D01*
X152527000Y-94635000D01*
X152527000Y-94615000D01*
X151477750Y-94615000D01*
X151319000Y-94773750D01*
X151315928Y-94975500D01*
X151328188Y-95099982D01*
X151364498Y-95219680D01*
X151423463Y-95329994D01*
X151502815Y-95426685D01*
X151580564Y-95490492D01*
X151574208Y-95495708D01*
X151464542Y-95629336D01*
X151383053Y-95781791D01*
X151332872Y-95947215D01*
X151315928Y-96119250D01*
X151315928Y-96606750D01*
X151321052Y-96658772D01*
X151282752Y-96655000D01*
X151282751Y-96655000D01*
X151227000Y-96649509D01*
X151171249Y-96655000D01*
X150764728Y-96655000D01*
X150810494Y-96630537D01*
X150907185Y-96551185D01*
X150986537Y-96454494D01*
X151045502Y-96344180D01*
X151081812Y-96224482D01*
X151094072Y-96100000D01*
X151091000Y-95535750D01*
X150932250Y-95377000D01*
X149733000Y-95377000D01*
X149733000Y-95397000D01*
X149479000Y-95397000D01*
X149479000Y-95377000D01*
X148279750Y-95377000D01*
X148121000Y-95535750D01*
X148117928Y-96100000D01*
X148130188Y-96224482D01*
X148166498Y-96344180D01*
X148225463Y-96454494D01*
X148304815Y-96551185D01*
X148401506Y-96630537D01*
X148511820Y-96689502D01*
X148580687Y-96710393D01*
X148550866Y-96734866D01*
X148365294Y-96960986D01*
X148227401Y-97218966D01*
X148142487Y-97498889D01*
X148113815Y-97790000D01*
X148142487Y-98081111D01*
X148227401Y-98361034D01*
X148365294Y-98619014D01*
X148550866Y-98845134D01*
X148776986Y-99030706D01*
X148831791Y-99060000D01*
X148776986Y-99089294D01*
X148550866Y-99274866D01*
X148365294Y-99500986D01*
X148227401Y-99758966D01*
X148142487Y-100038889D01*
X148113815Y-100330000D01*
X148142487Y-100621111D01*
X148227401Y-100901034D01*
X148365294Y-101159014D01*
X148550866Y-101385134D01*
X148776986Y-101570706D01*
X148831791Y-101600000D01*
X148776986Y-101629294D01*
X148550866Y-101814866D01*
X148365294Y-102040986D01*
X148227401Y-102298966D01*
X148142487Y-102578889D01*
X148113815Y-102870000D01*
X148142487Y-103161111D01*
X148227401Y-103441034D01*
X148365294Y-103699014D01*
X148550866Y-103925134D01*
X148776986Y-104110706D01*
X148831791Y-104140000D01*
X148776986Y-104169294D01*
X148550866Y-104354866D01*
X148365294Y-104580986D01*
X148227401Y-104838966D01*
X148142487Y-105118889D01*
X148113815Y-105410000D01*
X148142487Y-105701111D01*
X148227401Y-105981034D01*
X148365294Y-106239014D01*
X148550866Y-106465134D01*
X148776986Y-106650706D01*
X148831791Y-106680000D01*
X148776986Y-106709294D01*
X148550866Y-106894866D01*
X148365294Y-107120986D01*
X148227401Y-107378966D01*
X148142487Y-107658889D01*
X148113815Y-107950000D01*
X148142487Y-108241111D01*
X148227401Y-108521034D01*
X148365294Y-108779014D01*
X148550866Y-109005134D01*
X148776986Y-109190706D01*
X148831791Y-109220000D01*
X148776986Y-109249294D01*
X148550866Y-109434866D01*
X148365294Y-109660986D01*
X148227401Y-109918966D01*
X148142487Y-110198889D01*
X148113815Y-110490000D01*
X148142487Y-110781111D01*
X148227401Y-111061034D01*
X148365294Y-111319014D01*
X148550866Y-111545134D01*
X148776986Y-111730706D01*
X148831791Y-111760000D01*
X148776986Y-111789294D01*
X148550866Y-111974866D01*
X148365294Y-112200986D01*
X148227401Y-112458966D01*
X148142487Y-112738889D01*
X148113815Y-113030000D01*
X148142487Y-113321111D01*
X148227401Y-113601034D01*
X148365294Y-113859014D01*
X148550866Y-114085134D01*
X148776986Y-114270706D01*
X148831791Y-114300000D01*
X148776986Y-114329294D01*
X148550866Y-114514866D01*
X148365294Y-114740986D01*
X148227401Y-114998966D01*
X148142487Y-115278889D01*
X148113815Y-115570000D01*
X148142487Y-115861111D01*
X148227401Y-116141034D01*
X148365294Y-116399014D01*
X148550866Y-116625134D01*
X148776986Y-116810706D01*
X148831791Y-116840000D01*
X148776986Y-116869294D01*
X148550866Y-117054866D01*
X148365294Y-117280986D01*
X148227401Y-117538966D01*
X148142487Y-117818889D01*
X148113815Y-118110000D01*
X148142487Y-118401111D01*
X148227401Y-118681034D01*
X148365294Y-118939014D01*
X148550866Y-119165134D01*
X148776986Y-119350706D01*
X148831791Y-119380000D01*
X148776986Y-119409294D01*
X148550866Y-119594866D01*
X148365294Y-119820986D01*
X148227401Y-120078966D01*
X148142487Y-120358889D01*
X148113815Y-120650000D01*
X148142487Y-120941111D01*
X148227401Y-121221034D01*
X148365294Y-121479014D01*
X148550866Y-121705134D01*
X148776986Y-121890706D01*
X148831791Y-121920000D01*
X148776986Y-121949294D01*
X148550866Y-122134866D01*
X148365294Y-122360986D01*
X148227401Y-122618966D01*
X148142487Y-122898889D01*
X148113815Y-123190000D01*
X148142487Y-123481111D01*
X148227401Y-123761034D01*
X148365294Y-124019014D01*
X148550866Y-124245134D01*
X148776986Y-124430706D01*
X148831791Y-124460000D01*
X148776986Y-124489294D01*
X148550866Y-124674866D01*
X148365294Y-124900986D01*
X148227401Y-125158966D01*
X148142487Y-125438889D01*
X148113815Y-125730000D01*
X148142487Y-126021111D01*
X148227401Y-126301034D01*
X148365294Y-126559014D01*
X148550866Y-126785134D01*
X148776986Y-126970706D01*
X148831791Y-127000000D01*
X148776986Y-127029294D01*
X148550866Y-127214866D01*
X148365294Y-127440986D01*
X148227401Y-127698966D01*
X148142487Y-127978889D01*
X148113815Y-128270000D01*
X148142487Y-128561111D01*
X148227401Y-128841034D01*
X148365294Y-129099014D01*
X148550866Y-129325134D01*
X148776986Y-129510706D01*
X149034966Y-129648599D01*
X149314889Y-129733513D01*
X149533050Y-129755000D01*
X149678950Y-129755000D01*
X149897111Y-129733513D01*
X150177034Y-129648599D01*
X150435014Y-129510706D01*
X150661134Y-129325134D01*
X150846706Y-129099014D01*
X150984599Y-128841034D01*
X151069513Y-128561111D01*
X151098185Y-128270000D01*
X151076612Y-128050967D01*
X151112531Y-128015048D01*
X151112536Y-128015042D01*
X151501045Y-127626533D01*
X151534818Y-127598816D01*
X151645412Y-127464058D01*
X151727590Y-127310312D01*
X151778196Y-127143489D01*
X151791001Y-127013476D01*
X151791001Y-127013468D01*
X151795282Y-126969999D01*
X151791001Y-126926530D01*
X151791001Y-125786540D01*
X152653021Y-124924521D01*
X152686789Y-124896808D01*
X152725013Y-124850233D01*
X152797382Y-124762051D01*
X152822163Y-124715689D01*
X152879561Y-124608304D01*
X152930167Y-124441481D01*
X152942972Y-124311468D01*
X152942972Y-124311458D01*
X152947253Y-124267992D01*
X152942972Y-124224525D01*
X152942972Y-123084532D01*
X153790909Y-122236595D01*
X154822282Y-122236595D01*
X154866039Y-122555675D01*
X154971205Y-122860088D01*
X155064186Y-123034044D01*
X155328587Y-123129808D01*
X156284395Y-122174000D01*
X155328587Y-121218192D01*
X155064186Y-121313956D01*
X154923296Y-121603571D01*
X154841616Y-121915108D01*
X154822282Y-122236595D01*
X153790909Y-122236595D01*
X153825079Y-122202426D01*
X153858847Y-122174713D01*
X153897071Y-122128138D01*
X153969440Y-122039956D01*
X153969441Y-122039955D01*
X154051619Y-121886209D01*
X154102225Y-121719386D01*
X154115030Y-121589373D01*
X154115030Y-121589363D01*
X154119311Y-121545897D01*
X154115030Y-121502431D01*
X154115030Y-117750531D01*
X154519049Y-117346513D01*
X154552817Y-117318800D01*
X154583851Y-117280986D01*
X154663411Y-117184042D01*
X154705826Y-117104688D01*
X154745589Y-117030296D01*
X154796195Y-116863473D01*
X154809000Y-116733460D01*
X154809000Y-116733452D01*
X154813281Y-116689983D01*
X154809000Y-116646514D01*
X154809000Y-115736595D01*
X154822282Y-115736595D01*
X154866039Y-116055675D01*
X154971205Y-116360088D01*
X155064186Y-116534044D01*
X155328587Y-116629808D01*
X156284395Y-115674000D01*
X155328587Y-114718192D01*
X155064186Y-114813956D01*
X154923296Y-115103571D01*
X154841616Y-115415108D01*
X154822282Y-115736595D01*
X154809000Y-115736595D01*
X154809000Y-112836055D01*
X155095124Y-112705000D01*
X156183294Y-112705000D01*
X156218000Y-112701582D01*
X156218001Y-114057433D01*
X156082325Y-114076039D01*
X155777912Y-114181205D01*
X155603956Y-114274186D01*
X155508192Y-114538587D01*
X156464000Y-115494395D01*
X156478143Y-115480253D01*
X156657748Y-115659858D01*
X156643605Y-115674000D01*
X156657748Y-115688143D01*
X156478143Y-115867748D01*
X156464000Y-115853605D01*
X155508192Y-116809413D01*
X155603956Y-117073814D01*
X155893571Y-117214704D01*
X156205108Y-117296384D01*
X156526595Y-117315718D01*
X156845675Y-117271961D01*
X157145951Y-117168224D01*
X157154717Y-117184624D01*
X157258568Y-117311166D01*
X157296552Y-117357450D01*
X157339855Y-117392988D01*
X159061367Y-119114501D01*
X157400865Y-120775003D01*
X157357552Y-120810550D01*
X157343442Y-120827743D01*
X157324044Y-120774186D01*
X157034429Y-120633296D01*
X156722892Y-120551616D01*
X156401405Y-120532282D01*
X156082325Y-120576039D01*
X155777912Y-120681205D01*
X155603956Y-120774186D01*
X155508192Y-121038587D01*
X156464000Y-121994395D01*
X156478143Y-121980253D01*
X156657748Y-122159858D01*
X156643605Y-122174000D01*
X156657748Y-122188143D01*
X156478143Y-122367748D01*
X156464000Y-122353605D01*
X155508192Y-123309413D01*
X155603956Y-123573814D01*
X155893571Y-123714704D01*
X156197483Y-123794385D01*
X155062864Y-124929004D01*
X155019551Y-124964551D01*
X154877716Y-125137377D01*
X154819404Y-125246473D01*
X154772324Y-125334554D01*
X154707423Y-125548502D01*
X154696703Y-125657346D01*
X154680610Y-125687453D01*
X154664553Y-125692324D01*
X154467377Y-125797716D01*
X154294551Y-125939551D01*
X154259008Y-125982860D01*
X153244865Y-126997003D01*
X153201552Y-127032550D01*
X153059717Y-127205376D01*
X152963707Y-127385000D01*
X152954325Y-127402553D01*
X152889424Y-127616501D01*
X152867510Y-127838999D01*
X152873001Y-127894751D01*
X152873002Y-132391869D01*
X152632502Y-132632369D01*
X152508376Y-132698715D01*
X152378855Y-132805010D01*
X152378853Y-132805012D01*
X152335550Y-132840550D01*
X152300012Y-132883853D01*
X151128864Y-134055003D01*
X151085551Y-134090549D01*
X150943716Y-134263375D01*
X150865268Y-134410143D01*
X150838324Y-134460552D01*
X150773423Y-134674500D01*
X150751509Y-134896998D01*
X150757000Y-134952749D01*
X150757000Y-135324747D01*
X150664038Y-135401038D01*
X150553595Y-135535614D01*
X150499086Y-135637593D01*
X150498802Y-135637205D01*
X150284046Y-135440336D01*
X150035009Y-135289146D01*
X149761261Y-135189446D01*
X149748890Y-135187524D01*
X149519000Y-135308845D01*
X149519000Y-136652000D01*
X149539000Y-136652000D01*
X149539000Y-136906000D01*
X149519000Y-136906000D01*
X149519000Y-138249155D01*
X149748890Y-138370476D01*
X149761261Y-138368554D01*
X150035009Y-138268854D01*
X150284046Y-138117664D01*
X150498802Y-137920795D01*
X150499086Y-137920407D01*
X150553595Y-138022386D01*
X150664038Y-138156962D01*
X150798614Y-138267405D01*
X150828615Y-138283441D01*
X150838324Y-138315447D01*
X150943717Y-138512623D01*
X151085552Y-138685449D01*
X151128860Y-138720991D01*
X151625014Y-139217145D01*
X151660561Y-139260459D01*
X151833387Y-139402294D01*
X152030563Y-139507686D01*
X152244511Y-139572587D01*
X152467010Y-139594501D01*
X152522761Y-139589010D01*
X163877239Y-139589010D01*
X163932990Y-139594501D01*
X163988741Y-139589010D01*
X163988742Y-139589010D01*
X164155489Y-139572587D01*
X164369437Y-139507686D01*
X164566613Y-139402294D01*
X164739439Y-139260459D01*
X164774985Y-139217146D01*
X165551616Y-138440516D01*
X165551620Y-138440511D01*
X165600059Y-138392072D01*
X166208000Y-138392072D01*
X166381254Y-138375008D01*
X166509864Y-138335995D01*
X167391019Y-139217150D01*
X167426561Y-139260459D01*
X167599386Y-139402293D01*
X167599387Y-139402294D01*
X167796563Y-139507686D01*
X168010511Y-139572587D01*
X168233010Y-139594501D01*
X168288762Y-139589010D01*
X177593239Y-139589010D01*
X177648990Y-139594501D01*
X177704741Y-139589010D01*
X177704742Y-139589010D01*
X177871489Y-139572587D01*
X178085437Y-139507686D01*
X178282613Y-139402294D01*
X178455439Y-139260459D01*
X178490985Y-139217146D01*
X179267616Y-138440516D01*
X179267620Y-138440511D01*
X179316059Y-138392072D01*
X179924000Y-138392072D01*
X180097254Y-138375008D01*
X180263850Y-138324472D01*
X180417386Y-138242405D01*
X180551962Y-138131962D01*
X180662405Y-137997386D01*
X180744472Y-137843850D01*
X180795008Y-137677254D01*
X180812072Y-137504000D01*
X180812072Y-136054000D01*
X180795008Y-135880746D01*
X180744472Y-135714150D01*
X180662405Y-135560614D01*
X180551962Y-135426038D01*
X180417386Y-135315595D01*
X180263850Y-135233528D01*
X180097254Y-135182992D01*
X179924000Y-135165928D01*
X178724000Y-135165928D01*
X178550746Y-135182992D01*
X178384150Y-135233528D01*
X178230614Y-135315595D01*
X178096038Y-135426038D01*
X177985595Y-135560614D01*
X177931223Y-135662337D01*
X177879134Y-135598866D01*
X177653014Y-135413294D01*
X177395034Y-135275401D01*
X177115111Y-135190487D01*
X176824000Y-135161815D01*
X176532890Y-135190487D01*
X176252967Y-135275401D01*
X175994987Y-135413294D01*
X175768866Y-135598866D01*
X175583294Y-135824986D01*
X175574000Y-135842374D01*
X175564706Y-135824986D01*
X175379134Y-135598866D01*
X175153014Y-135413294D01*
X174895034Y-135275401D01*
X174615111Y-135190487D01*
X174324000Y-135161815D01*
X174032890Y-135190487D01*
X173752967Y-135275401D01*
X173494987Y-135413294D01*
X173268866Y-135598866D01*
X173083294Y-135824986D01*
X173069538Y-135850722D01*
X172913049Y-135644571D01*
X172695193Y-135451504D01*
X172443858Y-135304648D01*
X172180890Y-135212524D01*
X171951000Y-135333845D01*
X171951000Y-136652000D01*
X171971000Y-136652000D01*
X171971000Y-136906000D01*
X171951000Y-136906000D01*
X171951000Y-136926000D01*
X171697000Y-136926000D01*
X171697000Y-136906000D01*
X170497835Y-136906000D01*
X170357680Y-137138267D01*
X170405104Y-137319010D01*
X168703142Y-137319010D01*
X167803865Y-136419733D01*
X170357680Y-136419733D01*
X170497835Y-136652000D01*
X171697000Y-136652000D01*
X171697000Y-135333845D01*
X171467110Y-135212524D01*
X171204142Y-135304648D01*
X170952807Y-135451504D01*
X170734951Y-135644571D01*
X170558947Y-135876430D01*
X170431558Y-136138170D01*
X170357680Y-136419733D01*
X167803865Y-136419733D01*
X167399996Y-136015865D01*
X167364449Y-135972551D01*
X167191623Y-135830716D01*
X167039102Y-135749192D01*
X167028472Y-135714150D01*
X166946405Y-135560614D01*
X166835962Y-135426038D01*
X166701386Y-135315595D01*
X166547850Y-135233528D01*
X166381254Y-135182992D01*
X166208000Y-135165928D01*
X165008000Y-135165928D01*
X164834746Y-135182992D01*
X164668150Y-135233528D01*
X164514614Y-135315595D01*
X164380038Y-135426038D01*
X164269595Y-135560614D01*
X164215223Y-135662337D01*
X164163134Y-135598866D01*
X163937014Y-135413294D01*
X163679034Y-135275401D01*
X163399111Y-135190487D01*
X163108000Y-135161815D01*
X162816890Y-135190487D01*
X162536967Y-135275401D01*
X162278987Y-135413294D01*
X162052866Y-135598866D01*
X161867294Y-135824986D01*
X161858000Y-135842374D01*
X161848706Y-135824986D01*
X161663134Y-135598866D01*
X161437014Y-135413294D01*
X161179034Y-135275401D01*
X160899111Y-135190487D01*
X160608000Y-135161815D01*
X160316890Y-135190487D01*
X160036967Y-135275401D01*
X159778987Y-135413294D01*
X159552866Y-135598866D01*
X159367294Y-135824986D01*
X159353538Y-135850722D01*
X159197049Y-135644571D01*
X158979193Y-135451504D01*
X158727858Y-135304648D01*
X158464890Y-135212524D01*
X158235000Y-135333845D01*
X158235000Y-136652000D01*
X158255000Y-136652000D01*
X158255000Y-136906000D01*
X158235000Y-136906000D01*
X158235000Y-136926000D01*
X157981000Y-136926000D01*
X157981000Y-136906000D01*
X156781835Y-136906000D01*
X156641680Y-137138267D01*
X156689104Y-137319010D01*
X153380072Y-137319010D01*
X153380072Y-136419733D01*
X156641680Y-136419733D01*
X156781835Y-136652000D01*
X157981000Y-136652000D01*
X157981000Y-135333845D01*
X157751110Y-135212524D01*
X157488142Y-135304648D01*
X157236807Y-135451504D01*
X157018951Y-135644571D01*
X156842947Y-135876430D01*
X156715558Y-136138170D01*
X156641680Y-136419733D01*
X153380072Y-136419733D01*
X153380072Y-136029000D01*
X153363008Y-135855746D01*
X153312472Y-135689150D01*
X153230405Y-135535614D01*
X153119962Y-135401038D01*
X153050279Y-135343851D01*
X153612131Y-134781999D01*
X153659755Y-134781999D01*
X153826502Y-134765576D01*
X154040450Y-134700675D01*
X154237626Y-134595283D01*
X154410452Y-134453448D01*
X154552287Y-134280622D01*
X154657679Y-134083446D01*
X154722580Y-133869498D01*
X154735356Y-133739778D01*
X154771141Y-133703993D01*
X154814450Y-133668450D01*
X154956285Y-133495624D01*
X155061677Y-133298448D01*
X155126578Y-133084500D01*
X155143001Y-132917753D01*
X155148492Y-132862001D01*
X155143001Y-132806249D01*
X155143001Y-129405000D01*
X156849928Y-129405000D01*
X156862188Y-129529482D01*
X156898498Y-129649180D01*
X156957463Y-129759494D01*
X157036815Y-129856185D01*
X157133506Y-129935537D01*
X157243820Y-129994502D01*
X157363518Y-130030812D01*
X157488000Y-130043072D01*
X157702250Y-130040000D01*
X157861000Y-129881250D01*
X157861000Y-129032000D01*
X158115000Y-129032000D01*
X158115000Y-129881250D01*
X158273750Y-130040000D01*
X158488000Y-130043072D01*
X158612482Y-130030812D01*
X158732180Y-129994502D01*
X158842494Y-129935537D01*
X158939185Y-129856185D01*
X159018537Y-129759494D01*
X159077502Y-129649180D01*
X159113812Y-129529482D01*
X159126072Y-129405000D01*
X159123000Y-129190750D01*
X158964250Y-129032000D01*
X158115000Y-129032000D01*
X157861000Y-129032000D01*
X157011750Y-129032000D01*
X156853000Y-129190750D01*
X156849928Y-129405000D01*
X155143001Y-129405000D01*
X155143001Y-128405000D01*
X156849928Y-128405000D01*
X156853000Y-128619250D01*
X157011750Y-128778000D01*
X157861000Y-128778000D01*
X157861000Y-128758000D01*
X158115000Y-128758000D01*
X158115000Y-128778000D01*
X158964250Y-128778000D01*
X159123000Y-128619250D01*
X159126072Y-128405000D01*
X159113812Y-128280518D01*
X159106911Y-128257767D01*
X159251000Y-128259072D01*
X159375482Y-128246812D01*
X159416155Y-128234474D01*
X159402188Y-128280518D01*
X159389928Y-128405000D01*
X159389928Y-129405000D01*
X159402188Y-129529482D01*
X159438498Y-129649180D01*
X159497463Y-129759494D01*
X159576815Y-129856185D01*
X159673506Y-129935537D01*
X159783820Y-129994502D01*
X159903518Y-130030812D01*
X160028000Y-130043072D01*
X161028000Y-130043072D01*
X161152482Y-130030812D01*
X161272180Y-129994502D01*
X161382494Y-129935537D01*
X161479185Y-129856185D01*
X161558537Y-129759494D01*
X161617502Y-129649180D01*
X161653812Y-129529482D01*
X161666072Y-129405000D01*
X161666072Y-128405000D01*
X161929928Y-128405000D01*
X161929928Y-129405000D01*
X161942188Y-129529482D01*
X161978498Y-129649180D01*
X162037463Y-129759494D01*
X162116815Y-129856185D01*
X162213506Y-129935537D01*
X162323820Y-129994502D01*
X162443518Y-130030812D01*
X162568000Y-130043072D01*
X163568000Y-130043072D01*
X163692482Y-130030812D01*
X163812180Y-129994502D01*
X163922494Y-129935537D01*
X164019185Y-129856185D01*
X164098537Y-129759494D01*
X164157502Y-129649180D01*
X164193812Y-129529482D01*
X164206072Y-129405000D01*
X164206072Y-128405000D01*
X164193812Y-128280518D01*
X164157502Y-128160820D01*
X164098537Y-128050506D01*
X164019185Y-127953815D01*
X163922494Y-127874463D01*
X163812180Y-127815498D01*
X163692482Y-127779188D01*
X163568000Y-127766928D01*
X162568000Y-127766928D01*
X162443518Y-127779188D01*
X162323820Y-127815498D01*
X162213506Y-127874463D01*
X162116815Y-127953815D01*
X162037463Y-128050506D01*
X161978498Y-128160820D01*
X161942188Y-128280518D01*
X161929928Y-128405000D01*
X161666072Y-128405000D01*
X161653812Y-128280518D01*
X161617502Y-128160820D01*
X161558537Y-128050506D01*
X161479185Y-127953815D01*
X161382494Y-127874463D01*
X161272180Y-127815498D01*
X161152482Y-127779188D01*
X161028000Y-127766928D01*
X160028000Y-127766928D01*
X159903518Y-127779188D01*
X159862845Y-127791526D01*
X159876812Y-127745482D01*
X159889072Y-127621000D01*
X159886000Y-127031750D01*
X159727250Y-126873000D01*
X158753000Y-126873000D01*
X158753000Y-126893000D01*
X158499000Y-126893000D01*
X158499000Y-126873000D01*
X157524750Y-126873000D01*
X157366000Y-127031750D01*
X157362928Y-127621000D01*
X157375188Y-127745482D01*
X157384777Y-127777094D01*
X157363518Y-127779188D01*
X157243820Y-127815498D01*
X157133506Y-127874463D01*
X157036815Y-127953815D01*
X156957463Y-128050506D01*
X156898498Y-128160820D01*
X156862188Y-128280518D01*
X156849928Y-128405000D01*
X155143001Y-128405000D01*
X155143001Y-128309130D01*
X155225862Y-128226269D01*
X155277746Y-128242008D01*
X155451000Y-128259072D01*
X156201000Y-128259072D01*
X156374254Y-128242008D01*
X156540850Y-128191472D01*
X156694386Y-128109405D01*
X156828962Y-127998962D01*
X156939405Y-127864386D01*
X157021472Y-127710850D01*
X157072008Y-127544254D01*
X157089072Y-127371000D01*
X157089072Y-126121000D01*
X157088360Y-126113771D01*
X157366402Y-125835730D01*
X157362928Y-125871000D01*
X157366000Y-126460250D01*
X157524750Y-126619000D01*
X158499000Y-126619000D01*
X158499000Y-125394750D01*
X158753000Y-125394750D01*
X158753000Y-126619000D01*
X159727250Y-126619000D01*
X159886000Y-126460250D01*
X159889072Y-125871000D01*
X159876812Y-125746518D01*
X159840502Y-125626820D01*
X159781537Y-125516506D01*
X159702185Y-125419815D01*
X159605494Y-125340463D01*
X159495180Y-125281498D01*
X159375482Y-125245188D01*
X159251000Y-125232928D01*
X158911750Y-125236000D01*
X158753000Y-125394750D01*
X158499000Y-125394750D01*
X158340250Y-125236000D01*
X158001000Y-125232928D01*
X157965731Y-125236402D01*
X158927147Y-124274986D01*
X158970450Y-124239448D01*
X159016115Y-124183806D01*
X159112285Y-124066622D01*
X159184508Y-123931500D01*
X162745928Y-123931500D01*
X162758188Y-124055982D01*
X162794498Y-124175680D01*
X162853463Y-124285994D01*
X162932815Y-124382685D01*
X163029506Y-124462037D01*
X163139820Y-124521002D01*
X163259518Y-124557312D01*
X163384000Y-124569572D01*
X163798250Y-124566500D01*
X163957000Y-124407750D01*
X163957000Y-123571000D01*
X164211000Y-123571000D01*
X164211000Y-124407750D01*
X164369750Y-124566500D01*
X164784000Y-124569572D01*
X164908482Y-124557312D01*
X165028180Y-124521002D01*
X165138494Y-124462037D01*
X165235185Y-124382685D01*
X165314537Y-124285994D01*
X165373502Y-124175680D01*
X165409812Y-124055982D01*
X165422072Y-123931500D01*
X165419000Y-123729750D01*
X165260250Y-123571000D01*
X164211000Y-123571000D01*
X163957000Y-123571000D01*
X162907750Y-123571000D01*
X162749000Y-123729750D01*
X162745928Y-123931500D01*
X159184508Y-123931500D01*
X159217677Y-123869446D01*
X159282578Y-123655498D01*
X159304492Y-123432999D01*
X159299001Y-123377247D01*
X159299001Y-122087130D01*
X159329000Y-122057131D01*
X159329000Y-122335033D01*
X159391832Y-122650912D01*
X159515082Y-122948463D01*
X159694013Y-123216252D01*
X159921748Y-123443987D01*
X160189537Y-123622918D01*
X160487088Y-123746168D01*
X160802967Y-123809000D01*
X161125033Y-123809000D01*
X161440912Y-123746168D01*
X161738463Y-123622918D01*
X162006252Y-123443987D01*
X162233987Y-123216252D01*
X162412918Y-122948463D01*
X162536168Y-122650912D01*
X162575336Y-122454000D01*
X162995343Y-122454000D01*
X162932815Y-122505315D01*
X162853463Y-122602006D01*
X162794498Y-122712320D01*
X162758188Y-122832018D01*
X162745928Y-122956500D01*
X162749000Y-123158250D01*
X162907750Y-123317000D01*
X163957000Y-123317000D01*
X163957000Y-123297000D01*
X164211000Y-123297000D01*
X164211000Y-123317000D01*
X165260250Y-123317000D01*
X165267837Y-123309413D01*
X166176192Y-123309413D01*
X166271956Y-123573814D01*
X166561571Y-123714704D01*
X166873108Y-123796384D01*
X167194595Y-123815718D01*
X167513675Y-123771961D01*
X167818088Y-123666795D01*
X167992044Y-123573814D01*
X168087808Y-123309413D01*
X167132000Y-122353605D01*
X166176192Y-123309413D01*
X165267837Y-123309413D01*
X165419000Y-123158250D01*
X165422072Y-122956500D01*
X165409812Y-122832018D01*
X165373502Y-122712320D01*
X165314537Y-122602006D01*
X165235185Y-122505315D01*
X165157436Y-122441508D01*
X165163792Y-122436292D01*
X165273458Y-122302664D01*
X165308772Y-122236595D01*
X165490282Y-122236595D01*
X165534039Y-122555675D01*
X165639205Y-122860088D01*
X165732186Y-123034044D01*
X165996587Y-123129808D01*
X166952395Y-122174000D01*
X167311605Y-122174000D01*
X168267413Y-123129808D01*
X168531814Y-123034044D01*
X168672704Y-122744429D01*
X168754384Y-122432892D01*
X168773718Y-122111405D01*
X168729961Y-121792325D01*
X168624795Y-121487912D01*
X168531814Y-121313956D01*
X168267413Y-121218192D01*
X167311605Y-122174000D01*
X166952395Y-122174000D01*
X165996587Y-121218192D01*
X165732186Y-121313956D01*
X165591296Y-121603571D01*
X165509616Y-121915108D01*
X165490282Y-122236595D01*
X165308772Y-122236595D01*
X165354947Y-122150209D01*
X165405128Y-121984785D01*
X165422072Y-121812750D01*
X165422072Y-121325250D01*
X165405128Y-121153215D01*
X165370356Y-121038587D01*
X166176192Y-121038587D01*
X167132000Y-121994395D01*
X168087808Y-121038587D01*
X167992044Y-120774186D01*
X167702429Y-120633296D01*
X167390892Y-120551616D01*
X167069405Y-120532282D01*
X166750325Y-120576039D01*
X166445912Y-120681205D01*
X166271956Y-120774186D01*
X166176192Y-121038587D01*
X165370356Y-121038587D01*
X165354947Y-120987791D01*
X165273458Y-120835336D01*
X165163792Y-120701708D01*
X165030164Y-120592042D01*
X164969000Y-120559349D01*
X164969000Y-119918454D01*
X165001205Y-119870256D01*
X165079226Y-119681898D01*
X165119000Y-119481939D01*
X165119000Y-119278061D01*
X165079226Y-119078102D01*
X165001205Y-118889744D01*
X164969000Y-118841546D01*
X164969000Y-118454651D01*
X165030164Y-118421958D01*
X165163792Y-118312292D01*
X165273458Y-118178664D01*
X165354947Y-118026209D01*
X165405128Y-117860785D01*
X165422072Y-117688750D01*
X165422072Y-117201250D01*
X165405128Y-117029215D01*
X165354947Y-116863791D01*
X165325882Y-116809413D01*
X166176192Y-116809413D01*
X166271956Y-117073814D01*
X166561571Y-117214704D01*
X166873108Y-117296384D01*
X167194595Y-117315718D01*
X167513675Y-117271961D01*
X167818088Y-117166795D01*
X167992044Y-117073814D01*
X168087808Y-116809413D01*
X167132000Y-115853605D01*
X166176192Y-116809413D01*
X165325882Y-116809413D01*
X165273458Y-116711336D01*
X165163792Y-116577708D01*
X165078244Y-116507500D01*
X165163792Y-116437292D01*
X165273458Y-116303664D01*
X165354947Y-116151209D01*
X165405128Y-115985785D01*
X165422072Y-115813750D01*
X165422072Y-115326250D01*
X165405128Y-115154215D01*
X165354947Y-114988791D01*
X165325852Y-114934358D01*
X165382219Y-114917259D01*
X165570710Y-114816509D01*
X165600000Y-114792471D01*
X165629290Y-114816509D01*
X165709966Y-114859631D01*
X165591296Y-115103571D01*
X165509616Y-115415108D01*
X165490282Y-115736595D01*
X165534039Y-116055675D01*
X165639205Y-116360088D01*
X165732186Y-116534044D01*
X165996587Y-116629808D01*
X166952395Y-115674000D01*
X166938253Y-115659858D01*
X167117858Y-115480253D01*
X167132000Y-115494395D01*
X167146143Y-115480253D01*
X167325748Y-115659858D01*
X167311605Y-115674000D01*
X168267413Y-116629808D01*
X168531814Y-116534044D01*
X168672704Y-116244429D01*
X168754384Y-115932892D01*
X168773718Y-115611405D01*
X168729961Y-115292325D01*
X168624795Y-114987912D01*
X168623409Y-114985318D01*
X168775000Y-115000249D01*
X168987696Y-114979300D01*
X169192219Y-114917259D01*
X169380710Y-114816509D01*
X169410000Y-114792471D01*
X169439290Y-114816509D01*
X169627780Y-114917259D01*
X169832303Y-114979300D01*
X170045000Y-115000249D01*
X170145464Y-114990354D01*
X170059832Y-115197088D01*
X169997000Y-115512967D01*
X169997000Y-115835033D01*
X170059832Y-116150912D01*
X170183082Y-116448463D01*
X170362013Y-116716252D01*
X170589748Y-116943987D01*
X170747000Y-117049059D01*
X170747001Y-120798940D01*
X170589748Y-120904013D01*
X170362013Y-121131748D01*
X170183082Y-121399537D01*
X170059832Y-121697088D01*
X169997000Y-122012967D01*
X169997000Y-122335033D01*
X170059832Y-122650912D01*
X170183082Y-122948463D01*
X170362013Y-123216252D01*
X170589748Y-123443987D01*
X170857537Y-123622918D01*
X171155088Y-123746168D01*
X171470967Y-123809000D01*
X171793033Y-123809000D01*
X171978525Y-123772103D01*
X173629001Y-125422580D01*
X173629002Y-127468524D01*
X173624720Y-127512003D01*
X173641806Y-127685493D01*
X173692413Y-127852316D01*
X173774591Y-128006062D01*
X173857469Y-128107049D01*
X173857472Y-128107052D01*
X173885185Y-128140820D01*
X173918952Y-128168532D01*
X175211469Y-129461050D01*
X175239182Y-129494818D01*
X175272950Y-129522531D01*
X175272952Y-129522533D01*
X175344451Y-129581211D01*
X175373940Y-129605412D01*
X175527686Y-129687590D01*
X175694509Y-129738196D01*
X175824522Y-129751001D01*
X175824532Y-129751001D01*
X175867998Y-129755282D01*
X175911464Y-129751001D01*
X176974449Y-129751001D01*
X177017918Y-129755282D01*
X177061387Y-129751001D01*
X177061395Y-129751001D01*
X177191408Y-129738196D01*
X177358231Y-129687590D01*
X177511977Y-129605412D01*
X177646735Y-129494818D01*
X177674452Y-129461045D01*
X177788052Y-129347445D01*
X177986986Y-129510706D01*
X178244966Y-129648599D01*
X178524889Y-129733513D01*
X178743050Y-129755000D01*
X178888950Y-129755000D01*
X179107111Y-129733513D01*
X179387034Y-129648599D01*
X179645014Y-129510706D01*
X179871134Y-129325134D01*
X180056706Y-129099014D01*
X180194599Y-128841034D01*
X180279513Y-128561111D01*
X180308185Y-128270000D01*
X180279513Y-127978889D01*
X180194599Y-127698966D01*
X180056706Y-127440986D01*
X179871134Y-127214866D01*
X179645014Y-127029294D01*
X179590209Y-127000000D01*
X179645014Y-126970706D01*
X179871134Y-126785134D01*
X180056706Y-126559014D01*
X180194599Y-126301034D01*
X180279513Y-126021111D01*
X180308185Y-125730000D01*
X180279513Y-125438889D01*
X180194599Y-125158966D01*
X180056706Y-124900986D01*
X179871134Y-124674866D01*
X179645014Y-124489294D01*
X179590209Y-124460000D01*
X179645014Y-124430706D01*
X179871134Y-124245134D01*
X180056706Y-124019014D01*
X180194599Y-123761034D01*
X180279513Y-123481111D01*
X180308185Y-123190000D01*
X180279513Y-122898889D01*
X180194599Y-122618966D01*
X180056706Y-122360986D01*
X179871134Y-122134866D01*
X179645014Y-121949294D01*
X179590209Y-121920000D01*
X179645014Y-121890706D01*
X179871134Y-121705134D01*
X180056706Y-121479014D01*
X180194599Y-121221034D01*
X180279513Y-120941111D01*
X180308185Y-120650000D01*
X180279513Y-120358889D01*
X180194599Y-120078966D01*
X180056706Y-119820986D01*
X179871134Y-119594866D01*
X179645014Y-119409294D01*
X179590209Y-119380000D01*
X179645014Y-119350706D01*
X179871134Y-119165134D01*
X180056706Y-118939014D01*
X180194599Y-118681034D01*
X180279513Y-118401111D01*
X180308185Y-118110000D01*
X180279513Y-117818889D01*
X180194599Y-117538966D01*
X180056706Y-117280986D01*
X179871134Y-117054866D01*
X179645014Y-116869294D01*
X179590209Y-116840000D01*
X179645014Y-116810706D01*
X179871134Y-116625134D01*
X180056706Y-116399014D01*
X180194599Y-116141034D01*
X180279513Y-115861111D01*
X180308185Y-115570000D01*
X180279513Y-115278889D01*
X180194599Y-114998966D01*
X180056706Y-114740986D01*
X179871134Y-114514866D01*
X179645014Y-114329294D01*
X179590209Y-114300000D01*
X179645014Y-114270706D01*
X179871134Y-114085134D01*
X180056706Y-113859014D01*
X180194599Y-113601034D01*
X180279513Y-113321111D01*
X180308185Y-113030000D01*
X180279513Y-112738889D01*
X180194599Y-112458966D01*
X180056706Y-112200986D01*
X179871134Y-111974866D01*
X179645014Y-111789294D01*
X179590209Y-111760000D01*
X179645014Y-111730706D01*
X179871134Y-111545134D01*
X180056706Y-111319014D01*
X180194599Y-111061034D01*
X180279513Y-110781111D01*
X180308185Y-110490000D01*
X180279513Y-110198889D01*
X180194599Y-109918966D01*
X180056706Y-109660986D01*
X179871134Y-109434866D01*
X179645014Y-109249294D01*
X179590209Y-109220000D01*
X179645014Y-109190706D01*
X179871134Y-109005134D01*
X180056706Y-108779014D01*
X180194599Y-108521034D01*
X180279513Y-108241111D01*
X180308185Y-107950000D01*
X180279513Y-107658889D01*
X180194599Y-107378966D01*
X180056706Y-107120986D01*
X179871134Y-106894866D01*
X179645014Y-106709294D01*
X179590209Y-106680000D01*
X179645014Y-106650706D01*
X179871134Y-106465134D01*
X180056706Y-106239014D01*
X180194599Y-105981034D01*
X180279513Y-105701111D01*
X180308185Y-105410000D01*
X180279513Y-105118889D01*
X180194599Y-104838966D01*
X180056706Y-104580986D01*
X179871134Y-104354866D01*
X179645014Y-104169294D01*
X179590209Y-104140000D01*
X179645014Y-104110706D01*
X179871134Y-103925134D01*
X180056706Y-103699014D01*
X180194599Y-103441034D01*
X180279513Y-103161111D01*
X180308185Y-102870000D01*
X180279513Y-102578889D01*
X180194599Y-102298966D01*
X180056706Y-102040986D01*
X179871134Y-101814866D01*
X179645014Y-101629294D01*
X179590209Y-101600000D01*
X179645014Y-101570706D01*
X179871134Y-101385134D01*
X180056706Y-101159014D01*
X180194599Y-100901034D01*
X180279513Y-100621111D01*
X180308185Y-100330000D01*
X180279513Y-100038889D01*
X180194599Y-99758966D01*
X180056706Y-99500986D01*
X179871134Y-99274866D01*
X179645014Y-99089294D01*
X179590209Y-99060000D01*
X179645014Y-99030706D01*
X179871134Y-98845134D01*
X180056706Y-98619014D01*
X180194599Y-98361034D01*
X180279513Y-98081111D01*
X180308185Y-97790000D01*
X180279513Y-97498889D01*
X180194599Y-97218966D01*
X180056706Y-96960986D01*
X179871134Y-96734866D01*
X179841313Y-96710393D01*
X179910180Y-96689502D01*
X180020494Y-96630537D01*
X180117185Y-96551185D01*
X180196537Y-96454494D01*
X180255502Y-96344180D01*
X180291812Y-96224482D01*
X180304072Y-96100000D01*
X180301000Y-95535750D01*
X180142250Y-95377000D01*
X178943000Y-95377000D01*
X178943000Y-95397000D01*
X178689000Y-95397000D01*
X178689000Y-95377000D01*
X177489750Y-95377000D01*
X177331000Y-95535750D01*
X177330933Y-95547982D01*
X177198490Y-95507805D01*
X177068477Y-95495000D01*
X177068469Y-95495000D01*
X177025000Y-95490719D01*
X176981531Y-95495000D01*
X175142295Y-95495000D01*
X175174408Y-95404001D01*
X175047502Y-95237000D01*
X173457000Y-95237000D01*
X173457000Y-95257000D01*
X173203000Y-95257000D01*
X173203000Y-95237000D01*
X171612498Y-95237000D01*
X171485592Y-95404001D01*
X171557298Y-95607197D01*
X171646537Y-95746208D01*
X171623491Y-95774290D01*
X171522741Y-95962780D01*
X171460700Y-96167303D01*
X171439751Y-96380000D01*
X171460700Y-96592697D01*
X171522741Y-96797220D01*
X171623491Y-96985710D01*
X171647529Y-97015000D01*
X171623491Y-97044290D01*
X171522741Y-97232780D01*
X171460700Y-97437303D01*
X171439751Y-97650000D01*
X171454740Y-97802190D01*
X171297939Y-97771000D01*
X171094061Y-97771000D01*
X170894102Y-97810774D01*
X170705744Y-97888795D01*
X170536226Y-98002063D01*
X170392063Y-98146226D01*
X170278795Y-98315744D01*
X170200774Y-98504102D01*
X170161000Y-98704061D01*
X170161000Y-98907939D01*
X170200774Y-99107898D01*
X170278795Y-99296256D01*
X170375510Y-99441000D01*
X170278795Y-99585744D01*
X170200774Y-99774102D01*
X170161000Y-99974061D01*
X170161000Y-100177939D01*
X170200774Y-100377898D01*
X170278795Y-100566256D01*
X170375510Y-100711000D01*
X170278795Y-100855744D01*
X170200774Y-101044102D01*
X170161000Y-101244061D01*
X170161000Y-101447939D01*
X170200774Y-101647898D01*
X170278795Y-101836256D01*
X170392063Y-102005774D01*
X170536226Y-102149937D01*
X170705744Y-102263205D01*
X170894102Y-102341226D01*
X171094061Y-102381000D01*
X171297939Y-102381000D01*
X171478925Y-102345000D01*
X171512967Y-102345000D01*
X171460700Y-102517303D01*
X171439751Y-102730000D01*
X171454740Y-102882190D01*
X171297939Y-102851000D01*
X171094061Y-102851000D01*
X170894102Y-102890774D01*
X170705744Y-102968795D01*
X170536226Y-103082063D01*
X170392063Y-103226226D01*
X170278795Y-103395744D01*
X170200774Y-103584102D01*
X170161000Y-103784061D01*
X170161000Y-103987939D01*
X170200774Y-104187898D01*
X170278795Y-104376256D01*
X170375510Y-104521000D01*
X170278795Y-104665744D01*
X170200774Y-104854102D01*
X170161000Y-105054061D01*
X170161000Y-105257939D01*
X170200774Y-105457898D01*
X170278795Y-105646256D01*
X170375510Y-105791000D01*
X170278795Y-105935744D01*
X170200774Y-106124102D01*
X170161000Y-106324061D01*
X170161000Y-106527939D01*
X170200774Y-106727898D01*
X170278795Y-106916256D01*
X170392063Y-107085774D01*
X170536226Y-107229937D01*
X170705744Y-107343205D01*
X170894102Y-107421226D01*
X171094061Y-107461000D01*
X171297939Y-107461000D01*
X171478925Y-107425000D01*
X171512967Y-107425000D01*
X171460700Y-107597303D01*
X171439751Y-107810000D01*
X171460700Y-108022697D01*
X171522741Y-108227220D01*
X171623491Y-108415710D01*
X171647529Y-108445000D01*
X171623491Y-108474290D01*
X171522741Y-108662780D01*
X171460700Y-108867303D01*
X171439751Y-109080000D01*
X171460700Y-109292697D01*
X171522741Y-109497220D01*
X171623491Y-109685710D01*
X171647529Y-109715000D01*
X171623491Y-109744290D01*
X171522741Y-109932780D01*
X171460700Y-110137303D01*
X171439751Y-110350000D01*
X171460700Y-110562697D01*
X171522741Y-110767220D01*
X171623491Y-110955710D01*
X171647529Y-110985000D01*
X171623491Y-111014290D01*
X171522741Y-111202780D01*
X171460700Y-111407303D01*
X171439751Y-111620000D01*
X171460700Y-111832697D01*
X171522741Y-112037220D01*
X171623491Y-112225710D01*
X171759078Y-112390922D01*
X171924290Y-112526509D01*
X172112780Y-112627259D01*
X172317303Y-112689300D01*
X172445000Y-112701877D01*
X172445001Y-113609420D01*
X171978525Y-114075896D01*
X171793033Y-114039000D01*
X171470967Y-114039000D01*
X171155088Y-114101832D01*
X171114708Y-114118558D01*
X171130000Y-113963294D01*
X171130000Y-112256706D01*
X171114300Y-112097303D01*
X171052259Y-111892780D01*
X170951509Y-111704290D01*
X170815922Y-111539078D01*
X170650710Y-111403491D01*
X170462220Y-111302741D01*
X170257697Y-111240700D01*
X170045000Y-111219751D01*
X169832304Y-111240700D01*
X169627781Y-111302741D01*
X169439291Y-111403491D01*
X169410001Y-111427529D01*
X169380710Y-111403491D01*
X169192220Y-111302741D01*
X168987697Y-111240700D01*
X168775000Y-111219751D01*
X168562304Y-111240700D01*
X168357781Y-111302741D01*
X168169291Y-111403491D01*
X168140001Y-111427529D01*
X168110710Y-111403491D01*
X167922220Y-111302741D01*
X167717697Y-111240700D01*
X167505000Y-111219751D01*
X167292304Y-111240700D01*
X167087781Y-111302741D01*
X166899291Y-111403491D01*
X166870001Y-111427529D01*
X166840710Y-111403491D01*
X166652220Y-111302741D01*
X166447697Y-111240700D01*
X166235000Y-111219751D01*
X166022304Y-111240700D01*
X165817781Y-111302741D01*
X165629291Y-111403491D01*
X165600001Y-111427529D01*
X165570710Y-111403491D01*
X165382220Y-111302741D01*
X165177697Y-111240700D01*
X164965000Y-111219751D01*
X164752304Y-111240700D01*
X164547781Y-111302741D01*
X164359291Y-111403491D01*
X164330001Y-111427529D01*
X164300710Y-111403491D01*
X164112220Y-111302741D01*
X163907697Y-111240700D01*
X163695000Y-111219751D01*
X163482304Y-111240700D01*
X163277781Y-111302741D01*
X163089291Y-111403491D01*
X163060001Y-111427529D01*
X163030710Y-111403491D01*
X162842220Y-111302741D01*
X162637697Y-111240700D01*
X162425000Y-111219751D01*
X162212304Y-111240700D01*
X162007781Y-111302741D01*
X161819291Y-111403491D01*
X161790001Y-111427529D01*
X161760710Y-111403491D01*
X161572220Y-111302741D01*
X161367697Y-111240700D01*
X161155000Y-111219751D01*
X160942304Y-111240700D01*
X160737781Y-111302741D01*
X160549291Y-111403491D01*
X160520001Y-111427529D01*
X160490710Y-111403491D01*
X160302220Y-111302741D01*
X160097697Y-111240700D01*
X159885000Y-111219751D01*
X159672304Y-111240700D01*
X159467781Y-111302741D01*
X159279291Y-111403491D01*
X159250001Y-111427529D01*
X159220710Y-111403491D01*
X159033635Y-111303497D01*
X159089141Y-111247991D01*
X159132450Y-111212448D01*
X159274285Y-111039622D01*
X159379677Y-110842446D01*
X159433964Y-110663489D01*
X159444578Y-110628499D01*
X159453126Y-110541704D01*
X159461001Y-110461751D01*
X159461001Y-110461744D01*
X159466491Y-110406000D01*
X159461001Y-110350256D01*
X159461001Y-105810000D01*
X160391928Y-105810000D01*
X160404188Y-105934482D01*
X160440498Y-106054180D01*
X160499463Y-106164494D01*
X160578815Y-106261185D01*
X160675506Y-106340537D01*
X160785820Y-106399502D01*
X160905518Y-106435812D01*
X161030000Y-106448072D01*
X163744250Y-106445000D01*
X163903000Y-106286250D01*
X163903000Y-102937000D01*
X164157000Y-102937000D01*
X164157000Y-106286250D01*
X164315750Y-106445000D01*
X167030000Y-106448072D01*
X167154482Y-106435812D01*
X167274180Y-106399502D01*
X167384494Y-106340537D01*
X167481185Y-106261185D01*
X167560537Y-106164494D01*
X167619502Y-106054180D01*
X167655812Y-105934482D01*
X167668072Y-105810000D01*
X167665000Y-103095750D01*
X167506250Y-102937000D01*
X164157000Y-102937000D01*
X163903000Y-102937000D01*
X160553750Y-102937000D01*
X160395000Y-103095750D01*
X160391928Y-105810000D01*
X159461001Y-105810000D01*
X159461001Y-99810000D01*
X160391928Y-99810000D01*
X160395000Y-102524250D01*
X160553750Y-102683000D01*
X163903000Y-102683000D01*
X163903000Y-99333750D01*
X164157000Y-99333750D01*
X164157000Y-102683000D01*
X167506250Y-102683000D01*
X167665000Y-102524250D01*
X167668072Y-99810000D01*
X167655812Y-99685518D01*
X167619502Y-99565820D01*
X167560537Y-99455506D01*
X167481185Y-99358815D01*
X167384494Y-99279463D01*
X167274180Y-99220498D01*
X167154482Y-99184188D01*
X167030000Y-99171928D01*
X164315750Y-99175000D01*
X164157000Y-99333750D01*
X163903000Y-99333750D01*
X163744250Y-99175000D01*
X161030000Y-99171928D01*
X160905518Y-99184188D01*
X160785820Y-99220498D01*
X160675506Y-99279463D01*
X160578815Y-99358815D01*
X160499463Y-99455506D01*
X160440498Y-99565820D01*
X160404188Y-99685518D01*
X160391928Y-99810000D01*
X159461001Y-99810000D01*
X159461001Y-97317740D01*
X159466491Y-97261998D01*
X159461001Y-97206256D01*
X159461001Y-97206247D01*
X159444578Y-97039500D01*
X159379677Y-96825552D01*
X159274285Y-96628376D01*
X159132450Y-96455550D01*
X159089141Y-96420007D01*
X158356006Y-95686873D01*
X158320460Y-95643560D01*
X158147634Y-95501725D01*
X157950458Y-95396333D01*
X157736510Y-95331432D01*
X157569763Y-95315009D01*
X157569762Y-95315009D01*
X157514011Y-95309518D01*
X157458260Y-95315009D01*
X157106782Y-95315009D01*
X157047502Y-95237000D01*
X155460131Y-95237000D01*
X155368752Y-95228000D01*
X155368751Y-95228000D01*
X155313000Y-95222509D01*
X155257249Y-95228000D01*
X155183000Y-95228000D01*
X155183000Y-94983000D01*
X155203000Y-94983000D01*
X155203000Y-94963000D01*
X155457000Y-94963000D01*
X155457000Y-94983000D01*
X157047502Y-94983000D01*
X157174408Y-94815999D01*
X157102702Y-94612803D01*
X156987014Y-94432592D01*
X156838391Y-94278413D01*
X156663709Y-94157000D01*
X171996291Y-94157000D01*
X171821609Y-94278413D01*
X171672986Y-94432592D01*
X171557298Y-94612803D01*
X171485592Y-94815999D01*
X171612498Y-94983000D01*
X173203000Y-94983000D01*
X173203000Y-94963000D01*
X173457000Y-94963000D01*
X173457000Y-94983000D01*
X175047502Y-94983000D01*
X175174408Y-94815999D01*
X175102702Y-94612803D01*
X174987014Y-94432592D01*
X174838391Y-94278413D01*
X174663709Y-94157000D01*
X177376140Y-94157000D01*
X177340188Y-94275518D01*
X177327928Y-94400000D01*
X177331000Y-94964250D01*
X177489750Y-95123000D01*
X178689000Y-95123000D01*
X178689000Y-95103000D01*
X178943000Y-95103000D01*
X178943000Y-95123000D01*
X180142250Y-95123000D01*
X180301000Y-94964250D01*
X180304072Y-94400000D01*
X180291812Y-94275518D01*
X180255860Y-94157000D01*
X180560496Y-94157000D01*
X180706992Y-94171364D01*
X180815670Y-94204176D01*
X180915918Y-94257479D01*
X181003897Y-94329232D01*
X181076263Y-94416707D01*
X181130263Y-94516579D01*
X181163833Y-94625027D01*
X181179000Y-94769331D01*
X181179001Y-142587486D01*
X181164636Y-142733992D01*
X181131823Y-142842672D01*
X181078522Y-142942917D01*
X181006769Y-143030895D01*
X180919292Y-143103263D01*
X180819420Y-143157263D01*
X180710973Y-143190833D01*
X180566669Y-143206000D01*
X148115504Y-143206000D01*
X147969008Y-143191636D01*
X147860328Y-143158823D01*
X147760083Y-143105522D01*
X147672105Y-143033769D01*
X147599737Y-142946292D01*
X147545737Y-142846420D01*
X147512167Y-142737973D01*
X147497000Y-142593669D01*
X147497000Y-137138742D01*
X147920715Y-137138742D01*
X147989904Y-137421745D01*
X148112975Y-137685812D01*
X148285198Y-137920795D01*
X148499954Y-138117664D01*
X148748991Y-138268854D01*
X149022739Y-138368554D01*
X149035110Y-138370476D01*
X149265000Y-138249155D01*
X149265000Y-136906000D01*
X148064768Y-136906000D01*
X147920715Y-137138742D01*
X147497000Y-137138742D01*
X147497000Y-136419258D01*
X147920715Y-136419258D01*
X148064768Y-136652000D01*
X149265000Y-136652000D01*
X149265000Y-135308845D01*
X149035110Y-135187524D01*
X149022739Y-135189446D01*
X148748991Y-135289146D01*
X148499954Y-135440336D01*
X148285198Y-135637205D01*
X148112975Y-135872188D01*
X147989904Y-136136255D01*
X147920715Y-136419258D01*
X147497000Y-136419258D01*
X147497000Y-94775504D01*
X147511364Y-94629008D01*
X147544176Y-94520330D01*
X147597479Y-94420082D01*
X147669232Y-94332103D01*
X147756707Y-94259737D01*
X147856579Y-94205737D01*
X147965027Y-94172167D01*
X148109331Y-94157000D01*
X148166140Y-94157000D01*
X148130188Y-94275518D01*
X148130188Y-94275518D01*
G37*
X148130188Y-94275518D02*
X148117928Y-94400000D01*
X148121000Y-94964250D01*
X148279750Y-95123000D01*
X149479000Y-95123000D01*
X149479000Y-95103000D01*
X149733000Y-95103000D01*
X149733000Y-95123000D01*
X150932250Y-95123000D01*
X151091000Y-94964250D01*
X151094072Y-94400000D01*
X151081812Y-94275518D01*
X151045860Y-94157000D01*
X151318311Y-94157000D01*
X151319000Y-94202250D01*
X151477750Y-94361000D01*
X152527000Y-94361000D01*
X152527000Y-94341000D01*
X152781000Y-94341000D01*
X152781000Y-94361000D01*
X152801000Y-94361000D01*
X152801000Y-94615000D01*
X152781000Y-94615000D01*
X152781000Y-94635000D01*
X152527000Y-94635000D01*
X152527000Y-94615000D01*
X151477750Y-94615000D01*
X151319000Y-94773750D01*
X151315928Y-94975500D01*
X151328188Y-95099982D01*
X151364498Y-95219680D01*
X151423463Y-95329994D01*
X151502815Y-95426685D01*
X151580564Y-95490492D01*
X151574208Y-95495708D01*
X151464542Y-95629336D01*
X151383053Y-95781791D01*
X151332872Y-95947215D01*
X151315928Y-96119250D01*
X151315928Y-96606750D01*
X151321052Y-96658772D01*
X151282752Y-96655000D01*
X151282751Y-96655000D01*
X151227000Y-96649509D01*
X151171249Y-96655000D01*
X150764728Y-96655000D01*
X150810494Y-96630537D01*
X150907185Y-96551185D01*
X150986537Y-96454494D01*
X151045502Y-96344180D01*
X151081812Y-96224482D01*
X151094072Y-96100000D01*
X151091000Y-95535750D01*
X150932250Y-95377000D01*
X149733000Y-95377000D01*
X149733000Y-95397000D01*
X149479000Y-95397000D01*
X149479000Y-95377000D01*
X148279750Y-95377000D01*
X148121000Y-95535750D01*
X148117928Y-96100000D01*
X148130188Y-96224482D01*
X148166498Y-96344180D01*
X148225463Y-96454494D01*
X148304815Y-96551185D01*
X148401506Y-96630537D01*
X148511820Y-96689502D01*
X148580687Y-96710393D01*
X148550866Y-96734866D01*
X148365294Y-96960986D01*
X148227401Y-97218966D01*
X148142487Y-97498889D01*
X148113815Y-97790000D01*
X148142487Y-98081111D01*
X148227401Y-98361034D01*
X148365294Y-98619014D01*
X148550866Y-98845134D01*
X148776986Y-99030706D01*
X148831791Y-99060000D01*
X148776986Y-99089294D01*
X148550866Y-99274866D01*
X148365294Y-99500986D01*
X148227401Y-99758966D01*
X148142487Y-100038889D01*
X148113815Y-100330000D01*
X148142487Y-100621111D01*
X148227401Y-100901034D01*
X148365294Y-101159014D01*
X148550866Y-101385134D01*
X148776986Y-101570706D01*
X148831791Y-101600000D01*
X148776986Y-101629294D01*
X148550866Y-101814866D01*
X148365294Y-102040986D01*
X148227401Y-102298966D01*
X148142487Y-102578889D01*
X148113815Y-102870000D01*
X148142487Y-103161111D01*
X148227401Y-103441034D01*
X148365294Y-103699014D01*
X148550866Y-103925134D01*
X148776986Y-104110706D01*
X148831791Y-104140000D01*
X148776986Y-104169294D01*
X148550866Y-104354866D01*
X148365294Y-104580986D01*
X148227401Y-104838966D01*
X148142487Y-105118889D01*
X148113815Y-105410000D01*
X148142487Y-105701111D01*
X148227401Y-105981034D01*
X148365294Y-106239014D01*
X148550866Y-106465134D01*
X148776986Y-106650706D01*
X148831791Y-106680000D01*
X148776986Y-106709294D01*
X148550866Y-106894866D01*
X148365294Y-107120986D01*
X148227401Y-107378966D01*
X148142487Y-107658889D01*
X148113815Y-107950000D01*
X148142487Y-108241111D01*
X148227401Y-108521034D01*
X148365294Y-108779014D01*
X148550866Y-109005134D01*
X148776986Y-109190706D01*
X148831791Y-109220000D01*
X148776986Y-109249294D01*
X148550866Y-109434866D01*
X148365294Y-109660986D01*
X148227401Y-109918966D01*
X148142487Y-110198889D01*
X148113815Y-110490000D01*
X148142487Y-110781111D01*
X148227401Y-111061034D01*
X148365294Y-111319014D01*
X148550866Y-111545134D01*
X148776986Y-111730706D01*
X148831791Y-111760000D01*
X148776986Y-111789294D01*
X148550866Y-111974866D01*
X148365294Y-112200986D01*
X148227401Y-112458966D01*
X148142487Y-112738889D01*
X148113815Y-113030000D01*
X148142487Y-113321111D01*
X148227401Y-113601034D01*
X148365294Y-113859014D01*
X148550866Y-114085134D01*
X148776986Y-114270706D01*
X148831791Y-114300000D01*
X148776986Y-114329294D01*
X148550866Y-114514866D01*
X148365294Y-114740986D01*
X148227401Y-114998966D01*
X148142487Y-115278889D01*
X148113815Y-115570000D01*
X148142487Y-115861111D01*
X148227401Y-116141034D01*
X148365294Y-116399014D01*
X148550866Y-116625134D01*
X148776986Y-116810706D01*
X148831791Y-116840000D01*
X148776986Y-116869294D01*
X148550866Y-117054866D01*
X148365294Y-117280986D01*
X148227401Y-117538966D01*
X148142487Y-117818889D01*
X148113815Y-118110000D01*
X148142487Y-118401111D01*
X148227401Y-118681034D01*
X148365294Y-118939014D01*
X148550866Y-119165134D01*
X148776986Y-119350706D01*
X148831791Y-119380000D01*
X148776986Y-119409294D01*
X148550866Y-119594866D01*
X148365294Y-119820986D01*
X148227401Y-120078966D01*
X148142487Y-120358889D01*
X148113815Y-120650000D01*
X148142487Y-120941111D01*
X148227401Y-121221034D01*
X148365294Y-121479014D01*
X148550866Y-121705134D01*
X148776986Y-121890706D01*
X148831791Y-121920000D01*
X148776986Y-121949294D01*
X148550866Y-122134866D01*
X148365294Y-122360986D01*
X148227401Y-122618966D01*
X148142487Y-122898889D01*
X148113815Y-123190000D01*
X148142487Y-123481111D01*
X148227401Y-123761034D01*
X148365294Y-124019014D01*
X148550866Y-124245134D01*
X148776986Y-124430706D01*
X148831791Y-124460000D01*
X148776986Y-124489294D01*
X148550866Y-124674866D01*
X148365294Y-124900986D01*
X148227401Y-125158966D01*
X148142487Y-125438889D01*
X148113815Y-125730000D01*
X148142487Y-126021111D01*
X148227401Y-126301034D01*
X148365294Y-126559014D01*
X148550866Y-126785134D01*
X148776986Y-126970706D01*
X148831791Y-127000000D01*
X148776986Y-127029294D01*
X148550866Y-127214866D01*
X148365294Y-127440986D01*
X148227401Y-127698966D01*
X148142487Y-127978889D01*
X148113815Y-128270000D01*
X148142487Y-128561111D01*
X148227401Y-128841034D01*
X148365294Y-129099014D01*
X148550866Y-129325134D01*
X148776986Y-129510706D01*
X149034966Y-129648599D01*
X149314889Y-129733513D01*
X149533050Y-129755000D01*
X149678950Y-129755000D01*
X149897111Y-129733513D01*
X150177034Y-129648599D01*
X150435014Y-129510706D01*
X150661134Y-129325134D01*
X150846706Y-129099014D01*
X150984599Y-128841034D01*
X151069513Y-128561111D01*
X151098185Y-128270000D01*
X151076612Y-128050967D01*
X151112531Y-128015048D01*
X151112536Y-128015042D01*
X151501045Y-127626533D01*
X151534818Y-127598816D01*
X151645412Y-127464058D01*
X151727590Y-127310312D01*
X151778196Y-127143489D01*
X151791001Y-127013476D01*
X151791001Y-127013468D01*
X151795282Y-126969999D01*
X151791001Y-126926530D01*
X151791001Y-125786540D01*
X152653021Y-124924521D01*
X152686789Y-124896808D01*
X152725013Y-124850233D01*
X152797382Y-124762051D01*
X152822163Y-124715689D01*
X152879561Y-124608304D01*
X152930167Y-124441481D01*
X152942972Y-124311468D01*
X152942972Y-124311458D01*
X152947253Y-124267992D01*
X152942972Y-124224525D01*
X152942972Y-123084532D01*
X153790909Y-122236595D01*
X154822282Y-122236595D01*
X154866039Y-122555675D01*
X154971205Y-122860088D01*
X155064186Y-123034044D01*
X155328587Y-123129808D01*
X156284395Y-122174000D01*
X155328587Y-121218192D01*
X155064186Y-121313956D01*
X154923296Y-121603571D01*
X154841616Y-121915108D01*
X154822282Y-122236595D01*
X153790909Y-122236595D01*
X153825079Y-122202426D01*
X153858847Y-122174713D01*
X153897071Y-122128138D01*
X153969440Y-122039956D01*
X153969441Y-122039955D01*
X154051619Y-121886209D01*
X154102225Y-121719386D01*
X154115030Y-121589373D01*
X154115030Y-121589363D01*
X154119311Y-121545897D01*
X154115030Y-121502431D01*
X154115030Y-117750531D01*
X154519049Y-117346513D01*
X154552817Y-117318800D01*
X154583851Y-117280986D01*
X154663411Y-117184042D01*
X154705826Y-117104688D01*
X154745589Y-117030296D01*
X154796195Y-116863473D01*
X154809000Y-116733460D01*
X154809000Y-116733452D01*
X154813281Y-116689983D01*
X154809000Y-116646514D01*
X154809000Y-115736595D01*
X154822282Y-115736595D01*
X154866039Y-116055675D01*
X154971205Y-116360088D01*
X155064186Y-116534044D01*
X155328587Y-116629808D01*
X156284395Y-115674000D01*
X155328587Y-114718192D01*
X155064186Y-114813956D01*
X154923296Y-115103571D01*
X154841616Y-115415108D01*
X154822282Y-115736595D01*
X154809000Y-115736595D01*
X154809000Y-112836055D01*
X155095124Y-112705000D01*
X156183294Y-112705000D01*
X156218000Y-112701582D01*
X156218001Y-114057433D01*
X156082325Y-114076039D01*
X155777912Y-114181205D01*
X155603956Y-114274186D01*
X155508192Y-114538587D01*
X156464000Y-115494395D01*
X156478143Y-115480253D01*
X156657748Y-115659858D01*
X156643605Y-115674000D01*
X156657748Y-115688143D01*
X156478143Y-115867748D01*
X156464000Y-115853605D01*
X155508192Y-116809413D01*
X155603956Y-117073814D01*
X155893571Y-117214704D01*
X156205108Y-117296384D01*
X156526595Y-117315718D01*
X156845675Y-117271961D01*
X157145951Y-117168224D01*
X157154717Y-117184624D01*
X157258568Y-117311166D01*
X157296552Y-117357450D01*
X157339855Y-117392988D01*
X159061367Y-119114501D01*
X157400865Y-120775003D01*
X157357552Y-120810550D01*
X157343442Y-120827743D01*
X157324044Y-120774186D01*
X157034429Y-120633296D01*
X156722892Y-120551616D01*
X156401405Y-120532282D01*
X156082325Y-120576039D01*
X155777912Y-120681205D01*
X155603956Y-120774186D01*
X155508192Y-121038587D01*
X156464000Y-121994395D01*
X156478143Y-121980253D01*
X156657748Y-122159858D01*
X156643605Y-122174000D01*
X156657748Y-122188143D01*
X156478143Y-122367748D01*
X156464000Y-122353605D01*
X155508192Y-123309413D01*
X155603956Y-123573814D01*
X155893571Y-123714704D01*
X156197483Y-123794385D01*
X155062864Y-124929004D01*
X155019551Y-124964551D01*
X154877716Y-125137377D01*
X154819404Y-125246473D01*
X154772324Y-125334554D01*
X154707423Y-125548502D01*
X154696703Y-125657346D01*
X154680610Y-125687453D01*
X154664553Y-125692324D01*
X154467377Y-125797716D01*
X154294551Y-125939551D01*
X154259008Y-125982860D01*
X153244865Y-126997003D01*
X153201552Y-127032550D01*
X153059717Y-127205376D01*
X152963707Y-127385000D01*
X152954325Y-127402553D01*
X152889424Y-127616501D01*
X152867510Y-127838999D01*
X152873001Y-127894751D01*
X152873002Y-132391869D01*
X152632502Y-132632369D01*
X152508376Y-132698715D01*
X152378855Y-132805010D01*
X152378853Y-132805012D01*
X152335550Y-132840550D01*
X152300012Y-132883853D01*
X151128864Y-134055003D01*
X151085551Y-134090549D01*
X150943716Y-134263375D01*
X150865268Y-134410143D01*
X150838324Y-134460552D01*
X150773423Y-134674500D01*
X150751509Y-134896998D01*
X150757000Y-134952749D01*
X150757000Y-135324747D01*
X150664038Y-135401038D01*
X150553595Y-135535614D01*
X150499086Y-135637593D01*
X150498802Y-135637205D01*
X150284046Y-135440336D01*
X150035009Y-135289146D01*
X149761261Y-135189446D01*
X149748890Y-135187524D01*
X149519000Y-135308845D01*
X149519000Y-136652000D01*
X149539000Y-136652000D01*
X149539000Y-136906000D01*
X149519000Y-136906000D01*
X149519000Y-138249155D01*
X149748890Y-138370476D01*
X149761261Y-138368554D01*
X150035009Y-138268854D01*
X150284046Y-138117664D01*
X150498802Y-137920795D01*
X150499086Y-137920407D01*
X150553595Y-138022386D01*
X150664038Y-138156962D01*
X150798614Y-138267405D01*
X150828615Y-138283441D01*
X150838324Y-138315447D01*
X150943717Y-138512623D01*
X151085552Y-138685449D01*
X151128860Y-138720991D01*
X151625014Y-139217145D01*
X151660561Y-139260459D01*
X151833387Y-139402294D01*
X152030563Y-139507686D01*
X152244511Y-139572587D01*
X152467010Y-139594501D01*
X152522761Y-139589010D01*
X163877239Y-139589010D01*
X163932990Y-139594501D01*
X163988741Y-139589010D01*
X163988742Y-139589010D01*
X164155489Y-139572587D01*
X164369437Y-139507686D01*
X164566613Y-139402294D01*
X164739439Y-139260459D01*
X164774985Y-139217146D01*
X165551616Y-138440516D01*
X165551620Y-138440511D01*
X165600059Y-138392072D01*
X166208000Y-138392072D01*
X166381254Y-138375008D01*
X166509864Y-138335995D01*
X167391019Y-139217150D01*
X167426561Y-139260459D01*
X167599386Y-139402293D01*
X167599387Y-139402294D01*
X167796563Y-139507686D01*
X168010511Y-139572587D01*
X168233010Y-139594501D01*
X168288762Y-139589010D01*
X177593239Y-139589010D01*
X177648990Y-139594501D01*
X177704741Y-139589010D01*
X177704742Y-139589010D01*
X177871489Y-139572587D01*
X178085437Y-139507686D01*
X178282613Y-139402294D01*
X178455439Y-139260459D01*
X178490985Y-139217146D01*
X179267616Y-138440516D01*
X179267620Y-138440511D01*
X179316059Y-138392072D01*
X179924000Y-138392072D01*
X180097254Y-138375008D01*
X180263850Y-138324472D01*
X180417386Y-138242405D01*
X180551962Y-138131962D01*
X180662405Y-137997386D01*
X180744472Y-137843850D01*
X180795008Y-137677254D01*
X180812072Y-137504000D01*
X180812072Y-136054000D01*
X180795008Y-135880746D01*
X180744472Y-135714150D01*
X180662405Y-135560614D01*
X180551962Y-135426038D01*
X180417386Y-135315595D01*
X180263850Y-135233528D01*
X180097254Y-135182992D01*
X179924000Y-135165928D01*
X178724000Y-135165928D01*
X178550746Y-135182992D01*
X178384150Y-135233528D01*
X178230614Y-135315595D01*
X178096038Y-135426038D01*
X177985595Y-135560614D01*
X177931223Y-135662337D01*
X177879134Y-135598866D01*
X177653014Y-135413294D01*
X177395034Y-135275401D01*
X177115111Y-135190487D01*
X176824000Y-135161815D01*
X176532890Y-135190487D01*
X176252967Y-135275401D01*
X175994987Y-135413294D01*
X175768866Y-135598866D01*
X175583294Y-135824986D01*
X175574000Y-135842374D01*
X175564706Y-135824986D01*
X175379134Y-135598866D01*
X175153014Y-135413294D01*
X174895034Y-135275401D01*
X174615111Y-135190487D01*
X174324000Y-135161815D01*
X174032890Y-135190487D01*
X173752967Y-135275401D01*
X173494987Y-135413294D01*
X173268866Y-135598866D01*
X173083294Y-135824986D01*
X173069538Y-135850722D01*
X172913049Y-135644571D01*
X172695193Y-135451504D01*
X172443858Y-135304648D01*
X172180890Y-135212524D01*
X171951000Y-135333845D01*
X171951000Y-136652000D01*
X171971000Y-136652000D01*
X171971000Y-136906000D01*
X171951000Y-136906000D01*
X171951000Y-136926000D01*
X171697000Y-136926000D01*
X171697000Y-136906000D01*
X170497835Y-136906000D01*
X170357680Y-137138267D01*
X170405104Y-137319010D01*
X168703142Y-137319010D01*
X167803865Y-136419733D01*
X170357680Y-136419733D01*
X170497835Y-136652000D01*
X171697000Y-136652000D01*
X171697000Y-135333845D01*
X171467110Y-135212524D01*
X171204142Y-135304648D01*
X170952807Y-135451504D01*
X170734951Y-135644571D01*
X170558947Y-135876430D01*
X170431558Y-136138170D01*
X170357680Y-136419733D01*
X167803865Y-136419733D01*
X167399996Y-136015865D01*
X167364449Y-135972551D01*
X167191623Y-135830716D01*
X167039102Y-135749192D01*
X167028472Y-135714150D01*
X166946405Y-135560614D01*
X166835962Y-135426038D01*
X166701386Y-135315595D01*
X166547850Y-135233528D01*
X166381254Y-135182992D01*
X166208000Y-135165928D01*
X165008000Y-135165928D01*
X164834746Y-135182992D01*
X164668150Y-135233528D01*
X164514614Y-135315595D01*
X164380038Y-135426038D01*
X164269595Y-135560614D01*
X164215223Y-135662337D01*
X164163134Y-135598866D01*
X163937014Y-135413294D01*
X163679034Y-135275401D01*
X163399111Y-135190487D01*
X163108000Y-135161815D01*
X162816890Y-135190487D01*
X162536967Y-135275401D01*
X162278987Y-135413294D01*
X162052866Y-135598866D01*
X161867294Y-135824986D01*
X161858000Y-135842374D01*
X161848706Y-135824986D01*
X161663134Y-135598866D01*
X161437014Y-135413294D01*
X161179034Y-135275401D01*
X160899111Y-135190487D01*
X160608000Y-135161815D01*
X160316890Y-135190487D01*
X160036967Y-135275401D01*
X159778987Y-135413294D01*
X159552866Y-135598866D01*
X159367294Y-135824986D01*
X159353538Y-135850722D01*
X159197049Y-135644571D01*
X158979193Y-135451504D01*
X158727858Y-135304648D01*
X158464890Y-135212524D01*
X158235000Y-135333845D01*
X158235000Y-136652000D01*
X158255000Y-136652000D01*
X158255000Y-136906000D01*
X158235000Y-136906000D01*
X158235000Y-136926000D01*
X157981000Y-136926000D01*
X157981000Y-136906000D01*
X156781835Y-136906000D01*
X156641680Y-137138267D01*
X156689104Y-137319010D01*
X153380072Y-137319010D01*
X153380072Y-136419733D01*
X156641680Y-136419733D01*
X156781835Y-136652000D01*
X157981000Y-136652000D01*
X157981000Y-135333845D01*
X157751110Y-135212524D01*
X157488142Y-135304648D01*
X157236807Y-135451504D01*
X157018951Y-135644571D01*
X156842947Y-135876430D01*
X156715558Y-136138170D01*
X156641680Y-136419733D01*
X153380072Y-136419733D01*
X153380072Y-136029000D01*
X153363008Y-135855746D01*
X153312472Y-135689150D01*
X153230405Y-135535614D01*
X153119962Y-135401038D01*
X153050279Y-135343851D01*
X153612131Y-134781999D01*
X153659755Y-134781999D01*
X153826502Y-134765576D01*
X154040450Y-134700675D01*
X154237626Y-134595283D01*
X154410452Y-134453448D01*
X154552287Y-134280622D01*
X154657679Y-134083446D01*
X154722580Y-133869498D01*
X154735356Y-133739778D01*
X154771141Y-133703993D01*
X154814450Y-133668450D01*
X154956285Y-133495624D01*
X155061677Y-133298448D01*
X155126578Y-133084500D01*
X155143001Y-132917753D01*
X155148492Y-132862001D01*
X155143001Y-132806249D01*
X155143001Y-129405000D01*
X156849928Y-129405000D01*
X156862188Y-129529482D01*
X156898498Y-129649180D01*
X156957463Y-129759494D01*
X157036815Y-129856185D01*
X157133506Y-129935537D01*
X157243820Y-129994502D01*
X157363518Y-130030812D01*
X157488000Y-130043072D01*
X157702250Y-130040000D01*
X157861000Y-129881250D01*
X157861000Y-129032000D01*
X158115000Y-129032000D01*
X158115000Y-129881250D01*
X158273750Y-130040000D01*
X158488000Y-130043072D01*
X158612482Y-130030812D01*
X158732180Y-129994502D01*
X158842494Y-129935537D01*
X158939185Y-129856185D01*
X159018537Y-129759494D01*
X159077502Y-129649180D01*
X159113812Y-129529482D01*
X159126072Y-129405000D01*
X159123000Y-129190750D01*
X158964250Y-129032000D01*
X158115000Y-129032000D01*
X157861000Y-129032000D01*
X157011750Y-129032000D01*
X156853000Y-129190750D01*
X156849928Y-129405000D01*
X155143001Y-129405000D01*
X155143001Y-128405000D01*
X156849928Y-128405000D01*
X156853000Y-128619250D01*
X157011750Y-128778000D01*
X157861000Y-128778000D01*
X157861000Y-128758000D01*
X158115000Y-128758000D01*
X158115000Y-128778000D01*
X158964250Y-128778000D01*
X159123000Y-128619250D01*
X159126072Y-128405000D01*
X159113812Y-128280518D01*
X159106911Y-128257767D01*
X159251000Y-128259072D01*
X159375482Y-128246812D01*
X159416155Y-128234474D01*
X159402188Y-128280518D01*
X159389928Y-128405000D01*
X159389928Y-129405000D01*
X159402188Y-129529482D01*
X159438498Y-129649180D01*
X159497463Y-129759494D01*
X159576815Y-129856185D01*
X159673506Y-129935537D01*
X159783820Y-129994502D01*
X159903518Y-130030812D01*
X160028000Y-130043072D01*
X161028000Y-130043072D01*
X161152482Y-130030812D01*
X161272180Y-129994502D01*
X161382494Y-129935537D01*
X161479185Y-129856185D01*
X161558537Y-129759494D01*
X161617502Y-129649180D01*
X161653812Y-129529482D01*
X161666072Y-129405000D01*
X161666072Y-128405000D01*
X161929928Y-128405000D01*
X161929928Y-129405000D01*
X161942188Y-129529482D01*
X161978498Y-129649180D01*
X162037463Y-129759494D01*
X162116815Y-129856185D01*
X162213506Y-129935537D01*
X162323820Y-129994502D01*
X162443518Y-130030812D01*
X162568000Y-130043072D01*
X163568000Y-130043072D01*
X163692482Y-130030812D01*
X163812180Y-129994502D01*
X163922494Y-129935537D01*
X164019185Y-129856185D01*
X164098537Y-129759494D01*
X164157502Y-129649180D01*
X164193812Y-129529482D01*
X164206072Y-129405000D01*
X164206072Y-128405000D01*
X164193812Y-128280518D01*
X164157502Y-128160820D01*
X164098537Y-128050506D01*
X164019185Y-127953815D01*
X163922494Y-127874463D01*
X163812180Y-127815498D01*
X163692482Y-127779188D01*
X163568000Y-127766928D01*
X162568000Y-127766928D01*
X162443518Y-127779188D01*
X162323820Y-127815498D01*
X162213506Y-127874463D01*
X162116815Y-127953815D01*
X162037463Y-128050506D01*
X161978498Y-128160820D01*
X161942188Y-128280518D01*
X161929928Y-128405000D01*
X161666072Y-128405000D01*
X161653812Y-128280518D01*
X161617502Y-128160820D01*
X161558537Y-128050506D01*
X161479185Y-127953815D01*
X161382494Y-127874463D01*
X161272180Y-127815498D01*
X161152482Y-127779188D01*
X161028000Y-127766928D01*
X160028000Y-127766928D01*
X159903518Y-127779188D01*
X159862845Y-127791526D01*
X159876812Y-127745482D01*
X159889072Y-127621000D01*
X159886000Y-127031750D01*
X159727250Y-126873000D01*
X158753000Y-126873000D01*
X158753000Y-126893000D01*
X158499000Y-126893000D01*
X158499000Y-126873000D01*
X157524750Y-126873000D01*
X157366000Y-127031750D01*
X157362928Y-127621000D01*
X157375188Y-127745482D01*
X157384777Y-127777094D01*
X157363518Y-127779188D01*
X157243820Y-127815498D01*
X157133506Y-127874463D01*
X157036815Y-127953815D01*
X156957463Y-128050506D01*
X156898498Y-128160820D01*
X156862188Y-128280518D01*
X156849928Y-128405000D01*
X155143001Y-128405000D01*
X155143001Y-128309130D01*
X155225862Y-128226269D01*
X155277746Y-128242008D01*
X155451000Y-128259072D01*
X156201000Y-128259072D01*
X156374254Y-128242008D01*
X156540850Y-128191472D01*
X156694386Y-128109405D01*
X156828962Y-127998962D01*
X156939405Y-127864386D01*
X157021472Y-127710850D01*
X157072008Y-127544254D01*
X157089072Y-127371000D01*
X157089072Y-126121000D01*
X157088360Y-126113771D01*
X157366402Y-125835730D01*
X157362928Y-125871000D01*
X157366000Y-126460250D01*
X157524750Y-126619000D01*
X158499000Y-126619000D01*
X158499000Y-125394750D01*
X158753000Y-125394750D01*
X158753000Y-126619000D01*
X159727250Y-126619000D01*
X159886000Y-126460250D01*
X159889072Y-125871000D01*
X159876812Y-125746518D01*
X159840502Y-125626820D01*
X159781537Y-125516506D01*
X159702185Y-125419815D01*
X159605494Y-125340463D01*
X159495180Y-125281498D01*
X159375482Y-125245188D01*
X159251000Y-125232928D01*
X158911750Y-125236000D01*
X158753000Y-125394750D01*
X158499000Y-125394750D01*
X158340250Y-125236000D01*
X158001000Y-125232928D01*
X157965731Y-125236402D01*
X158927147Y-124274986D01*
X158970450Y-124239448D01*
X159016115Y-124183806D01*
X159112285Y-124066622D01*
X159184508Y-123931500D01*
X162745928Y-123931500D01*
X162758188Y-124055982D01*
X162794498Y-124175680D01*
X162853463Y-124285994D01*
X162932815Y-124382685D01*
X163029506Y-124462037D01*
X163139820Y-124521002D01*
X163259518Y-124557312D01*
X163384000Y-124569572D01*
X163798250Y-124566500D01*
X163957000Y-124407750D01*
X163957000Y-123571000D01*
X164211000Y-123571000D01*
X164211000Y-124407750D01*
X164369750Y-124566500D01*
X164784000Y-124569572D01*
X164908482Y-124557312D01*
X165028180Y-124521002D01*
X165138494Y-124462037D01*
X165235185Y-124382685D01*
X165314537Y-124285994D01*
X165373502Y-124175680D01*
X165409812Y-124055982D01*
X165422072Y-123931500D01*
X165419000Y-123729750D01*
X165260250Y-123571000D01*
X164211000Y-123571000D01*
X163957000Y-123571000D01*
X162907750Y-123571000D01*
X162749000Y-123729750D01*
X162745928Y-123931500D01*
X159184508Y-123931500D01*
X159217677Y-123869446D01*
X159282578Y-123655498D01*
X159304492Y-123432999D01*
X159299001Y-123377247D01*
X159299001Y-122087130D01*
X159329000Y-122057131D01*
X159329000Y-122335033D01*
X159391832Y-122650912D01*
X159515082Y-122948463D01*
X159694013Y-123216252D01*
X159921748Y-123443987D01*
X160189537Y-123622918D01*
X160487088Y-123746168D01*
X160802967Y-123809000D01*
X161125033Y-123809000D01*
X161440912Y-123746168D01*
X161738463Y-123622918D01*
X162006252Y-123443987D01*
X162233987Y-123216252D01*
X162412918Y-122948463D01*
X162536168Y-122650912D01*
X162575336Y-122454000D01*
X162995343Y-122454000D01*
X162932815Y-122505315D01*
X162853463Y-122602006D01*
X162794498Y-122712320D01*
X162758188Y-122832018D01*
X162745928Y-122956500D01*
X162749000Y-123158250D01*
X162907750Y-123317000D01*
X163957000Y-123317000D01*
X163957000Y-123297000D01*
X164211000Y-123297000D01*
X164211000Y-123317000D01*
X165260250Y-123317000D01*
X165267837Y-123309413D01*
X166176192Y-123309413D01*
X166271956Y-123573814D01*
X166561571Y-123714704D01*
X166873108Y-123796384D01*
X167194595Y-123815718D01*
X167513675Y-123771961D01*
X167818088Y-123666795D01*
X167992044Y-123573814D01*
X168087808Y-123309413D01*
X167132000Y-122353605D01*
X166176192Y-123309413D01*
X165267837Y-123309413D01*
X165419000Y-123158250D01*
X165422072Y-122956500D01*
X165409812Y-122832018D01*
X165373502Y-122712320D01*
X165314537Y-122602006D01*
X165235185Y-122505315D01*
X165157436Y-122441508D01*
X165163792Y-122436292D01*
X165273458Y-122302664D01*
X165308772Y-122236595D01*
X165490282Y-122236595D01*
X165534039Y-122555675D01*
X165639205Y-122860088D01*
X165732186Y-123034044D01*
X165996587Y-123129808D01*
X166952395Y-122174000D01*
X167311605Y-122174000D01*
X168267413Y-123129808D01*
X168531814Y-123034044D01*
X168672704Y-122744429D01*
X168754384Y-122432892D01*
X168773718Y-122111405D01*
X168729961Y-121792325D01*
X168624795Y-121487912D01*
X168531814Y-121313956D01*
X168267413Y-121218192D01*
X167311605Y-122174000D01*
X166952395Y-122174000D01*
X165996587Y-121218192D01*
X165732186Y-121313956D01*
X165591296Y-121603571D01*
X165509616Y-121915108D01*
X165490282Y-122236595D01*
X165308772Y-122236595D01*
X165354947Y-122150209D01*
X165405128Y-121984785D01*
X165422072Y-121812750D01*
X165422072Y-121325250D01*
X165405128Y-121153215D01*
X165370356Y-121038587D01*
X166176192Y-121038587D01*
X167132000Y-121994395D01*
X168087808Y-121038587D01*
X167992044Y-120774186D01*
X167702429Y-120633296D01*
X167390892Y-120551616D01*
X167069405Y-120532282D01*
X166750325Y-120576039D01*
X166445912Y-120681205D01*
X166271956Y-120774186D01*
X166176192Y-121038587D01*
X165370356Y-121038587D01*
X165354947Y-120987791D01*
X165273458Y-120835336D01*
X165163792Y-120701708D01*
X165030164Y-120592042D01*
X164969000Y-120559349D01*
X164969000Y-119918454D01*
X165001205Y-119870256D01*
X165079226Y-119681898D01*
X165119000Y-119481939D01*
X165119000Y-119278061D01*
X165079226Y-119078102D01*
X165001205Y-118889744D01*
X164969000Y-118841546D01*
X164969000Y-118454651D01*
X165030164Y-118421958D01*
X165163792Y-118312292D01*
X165273458Y-118178664D01*
X165354947Y-118026209D01*
X165405128Y-117860785D01*
X165422072Y-117688750D01*
X165422072Y-117201250D01*
X165405128Y-117029215D01*
X165354947Y-116863791D01*
X165325882Y-116809413D01*
X166176192Y-116809413D01*
X166271956Y-117073814D01*
X166561571Y-117214704D01*
X166873108Y-117296384D01*
X167194595Y-117315718D01*
X167513675Y-117271961D01*
X167818088Y-117166795D01*
X167992044Y-117073814D01*
X168087808Y-116809413D01*
X167132000Y-115853605D01*
X166176192Y-116809413D01*
X165325882Y-116809413D01*
X165273458Y-116711336D01*
X165163792Y-116577708D01*
X165078244Y-116507500D01*
X165163792Y-116437292D01*
X165273458Y-116303664D01*
X165354947Y-116151209D01*
X165405128Y-115985785D01*
X165422072Y-115813750D01*
X165422072Y-115326250D01*
X165405128Y-115154215D01*
X165354947Y-114988791D01*
X165325852Y-114934358D01*
X165382219Y-114917259D01*
X165570710Y-114816509D01*
X165600000Y-114792471D01*
X165629290Y-114816509D01*
X165709966Y-114859631D01*
X165591296Y-115103571D01*
X165509616Y-115415108D01*
X165490282Y-115736595D01*
X165534039Y-116055675D01*
X165639205Y-116360088D01*
X165732186Y-116534044D01*
X165996587Y-116629808D01*
X166952395Y-115674000D01*
X166938253Y-115659858D01*
X167117858Y-115480253D01*
X167132000Y-115494395D01*
X167146143Y-115480253D01*
X167325748Y-115659858D01*
X167311605Y-115674000D01*
X168267413Y-116629808D01*
X168531814Y-116534044D01*
X168672704Y-116244429D01*
X168754384Y-115932892D01*
X168773718Y-115611405D01*
X168729961Y-115292325D01*
X168624795Y-114987912D01*
X168623409Y-114985318D01*
X168775000Y-115000249D01*
X168987696Y-114979300D01*
X169192219Y-114917259D01*
X169380710Y-114816509D01*
X169410000Y-114792471D01*
X169439290Y-114816509D01*
X169627780Y-114917259D01*
X169832303Y-114979300D01*
X170045000Y-115000249D01*
X170145464Y-114990354D01*
X170059832Y-115197088D01*
X169997000Y-115512967D01*
X169997000Y-115835033D01*
X170059832Y-116150912D01*
X170183082Y-116448463D01*
X170362013Y-116716252D01*
X170589748Y-116943987D01*
X170747000Y-117049059D01*
X170747001Y-120798940D01*
X170589748Y-120904013D01*
X170362013Y-121131748D01*
X170183082Y-121399537D01*
X170059832Y-121697088D01*
X169997000Y-122012967D01*
X169997000Y-122335033D01*
X170059832Y-122650912D01*
X170183082Y-122948463D01*
X170362013Y-123216252D01*
X170589748Y-123443987D01*
X170857537Y-123622918D01*
X171155088Y-123746168D01*
X171470967Y-123809000D01*
X171793033Y-123809000D01*
X171978525Y-123772103D01*
X173629001Y-125422580D01*
X173629002Y-127468524D01*
X173624720Y-127512003D01*
X173641806Y-127685493D01*
X173692413Y-127852316D01*
X173774591Y-128006062D01*
X173857469Y-128107049D01*
X173857472Y-128107052D01*
X173885185Y-128140820D01*
X173918952Y-128168532D01*
X175211469Y-129461050D01*
X175239182Y-129494818D01*
X175272950Y-129522531D01*
X175272952Y-129522533D01*
X175344451Y-129581211D01*
X175373940Y-129605412D01*
X175527686Y-129687590D01*
X175694509Y-129738196D01*
X175824522Y-129751001D01*
X175824532Y-129751001D01*
X175867998Y-129755282D01*
X175911464Y-129751001D01*
X176974449Y-129751001D01*
X177017918Y-129755282D01*
X177061387Y-129751001D01*
X177061395Y-129751001D01*
X177191408Y-129738196D01*
X177358231Y-129687590D01*
X177511977Y-129605412D01*
X177646735Y-129494818D01*
X177674452Y-129461045D01*
X177788052Y-129347445D01*
X177986986Y-129510706D01*
X178244966Y-129648599D01*
X178524889Y-129733513D01*
X178743050Y-129755000D01*
X178888950Y-129755000D01*
X179107111Y-129733513D01*
X179387034Y-129648599D01*
X179645014Y-129510706D01*
X179871134Y-129325134D01*
X180056706Y-129099014D01*
X180194599Y-128841034D01*
X180279513Y-128561111D01*
X180308185Y-128270000D01*
X180279513Y-127978889D01*
X180194599Y-127698966D01*
X180056706Y-127440986D01*
X179871134Y-127214866D01*
X179645014Y-127029294D01*
X179590209Y-127000000D01*
X179645014Y-126970706D01*
X179871134Y-126785134D01*
X180056706Y-126559014D01*
X180194599Y-126301034D01*
X180279513Y-126021111D01*
X180308185Y-125730000D01*
X180279513Y-125438889D01*
X180194599Y-125158966D01*
X180056706Y-124900986D01*
X179871134Y-124674866D01*
X179645014Y-124489294D01*
X179590209Y-124460000D01*
X179645014Y-124430706D01*
X179871134Y-124245134D01*
X180056706Y-124019014D01*
X180194599Y-123761034D01*
X180279513Y-123481111D01*
X180308185Y-123190000D01*
X180279513Y-122898889D01*
X180194599Y-122618966D01*
X180056706Y-122360986D01*
X179871134Y-122134866D01*
X179645014Y-121949294D01*
X179590209Y-121920000D01*
X179645014Y-121890706D01*
X179871134Y-121705134D01*
X180056706Y-121479014D01*
X180194599Y-121221034D01*
X180279513Y-120941111D01*
X180308185Y-120650000D01*
X180279513Y-120358889D01*
X180194599Y-120078966D01*
X180056706Y-119820986D01*
X179871134Y-119594866D01*
X179645014Y-119409294D01*
X179590209Y-119380000D01*
X179645014Y-119350706D01*
X179871134Y-119165134D01*
X180056706Y-118939014D01*
X180194599Y-118681034D01*
X180279513Y-118401111D01*
X180308185Y-118110000D01*
X180279513Y-117818889D01*
X180194599Y-117538966D01*
X180056706Y-117280986D01*
X179871134Y-117054866D01*
X179645014Y-116869294D01*
X179590209Y-116840000D01*
X179645014Y-116810706D01*
X179871134Y-116625134D01*
X180056706Y-116399014D01*
X180194599Y-116141034D01*
X180279513Y-115861111D01*
X180308185Y-115570000D01*
X180279513Y-115278889D01*
X180194599Y-114998966D01*
X180056706Y-114740986D01*
X179871134Y-114514866D01*
X179645014Y-114329294D01*
X179590209Y-114300000D01*
X179645014Y-114270706D01*
X179871134Y-114085134D01*
X180056706Y-113859014D01*
X180194599Y-113601034D01*
X180279513Y-113321111D01*
X180308185Y-113030000D01*
X180279513Y-112738889D01*
X180194599Y-112458966D01*
X180056706Y-112200986D01*
X179871134Y-111974866D01*
X179645014Y-111789294D01*
X179590209Y-111760000D01*
X179645014Y-111730706D01*
X179871134Y-111545134D01*
X180056706Y-111319014D01*
X180194599Y-111061034D01*
X180279513Y-110781111D01*
X180308185Y-110490000D01*
X180279513Y-110198889D01*
X180194599Y-109918966D01*
X180056706Y-109660986D01*
X179871134Y-109434866D01*
X179645014Y-109249294D01*
X179590209Y-109220000D01*
X179645014Y-109190706D01*
X179871134Y-109005134D01*
X180056706Y-108779014D01*
X180194599Y-108521034D01*
X180279513Y-108241111D01*
X180308185Y-107950000D01*
X180279513Y-107658889D01*
X180194599Y-107378966D01*
X180056706Y-107120986D01*
X179871134Y-106894866D01*
X179645014Y-106709294D01*
X179590209Y-106680000D01*
X179645014Y-106650706D01*
X179871134Y-106465134D01*
X180056706Y-106239014D01*
X180194599Y-105981034D01*
X180279513Y-105701111D01*
X180308185Y-105410000D01*
X180279513Y-105118889D01*
X180194599Y-104838966D01*
X180056706Y-104580986D01*
X179871134Y-104354866D01*
X179645014Y-104169294D01*
X179590209Y-104140000D01*
X179645014Y-104110706D01*
X179871134Y-103925134D01*
X180056706Y-103699014D01*
X180194599Y-103441034D01*
X180279513Y-103161111D01*
X180308185Y-102870000D01*
X180279513Y-102578889D01*
X180194599Y-102298966D01*
X180056706Y-102040986D01*
X179871134Y-101814866D01*
X179645014Y-101629294D01*
X179590209Y-101600000D01*
X179645014Y-101570706D01*
X179871134Y-101385134D01*
X180056706Y-101159014D01*
X180194599Y-100901034D01*
X180279513Y-100621111D01*
X180308185Y-100330000D01*
X180279513Y-100038889D01*
X180194599Y-99758966D01*
X180056706Y-99500986D01*
X179871134Y-99274866D01*
X179645014Y-99089294D01*
X179590209Y-99060000D01*
X179645014Y-99030706D01*
X179871134Y-98845134D01*
X180056706Y-98619014D01*
X180194599Y-98361034D01*
X180279513Y-98081111D01*
X180308185Y-97790000D01*
X180279513Y-97498889D01*
X180194599Y-97218966D01*
X180056706Y-96960986D01*
X179871134Y-96734866D01*
X179841313Y-96710393D01*
X179910180Y-96689502D01*
X180020494Y-96630537D01*
X180117185Y-96551185D01*
X180196537Y-96454494D01*
X180255502Y-96344180D01*
X180291812Y-96224482D01*
X180304072Y-96100000D01*
X180301000Y-95535750D01*
X180142250Y-95377000D01*
X178943000Y-95377000D01*
X178943000Y-95397000D01*
X178689000Y-95397000D01*
X178689000Y-95377000D01*
X177489750Y-95377000D01*
X177331000Y-95535750D01*
X177330933Y-95547982D01*
X177198490Y-95507805D01*
X177068477Y-95495000D01*
X177068469Y-95495000D01*
X177025000Y-95490719D01*
X176981531Y-95495000D01*
X175142295Y-95495000D01*
X175174408Y-95404001D01*
X175047502Y-95237000D01*
X173457000Y-95237000D01*
X173457000Y-95257000D01*
X173203000Y-95257000D01*
X173203000Y-95237000D01*
X171612498Y-95237000D01*
X171485592Y-95404001D01*
X171557298Y-95607197D01*
X171646537Y-95746208D01*
X171623491Y-95774290D01*
X171522741Y-95962780D01*
X171460700Y-96167303D01*
X171439751Y-96380000D01*
X171460700Y-96592697D01*
X171522741Y-96797220D01*
X171623491Y-96985710D01*
X171647529Y-97015000D01*
X171623491Y-97044290D01*
X171522741Y-97232780D01*
X171460700Y-97437303D01*
X171439751Y-97650000D01*
X171454740Y-97802190D01*
X171297939Y-97771000D01*
X171094061Y-97771000D01*
X170894102Y-97810774D01*
X170705744Y-97888795D01*
X170536226Y-98002063D01*
X170392063Y-98146226D01*
X170278795Y-98315744D01*
X170200774Y-98504102D01*
X170161000Y-98704061D01*
X170161000Y-98907939D01*
X170200774Y-99107898D01*
X170278795Y-99296256D01*
X170375510Y-99441000D01*
X170278795Y-99585744D01*
X170200774Y-99774102D01*
X170161000Y-99974061D01*
X170161000Y-100177939D01*
X170200774Y-100377898D01*
X170278795Y-100566256D01*
X170375510Y-100711000D01*
X170278795Y-100855744D01*
X170200774Y-101044102D01*
X170161000Y-101244061D01*
X170161000Y-101447939D01*
X170200774Y-101647898D01*
X170278795Y-101836256D01*
X170392063Y-102005774D01*
X170536226Y-102149937D01*
X170705744Y-102263205D01*
X170894102Y-102341226D01*
X171094061Y-102381000D01*
X171297939Y-102381000D01*
X171478925Y-102345000D01*
X171512967Y-102345000D01*
X171460700Y-102517303D01*
X171439751Y-102730000D01*
X171454740Y-102882190D01*
X171297939Y-102851000D01*
X171094061Y-102851000D01*
X170894102Y-102890774D01*
X170705744Y-102968795D01*
X170536226Y-103082063D01*
X170392063Y-103226226D01*
X170278795Y-103395744D01*
X170200774Y-103584102D01*
X170161000Y-103784061D01*
X170161000Y-103987939D01*
X170200774Y-104187898D01*
X170278795Y-104376256D01*
X170375510Y-104521000D01*
X170278795Y-104665744D01*
X170200774Y-104854102D01*
X170161000Y-105054061D01*
X170161000Y-105257939D01*
X170200774Y-105457898D01*
X170278795Y-105646256D01*
X170375510Y-105791000D01*
X170278795Y-105935744D01*
X170200774Y-106124102D01*
X170161000Y-106324061D01*
X170161000Y-106527939D01*
X170200774Y-106727898D01*
X170278795Y-106916256D01*
X170392063Y-107085774D01*
X170536226Y-107229937D01*
X170705744Y-107343205D01*
X170894102Y-107421226D01*
X171094061Y-107461000D01*
X171297939Y-107461000D01*
X171478925Y-107425000D01*
X171512967Y-107425000D01*
X171460700Y-107597303D01*
X171439751Y-107810000D01*
X171460700Y-108022697D01*
X171522741Y-108227220D01*
X171623491Y-108415710D01*
X171647529Y-108445000D01*
X171623491Y-108474290D01*
X171522741Y-108662780D01*
X171460700Y-108867303D01*
X171439751Y-109080000D01*
X171460700Y-109292697D01*
X171522741Y-109497220D01*
X171623491Y-109685710D01*
X171647529Y-109715000D01*
X171623491Y-109744290D01*
X171522741Y-109932780D01*
X171460700Y-110137303D01*
X171439751Y-110350000D01*
X171460700Y-110562697D01*
X171522741Y-110767220D01*
X171623491Y-110955710D01*
X171647529Y-110985000D01*
X171623491Y-111014290D01*
X171522741Y-111202780D01*
X171460700Y-111407303D01*
X171439751Y-111620000D01*
X171460700Y-111832697D01*
X171522741Y-112037220D01*
X171623491Y-112225710D01*
X171759078Y-112390922D01*
X171924290Y-112526509D01*
X172112780Y-112627259D01*
X172317303Y-112689300D01*
X172445000Y-112701877D01*
X172445001Y-113609420D01*
X171978525Y-114075896D01*
X171793033Y-114039000D01*
X171470967Y-114039000D01*
X171155088Y-114101832D01*
X171114708Y-114118558D01*
X171130000Y-113963294D01*
X171130000Y-112256706D01*
X171114300Y-112097303D01*
X171052259Y-111892780D01*
X170951509Y-111704290D01*
X170815922Y-111539078D01*
X170650710Y-111403491D01*
X170462220Y-111302741D01*
X170257697Y-111240700D01*
X170045000Y-111219751D01*
X169832304Y-111240700D01*
X169627781Y-111302741D01*
X169439291Y-111403491D01*
X169410001Y-111427529D01*
X169380710Y-111403491D01*
X169192220Y-111302741D01*
X168987697Y-111240700D01*
X168775000Y-111219751D01*
X168562304Y-111240700D01*
X168357781Y-111302741D01*
X168169291Y-111403491D01*
X168140001Y-111427529D01*
X168110710Y-111403491D01*
X167922220Y-111302741D01*
X167717697Y-111240700D01*
X167505000Y-111219751D01*
X167292304Y-111240700D01*
X167087781Y-111302741D01*
X166899291Y-111403491D01*
X166870001Y-111427529D01*
X166840710Y-111403491D01*
X166652220Y-111302741D01*
X166447697Y-111240700D01*
X166235000Y-111219751D01*
X166022304Y-111240700D01*
X165817781Y-111302741D01*
X165629291Y-111403491D01*
X165600001Y-111427529D01*
X165570710Y-111403491D01*
X165382220Y-111302741D01*
X165177697Y-111240700D01*
X164965000Y-111219751D01*
X164752304Y-111240700D01*
X164547781Y-111302741D01*
X164359291Y-111403491D01*
X164330001Y-111427529D01*
X164300710Y-111403491D01*
X164112220Y-111302741D01*
X163907697Y-111240700D01*
X163695000Y-111219751D01*
X163482304Y-111240700D01*
X163277781Y-111302741D01*
X163089291Y-111403491D01*
X163060001Y-111427529D01*
X163030710Y-111403491D01*
X162842220Y-111302741D01*
X162637697Y-111240700D01*
X162425000Y-111219751D01*
X162212304Y-111240700D01*
X162007781Y-111302741D01*
X161819291Y-111403491D01*
X161790001Y-111427529D01*
X161760710Y-111403491D01*
X161572220Y-111302741D01*
X161367697Y-111240700D01*
X161155000Y-111219751D01*
X160942304Y-111240700D01*
X160737781Y-111302741D01*
X160549291Y-111403491D01*
X160520001Y-111427529D01*
X160490710Y-111403491D01*
X160302220Y-111302741D01*
X160097697Y-111240700D01*
X159885000Y-111219751D01*
X159672304Y-111240700D01*
X159467781Y-111302741D01*
X159279291Y-111403491D01*
X159250001Y-111427529D01*
X159220710Y-111403491D01*
X159033635Y-111303497D01*
X159089141Y-111247991D01*
X159132450Y-111212448D01*
X159274285Y-111039622D01*
X159379677Y-110842446D01*
X159433964Y-110663489D01*
X159444578Y-110628499D01*
X159453126Y-110541704D01*
X159461001Y-110461751D01*
X159461001Y-110461744D01*
X159466491Y-110406000D01*
X159461001Y-110350256D01*
X159461001Y-105810000D01*
X160391928Y-105810000D01*
X160404188Y-105934482D01*
X160440498Y-106054180D01*
X160499463Y-106164494D01*
X160578815Y-106261185D01*
X160675506Y-106340537D01*
X160785820Y-106399502D01*
X160905518Y-106435812D01*
X161030000Y-106448072D01*
X163744250Y-106445000D01*
X163903000Y-106286250D01*
X163903000Y-102937000D01*
X164157000Y-102937000D01*
X164157000Y-106286250D01*
X164315750Y-106445000D01*
X167030000Y-106448072D01*
X167154482Y-106435812D01*
X167274180Y-106399502D01*
X167384494Y-106340537D01*
X167481185Y-106261185D01*
X167560537Y-106164494D01*
X167619502Y-106054180D01*
X167655812Y-105934482D01*
X167668072Y-105810000D01*
X167665000Y-103095750D01*
X167506250Y-102937000D01*
X164157000Y-102937000D01*
X163903000Y-102937000D01*
X160553750Y-102937000D01*
X160395000Y-103095750D01*
X160391928Y-105810000D01*
X159461001Y-105810000D01*
X159461001Y-99810000D01*
X160391928Y-99810000D01*
X160395000Y-102524250D01*
X160553750Y-102683000D01*
X163903000Y-102683000D01*
X163903000Y-99333750D01*
X164157000Y-99333750D01*
X164157000Y-102683000D01*
X167506250Y-102683000D01*
X167665000Y-102524250D01*
X167668072Y-99810000D01*
X167655812Y-99685518D01*
X167619502Y-99565820D01*
X167560537Y-99455506D01*
X167481185Y-99358815D01*
X167384494Y-99279463D01*
X167274180Y-99220498D01*
X167154482Y-99184188D01*
X167030000Y-99171928D01*
X164315750Y-99175000D01*
X164157000Y-99333750D01*
X163903000Y-99333750D01*
X163744250Y-99175000D01*
X161030000Y-99171928D01*
X160905518Y-99184188D01*
X160785820Y-99220498D01*
X160675506Y-99279463D01*
X160578815Y-99358815D01*
X160499463Y-99455506D01*
X160440498Y-99565820D01*
X160404188Y-99685518D01*
X160391928Y-99810000D01*
X159461001Y-99810000D01*
X159461001Y-97317740D01*
X159466491Y-97261998D01*
X159461001Y-97206256D01*
X159461001Y-97206247D01*
X159444578Y-97039500D01*
X159379677Y-96825552D01*
X159274285Y-96628376D01*
X159132450Y-96455550D01*
X159089141Y-96420007D01*
X158356006Y-95686873D01*
X158320460Y-95643560D01*
X158147634Y-95501725D01*
X157950458Y-95396333D01*
X157736510Y-95331432D01*
X157569763Y-95315009D01*
X157569762Y-95315009D01*
X157514011Y-95309518D01*
X157458260Y-95315009D01*
X157106782Y-95315009D01*
X157047502Y-95237000D01*
X155460131Y-95237000D01*
X155368752Y-95228000D01*
X155368751Y-95228000D01*
X155313000Y-95222509D01*
X155257249Y-95228000D01*
X155183000Y-95228000D01*
X155183000Y-94983000D01*
X155203000Y-94983000D01*
X155203000Y-94963000D01*
X155457000Y-94963000D01*
X155457000Y-94983000D01*
X157047502Y-94983000D01*
X157174408Y-94815999D01*
X157102702Y-94612803D01*
X156987014Y-94432592D01*
X156838391Y-94278413D01*
X156663709Y-94157000D01*
X171996291Y-94157000D01*
X171821609Y-94278413D01*
X171672986Y-94432592D01*
X171557298Y-94612803D01*
X171485592Y-94815999D01*
X171612498Y-94983000D01*
X173203000Y-94983000D01*
X173203000Y-94963000D01*
X173457000Y-94963000D01*
X173457000Y-94983000D01*
X175047502Y-94983000D01*
X175174408Y-94815999D01*
X175102702Y-94612803D01*
X174987014Y-94432592D01*
X174838391Y-94278413D01*
X174663709Y-94157000D01*
X177376140Y-94157000D01*
X177340188Y-94275518D01*
X177327928Y-94400000D01*
X177331000Y-94964250D01*
X177489750Y-95123000D01*
X178689000Y-95123000D01*
X178689000Y-95103000D01*
X178943000Y-95103000D01*
X178943000Y-95123000D01*
X180142250Y-95123000D01*
X180301000Y-94964250D01*
X180304072Y-94400000D01*
X180291812Y-94275518D01*
X180255860Y-94157000D01*
X180560496Y-94157000D01*
X180706992Y-94171364D01*
X180815670Y-94204176D01*
X180915918Y-94257479D01*
X181003897Y-94329232D01*
X181076263Y-94416707D01*
X181130263Y-94516579D01*
X181163833Y-94625027D01*
X181179000Y-94769331D01*
X181179001Y-142587486D01*
X181164636Y-142733992D01*
X181131823Y-142842672D01*
X181078522Y-142942917D01*
X181006769Y-143030895D01*
X180919292Y-143103263D01*
X180819420Y-143157263D01*
X180710973Y-143190833D01*
X180566669Y-143206000D01*
X148115504Y-143206000D01*
X147969008Y-143191636D01*
X147860328Y-143158823D01*
X147760083Y-143105522D01*
X147672105Y-143033769D01*
X147599737Y-142946292D01*
X147545737Y-142846420D01*
X147512167Y-142737973D01*
X147497000Y-142593669D01*
X147497000Y-137138742D01*
X147920715Y-137138742D01*
X147989904Y-137421745D01*
X148112975Y-137685812D01*
X148285198Y-137920795D01*
X148499954Y-138117664D01*
X148748991Y-138268854D01*
X149022739Y-138368554D01*
X149035110Y-138370476D01*
X149265000Y-138249155D01*
X149265000Y-136906000D01*
X148064768Y-136906000D01*
X147920715Y-137138742D01*
X147497000Y-137138742D01*
X147497000Y-136419258D01*
X147920715Y-136419258D01*
X148064768Y-136652000D01*
X149265000Y-136652000D01*
X149265000Y-135308845D01*
X149035110Y-135187524D01*
X149022739Y-135189446D01*
X148748991Y-135289146D01*
X148499954Y-135440336D01*
X148285198Y-135637205D01*
X148112975Y-135872188D01*
X147989904Y-136136255D01*
X147920715Y-136419258D01*
X147497000Y-136419258D01*
X147497000Y-94775504D01*
X147511364Y-94629008D01*
X147544176Y-94520330D01*
X147597479Y-94420082D01*
X147669232Y-94332103D01*
X147756707Y-94259737D01*
X147856579Y-94205737D01*
X147965027Y-94172167D01*
X148109331Y-94157000D01*
X148166140Y-94157000D01*
X148130188Y-94275518D01*
G36*
X174629001Y-119284447D02*
G01*
X174624719Y-119327926D01*
X174641805Y-119501416D01*
X174692412Y-119668239D01*
X174774590Y-119821985D01*
X174857468Y-119922972D01*
X174857471Y-119922975D01*
X174885184Y-119956743D01*
X174918951Y-119984455D01*
X175479028Y-120544533D01*
X175479029Y-121684513D01*
X175474747Y-121727991D01*
X175491834Y-121901481D01*
X175542440Y-122068304D01*
X175624618Y-122222050D01*
X175707496Y-122323037D01*
X175707499Y-122323040D01*
X175735212Y-122356808D01*
X175768980Y-122384521D01*
X176495001Y-123110542D01*
X176495002Y-124250522D01*
X176490720Y-124294001D01*
X176507806Y-124467491D01*
X176558413Y-124634314D01*
X176640591Y-124788060D01*
X176723469Y-124889047D01*
X176723472Y-124889050D01*
X176751185Y-124922818D01*
X176784953Y-124950531D01*
X177345388Y-125510966D01*
X177323815Y-125730000D01*
X177352487Y-126021111D01*
X177437401Y-126301034D01*
X177575294Y-126559014D01*
X177760866Y-126785134D01*
X177986986Y-126970706D01*
X178041791Y-127000000D01*
X177986986Y-127029294D01*
X177760866Y-127214866D01*
X177623944Y-127381706D01*
X177613919Y-127380719D01*
X177570450Y-127385000D01*
X177570442Y-127385000D01*
X177440429Y-127397805D01*
X177273606Y-127448411D01*
X177119860Y-127530589D01*
X177018872Y-127613468D01*
X177018870Y-127613470D01*
X176985102Y-127641183D01*
X176957389Y-127674951D01*
X176651340Y-127981001D01*
X176234578Y-127981001D01*
X175399001Y-127145425D01*
X175399001Y-125099470D01*
X175403282Y-125056001D01*
X175399001Y-125012532D01*
X175399001Y-125012524D01*
X175386196Y-124882511D01*
X175335590Y-124715688D01*
X175253412Y-124561942D01*
X175241779Y-124547767D01*
X175170533Y-124460954D01*
X175170531Y-124460952D01*
X175142818Y-124427184D01*
X175109051Y-124399472D01*
X173230103Y-122520525D01*
X173267000Y-122335033D01*
X173267000Y-122012967D01*
X173204168Y-121697088D01*
X173080918Y-121399537D01*
X172901987Y-121131748D01*
X172674252Y-120904013D01*
X172517000Y-120798941D01*
X172517000Y-117049059D01*
X172674252Y-116943987D01*
X172901987Y-116716252D01*
X173080918Y-116448463D01*
X173204168Y-116150912D01*
X173267000Y-115835033D01*
X173267000Y-115512967D01*
X173230104Y-115327475D01*
X173925049Y-114632530D01*
X173958817Y-114604817D01*
X174035358Y-114511553D01*
X174069411Y-114470059D01*
X174151589Y-114316314D01*
X174202195Y-114149490D01*
X174208533Y-114085134D01*
X174215000Y-114019477D01*
X174215000Y-114019469D01*
X174219281Y-113976000D01*
X174215000Y-113932531D01*
X174215000Y-112701877D01*
X174342697Y-112689300D01*
X174547220Y-112627259D01*
X174629000Y-112583547D01*
X174629001Y-119284447D01*
X174629001Y-119284447D01*
G37*
X174629001Y-119284447D02*
X174624719Y-119327926D01*
X174641805Y-119501416D01*
X174692412Y-119668239D01*
X174774590Y-119821985D01*
X174857468Y-119922972D01*
X174857471Y-119922975D01*
X174885184Y-119956743D01*
X174918951Y-119984455D01*
X175479028Y-120544533D01*
X175479029Y-121684513D01*
X175474747Y-121727991D01*
X175491834Y-121901481D01*
X175542440Y-122068304D01*
X175624618Y-122222050D01*
X175707496Y-122323037D01*
X175707499Y-122323040D01*
X175735212Y-122356808D01*
X175768980Y-122384521D01*
X176495001Y-123110542D01*
X176495002Y-124250522D01*
X176490720Y-124294001D01*
X176507806Y-124467491D01*
X176558413Y-124634314D01*
X176640591Y-124788060D01*
X176723469Y-124889047D01*
X176723472Y-124889050D01*
X176751185Y-124922818D01*
X176784953Y-124950531D01*
X177345388Y-125510966D01*
X177323815Y-125730000D01*
X177352487Y-126021111D01*
X177437401Y-126301034D01*
X177575294Y-126559014D01*
X177760866Y-126785134D01*
X177986986Y-126970706D01*
X178041791Y-127000000D01*
X177986986Y-127029294D01*
X177760866Y-127214866D01*
X177623944Y-127381706D01*
X177613919Y-127380719D01*
X177570450Y-127385000D01*
X177570442Y-127385000D01*
X177440429Y-127397805D01*
X177273606Y-127448411D01*
X177119860Y-127530589D01*
X177018872Y-127613468D01*
X177018870Y-127613470D01*
X176985102Y-127641183D01*
X176957389Y-127674951D01*
X176651340Y-127981001D01*
X176234578Y-127981001D01*
X175399001Y-127145425D01*
X175399001Y-125099470D01*
X175403282Y-125056001D01*
X175399001Y-125012532D01*
X175399001Y-125012524D01*
X175386196Y-124882511D01*
X175335590Y-124715688D01*
X175253412Y-124561942D01*
X175241779Y-124547767D01*
X175170533Y-124460954D01*
X175170531Y-124460952D01*
X175142818Y-124427184D01*
X175109051Y-124399472D01*
X173230103Y-122520525D01*
X173267000Y-122335033D01*
X173267000Y-122012967D01*
X173204168Y-121697088D01*
X173080918Y-121399537D01*
X172901987Y-121131748D01*
X172674252Y-120904013D01*
X172517000Y-120798941D01*
X172517000Y-117049059D01*
X172674252Y-116943987D01*
X172901987Y-116716252D01*
X173080918Y-116448463D01*
X173204168Y-116150912D01*
X173267000Y-115835033D01*
X173267000Y-115512967D01*
X173230104Y-115327475D01*
X173925049Y-114632530D01*
X173958817Y-114604817D01*
X174035358Y-114511553D01*
X174069411Y-114470059D01*
X174151589Y-114316314D01*
X174202195Y-114149490D01*
X174208533Y-114085134D01*
X174215000Y-114019477D01*
X174215000Y-114019469D01*
X174219281Y-113976000D01*
X174215000Y-113932531D01*
X174215000Y-112701877D01*
X174342697Y-112689300D01*
X174547220Y-112627259D01*
X174629000Y-112583547D01*
X174629001Y-119284447D01*
G36*
X163137836Y-118421958D02*
G01*
X163199001Y-118454651D01*
X163199001Y-118841545D01*
X163166795Y-118889744D01*
X163088774Y-119078102D01*
X163049000Y-119278061D01*
X163049000Y-119481939D01*
X163088774Y-119681898D01*
X163166795Y-119870256D01*
X163199000Y-119918455D01*
X163199001Y-120559349D01*
X163137836Y-120592042D01*
X163025785Y-120684000D01*
X161639283Y-120684000D01*
X161440912Y-120601832D01*
X161125033Y-120539000D01*
X160847133Y-120539000D01*
X161017145Y-120368988D01*
X161060448Y-120333450D01*
X161113110Y-120269282D01*
X161202283Y-120160624D01*
X161307675Y-119963448D01*
X161345425Y-119839003D01*
X161365752Y-119837001D01*
X161365753Y-119837001D01*
X161532500Y-119820578D01*
X161746448Y-119755677D01*
X161943624Y-119650285D01*
X162116450Y-119508450D01*
X162151997Y-119465136D01*
X162645136Y-118971997D01*
X162688450Y-118936450D01*
X162830285Y-118763624D01*
X162935677Y-118566448D01*
X162990788Y-118384774D01*
X163000578Y-118352501D01*
X163004514Y-118312543D01*
X163137836Y-118421958D01*
X163137836Y-118421958D01*
G37*
X163137836Y-118421958D02*
X163199001Y-118454651D01*
X163199001Y-118841545D01*
X163166795Y-118889744D01*
X163088774Y-119078102D01*
X163049000Y-119278061D01*
X163049000Y-119481939D01*
X163088774Y-119681898D01*
X163166795Y-119870256D01*
X163199000Y-119918455D01*
X163199001Y-120559349D01*
X163137836Y-120592042D01*
X163025785Y-120684000D01*
X161639283Y-120684000D01*
X161440912Y-120601832D01*
X161125033Y-120539000D01*
X160847133Y-120539000D01*
X161017145Y-120368988D01*
X161060448Y-120333450D01*
X161113110Y-120269282D01*
X161202283Y-120160624D01*
X161307675Y-119963448D01*
X161345425Y-119839003D01*
X161365752Y-119837001D01*
X161365753Y-119837001D01*
X161532500Y-119820578D01*
X161746448Y-119755677D01*
X161943624Y-119650285D01*
X162116450Y-119508450D01*
X162151997Y-119465136D01*
X162645136Y-118971997D01*
X162688450Y-118936450D01*
X162830285Y-118763624D01*
X162935677Y-118566448D01*
X162990788Y-118384774D01*
X163000578Y-118352501D01*
X163004514Y-118312543D01*
X163137836Y-118421958D01*
G36*
X160487088Y-117246168D02*
G01*
X160743999Y-117297271D01*
X160747001Y-117327752D01*
X160747001Y-117567001D01*
X160724131Y-117567001D01*
X160344049Y-117186919D01*
X160487088Y-117246168D01*
X160487088Y-117246168D01*
G37*
X160487088Y-117246168D02*
X160743999Y-117297271D01*
X160747001Y-117327752D01*
X160747001Y-117567001D01*
X160724131Y-117567001D01*
X160344049Y-117186919D01*
X160487088Y-117246168D01*
G36*
X175930990Y-101816474D02*
G01*
X175926708Y-101859952D01*
X175943794Y-102033442D01*
X175994401Y-102200265D01*
X176076579Y-102354011D01*
X176159457Y-102454998D01*
X176159460Y-102455001D01*
X176187173Y-102488769D01*
X176220940Y-102516481D01*
X176630999Y-102926541D01*
X176631000Y-104066520D01*
X176626718Y-104109999D01*
X176643804Y-104283489D01*
X176694411Y-104450312D01*
X176776589Y-104604058D01*
X176859467Y-104705045D01*
X176859470Y-104705048D01*
X176887183Y-104738816D01*
X176920950Y-104766528D01*
X177345388Y-105190966D01*
X177323815Y-105410000D01*
X177352487Y-105701111D01*
X177437401Y-105981034D01*
X177575294Y-106239014D01*
X177760866Y-106465134D01*
X177986986Y-106650706D01*
X178041791Y-106680000D01*
X177986986Y-106709294D01*
X177760866Y-106894866D01*
X177575294Y-107120986D01*
X177437401Y-107378966D01*
X177352487Y-107658889D01*
X177323815Y-107950000D01*
X177343178Y-108146600D01*
X176145000Y-106948422D01*
X176145000Y-103900660D01*
X176149281Y-103857193D01*
X176145000Y-103813727D01*
X176145000Y-103813717D01*
X176132195Y-103683704D01*
X176081589Y-103516881D01*
X175999411Y-103363135D01*
X175968152Y-103325046D01*
X175916532Y-103262147D01*
X175916530Y-103262145D01*
X175888817Y-103228377D01*
X175855050Y-103200665D01*
X175202317Y-102547932D01*
X175199300Y-102517303D01*
X175137259Y-102312780D01*
X175036509Y-102124290D01*
X175012471Y-102095000D01*
X175036509Y-102065710D01*
X175137259Y-101877220D01*
X175199300Y-101672697D01*
X175220249Y-101460000D01*
X175199300Y-101247303D01*
X175147033Y-101075000D01*
X175930989Y-101075000D01*
X175930990Y-101816474D01*
X175930990Y-101816474D01*
G37*
X175930990Y-101816474D02*
X175926708Y-101859952D01*
X175943794Y-102033442D01*
X175994401Y-102200265D01*
X176076579Y-102354011D01*
X176159457Y-102454998D01*
X176159460Y-102455001D01*
X176187173Y-102488769D01*
X176220940Y-102516481D01*
X176630999Y-102926541D01*
X176631000Y-104066520D01*
X176626718Y-104109999D01*
X176643804Y-104283489D01*
X176694411Y-104450312D01*
X176776589Y-104604058D01*
X176859467Y-104705045D01*
X176859470Y-104705048D01*
X176887183Y-104738816D01*
X176920950Y-104766528D01*
X177345388Y-105190966D01*
X177323815Y-105410000D01*
X177352487Y-105701111D01*
X177437401Y-105981034D01*
X177575294Y-106239014D01*
X177760866Y-106465134D01*
X177986986Y-106650706D01*
X178041791Y-106680000D01*
X177986986Y-106709294D01*
X177760866Y-106894866D01*
X177575294Y-107120986D01*
X177437401Y-107378966D01*
X177352487Y-107658889D01*
X177323815Y-107950000D01*
X177343178Y-108146600D01*
X176145000Y-106948422D01*
X176145000Y-103900660D01*
X176149281Y-103857193D01*
X176145000Y-103813727D01*
X176145000Y-103813717D01*
X176132195Y-103683704D01*
X176081589Y-103516881D01*
X175999411Y-103363135D01*
X175968152Y-103325046D01*
X175916532Y-103262147D01*
X175916530Y-103262145D01*
X175888817Y-103228377D01*
X175855050Y-103200665D01*
X175202317Y-102547932D01*
X175199300Y-102517303D01*
X175137259Y-102312780D01*
X175036509Y-102124290D01*
X175012471Y-102095000D01*
X175036509Y-102065710D01*
X175137259Y-101877220D01*
X175199300Y-101672697D01*
X175220249Y-101460000D01*
X175199300Y-101247303D01*
X175147033Y-101075000D01*
X175930989Y-101075000D01*
X175930990Y-101816474D01*
G36*
X150753051Y-98928949D02*
G01*
X150925877Y-99070784D01*
X151123053Y-99176176D01*
X151269162Y-99220498D01*
X151337001Y-99241077D01*
X151375687Y-99244887D01*
X151364498Y-99265820D01*
X151328188Y-99385518D01*
X151315928Y-99510000D01*
X151319000Y-99711750D01*
X151477750Y-99870500D01*
X152527000Y-99870500D01*
X152527000Y-99850500D01*
X152781000Y-99850500D01*
X152781000Y-99870500D01*
X152801000Y-99870500D01*
X152801000Y-100124500D01*
X152781000Y-100124500D01*
X152781000Y-100144500D01*
X152527000Y-100144500D01*
X152527000Y-100124500D01*
X151477750Y-100124500D01*
X151319000Y-100283250D01*
X151315928Y-100485000D01*
X151328188Y-100609482D01*
X151364498Y-100729180D01*
X151423463Y-100839494D01*
X151502815Y-100936185D01*
X151599506Y-101015537D01*
X151709820Y-101074502D01*
X151829518Y-101110812D01*
X151954000Y-101123072D01*
X152368250Y-101120000D01*
X152526998Y-100961252D01*
X152526998Y-101120000D01*
X152625653Y-101120000D01*
X151078233Y-102667421D01*
X151069513Y-102578889D01*
X150984599Y-102298966D01*
X150846706Y-102040986D01*
X150661134Y-101814866D01*
X150435014Y-101629294D01*
X150380209Y-101600000D01*
X150435014Y-101570706D01*
X150661134Y-101385134D01*
X150846706Y-101159014D01*
X150984599Y-100901034D01*
X151069513Y-100621111D01*
X151098185Y-100330000D01*
X151069513Y-100038889D01*
X150984599Y-99758966D01*
X150846706Y-99500986D01*
X150661134Y-99274866D01*
X150435014Y-99089294D01*
X150380209Y-99060000D01*
X150435014Y-99030706D01*
X150563817Y-98925000D01*
X150749810Y-98925000D01*
X150753051Y-98928949D01*
X150753051Y-98928949D01*
G37*
X150753051Y-98928949D02*
X150925877Y-99070784D01*
X151123053Y-99176176D01*
X151269162Y-99220498D01*
X151337001Y-99241077D01*
X151375687Y-99244887D01*
X151364498Y-99265820D01*
X151328188Y-99385518D01*
X151315928Y-99510000D01*
X151319000Y-99711750D01*
X151477750Y-99870500D01*
X152527000Y-99870500D01*
X152527000Y-99850500D01*
X152781000Y-99850500D01*
X152781000Y-99870500D01*
X152801000Y-99870500D01*
X152801000Y-100124500D01*
X152781000Y-100124500D01*
X152781000Y-100144500D01*
X152527000Y-100144500D01*
X152527000Y-100124500D01*
X151477750Y-100124500D01*
X151319000Y-100283250D01*
X151315928Y-100485000D01*
X151328188Y-100609482D01*
X151364498Y-100729180D01*
X151423463Y-100839494D01*
X151502815Y-100936185D01*
X151599506Y-101015537D01*
X151709820Y-101074502D01*
X151829518Y-101110812D01*
X151954000Y-101123072D01*
X152368250Y-101120000D01*
X152526998Y-100961252D01*
X152526998Y-101120000D01*
X152625653Y-101120000D01*
X151078233Y-102667421D01*
X151069513Y-102578889D01*
X150984599Y-102298966D01*
X150846706Y-102040986D01*
X150661134Y-101814866D01*
X150435014Y-101629294D01*
X150380209Y-101600000D01*
X150435014Y-101570706D01*
X150661134Y-101385134D01*
X150846706Y-101159014D01*
X150984599Y-100901034D01*
X151069513Y-100621111D01*
X151098185Y-100330000D01*
X151069513Y-100038889D01*
X150984599Y-99758966D01*
X150846706Y-99500986D01*
X150661134Y-99274866D01*
X150435014Y-99089294D01*
X150380209Y-99060000D01*
X150435014Y-99030706D01*
X150563817Y-98925000D01*
X150749810Y-98925000D01*
X150753051Y-98928949D01*
M02*
