G04 #@! TF.GenerationSoftware,KiCad,Pcbnew,(5.1.2)-1*
G04 #@! TF.CreationDate,2019-06-15T18:16:21+09:00*
G04 #@! TF.ProjectId,ESP32-breakout-THD,45535033-322d-4627-9265-616b6f75742d,rev?*
G04 #@! TF.SameCoordinates,Original*
G04 #@! TF.FileFunction,Legend,Bot*
G04 #@! TF.FilePolarity,Positive*
%FSLAX46Y46*%
G04 Gerber Fmt 4.6, Leading zero omitted, Abs format (unit mm)*
G04 Created by KiCad (PCBNEW (5.1.2)-1) date 2019-06-15 18:16:21*
%MOMM*%
%LPD*%
G04 APERTURE LIST*
%ADD10C,0.150000*%
G04 APERTURE END LIST*
D10*
X176274571Y-140200571D02*
X175941238Y-140200571D01*
X175798380Y-140724380D02*
X176274571Y-140724380D01*
X176274571Y-139724380D01*
X175798380Y-139724380D01*
X175417428Y-140676761D02*
X175274571Y-140724380D01*
X175036476Y-140724380D01*
X174941238Y-140676761D01*
X174893619Y-140629142D01*
X174846000Y-140533904D01*
X174846000Y-140438666D01*
X174893619Y-140343428D01*
X174941238Y-140295809D01*
X175036476Y-140248190D01*
X175226952Y-140200571D01*
X175322190Y-140152952D01*
X175369809Y-140105333D01*
X175417428Y-140010095D01*
X175417428Y-139914857D01*
X175369809Y-139819619D01*
X175322190Y-139772000D01*
X175226952Y-139724380D01*
X174988857Y-139724380D01*
X174846000Y-139772000D01*
X174417428Y-140724380D02*
X174417428Y-139724380D01*
X174036476Y-139724380D01*
X173941238Y-139772000D01*
X173893619Y-139819619D01*
X173846000Y-139914857D01*
X173846000Y-140057714D01*
X173893619Y-140152952D01*
X173941238Y-140200571D01*
X174036476Y-140248190D01*
X174417428Y-140248190D01*
X173512666Y-139724380D02*
X172893619Y-139724380D01*
X173226952Y-140105333D01*
X173084095Y-140105333D01*
X172988857Y-140152952D01*
X172941238Y-140200571D01*
X172893619Y-140295809D01*
X172893619Y-140533904D01*
X172941238Y-140629142D01*
X172988857Y-140676761D01*
X173084095Y-140724380D01*
X173369809Y-140724380D01*
X173465047Y-140676761D01*
X173512666Y-140629142D01*
X172512666Y-139819619D02*
X172465047Y-139772000D01*
X172369809Y-139724380D01*
X172131714Y-139724380D01*
X172036476Y-139772000D01*
X171988857Y-139819619D01*
X171941238Y-139914857D01*
X171941238Y-140010095D01*
X171988857Y-140152952D01*
X172560285Y-140724380D01*
X171941238Y-140724380D01*
X170417428Y-140200571D02*
X170274571Y-140248190D01*
X170226952Y-140295809D01*
X170179333Y-140391047D01*
X170179333Y-140533904D01*
X170226952Y-140629142D01*
X170274571Y-140676761D01*
X170369809Y-140724380D01*
X170750761Y-140724380D01*
X170750761Y-139724380D01*
X170417428Y-139724380D01*
X170322190Y-139772000D01*
X170274571Y-139819619D01*
X170226952Y-139914857D01*
X170226952Y-140010095D01*
X170274571Y-140105333D01*
X170322190Y-140152952D01*
X170417428Y-140200571D01*
X170750761Y-140200571D01*
X169750761Y-140724380D02*
X169750761Y-140057714D01*
X169750761Y-140248190D02*
X169703142Y-140152952D01*
X169655523Y-140105333D01*
X169560285Y-140057714D01*
X169465047Y-140057714D01*
X168750761Y-140676761D02*
X168846000Y-140724380D01*
X169036476Y-140724380D01*
X169131714Y-140676761D01*
X169179333Y-140581523D01*
X169179333Y-140200571D01*
X169131714Y-140105333D01*
X169036476Y-140057714D01*
X168846000Y-140057714D01*
X168750761Y-140105333D01*
X168703142Y-140200571D01*
X168703142Y-140295809D01*
X169179333Y-140391047D01*
X167846000Y-140724380D02*
X167846000Y-140200571D01*
X167893619Y-140105333D01*
X167988857Y-140057714D01*
X168179333Y-140057714D01*
X168274571Y-140105333D01*
X167846000Y-140676761D02*
X167941238Y-140724380D01*
X168179333Y-140724380D01*
X168274571Y-140676761D01*
X168322190Y-140581523D01*
X168322190Y-140486285D01*
X168274571Y-140391047D01*
X168179333Y-140343428D01*
X167941238Y-140343428D01*
X167846000Y-140295809D01*
X167369809Y-140724380D02*
X167369809Y-139724380D01*
X167274571Y-140343428D02*
X166988857Y-140724380D01*
X166988857Y-140057714D02*
X167369809Y-140438666D01*
X166417428Y-140724380D02*
X166512666Y-140676761D01*
X166560285Y-140629142D01*
X166607904Y-140533904D01*
X166607904Y-140248190D01*
X166560285Y-140152952D01*
X166512666Y-140105333D01*
X166417428Y-140057714D01*
X166274571Y-140057714D01*
X166179333Y-140105333D01*
X166131714Y-140152952D01*
X166084095Y-140248190D01*
X166084095Y-140533904D01*
X166131714Y-140629142D01*
X166179333Y-140676761D01*
X166274571Y-140724380D01*
X166417428Y-140724380D01*
X165226952Y-140057714D02*
X165226952Y-140724380D01*
X165655523Y-140057714D02*
X165655523Y-140581523D01*
X165607904Y-140676761D01*
X165512666Y-140724380D01*
X165369809Y-140724380D01*
X165274571Y-140676761D01*
X165226952Y-140629142D01*
X164893619Y-140057714D02*
X164512666Y-140057714D01*
X164750761Y-139724380D02*
X164750761Y-140581523D01*
X164703142Y-140676761D01*
X164607904Y-140724380D01*
X164512666Y-140724380D01*
X163084095Y-140200571D02*
X162941238Y-140248190D01*
X162893619Y-140295809D01*
X162846000Y-140391047D01*
X162846000Y-140533904D01*
X162893619Y-140629142D01*
X162941238Y-140676761D01*
X163036476Y-140724380D01*
X163417428Y-140724380D01*
X163417428Y-139724380D01*
X163084095Y-139724380D01*
X162988857Y-139772000D01*
X162941238Y-139819619D01*
X162893619Y-139914857D01*
X162893619Y-140010095D01*
X162941238Y-140105333D01*
X162988857Y-140152952D01*
X163084095Y-140200571D01*
X163417428Y-140200571D01*
X162274571Y-140724380D02*
X162369809Y-140676761D01*
X162417428Y-140629142D01*
X162465047Y-140533904D01*
X162465047Y-140248190D01*
X162417428Y-140152952D01*
X162369809Y-140105333D01*
X162274571Y-140057714D01*
X162131714Y-140057714D01*
X162036476Y-140105333D01*
X161988857Y-140152952D01*
X161941238Y-140248190D01*
X161941238Y-140533904D01*
X161988857Y-140629142D01*
X162036476Y-140676761D01*
X162131714Y-140724380D01*
X162274571Y-140724380D01*
X161084095Y-140724380D02*
X161084095Y-140200571D01*
X161131714Y-140105333D01*
X161226952Y-140057714D01*
X161417428Y-140057714D01*
X161512666Y-140105333D01*
X161084095Y-140676761D02*
X161179333Y-140724380D01*
X161417428Y-140724380D01*
X161512666Y-140676761D01*
X161560285Y-140581523D01*
X161560285Y-140486285D01*
X161512666Y-140391047D01*
X161417428Y-140343428D01*
X161179333Y-140343428D01*
X161084095Y-140295809D01*
X160607904Y-140724380D02*
X160607904Y-140057714D01*
X160607904Y-140248190D02*
X160560285Y-140152952D01*
X160512666Y-140105333D01*
X160417428Y-140057714D01*
X160322190Y-140057714D01*
X159560285Y-140724380D02*
X159560285Y-139724380D01*
X159560285Y-140676761D02*
X159655523Y-140724380D01*
X159846000Y-140724380D01*
X159941238Y-140676761D01*
X159988857Y-140629142D01*
X160036476Y-140533904D01*
X160036476Y-140248190D01*
X159988857Y-140152952D01*
X159941238Y-140105333D01*
X159846000Y-140057714D01*
X159655523Y-140057714D01*
X159560285Y-140105333D01*
X158322190Y-140724380D02*
X158322190Y-140057714D01*
X158322190Y-140248190D02*
X158274571Y-140152952D01*
X158226952Y-140105333D01*
X158131714Y-140057714D01*
X158036476Y-140057714D01*
X157322190Y-140676761D02*
X157417428Y-140724380D01*
X157607904Y-140724380D01*
X157703142Y-140676761D01*
X157750761Y-140581523D01*
X157750761Y-140200571D01*
X157703142Y-140105333D01*
X157607904Y-140057714D01*
X157417428Y-140057714D01*
X157322190Y-140105333D01*
X157274571Y-140200571D01*
X157274571Y-140295809D01*
X157750761Y-140391047D01*
X156941238Y-140057714D02*
X156703142Y-140724380D01*
X156465047Y-140057714D01*
X155131714Y-139724380D02*
X155036476Y-139724380D01*
X154941238Y-139772000D01*
X154893619Y-139819619D01*
X154846000Y-139914857D01*
X154798380Y-140105333D01*
X154798380Y-140343428D01*
X154846000Y-140533904D01*
X154893619Y-140629142D01*
X154941238Y-140676761D01*
X155036476Y-140724380D01*
X155131714Y-140724380D01*
X155226952Y-140676761D01*
X155274571Y-140629142D01*
X155322190Y-140533904D01*
X155369809Y-140343428D01*
X155369809Y-140105333D01*
X155322190Y-139914857D01*
X155274571Y-139819619D01*
X155226952Y-139772000D01*
X155131714Y-139724380D01*
X154369809Y-140629142D02*
X154322190Y-140676761D01*
X154369809Y-140724380D01*
X154417428Y-140676761D01*
X154369809Y-140629142D01*
X154369809Y-140724380D01*
X153988857Y-139724380D02*
X153369809Y-139724380D01*
X153703142Y-140105333D01*
X153560285Y-140105333D01*
X153465047Y-140152952D01*
X153417428Y-140200571D01*
X153369809Y-140295809D01*
X153369809Y-140533904D01*
X153417428Y-140629142D01*
X153465047Y-140676761D01*
X153560285Y-140724380D01*
X153846000Y-140724380D01*
X153941238Y-140676761D01*
X153988857Y-140629142D01*
X175536476Y-141469619D02*
X175488857Y-141422000D01*
X175393619Y-141374380D01*
X175155523Y-141374380D01*
X175060285Y-141422000D01*
X175012666Y-141469619D01*
X174965047Y-141564857D01*
X174965047Y-141660095D01*
X175012666Y-141802952D01*
X175584095Y-142374380D01*
X174965047Y-142374380D01*
X174346000Y-141374380D02*
X174250761Y-141374380D01*
X174155523Y-141422000D01*
X174107904Y-141469619D01*
X174060285Y-141564857D01*
X174012666Y-141755333D01*
X174012666Y-141993428D01*
X174060285Y-142183904D01*
X174107904Y-142279142D01*
X174155523Y-142326761D01*
X174250761Y-142374380D01*
X174346000Y-142374380D01*
X174441238Y-142326761D01*
X174488857Y-142279142D01*
X174536476Y-142183904D01*
X174584095Y-141993428D01*
X174584095Y-141755333D01*
X174536476Y-141564857D01*
X174488857Y-141469619D01*
X174441238Y-141422000D01*
X174346000Y-141374380D01*
X173060285Y-142374380D02*
X173631714Y-142374380D01*
X173346000Y-142374380D02*
X173346000Y-141374380D01*
X173441238Y-141517238D01*
X173536476Y-141612476D01*
X173631714Y-141660095D01*
X172584095Y-142374380D02*
X172393619Y-142374380D01*
X172298380Y-142326761D01*
X172250761Y-142279142D01*
X172155523Y-142136285D01*
X172107904Y-141945809D01*
X172107904Y-141564857D01*
X172155523Y-141469619D01*
X172203142Y-141422000D01*
X172298380Y-141374380D01*
X172488857Y-141374380D01*
X172584095Y-141422000D01*
X172631714Y-141469619D01*
X172679333Y-141564857D01*
X172679333Y-141802952D01*
X172631714Y-141898190D01*
X172584095Y-141945809D01*
X172488857Y-141993428D01*
X172298380Y-141993428D01*
X172203142Y-141945809D01*
X172155523Y-141898190D01*
X172107904Y-141802952D01*
X171679333Y-142279142D02*
X171631714Y-142326761D01*
X171679333Y-142374380D01*
X171726952Y-142326761D01*
X171679333Y-142279142D01*
X171679333Y-142374380D01*
X171012666Y-141374380D02*
X170917428Y-141374380D01*
X170822190Y-141422000D01*
X170774571Y-141469619D01*
X170726952Y-141564857D01*
X170679333Y-141755333D01*
X170679333Y-141993428D01*
X170726952Y-142183904D01*
X170774571Y-142279142D01*
X170822190Y-142326761D01*
X170917428Y-142374380D01*
X171012666Y-142374380D01*
X171107904Y-142326761D01*
X171155523Y-142279142D01*
X171203142Y-142183904D01*
X171250761Y-141993428D01*
X171250761Y-141755333D01*
X171203142Y-141564857D01*
X171155523Y-141469619D01*
X171107904Y-141422000D01*
X171012666Y-141374380D01*
X169822190Y-141374380D02*
X170012666Y-141374380D01*
X170107904Y-141422000D01*
X170155523Y-141469619D01*
X170250761Y-141612476D01*
X170298380Y-141802952D01*
X170298380Y-142183904D01*
X170250761Y-142279142D01*
X170203142Y-142326761D01*
X170107904Y-142374380D01*
X169917428Y-142374380D01*
X169822190Y-142326761D01*
X169774571Y-142279142D01*
X169726952Y-142183904D01*
X169726952Y-141945809D01*
X169774571Y-141850571D01*
X169822190Y-141802952D01*
X169917428Y-141755333D01*
X170107904Y-141755333D01*
X170203142Y-141802952D01*
X170250761Y-141850571D01*
X170298380Y-141945809D01*
X169298380Y-142279142D02*
X169250761Y-142326761D01*
X169298380Y-142374380D01*
X169346000Y-142326761D01*
X169298380Y-142279142D01*
X169298380Y-142374380D01*
X168298380Y-142374380D02*
X168869809Y-142374380D01*
X168584095Y-142374380D02*
X168584095Y-141374380D01*
X168679333Y-141517238D01*
X168774571Y-141612476D01*
X168869809Y-141660095D01*
X167441238Y-141707714D02*
X167441238Y-142374380D01*
X167679333Y-141326761D02*
X167917428Y-142041047D01*
X167298380Y-142041047D01*
X166155523Y-142374380D02*
X166155523Y-141707714D01*
X166155523Y-141898190D02*
X166107904Y-141802952D01*
X166060285Y-141755333D01*
X165965047Y-141707714D01*
X165869809Y-141707714D01*
X165107904Y-142374380D02*
X165107904Y-141850571D01*
X165155523Y-141755333D01*
X165250761Y-141707714D01*
X165441238Y-141707714D01*
X165536476Y-141755333D01*
X165107904Y-142326761D02*
X165203142Y-142374380D01*
X165441238Y-142374380D01*
X165536476Y-142326761D01*
X165584095Y-142231523D01*
X165584095Y-142136285D01*
X165536476Y-142041047D01*
X165441238Y-141993428D01*
X165203142Y-141993428D01*
X165107904Y-141945809D01*
X164631714Y-142374380D02*
X164631714Y-141374380D01*
X164631714Y-141755333D02*
X164536476Y-141707714D01*
X164346000Y-141707714D01*
X164250761Y-141755333D01*
X164203142Y-141802952D01*
X164155523Y-141898190D01*
X164155523Y-142183904D01*
X164203142Y-142279142D01*
X164250761Y-142326761D01*
X164346000Y-142374380D01*
X164536476Y-142374380D01*
X164631714Y-142326761D01*
X163726952Y-142374380D02*
X163726952Y-141374380D01*
X163726952Y-141755333D02*
X163631714Y-141707714D01*
X163441238Y-141707714D01*
X163346000Y-141755333D01*
X163298380Y-141802952D01*
X163250761Y-141898190D01*
X163250761Y-142183904D01*
X163298380Y-142279142D01*
X163346000Y-142326761D01*
X163441238Y-142374380D01*
X163631714Y-142374380D01*
X163726952Y-142326761D01*
X162822190Y-142374380D02*
X162822190Y-141707714D01*
X162822190Y-141374380D02*
X162869809Y-141422000D01*
X162822190Y-141469619D01*
X162774571Y-141422000D01*
X162822190Y-141374380D01*
X162822190Y-141469619D01*
X162488857Y-141707714D02*
X162107904Y-141707714D01*
X162346000Y-141374380D02*
X162346000Y-142231523D01*
X162298380Y-142326761D01*
X162203142Y-142374380D01*
X162107904Y-142374380D01*
X161774571Y-141993428D02*
X161012666Y-141993428D01*
X160536476Y-141707714D02*
X160536476Y-142374380D01*
X160536476Y-141802952D02*
X160488857Y-141755333D01*
X160393619Y-141707714D01*
X160250761Y-141707714D01*
X160155523Y-141755333D01*
X160107904Y-141850571D01*
X160107904Y-142374380D01*
X159488857Y-142374380D02*
X159584095Y-142326761D01*
X159631714Y-142279142D01*
X159679333Y-142183904D01*
X159679333Y-141898190D01*
X159631714Y-141802952D01*
X159584095Y-141755333D01*
X159488857Y-141707714D01*
X159346000Y-141707714D01*
X159250761Y-141755333D01*
X159203142Y-141802952D01*
X159155523Y-141898190D01*
X159155523Y-142183904D01*
X159203142Y-142279142D01*
X159250761Y-142326761D01*
X159346000Y-142374380D01*
X159488857Y-142374380D01*
X158869809Y-141707714D02*
X158488857Y-141707714D01*
X158726952Y-141374380D02*
X158726952Y-142231523D01*
X158679333Y-142326761D01*
X158584095Y-142374380D01*
X158488857Y-142374380D01*
X157774571Y-142326761D02*
X157869809Y-142374380D01*
X158060285Y-142374380D01*
X158155523Y-142326761D01*
X158203142Y-142231523D01*
X158203142Y-141850571D01*
X158155523Y-141755333D01*
X158060285Y-141707714D01*
X157869809Y-141707714D01*
X157774571Y-141755333D01*
X157726952Y-141850571D01*
X157726952Y-141945809D01*
X158203142Y-142041047D01*
X157298380Y-142279142D02*
X157250761Y-142326761D01*
X157298380Y-142374380D01*
X157346000Y-142326761D01*
X157298380Y-142279142D01*
X157298380Y-142374380D01*
X156393619Y-142326761D02*
X156488857Y-142374380D01*
X156679333Y-142374380D01*
X156774571Y-142326761D01*
X156822190Y-142279142D01*
X156869809Y-142183904D01*
X156869809Y-141898190D01*
X156822190Y-141802952D01*
X156774571Y-141755333D01*
X156679333Y-141707714D01*
X156488857Y-141707714D01*
X156393619Y-141755333D01*
X155822190Y-142374380D02*
X155917428Y-142326761D01*
X155965047Y-142279142D01*
X156012666Y-142183904D01*
X156012666Y-141898190D01*
X155965047Y-141802952D01*
X155917428Y-141755333D01*
X155822190Y-141707714D01*
X155679333Y-141707714D01*
X155584095Y-141755333D01*
X155536476Y-141802952D01*
X155488857Y-141898190D01*
X155488857Y-142183904D01*
X155536476Y-142279142D01*
X155584095Y-142326761D01*
X155679333Y-142374380D01*
X155822190Y-142374380D01*
X155060285Y-142374380D02*
X155060285Y-141707714D01*
X155060285Y-141802952D02*
X155012666Y-141755333D01*
X154917428Y-141707714D01*
X154774571Y-141707714D01*
X154679333Y-141755333D01*
X154631714Y-141850571D01*
X154631714Y-142374380D01*
X154631714Y-141850571D02*
X154584095Y-141755333D01*
X154488857Y-141707714D01*
X154346000Y-141707714D01*
X154250761Y-141755333D01*
X154203142Y-141850571D01*
X154203142Y-142374380D01*
M02*
