G04 #@! TF.GenerationSoftware,KiCad,Pcbnew,(5.1.2)-1*
G04 #@! TF.CreationDate,2019-06-15T18:16:21+09:00*
G04 #@! TF.ProjectId,ESP32-breakout-THD,45535033-322d-4627-9265-616b6f75742d,rev?*
G04 #@! TF.SameCoordinates,Original*
G04 #@! TF.FileFunction,Legend,Top*
G04 #@! TF.FilePolarity,Positive*
%FSLAX46Y46*%
G04 Gerber Fmt 4.6, Leading zero omitted, Abs format (unit mm)*
G04 Created by KiCad (PCBNEW (5.1.2)-1) date 2019-06-15 18:16:21*
%MOMM*%
%LPD*%
G04 APERTURE LIST*
%ADD10C,0.203200*%
%ADD11C,0.254000*%
%ADD12C,0.300000*%
%ADD13C,0.120000*%
%ADD14C,0.500000*%
%ADD15C,0.150000*%
G04 APERTURE END LIST*
D10*
X152333476Y-126062619D02*
X151752904Y-126062619D01*
X152043190Y-126062619D02*
X152043190Y-125046619D01*
X151946428Y-125191761D01*
X151849666Y-125288523D01*
X151752904Y-125336904D01*
X153204333Y-125385285D02*
X153204333Y-126062619D01*
X152962428Y-124998238D02*
X152720523Y-125723952D01*
X153349476Y-125723952D01*
X151752904Y-120190380D02*
X151801285Y-120142000D01*
X151898047Y-120093619D01*
X152139952Y-120093619D01*
X152236714Y-120142000D01*
X152285095Y-120190380D01*
X152333476Y-120287142D01*
X152333476Y-120383904D01*
X152285095Y-120529047D01*
X151704523Y-121109619D01*
X152333476Y-121109619D01*
X153204333Y-120093619D02*
X153010809Y-120093619D01*
X152914047Y-120142000D01*
X152865666Y-120190380D01*
X152768904Y-120335523D01*
X152720523Y-120529047D01*
X152720523Y-120916095D01*
X152768904Y-121012857D01*
X152817285Y-121061238D01*
X152914047Y-121109619D01*
X153107571Y-121109619D01*
X153204333Y-121061238D01*
X153252714Y-121012857D01*
X153301095Y-120916095D01*
X153301095Y-120674190D01*
X153252714Y-120577428D01*
X153204333Y-120529047D01*
X153107571Y-120480666D01*
X152914047Y-120480666D01*
X152817285Y-120529047D01*
X152768904Y-120577428D01*
X152720523Y-120674190D01*
X151752904Y-122603380D02*
X151801285Y-122555000D01*
X151898047Y-122506619D01*
X152139952Y-122506619D01*
X152236714Y-122555000D01*
X152285095Y-122603380D01*
X152333476Y-122700142D01*
X152333476Y-122796904D01*
X152285095Y-122942047D01*
X151704523Y-123522619D01*
X152333476Y-123522619D01*
X152672142Y-122506619D02*
X153349476Y-122506619D01*
X152914047Y-123522619D01*
X152333476Y-128729619D02*
X151752904Y-128729619D01*
X152043190Y-128729619D02*
X152043190Y-127713619D01*
X151946428Y-127858761D01*
X151849666Y-127955523D01*
X151752904Y-128003904D01*
X152720523Y-127810380D02*
X152768904Y-127762000D01*
X152865666Y-127713619D01*
X153107571Y-127713619D01*
X153204333Y-127762000D01*
X153252714Y-127810380D01*
X153301095Y-127907142D01*
X153301095Y-128003904D01*
X153252714Y-128149047D01*
X152672142Y-128729619D01*
X153301095Y-128729619D01*
X151704523Y-112346619D02*
X152333476Y-112346619D01*
X151994809Y-112733666D01*
X152139952Y-112733666D01*
X152236714Y-112782047D01*
X152285095Y-112830428D01*
X152333476Y-112927190D01*
X152333476Y-113169095D01*
X152285095Y-113265857D01*
X152236714Y-113314238D01*
X152139952Y-113362619D01*
X151849666Y-113362619D01*
X151752904Y-113314238D01*
X151704523Y-113265857D01*
X152720523Y-112443380D02*
X152768904Y-112395000D01*
X152865666Y-112346619D01*
X153107571Y-112346619D01*
X153204333Y-112395000D01*
X153252714Y-112443380D01*
X153301095Y-112540142D01*
X153301095Y-112636904D01*
X153252714Y-112782047D01*
X152672142Y-113362619D01*
X153301095Y-113362619D01*
X151656142Y-104853619D02*
X151994809Y-105869619D01*
X152333476Y-104853619D01*
X152672142Y-105869619D02*
X152672142Y-104853619D01*
X153252714Y-105869619D01*
X153252714Y-104853619D01*
X151680333Y-102440619D02*
X152019000Y-103456619D01*
X152357666Y-102440619D01*
X152696333Y-103456619D02*
X152696333Y-102440619D01*
X153083380Y-102440619D01*
X153180142Y-102489000D01*
X153228523Y-102537380D01*
X153276904Y-102634142D01*
X153276904Y-102779285D01*
X153228523Y-102876047D01*
X153180142Y-102924428D01*
X153083380Y-102972809D01*
X152696333Y-102972809D01*
X151704523Y-107393619D02*
X152333476Y-107393619D01*
X151994809Y-107780666D01*
X152139952Y-107780666D01*
X152236714Y-107829047D01*
X152285095Y-107877428D01*
X152333476Y-107974190D01*
X152333476Y-108216095D01*
X152285095Y-108312857D01*
X152236714Y-108361238D01*
X152139952Y-108409619D01*
X151849666Y-108409619D01*
X151752904Y-108361238D01*
X151704523Y-108312857D01*
X153204333Y-107732285D02*
X153204333Y-108409619D01*
X152962428Y-107345238D02*
X152720523Y-108070952D01*
X153349476Y-108070952D01*
X151704523Y-109933619D02*
X152333476Y-109933619D01*
X151994809Y-110320666D01*
X152139952Y-110320666D01*
X152236714Y-110369047D01*
X152285095Y-110417428D01*
X152333476Y-110514190D01*
X152333476Y-110756095D01*
X152285095Y-110852857D01*
X152236714Y-110901238D01*
X152139952Y-110949619D01*
X151849666Y-110949619D01*
X151752904Y-110901238D01*
X151704523Y-110852857D01*
X153252714Y-109933619D02*
X152768904Y-109933619D01*
X152720523Y-110417428D01*
X152768904Y-110369047D01*
X152865666Y-110320666D01*
X153107571Y-110320666D01*
X153204333Y-110369047D01*
X153252714Y-110417428D01*
X153301095Y-110514190D01*
X153301095Y-110756095D01*
X153252714Y-110852857D01*
X153204333Y-110901238D01*
X153107571Y-110949619D01*
X152865666Y-110949619D01*
X152768904Y-110901238D01*
X152720523Y-110852857D01*
X151752904Y-117650380D02*
X151801285Y-117602000D01*
X151898047Y-117553619D01*
X152139952Y-117553619D01*
X152236714Y-117602000D01*
X152285095Y-117650380D01*
X152333476Y-117747142D01*
X152333476Y-117843904D01*
X152285095Y-117989047D01*
X151704523Y-118569619D01*
X152333476Y-118569619D01*
X153252714Y-117553619D02*
X152768904Y-117553619D01*
X152720523Y-118037428D01*
X152768904Y-117989047D01*
X152865666Y-117940666D01*
X153107571Y-117940666D01*
X153204333Y-117989047D01*
X153252714Y-118037428D01*
X153301095Y-118134190D01*
X153301095Y-118376095D01*
X153252714Y-118472857D01*
X153204333Y-118521238D01*
X153107571Y-118569619D01*
X152865666Y-118569619D01*
X152768904Y-118521238D01*
X152720523Y-118472857D01*
X151704523Y-114886619D02*
X152333476Y-114886619D01*
X151994809Y-115273666D01*
X152139952Y-115273666D01*
X152236714Y-115322047D01*
X152285095Y-115370428D01*
X152333476Y-115467190D01*
X152333476Y-115709095D01*
X152285095Y-115805857D01*
X152236714Y-115854238D01*
X152139952Y-115902619D01*
X151849666Y-115902619D01*
X151752904Y-115854238D01*
X151704523Y-115805857D01*
X152672142Y-114886619D02*
X153301095Y-114886619D01*
X152962428Y-115273666D01*
X153107571Y-115273666D01*
X153204333Y-115322047D01*
X153252714Y-115370428D01*
X153301095Y-115467190D01*
X153301095Y-115709095D01*
X153252714Y-115805857D01*
X153204333Y-115854238D01*
X153107571Y-115902619D01*
X152817285Y-115902619D01*
X152720523Y-115854238D01*
X152672142Y-115805857D01*
X176342523Y-125385285D02*
X176342523Y-126062619D01*
X176100619Y-124998238D02*
X175858714Y-125723952D01*
X176487666Y-125723952D01*
X176100619Y-127586619D02*
X176197380Y-127586619D01*
X176294142Y-127635000D01*
X176342523Y-127683380D01*
X176390904Y-127780142D01*
X176439285Y-127973666D01*
X176439285Y-128215571D01*
X176390904Y-128409095D01*
X176342523Y-128505857D01*
X176294142Y-128554238D01*
X176197380Y-128602619D01*
X176100619Y-128602619D01*
X176003857Y-128554238D01*
X175955476Y-128505857D01*
X175907095Y-128409095D01*
X175858714Y-128215571D01*
X175858714Y-127973666D01*
X175907095Y-127780142D01*
X175955476Y-127683380D01*
X176003857Y-127635000D01*
X176100619Y-127586619D01*
X175955476Y-113362619D02*
X175374904Y-113362619D01*
X175665190Y-113362619D02*
X175665190Y-112346619D01*
X175568428Y-112491761D01*
X175471666Y-112588523D01*
X175374904Y-112636904D01*
X176439285Y-113362619D02*
X176632809Y-113362619D01*
X176729571Y-113314238D01*
X176777952Y-113265857D01*
X176874714Y-113120714D01*
X176923095Y-112927190D01*
X176923095Y-112540142D01*
X176874714Y-112443380D01*
X176826333Y-112395000D01*
X176729571Y-112346619D01*
X176536047Y-112346619D01*
X176439285Y-112395000D01*
X176390904Y-112443380D01*
X176342523Y-112540142D01*
X176342523Y-112782047D01*
X176390904Y-112878809D01*
X176439285Y-112927190D01*
X176536047Y-112975571D01*
X176729571Y-112975571D01*
X176826333Y-112927190D01*
X176874714Y-112878809D01*
X176923095Y-112782047D01*
X175350714Y-110949619D02*
X175350714Y-109933619D01*
X175931285Y-110949619D01*
X175931285Y-109933619D01*
X176995666Y-110852857D02*
X176947285Y-110901238D01*
X176802142Y-110949619D01*
X176705380Y-110949619D01*
X176560238Y-110901238D01*
X176463476Y-110804476D01*
X176415095Y-110707714D01*
X176366714Y-110514190D01*
X176366714Y-110369047D01*
X176415095Y-110175523D01*
X176463476Y-110078761D01*
X176560238Y-109982000D01*
X176705380Y-109933619D01*
X176802142Y-109933619D01*
X176947285Y-109982000D01*
X176995666Y-110030380D01*
X175955476Y-123395619D02*
X175374904Y-123395619D01*
X175665190Y-123395619D02*
X175665190Y-122379619D01*
X175568428Y-122524761D01*
X175471666Y-122621523D01*
X175374904Y-122669904D01*
X176826333Y-122379619D02*
X176632809Y-122379619D01*
X176536047Y-122428000D01*
X176487666Y-122476380D01*
X176390904Y-122621523D01*
X176342523Y-122815047D01*
X176342523Y-123202095D01*
X176390904Y-123298857D01*
X176439285Y-123347238D01*
X176536047Y-123395619D01*
X176729571Y-123395619D01*
X176826333Y-123347238D01*
X176874714Y-123298857D01*
X176923095Y-123202095D01*
X176923095Y-122960190D01*
X176874714Y-122863428D01*
X176826333Y-122815047D01*
X176729571Y-122766666D01*
X176536047Y-122766666D01*
X176439285Y-122815047D01*
X176390904Y-122863428D01*
X176342523Y-122960190D01*
X175955476Y-120855619D02*
X175374904Y-120855619D01*
X175665190Y-120855619D02*
X175665190Y-119839619D01*
X175568428Y-119984761D01*
X175471666Y-120081523D01*
X175374904Y-120129904D01*
X176294142Y-119839619D02*
X176971476Y-119839619D01*
X176536047Y-120855619D01*
X176390904Y-117426619D02*
X175907095Y-117426619D01*
X175858714Y-117910428D01*
X175907095Y-117862047D01*
X176003857Y-117813666D01*
X176245761Y-117813666D01*
X176342523Y-117862047D01*
X176390904Y-117910428D01*
X176439285Y-118007190D01*
X176439285Y-118249095D01*
X176390904Y-118345857D01*
X176342523Y-118394238D01*
X176245761Y-118442619D01*
X176003857Y-118442619D01*
X175907095Y-118394238D01*
X175858714Y-118345857D01*
X175955476Y-115902619D02*
X175374904Y-115902619D01*
X175665190Y-115902619D02*
X175665190Y-114886619D01*
X175568428Y-115031761D01*
X175471666Y-115128523D01*
X175374904Y-115176904D01*
X176536047Y-115322047D02*
X176439285Y-115273666D01*
X176390904Y-115225285D01*
X176342523Y-115128523D01*
X176342523Y-115080142D01*
X176390904Y-114983380D01*
X176439285Y-114935000D01*
X176536047Y-114886619D01*
X176729571Y-114886619D01*
X176826333Y-114935000D01*
X176874714Y-114983380D01*
X176923095Y-115080142D01*
X176923095Y-115128523D01*
X176874714Y-115225285D01*
X176826333Y-115273666D01*
X176729571Y-115322047D01*
X176536047Y-115322047D01*
X176439285Y-115370428D01*
X176390904Y-115418809D01*
X176342523Y-115515571D01*
X176342523Y-115709095D01*
X176390904Y-115805857D01*
X176439285Y-115854238D01*
X176536047Y-115902619D01*
X176729571Y-115902619D01*
X176826333Y-115854238D01*
X176874714Y-115805857D01*
X176923095Y-115709095D01*
X176923095Y-115515571D01*
X176874714Y-115418809D01*
X176826333Y-115370428D01*
X176729571Y-115322047D01*
X175344666Y-105742619D02*
X175006000Y-105258809D01*
X174764095Y-105742619D02*
X174764095Y-104726619D01*
X175151142Y-104726619D01*
X175247904Y-104775000D01*
X175296285Y-104823380D01*
X175344666Y-104920142D01*
X175344666Y-105065285D01*
X175296285Y-105162047D01*
X175247904Y-105210428D01*
X175151142Y-105258809D01*
X174764095Y-105258809D01*
X175683333Y-104726619D02*
X176360666Y-105742619D01*
X176360666Y-104726619D02*
X175683333Y-105742619D01*
X176747714Y-105742619D02*
X176747714Y-104726619D01*
X176989619Y-104726619D01*
X177134761Y-104775000D01*
X177231523Y-104871761D01*
X177279904Y-104968523D01*
X177328285Y-105162047D01*
X177328285Y-105307190D01*
X177279904Y-105500714D01*
X177231523Y-105597476D01*
X177134761Y-105694238D01*
X176989619Y-105742619D01*
X176747714Y-105742619D01*
X174739904Y-102313619D02*
X175320476Y-102313619D01*
X175030190Y-103329619D02*
X175030190Y-102313619D01*
X175562380Y-102313619D02*
X176239714Y-103329619D01*
X176239714Y-102313619D02*
X175562380Y-103329619D01*
X176626761Y-103329619D02*
X176626761Y-102313619D01*
X176868666Y-102313619D01*
X177013809Y-102362000D01*
X177110571Y-102458761D01*
X177158952Y-102555523D01*
X177207333Y-102749047D01*
X177207333Y-102894190D01*
X177158952Y-103087714D01*
X177110571Y-103184476D01*
X177013809Y-103281238D01*
X176868666Y-103329619D01*
X176626761Y-103329619D01*
X175374904Y-107363380D02*
X175423285Y-107315000D01*
X175520047Y-107266619D01*
X175761952Y-107266619D01*
X175858714Y-107315000D01*
X175907095Y-107363380D01*
X175955476Y-107460142D01*
X175955476Y-107556904D01*
X175907095Y-107702047D01*
X175326523Y-108282619D01*
X175955476Y-108282619D01*
X176923095Y-108282619D02*
X176342523Y-108282619D01*
X176632809Y-108282619D02*
X176632809Y-107266619D01*
X176536047Y-107411761D01*
X176439285Y-107508523D01*
X176342523Y-107556904D01*
X175374904Y-99870380D02*
X175423285Y-99822000D01*
X175520047Y-99773619D01*
X175761952Y-99773619D01*
X175858714Y-99822000D01*
X175907095Y-99870380D01*
X175955476Y-99967142D01*
X175955476Y-100063904D01*
X175907095Y-100209047D01*
X175326523Y-100789619D01*
X175955476Y-100789619D01*
X176342523Y-99870380D02*
X176390904Y-99822000D01*
X176487666Y-99773619D01*
X176729571Y-99773619D01*
X176826333Y-99822000D01*
X176874714Y-99870380D01*
X176923095Y-99967142D01*
X176923095Y-100063904D01*
X176874714Y-100209047D01*
X176294142Y-100789619D01*
X176923095Y-100789619D01*
X175374904Y-97330380D02*
X175423285Y-97282000D01*
X175520047Y-97233619D01*
X175761952Y-97233619D01*
X175858714Y-97282000D01*
X175907095Y-97330380D01*
X175955476Y-97427142D01*
X175955476Y-97523904D01*
X175907095Y-97669047D01*
X175326523Y-98249619D01*
X175955476Y-98249619D01*
X176294142Y-97233619D02*
X176923095Y-97233619D01*
X176584428Y-97620666D01*
X176729571Y-97620666D01*
X176826333Y-97669047D01*
X176874714Y-97717428D01*
X176923095Y-97814190D01*
X176923095Y-98056095D01*
X176874714Y-98152857D01*
X176826333Y-98201238D01*
X176729571Y-98249619D01*
X176439285Y-98249619D01*
X176342523Y-98201238D01*
X176294142Y-98152857D01*
X175374904Y-94869000D02*
X175278142Y-94820619D01*
X175133000Y-94820619D01*
X174987857Y-94869000D01*
X174891095Y-94965761D01*
X174842714Y-95062523D01*
X174794333Y-95256047D01*
X174794333Y-95401190D01*
X174842714Y-95594714D01*
X174891095Y-95691476D01*
X174987857Y-95788238D01*
X175133000Y-95836619D01*
X175229761Y-95836619D01*
X175374904Y-95788238D01*
X175423285Y-95739857D01*
X175423285Y-95401190D01*
X175229761Y-95401190D01*
X175858714Y-95836619D02*
X175858714Y-94820619D01*
X176439285Y-95836619D01*
X176439285Y-94820619D01*
X176923095Y-95836619D02*
X176923095Y-94820619D01*
X177165000Y-94820619D01*
X177310142Y-94869000D01*
X177406904Y-94965761D01*
X177455285Y-95062523D01*
X177503666Y-95256047D01*
X177503666Y-95401190D01*
X177455285Y-95594714D01*
X177406904Y-95691476D01*
X177310142Y-95788238D01*
X177165000Y-95836619D01*
X176923095Y-95836619D01*
D11*
X159011907Y-128905000D02*
G75*
G03X159011907Y-128905000I-1023907J0D01*
G01*
X161551907Y-128905000D02*
G75*
G03X161551907Y-128905000I-1023907J0D01*
G01*
X164091907Y-128905000D02*
G75*
G03X164091907Y-128905000I-1023907J0D01*
G01*
D12*
X161262142Y-134409428D02*
X161333571Y-134195142D01*
X161333571Y-133838000D01*
X161262142Y-133695142D01*
X161190714Y-133623714D01*
X161047857Y-133552285D01*
X160905000Y-133552285D01*
X160762142Y-133623714D01*
X160690714Y-133695142D01*
X160619285Y-133838000D01*
X160547857Y-134123714D01*
X160476428Y-134266571D01*
X160405000Y-134338000D01*
X160262142Y-134409428D01*
X160119285Y-134409428D01*
X159976428Y-134338000D01*
X159905000Y-134266571D01*
X159833571Y-134123714D01*
X159833571Y-133766571D01*
X159905000Y-133552285D01*
X161333571Y-132909428D02*
X159833571Y-132909428D01*
X159833571Y-132552285D01*
X159905000Y-132338000D01*
X160047857Y-132195142D01*
X160190714Y-132123714D01*
X160476428Y-132052285D01*
X160690714Y-132052285D01*
X160976428Y-132123714D01*
X161119285Y-132195142D01*
X161262142Y-132338000D01*
X161333571Y-132552285D01*
X161333571Y-132909428D01*
X160905000Y-131480857D02*
X160905000Y-130766571D01*
X161333571Y-131623714D02*
X159833571Y-131123714D01*
X161333571Y-130623714D01*
X163802142Y-134373714D02*
X163873571Y-134159428D01*
X163873571Y-133802285D01*
X163802142Y-133659428D01*
X163730714Y-133588000D01*
X163587857Y-133516571D01*
X163445000Y-133516571D01*
X163302142Y-133588000D01*
X163230714Y-133659428D01*
X163159285Y-133802285D01*
X163087857Y-134088000D01*
X163016428Y-134230857D01*
X162945000Y-134302285D01*
X162802142Y-134373714D01*
X162659285Y-134373714D01*
X162516428Y-134302285D01*
X162445000Y-134230857D01*
X162373571Y-134088000D01*
X162373571Y-133730857D01*
X162445000Y-133516571D01*
X163730714Y-132016571D02*
X163802142Y-132088000D01*
X163873571Y-132302285D01*
X163873571Y-132445142D01*
X163802142Y-132659428D01*
X163659285Y-132802285D01*
X163516428Y-132873714D01*
X163230714Y-132945142D01*
X163016428Y-132945142D01*
X162730714Y-132873714D01*
X162587857Y-132802285D01*
X162445000Y-132659428D01*
X162373571Y-132445142D01*
X162373571Y-132302285D01*
X162445000Y-132088000D01*
X162516428Y-132016571D01*
X163873571Y-130659428D02*
X163873571Y-131373714D01*
X162373571Y-131373714D01*
X175049571Y-133334000D02*
X174335285Y-133834000D01*
X175049571Y-134191142D02*
X173549571Y-134191142D01*
X173549571Y-133619714D01*
X173621000Y-133476857D01*
X173692428Y-133405428D01*
X173835285Y-133334000D01*
X174049571Y-133334000D01*
X174192428Y-133405428D01*
X174263857Y-133476857D01*
X174335285Y-133619714D01*
X174335285Y-134191142D01*
X173549571Y-132834000D02*
X175049571Y-131834000D01*
X173549571Y-131834000D02*
X175049571Y-132834000D01*
X175049571Y-131262571D02*
X173549571Y-131262571D01*
X173549571Y-130905428D01*
X173621000Y-130691142D01*
X173763857Y-130548285D01*
X173906714Y-130476857D01*
X174192428Y-130405428D01*
X174406714Y-130405428D01*
X174692428Y-130476857D01*
X174835285Y-130548285D01*
X174978142Y-130691142D01*
X175049571Y-130905428D01*
X175049571Y-131262571D01*
X176089571Y-134226857D02*
X176089571Y-133369714D01*
X177589571Y-133798285D02*
X176089571Y-133798285D01*
X176089571Y-133012571D02*
X177589571Y-132012571D01*
X176089571Y-132012571D02*
X177589571Y-133012571D01*
X177589571Y-131441142D02*
X176089571Y-131441142D01*
X176089571Y-131084000D01*
X176161000Y-130869714D01*
X176303857Y-130726857D01*
X176446714Y-130655428D01*
X176732428Y-130584000D01*
X176946714Y-130584000D01*
X177232428Y-130655428D01*
X177375285Y-130726857D01*
X177518142Y-130869714D01*
X177589571Y-131084000D01*
X177589571Y-131441142D01*
X171081000Y-133476857D02*
X171009571Y-133619714D01*
X171009571Y-133834000D01*
X171081000Y-134048285D01*
X171223857Y-134191142D01*
X171366714Y-134262571D01*
X171652428Y-134334000D01*
X171866714Y-134334000D01*
X172152428Y-134262571D01*
X172295285Y-134191142D01*
X172438142Y-134048285D01*
X172509571Y-133834000D01*
X172509571Y-133691142D01*
X172438142Y-133476857D01*
X172366714Y-133405428D01*
X171866714Y-133405428D01*
X171866714Y-133691142D01*
X172509571Y-132762571D02*
X171009571Y-132762571D01*
X172509571Y-131905428D01*
X171009571Y-131905428D01*
X172509571Y-131191142D02*
X171009571Y-131191142D01*
X171009571Y-130834000D01*
X171081000Y-130619714D01*
X171223857Y-130476857D01*
X171366714Y-130405428D01*
X171652428Y-130334000D01*
X171866714Y-130334000D01*
X172152428Y-130405428D01*
X172295285Y-130476857D01*
X172438142Y-130619714D01*
X172509571Y-130834000D01*
X172509571Y-131191142D01*
X178502571Y-134294285D02*
X178502571Y-133365714D01*
X179074000Y-133865714D01*
X179074000Y-133651428D01*
X179145428Y-133508571D01*
X179216857Y-133437142D01*
X179359714Y-133365714D01*
X179716857Y-133365714D01*
X179859714Y-133437142D01*
X179931142Y-133508571D01*
X180002571Y-133651428D01*
X180002571Y-134080000D01*
X179931142Y-134222857D01*
X179859714Y-134294285D01*
X179859714Y-132722857D02*
X179931142Y-132651428D01*
X180002571Y-132722857D01*
X179931142Y-132794285D01*
X179859714Y-132722857D01*
X180002571Y-132722857D01*
X178502571Y-132151428D02*
X178502571Y-131222857D01*
X179074000Y-131722857D01*
X179074000Y-131508571D01*
X179145428Y-131365714D01*
X179216857Y-131294285D01*
X179359714Y-131222857D01*
X179716857Y-131222857D01*
X179859714Y-131294285D01*
X179931142Y-131365714D01*
X180002571Y-131508571D01*
X180002571Y-131937142D01*
X179931142Y-132080000D01*
X179859714Y-132151428D01*
X178502571Y-130794285D02*
X180002571Y-130294285D01*
X178502571Y-129794285D01*
X164913571Y-134294285D02*
X164913571Y-133365714D01*
X165485000Y-133865714D01*
X165485000Y-133651428D01*
X165556428Y-133508571D01*
X165627857Y-133437142D01*
X165770714Y-133365714D01*
X166127857Y-133365714D01*
X166270714Y-133437142D01*
X166342142Y-133508571D01*
X166413571Y-133651428D01*
X166413571Y-134080000D01*
X166342142Y-134222857D01*
X166270714Y-134294285D01*
X166270714Y-132722857D02*
X166342142Y-132651428D01*
X166413571Y-132722857D01*
X166342142Y-132794285D01*
X166270714Y-132722857D01*
X166413571Y-132722857D01*
X164913571Y-132151428D02*
X164913571Y-131222857D01*
X165485000Y-131722857D01*
X165485000Y-131508571D01*
X165556428Y-131365714D01*
X165627857Y-131294285D01*
X165770714Y-131222857D01*
X166127857Y-131222857D01*
X166270714Y-131294285D01*
X166342142Y-131365714D01*
X166413571Y-131508571D01*
X166413571Y-131937142D01*
X166342142Y-132080000D01*
X166270714Y-132151428D01*
X164913571Y-130794285D02*
X166413571Y-130294285D01*
X164913571Y-129794285D01*
X157365000Y-133476857D02*
X157293571Y-133619714D01*
X157293571Y-133834000D01*
X157365000Y-134048285D01*
X157507857Y-134191142D01*
X157650714Y-134262571D01*
X157936428Y-134334000D01*
X158150714Y-134334000D01*
X158436428Y-134262571D01*
X158579285Y-134191142D01*
X158722142Y-134048285D01*
X158793571Y-133834000D01*
X158793571Y-133691142D01*
X158722142Y-133476857D01*
X158650714Y-133405428D01*
X158150714Y-133405428D01*
X158150714Y-133691142D01*
X158793571Y-132762571D02*
X157293571Y-132762571D01*
X158793571Y-131905428D01*
X157293571Y-131905428D01*
X158793571Y-131191142D02*
X157293571Y-131191142D01*
X157293571Y-130834000D01*
X157365000Y-130619714D01*
X157507857Y-130476857D01*
X157650714Y-130405428D01*
X157936428Y-130334000D01*
X158150714Y-130334000D01*
X158436428Y-130405428D01*
X158579285Y-130476857D01*
X158722142Y-130619714D01*
X158793571Y-130834000D01*
X158793571Y-131191142D01*
X151197571Y-134294285D02*
X151197571Y-133365714D01*
X151769000Y-133865714D01*
X151769000Y-133651428D01*
X151840428Y-133508571D01*
X151911857Y-133437142D01*
X152054714Y-133365714D01*
X152411857Y-133365714D01*
X152554714Y-133437142D01*
X152626142Y-133508571D01*
X152697571Y-133651428D01*
X152697571Y-134080000D01*
X152626142Y-134222857D01*
X152554714Y-134294285D01*
X152554714Y-132722857D02*
X152626142Y-132651428D01*
X152697571Y-132722857D01*
X152626142Y-132794285D01*
X152554714Y-132722857D01*
X152697571Y-132722857D01*
X151197571Y-132151428D02*
X151197571Y-131222857D01*
X151769000Y-131722857D01*
X151769000Y-131508571D01*
X151840428Y-131365714D01*
X151911857Y-131294285D01*
X152054714Y-131222857D01*
X152411857Y-131222857D01*
X152554714Y-131294285D01*
X152626142Y-131365714D01*
X152697571Y-131508571D01*
X152697571Y-131937142D01*
X152626142Y-132080000D01*
X152554714Y-132151428D01*
X151197571Y-130794285D02*
X152697571Y-130294285D01*
X151197571Y-129794285D01*
X148729000Y-133476857D02*
X148657571Y-133619714D01*
X148657571Y-133834000D01*
X148729000Y-134048285D01*
X148871857Y-134191142D01*
X149014714Y-134262571D01*
X149300428Y-134334000D01*
X149514714Y-134334000D01*
X149800428Y-134262571D01*
X149943285Y-134191142D01*
X150086142Y-134048285D01*
X150157571Y-133834000D01*
X150157571Y-133691142D01*
X150086142Y-133476857D01*
X150014714Y-133405428D01*
X149514714Y-133405428D01*
X149514714Y-133691142D01*
X150157571Y-132762571D02*
X148657571Y-132762571D01*
X150157571Y-131905428D01*
X148657571Y-131905428D01*
X150157571Y-131191142D02*
X148657571Y-131191142D01*
X148657571Y-130834000D01*
X148729000Y-130619714D01*
X148871857Y-130476857D01*
X149014714Y-130405428D01*
X149300428Y-130334000D01*
X149514714Y-130334000D01*
X149800428Y-130405428D01*
X149943285Y-130476857D01*
X150086142Y-130619714D01*
X150157571Y-130834000D01*
X150157571Y-131191142D01*
D13*
X156623936Y-125836000D02*
X157828064Y-125836000D01*
X156623936Y-127656000D02*
X157828064Y-127656000D01*
X148276000Y-93920000D02*
X149606000Y-93920000D01*
X148276000Y-95250000D02*
X148276000Y-93920000D01*
X148276000Y-96520000D02*
X150936000Y-96520000D01*
X150936000Y-96520000D02*
X150936000Y-129600000D01*
X148276000Y-96520000D02*
X148276000Y-129600000D01*
X148276000Y-129600000D02*
X150936000Y-129600000D01*
X177486000Y-93920000D02*
X178816000Y-93920000D01*
X177486000Y-95250000D02*
X177486000Y-93920000D01*
X177486000Y-96520000D02*
X180146000Y-96520000D01*
X180146000Y-96520000D02*
X180146000Y-129600000D01*
X177486000Y-96520000D02*
X177486000Y-129600000D01*
X177486000Y-129600000D02*
X180146000Y-129600000D01*
D14*
X154707981Y-93756000D02*
G75*
G03X154707981Y-93756000I-283981J0D01*
G01*
D15*
X173330000Y-93610000D02*
X155330000Y-93610000D01*
X155330000Y-87610000D02*
X155330000Y-113110000D01*
X173330000Y-87610000D02*
X173330000Y-113110000D01*
X173330000Y-113110000D02*
X155330000Y-113110000D01*
X173330000Y-87610000D02*
X155330000Y-87610000D01*
D13*
X153364000Y-98801422D02*
X153364000Y-99318578D01*
X151944000Y-98801422D02*
X151944000Y-99318578D01*
X153364000Y-95684078D02*
X153364000Y-95166922D01*
X151944000Y-95684078D02*
X151944000Y-95166922D01*
X164794000Y-122247922D02*
X164794000Y-122765078D01*
X163374000Y-122247922D02*
X163374000Y-122765078D01*
X164794000Y-116248922D02*
X164794000Y-116766078D01*
X163374000Y-116248922D02*
X163374000Y-116766078D01*
X161964000Y-121174000D02*
X161964000Y-116674000D01*
X157964000Y-122424000D02*
X159464000Y-122424000D01*
X155464000Y-116674000D02*
X155464000Y-121174000D01*
X159464000Y-115424000D02*
X157964000Y-115424000D01*
X170132000Y-115424000D02*
X168632000Y-115424000D01*
X166132000Y-116674000D02*
X166132000Y-121174000D01*
X168632000Y-122424000D02*
X170132000Y-122424000D01*
X172632000Y-121174000D02*
X172632000Y-116674000D01*
X153282000Y-137369000D02*
X153282000Y-135169000D01*
X153282000Y-135169000D02*
X154502000Y-135169000D01*
X154502000Y-135169000D02*
X154502000Y-143589000D01*
X154502000Y-143589000D02*
X146782000Y-143589000D01*
X146782000Y-143589000D02*
X146782000Y-135169000D01*
X146782000Y-135169000D02*
X148002000Y-135169000D01*
X148002000Y-135169000D02*
X148002000Y-137369000D01*
X154502000Y-142369000D02*
X153282000Y-142369000D01*
X153282000Y-142369000D02*
X153282000Y-137369000D01*
X153282000Y-137369000D02*
X154502000Y-137369000D01*
X146782000Y-142369000D02*
X148002000Y-142369000D01*
X148002000Y-142369000D02*
X148002000Y-137369000D01*
X148002000Y-137369000D02*
X146782000Y-137369000D01*
X153282000Y-138369000D02*
X148002000Y-138369000D01*
X151892000Y-138369000D02*
X152212000Y-138369000D01*
X152212000Y-138369000D02*
X152212000Y-141789000D01*
X152212000Y-141789000D02*
X151892000Y-141869000D01*
X151892000Y-141869000D02*
X151572000Y-141789000D01*
X151572000Y-141789000D02*
X151572000Y-138369000D01*
X151572000Y-138369000D02*
X151892000Y-138369000D01*
X150722000Y-137369000D02*
X150562000Y-137369000D01*
X149392000Y-138369000D02*
X149712000Y-138369000D01*
X149712000Y-138369000D02*
X149712000Y-141789000D01*
X149712000Y-141789000D02*
X149392000Y-141869000D01*
X149392000Y-141869000D02*
X149072000Y-141789000D01*
X149072000Y-141789000D02*
X149072000Y-138369000D01*
X149072000Y-138369000D02*
X149392000Y-138369000D01*
X151892000Y-135279000D02*
X152192000Y-134679000D01*
X152192000Y-134679000D02*
X151592000Y-134679000D01*
X151592000Y-134679000D02*
X151892000Y-135279000D01*
X180714000Y-137369000D02*
X180714000Y-135169000D01*
X180714000Y-135169000D02*
X181934000Y-135169000D01*
X181934000Y-135169000D02*
X181934000Y-143589000D01*
X181934000Y-143589000D02*
X169214000Y-143589000D01*
X169214000Y-143589000D02*
X169214000Y-135169000D01*
X169214000Y-135169000D02*
X170434000Y-135169000D01*
X170434000Y-135169000D02*
X170434000Y-137369000D01*
X181934000Y-142369000D02*
X180714000Y-142369000D01*
X180714000Y-142369000D02*
X180714000Y-137369000D01*
X180714000Y-137369000D02*
X181934000Y-137369000D01*
X169214000Y-142369000D02*
X170434000Y-142369000D01*
X170434000Y-142369000D02*
X170434000Y-137369000D01*
X170434000Y-137369000D02*
X169214000Y-137369000D01*
X180714000Y-138369000D02*
X170434000Y-138369000D01*
X179324000Y-138369000D02*
X179644000Y-138369000D01*
X179644000Y-138369000D02*
X179644000Y-141789000D01*
X179644000Y-141789000D02*
X179324000Y-141869000D01*
X179324000Y-141869000D02*
X179004000Y-141789000D01*
X179004000Y-141789000D02*
X179004000Y-138369000D01*
X179004000Y-138369000D02*
X179324000Y-138369000D01*
X178154000Y-137369000D02*
X177994000Y-137369000D01*
X176824000Y-138369000D02*
X177144000Y-138369000D01*
X177144000Y-138369000D02*
X177144000Y-141789000D01*
X177144000Y-141789000D02*
X176824000Y-141869000D01*
X176824000Y-141869000D02*
X176504000Y-141789000D01*
X176504000Y-141789000D02*
X176504000Y-138369000D01*
X176504000Y-138369000D02*
X176824000Y-138369000D01*
X175654000Y-137369000D02*
X175494000Y-137369000D01*
X174324000Y-138369000D02*
X174644000Y-138369000D01*
X174644000Y-138369000D02*
X174644000Y-141789000D01*
X174644000Y-141789000D02*
X174324000Y-141869000D01*
X174324000Y-141869000D02*
X174004000Y-141789000D01*
X174004000Y-141789000D02*
X174004000Y-138369000D01*
X174004000Y-138369000D02*
X174324000Y-138369000D01*
X173154000Y-137369000D02*
X172994000Y-137369000D01*
X171824000Y-138369000D02*
X172144000Y-138369000D01*
X172144000Y-138369000D02*
X172144000Y-141789000D01*
X172144000Y-141789000D02*
X171824000Y-141869000D01*
X171824000Y-141869000D02*
X171504000Y-141789000D01*
X171504000Y-141789000D02*
X171504000Y-138369000D01*
X171504000Y-138369000D02*
X171824000Y-138369000D01*
X179324000Y-135279000D02*
X179624000Y-134679000D01*
X179624000Y-134679000D02*
X179024000Y-134679000D01*
X179024000Y-134679000D02*
X179324000Y-135279000D01*
X166998000Y-137369000D02*
X166998000Y-135169000D01*
X166998000Y-135169000D02*
X168218000Y-135169000D01*
X168218000Y-135169000D02*
X168218000Y-143589000D01*
X168218000Y-143589000D02*
X155498000Y-143589000D01*
X155498000Y-143589000D02*
X155498000Y-135169000D01*
X155498000Y-135169000D02*
X156718000Y-135169000D01*
X156718000Y-135169000D02*
X156718000Y-137369000D01*
X168218000Y-142369000D02*
X166998000Y-142369000D01*
X166998000Y-142369000D02*
X166998000Y-137369000D01*
X166998000Y-137369000D02*
X168218000Y-137369000D01*
X155498000Y-142369000D02*
X156718000Y-142369000D01*
X156718000Y-142369000D02*
X156718000Y-137369000D01*
X156718000Y-137369000D02*
X155498000Y-137369000D01*
X166998000Y-138369000D02*
X156718000Y-138369000D01*
X165608000Y-138369000D02*
X165928000Y-138369000D01*
X165928000Y-138369000D02*
X165928000Y-141789000D01*
X165928000Y-141789000D02*
X165608000Y-141869000D01*
X165608000Y-141869000D02*
X165288000Y-141789000D01*
X165288000Y-141789000D02*
X165288000Y-138369000D01*
X165288000Y-138369000D02*
X165608000Y-138369000D01*
X164438000Y-137369000D02*
X164278000Y-137369000D01*
X163108000Y-138369000D02*
X163428000Y-138369000D01*
X163428000Y-138369000D02*
X163428000Y-141789000D01*
X163428000Y-141789000D02*
X163108000Y-141869000D01*
X163108000Y-141869000D02*
X162788000Y-141789000D01*
X162788000Y-141789000D02*
X162788000Y-138369000D01*
X162788000Y-138369000D02*
X163108000Y-138369000D01*
X161938000Y-137369000D02*
X161778000Y-137369000D01*
X160608000Y-138369000D02*
X160928000Y-138369000D01*
X160928000Y-138369000D02*
X160928000Y-141789000D01*
X160928000Y-141789000D02*
X160608000Y-141869000D01*
X160608000Y-141869000D02*
X160288000Y-141789000D01*
X160288000Y-141789000D02*
X160288000Y-138369000D01*
X160288000Y-138369000D02*
X160608000Y-138369000D01*
X159438000Y-137369000D02*
X159278000Y-137369000D01*
X158108000Y-138369000D02*
X158428000Y-138369000D01*
X158428000Y-138369000D02*
X158428000Y-141789000D01*
X158428000Y-141789000D02*
X158108000Y-141869000D01*
X158108000Y-141869000D02*
X157788000Y-141789000D01*
X157788000Y-141789000D02*
X157788000Y-138369000D01*
X157788000Y-138369000D02*
X158108000Y-138369000D01*
X165608000Y-135279000D02*
X165908000Y-134679000D01*
X165908000Y-134679000D02*
X165308000Y-134679000D01*
X165308000Y-134679000D02*
X165608000Y-135279000D01*
D15*
X171116571Y-107820428D02*
X171116571Y-107487095D01*
X171640380Y-107344238D02*
X171640380Y-107820428D01*
X170640380Y-107820428D01*
X170640380Y-107344238D01*
X171592761Y-106963285D02*
X171640380Y-106868047D01*
X171640380Y-106677571D01*
X171592761Y-106582333D01*
X171497523Y-106534714D01*
X171449904Y-106534714D01*
X171354666Y-106582333D01*
X171307047Y-106677571D01*
X171307047Y-106820428D01*
X171259428Y-106915666D01*
X171164190Y-106963285D01*
X171116571Y-106963285D01*
X171021333Y-106915666D01*
X170973714Y-106820428D01*
X170973714Y-106677571D01*
X171021333Y-106582333D01*
X170973714Y-106106142D02*
X171973714Y-106106142D01*
X171021333Y-106106142D02*
X170973714Y-106010904D01*
X170973714Y-105820428D01*
X171021333Y-105725190D01*
X171068952Y-105677571D01*
X171164190Y-105629952D01*
X171449904Y-105629952D01*
X171545142Y-105677571D01*
X171592761Y-105725190D01*
X171640380Y-105820428D01*
X171640380Y-106010904D01*
X171592761Y-106106142D01*
X171640380Y-105201380D02*
X170973714Y-105201380D01*
X171164190Y-105201380D02*
X171068952Y-105153761D01*
X171021333Y-105106142D01*
X170973714Y-105010904D01*
X170973714Y-104915666D01*
X171592761Y-104201380D02*
X171640380Y-104296619D01*
X171640380Y-104487095D01*
X171592761Y-104582333D01*
X171497523Y-104629952D01*
X171116571Y-104629952D01*
X171021333Y-104582333D01*
X170973714Y-104487095D01*
X170973714Y-104296619D01*
X171021333Y-104201380D01*
X171116571Y-104153761D01*
X171211809Y-104153761D01*
X171307047Y-104629952D01*
X171592761Y-103772809D02*
X171640380Y-103677571D01*
X171640380Y-103487095D01*
X171592761Y-103391857D01*
X171497523Y-103344238D01*
X171449904Y-103344238D01*
X171354666Y-103391857D01*
X171307047Y-103487095D01*
X171307047Y-103629952D01*
X171259428Y-103725190D01*
X171164190Y-103772809D01*
X171116571Y-103772809D01*
X171021333Y-103725190D01*
X170973714Y-103629952D01*
X170973714Y-103487095D01*
X171021333Y-103391857D01*
X171592761Y-102963285D02*
X171640380Y-102868047D01*
X171640380Y-102677571D01*
X171592761Y-102582333D01*
X171497523Y-102534714D01*
X171449904Y-102534714D01*
X171354666Y-102582333D01*
X171307047Y-102677571D01*
X171307047Y-102820428D01*
X171259428Y-102915666D01*
X171164190Y-102963285D01*
X171116571Y-102963285D01*
X171021333Y-102915666D01*
X170973714Y-102820428D01*
X170973714Y-102677571D01*
X171021333Y-102582333D01*
X171640380Y-102106142D02*
X170973714Y-102106142D01*
X170640380Y-102106142D02*
X170688000Y-102153761D01*
X170735619Y-102106142D01*
X170688000Y-102058523D01*
X170640380Y-102106142D01*
X170735619Y-102106142D01*
X170973714Y-101772809D02*
X170973714Y-101391857D01*
X171640380Y-101629952D02*
X170783238Y-101629952D01*
X170688000Y-101582333D01*
X170640380Y-101487095D01*
X170640380Y-101391857D01*
X171592761Y-100344238D02*
X171640380Y-100201380D01*
X171640380Y-99963285D01*
X171592761Y-99868047D01*
X171545142Y-99820428D01*
X171449904Y-99772809D01*
X171354666Y-99772809D01*
X171259428Y-99820428D01*
X171211809Y-99868047D01*
X171164190Y-99963285D01*
X171116571Y-100153761D01*
X171068952Y-100249000D01*
X171021333Y-100296619D01*
X170926095Y-100344238D01*
X170830857Y-100344238D01*
X170735619Y-100296619D01*
X170688000Y-100249000D01*
X170640380Y-100153761D01*
X170640380Y-99915666D01*
X170688000Y-99772809D01*
X170973714Y-99439476D02*
X171640380Y-99201380D01*
X170973714Y-98963285D02*
X171640380Y-99201380D01*
X171878476Y-99296619D01*
X171926095Y-99344238D01*
X171973714Y-99439476D01*
X171592761Y-98629952D02*
X171640380Y-98534714D01*
X171640380Y-98344238D01*
X171592761Y-98249000D01*
X171497523Y-98201380D01*
X171449904Y-98201380D01*
X171354666Y-98249000D01*
X171307047Y-98344238D01*
X171307047Y-98487095D01*
X171259428Y-98582333D01*
X171164190Y-98629952D01*
X171116571Y-98629952D01*
X171021333Y-98582333D01*
X170973714Y-98487095D01*
X170973714Y-98344238D01*
X171021333Y-98249000D01*
X170973714Y-97915666D02*
X170973714Y-97534714D01*
X170640380Y-97772809D02*
X171497523Y-97772809D01*
X171592761Y-97725190D01*
X171640380Y-97629952D01*
X171640380Y-97534714D01*
X171592761Y-96820428D02*
X171640380Y-96915666D01*
X171640380Y-97106142D01*
X171592761Y-97201380D01*
X171497523Y-97249000D01*
X171116571Y-97249000D01*
X171021333Y-97201380D01*
X170973714Y-97106142D01*
X170973714Y-96915666D01*
X171021333Y-96820428D01*
X171116571Y-96772809D01*
X171211809Y-96772809D01*
X171307047Y-97249000D01*
X171640380Y-96344238D02*
X170973714Y-96344238D01*
X171068952Y-96344238D02*
X171021333Y-96296619D01*
X170973714Y-96201380D01*
X170973714Y-96058523D01*
X171021333Y-95963285D01*
X171116571Y-95915666D01*
X171640380Y-95915666D01*
X171116571Y-95915666D02*
X171021333Y-95868047D01*
X170973714Y-95772809D01*
X170973714Y-95629952D01*
X171021333Y-95534714D01*
X171116571Y-95487095D01*
X171640380Y-95487095D01*
X171592761Y-95058523D02*
X171640380Y-94963285D01*
X171640380Y-94772809D01*
X171592761Y-94677571D01*
X171497523Y-94629952D01*
X171449904Y-94629952D01*
X171354666Y-94677571D01*
X171307047Y-94772809D01*
X171307047Y-94915666D01*
X171259428Y-95010904D01*
X171164190Y-95058523D01*
X171116571Y-95058523D01*
X171021333Y-95010904D01*
X170973714Y-94915666D01*
X170973714Y-94772809D01*
X171021333Y-94677571D01*
X169465571Y-105558380D02*
X169465571Y-105225047D01*
X169989380Y-105082190D02*
X169989380Y-105558380D01*
X168989380Y-105558380D01*
X168989380Y-105082190D01*
X169941761Y-104701238D02*
X169989380Y-104558380D01*
X169989380Y-104320285D01*
X169941761Y-104225047D01*
X169894142Y-104177428D01*
X169798904Y-104129809D01*
X169703666Y-104129809D01*
X169608428Y-104177428D01*
X169560809Y-104225047D01*
X169513190Y-104320285D01*
X169465571Y-104510761D01*
X169417952Y-104606000D01*
X169370333Y-104653619D01*
X169275095Y-104701238D01*
X169179857Y-104701238D01*
X169084619Y-104653619D01*
X169037000Y-104606000D01*
X168989380Y-104510761D01*
X168989380Y-104272666D01*
X169037000Y-104129809D01*
X169989380Y-103701238D02*
X168989380Y-103701238D01*
X168989380Y-103320285D01*
X169037000Y-103225047D01*
X169084619Y-103177428D01*
X169179857Y-103129809D01*
X169322714Y-103129809D01*
X169417952Y-103177428D01*
X169465571Y-103225047D01*
X169513190Y-103320285D01*
X169513190Y-103701238D01*
X168989380Y-102796476D02*
X168989380Y-102177428D01*
X169370333Y-102510761D01*
X169370333Y-102367904D01*
X169417952Y-102272666D01*
X169465571Y-102225047D01*
X169560809Y-102177428D01*
X169798904Y-102177428D01*
X169894142Y-102225047D01*
X169941761Y-102272666D01*
X169989380Y-102367904D01*
X169989380Y-102653619D01*
X169941761Y-102748857D01*
X169894142Y-102796476D01*
X169084619Y-101796476D02*
X169037000Y-101748857D01*
X168989380Y-101653619D01*
X168989380Y-101415523D01*
X169037000Y-101320285D01*
X169084619Y-101272666D01*
X169179857Y-101225047D01*
X169275095Y-101225047D01*
X169417952Y-101272666D01*
X169989380Y-101844095D01*
X169989380Y-101225047D01*
X169608428Y-100796476D02*
X169608428Y-100034571D01*
X168989380Y-99653619D02*
X169989380Y-99415523D01*
X169275095Y-99225047D01*
X169989380Y-99034571D01*
X168989380Y-98796476D01*
X169989380Y-97844095D02*
X169513190Y-98177428D01*
X169989380Y-98415523D02*
X168989380Y-98415523D01*
X168989380Y-98034571D01*
X169037000Y-97939333D01*
X169084619Y-97891714D01*
X169179857Y-97844095D01*
X169322714Y-97844095D01*
X169417952Y-97891714D01*
X169465571Y-97939333D01*
X169513190Y-98034571D01*
X169513190Y-98415523D01*
X168989380Y-97225047D02*
X168989380Y-97034571D01*
X169037000Y-96939333D01*
X169132238Y-96844095D01*
X169322714Y-96796476D01*
X169656047Y-96796476D01*
X169846523Y-96844095D01*
X169941761Y-96939333D01*
X169989380Y-97034571D01*
X169989380Y-97225047D01*
X169941761Y-97320285D01*
X169846523Y-97415523D01*
X169656047Y-97463142D01*
X169322714Y-97463142D01*
X169132238Y-97415523D01*
X169037000Y-97320285D01*
X168989380Y-97225047D01*
X168989380Y-96177428D02*
X168989380Y-95986952D01*
X169037000Y-95891714D01*
X169132238Y-95796476D01*
X169322714Y-95748857D01*
X169656047Y-95748857D01*
X169846523Y-95796476D01*
X169941761Y-95891714D01*
X169989380Y-95986952D01*
X169989380Y-96177428D01*
X169941761Y-96272666D01*
X169846523Y-96367904D01*
X169656047Y-96415523D01*
X169322714Y-96415523D01*
X169132238Y-96367904D01*
X169037000Y-96272666D01*
X168989380Y-96177428D01*
X169989380Y-95320285D02*
X168989380Y-95320285D01*
X169703666Y-94986952D01*
X168989380Y-94653619D01*
X169989380Y-94653619D01*
X157297619Y-124531380D02*
X156964285Y-124055190D01*
X156726190Y-124531380D02*
X156726190Y-123531380D01*
X157107142Y-123531380D01*
X157202380Y-123579000D01*
X157250000Y-123626619D01*
X157297619Y-123721857D01*
X157297619Y-123864714D01*
X157250000Y-123959952D01*
X157202380Y-124007571D01*
X157107142Y-124055190D01*
X156726190Y-124055190D01*
X157726190Y-124007571D02*
X158059523Y-124007571D01*
X158202380Y-124531380D02*
X157726190Y-124531380D01*
X157726190Y-123531380D01*
X158202380Y-123531380D01*
X158583333Y-124483761D02*
X158726190Y-124531380D01*
X158964285Y-124531380D01*
X159059523Y-124483761D01*
X159107142Y-124436142D01*
X159154761Y-124340904D01*
X159154761Y-124245666D01*
X159107142Y-124150428D01*
X159059523Y-124102809D01*
X158964285Y-124055190D01*
X158773809Y-124007571D01*
X158678571Y-123959952D01*
X158630952Y-123912333D01*
X158583333Y-123817095D01*
X158583333Y-123721857D01*
X158630952Y-123626619D01*
X158678571Y-123579000D01*
X158773809Y-123531380D01*
X159011904Y-123531380D01*
X159154761Y-123579000D01*
X159583333Y-124007571D02*
X159916666Y-124007571D01*
X160059523Y-124531380D02*
X159583333Y-124531380D01*
X159583333Y-123531380D01*
X160059523Y-123531380D01*
X160345238Y-123531380D02*
X160916666Y-123531380D01*
X160630952Y-124531380D02*
X160630952Y-123531380D01*
X167933857Y-124007571D02*
X168076714Y-124055190D01*
X168124333Y-124102809D01*
X168171952Y-124198047D01*
X168171952Y-124340904D01*
X168124333Y-124436142D01*
X168076714Y-124483761D01*
X167981476Y-124531380D01*
X167600523Y-124531380D01*
X167600523Y-123531380D01*
X167933857Y-123531380D01*
X168029095Y-123579000D01*
X168076714Y-123626619D01*
X168124333Y-123721857D01*
X168124333Y-123817095D01*
X168076714Y-123912333D01*
X168029095Y-123959952D01*
X167933857Y-124007571D01*
X167600523Y-124007571D01*
X168791000Y-123531380D02*
X168981476Y-123531380D01*
X169076714Y-123579000D01*
X169171952Y-123674238D01*
X169219571Y-123864714D01*
X169219571Y-124198047D01*
X169171952Y-124388523D01*
X169076714Y-124483761D01*
X168981476Y-124531380D01*
X168791000Y-124531380D01*
X168695761Y-124483761D01*
X168600523Y-124388523D01*
X168552904Y-124198047D01*
X168552904Y-123864714D01*
X168600523Y-123674238D01*
X168695761Y-123579000D01*
X168791000Y-123531380D01*
X169838619Y-123531380D02*
X170029095Y-123531380D01*
X170124333Y-123579000D01*
X170219571Y-123674238D01*
X170267190Y-123864714D01*
X170267190Y-124198047D01*
X170219571Y-124388523D01*
X170124333Y-124483761D01*
X170029095Y-124531380D01*
X169838619Y-124531380D01*
X169743380Y-124483761D01*
X169648142Y-124388523D01*
X169600523Y-124198047D01*
X169600523Y-123864714D01*
X169648142Y-123674238D01*
X169743380Y-123579000D01*
X169838619Y-123531380D01*
X170552904Y-123531380D02*
X171124333Y-123531380D01*
X170838619Y-124531380D02*
X170838619Y-123531380D01*
M02*
