G04 #@! TF.GenerationSoftware,KiCad,Pcbnew,(5.1.2)-1*
G04 #@! TF.CreationDate,2019-06-15T18:16:21+09:00*
G04 #@! TF.ProjectId,ESP32-breakout-THD,45535033-322d-4627-9265-616b6f75742d,rev?*
G04 #@! TF.SameCoordinates,Original*
G04 #@! TF.FileFunction,Paste,Top*
G04 #@! TF.FilePolarity,Positive*
%FSLAX46Y46*%
G04 Gerber Fmt 4.6, Leading zero omitted, Abs format (unit mm)*
G04 Created by KiCad (PCBNEW (5.1.2)-1) date 2019-06-15 18:16:21*
%MOMM*%
%LPD*%
G04 APERTURE LIST*
%ADD10C,0.100000*%
%ADD11C,1.250000*%
%ADD12O,2.500000X0.900000*%
%ADD13O,0.900000X2.500000*%
%ADD14R,6.000000X6.000000*%
%ADD15C,0.975000*%
G04 APERTURE END LIST*
D10*
G36*
X156225504Y-125872204D02*
G01*
X156249773Y-125875804D01*
X156273571Y-125881765D01*
X156296671Y-125890030D01*
X156318849Y-125900520D01*
X156339893Y-125913133D01*
X156359598Y-125927747D01*
X156377777Y-125944223D01*
X156394253Y-125962402D01*
X156408867Y-125982107D01*
X156421480Y-126003151D01*
X156431970Y-126025329D01*
X156440235Y-126048429D01*
X156446196Y-126072227D01*
X156449796Y-126096496D01*
X156451000Y-126121000D01*
X156451000Y-127371000D01*
X156449796Y-127395504D01*
X156446196Y-127419773D01*
X156440235Y-127443571D01*
X156431970Y-127466671D01*
X156421480Y-127488849D01*
X156408867Y-127509893D01*
X156394253Y-127529598D01*
X156377777Y-127547777D01*
X156359598Y-127564253D01*
X156339893Y-127578867D01*
X156318849Y-127591480D01*
X156296671Y-127601970D01*
X156273571Y-127610235D01*
X156249773Y-127616196D01*
X156225504Y-127619796D01*
X156201000Y-127621000D01*
X155451000Y-127621000D01*
X155426496Y-127619796D01*
X155402227Y-127616196D01*
X155378429Y-127610235D01*
X155355329Y-127601970D01*
X155333151Y-127591480D01*
X155312107Y-127578867D01*
X155292402Y-127564253D01*
X155274223Y-127547777D01*
X155257747Y-127529598D01*
X155243133Y-127509893D01*
X155230520Y-127488849D01*
X155220030Y-127466671D01*
X155211765Y-127443571D01*
X155205804Y-127419773D01*
X155202204Y-127395504D01*
X155201000Y-127371000D01*
X155201000Y-126121000D01*
X155202204Y-126096496D01*
X155205804Y-126072227D01*
X155211765Y-126048429D01*
X155220030Y-126025329D01*
X155230520Y-126003151D01*
X155243133Y-125982107D01*
X155257747Y-125962402D01*
X155274223Y-125944223D01*
X155292402Y-125927747D01*
X155312107Y-125913133D01*
X155333151Y-125900520D01*
X155355329Y-125890030D01*
X155378429Y-125881765D01*
X155402227Y-125875804D01*
X155426496Y-125872204D01*
X155451000Y-125871000D01*
X156201000Y-125871000D01*
X156225504Y-125872204D01*
X156225504Y-125872204D01*
G37*
D11*
X155826000Y-126746000D03*
D10*
G36*
X159025504Y-125872204D02*
G01*
X159049773Y-125875804D01*
X159073571Y-125881765D01*
X159096671Y-125890030D01*
X159118849Y-125900520D01*
X159139893Y-125913133D01*
X159159598Y-125927747D01*
X159177777Y-125944223D01*
X159194253Y-125962402D01*
X159208867Y-125982107D01*
X159221480Y-126003151D01*
X159231970Y-126025329D01*
X159240235Y-126048429D01*
X159246196Y-126072227D01*
X159249796Y-126096496D01*
X159251000Y-126121000D01*
X159251000Y-127371000D01*
X159249796Y-127395504D01*
X159246196Y-127419773D01*
X159240235Y-127443571D01*
X159231970Y-127466671D01*
X159221480Y-127488849D01*
X159208867Y-127509893D01*
X159194253Y-127529598D01*
X159177777Y-127547777D01*
X159159598Y-127564253D01*
X159139893Y-127578867D01*
X159118849Y-127591480D01*
X159096671Y-127601970D01*
X159073571Y-127610235D01*
X159049773Y-127616196D01*
X159025504Y-127619796D01*
X159001000Y-127621000D01*
X158251000Y-127621000D01*
X158226496Y-127619796D01*
X158202227Y-127616196D01*
X158178429Y-127610235D01*
X158155329Y-127601970D01*
X158133151Y-127591480D01*
X158112107Y-127578867D01*
X158092402Y-127564253D01*
X158074223Y-127547777D01*
X158057747Y-127529598D01*
X158043133Y-127509893D01*
X158030520Y-127488849D01*
X158020030Y-127466671D01*
X158011765Y-127443571D01*
X158005804Y-127419773D01*
X158002204Y-127395504D01*
X158001000Y-127371000D01*
X158001000Y-126121000D01*
X158002204Y-126096496D01*
X158005804Y-126072227D01*
X158011765Y-126048429D01*
X158020030Y-126025329D01*
X158030520Y-126003151D01*
X158043133Y-125982107D01*
X158057747Y-125962402D01*
X158074223Y-125944223D01*
X158092402Y-125927747D01*
X158112107Y-125913133D01*
X158133151Y-125900520D01*
X158155329Y-125890030D01*
X158178429Y-125881765D01*
X158202227Y-125875804D01*
X158226496Y-125872204D01*
X158251000Y-125871000D01*
X159001000Y-125871000D01*
X159025504Y-125872204D01*
X159025504Y-125872204D01*
G37*
D11*
X158626000Y-126746000D03*
D12*
X173330000Y-95110000D03*
X173330000Y-96380000D03*
X173330000Y-97650000D03*
X173330000Y-98920000D03*
X173330000Y-100190000D03*
X173330000Y-101460000D03*
X173330000Y-102730000D03*
X173330000Y-104000000D03*
X173330000Y-105270000D03*
X173330000Y-106540000D03*
X173330000Y-107810000D03*
X173330000Y-109080000D03*
X173330000Y-110350000D03*
X173330000Y-111620000D03*
D13*
X170045000Y-113110000D03*
X168775000Y-113110000D03*
X167505000Y-113110000D03*
X166235000Y-113110000D03*
X164965000Y-113110000D03*
X163695000Y-113110000D03*
X162425000Y-113110000D03*
X161155000Y-113110000D03*
X159885000Y-113110000D03*
X158615000Y-113110000D03*
D12*
X155330000Y-111620000D03*
X155330000Y-110350000D03*
X155330000Y-109080000D03*
X155330000Y-107810000D03*
X155330000Y-106540000D03*
X155330000Y-105270000D03*
X155330000Y-104000000D03*
X155330000Y-102730000D03*
X155330000Y-101460000D03*
X155330000Y-100190000D03*
X155330000Y-98920000D03*
X155330000Y-97650000D03*
X155330000Y-96380000D03*
X155330000Y-95110000D03*
D14*
X164030000Y-102810000D03*
D10*
G36*
X153134142Y-97636174D02*
G01*
X153157803Y-97639684D01*
X153181007Y-97645496D01*
X153203529Y-97653554D01*
X153225153Y-97663782D01*
X153245670Y-97676079D01*
X153264883Y-97690329D01*
X153282607Y-97706393D01*
X153298671Y-97724117D01*
X153312921Y-97743330D01*
X153325218Y-97763847D01*
X153335446Y-97785471D01*
X153343504Y-97807993D01*
X153349316Y-97831197D01*
X153352826Y-97854858D01*
X153354000Y-97878750D01*
X153354000Y-98366250D01*
X153352826Y-98390142D01*
X153349316Y-98413803D01*
X153343504Y-98437007D01*
X153335446Y-98459529D01*
X153325218Y-98481153D01*
X153312921Y-98501670D01*
X153298671Y-98520883D01*
X153282607Y-98538607D01*
X153264883Y-98554671D01*
X153245670Y-98568921D01*
X153225153Y-98581218D01*
X153203529Y-98591446D01*
X153181007Y-98599504D01*
X153157803Y-98605316D01*
X153134142Y-98608826D01*
X153110250Y-98610000D01*
X152197750Y-98610000D01*
X152173858Y-98608826D01*
X152150197Y-98605316D01*
X152126993Y-98599504D01*
X152104471Y-98591446D01*
X152082847Y-98581218D01*
X152062330Y-98568921D01*
X152043117Y-98554671D01*
X152025393Y-98538607D01*
X152009329Y-98520883D01*
X151995079Y-98501670D01*
X151982782Y-98481153D01*
X151972554Y-98459529D01*
X151964496Y-98437007D01*
X151958684Y-98413803D01*
X151955174Y-98390142D01*
X151954000Y-98366250D01*
X151954000Y-97878750D01*
X151955174Y-97854858D01*
X151958684Y-97831197D01*
X151964496Y-97807993D01*
X151972554Y-97785471D01*
X151982782Y-97763847D01*
X151995079Y-97743330D01*
X152009329Y-97724117D01*
X152025393Y-97706393D01*
X152043117Y-97690329D01*
X152062330Y-97676079D01*
X152082847Y-97663782D01*
X152104471Y-97653554D01*
X152126993Y-97645496D01*
X152150197Y-97639684D01*
X152173858Y-97636174D01*
X152197750Y-97635000D01*
X153110250Y-97635000D01*
X153134142Y-97636174D01*
X153134142Y-97636174D01*
G37*
D15*
X152654000Y-98122500D03*
D10*
G36*
X153134142Y-99511174D02*
G01*
X153157803Y-99514684D01*
X153181007Y-99520496D01*
X153203529Y-99528554D01*
X153225153Y-99538782D01*
X153245670Y-99551079D01*
X153264883Y-99565329D01*
X153282607Y-99581393D01*
X153298671Y-99599117D01*
X153312921Y-99618330D01*
X153325218Y-99638847D01*
X153335446Y-99660471D01*
X153343504Y-99682993D01*
X153349316Y-99706197D01*
X153352826Y-99729858D01*
X153354000Y-99753750D01*
X153354000Y-100241250D01*
X153352826Y-100265142D01*
X153349316Y-100288803D01*
X153343504Y-100312007D01*
X153335446Y-100334529D01*
X153325218Y-100356153D01*
X153312921Y-100376670D01*
X153298671Y-100395883D01*
X153282607Y-100413607D01*
X153264883Y-100429671D01*
X153245670Y-100443921D01*
X153225153Y-100456218D01*
X153203529Y-100466446D01*
X153181007Y-100474504D01*
X153157803Y-100480316D01*
X153134142Y-100483826D01*
X153110250Y-100485000D01*
X152197750Y-100485000D01*
X152173858Y-100483826D01*
X152150197Y-100480316D01*
X152126993Y-100474504D01*
X152104471Y-100466446D01*
X152082847Y-100456218D01*
X152062330Y-100443921D01*
X152043117Y-100429671D01*
X152025393Y-100413607D01*
X152009329Y-100395883D01*
X151995079Y-100376670D01*
X151982782Y-100356153D01*
X151972554Y-100334529D01*
X151964496Y-100312007D01*
X151958684Y-100288803D01*
X151955174Y-100265142D01*
X151954000Y-100241250D01*
X151954000Y-99753750D01*
X151955174Y-99729858D01*
X151958684Y-99706197D01*
X151964496Y-99682993D01*
X151972554Y-99660471D01*
X151982782Y-99638847D01*
X151995079Y-99618330D01*
X152009329Y-99599117D01*
X152025393Y-99581393D01*
X152043117Y-99565329D01*
X152062330Y-99551079D01*
X152082847Y-99538782D01*
X152104471Y-99528554D01*
X152126993Y-99520496D01*
X152150197Y-99514684D01*
X152173858Y-99511174D01*
X152197750Y-99510000D01*
X153110250Y-99510000D01*
X153134142Y-99511174D01*
X153134142Y-99511174D01*
G37*
D15*
X152654000Y-99997500D03*
D10*
G36*
X153134142Y-94001674D02*
G01*
X153157803Y-94005184D01*
X153181007Y-94010996D01*
X153203529Y-94019054D01*
X153225153Y-94029282D01*
X153245670Y-94041579D01*
X153264883Y-94055829D01*
X153282607Y-94071893D01*
X153298671Y-94089617D01*
X153312921Y-94108830D01*
X153325218Y-94129347D01*
X153335446Y-94150971D01*
X153343504Y-94173493D01*
X153349316Y-94196697D01*
X153352826Y-94220358D01*
X153354000Y-94244250D01*
X153354000Y-94731750D01*
X153352826Y-94755642D01*
X153349316Y-94779303D01*
X153343504Y-94802507D01*
X153335446Y-94825029D01*
X153325218Y-94846653D01*
X153312921Y-94867170D01*
X153298671Y-94886383D01*
X153282607Y-94904107D01*
X153264883Y-94920171D01*
X153245670Y-94934421D01*
X153225153Y-94946718D01*
X153203529Y-94956946D01*
X153181007Y-94965004D01*
X153157803Y-94970816D01*
X153134142Y-94974326D01*
X153110250Y-94975500D01*
X152197750Y-94975500D01*
X152173858Y-94974326D01*
X152150197Y-94970816D01*
X152126993Y-94965004D01*
X152104471Y-94956946D01*
X152082847Y-94946718D01*
X152062330Y-94934421D01*
X152043117Y-94920171D01*
X152025393Y-94904107D01*
X152009329Y-94886383D01*
X151995079Y-94867170D01*
X151982782Y-94846653D01*
X151972554Y-94825029D01*
X151964496Y-94802507D01*
X151958684Y-94779303D01*
X151955174Y-94755642D01*
X151954000Y-94731750D01*
X151954000Y-94244250D01*
X151955174Y-94220358D01*
X151958684Y-94196697D01*
X151964496Y-94173493D01*
X151972554Y-94150971D01*
X151982782Y-94129347D01*
X151995079Y-94108830D01*
X152009329Y-94089617D01*
X152025393Y-94071893D01*
X152043117Y-94055829D01*
X152062330Y-94041579D01*
X152082847Y-94029282D01*
X152104471Y-94019054D01*
X152126993Y-94010996D01*
X152150197Y-94005184D01*
X152173858Y-94001674D01*
X152197750Y-94000500D01*
X153110250Y-94000500D01*
X153134142Y-94001674D01*
X153134142Y-94001674D01*
G37*
D15*
X152654000Y-94488000D03*
D10*
G36*
X153134142Y-95876674D02*
G01*
X153157803Y-95880184D01*
X153181007Y-95885996D01*
X153203529Y-95894054D01*
X153225153Y-95904282D01*
X153245670Y-95916579D01*
X153264883Y-95930829D01*
X153282607Y-95946893D01*
X153298671Y-95964617D01*
X153312921Y-95983830D01*
X153325218Y-96004347D01*
X153335446Y-96025971D01*
X153343504Y-96048493D01*
X153349316Y-96071697D01*
X153352826Y-96095358D01*
X153354000Y-96119250D01*
X153354000Y-96606750D01*
X153352826Y-96630642D01*
X153349316Y-96654303D01*
X153343504Y-96677507D01*
X153335446Y-96700029D01*
X153325218Y-96721653D01*
X153312921Y-96742170D01*
X153298671Y-96761383D01*
X153282607Y-96779107D01*
X153264883Y-96795171D01*
X153245670Y-96809421D01*
X153225153Y-96821718D01*
X153203529Y-96831946D01*
X153181007Y-96840004D01*
X153157803Y-96845816D01*
X153134142Y-96849326D01*
X153110250Y-96850500D01*
X152197750Y-96850500D01*
X152173858Y-96849326D01*
X152150197Y-96845816D01*
X152126993Y-96840004D01*
X152104471Y-96831946D01*
X152082847Y-96821718D01*
X152062330Y-96809421D01*
X152043117Y-96795171D01*
X152025393Y-96779107D01*
X152009329Y-96761383D01*
X151995079Y-96742170D01*
X151982782Y-96721653D01*
X151972554Y-96700029D01*
X151964496Y-96677507D01*
X151958684Y-96654303D01*
X151955174Y-96630642D01*
X151954000Y-96606750D01*
X151954000Y-96119250D01*
X151955174Y-96095358D01*
X151958684Y-96071697D01*
X151964496Y-96048493D01*
X151972554Y-96025971D01*
X151982782Y-96004347D01*
X151995079Y-95983830D01*
X152009329Y-95964617D01*
X152025393Y-95946893D01*
X152043117Y-95930829D01*
X152062330Y-95916579D01*
X152082847Y-95904282D01*
X152104471Y-95894054D01*
X152126993Y-95885996D01*
X152150197Y-95880184D01*
X152173858Y-95876674D01*
X152197750Y-95875500D01*
X153110250Y-95875500D01*
X153134142Y-95876674D01*
X153134142Y-95876674D01*
G37*
D15*
X152654000Y-96363000D03*
D10*
G36*
X164564142Y-121082674D02*
G01*
X164587803Y-121086184D01*
X164611007Y-121091996D01*
X164633529Y-121100054D01*
X164655153Y-121110282D01*
X164675670Y-121122579D01*
X164694883Y-121136829D01*
X164712607Y-121152893D01*
X164728671Y-121170617D01*
X164742921Y-121189830D01*
X164755218Y-121210347D01*
X164765446Y-121231971D01*
X164773504Y-121254493D01*
X164779316Y-121277697D01*
X164782826Y-121301358D01*
X164784000Y-121325250D01*
X164784000Y-121812750D01*
X164782826Y-121836642D01*
X164779316Y-121860303D01*
X164773504Y-121883507D01*
X164765446Y-121906029D01*
X164755218Y-121927653D01*
X164742921Y-121948170D01*
X164728671Y-121967383D01*
X164712607Y-121985107D01*
X164694883Y-122001171D01*
X164675670Y-122015421D01*
X164655153Y-122027718D01*
X164633529Y-122037946D01*
X164611007Y-122046004D01*
X164587803Y-122051816D01*
X164564142Y-122055326D01*
X164540250Y-122056500D01*
X163627750Y-122056500D01*
X163603858Y-122055326D01*
X163580197Y-122051816D01*
X163556993Y-122046004D01*
X163534471Y-122037946D01*
X163512847Y-122027718D01*
X163492330Y-122015421D01*
X163473117Y-122001171D01*
X163455393Y-121985107D01*
X163439329Y-121967383D01*
X163425079Y-121948170D01*
X163412782Y-121927653D01*
X163402554Y-121906029D01*
X163394496Y-121883507D01*
X163388684Y-121860303D01*
X163385174Y-121836642D01*
X163384000Y-121812750D01*
X163384000Y-121325250D01*
X163385174Y-121301358D01*
X163388684Y-121277697D01*
X163394496Y-121254493D01*
X163402554Y-121231971D01*
X163412782Y-121210347D01*
X163425079Y-121189830D01*
X163439329Y-121170617D01*
X163455393Y-121152893D01*
X163473117Y-121136829D01*
X163492330Y-121122579D01*
X163512847Y-121110282D01*
X163534471Y-121100054D01*
X163556993Y-121091996D01*
X163580197Y-121086184D01*
X163603858Y-121082674D01*
X163627750Y-121081500D01*
X164540250Y-121081500D01*
X164564142Y-121082674D01*
X164564142Y-121082674D01*
G37*
D15*
X164084000Y-121569000D03*
D10*
G36*
X164564142Y-122957674D02*
G01*
X164587803Y-122961184D01*
X164611007Y-122966996D01*
X164633529Y-122975054D01*
X164655153Y-122985282D01*
X164675670Y-122997579D01*
X164694883Y-123011829D01*
X164712607Y-123027893D01*
X164728671Y-123045617D01*
X164742921Y-123064830D01*
X164755218Y-123085347D01*
X164765446Y-123106971D01*
X164773504Y-123129493D01*
X164779316Y-123152697D01*
X164782826Y-123176358D01*
X164784000Y-123200250D01*
X164784000Y-123687750D01*
X164782826Y-123711642D01*
X164779316Y-123735303D01*
X164773504Y-123758507D01*
X164765446Y-123781029D01*
X164755218Y-123802653D01*
X164742921Y-123823170D01*
X164728671Y-123842383D01*
X164712607Y-123860107D01*
X164694883Y-123876171D01*
X164675670Y-123890421D01*
X164655153Y-123902718D01*
X164633529Y-123912946D01*
X164611007Y-123921004D01*
X164587803Y-123926816D01*
X164564142Y-123930326D01*
X164540250Y-123931500D01*
X163627750Y-123931500D01*
X163603858Y-123930326D01*
X163580197Y-123926816D01*
X163556993Y-123921004D01*
X163534471Y-123912946D01*
X163512847Y-123902718D01*
X163492330Y-123890421D01*
X163473117Y-123876171D01*
X163455393Y-123860107D01*
X163439329Y-123842383D01*
X163425079Y-123823170D01*
X163412782Y-123802653D01*
X163402554Y-123781029D01*
X163394496Y-123758507D01*
X163388684Y-123735303D01*
X163385174Y-123711642D01*
X163384000Y-123687750D01*
X163384000Y-123200250D01*
X163385174Y-123176358D01*
X163388684Y-123152697D01*
X163394496Y-123129493D01*
X163402554Y-123106971D01*
X163412782Y-123085347D01*
X163425079Y-123064830D01*
X163439329Y-123045617D01*
X163455393Y-123027893D01*
X163473117Y-123011829D01*
X163492330Y-122997579D01*
X163512847Y-122985282D01*
X163534471Y-122975054D01*
X163556993Y-122966996D01*
X163580197Y-122961184D01*
X163603858Y-122957674D01*
X163627750Y-122956500D01*
X164540250Y-122956500D01*
X164564142Y-122957674D01*
X164564142Y-122957674D01*
G37*
D15*
X164084000Y-123444000D03*
D10*
G36*
X164564142Y-115083674D02*
G01*
X164587803Y-115087184D01*
X164611007Y-115092996D01*
X164633529Y-115101054D01*
X164655153Y-115111282D01*
X164675670Y-115123579D01*
X164694883Y-115137829D01*
X164712607Y-115153893D01*
X164728671Y-115171617D01*
X164742921Y-115190830D01*
X164755218Y-115211347D01*
X164765446Y-115232971D01*
X164773504Y-115255493D01*
X164779316Y-115278697D01*
X164782826Y-115302358D01*
X164784000Y-115326250D01*
X164784000Y-115813750D01*
X164782826Y-115837642D01*
X164779316Y-115861303D01*
X164773504Y-115884507D01*
X164765446Y-115907029D01*
X164755218Y-115928653D01*
X164742921Y-115949170D01*
X164728671Y-115968383D01*
X164712607Y-115986107D01*
X164694883Y-116002171D01*
X164675670Y-116016421D01*
X164655153Y-116028718D01*
X164633529Y-116038946D01*
X164611007Y-116047004D01*
X164587803Y-116052816D01*
X164564142Y-116056326D01*
X164540250Y-116057500D01*
X163627750Y-116057500D01*
X163603858Y-116056326D01*
X163580197Y-116052816D01*
X163556993Y-116047004D01*
X163534471Y-116038946D01*
X163512847Y-116028718D01*
X163492330Y-116016421D01*
X163473117Y-116002171D01*
X163455393Y-115986107D01*
X163439329Y-115968383D01*
X163425079Y-115949170D01*
X163412782Y-115928653D01*
X163402554Y-115907029D01*
X163394496Y-115884507D01*
X163388684Y-115861303D01*
X163385174Y-115837642D01*
X163384000Y-115813750D01*
X163384000Y-115326250D01*
X163385174Y-115302358D01*
X163388684Y-115278697D01*
X163394496Y-115255493D01*
X163402554Y-115232971D01*
X163412782Y-115211347D01*
X163425079Y-115190830D01*
X163439329Y-115171617D01*
X163455393Y-115153893D01*
X163473117Y-115137829D01*
X163492330Y-115123579D01*
X163512847Y-115111282D01*
X163534471Y-115101054D01*
X163556993Y-115092996D01*
X163580197Y-115087184D01*
X163603858Y-115083674D01*
X163627750Y-115082500D01*
X164540250Y-115082500D01*
X164564142Y-115083674D01*
X164564142Y-115083674D01*
G37*
D15*
X164084000Y-115570000D03*
D10*
G36*
X164564142Y-116958674D02*
G01*
X164587803Y-116962184D01*
X164611007Y-116967996D01*
X164633529Y-116976054D01*
X164655153Y-116986282D01*
X164675670Y-116998579D01*
X164694883Y-117012829D01*
X164712607Y-117028893D01*
X164728671Y-117046617D01*
X164742921Y-117065830D01*
X164755218Y-117086347D01*
X164765446Y-117107971D01*
X164773504Y-117130493D01*
X164779316Y-117153697D01*
X164782826Y-117177358D01*
X164784000Y-117201250D01*
X164784000Y-117688750D01*
X164782826Y-117712642D01*
X164779316Y-117736303D01*
X164773504Y-117759507D01*
X164765446Y-117782029D01*
X164755218Y-117803653D01*
X164742921Y-117824170D01*
X164728671Y-117843383D01*
X164712607Y-117861107D01*
X164694883Y-117877171D01*
X164675670Y-117891421D01*
X164655153Y-117903718D01*
X164633529Y-117913946D01*
X164611007Y-117922004D01*
X164587803Y-117927816D01*
X164564142Y-117931326D01*
X164540250Y-117932500D01*
X163627750Y-117932500D01*
X163603858Y-117931326D01*
X163580197Y-117927816D01*
X163556993Y-117922004D01*
X163534471Y-117913946D01*
X163512847Y-117903718D01*
X163492330Y-117891421D01*
X163473117Y-117877171D01*
X163455393Y-117861107D01*
X163439329Y-117843383D01*
X163425079Y-117824170D01*
X163412782Y-117803653D01*
X163402554Y-117782029D01*
X163394496Y-117759507D01*
X163388684Y-117736303D01*
X163385174Y-117712642D01*
X163384000Y-117688750D01*
X163384000Y-117201250D01*
X163385174Y-117177358D01*
X163388684Y-117153697D01*
X163394496Y-117130493D01*
X163402554Y-117107971D01*
X163412782Y-117086347D01*
X163425079Y-117065830D01*
X163439329Y-117046617D01*
X163455393Y-117028893D01*
X163473117Y-117012829D01*
X163492330Y-116998579D01*
X163512847Y-116986282D01*
X163534471Y-116976054D01*
X163556993Y-116967996D01*
X163580197Y-116962184D01*
X163603858Y-116958674D01*
X163627750Y-116957500D01*
X164540250Y-116957500D01*
X164564142Y-116958674D01*
X164564142Y-116958674D01*
G37*
D15*
X164084000Y-117445000D03*
M02*
