M48
; DRILL file {KiCad (5.1.2)-1} date 2019/06/15 18:16:25
; FORMAT={-:-/ absolute / inch / decimal}
; #@! TF.CreationDate,2019-06-15T18:16:25+09:00
; #@! TF.GenerationSoftware,Kicad,Pcbnew,(5.1.2)-1
; #@! TF.FileFunction,Plated,1,2,PTH
FMAT,2
INCH
T1C0.0157
T2C0.0256
T3C0.0374
T4C0.0394
T5C0.0433
T6C0.0827
%
G90
G05
T1
X5.81Y-3.74
X5.81Y-3.84
X5.81Y-3.94
X5.81Y-4.04
X5.81Y-4.14
X5.81Y-4.24
X5.81Y-4.34
X5.81Y-4.44
X5.81Y-4.54
X5.81Y-4.64
X5.81Y-4.74
X5.81Y-4.84
X5.81Y-4.94
X5.81Y-5.04
X5.81Y-5.14
X5.81Y-5.24
X5.81Y-5.345
X5.81Y-5.445
X5.81Y-5.535
X5.81Y-5.625
X5.91Y-5.625
X5.93Y-5.135
X5.93Y-5.245
X5.94Y-3.79
X5.94Y-3.9
X5.96Y-3.98
X5.97Y-3.94
X5.97Y-5.225
X6.0Y-3.98
X6.0Y-5.02
X6.01Y-5.625
X6.02Y-5.15
X6.025Y-4.89
X6.04Y-3.92
X6.05Y-4.98
X6.06Y-3.73
X6.08Y-4.76
X6.08Y-4.84
X6.08Y-4.93
X6.09Y-4.69
X6.1Y-4.49
X6.1Y-5.36
X6.11Y-5.625
X6.14Y-4.445
X6.14Y-5.075
X6.14Y-5.18
X6.14Y-5.24
X6.16Y-4.69
X6.19Y-3.75
X6.19Y-3.75
X6.19Y-3.85
X6.19Y-3.9
X6.19Y-3.95
X6.19Y-4.1
X6.19Y-4.15
X6.19Y-4.2
X6.21Y-5.625
X6.23Y-5.315
X6.25Y-4.93
X6.27Y-5.24
X6.29Y-3.75
X6.29Y-3.85
X6.29Y-4.04
X6.29Y-4.15
X6.31Y-5.625
X6.315Y-4.25
X6.315Y-4.35
X6.33Y-4.63
X6.35Y-4.93
X6.35Y-5.005
X6.37Y-3.96
X6.37Y-4.04
X6.37Y-4.13
X6.37Y-5.165
X6.375Y-5.245
X6.38Y-4.72
X6.38Y-5.315
X6.39Y-3.85
X6.39Y-4.25
X6.39Y-4.35
X6.4Y-3.75
X6.41Y-5.625
X6.46Y-3.96
X6.46Y-4.13
X6.46Y-4.2
X6.46Y-4.7
X6.47Y-5.18
X6.47Y-5.24
X6.48Y-5.315
X6.49Y-3.85
X6.49Y-4.25
X6.49Y-4.35
X6.5Y-3.75
X6.51Y-5.625
X6.53Y-4.72
X6.55Y-3.96
X6.55Y-4.04
X6.55Y-4.13
X6.56Y-4.93
X6.56Y-5.02
X6.56Y-5.02
X6.56Y-5.1
X6.56Y-5.18
X6.57Y-5.265
X6.58Y-4.68
X6.59Y-3.75
X6.59Y-3.85
X6.59Y-4.25
X6.59Y-4.35
X6.63Y-5.625
X6.64Y-4.93
X6.64Y-5.02
X6.64Y-5.1
X6.64Y-5.18
X6.65Y-3.96
X6.65Y-4.04
X6.65Y-4.13
X6.65Y-4.195
X6.65Y-5.265
X6.665Y-4.25
X6.665Y-4.35
X6.67Y-4.6
X6.69Y-3.75
X6.7Y-4.73
X6.71Y-5.18
X6.71Y-5.265
X6.72Y-4.93
X6.72Y-5.02
X6.72Y-5.1
X6.73Y-5.315
X6.73Y-5.625
X6.74Y-3.89
X6.74Y-3.94
X6.74Y-3.99
X6.74Y-4.04
X6.74Y-4.09
X6.74Y-4.14
X6.74Y-4.19
X6.74Y-4.27
X6.74Y-4.35
X6.77Y-4.465
X6.78Y-3.75
X6.8Y-4.65
X6.8Y-4.93
X6.8Y-5.02
X6.8Y-5.1
X6.81Y-5.18
X6.81Y-5.245
X6.81Y-5.315
X6.83Y-5.625
X6.86Y-4.49
X6.87Y-4.56
X6.87Y-4.65
X6.87Y-4.78
X6.88Y-3.75
X6.91Y-4.03
X6.915Y-5.215
X6.93Y-4.86
X6.93Y-5.625
X6.94Y-4.93
X6.94Y-5.02
X6.94Y-5.12
X6.95Y-4.075
X6.95Y-5.315
X6.98Y-3.75
X7.03Y-5.625
X7.13Y-3.74
X7.13Y-3.84
X7.13Y-3.94
X7.13Y-4.04
X7.13Y-4.14
X7.13Y-4.24
X7.13Y-4.34
X7.13Y-4.44
X7.13Y-4.54
X7.13Y-4.64
X7.13Y-4.74
X7.13Y-4.84
X7.13Y-4.94
X7.13Y-5.04
X7.13Y-5.14
X7.13Y-5.24
X7.13Y-5.345
X7.13Y-5.445
X7.13Y-5.535
X7.13Y-5.625
T2
X6.22Y-5.075
X6.42Y-5.075
X6.32Y-5.075
T3
X6.2247Y-5.385
X6.3231Y-5.385
X6.4216Y-5.385
X6.52Y-5.385
X6.7647Y-5.385
X6.8631Y-5.385
X6.9616Y-5.385
X7.06Y-5.385
T4
X5.89Y-3.75
X5.89Y-3.85
X5.89Y-3.95
X5.89Y-4.05
X5.89Y-4.15
X5.89Y-4.25
X5.89Y-4.35
X5.89Y-4.45
X5.89Y-4.55
X5.89Y-4.65
X5.89Y-4.75
X5.89Y-4.85
X5.89Y-4.95
X5.89Y-5.05
X7.04Y-3.75
X7.04Y-3.85
X7.04Y-3.95
X7.04Y-4.05
X7.04Y-4.15
X7.04Y-4.25
X7.04Y-4.35
X7.04Y-4.45
X7.04Y-4.55
X7.04Y-4.65
X7.04Y-4.75
X7.04Y-4.85
X7.04Y-4.95
X7.04Y-5.05
X5.8816Y-5.385
X5.98Y-5.385
T5
X6.58Y-4.5541
X6.58Y-4.81
X6.7572Y-4.5541
X6.7572Y-4.81
X6.16Y-4.5541
X6.16Y-4.81
X6.3372Y-4.5541
X6.3372Y-4.81
T6
X6.46Y-4.045
X6.46Y-4.965
T0
M30
