G04 #@! TF.GenerationSoftware,KiCad,Pcbnew,(5.1.2)-1*
G04 #@! TF.CreationDate,2019-07-28T16:53:52+09:00*
G04 #@! TF.ProjectId,ESP32-breakout-SMD,45535033-322d-4627-9265-616b6f75742d,rev?*
G04 #@! TF.SameCoordinates,Original*
G04 #@! TF.FileFunction,Soldermask,Bot*
G04 #@! TF.FilePolarity,Negative*
%FSLAX46Y46*%
G04 Gerber Fmt 4.6, Leading zero omitted, Abs format (unit mm)*
G04 Created by KiCad (PCBNEW (5.1.2)-1) date 2019-07-28 16:53:52*
%MOMM*%
%LPD*%
G04 APERTURE LIST*
%ADD10C,1.016000*%
%ADD11C,1.600000*%
%ADD12C,0.100000*%
G04 APERTURE END LIST*
D10*
X165169123Y-122555000D02*
G75*
G03X165169123Y-122555000I-1135923J0D01*
G01*
D11*
X165161631Y-102743000D02*
G75*
G03X165161631Y-102743000I-1077631J0D01*
G01*
D12*
G36*
X178926442Y-127375518D02*
G01*
X178992627Y-127382037D01*
X179162466Y-127433557D01*
X179318991Y-127517222D01*
X179354729Y-127546552D01*
X179456186Y-127629814D01*
X179539448Y-127731271D01*
X179568778Y-127767009D01*
X179652443Y-127923534D01*
X179703963Y-128093373D01*
X179721359Y-128270000D01*
X179703963Y-128446627D01*
X179652443Y-128616466D01*
X179568778Y-128772991D01*
X179539448Y-128808729D01*
X179456186Y-128910186D01*
X179354729Y-128993448D01*
X179318991Y-129022778D01*
X179162466Y-129106443D01*
X178992627Y-129157963D01*
X178926442Y-129164482D01*
X178860260Y-129171000D01*
X178771740Y-129171000D01*
X178705558Y-129164482D01*
X178639373Y-129157963D01*
X178469534Y-129106443D01*
X178313009Y-129022778D01*
X178277271Y-128993448D01*
X178175814Y-128910186D01*
X178092552Y-128808729D01*
X178063222Y-128772991D01*
X177979557Y-128616466D01*
X177928037Y-128446627D01*
X177910641Y-128270000D01*
X177928037Y-128093373D01*
X177979557Y-127923534D01*
X178063222Y-127767009D01*
X178092552Y-127731271D01*
X178175814Y-127629814D01*
X178277271Y-127546552D01*
X178313009Y-127517222D01*
X178469534Y-127433557D01*
X178639373Y-127382037D01*
X178705558Y-127375518D01*
X178771740Y-127369000D01*
X178860260Y-127369000D01*
X178926442Y-127375518D01*
X178926442Y-127375518D01*
G37*
G36*
X149716442Y-127375518D02*
G01*
X149782627Y-127382037D01*
X149952466Y-127433557D01*
X150108991Y-127517222D01*
X150144729Y-127546552D01*
X150246186Y-127629814D01*
X150329448Y-127731271D01*
X150358778Y-127767009D01*
X150442443Y-127923534D01*
X150493963Y-128093373D01*
X150511359Y-128270000D01*
X150493963Y-128446627D01*
X150442443Y-128616466D01*
X150358778Y-128772991D01*
X150329448Y-128808729D01*
X150246186Y-128910186D01*
X150144729Y-128993448D01*
X150108991Y-129022778D01*
X149952466Y-129106443D01*
X149782627Y-129157963D01*
X149716442Y-129164482D01*
X149650260Y-129171000D01*
X149561740Y-129171000D01*
X149495558Y-129164482D01*
X149429373Y-129157963D01*
X149259534Y-129106443D01*
X149103009Y-129022778D01*
X149067271Y-128993448D01*
X148965814Y-128910186D01*
X148882552Y-128808729D01*
X148853222Y-128772991D01*
X148769557Y-128616466D01*
X148718037Y-128446627D01*
X148700641Y-128270000D01*
X148718037Y-128093373D01*
X148769557Y-127923534D01*
X148853222Y-127767009D01*
X148882552Y-127731271D01*
X148965814Y-127629814D01*
X149067271Y-127546552D01*
X149103009Y-127517222D01*
X149259534Y-127433557D01*
X149429373Y-127382037D01*
X149495558Y-127375518D01*
X149561740Y-127369000D01*
X149650260Y-127369000D01*
X149716442Y-127375518D01*
X149716442Y-127375518D01*
G37*
G36*
X167118600Y-129171000D02*
G01*
X165316600Y-129171000D01*
X165316600Y-127369000D01*
X167118600Y-127369000D01*
X167118600Y-129171000D01*
X167118600Y-129171000D01*
G37*
G36*
X161479800Y-129145600D02*
G01*
X159677800Y-129145600D01*
X159677800Y-127343600D01*
X161479800Y-127343600D01*
X161479800Y-129145600D01*
X161479800Y-129145600D01*
G37*
G36*
X164324600Y-129145600D02*
G01*
X162522600Y-129145600D01*
X162522600Y-127343600D01*
X164324600Y-127343600D01*
X164324600Y-129145600D01*
X164324600Y-129145600D01*
G37*
G36*
X178926443Y-124835519D02*
G01*
X178992627Y-124842037D01*
X179162466Y-124893557D01*
X179318991Y-124977222D01*
X179354729Y-125006552D01*
X179456186Y-125089814D01*
X179539448Y-125191271D01*
X179568778Y-125227009D01*
X179652443Y-125383534D01*
X179703963Y-125553373D01*
X179721359Y-125730000D01*
X179703963Y-125906627D01*
X179652443Y-126076466D01*
X179568778Y-126232991D01*
X179539448Y-126268729D01*
X179456186Y-126370186D01*
X179354729Y-126453448D01*
X179318991Y-126482778D01*
X179162466Y-126566443D01*
X178992627Y-126617963D01*
X178926442Y-126624482D01*
X178860260Y-126631000D01*
X178771740Y-126631000D01*
X178705558Y-126624482D01*
X178639373Y-126617963D01*
X178469534Y-126566443D01*
X178313009Y-126482778D01*
X178277271Y-126453448D01*
X178175814Y-126370186D01*
X178092552Y-126268729D01*
X178063222Y-126232991D01*
X177979557Y-126076466D01*
X177928037Y-125906627D01*
X177910641Y-125730000D01*
X177928037Y-125553373D01*
X177979557Y-125383534D01*
X178063222Y-125227009D01*
X178092552Y-125191271D01*
X178175814Y-125089814D01*
X178277271Y-125006552D01*
X178313009Y-124977222D01*
X178469534Y-124893557D01*
X178639373Y-124842037D01*
X178705557Y-124835519D01*
X178771740Y-124829000D01*
X178860260Y-124829000D01*
X178926443Y-124835519D01*
X178926443Y-124835519D01*
G37*
G36*
X149716443Y-124835519D02*
G01*
X149782627Y-124842037D01*
X149952466Y-124893557D01*
X150108991Y-124977222D01*
X150144729Y-125006552D01*
X150246186Y-125089814D01*
X150329448Y-125191271D01*
X150358778Y-125227009D01*
X150442443Y-125383534D01*
X150493963Y-125553373D01*
X150511359Y-125730000D01*
X150493963Y-125906627D01*
X150442443Y-126076466D01*
X150358778Y-126232991D01*
X150329448Y-126268729D01*
X150246186Y-126370186D01*
X150144729Y-126453448D01*
X150108991Y-126482778D01*
X149952466Y-126566443D01*
X149782627Y-126617963D01*
X149716442Y-126624482D01*
X149650260Y-126631000D01*
X149561740Y-126631000D01*
X149495558Y-126624482D01*
X149429373Y-126617963D01*
X149259534Y-126566443D01*
X149103009Y-126482778D01*
X149067271Y-126453448D01*
X148965814Y-126370186D01*
X148882552Y-126268729D01*
X148853222Y-126232991D01*
X148769557Y-126076466D01*
X148718037Y-125906627D01*
X148700641Y-125730000D01*
X148718037Y-125553373D01*
X148769557Y-125383534D01*
X148853222Y-125227009D01*
X148882552Y-125191271D01*
X148965814Y-125089814D01*
X149067271Y-125006552D01*
X149103009Y-124977222D01*
X149259534Y-124893557D01*
X149429373Y-124842037D01*
X149495557Y-124835519D01*
X149561740Y-124829000D01*
X149650260Y-124829000D01*
X149716443Y-124835519D01*
X149716443Y-124835519D01*
G37*
G36*
X178926443Y-122295519D02*
G01*
X178992627Y-122302037D01*
X179162466Y-122353557D01*
X179318991Y-122437222D01*
X179354729Y-122466552D01*
X179456186Y-122549814D01*
X179539448Y-122651271D01*
X179568778Y-122687009D01*
X179652443Y-122843534D01*
X179703963Y-123013373D01*
X179721359Y-123190000D01*
X179703963Y-123366627D01*
X179652443Y-123536466D01*
X179568778Y-123692991D01*
X179539448Y-123728729D01*
X179456186Y-123830186D01*
X179354729Y-123913448D01*
X179318991Y-123942778D01*
X179162466Y-124026443D01*
X178992627Y-124077963D01*
X178926442Y-124084482D01*
X178860260Y-124091000D01*
X178771740Y-124091000D01*
X178705558Y-124084482D01*
X178639373Y-124077963D01*
X178469534Y-124026443D01*
X178313009Y-123942778D01*
X178277271Y-123913448D01*
X178175814Y-123830186D01*
X178092552Y-123728729D01*
X178063222Y-123692991D01*
X177979557Y-123536466D01*
X177928037Y-123366627D01*
X177910641Y-123190000D01*
X177928037Y-123013373D01*
X177979557Y-122843534D01*
X178063222Y-122687009D01*
X178092552Y-122651271D01*
X178175814Y-122549814D01*
X178277271Y-122466552D01*
X178313009Y-122437222D01*
X178469534Y-122353557D01*
X178639373Y-122302037D01*
X178705557Y-122295519D01*
X178771740Y-122289000D01*
X178860260Y-122289000D01*
X178926443Y-122295519D01*
X178926443Y-122295519D01*
G37*
G36*
X149716443Y-122295519D02*
G01*
X149782627Y-122302037D01*
X149952466Y-122353557D01*
X150108991Y-122437222D01*
X150144729Y-122466552D01*
X150246186Y-122549814D01*
X150329448Y-122651271D01*
X150358778Y-122687009D01*
X150442443Y-122843534D01*
X150493963Y-123013373D01*
X150511359Y-123190000D01*
X150493963Y-123366627D01*
X150442443Y-123536466D01*
X150358778Y-123692991D01*
X150329448Y-123728729D01*
X150246186Y-123830186D01*
X150144729Y-123913448D01*
X150108991Y-123942778D01*
X149952466Y-124026443D01*
X149782627Y-124077963D01*
X149716442Y-124084482D01*
X149650260Y-124091000D01*
X149561740Y-124091000D01*
X149495558Y-124084482D01*
X149429373Y-124077963D01*
X149259534Y-124026443D01*
X149103009Y-123942778D01*
X149067271Y-123913448D01*
X148965814Y-123830186D01*
X148882552Y-123728729D01*
X148853222Y-123692991D01*
X148769557Y-123536466D01*
X148718037Y-123366627D01*
X148700641Y-123190000D01*
X148718037Y-123013373D01*
X148769557Y-122843534D01*
X148853222Y-122687009D01*
X148882552Y-122651271D01*
X148965814Y-122549814D01*
X149067271Y-122466552D01*
X149103009Y-122437222D01*
X149259534Y-122353557D01*
X149429373Y-122302037D01*
X149495557Y-122295519D01*
X149561740Y-122289000D01*
X149650260Y-122289000D01*
X149716443Y-122295519D01*
X149716443Y-122295519D01*
G37*
G36*
X178926442Y-119755518D02*
G01*
X178992627Y-119762037D01*
X179162466Y-119813557D01*
X179318991Y-119897222D01*
X179354729Y-119926552D01*
X179456186Y-120009814D01*
X179539448Y-120111271D01*
X179568778Y-120147009D01*
X179652443Y-120303534D01*
X179703963Y-120473373D01*
X179721359Y-120650000D01*
X179703963Y-120826627D01*
X179652443Y-120996466D01*
X179568778Y-121152991D01*
X179539448Y-121188729D01*
X179456186Y-121290186D01*
X179354729Y-121373448D01*
X179318991Y-121402778D01*
X179162466Y-121486443D01*
X178992627Y-121537963D01*
X178926443Y-121544481D01*
X178860260Y-121551000D01*
X178771740Y-121551000D01*
X178705557Y-121544481D01*
X178639373Y-121537963D01*
X178469534Y-121486443D01*
X178313009Y-121402778D01*
X178277271Y-121373448D01*
X178175814Y-121290186D01*
X178092552Y-121188729D01*
X178063222Y-121152991D01*
X177979557Y-120996466D01*
X177928037Y-120826627D01*
X177910641Y-120650000D01*
X177928037Y-120473373D01*
X177979557Y-120303534D01*
X178063222Y-120147009D01*
X178092552Y-120111271D01*
X178175814Y-120009814D01*
X178277271Y-119926552D01*
X178313009Y-119897222D01*
X178469534Y-119813557D01*
X178639373Y-119762037D01*
X178705558Y-119755518D01*
X178771740Y-119749000D01*
X178860260Y-119749000D01*
X178926442Y-119755518D01*
X178926442Y-119755518D01*
G37*
G36*
X149716442Y-119755518D02*
G01*
X149782627Y-119762037D01*
X149952466Y-119813557D01*
X150108991Y-119897222D01*
X150144729Y-119926552D01*
X150246186Y-120009814D01*
X150329448Y-120111271D01*
X150358778Y-120147009D01*
X150442443Y-120303534D01*
X150493963Y-120473373D01*
X150511359Y-120650000D01*
X150493963Y-120826627D01*
X150442443Y-120996466D01*
X150358778Y-121152991D01*
X150329448Y-121188729D01*
X150246186Y-121290186D01*
X150144729Y-121373448D01*
X150108991Y-121402778D01*
X149952466Y-121486443D01*
X149782627Y-121537963D01*
X149716443Y-121544481D01*
X149650260Y-121551000D01*
X149561740Y-121551000D01*
X149495557Y-121544481D01*
X149429373Y-121537963D01*
X149259534Y-121486443D01*
X149103009Y-121402778D01*
X149067271Y-121373448D01*
X148965814Y-121290186D01*
X148882552Y-121188729D01*
X148853222Y-121152991D01*
X148769557Y-120996466D01*
X148718037Y-120826627D01*
X148700641Y-120650000D01*
X148718037Y-120473373D01*
X148769557Y-120303534D01*
X148853222Y-120147009D01*
X148882552Y-120111271D01*
X148965814Y-120009814D01*
X149067271Y-119926552D01*
X149103009Y-119897222D01*
X149259534Y-119813557D01*
X149429373Y-119762037D01*
X149495558Y-119755518D01*
X149561740Y-119749000D01*
X149650260Y-119749000D01*
X149716442Y-119755518D01*
X149716442Y-119755518D01*
G37*
G36*
X178926443Y-117215519D02*
G01*
X178992627Y-117222037D01*
X179162466Y-117273557D01*
X179318991Y-117357222D01*
X179354729Y-117386552D01*
X179456186Y-117469814D01*
X179539448Y-117571271D01*
X179568778Y-117607009D01*
X179652443Y-117763534D01*
X179703963Y-117933373D01*
X179721359Y-118110000D01*
X179703963Y-118286627D01*
X179652443Y-118456466D01*
X179568778Y-118612991D01*
X179539448Y-118648729D01*
X179456186Y-118750186D01*
X179354729Y-118833448D01*
X179318991Y-118862778D01*
X179162466Y-118946443D01*
X178992627Y-118997963D01*
X178926443Y-119004481D01*
X178860260Y-119011000D01*
X178771740Y-119011000D01*
X178705557Y-119004481D01*
X178639373Y-118997963D01*
X178469534Y-118946443D01*
X178313009Y-118862778D01*
X178277271Y-118833448D01*
X178175814Y-118750186D01*
X178092552Y-118648729D01*
X178063222Y-118612991D01*
X177979557Y-118456466D01*
X177928037Y-118286627D01*
X177910641Y-118110000D01*
X177928037Y-117933373D01*
X177979557Y-117763534D01*
X178063222Y-117607009D01*
X178092552Y-117571271D01*
X178175814Y-117469814D01*
X178277271Y-117386552D01*
X178313009Y-117357222D01*
X178469534Y-117273557D01*
X178639373Y-117222037D01*
X178705557Y-117215519D01*
X178771740Y-117209000D01*
X178860260Y-117209000D01*
X178926443Y-117215519D01*
X178926443Y-117215519D01*
G37*
G36*
X149716443Y-117215519D02*
G01*
X149782627Y-117222037D01*
X149952466Y-117273557D01*
X150108991Y-117357222D01*
X150144729Y-117386552D01*
X150246186Y-117469814D01*
X150329448Y-117571271D01*
X150358778Y-117607009D01*
X150442443Y-117763534D01*
X150493963Y-117933373D01*
X150511359Y-118110000D01*
X150493963Y-118286627D01*
X150442443Y-118456466D01*
X150358778Y-118612991D01*
X150329448Y-118648729D01*
X150246186Y-118750186D01*
X150144729Y-118833448D01*
X150108991Y-118862778D01*
X149952466Y-118946443D01*
X149782627Y-118997963D01*
X149716443Y-119004481D01*
X149650260Y-119011000D01*
X149561740Y-119011000D01*
X149495557Y-119004481D01*
X149429373Y-118997963D01*
X149259534Y-118946443D01*
X149103009Y-118862778D01*
X149067271Y-118833448D01*
X148965814Y-118750186D01*
X148882552Y-118648729D01*
X148853222Y-118612991D01*
X148769557Y-118456466D01*
X148718037Y-118286627D01*
X148700641Y-118110000D01*
X148718037Y-117933373D01*
X148769557Y-117763534D01*
X148853222Y-117607009D01*
X148882552Y-117571271D01*
X148965814Y-117469814D01*
X149067271Y-117386552D01*
X149103009Y-117357222D01*
X149259534Y-117273557D01*
X149429373Y-117222037D01*
X149495557Y-117215519D01*
X149561740Y-117209000D01*
X149650260Y-117209000D01*
X149716443Y-117215519D01*
X149716443Y-117215519D01*
G37*
G36*
X149716443Y-114675519D02*
G01*
X149782627Y-114682037D01*
X149952466Y-114733557D01*
X150108991Y-114817222D01*
X150144729Y-114846552D01*
X150246186Y-114929814D01*
X150329448Y-115031271D01*
X150358778Y-115067009D01*
X150442443Y-115223534D01*
X150493963Y-115393373D01*
X150511359Y-115570000D01*
X150493963Y-115746627D01*
X150442443Y-115916466D01*
X150358778Y-116072991D01*
X150329448Y-116108729D01*
X150246186Y-116210186D01*
X150144729Y-116293448D01*
X150108991Y-116322778D01*
X149952466Y-116406443D01*
X149782627Y-116457963D01*
X149716442Y-116464482D01*
X149650260Y-116471000D01*
X149561740Y-116471000D01*
X149495558Y-116464482D01*
X149429373Y-116457963D01*
X149259534Y-116406443D01*
X149103009Y-116322778D01*
X149067271Y-116293448D01*
X148965814Y-116210186D01*
X148882552Y-116108729D01*
X148853222Y-116072991D01*
X148769557Y-115916466D01*
X148718037Y-115746627D01*
X148700641Y-115570000D01*
X148718037Y-115393373D01*
X148769557Y-115223534D01*
X148853222Y-115067009D01*
X148882552Y-115031271D01*
X148965814Y-114929814D01*
X149067271Y-114846552D01*
X149103009Y-114817222D01*
X149259534Y-114733557D01*
X149429373Y-114682037D01*
X149495557Y-114675519D01*
X149561740Y-114669000D01*
X149650260Y-114669000D01*
X149716443Y-114675519D01*
X149716443Y-114675519D01*
G37*
G36*
X178926443Y-114675519D02*
G01*
X178992627Y-114682037D01*
X179162466Y-114733557D01*
X179318991Y-114817222D01*
X179354729Y-114846552D01*
X179456186Y-114929814D01*
X179539448Y-115031271D01*
X179568778Y-115067009D01*
X179652443Y-115223534D01*
X179703963Y-115393373D01*
X179721359Y-115570000D01*
X179703963Y-115746627D01*
X179652443Y-115916466D01*
X179568778Y-116072991D01*
X179539448Y-116108729D01*
X179456186Y-116210186D01*
X179354729Y-116293448D01*
X179318991Y-116322778D01*
X179162466Y-116406443D01*
X178992627Y-116457963D01*
X178926442Y-116464482D01*
X178860260Y-116471000D01*
X178771740Y-116471000D01*
X178705558Y-116464482D01*
X178639373Y-116457963D01*
X178469534Y-116406443D01*
X178313009Y-116322778D01*
X178277271Y-116293448D01*
X178175814Y-116210186D01*
X178092552Y-116108729D01*
X178063222Y-116072991D01*
X177979557Y-115916466D01*
X177928037Y-115746627D01*
X177910641Y-115570000D01*
X177928037Y-115393373D01*
X177979557Y-115223534D01*
X178063222Y-115067009D01*
X178092552Y-115031271D01*
X178175814Y-114929814D01*
X178277271Y-114846552D01*
X178313009Y-114817222D01*
X178469534Y-114733557D01*
X178639373Y-114682037D01*
X178705557Y-114675519D01*
X178771740Y-114669000D01*
X178860260Y-114669000D01*
X178926443Y-114675519D01*
X178926443Y-114675519D01*
G37*
G36*
X149716443Y-112135519D02*
G01*
X149782627Y-112142037D01*
X149952466Y-112193557D01*
X150108991Y-112277222D01*
X150144729Y-112306552D01*
X150246186Y-112389814D01*
X150329448Y-112491271D01*
X150358778Y-112527009D01*
X150442443Y-112683534D01*
X150493963Y-112853373D01*
X150511359Y-113030000D01*
X150493963Y-113206627D01*
X150442443Y-113376466D01*
X150358778Y-113532991D01*
X150329448Y-113568729D01*
X150246186Y-113670186D01*
X150144729Y-113753448D01*
X150108991Y-113782778D01*
X149952466Y-113866443D01*
X149782627Y-113917963D01*
X149716443Y-113924481D01*
X149650260Y-113931000D01*
X149561740Y-113931000D01*
X149495557Y-113924481D01*
X149429373Y-113917963D01*
X149259534Y-113866443D01*
X149103009Y-113782778D01*
X149067271Y-113753448D01*
X148965814Y-113670186D01*
X148882552Y-113568729D01*
X148853222Y-113532991D01*
X148769557Y-113376466D01*
X148718037Y-113206627D01*
X148700641Y-113030000D01*
X148718037Y-112853373D01*
X148769557Y-112683534D01*
X148853222Y-112527009D01*
X148882552Y-112491271D01*
X148965814Y-112389814D01*
X149067271Y-112306552D01*
X149103009Y-112277222D01*
X149259534Y-112193557D01*
X149429373Y-112142037D01*
X149495557Y-112135519D01*
X149561740Y-112129000D01*
X149650260Y-112129000D01*
X149716443Y-112135519D01*
X149716443Y-112135519D01*
G37*
G36*
X178926443Y-112135519D02*
G01*
X178992627Y-112142037D01*
X179162466Y-112193557D01*
X179318991Y-112277222D01*
X179354729Y-112306552D01*
X179456186Y-112389814D01*
X179539448Y-112491271D01*
X179568778Y-112527009D01*
X179652443Y-112683534D01*
X179703963Y-112853373D01*
X179721359Y-113030000D01*
X179703963Y-113206627D01*
X179652443Y-113376466D01*
X179568778Y-113532991D01*
X179539448Y-113568729D01*
X179456186Y-113670186D01*
X179354729Y-113753448D01*
X179318991Y-113782778D01*
X179162466Y-113866443D01*
X178992627Y-113917963D01*
X178926443Y-113924481D01*
X178860260Y-113931000D01*
X178771740Y-113931000D01*
X178705557Y-113924481D01*
X178639373Y-113917963D01*
X178469534Y-113866443D01*
X178313009Y-113782778D01*
X178277271Y-113753448D01*
X178175814Y-113670186D01*
X178092552Y-113568729D01*
X178063222Y-113532991D01*
X177979557Y-113376466D01*
X177928037Y-113206627D01*
X177910641Y-113030000D01*
X177928037Y-112853373D01*
X177979557Y-112683534D01*
X178063222Y-112527009D01*
X178092552Y-112491271D01*
X178175814Y-112389814D01*
X178277271Y-112306552D01*
X178313009Y-112277222D01*
X178469534Y-112193557D01*
X178639373Y-112142037D01*
X178705557Y-112135519D01*
X178771740Y-112129000D01*
X178860260Y-112129000D01*
X178926443Y-112135519D01*
X178926443Y-112135519D01*
G37*
G36*
X178926442Y-109595518D02*
G01*
X178992627Y-109602037D01*
X179162466Y-109653557D01*
X179318991Y-109737222D01*
X179354729Y-109766552D01*
X179456186Y-109849814D01*
X179539448Y-109951271D01*
X179568778Y-109987009D01*
X179652443Y-110143534D01*
X179703963Y-110313373D01*
X179721359Y-110490000D01*
X179703963Y-110666627D01*
X179652443Y-110836466D01*
X179568778Y-110992991D01*
X179539448Y-111028729D01*
X179456186Y-111130186D01*
X179354729Y-111213448D01*
X179318991Y-111242778D01*
X179162466Y-111326443D01*
X178992627Y-111377963D01*
X178926443Y-111384481D01*
X178860260Y-111391000D01*
X178771740Y-111391000D01*
X178705557Y-111384481D01*
X178639373Y-111377963D01*
X178469534Y-111326443D01*
X178313009Y-111242778D01*
X178277271Y-111213448D01*
X178175814Y-111130186D01*
X178092552Y-111028729D01*
X178063222Y-110992991D01*
X177979557Y-110836466D01*
X177928037Y-110666627D01*
X177910641Y-110490000D01*
X177928037Y-110313373D01*
X177979557Y-110143534D01*
X178063222Y-109987009D01*
X178092552Y-109951271D01*
X178175814Y-109849814D01*
X178277271Y-109766552D01*
X178313009Y-109737222D01*
X178469534Y-109653557D01*
X178639373Y-109602037D01*
X178705558Y-109595518D01*
X178771740Y-109589000D01*
X178860260Y-109589000D01*
X178926442Y-109595518D01*
X178926442Y-109595518D01*
G37*
G36*
X149716442Y-109595518D02*
G01*
X149782627Y-109602037D01*
X149952466Y-109653557D01*
X150108991Y-109737222D01*
X150144729Y-109766552D01*
X150246186Y-109849814D01*
X150329448Y-109951271D01*
X150358778Y-109987009D01*
X150442443Y-110143534D01*
X150493963Y-110313373D01*
X150511359Y-110490000D01*
X150493963Y-110666627D01*
X150442443Y-110836466D01*
X150358778Y-110992991D01*
X150329448Y-111028729D01*
X150246186Y-111130186D01*
X150144729Y-111213448D01*
X150108991Y-111242778D01*
X149952466Y-111326443D01*
X149782627Y-111377963D01*
X149716443Y-111384481D01*
X149650260Y-111391000D01*
X149561740Y-111391000D01*
X149495557Y-111384481D01*
X149429373Y-111377963D01*
X149259534Y-111326443D01*
X149103009Y-111242778D01*
X149067271Y-111213448D01*
X148965814Y-111130186D01*
X148882552Y-111028729D01*
X148853222Y-110992991D01*
X148769557Y-110836466D01*
X148718037Y-110666627D01*
X148700641Y-110490000D01*
X148718037Y-110313373D01*
X148769557Y-110143534D01*
X148853222Y-109987009D01*
X148882552Y-109951271D01*
X148965814Y-109849814D01*
X149067271Y-109766552D01*
X149103009Y-109737222D01*
X149259534Y-109653557D01*
X149429373Y-109602037D01*
X149495558Y-109595518D01*
X149561740Y-109589000D01*
X149650260Y-109589000D01*
X149716442Y-109595518D01*
X149716442Y-109595518D01*
G37*
G36*
X149716442Y-107055518D02*
G01*
X149782627Y-107062037D01*
X149952466Y-107113557D01*
X150108991Y-107197222D01*
X150144729Y-107226552D01*
X150246186Y-107309814D01*
X150329448Y-107411271D01*
X150358778Y-107447009D01*
X150442443Y-107603534D01*
X150493963Y-107773373D01*
X150511359Y-107950000D01*
X150493963Y-108126627D01*
X150442443Y-108296466D01*
X150358778Y-108452991D01*
X150329448Y-108488729D01*
X150246186Y-108590186D01*
X150144729Y-108673448D01*
X150108991Y-108702778D01*
X149952466Y-108786443D01*
X149782627Y-108837963D01*
X149716442Y-108844482D01*
X149650260Y-108851000D01*
X149561740Y-108851000D01*
X149495558Y-108844482D01*
X149429373Y-108837963D01*
X149259534Y-108786443D01*
X149103009Y-108702778D01*
X149067271Y-108673448D01*
X148965814Y-108590186D01*
X148882552Y-108488729D01*
X148853222Y-108452991D01*
X148769557Y-108296466D01*
X148718037Y-108126627D01*
X148700641Y-107950000D01*
X148718037Y-107773373D01*
X148769557Y-107603534D01*
X148853222Y-107447009D01*
X148882552Y-107411271D01*
X148965814Y-107309814D01*
X149067271Y-107226552D01*
X149103009Y-107197222D01*
X149259534Y-107113557D01*
X149429373Y-107062037D01*
X149495558Y-107055518D01*
X149561740Y-107049000D01*
X149650260Y-107049000D01*
X149716442Y-107055518D01*
X149716442Y-107055518D01*
G37*
G36*
X178926442Y-107055518D02*
G01*
X178992627Y-107062037D01*
X179162466Y-107113557D01*
X179318991Y-107197222D01*
X179354729Y-107226552D01*
X179456186Y-107309814D01*
X179539448Y-107411271D01*
X179568778Y-107447009D01*
X179652443Y-107603534D01*
X179703963Y-107773373D01*
X179721359Y-107950000D01*
X179703963Y-108126627D01*
X179652443Y-108296466D01*
X179568778Y-108452991D01*
X179539448Y-108488729D01*
X179456186Y-108590186D01*
X179354729Y-108673448D01*
X179318991Y-108702778D01*
X179162466Y-108786443D01*
X178992627Y-108837963D01*
X178926442Y-108844482D01*
X178860260Y-108851000D01*
X178771740Y-108851000D01*
X178705558Y-108844482D01*
X178639373Y-108837963D01*
X178469534Y-108786443D01*
X178313009Y-108702778D01*
X178277271Y-108673448D01*
X178175814Y-108590186D01*
X178092552Y-108488729D01*
X178063222Y-108452991D01*
X177979557Y-108296466D01*
X177928037Y-108126627D01*
X177910641Y-107950000D01*
X177928037Y-107773373D01*
X177979557Y-107603534D01*
X178063222Y-107447009D01*
X178092552Y-107411271D01*
X178175814Y-107309814D01*
X178277271Y-107226552D01*
X178313009Y-107197222D01*
X178469534Y-107113557D01*
X178639373Y-107062037D01*
X178705558Y-107055518D01*
X178771740Y-107049000D01*
X178860260Y-107049000D01*
X178926442Y-107055518D01*
X178926442Y-107055518D01*
G37*
G36*
X149716443Y-104515519D02*
G01*
X149782627Y-104522037D01*
X149952466Y-104573557D01*
X150108991Y-104657222D01*
X150144729Y-104686552D01*
X150246186Y-104769814D01*
X150329448Y-104871271D01*
X150358778Y-104907009D01*
X150442443Y-105063534D01*
X150493963Y-105233373D01*
X150511359Y-105410000D01*
X150493963Y-105586627D01*
X150442443Y-105756466D01*
X150358778Y-105912991D01*
X150329448Y-105948729D01*
X150246186Y-106050186D01*
X150144729Y-106133448D01*
X150108991Y-106162778D01*
X149952466Y-106246443D01*
X149782627Y-106297963D01*
X149716442Y-106304482D01*
X149650260Y-106311000D01*
X149561740Y-106311000D01*
X149495558Y-106304482D01*
X149429373Y-106297963D01*
X149259534Y-106246443D01*
X149103009Y-106162778D01*
X149067271Y-106133448D01*
X148965814Y-106050186D01*
X148882552Y-105948729D01*
X148853222Y-105912991D01*
X148769557Y-105756466D01*
X148718037Y-105586627D01*
X148700641Y-105410000D01*
X148718037Y-105233373D01*
X148769557Y-105063534D01*
X148853222Y-104907009D01*
X148882552Y-104871271D01*
X148965814Y-104769814D01*
X149067271Y-104686552D01*
X149103009Y-104657222D01*
X149259534Y-104573557D01*
X149429373Y-104522037D01*
X149495557Y-104515519D01*
X149561740Y-104509000D01*
X149650260Y-104509000D01*
X149716443Y-104515519D01*
X149716443Y-104515519D01*
G37*
G36*
X178926443Y-104515519D02*
G01*
X178992627Y-104522037D01*
X179162466Y-104573557D01*
X179318991Y-104657222D01*
X179354729Y-104686552D01*
X179456186Y-104769814D01*
X179539448Y-104871271D01*
X179568778Y-104907009D01*
X179652443Y-105063534D01*
X179703963Y-105233373D01*
X179721359Y-105410000D01*
X179703963Y-105586627D01*
X179652443Y-105756466D01*
X179568778Y-105912991D01*
X179539448Y-105948729D01*
X179456186Y-106050186D01*
X179354729Y-106133448D01*
X179318991Y-106162778D01*
X179162466Y-106246443D01*
X178992627Y-106297963D01*
X178926442Y-106304482D01*
X178860260Y-106311000D01*
X178771740Y-106311000D01*
X178705558Y-106304482D01*
X178639373Y-106297963D01*
X178469534Y-106246443D01*
X178313009Y-106162778D01*
X178277271Y-106133448D01*
X178175814Y-106050186D01*
X178092552Y-105948729D01*
X178063222Y-105912991D01*
X177979557Y-105756466D01*
X177928037Y-105586627D01*
X177910641Y-105410000D01*
X177928037Y-105233373D01*
X177979557Y-105063534D01*
X178063222Y-104907009D01*
X178092552Y-104871271D01*
X178175814Y-104769814D01*
X178277271Y-104686552D01*
X178313009Y-104657222D01*
X178469534Y-104573557D01*
X178639373Y-104522037D01*
X178705557Y-104515519D01*
X178771740Y-104509000D01*
X178860260Y-104509000D01*
X178926443Y-104515519D01*
X178926443Y-104515519D01*
G37*
G36*
X178926442Y-101975518D02*
G01*
X178992627Y-101982037D01*
X179162466Y-102033557D01*
X179318991Y-102117222D01*
X179354729Y-102146552D01*
X179456186Y-102229814D01*
X179539448Y-102331271D01*
X179568778Y-102367009D01*
X179652443Y-102523534D01*
X179703963Y-102693373D01*
X179721359Y-102870000D01*
X179703963Y-103046627D01*
X179652443Y-103216466D01*
X179568778Y-103372991D01*
X179539448Y-103408729D01*
X179456186Y-103510186D01*
X179354729Y-103593448D01*
X179318991Y-103622778D01*
X179162466Y-103706443D01*
X178992627Y-103757963D01*
X178926443Y-103764481D01*
X178860260Y-103771000D01*
X178771740Y-103771000D01*
X178705557Y-103764481D01*
X178639373Y-103757963D01*
X178469534Y-103706443D01*
X178313009Y-103622778D01*
X178277271Y-103593448D01*
X178175814Y-103510186D01*
X178092552Y-103408729D01*
X178063222Y-103372991D01*
X177979557Y-103216466D01*
X177928037Y-103046627D01*
X177910641Y-102870000D01*
X177928037Y-102693373D01*
X177979557Y-102523534D01*
X178063222Y-102367009D01*
X178092552Y-102331271D01*
X178175814Y-102229814D01*
X178277271Y-102146552D01*
X178313009Y-102117222D01*
X178469534Y-102033557D01*
X178639373Y-101982037D01*
X178705558Y-101975518D01*
X178771740Y-101969000D01*
X178860260Y-101969000D01*
X178926442Y-101975518D01*
X178926442Y-101975518D01*
G37*
G36*
X149716442Y-101975518D02*
G01*
X149782627Y-101982037D01*
X149952466Y-102033557D01*
X150108991Y-102117222D01*
X150144729Y-102146552D01*
X150246186Y-102229814D01*
X150329448Y-102331271D01*
X150358778Y-102367009D01*
X150442443Y-102523534D01*
X150493963Y-102693373D01*
X150511359Y-102870000D01*
X150493963Y-103046627D01*
X150442443Y-103216466D01*
X150358778Y-103372991D01*
X150329448Y-103408729D01*
X150246186Y-103510186D01*
X150144729Y-103593448D01*
X150108991Y-103622778D01*
X149952466Y-103706443D01*
X149782627Y-103757963D01*
X149716443Y-103764481D01*
X149650260Y-103771000D01*
X149561740Y-103771000D01*
X149495557Y-103764481D01*
X149429373Y-103757963D01*
X149259534Y-103706443D01*
X149103009Y-103622778D01*
X149067271Y-103593448D01*
X148965814Y-103510186D01*
X148882552Y-103408729D01*
X148853222Y-103372991D01*
X148769557Y-103216466D01*
X148718037Y-103046627D01*
X148700641Y-102870000D01*
X148718037Y-102693373D01*
X148769557Y-102523534D01*
X148853222Y-102367009D01*
X148882552Y-102331271D01*
X148965814Y-102229814D01*
X149067271Y-102146552D01*
X149103009Y-102117222D01*
X149259534Y-102033557D01*
X149429373Y-101982037D01*
X149495558Y-101975518D01*
X149561740Y-101969000D01*
X149650260Y-101969000D01*
X149716442Y-101975518D01*
X149716442Y-101975518D01*
G37*
G36*
X178926443Y-99435519D02*
G01*
X178992627Y-99442037D01*
X179162466Y-99493557D01*
X179318991Y-99577222D01*
X179354729Y-99606552D01*
X179456186Y-99689814D01*
X179539448Y-99791271D01*
X179568778Y-99827009D01*
X179652443Y-99983534D01*
X179703963Y-100153373D01*
X179721359Y-100330000D01*
X179703963Y-100506627D01*
X179652443Y-100676466D01*
X179568778Y-100832991D01*
X179539448Y-100868729D01*
X179456186Y-100970186D01*
X179354729Y-101053448D01*
X179318991Y-101082778D01*
X179162466Y-101166443D01*
X178992627Y-101217963D01*
X178926443Y-101224481D01*
X178860260Y-101231000D01*
X178771740Y-101231000D01*
X178705558Y-101224482D01*
X178639373Y-101217963D01*
X178469534Y-101166443D01*
X178313009Y-101082778D01*
X178277271Y-101053448D01*
X178175814Y-100970186D01*
X178092552Y-100868729D01*
X178063222Y-100832991D01*
X177979557Y-100676466D01*
X177928037Y-100506627D01*
X177910641Y-100330000D01*
X177928037Y-100153373D01*
X177979557Y-99983534D01*
X178063222Y-99827009D01*
X178092552Y-99791271D01*
X178175814Y-99689814D01*
X178277271Y-99606552D01*
X178313009Y-99577222D01*
X178469534Y-99493557D01*
X178639373Y-99442037D01*
X178705558Y-99435518D01*
X178771740Y-99429000D01*
X178860260Y-99429000D01*
X178926443Y-99435519D01*
X178926443Y-99435519D01*
G37*
G36*
X149716443Y-99435519D02*
G01*
X149782627Y-99442037D01*
X149952466Y-99493557D01*
X150108991Y-99577222D01*
X150144729Y-99606552D01*
X150246186Y-99689814D01*
X150329448Y-99791271D01*
X150358778Y-99827009D01*
X150442443Y-99983534D01*
X150493963Y-100153373D01*
X150511359Y-100330000D01*
X150493963Y-100506627D01*
X150442443Y-100676466D01*
X150358778Y-100832991D01*
X150329448Y-100868729D01*
X150246186Y-100970186D01*
X150144729Y-101053448D01*
X150108991Y-101082778D01*
X149952466Y-101166443D01*
X149782627Y-101217963D01*
X149716443Y-101224481D01*
X149650260Y-101231000D01*
X149561740Y-101231000D01*
X149495558Y-101224482D01*
X149429373Y-101217963D01*
X149259534Y-101166443D01*
X149103009Y-101082778D01*
X149067271Y-101053448D01*
X148965814Y-100970186D01*
X148882552Y-100868729D01*
X148853222Y-100832991D01*
X148769557Y-100676466D01*
X148718037Y-100506627D01*
X148700641Y-100330000D01*
X148718037Y-100153373D01*
X148769557Y-99983534D01*
X148853222Y-99827009D01*
X148882552Y-99791271D01*
X148965814Y-99689814D01*
X149067271Y-99606552D01*
X149103009Y-99577222D01*
X149259534Y-99493557D01*
X149429373Y-99442037D01*
X149495558Y-99435518D01*
X149561740Y-99429000D01*
X149650260Y-99429000D01*
X149716443Y-99435519D01*
X149716443Y-99435519D01*
G37*
G36*
X178926442Y-96895518D02*
G01*
X178992627Y-96902037D01*
X179162466Y-96953557D01*
X179318991Y-97037222D01*
X179354729Y-97066552D01*
X179456186Y-97149814D01*
X179539448Y-97251271D01*
X179568778Y-97287009D01*
X179652443Y-97443534D01*
X179703963Y-97613373D01*
X179721359Y-97790000D01*
X179703963Y-97966627D01*
X179652443Y-98136466D01*
X179568778Y-98292991D01*
X179539448Y-98328729D01*
X179456186Y-98430186D01*
X179354729Y-98513448D01*
X179318991Y-98542778D01*
X179162466Y-98626443D01*
X178992627Y-98677963D01*
X178926442Y-98684482D01*
X178860260Y-98691000D01*
X178771740Y-98691000D01*
X178705558Y-98684482D01*
X178639373Y-98677963D01*
X178469534Y-98626443D01*
X178313009Y-98542778D01*
X178277271Y-98513448D01*
X178175814Y-98430186D01*
X178092552Y-98328729D01*
X178063222Y-98292991D01*
X177979557Y-98136466D01*
X177928037Y-97966627D01*
X177910641Y-97790000D01*
X177928037Y-97613373D01*
X177979557Y-97443534D01*
X178063222Y-97287009D01*
X178092552Y-97251271D01*
X178175814Y-97149814D01*
X178277271Y-97066552D01*
X178313009Y-97037222D01*
X178469534Y-96953557D01*
X178639373Y-96902037D01*
X178705558Y-96895518D01*
X178771740Y-96889000D01*
X178860260Y-96889000D01*
X178926442Y-96895518D01*
X178926442Y-96895518D01*
G37*
G36*
X149716442Y-96895518D02*
G01*
X149782627Y-96902037D01*
X149952466Y-96953557D01*
X150108991Y-97037222D01*
X150144729Y-97066552D01*
X150246186Y-97149814D01*
X150329448Y-97251271D01*
X150358778Y-97287009D01*
X150442443Y-97443534D01*
X150493963Y-97613373D01*
X150511359Y-97790000D01*
X150493963Y-97966627D01*
X150442443Y-98136466D01*
X150358778Y-98292991D01*
X150329448Y-98328729D01*
X150246186Y-98430186D01*
X150144729Y-98513448D01*
X150108991Y-98542778D01*
X149952466Y-98626443D01*
X149782627Y-98677963D01*
X149716442Y-98684482D01*
X149650260Y-98691000D01*
X149561740Y-98691000D01*
X149495558Y-98684482D01*
X149429373Y-98677963D01*
X149259534Y-98626443D01*
X149103009Y-98542778D01*
X149067271Y-98513448D01*
X148965814Y-98430186D01*
X148882552Y-98328729D01*
X148853222Y-98292991D01*
X148769557Y-98136466D01*
X148718037Y-97966627D01*
X148700641Y-97790000D01*
X148718037Y-97613373D01*
X148769557Y-97443534D01*
X148853222Y-97287009D01*
X148882552Y-97251271D01*
X148965814Y-97149814D01*
X149067271Y-97066552D01*
X149103009Y-97037222D01*
X149259534Y-96953557D01*
X149429373Y-96902037D01*
X149495558Y-96895518D01*
X149561740Y-96889000D01*
X149650260Y-96889000D01*
X149716442Y-96895518D01*
X149716442Y-96895518D01*
G37*
G36*
X179717000Y-96151000D02*
G01*
X177915000Y-96151000D01*
X177915000Y-94349000D01*
X179717000Y-94349000D01*
X179717000Y-96151000D01*
X179717000Y-96151000D01*
G37*
G36*
X150507000Y-96151000D02*
G01*
X148705000Y-96151000D01*
X148705000Y-94349000D01*
X150507000Y-94349000D01*
X150507000Y-96151000D01*
X150507000Y-96151000D01*
G37*
M02*
