G04 #@! TF.GenerationSoftware,KiCad,Pcbnew,(5.1.2)-1*
G04 #@! TF.CreationDate,2019-07-28T16:53:52+09:00*
G04 #@! TF.ProjectId,ESP32-breakout-SMD,45535033-322d-4627-9265-616b6f75742d,rev?*
G04 #@! TF.SameCoordinates,Original*
G04 #@! TF.FileFunction,Soldermask,Top*
G04 #@! TF.FilePolarity,Negative*
%FSLAX46Y46*%
G04 Gerber Fmt 4.6, Leading zero omitted, Abs format (unit mm)*
G04 Created by KiCad (PCBNEW (5.1.2)-1) date 2019-07-28 16:53:52*
%MOMM*%
%LPD*%
G04 APERTURE LIST*
%ADD10C,1.016000*%
%ADD11C,0.100000*%
G04 APERTURE END LIST*
D10*
X165169123Y-122555000D02*
G75*
G03X165169123Y-122555000I-1135923J0D01*
G01*
D11*
G36*
X168359848Y-139989522D02*
G01*
X168394187Y-139999939D01*
X168425836Y-140016856D01*
X168453578Y-140039622D01*
X168476344Y-140067364D01*
X168493261Y-140099013D01*
X168503678Y-140133352D01*
X168507800Y-140175207D01*
X168507800Y-143297593D01*
X168503678Y-143339448D01*
X168493261Y-143373787D01*
X168476344Y-143405436D01*
X168453578Y-143433178D01*
X168425836Y-143455944D01*
X168394187Y-143472861D01*
X168359848Y-143483278D01*
X168317993Y-143487400D01*
X167095607Y-143487400D01*
X167053752Y-143483278D01*
X167019413Y-143472861D01*
X166987764Y-143455944D01*
X166960022Y-143433178D01*
X166937256Y-143405436D01*
X166920339Y-143373787D01*
X166909922Y-143339448D01*
X166905800Y-143297593D01*
X166905800Y-140175207D01*
X166909922Y-140133352D01*
X166920339Y-140099013D01*
X166937256Y-140067364D01*
X166960022Y-140039622D01*
X166987764Y-140016856D01*
X167019413Y-139999939D01*
X167053752Y-139989522D01*
X167095607Y-139985400D01*
X168317993Y-139985400D01*
X168359848Y-139989522D01*
X168359848Y-139989522D01*
G37*
G36*
X170921448Y-139989522D02*
G01*
X170955787Y-139999939D01*
X170987436Y-140016856D01*
X171015178Y-140039622D01*
X171037944Y-140067364D01*
X171054861Y-140099013D01*
X171065278Y-140133352D01*
X171069400Y-140175207D01*
X171069400Y-143297593D01*
X171065278Y-143339448D01*
X171054861Y-143373787D01*
X171037944Y-143405436D01*
X171015178Y-143433178D01*
X170987436Y-143455944D01*
X170955787Y-143472861D01*
X170921448Y-143483278D01*
X170879593Y-143487400D01*
X169657207Y-143487400D01*
X169615352Y-143483278D01*
X169581013Y-143472861D01*
X169549364Y-143455944D01*
X169521622Y-143433178D01*
X169498856Y-143405436D01*
X169481939Y-143373787D01*
X169471522Y-143339448D01*
X169467400Y-143297593D01*
X169467400Y-140175207D01*
X169471522Y-140133352D01*
X169481939Y-140099013D01*
X169498856Y-140067364D01*
X169521622Y-140039622D01*
X169549364Y-140016856D01*
X169581013Y-139999939D01*
X169615352Y-139989522D01*
X169657207Y-139985400D01*
X170879593Y-139985400D01*
X170921448Y-139989522D01*
X170921448Y-139989522D01*
G37*
G36*
X181621448Y-139989522D02*
G01*
X181655787Y-139999939D01*
X181687436Y-140016856D01*
X181715178Y-140039622D01*
X181737944Y-140067364D01*
X181754861Y-140099013D01*
X181765278Y-140133352D01*
X181769400Y-140175207D01*
X181769400Y-143297593D01*
X181765278Y-143339448D01*
X181754861Y-143373787D01*
X181737944Y-143405436D01*
X181715178Y-143433178D01*
X181687436Y-143455944D01*
X181655787Y-143472861D01*
X181621448Y-143483278D01*
X181579593Y-143487400D01*
X180357207Y-143487400D01*
X180315352Y-143483278D01*
X180281013Y-143472861D01*
X180249364Y-143455944D01*
X180221622Y-143433178D01*
X180198856Y-143405436D01*
X180181939Y-143373787D01*
X180171522Y-143339448D01*
X180167400Y-143297593D01*
X180167400Y-140175207D01*
X180171522Y-140133352D01*
X180181939Y-140099013D01*
X180198856Y-140067364D01*
X180221622Y-140039622D01*
X180249364Y-140016856D01*
X180281013Y-139999939D01*
X180315352Y-139989522D01*
X180357207Y-139985400D01*
X181579593Y-139985400D01*
X181621448Y-139989522D01*
X181621448Y-139989522D01*
G37*
G36*
X148382248Y-139989522D02*
G01*
X148416587Y-139999939D01*
X148448236Y-140016856D01*
X148475978Y-140039622D01*
X148498744Y-140067364D01*
X148515661Y-140099013D01*
X148526078Y-140133352D01*
X148530200Y-140175207D01*
X148530200Y-143297593D01*
X148526078Y-143339448D01*
X148515661Y-143373787D01*
X148498744Y-143405436D01*
X148475978Y-143433178D01*
X148448236Y-143455944D01*
X148416587Y-143472861D01*
X148382248Y-143483278D01*
X148340393Y-143487400D01*
X147118007Y-143487400D01*
X147076152Y-143483278D01*
X147041813Y-143472861D01*
X147010164Y-143455944D01*
X146982422Y-143433178D01*
X146959656Y-143405436D01*
X146942739Y-143373787D01*
X146932322Y-143339448D01*
X146928200Y-143297593D01*
X146928200Y-140175207D01*
X146932322Y-140133352D01*
X146942739Y-140099013D01*
X146959656Y-140067364D01*
X146982422Y-140039622D01*
X147010164Y-140016856D01*
X147041813Y-139999939D01*
X147076152Y-139989522D01*
X147118007Y-139985400D01*
X148340393Y-139985400D01*
X148382248Y-139989522D01*
X148382248Y-139989522D01*
G37*
G36*
X157659848Y-139989522D02*
G01*
X157694187Y-139999939D01*
X157725836Y-140016856D01*
X157753578Y-140039622D01*
X157776344Y-140067364D01*
X157793261Y-140099013D01*
X157803678Y-140133352D01*
X157807800Y-140175207D01*
X157807800Y-143297593D01*
X157803678Y-143339448D01*
X157793261Y-143373787D01*
X157776344Y-143405436D01*
X157753578Y-143433178D01*
X157725836Y-143455944D01*
X157694187Y-143472861D01*
X157659848Y-143483278D01*
X157617993Y-143487400D01*
X156395607Y-143487400D01*
X156353752Y-143483278D01*
X156319413Y-143472861D01*
X156287764Y-143455944D01*
X156260022Y-143433178D01*
X156237256Y-143405436D01*
X156220339Y-143373787D01*
X156209922Y-143339448D01*
X156205800Y-143297593D01*
X156205800Y-140175207D01*
X156209922Y-140133352D01*
X156220339Y-140099013D01*
X156237256Y-140067364D01*
X156260022Y-140039622D01*
X156287764Y-140016856D01*
X156319413Y-139999939D01*
X156353752Y-139989522D01*
X156395607Y-139985400D01*
X157617993Y-139985400D01*
X157659848Y-139989522D01*
X157659848Y-139989522D01*
G37*
G36*
X155082248Y-139989522D02*
G01*
X155116587Y-139999939D01*
X155148236Y-140016856D01*
X155175978Y-140039622D01*
X155198744Y-140067364D01*
X155215661Y-140099013D01*
X155226078Y-140133352D01*
X155230200Y-140175207D01*
X155230200Y-143297593D01*
X155226078Y-143339448D01*
X155215661Y-143373787D01*
X155198744Y-143405436D01*
X155175978Y-143433178D01*
X155148236Y-143455944D01*
X155116587Y-143472861D01*
X155082248Y-143483278D01*
X155040393Y-143487400D01*
X153818007Y-143487400D01*
X153776152Y-143483278D01*
X153741813Y-143472861D01*
X153710164Y-143455944D01*
X153682422Y-143433178D01*
X153659656Y-143405436D01*
X153642739Y-143373787D01*
X153632322Y-143339448D01*
X153628200Y-143297593D01*
X153628200Y-140175207D01*
X153632322Y-140133352D01*
X153642739Y-140099013D01*
X153659656Y-140067364D01*
X153682422Y-140039622D01*
X153710164Y-140016856D01*
X153741813Y-139999939D01*
X153776152Y-139989522D01*
X153818007Y-139985400D01*
X155040393Y-139985400D01*
X155082248Y-139989522D01*
X155082248Y-139989522D01*
G37*
G36*
X178997834Y-134190086D02*
G01*
X179037684Y-134202174D01*
X179074399Y-134221799D01*
X179106586Y-134248214D01*
X179133001Y-134280401D01*
X179152626Y-134317116D01*
X179164714Y-134356966D01*
X179169400Y-134404541D01*
X179169400Y-137568259D01*
X179164714Y-137615834D01*
X179152626Y-137655684D01*
X179133001Y-137692399D01*
X179106586Y-137724586D01*
X179074399Y-137751001D01*
X179037684Y-137770626D01*
X178997834Y-137782714D01*
X178950259Y-137787400D01*
X178286541Y-137787400D01*
X178238966Y-137782714D01*
X178199116Y-137770626D01*
X178162401Y-137751001D01*
X178130214Y-137724586D01*
X178103799Y-137692399D01*
X178084174Y-137655684D01*
X178072086Y-137615834D01*
X178067400Y-137568259D01*
X178067400Y-134404541D01*
X178072086Y-134356966D01*
X178084174Y-134317116D01*
X178103799Y-134280401D01*
X178130214Y-134248214D01*
X178162401Y-134221799D01*
X178199116Y-134202174D01*
X178238966Y-134190086D01*
X178286541Y-134185400D01*
X178950259Y-134185400D01*
X178997834Y-134190086D01*
X178997834Y-134190086D01*
G37*
G36*
X176997834Y-134190086D02*
G01*
X177037684Y-134202174D01*
X177074399Y-134221799D01*
X177106586Y-134248214D01*
X177133001Y-134280401D01*
X177152626Y-134317116D01*
X177164714Y-134356966D01*
X177169400Y-134404541D01*
X177169400Y-137568259D01*
X177164714Y-137615834D01*
X177152626Y-137655684D01*
X177133001Y-137692399D01*
X177106586Y-137724586D01*
X177074399Y-137751001D01*
X177037684Y-137770626D01*
X176997834Y-137782714D01*
X176950259Y-137787400D01*
X176286541Y-137787400D01*
X176238966Y-137782714D01*
X176199116Y-137770626D01*
X176162401Y-137751001D01*
X176130214Y-137724586D01*
X176103799Y-137692399D01*
X176084174Y-137655684D01*
X176072086Y-137615834D01*
X176067400Y-137568259D01*
X176067400Y-134404541D01*
X176072086Y-134356966D01*
X176084174Y-134317116D01*
X176103799Y-134280401D01*
X176130214Y-134248214D01*
X176162401Y-134221799D01*
X176199116Y-134202174D01*
X176238966Y-134190086D01*
X176286541Y-134185400D01*
X176950259Y-134185400D01*
X176997834Y-134190086D01*
X176997834Y-134190086D01*
G37*
G36*
X174997834Y-134190086D02*
G01*
X175037684Y-134202174D01*
X175074399Y-134221799D01*
X175106586Y-134248214D01*
X175133001Y-134280401D01*
X175152626Y-134317116D01*
X175164714Y-134356966D01*
X175169400Y-134404541D01*
X175169400Y-137568259D01*
X175164714Y-137615834D01*
X175152626Y-137655684D01*
X175133001Y-137692399D01*
X175106586Y-137724586D01*
X175074399Y-137751001D01*
X175037684Y-137770626D01*
X174997834Y-137782714D01*
X174950259Y-137787400D01*
X174286541Y-137787400D01*
X174238966Y-137782714D01*
X174199116Y-137770626D01*
X174162401Y-137751001D01*
X174130214Y-137724586D01*
X174103799Y-137692399D01*
X174084174Y-137655684D01*
X174072086Y-137615834D01*
X174067400Y-137568259D01*
X174067400Y-134404541D01*
X174072086Y-134356966D01*
X174084174Y-134317116D01*
X174103799Y-134280401D01*
X174130214Y-134248214D01*
X174162401Y-134221799D01*
X174199116Y-134202174D01*
X174238966Y-134190086D01*
X174286541Y-134185400D01*
X174950259Y-134185400D01*
X174997834Y-134190086D01*
X174997834Y-134190086D01*
G37*
G36*
X172997834Y-134190086D02*
G01*
X173037684Y-134202174D01*
X173074399Y-134221799D01*
X173106586Y-134248214D01*
X173133001Y-134280401D01*
X173152626Y-134317116D01*
X173164714Y-134356966D01*
X173169400Y-134404541D01*
X173169400Y-137568259D01*
X173164714Y-137615834D01*
X173152626Y-137655684D01*
X173133001Y-137692399D01*
X173106586Y-137724586D01*
X173074399Y-137751001D01*
X173037684Y-137770626D01*
X172997834Y-137782714D01*
X172950259Y-137787400D01*
X172286541Y-137787400D01*
X172238966Y-137782714D01*
X172199116Y-137770626D01*
X172162401Y-137751001D01*
X172130214Y-137724586D01*
X172103799Y-137692399D01*
X172084174Y-137655684D01*
X172072086Y-137615834D01*
X172067400Y-137568259D01*
X172067400Y-134404541D01*
X172072086Y-134356966D01*
X172084174Y-134317116D01*
X172103799Y-134280401D01*
X172130214Y-134248214D01*
X172162401Y-134221799D01*
X172199116Y-134202174D01*
X172238966Y-134190086D01*
X172286541Y-134185400D01*
X172950259Y-134185400D01*
X172997834Y-134190086D01*
X172997834Y-134190086D01*
G37*
G36*
X150458634Y-134190086D02*
G01*
X150498484Y-134202174D01*
X150535199Y-134221799D01*
X150567386Y-134248214D01*
X150593801Y-134280401D01*
X150613426Y-134317116D01*
X150625514Y-134356966D01*
X150630200Y-134404541D01*
X150630200Y-137568259D01*
X150625514Y-137615834D01*
X150613426Y-137655684D01*
X150593801Y-137692399D01*
X150567386Y-137724586D01*
X150535199Y-137751001D01*
X150498484Y-137770626D01*
X150458634Y-137782714D01*
X150411059Y-137787400D01*
X149747341Y-137787400D01*
X149699766Y-137782714D01*
X149659916Y-137770626D01*
X149623201Y-137751001D01*
X149591014Y-137724586D01*
X149564599Y-137692399D01*
X149544974Y-137655684D01*
X149532886Y-137615834D01*
X149528200Y-137568259D01*
X149528200Y-134404541D01*
X149532886Y-134356966D01*
X149544974Y-134317116D01*
X149564599Y-134280401D01*
X149591014Y-134248214D01*
X149623201Y-134221799D01*
X149659916Y-134202174D01*
X149699766Y-134190086D01*
X149747341Y-134185400D01*
X150411059Y-134185400D01*
X150458634Y-134190086D01*
X150458634Y-134190086D01*
G37*
G36*
X152458634Y-134190086D02*
G01*
X152498484Y-134202174D01*
X152535199Y-134221799D01*
X152567386Y-134248214D01*
X152593801Y-134280401D01*
X152613426Y-134317116D01*
X152625514Y-134356966D01*
X152630200Y-134404541D01*
X152630200Y-137568259D01*
X152625514Y-137615834D01*
X152613426Y-137655684D01*
X152593801Y-137692399D01*
X152567386Y-137724586D01*
X152535199Y-137751001D01*
X152498484Y-137770626D01*
X152458634Y-137782714D01*
X152411059Y-137787400D01*
X151747341Y-137787400D01*
X151699766Y-137782714D01*
X151659916Y-137770626D01*
X151623201Y-137751001D01*
X151591014Y-137724586D01*
X151564599Y-137692399D01*
X151544974Y-137655684D01*
X151532886Y-137615834D01*
X151528200Y-137568259D01*
X151528200Y-134404541D01*
X151532886Y-134356966D01*
X151544974Y-134317116D01*
X151564599Y-134280401D01*
X151591014Y-134248214D01*
X151623201Y-134221799D01*
X151659916Y-134202174D01*
X151699766Y-134190086D01*
X151747341Y-134185400D01*
X152411059Y-134185400D01*
X152458634Y-134190086D01*
X152458634Y-134190086D01*
G37*
G36*
X165736234Y-134190086D02*
G01*
X165776084Y-134202174D01*
X165812799Y-134221799D01*
X165844986Y-134248214D01*
X165871401Y-134280401D01*
X165891026Y-134317116D01*
X165903114Y-134356966D01*
X165907800Y-134404541D01*
X165907800Y-137568259D01*
X165903114Y-137615834D01*
X165891026Y-137655684D01*
X165871401Y-137692399D01*
X165844986Y-137724586D01*
X165812799Y-137751001D01*
X165776084Y-137770626D01*
X165736234Y-137782714D01*
X165688659Y-137787400D01*
X165024941Y-137787400D01*
X164977366Y-137782714D01*
X164937516Y-137770626D01*
X164900801Y-137751001D01*
X164868614Y-137724586D01*
X164842199Y-137692399D01*
X164822574Y-137655684D01*
X164810486Y-137615834D01*
X164805800Y-137568259D01*
X164805800Y-134404541D01*
X164810486Y-134356966D01*
X164822574Y-134317116D01*
X164842199Y-134280401D01*
X164868614Y-134248214D01*
X164900801Y-134221799D01*
X164937516Y-134202174D01*
X164977366Y-134190086D01*
X165024941Y-134185400D01*
X165688659Y-134185400D01*
X165736234Y-134190086D01*
X165736234Y-134190086D01*
G37*
G36*
X159736234Y-134190086D02*
G01*
X159776084Y-134202174D01*
X159812799Y-134221799D01*
X159844986Y-134248214D01*
X159871401Y-134280401D01*
X159891026Y-134317116D01*
X159903114Y-134356966D01*
X159907800Y-134404541D01*
X159907800Y-137568259D01*
X159903114Y-137615834D01*
X159891026Y-137655684D01*
X159871401Y-137692399D01*
X159844986Y-137724586D01*
X159812799Y-137751001D01*
X159776084Y-137770626D01*
X159736234Y-137782714D01*
X159688659Y-137787400D01*
X159024941Y-137787400D01*
X158977366Y-137782714D01*
X158937516Y-137770626D01*
X158900801Y-137751001D01*
X158868614Y-137724586D01*
X158842199Y-137692399D01*
X158822574Y-137655684D01*
X158810486Y-137615834D01*
X158805800Y-137568259D01*
X158805800Y-134404541D01*
X158810486Y-134356966D01*
X158822574Y-134317116D01*
X158842199Y-134280401D01*
X158868614Y-134248214D01*
X158900801Y-134221799D01*
X158937516Y-134202174D01*
X158977366Y-134190086D01*
X159024941Y-134185400D01*
X159688659Y-134185400D01*
X159736234Y-134190086D01*
X159736234Y-134190086D01*
G37*
G36*
X161736234Y-134190086D02*
G01*
X161776084Y-134202174D01*
X161812799Y-134221799D01*
X161844986Y-134248214D01*
X161871401Y-134280401D01*
X161891026Y-134317116D01*
X161903114Y-134356966D01*
X161907800Y-134404541D01*
X161907800Y-137568259D01*
X161903114Y-137615834D01*
X161891026Y-137655684D01*
X161871401Y-137692399D01*
X161844986Y-137724586D01*
X161812799Y-137751001D01*
X161776084Y-137770626D01*
X161736234Y-137782714D01*
X161688659Y-137787400D01*
X161024941Y-137787400D01*
X160977366Y-137782714D01*
X160937516Y-137770626D01*
X160900801Y-137751001D01*
X160868614Y-137724586D01*
X160842199Y-137692399D01*
X160822574Y-137655684D01*
X160810486Y-137615834D01*
X160805800Y-137568259D01*
X160805800Y-134404541D01*
X160810486Y-134356966D01*
X160822574Y-134317116D01*
X160842199Y-134280401D01*
X160868614Y-134248214D01*
X160900801Y-134221799D01*
X160937516Y-134202174D01*
X160977366Y-134190086D01*
X161024941Y-134185400D01*
X161688659Y-134185400D01*
X161736234Y-134190086D01*
X161736234Y-134190086D01*
G37*
G36*
X163736234Y-134190086D02*
G01*
X163776084Y-134202174D01*
X163812799Y-134221799D01*
X163844986Y-134248214D01*
X163871401Y-134280401D01*
X163891026Y-134317116D01*
X163903114Y-134356966D01*
X163907800Y-134404541D01*
X163907800Y-137568259D01*
X163903114Y-137615834D01*
X163891026Y-137655684D01*
X163871401Y-137692399D01*
X163844986Y-137724586D01*
X163812799Y-137751001D01*
X163776084Y-137770626D01*
X163736234Y-137782714D01*
X163688659Y-137787400D01*
X163024941Y-137787400D01*
X162977366Y-137782714D01*
X162937516Y-137770626D01*
X162900801Y-137751001D01*
X162868614Y-137724586D01*
X162842199Y-137692399D01*
X162822574Y-137655684D01*
X162810486Y-137615834D01*
X162805800Y-137568259D01*
X162805800Y-134404541D01*
X162810486Y-134356966D01*
X162822574Y-134317116D01*
X162842199Y-134280401D01*
X162868614Y-134248214D01*
X162900801Y-134221799D01*
X162937516Y-134202174D01*
X162977366Y-134190086D01*
X163024941Y-134185400D01*
X163688659Y-134185400D01*
X163736234Y-134190086D01*
X163736234Y-134190086D01*
G37*
G36*
X149716442Y-127375518D02*
G01*
X149782627Y-127382037D01*
X149952466Y-127433557D01*
X150108991Y-127517222D01*
X150144729Y-127546552D01*
X150246186Y-127629814D01*
X150329448Y-127731271D01*
X150358778Y-127767009D01*
X150442443Y-127923534D01*
X150493963Y-128093373D01*
X150511359Y-128270000D01*
X150493963Y-128446627D01*
X150442443Y-128616466D01*
X150358778Y-128772991D01*
X150329448Y-128808729D01*
X150246186Y-128910186D01*
X150144729Y-128993448D01*
X150108991Y-129022778D01*
X149952466Y-129106443D01*
X149782627Y-129157963D01*
X149716442Y-129164482D01*
X149650260Y-129171000D01*
X149561740Y-129171000D01*
X149495558Y-129164482D01*
X149429373Y-129157963D01*
X149259534Y-129106443D01*
X149103009Y-129022778D01*
X149067271Y-128993448D01*
X148965814Y-128910186D01*
X148882552Y-128808729D01*
X148853222Y-128772991D01*
X148769557Y-128616466D01*
X148718037Y-128446627D01*
X148700641Y-128270000D01*
X148718037Y-128093373D01*
X148769557Y-127923534D01*
X148853222Y-127767009D01*
X148882552Y-127731271D01*
X148965814Y-127629814D01*
X149067271Y-127546552D01*
X149103009Y-127517222D01*
X149259534Y-127433557D01*
X149429373Y-127382037D01*
X149495558Y-127375518D01*
X149561740Y-127369000D01*
X149650260Y-127369000D01*
X149716442Y-127375518D01*
X149716442Y-127375518D01*
G37*
G36*
X178926442Y-127375518D02*
G01*
X178992627Y-127382037D01*
X179162466Y-127433557D01*
X179318991Y-127517222D01*
X179354729Y-127546552D01*
X179456186Y-127629814D01*
X179539448Y-127731271D01*
X179568778Y-127767009D01*
X179652443Y-127923534D01*
X179703963Y-128093373D01*
X179721359Y-128270000D01*
X179703963Y-128446627D01*
X179652443Y-128616466D01*
X179568778Y-128772991D01*
X179539448Y-128808729D01*
X179456186Y-128910186D01*
X179354729Y-128993448D01*
X179318991Y-129022778D01*
X179162466Y-129106443D01*
X178992627Y-129157963D01*
X178926442Y-129164482D01*
X178860260Y-129171000D01*
X178771740Y-129171000D01*
X178705558Y-129164482D01*
X178639373Y-129157963D01*
X178469534Y-129106443D01*
X178313009Y-129022778D01*
X178277271Y-128993448D01*
X178175814Y-128910186D01*
X178092552Y-128808729D01*
X178063222Y-128772991D01*
X177979557Y-128616466D01*
X177928037Y-128446627D01*
X177910641Y-128270000D01*
X177928037Y-128093373D01*
X177979557Y-127923534D01*
X178063222Y-127767009D01*
X178092552Y-127731271D01*
X178175814Y-127629814D01*
X178277271Y-127546552D01*
X178313009Y-127517222D01*
X178469534Y-127433557D01*
X178639373Y-127382037D01*
X178705558Y-127375518D01*
X178771740Y-127369000D01*
X178860260Y-127369000D01*
X178926442Y-127375518D01*
X178926442Y-127375518D01*
G37*
G36*
X167118600Y-129171000D02*
G01*
X165316600Y-129171000D01*
X165316600Y-127369000D01*
X167118600Y-127369000D01*
X167118600Y-129171000D01*
X167118600Y-129171000D01*
G37*
G36*
X164324600Y-129145600D02*
G01*
X162522600Y-129145600D01*
X162522600Y-127343600D01*
X164324600Y-127343600D01*
X164324600Y-129145600D01*
X164324600Y-129145600D01*
G37*
G36*
X161479800Y-129145600D02*
G01*
X159677800Y-129145600D01*
X159677800Y-127343600D01*
X161479800Y-127343600D01*
X161479800Y-129145600D01*
X161479800Y-129145600D01*
G37*
G36*
X149716443Y-124835519D02*
G01*
X149782627Y-124842037D01*
X149952466Y-124893557D01*
X150108991Y-124977222D01*
X150144729Y-125006552D01*
X150246186Y-125089814D01*
X150329448Y-125191271D01*
X150358778Y-125227009D01*
X150442443Y-125383534D01*
X150493963Y-125553373D01*
X150511359Y-125730000D01*
X150493963Y-125906627D01*
X150442443Y-126076466D01*
X150358778Y-126232991D01*
X150329448Y-126268729D01*
X150246186Y-126370186D01*
X150144729Y-126453448D01*
X150108991Y-126482778D01*
X149952466Y-126566443D01*
X149782627Y-126617963D01*
X149716442Y-126624482D01*
X149650260Y-126631000D01*
X149561740Y-126631000D01*
X149495558Y-126624482D01*
X149429373Y-126617963D01*
X149259534Y-126566443D01*
X149103009Y-126482778D01*
X149067271Y-126453448D01*
X148965814Y-126370186D01*
X148882552Y-126268729D01*
X148853222Y-126232991D01*
X148769557Y-126076466D01*
X148718037Y-125906627D01*
X148700641Y-125730000D01*
X148718037Y-125553373D01*
X148769557Y-125383534D01*
X148853222Y-125227009D01*
X148882552Y-125191271D01*
X148965814Y-125089814D01*
X149067271Y-125006552D01*
X149103009Y-124977222D01*
X149259534Y-124893557D01*
X149429373Y-124842037D01*
X149495557Y-124835519D01*
X149561740Y-124829000D01*
X149650260Y-124829000D01*
X149716443Y-124835519D01*
X149716443Y-124835519D01*
G37*
G36*
X178926443Y-124835519D02*
G01*
X178992627Y-124842037D01*
X179162466Y-124893557D01*
X179318991Y-124977222D01*
X179354729Y-125006552D01*
X179456186Y-125089814D01*
X179539448Y-125191271D01*
X179568778Y-125227009D01*
X179652443Y-125383534D01*
X179703963Y-125553373D01*
X179721359Y-125730000D01*
X179703963Y-125906627D01*
X179652443Y-126076466D01*
X179568778Y-126232991D01*
X179539448Y-126268729D01*
X179456186Y-126370186D01*
X179354729Y-126453448D01*
X179318991Y-126482778D01*
X179162466Y-126566443D01*
X178992627Y-126617963D01*
X178926442Y-126624482D01*
X178860260Y-126631000D01*
X178771740Y-126631000D01*
X178705558Y-126624482D01*
X178639373Y-126617963D01*
X178469534Y-126566443D01*
X178313009Y-126482778D01*
X178277271Y-126453448D01*
X178175814Y-126370186D01*
X178092552Y-126268729D01*
X178063222Y-126232991D01*
X177979557Y-126076466D01*
X177928037Y-125906627D01*
X177910641Y-125730000D01*
X177928037Y-125553373D01*
X177979557Y-125383534D01*
X178063222Y-125227009D01*
X178092552Y-125191271D01*
X178175814Y-125089814D01*
X178277271Y-125006552D01*
X178313009Y-124977222D01*
X178469534Y-124893557D01*
X178639373Y-124842037D01*
X178705557Y-124835519D01*
X178771740Y-124829000D01*
X178860260Y-124829000D01*
X178926443Y-124835519D01*
X178926443Y-124835519D01*
G37*
G36*
X156808762Y-122776181D02*
G01*
X156843681Y-122786774D01*
X156875863Y-122803976D01*
X156904073Y-122827127D01*
X156927224Y-122855337D01*
X156944426Y-122887519D01*
X156955019Y-122922438D01*
X156959200Y-122964895D01*
X156959200Y-124431105D01*
X156955019Y-124473562D01*
X156944426Y-124508481D01*
X156927224Y-124540663D01*
X156904073Y-124568873D01*
X156875863Y-124592024D01*
X156843681Y-124609226D01*
X156808762Y-124619819D01*
X156766305Y-124624000D01*
X155625095Y-124624000D01*
X155582638Y-124619819D01*
X155547719Y-124609226D01*
X155515537Y-124592024D01*
X155487327Y-124568873D01*
X155464176Y-124540663D01*
X155446974Y-124508481D01*
X155436381Y-124473562D01*
X155432200Y-124431105D01*
X155432200Y-122964895D01*
X155436381Y-122922438D01*
X155446974Y-122887519D01*
X155464176Y-122855337D01*
X155487327Y-122827127D01*
X155515537Y-122803976D01*
X155547719Y-122786774D01*
X155582638Y-122776181D01*
X155625095Y-122772000D01*
X156766305Y-122772000D01*
X156808762Y-122776181D01*
X156808762Y-122776181D01*
G37*
G36*
X159783762Y-122776181D02*
G01*
X159818681Y-122786774D01*
X159850863Y-122803976D01*
X159879073Y-122827127D01*
X159902224Y-122855337D01*
X159919426Y-122887519D01*
X159930019Y-122922438D01*
X159934200Y-122964895D01*
X159934200Y-124431105D01*
X159930019Y-124473562D01*
X159919426Y-124508481D01*
X159902224Y-124540663D01*
X159879073Y-124568873D01*
X159850863Y-124592024D01*
X159818681Y-124609226D01*
X159783762Y-124619819D01*
X159741305Y-124624000D01*
X158600095Y-124624000D01*
X158557638Y-124619819D01*
X158522719Y-124609226D01*
X158490537Y-124592024D01*
X158462327Y-124568873D01*
X158439176Y-124540663D01*
X158421974Y-124508481D01*
X158411381Y-124473562D01*
X158407200Y-124431105D01*
X158407200Y-122964895D01*
X158411381Y-122922438D01*
X158421974Y-122887519D01*
X158439176Y-122855337D01*
X158462327Y-122827127D01*
X158490537Y-122803976D01*
X158522719Y-122786774D01*
X158557638Y-122776181D01*
X158600095Y-122772000D01*
X159741305Y-122772000D01*
X159783762Y-122776181D01*
X159783762Y-122776181D01*
G37*
G36*
X149716443Y-122295519D02*
G01*
X149782627Y-122302037D01*
X149952466Y-122353557D01*
X150108991Y-122437222D01*
X150144729Y-122466552D01*
X150246186Y-122549814D01*
X150329448Y-122651271D01*
X150358778Y-122687009D01*
X150442443Y-122843534D01*
X150493963Y-123013373D01*
X150511359Y-123190000D01*
X150493963Y-123366627D01*
X150442443Y-123536466D01*
X150358778Y-123692991D01*
X150329448Y-123728729D01*
X150246186Y-123830186D01*
X150144729Y-123913448D01*
X150108991Y-123942778D01*
X149952466Y-124026443D01*
X149782627Y-124077963D01*
X149716442Y-124084482D01*
X149650260Y-124091000D01*
X149561740Y-124091000D01*
X149495558Y-124084482D01*
X149429373Y-124077963D01*
X149259534Y-124026443D01*
X149103009Y-123942778D01*
X149067271Y-123913448D01*
X148965814Y-123830186D01*
X148882552Y-123728729D01*
X148853222Y-123692991D01*
X148769557Y-123536466D01*
X148718037Y-123366627D01*
X148700641Y-123190000D01*
X148718037Y-123013373D01*
X148769557Y-122843534D01*
X148853222Y-122687009D01*
X148882552Y-122651271D01*
X148965814Y-122549814D01*
X149067271Y-122466552D01*
X149103009Y-122437222D01*
X149259534Y-122353557D01*
X149429373Y-122302037D01*
X149495557Y-122295519D01*
X149561740Y-122289000D01*
X149650260Y-122289000D01*
X149716443Y-122295519D01*
X149716443Y-122295519D01*
G37*
G36*
X178926443Y-122295519D02*
G01*
X178992627Y-122302037D01*
X179162466Y-122353557D01*
X179318991Y-122437222D01*
X179354729Y-122466552D01*
X179456186Y-122549814D01*
X179539448Y-122651271D01*
X179568778Y-122687009D01*
X179652443Y-122843534D01*
X179703963Y-123013373D01*
X179721359Y-123190000D01*
X179703963Y-123366627D01*
X179652443Y-123536466D01*
X179568778Y-123692991D01*
X179539448Y-123728729D01*
X179456186Y-123830186D01*
X179354729Y-123913448D01*
X179318991Y-123942778D01*
X179162466Y-124026443D01*
X178992627Y-124077963D01*
X178926442Y-124084482D01*
X178860260Y-124091000D01*
X178771740Y-124091000D01*
X178705558Y-124084482D01*
X178639373Y-124077963D01*
X178469534Y-124026443D01*
X178313009Y-123942778D01*
X178277271Y-123913448D01*
X178175814Y-123830186D01*
X178092552Y-123728729D01*
X178063222Y-123692991D01*
X177979557Y-123536466D01*
X177928037Y-123366627D01*
X177910641Y-123190000D01*
X177928037Y-123013373D01*
X177979557Y-122843534D01*
X178063222Y-122687009D01*
X178092552Y-122651271D01*
X178175814Y-122549814D01*
X178277271Y-122466552D01*
X178313009Y-122437222D01*
X178469534Y-122353557D01*
X178639373Y-122302037D01*
X178705557Y-122295519D01*
X178771740Y-122289000D01*
X178860260Y-122289000D01*
X178926443Y-122295519D01*
X178926443Y-122295519D01*
G37*
G36*
X178926442Y-119755518D02*
G01*
X178992627Y-119762037D01*
X179162466Y-119813557D01*
X179318991Y-119897222D01*
X179354729Y-119926552D01*
X179456186Y-120009814D01*
X179539448Y-120111271D01*
X179568778Y-120147009D01*
X179652443Y-120303534D01*
X179703963Y-120473373D01*
X179721359Y-120650000D01*
X179703963Y-120826627D01*
X179652443Y-120996466D01*
X179568778Y-121152991D01*
X179539448Y-121188729D01*
X179456186Y-121290186D01*
X179354729Y-121373448D01*
X179318991Y-121402778D01*
X179162466Y-121486443D01*
X178992627Y-121537963D01*
X178926443Y-121544481D01*
X178860260Y-121551000D01*
X178771740Y-121551000D01*
X178705557Y-121544481D01*
X178639373Y-121537963D01*
X178469534Y-121486443D01*
X178313009Y-121402778D01*
X178277271Y-121373448D01*
X178175814Y-121290186D01*
X178092552Y-121188729D01*
X178063222Y-121152991D01*
X177979557Y-120996466D01*
X177928037Y-120826627D01*
X177910641Y-120650000D01*
X177928037Y-120473373D01*
X177979557Y-120303534D01*
X178063222Y-120147009D01*
X178092552Y-120111271D01*
X178175814Y-120009814D01*
X178277271Y-119926552D01*
X178313009Y-119897222D01*
X178469534Y-119813557D01*
X178639373Y-119762037D01*
X178705558Y-119755518D01*
X178771740Y-119749000D01*
X178860260Y-119749000D01*
X178926442Y-119755518D01*
X178926442Y-119755518D01*
G37*
G36*
X149716442Y-119755518D02*
G01*
X149782627Y-119762037D01*
X149952466Y-119813557D01*
X150108991Y-119897222D01*
X150144729Y-119926552D01*
X150246186Y-120009814D01*
X150329448Y-120111271D01*
X150358778Y-120147009D01*
X150442443Y-120303534D01*
X150493963Y-120473373D01*
X150511359Y-120650000D01*
X150493963Y-120826627D01*
X150442443Y-120996466D01*
X150358778Y-121152991D01*
X150329448Y-121188729D01*
X150246186Y-121290186D01*
X150144729Y-121373448D01*
X150108991Y-121402778D01*
X149952466Y-121486443D01*
X149782627Y-121537963D01*
X149716443Y-121544481D01*
X149650260Y-121551000D01*
X149561740Y-121551000D01*
X149495557Y-121544481D01*
X149429373Y-121537963D01*
X149259534Y-121486443D01*
X149103009Y-121402778D01*
X149067271Y-121373448D01*
X148965814Y-121290186D01*
X148882552Y-121188729D01*
X148853222Y-121152991D01*
X148769557Y-120996466D01*
X148718037Y-120826627D01*
X148700641Y-120650000D01*
X148718037Y-120473373D01*
X148769557Y-120303534D01*
X148853222Y-120147009D01*
X148882552Y-120111271D01*
X148965814Y-120009814D01*
X149067271Y-119926552D01*
X149103009Y-119897222D01*
X149259534Y-119813557D01*
X149429373Y-119762037D01*
X149495558Y-119755518D01*
X149561740Y-119749000D01*
X149650260Y-119749000D01*
X149716442Y-119755518D01*
X149716442Y-119755518D01*
G37*
G36*
X178926443Y-117215519D02*
G01*
X178992627Y-117222037D01*
X179162466Y-117273557D01*
X179318991Y-117357222D01*
X179354729Y-117386552D01*
X179456186Y-117469814D01*
X179539448Y-117571271D01*
X179568778Y-117607009D01*
X179652443Y-117763534D01*
X179703963Y-117933373D01*
X179721359Y-118110000D01*
X179703963Y-118286627D01*
X179652443Y-118456466D01*
X179568778Y-118612991D01*
X179541196Y-118646600D01*
X179456186Y-118750186D01*
X179354729Y-118833448D01*
X179318991Y-118862778D01*
X179162466Y-118946443D01*
X178992627Y-118997963D01*
X178926443Y-119004481D01*
X178860260Y-119011000D01*
X178771740Y-119011000D01*
X178705557Y-119004481D01*
X178639373Y-118997963D01*
X178469534Y-118946443D01*
X178313009Y-118862778D01*
X178277271Y-118833448D01*
X178175814Y-118750186D01*
X178090804Y-118646600D01*
X178063222Y-118612991D01*
X177979557Y-118456466D01*
X177928037Y-118286627D01*
X177910641Y-118110000D01*
X177928037Y-117933373D01*
X177979557Y-117763534D01*
X178063222Y-117607009D01*
X178092552Y-117571271D01*
X178175814Y-117469814D01*
X178277271Y-117386552D01*
X178313009Y-117357222D01*
X178469534Y-117273557D01*
X178639373Y-117222037D01*
X178705557Y-117215519D01*
X178771740Y-117209000D01*
X178860260Y-117209000D01*
X178926443Y-117215519D01*
X178926443Y-117215519D01*
G37*
G36*
X149716443Y-117215519D02*
G01*
X149782627Y-117222037D01*
X149952466Y-117273557D01*
X150108991Y-117357222D01*
X150144729Y-117386552D01*
X150246186Y-117469814D01*
X150329448Y-117571271D01*
X150358778Y-117607009D01*
X150442443Y-117763534D01*
X150493963Y-117933373D01*
X150511359Y-118110000D01*
X150493963Y-118286627D01*
X150442443Y-118456466D01*
X150358778Y-118612991D01*
X150331196Y-118646600D01*
X150246186Y-118750186D01*
X150144729Y-118833448D01*
X150108991Y-118862778D01*
X149952466Y-118946443D01*
X149782627Y-118997963D01*
X149716443Y-119004481D01*
X149650260Y-119011000D01*
X149561740Y-119011000D01*
X149495557Y-119004481D01*
X149429373Y-118997963D01*
X149259534Y-118946443D01*
X149103009Y-118862778D01*
X149067271Y-118833448D01*
X148965814Y-118750186D01*
X148880804Y-118646600D01*
X148853222Y-118612991D01*
X148769557Y-118456466D01*
X148718037Y-118286627D01*
X148700641Y-118110000D01*
X148718037Y-117933373D01*
X148769557Y-117763534D01*
X148853222Y-117607009D01*
X148882552Y-117571271D01*
X148965814Y-117469814D01*
X149067271Y-117386552D01*
X149103009Y-117357222D01*
X149259534Y-117273557D01*
X149429373Y-117222037D01*
X149495557Y-117215519D01*
X149561740Y-117209000D01*
X149650260Y-117209000D01*
X149716443Y-117215519D01*
X149716443Y-117215519D01*
G37*
G36*
X157022800Y-118697400D02*
G01*
X155820800Y-118697400D01*
X155820800Y-117945400D01*
X157022800Y-117945400D01*
X157022800Y-118697400D01*
X157022800Y-118697400D01*
G37*
G36*
X161272800Y-118697400D02*
G01*
X160070800Y-118697400D01*
X160070800Y-117945400D01*
X161272800Y-117945400D01*
X161272800Y-118697400D01*
X161272800Y-118697400D01*
G37*
G36*
X173007600Y-118646600D02*
G01*
X171805600Y-118646600D01*
X171805600Y-117894600D01*
X173007600Y-117894600D01*
X173007600Y-118646600D01*
X173007600Y-118646600D01*
G37*
G36*
X168757600Y-118646600D02*
G01*
X167555600Y-118646600D01*
X167555600Y-117894600D01*
X168757600Y-117894600D01*
X168757600Y-118646600D01*
X168757600Y-118646600D01*
G37*
G36*
X163859874Y-117141865D02*
G01*
X163897567Y-117153299D01*
X163932303Y-117171866D01*
X163962748Y-117196852D01*
X163987734Y-117227297D01*
X164006301Y-117262033D01*
X164017735Y-117299726D01*
X164022200Y-117345061D01*
X164022200Y-118181739D01*
X164017735Y-118227074D01*
X164006301Y-118264767D01*
X163987734Y-118299503D01*
X163962748Y-118329948D01*
X163932303Y-118354934D01*
X163897567Y-118373501D01*
X163859874Y-118384935D01*
X163814539Y-118389400D01*
X162727861Y-118389400D01*
X162682526Y-118384935D01*
X162644833Y-118373501D01*
X162610097Y-118354934D01*
X162579652Y-118329948D01*
X162554666Y-118299503D01*
X162536099Y-118264767D01*
X162524665Y-118227074D01*
X162520200Y-118181739D01*
X162520200Y-117345061D01*
X162524665Y-117299726D01*
X162536099Y-117262033D01*
X162554666Y-117227297D01*
X162579652Y-117196852D01*
X162610097Y-117171866D01*
X162644833Y-117153299D01*
X162682526Y-117141865D01*
X162727861Y-117137400D01*
X163814539Y-117137400D01*
X163859874Y-117141865D01*
X163859874Y-117141865D01*
G37*
G36*
X166298274Y-117141865D02*
G01*
X166335967Y-117153299D01*
X166370703Y-117171866D01*
X166401148Y-117196852D01*
X166426134Y-117227297D01*
X166444701Y-117262033D01*
X166456135Y-117299726D01*
X166460600Y-117345061D01*
X166460600Y-118181739D01*
X166456135Y-118227074D01*
X166444701Y-118264767D01*
X166426134Y-118299503D01*
X166401148Y-118329948D01*
X166370703Y-118354934D01*
X166335967Y-118373501D01*
X166298274Y-118384935D01*
X166252939Y-118389400D01*
X165166261Y-118389400D01*
X165120926Y-118384935D01*
X165083233Y-118373501D01*
X165048497Y-118354934D01*
X165018052Y-118329948D01*
X164993066Y-118299503D01*
X164974499Y-118264767D01*
X164963065Y-118227074D01*
X164958600Y-118181739D01*
X164958600Y-117345061D01*
X164963065Y-117299726D01*
X164974499Y-117262033D01*
X164993066Y-117227297D01*
X165018052Y-117196852D01*
X165048497Y-117171866D01*
X165083233Y-117153299D01*
X165120926Y-117141865D01*
X165166261Y-117137400D01*
X166252939Y-117137400D01*
X166298274Y-117141865D01*
X166298274Y-117141865D01*
G37*
G36*
X161272800Y-116547400D02*
G01*
X160070800Y-116547400D01*
X160070800Y-115795400D01*
X161272800Y-115795400D01*
X161272800Y-116547400D01*
X161272800Y-116547400D01*
G37*
G36*
X157022800Y-116547400D02*
G01*
X155820800Y-116547400D01*
X155820800Y-115795400D01*
X157022800Y-115795400D01*
X157022800Y-116547400D01*
X157022800Y-116547400D01*
G37*
G36*
X168757600Y-116496600D02*
G01*
X167555600Y-116496600D01*
X167555600Y-115744600D01*
X168757600Y-115744600D01*
X168757600Y-116496600D01*
X168757600Y-116496600D01*
G37*
G36*
X173007600Y-116496600D02*
G01*
X171805600Y-116496600D01*
X171805600Y-115744600D01*
X173007600Y-115744600D01*
X173007600Y-116496600D01*
X173007600Y-116496600D01*
G37*
G36*
X178926443Y-114675519D02*
G01*
X178992627Y-114682037D01*
X179162466Y-114733557D01*
X179318991Y-114817222D01*
X179354729Y-114846552D01*
X179456186Y-114929814D01*
X179539448Y-115031271D01*
X179568778Y-115067009D01*
X179652443Y-115223534D01*
X179703963Y-115393373D01*
X179721359Y-115570000D01*
X179703963Y-115746627D01*
X179652443Y-115916466D01*
X179568778Y-116072991D01*
X179539448Y-116108729D01*
X179456186Y-116210186D01*
X179371179Y-116279948D01*
X179318991Y-116322778D01*
X179162466Y-116406443D01*
X178992627Y-116457963D01*
X178926442Y-116464482D01*
X178860260Y-116471000D01*
X178771740Y-116471000D01*
X178705558Y-116464482D01*
X178639373Y-116457963D01*
X178469534Y-116406443D01*
X178313009Y-116322778D01*
X178260821Y-116279948D01*
X178175814Y-116210186D01*
X178092552Y-116108729D01*
X178063222Y-116072991D01*
X177979557Y-115916466D01*
X177928037Y-115746627D01*
X177910641Y-115570000D01*
X177928037Y-115393373D01*
X177979557Y-115223534D01*
X178063222Y-115067009D01*
X178092552Y-115031271D01*
X178175814Y-114929814D01*
X178277271Y-114846552D01*
X178313009Y-114817222D01*
X178469534Y-114733557D01*
X178639373Y-114682037D01*
X178705557Y-114675519D01*
X178771740Y-114669000D01*
X178860260Y-114669000D01*
X178926443Y-114675519D01*
X178926443Y-114675519D01*
G37*
G36*
X149716443Y-114675519D02*
G01*
X149782627Y-114682037D01*
X149952466Y-114733557D01*
X150108991Y-114817222D01*
X150144729Y-114846552D01*
X150246186Y-114929814D01*
X150329448Y-115031271D01*
X150358778Y-115067009D01*
X150442443Y-115223534D01*
X150493963Y-115393373D01*
X150511359Y-115570000D01*
X150493963Y-115746627D01*
X150442443Y-115916466D01*
X150358778Y-116072991D01*
X150329448Y-116108729D01*
X150246186Y-116210186D01*
X150161179Y-116279948D01*
X150108991Y-116322778D01*
X149952466Y-116406443D01*
X149782627Y-116457963D01*
X149716442Y-116464482D01*
X149650260Y-116471000D01*
X149561740Y-116471000D01*
X149495558Y-116464482D01*
X149429373Y-116457963D01*
X149259534Y-116406443D01*
X149103009Y-116322778D01*
X149050821Y-116279948D01*
X148965814Y-116210186D01*
X148882552Y-116108729D01*
X148853222Y-116072991D01*
X148769557Y-115916466D01*
X148718037Y-115746627D01*
X148700641Y-115570000D01*
X148718037Y-115393373D01*
X148769557Y-115223534D01*
X148853222Y-115067009D01*
X148882552Y-115031271D01*
X148965814Y-114929814D01*
X149067271Y-114846552D01*
X149103009Y-114817222D01*
X149259534Y-114733557D01*
X149429373Y-114682037D01*
X149495557Y-114675519D01*
X149561740Y-114669000D01*
X149650260Y-114669000D01*
X149716443Y-114675519D01*
X149716443Y-114675519D01*
G37*
G36*
X163859874Y-115091865D02*
G01*
X163897567Y-115103299D01*
X163932303Y-115121866D01*
X163962748Y-115146852D01*
X163987734Y-115177297D01*
X164006301Y-115212033D01*
X164017735Y-115249726D01*
X164022200Y-115295061D01*
X164022200Y-116131739D01*
X164017735Y-116177074D01*
X164006301Y-116214767D01*
X163987734Y-116249503D01*
X163962748Y-116279948D01*
X163932303Y-116304934D01*
X163897567Y-116323501D01*
X163859874Y-116334935D01*
X163814539Y-116339400D01*
X162727861Y-116339400D01*
X162682526Y-116334935D01*
X162644833Y-116323501D01*
X162610097Y-116304934D01*
X162579652Y-116279948D01*
X162554666Y-116249503D01*
X162536099Y-116214767D01*
X162524665Y-116177074D01*
X162520200Y-116131739D01*
X162520200Y-115295061D01*
X162524665Y-115249726D01*
X162536099Y-115212033D01*
X162554666Y-115177297D01*
X162579652Y-115146852D01*
X162610097Y-115121866D01*
X162644833Y-115103299D01*
X162682526Y-115091865D01*
X162727861Y-115087400D01*
X163814539Y-115087400D01*
X163859874Y-115091865D01*
X163859874Y-115091865D01*
G37*
G36*
X166298274Y-115091865D02*
G01*
X166335967Y-115103299D01*
X166370703Y-115121866D01*
X166401148Y-115146852D01*
X166426134Y-115177297D01*
X166444701Y-115212033D01*
X166456135Y-115249726D01*
X166460600Y-115295061D01*
X166460600Y-116131739D01*
X166456135Y-116177074D01*
X166444701Y-116214767D01*
X166426134Y-116249503D01*
X166401148Y-116279948D01*
X166370703Y-116304934D01*
X166335967Y-116323501D01*
X166298274Y-116334935D01*
X166252939Y-116339400D01*
X165166261Y-116339400D01*
X165120926Y-116334935D01*
X165083233Y-116323501D01*
X165048497Y-116304934D01*
X165018052Y-116279948D01*
X164993066Y-116249503D01*
X164974499Y-116214767D01*
X164963065Y-116177074D01*
X164958600Y-116131739D01*
X164958600Y-115295061D01*
X164963065Y-115249726D01*
X164974499Y-115212033D01*
X164993066Y-115177297D01*
X165018052Y-115146852D01*
X165048497Y-115121866D01*
X165083233Y-115103299D01*
X165120926Y-115091865D01*
X165166261Y-115087400D01*
X166252939Y-115087400D01*
X166298274Y-115091865D01*
X166298274Y-115091865D01*
G37*
G36*
X158713213Y-111816249D02*
G01*
X158807652Y-111844897D01*
X158894687Y-111891418D01*
X158970975Y-111954025D01*
X159033582Y-112030313D01*
X159080103Y-112117348D01*
X159108751Y-112211787D01*
X159116000Y-112285388D01*
X159116000Y-113934612D01*
X159108751Y-114008213D01*
X159080103Y-114102652D01*
X159033582Y-114189687D01*
X158970975Y-114265975D01*
X158894687Y-114328582D01*
X158807651Y-114375103D01*
X158713212Y-114403751D01*
X158615000Y-114413424D01*
X158516787Y-114403751D01*
X158422348Y-114375103D01*
X158335313Y-114328582D01*
X158259025Y-114265975D01*
X158196418Y-114189687D01*
X158149897Y-114102651D01*
X158121249Y-114008212D01*
X158114000Y-113934611D01*
X158114001Y-112285388D01*
X158121250Y-112211787D01*
X158149898Y-112117348D01*
X158196419Y-112030313D01*
X158259026Y-111954025D01*
X158335314Y-111891418D01*
X158422349Y-111844897D01*
X158516788Y-111816249D01*
X158615000Y-111806576D01*
X158713213Y-111816249D01*
X158713213Y-111816249D01*
G37*
G36*
X159983213Y-111816249D02*
G01*
X160077652Y-111844897D01*
X160164687Y-111891418D01*
X160240975Y-111954025D01*
X160303582Y-112030313D01*
X160350103Y-112117348D01*
X160378751Y-112211787D01*
X160386000Y-112285388D01*
X160386000Y-113934612D01*
X160378751Y-114008213D01*
X160350103Y-114102652D01*
X160303582Y-114189687D01*
X160240975Y-114265975D01*
X160164687Y-114328582D01*
X160077651Y-114375103D01*
X159983212Y-114403751D01*
X159885000Y-114413424D01*
X159786787Y-114403751D01*
X159692348Y-114375103D01*
X159605313Y-114328582D01*
X159529025Y-114265975D01*
X159466418Y-114189687D01*
X159419897Y-114102651D01*
X159391249Y-114008212D01*
X159384000Y-113934611D01*
X159384001Y-112285388D01*
X159391250Y-112211787D01*
X159419898Y-112117348D01*
X159466419Y-112030313D01*
X159529026Y-111954025D01*
X159605314Y-111891418D01*
X159692349Y-111844897D01*
X159786788Y-111816249D01*
X159885000Y-111806576D01*
X159983213Y-111816249D01*
X159983213Y-111816249D01*
G37*
G36*
X161253213Y-111816249D02*
G01*
X161347652Y-111844897D01*
X161434687Y-111891418D01*
X161510975Y-111954025D01*
X161573582Y-112030313D01*
X161620103Y-112117348D01*
X161648751Y-112211787D01*
X161656000Y-112285388D01*
X161656000Y-113934612D01*
X161648751Y-114008213D01*
X161620103Y-114102652D01*
X161573582Y-114189687D01*
X161510975Y-114265975D01*
X161434687Y-114328582D01*
X161347651Y-114375103D01*
X161253212Y-114403751D01*
X161155000Y-114413424D01*
X161056787Y-114403751D01*
X160962348Y-114375103D01*
X160875313Y-114328582D01*
X160799025Y-114265975D01*
X160736418Y-114189687D01*
X160689897Y-114102651D01*
X160661249Y-114008212D01*
X160654000Y-113934611D01*
X160654001Y-112285388D01*
X160661250Y-112211787D01*
X160689898Y-112117348D01*
X160736419Y-112030313D01*
X160799026Y-111954025D01*
X160875314Y-111891418D01*
X160962349Y-111844897D01*
X161056788Y-111816249D01*
X161155000Y-111806576D01*
X161253213Y-111816249D01*
X161253213Y-111816249D01*
G37*
G36*
X162523213Y-111816249D02*
G01*
X162617652Y-111844897D01*
X162704687Y-111891418D01*
X162780975Y-111954025D01*
X162843582Y-112030313D01*
X162890103Y-112117348D01*
X162918751Y-112211787D01*
X162926000Y-112285388D01*
X162926000Y-113934612D01*
X162918751Y-114008213D01*
X162890103Y-114102652D01*
X162843582Y-114189687D01*
X162780975Y-114265975D01*
X162704687Y-114328582D01*
X162617651Y-114375103D01*
X162523212Y-114403751D01*
X162425000Y-114413424D01*
X162326787Y-114403751D01*
X162232348Y-114375103D01*
X162145313Y-114328582D01*
X162069025Y-114265975D01*
X162006418Y-114189687D01*
X161959897Y-114102651D01*
X161931249Y-114008212D01*
X161924000Y-113934611D01*
X161924001Y-112285388D01*
X161931250Y-112211787D01*
X161959898Y-112117348D01*
X162006419Y-112030313D01*
X162069026Y-111954025D01*
X162145314Y-111891418D01*
X162232349Y-111844897D01*
X162326788Y-111816249D01*
X162425000Y-111806576D01*
X162523213Y-111816249D01*
X162523213Y-111816249D01*
G37*
G36*
X163793213Y-111816249D02*
G01*
X163887652Y-111844897D01*
X163974687Y-111891418D01*
X164050975Y-111954025D01*
X164113582Y-112030313D01*
X164160103Y-112117348D01*
X164188751Y-112211787D01*
X164196000Y-112285388D01*
X164196000Y-113934612D01*
X164188751Y-114008213D01*
X164160103Y-114102652D01*
X164113582Y-114189687D01*
X164050975Y-114265975D01*
X163974687Y-114328582D01*
X163887651Y-114375103D01*
X163793212Y-114403751D01*
X163695000Y-114413424D01*
X163596787Y-114403751D01*
X163502348Y-114375103D01*
X163415313Y-114328582D01*
X163339025Y-114265975D01*
X163276418Y-114189687D01*
X163229897Y-114102651D01*
X163201249Y-114008212D01*
X163194000Y-113934611D01*
X163194001Y-112285388D01*
X163201250Y-112211787D01*
X163229898Y-112117348D01*
X163276419Y-112030313D01*
X163339026Y-111954025D01*
X163415314Y-111891418D01*
X163502349Y-111844897D01*
X163596788Y-111816249D01*
X163695000Y-111806576D01*
X163793213Y-111816249D01*
X163793213Y-111816249D01*
G37*
G36*
X166333213Y-111816249D02*
G01*
X166427652Y-111844897D01*
X166514687Y-111891418D01*
X166590975Y-111954025D01*
X166653582Y-112030313D01*
X166700103Y-112117348D01*
X166728751Y-112211787D01*
X166736000Y-112285388D01*
X166736000Y-113934612D01*
X166728751Y-114008213D01*
X166700103Y-114102652D01*
X166653582Y-114189687D01*
X166590975Y-114265975D01*
X166514687Y-114328582D01*
X166427651Y-114375103D01*
X166333212Y-114403751D01*
X166235000Y-114413424D01*
X166136787Y-114403751D01*
X166042348Y-114375103D01*
X165955313Y-114328582D01*
X165879025Y-114265975D01*
X165816418Y-114189687D01*
X165769897Y-114102651D01*
X165741249Y-114008212D01*
X165734000Y-113934611D01*
X165734001Y-112285388D01*
X165741250Y-112211787D01*
X165769898Y-112117348D01*
X165816419Y-112030313D01*
X165879026Y-111954025D01*
X165955314Y-111891418D01*
X166042349Y-111844897D01*
X166136788Y-111816249D01*
X166235000Y-111806576D01*
X166333213Y-111816249D01*
X166333213Y-111816249D01*
G37*
G36*
X165063213Y-111816249D02*
G01*
X165157652Y-111844897D01*
X165244687Y-111891418D01*
X165320975Y-111954025D01*
X165383582Y-112030313D01*
X165430103Y-112117348D01*
X165458751Y-112211787D01*
X165466000Y-112285388D01*
X165466000Y-113934612D01*
X165458751Y-114008213D01*
X165430103Y-114102652D01*
X165383582Y-114189687D01*
X165320975Y-114265975D01*
X165244687Y-114328582D01*
X165157651Y-114375103D01*
X165063212Y-114403751D01*
X164965000Y-114413424D01*
X164866787Y-114403751D01*
X164772348Y-114375103D01*
X164685313Y-114328582D01*
X164609025Y-114265975D01*
X164546418Y-114189687D01*
X164499897Y-114102651D01*
X164471249Y-114008212D01*
X164464000Y-113934611D01*
X164464001Y-112285388D01*
X164471250Y-112211787D01*
X164499898Y-112117348D01*
X164546419Y-112030313D01*
X164609026Y-111954025D01*
X164685314Y-111891418D01*
X164772349Y-111844897D01*
X164866788Y-111816249D01*
X164965000Y-111806576D01*
X165063213Y-111816249D01*
X165063213Y-111816249D01*
G37*
G36*
X170143213Y-111816249D02*
G01*
X170237652Y-111844897D01*
X170324687Y-111891418D01*
X170400975Y-111954025D01*
X170463582Y-112030313D01*
X170510103Y-112117348D01*
X170538751Y-112211787D01*
X170546000Y-112285388D01*
X170546000Y-113934612D01*
X170538751Y-114008213D01*
X170510103Y-114102652D01*
X170463582Y-114189687D01*
X170400975Y-114265975D01*
X170324687Y-114328582D01*
X170237651Y-114375103D01*
X170143212Y-114403751D01*
X170045000Y-114413424D01*
X169946787Y-114403751D01*
X169852348Y-114375103D01*
X169765313Y-114328582D01*
X169689025Y-114265975D01*
X169626418Y-114189687D01*
X169579897Y-114102651D01*
X169551249Y-114008212D01*
X169544000Y-113934611D01*
X169544001Y-112285388D01*
X169551250Y-112211787D01*
X169579898Y-112117348D01*
X169626419Y-112030313D01*
X169689026Y-111954025D01*
X169765314Y-111891418D01*
X169852349Y-111844897D01*
X169946788Y-111816249D01*
X170045000Y-111806576D01*
X170143213Y-111816249D01*
X170143213Y-111816249D01*
G37*
G36*
X167603213Y-111816249D02*
G01*
X167697652Y-111844897D01*
X167784687Y-111891418D01*
X167860975Y-111954025D01*
X167923582Y-112030313D01*
X167970103Y-112117348D01*
X167998751Y-112211787D01*
X168006000Y-112285388D01*
X168006000Y-113934612D01*
X167998751Y-114008213D01*
X167970103Y-114102652D01*
X167923582Y-114189687D01*
X167860975Y-114265975D01*
X167784687Y-114328582D01*
X167697651Y-114375103D01*
X167603212Y-114403751D01*
X167505000Y-114413424D01*
X167406787Y-114403751D01*
X167312348Y-114375103D01*
X167225313Y-114328582D01*
X167149025Y-114265975D01*
X167086418Y-114189687D01*
X167039897Y-114102651D01*
X167011249Y-114008212D01*
X167004000Y-113934611D01*
X167004001Y-112285388D01*
X167011250Y-112211787D01*
X167039898Y-112117348D01*
X167086419Y-112030313D01*
X167149026Y-111954025D01*
X167225314Y-111891418D01*
X167312349Y-111844897D01*
X167406788Y-111816249D01*
X167505000Y-111806576D01*
X167603213Y-111816249D01*
X167603213Y-111816249D01*
G37*
G36*
X168873213Y-111816249D02*
G01*
X168967652Y-111844897D01*
X169054687Y-111891418D01*
X169130975Y-111954025D01*
X169193582Y-112030313D01*
X169240103Y-112117348D01*
X169268751Y-112211787D01*
X169276000Y-112285388D01*
X169276000Y-113934612D01*
X169268751Y-114008213D01*
X169240103Y-114102652D01*
X169193582Y-114189687D01*
X169130975Y-114265975D01*
X169054687Y-114328582D01*
X168967651Y-114375103D01*
X168873212Y-114403751D01*
X168775000Y-114413424D01*
X168676787Y-114403751D01*
X168582348Y-114375103D01*
X168495313Y-114328582D01*
X168419025Y-114265975D01*
X168356418Y-114189687D01*
X168309897Y-114102651D01*
X168281249Y-114008212D01*
X168274000Y-113934611D01*
X168274001Y-112285388D01*
X168281250Y-112211787D01*
X168309898Y-112117348D01*
X168356419Y-112030313D01*
X168419026Y-111954025D01*
X168495314Y-111891418D01*
X168582349Y-111844897D01*
X168676788Y-111816249D01*
X168775000Y-111806576D01*
X168873213Y-111816249D01*
X168873213Y-111816249D01*
G37*
G36*
X178926443Y-112135519D02*
G01*
X178992627Y-112142037D01*
X179162466Y-112193557D01*
X179318991Y-112277222D01*
X179328941Y-112285388D01*
X179456186Y-112389814D01*
X179539448Y-112491271D01*
X179568778Y-112527009D01*
X179652443Y-112683534D01*
X179703963Y-112853373D01*
X179721359Y-113030000D01*
X179703963Y-113206627D01*
X179652443Y-113376466D01*
X179568778Y-113532991D01*
X179539448Y-113568729D01*
X179456186Y-113670186D01*
X179354729Y-113753448D01*
X179318991Y-113782778D01*
X179162466Y-113866443D01*
X178992627Y-113917963D01*
X178926443Y-113924481D01*
X178860260Y-113931000D01*
X178771740Y-113931000D01*
X178705557Y-113924481D01*
X178639373Y-113917963D01*
X178469534Y-113866443D01*
X178313009Y-113782778D01*
X178277271Y-113753448D01*
X178175814Y-113670186D01*
X178092552Y-113568729D01*
X178063222Y-113532991D01*
X177979557Y-113376466D01*
X177928037Y-113206627D01*
X177910641Y-113030000D01*
X177928037Y-112853373D01*
X177979557Y-112683534D01*
X178063222Y-112527009D01*
X178092552Y-112491271D01*
X178175814Y-112389814D01*
X178303059Y-112285388D01*
X178313009Y-112277222D01*
X178469534Y-112193557D01*
X178639373Y-112142037D01*
X178705557Y-112135519D01*
X178771740Y-112129000D01*
X178860260Y-112129000D01*
X178926443Y-112135519D01*
X178926443Y-112135519D01*
G37*
G36*
X149716443Y-112135519D02*
G01*
X149782627Y-112142037D01*
X149952466Y-112193557D01*
X150108991Y-112277222D01*
X150118941Y-112285388D01*
X150246186Y-112389814D01*
X150329448Y-112491271D01*
X150358778Y-112527009D01*
X150442443Y-112683534D01*
X150493963Y-112853373D01*
X150511359Y-113030000D01*
X150493963Y-113206627D01*
X150442443Y-113376466D01*
X150358778Y-113532991D01*
X150329448Y-113568729D01*
X150246186Y-113670186D01*
X150144729Y-113753448D01*
X150108991Y-113782778D01*
X149952466Y-113866443D01*
X149782627Y-113917963D01*
X149716443Y-113924481D01*
X149650260Y-113931000D01*
X149561740Y-113931000D01*
X149495557Y-113924481D01*
X149429373Y-113917963D01*
X149259534Y-113866443D01*
X149103009Y-113782778D01*
X149067271Y-113753448D01*
X148965814Y-113670186D01*
X148882552Y-113568729D01*
X148853222Y-113532991D01*
X148769557Y-113376466D01*
X148718037Y-113206627D01*
X148700641Y-113030000D01*
X148718037Y-112853373D01*
X148769557Y-112683534D01*
X148853222Y-112527009D01*
X148882552Y-112491271D01*
X148965814Y-112389814D01*
X149093059Y-112285388D01*
X149103009Y-112277222D01*
X149259534Y-112193557D01*
X149429373Y-112142037D01*
X149495557Y-112135519D01*
X149561740Y-112129000D01*
X149650260Y-112129000D01*
X149716443Y-112135519D01*
X149716443Y-112135519D01*
G37*
G36*
X174228213Y-111126249D02*
G01*
X174322652Y-111154897D01*
X174409687Y-111201418D01*
X174485975Y-111264025D01*
X174548582Y-111340313D01*
X174595103Y-111427348D01*
X174623751Y-111521787D01*
X174633424Y-111620000D01*
X174623751Y-111718213D01*
X174595103Y-111812652D01*
X174548582Y-111899687D01*
X174485975Y-111975975D01*
X174409687Y-112038582D01*
X174322652Y-112085103D01*
X174228213Y-112113751D01*
X174154612Y-112121000D01*
X172505388Y-112121000D01*
X172431787Y-112113751D01*
X172337348Y-112085103D01*
X172250313Y-112038582D01*
X172174025Y-111975975D01*
X172111418Y-111899687D01*
X172064897Y-111812652D01*
X172036249Y-111718213D01*
X172026576Y-111620000D01*
X172036249Y-111521787D01*
X172064897Y-111427348D01*
X172111418Y-111340313D01*
X172174025Y-111264025D01*
X172250313Y-111201418D01*
X172337348Y-111154897D01*
X172431787Y-111126249D01*
X172505388Y-111119000D01*
X174154612Y-111119000D01*
X174228213Y-111126249D01*
X174228213Y-111126249D01*
G37*
G36*
X156228213Y-111126249D02*
G01*
X156322652Y-111154897D01*
X156409687Y-111201418D01*
X156485975Y-111264025D01*
X156548582Y-111340313D01*
X156595103Y-111427348D01*
X156623751Y-111521787D01*
X156633424Y-111620000D01*
X156623751Y-111718213D01*
X156595103Y-111812652D01*
X156548582Y-111899687D01*
X156485975Y-111975975D01*
X156409687Y-112038582D01*
X156322652Y-112085103D01*
X156228213Y-112113751D01*
X156154612Y-112121000D01*
X154505388Y-112121000D01*
X154431787Y-112113751D01*
X154337348Y-112085103D01*
X154250313Y-112038582D01*
X154174025Y-111975975D01*
X154111418Y-111899687D01*
X154064897Y-111812652D01*
X154036249Y-111718213D01*
X154026576Y-111620000D01*
X154036249Y-111521787D01*
X154064897Y-111427348D01*
X154111418Y-111340313D01*
X154174025Y-111264025D01*
X154250313Y-111201418D01*
X154337348Y-111154897D01*
X154431787Y-111126249D01*
X154505388Y-111119000D01*
X156154612Y-111119000D01*
X156228213Y-111126249D01*
X156228213Y-111126249D01*
G37*
G36*
X149716442Y-109595518D02*
G01*
X149782627Y-109602037D01*
X149952466Y-109653557D01*
X150108991Y-109737222D01*
X150144729Y-109766552D01*
X150246186Y-109849814D01*
X150313158Y-109931421D01*
X150358778Y-109987009D01*
X150442443Y-110143534D01*
X150493963Y-110313373D01*
X150511359Y-110490000D01*
X150493963Y-110666627D01*
X150442443Y-110836466D01*
X150358778Y-110992991D01*
X150329448Y-111028729D01*
X150246186Y-111130186D01*
X150144729Y-111213448D01*
X150108991Y-111242778D01*
X149952466Y-111326443D01*
X149782627Y-111377963D01*
X149716443Y-111384481D01*
X149650260Y-111391000D01*
X149561740Y-111391000D01*
X149495557Y-111384481D01*
X149429373Y-111377963D01*
X149259534Y-111326443D01*
X149103009Y-111242778D01*
X149067271Y-111213448D01*
X148965814Y-111130186D01*
X148882552Y-111028729D01*
X148853222Y-110992991D01*
X148769557Y-110836466D01*
X148718037Y-110666627D01*
X148700641Y-110490000D01*
X148718037Y-110313373D01*
X148769557Y-110143534D01*
X148853222Y-109987009D01*
X148898842Y-109931421D01*
X148965814Y-109849814D01*
X149067271Y-109766552D01*
X149103009Y-109737222D01*
X149259534Y-109653557D01*
X149429373Y-109602037D01*
X149495558Y-109595518D01*
X149561740Y-109589000D01*
X149650260Y-109589000D01*
X149716442Y-109595518D01*
X149716442Y-109595518D01*
G37*
G36*
X178926442Y-109595518D02*
G01*
X178992627Y-109602037D01*
X179162466Y-109653557D01*
X179318991Y-109737222D01*
X179354729Y-109766552D01*
X179456186Y-109849814D01*
X179523158Y-109931421D01*
X179568778Y-109987009D01*
X179652443Y-110143534D01*
X179703963Y-110313373D01*
X179721359Y-110490000D01*
X179703963Y-110666627D01*
X179652443Y-110836466D01*
X179568778Y-110992991D01*
X179539448Y-111028729D01*
X179456186Y-111130186D01*
X179354729Y-111213448D01*
X179318991Y-111242778D01*
X179162466Y-111326443D01*
X178992627Y-111377963D01*
X178926443Y-111384481D01*
X178860260Y-111391000D01*
X178771740Y-111391000D01*
X178705557Y-111384481D01*
X178639373Y-111377963D01*
X178469534Y-111326443D01*
X178313009Y-111242778D01*
X178277271Y-111213448D01*
X178175814Y-111130186D01*
X178092552Y-111028729D01*
X178063222Y-110992991D01*
X177979557Y-110836466D01*
X177928037Y-110666627D01*
X177910641Y-110490000D01*
X177928037Y-110313373D01*
X177979557Y-110143534D01*
X178063222Y-109987009D01*
X178108842Y-109931421D01*
X178175814Y-109849814D01*
X178277271Y-109766552D01*
X178313009Y-109737222D01*
X178469534Y-109653557D01*
X178639373Y-109602037D01*
X178705558Y-109595518D01*
X178771740Y-109589000D01*
X178860260Y-109589000D01*
X178926442Y-109595518D01*
X178926442Y-109595518D01*
G37*
G36*
X174228213Y-109856249D02*
G01*
X174322652Y-109884897D01*
X174409687Y-109931418D01*
X174485975Y-109994025D01*
X174548582Y-110070313D01*
X174595103Y-110157348D01*
X174623751Y-110251787D01*
X174633424Y-110350000D01*
X174623751Y-110448213D01*
X174595103Y-110542652D01*
X174548582Y-110629687D01*
X174485975Y-110705975D01*
X174409687Y-110768582D01*
X174322652Y-110815103D01*
X174228213Y-110843751D01*
X174154612Y-110851000D01*
X172505388Y-110851000D01*
X172431787Y-110843751D01*
X172337348Y-110815103D01*
X172250313Y-110768582D01*
X172174025Y-110705975D01*
X172111418Y-110629687D01*
X172064897Y-110542652D01*
X172036249Y-110448213D01*
X172026576Y-110350000D01*
X172036249Y-110251787D01*
X172064897Y-110157348D01*
X172111418Y-110070313D01*
X172174025Y-109994025D01*
X172250313Y-109931418D01*
X172337348Y-109884897D01*
X172431787Y-109856249D01*
X172505388Y-109849000D01*
X174154612Y-109849000D01*
X174228213Y-109856249D01*
X174228213Y-109856249D01*
G37*
G36*
X156228213Y-109856249D02*
G01*
X156322652Y-109884897D01*
X156409687Y-109931418D01*
X156485975Y-109994025D01*
X156548582Y-110070313D01*
X156595103Y-110157348D01*
X156623751Y-110251787D01*
X156633424Y-110350000D01*
X156623751Y-110448213D01*
X156595103Y-110542652D01*
X156548582Y-110629687D01*
X156485975Y-110705975D01*
X156409687Y-110768582D01*
X156322652Y-110815103D01*
X156228213Y-110843751D01*
X156154612Y-110851000D01*
X154505388Y-110851000D01*
X154431787Y-110843751D01*
X154337348Y-110815103D01*
X154250313Y-110768582D01*
X154174025Y-110705975D01*
X154111418Y-110629687D01*
X154064897Y-110542652D01*
X154036249Y-110448213D01*
X154026576Y-110350000D01*
X154036249Y-110251787D01*
X154064897Y-110157348D01*
X154111418Y-110070313D01*
X154174025Y-109994025D01*
X154250313Y-109931418D01*
X154337348Y-109884897D01*
X154431787Y-109856249D01*
X154505388Y-109849000D01*
X156154612Y-109849000D01*
X156228213Y-109856249D01*
X156228213Y-109856249D01*
G37*
G36*
X174228213Y-108586249D02*
G01*
X174322652Y-108614897D01*
X174409687Y-108661418D01*
X174485975Y-108724025D01*
X174548582Y-108800313D01*
X174595103Y-108887348D01*
X174623751Y-108981787D01*
X174633424Y-109080000D01*
X174623751Y-109178213D01*
X174595103Y-109272652D01*
X174548582Y-109359687D01*
X174485975Y-109435975D01*
X174409687Y-109498582D01*
X174322652Y-109545103D01*
X174228213Y-109573751D01*
X174154612Y-109581000D01*
X172505388Y-109581000D01*
X172431787Y-109573751D01*
X172337348Y-109545103D01*
X172250313Y-109498582D01*
X172174025Y-109435975D01*
X172111418Y-109359687D01*
X172064897Y-109272652D01*
X172036249Y-109178213D01*
X172026576Y-109080000D01*
X172036249Y-108981787D01*
X172064897Y-108887348D01*
X172111418Y-108800313D01*
X172174025Y-108724025D01*
X172250313Y-108661418D01*
X172337348Y-108614897D01*
X172431787Y-108586249D01*
X172505388Y-108579000D01*
X174154612Y-108579000D01*
X174228213Y-108586249D01*
X174228213Y-108586249D01*
G37*
G36*
X156228213Y-108586249D02*
G01*
X156322652Y-108614897D01*
X156409687Y-108661418D01*
X156485975Y-108724025D01*
X156548582Y-108800313D01*
X156595103Y-108887348D01*
X156623751Y-108981787D01*
X156633424Y-109080000D01*
X156623751Y-109178213D01*
X156595103Y-109272652D01*
X156548582Y-109359687D01*
X156485975Y-109435975D01*
X156409687Y-109498582D01*
X156322652Y-109545103D01*
X156228213Y-109573751D01*
X156154612Y-109581000D01*
X154505388Y-109581000D01*
X154431787Y-109573751D01*
X154337348Y-109545103D01*
X154250313Y-109498582D01*
X154174025Y-109435975D01*
X154111418Y-109359687D01*
X154064897Y-109272652D01*
X154036249Y-109178213D01*
X154026576Y-109080000D01*
X154036249Y-108981787D01*
X154064897Y-108887348D01*
X154111418Y-108800313D01*
X154174025Y-108724025D01*
X154250313Y-108661418D01*
X154337348Y-108614897D01*
X154431787Y-108586249D01*
X154505388Y-108579000D01*
X156154612Y-108579000D01*
X156228213Y-108586249D01*
X156228213Y-108586249D01*
G37*
G36*
X178926442Y-107055518D02*
G01*
X178992627Y-107062037D01*
X179162466Y-107113557D01*
X179318991Y-107197222D01*
X179354729Y-107226552D01*
X179456186Y-107309814D01*
X179523158Y-107391421D01*
X179568778Y-107447009D01*
X179652443Y-107603534D01*
X179703963Y-107773373D01*
X179721359Y-107950000D01*
X179703963Y-108126627D01*
X179652443Y-108296466D01*
X179568778Y-108452991D01*
X179539448Y-108488729D01*
X179456186Y-108590186D01*
X179354729Y-108673448D01*
X179318991Y-108702778D01*
X179162466Y-108786443D01*
X178992627Y-108837963D01*
X178926442Y-108844482D01*
X178860260Y-108851000D01*
X178771740Y-108851000D01*
X178705558Y-108844482D01*
X178639373Y-108837963D01*
X178469534Y-108786443D01*
X178313009Y-108702778D01*
X178277271Y-108673448D01*
X178175814Y-108590186D01*
X178092552Y-108488729D01*
X178063222Y-108452991D01*
X177979557Y-108296466D01*
X177928037Y-108126627D01*
X177910641Y-107950000D01*
X177928037Y-107773373D01*
X177979557Y-107603534D01*
X178063222Y-107447009D01*
X178108842Y-107391421D01*
X178175814Y-107309814D01*
X178277271Y-107226552D01*
X178313009Y-107197222D01*
X178469534Y-107113557D01*
X178639373Y-107062037D01*
X178705558Y-107055518D01*
X178771740Y-107049000D01*
X178860260Y-107049000D01*
X178926442Y-107055518D01*
X178926442Y-107055518D01*
G37*
G36*
X149716442Y-107055518D02*
G01*
X149782627Y-107062037D01*
X149952466Y-107113557D01*
X150108991Y-107197222D01*
X150144729Y-107226552D01*
X150246186Y-107309814D01*
X150313158Y-107391421D01*
X150358778Y-107447009D01*
X150442443Y-107603534D01*
X150493963Y-107773373D01*
X150511359Y-107950000D01*
X150493963Y-108126627D01*
X150442443Y-108296466D01*
X150358778Y-108452991D01*
X150329448Y-108488729D01*
X150246186Y-108590186D01*
X150144729Y-108673448D01*
X150108991Y-108702778D01*
X149952466Y-108786443D01*
X149782627Y-108837963D01*
X149716442Y-108844482D01*
X149650260Y-108851000D01*
X149561740Y-108851000D01*
X149495558Y-108844482D01*
X149429373Y-108837963D01*
X149259534Y-108786443D01*
X149103009Y-108702778D01*
X149067271Y-108673448D01*
X148965814Y-108590186D01*
X148882552Y-108488729D01*
X148853222Y-108452991D01*
X148769557Y-108296466D01*
X148718037Y-108126627D01*
X148700641Y-107950000D01*
X148718037Y-107773373D01*
X148769557Y-107603534D01*
X148853222Y-107447009D01*
X148898842Y-107391421D01*
X148965814Y-107309814D01*
X149067271Y-107226552D01*
X149103009Y-107197222D01*
X149259534Y-107113557D01*
X149429373Y-107062037D01*
X149495558Y-107055518D01*
X149561740Y-107049000D01*
X149650260Y-107049000D01*
X149716442Y-107055518D01*
X149716442Y-107055518D01*
G37*
G36*
X156228213Y-107316249D02*
G01*
X156322652Y-107344897D01*
X156409687Y-107391418D01*
X156485975Y-107454025D01*
X156548582Y-107530313D01*
X156595103Y-107617348D01*
X156623751Y-107711787D01*
X156633424Y-107810000D01*
X156623751Y-107908213D01*
X156595103Y-108002652D01*
X156548582Y-108089687D01*
X156485975Y-108165975D01*
X156409687Y-108228582D01*
X156322652Y-108275103D01*
X156228213Y-108303751D01*
X156154612Y-108311000D01*
X154505388Y-108311000D01*
X154431787Y-108303751D01*
X154337348Y-108275103D01*
X154250313Y-108228582D01*
X154174025Y-108165975D01*
X154111418Y-108089687D01*
X154064897Y-108002652D01*
X154036249Y-107908213D01*
X154026576Y-107810000D01*
X154036249Y-107711787D01*
X154064897Y-107617348D01*
X154111418Y-107530313D01*
X154174025Y-107454025D01*
X154250313Y-107391418D01*
X154337348Y-107344897D01*
X154431787Y-107316249D01*
X154505388Y-107309000D01*
X156154612Y-107309000D01*
X156228213Y-107316249D01*
X156228213Y-107316249D01*
G37*
G36*
X174228213Y-107316249D02*
G01*
X174322652Y-107344897D01*
X174409687Y-107391418D01*
X174485975Y-107454025D01*
X174548582Y-107530313D01*
X174595103Y-107617348D01*
X174623751Y-107711787D01*
X174633424Y-107810000D01*
X174623751Y-107908213D01*
X174595103Y-108002652D01*
X174548582Y-108089687D01*
X174485975Y-108165975D01*
X174409687Y-108228582D01*
X174322652Y-108275103D01*
X174228213Y-108303751D01*
X174154612Y-108311000D01*
X172505388Y-108311000D01*
X172431787Y-108303751D01*
X172337348Y-108275103D01*
X172250313Y-108228582D01*
X172174025Y-108165975D01*
X172111418Y-108089687D01*
X172064897Y-108002652D01*
X172036249Y-107908213D01*
X172026576Y-107810000D01*
X172036249Y-107711787D01*
X172064897Y-107617348D01*
X172111418Y-107530313D01*
X172174025Y-107454025D01*
X172250313Y-107391418D01*
X172337348Y-107344897D01*
X172431787Y-107316249D01*
X172505388Y-107309000D01*
X174154612Y-107309000D01*
X174228213Y-107316249D01*
X174228213Y-107316249D01*
G37*
G36*
X174228213Y-106046249D02*
G01*
X174322652Y-106074897D01*
X174409687Y-106121418D01*
X174485975Y-106184025D01*
X174548582Y-106260313D01*
X174595103Y-106347348D01*
X174623751Y-106441787D01*
X174633424Y-106540000D01*
X174623751Y-106638213D01*
X174595103Y-106732652D01*
X174548582Y-106819687D01*
X174485975Y-106895975D01*
X174409687Y-106958582D01*
X174322652Y-107005103D01*
X174228213Y-107033751D01*
X174154612Y-107041000D01*
X172505388Y-107041000D01*
X172431787Y-107033751D01*
X172337348Y-107005103D01*
X172250313Y-106958582D01*
X172174025Y-106895975D01*
X172111418Y-106819687D01*
X172064897Y-106732652D01*
X172036249Y-106638213D01*
X172026576Y-106540000D01*
X172036249Y-106441787D01*
X172064897Y-106347348D01*
X172111418Y-106260313D01*
X172174025Y-106184025D01*
X172250313Y-106121418D01*
X172337348Y-106074897D01*
X172431787Y-106046249D01*
X172505388Y-106039000D01*
X174154612Y-106039000D01*
X174228213Y-106046249D01*
X174228213Y-106046249D01*
G37*
G36*
X156228213Y-106046249D02*
G01*
X156322652Y-106074897D01*
X156409687Y-106121418D01*
X156485975Y-106184025D01*
X156548582Y-106260313D01*
X156595103Y-106347348D01*
X156623751Y-106441787D01*
X156633424Y-106540000D01*
X156623751Y-106638213D01*
X156595103Y-106732652D01*
X156548582Y-106819687D01*
X156485975Y-106895975D01*
X156409687Y-106958582D01*
X156322652Y-107005103D01*
X156228213Y-107033751D01*
X156154612Y-107041000D01*
X154505388Y-107041000D01*
X154431787Y-107033751D01*
X154337348Y-107005103D01*
X154250313Y-106958582D01*
X154174025Y-106895975D01*
X154111418Y-106819687D01*
X154064897Y-106732652D01*
X154036249Y-106638213D01*
X154026576Y-106540000D01*
X154036249Y-106441787D01*
X154064897Y-106347348D01*
X154111418Y-106260313D01*
X154174025Y-106184025D01*
X154250313Y-106121418D01*
X154337348Y-106074897D01*
X154431787Y-106046249D01*
X154505388Y-106039000D01*
X156154612Y-106039000D01*
X156228213Y-106046249D01*
X156228213Y-106046249D01*
G37*
G36*
X178926443Y-104515519D02*
G01*
X178992627Y-104522037D01*
X179162466Y-104573557D01*
X179318991Y-104657222D01*
X179354729Y-104686552D01*
X179456186Y-104769814D01*
X179523158Y-104851421D01*
X179568778Y-104907009D01*
X179652443Y-105063534D01*
X179703963Y-105233373D01*
X179721359Y-105410000D01*
X179703963Y-105586627D01*
X179652443Y-105756466D01*
X179568778Y-105912991D01*
X179539448Y-105948729D01*
X179456186Y-106050186D01*
X179354729Y-106133448D01*
X179318991Y-106162778D01*
X179162466Y-106246443D01*
X178992627Y-106297963D01*
X178926442Y-106304482D01*
X178860260Y-106311000D01*
X178771740Y-106311000D01*
X178705558Y-106304482D01*
X178639373Y-106297963D01*
X178469534Y-106246443D01*
X178313009Y-106162778D01*
X178277271Y-106133448D01*
X178175814Y-106050186D01*
X178092552Y-105948729D01*
X178063222Y-105912991D01*
X177979557Y-105756466D01*
X177928037Y-105586627D01*
X177910641Y-105410000D01*
X177928037Y-105233373D01*
X177979557Y-105063534D01*
X178063222Y-104907009D01*
X178108842Y-104851421D01*
X178175814Y-104769814D01*
X178277271Y-104686552D01*
X178313009Y-104657222D01*
X178469534Y-104573557D01*
X178639373Y-104522037D01*
X178705557Y-104515519D01*
X178771740Y-104509000D01*
X178860260Y-104509000D01*
X178926443Y-104515519D01*
X178926443Y-104515519D01*
G37*
G36*
X149716443Y-104515519D02*
G01*
X149782627Y-104522037D01*
X149952466Y-104573557D01*
X150108991Y-104657222D01*
X150144729Y-104686552D01*
X150246186Y-104769814D01*
X150313158Y-104851421D01*
X150358778Y-104907009D01*
X150442443Y-105063534D01*
X150493963Y-105233373D01*
X150511359Y-105410000D01*
X150493963Y-105586627D01*
X150442443Y-105756466D01*
X150358778Y-105912991D01*
X150329448Y-105948729D01*
X150246186Y-106050186D01*
X150144729Y-106133448D01*
X150108991Y-106162778D01*
X149952466Y-106246443D01*
X149782627Y-106297963D01*
X149716442Y-106304482D01*
X149650260Y-106311000D01*
X149561740Y-106311000D01*
X149495558Y-106304482D01*
X149429373Y-106297963D01*
X149259534Y-106246443D01*
X149103009Y-106162778D01*
X149067271Y-106133448D01*
X148965814Y-106050186D01*
X148882552Y-105948729D01*
X148853222Y-105912991D01*
X148769557Y-105756466D01*
X148718037Y-105586627D01*
X148700641Y-105410000D01*
X148718037Y-105233373D01*
X148769557Y-105063534D01*
X148853222Y-104907009D01*
X148898842Y-104851421D01*
X148965814Y-104769814D01*
X149067271Y-104686552D01*
X149103009Y-104657222D01*
X149259534Y-104573557D01*
X149429373Y-104522037D01*
X149495557Y-104515519D01*
X149561740Y-104509000D01*
X149650260Y-104509000D01*
X149716443Y-104515519D01*
X149716443Y-104515519D01*
G37*
G36*
X167081000Y-105861000D02*
G01*
X160979000Y-105861000D01*
X160979000Y-99759000D01*
X167081000Y-99759000D01*
X167081000Y-105861000D01*
X167081000Y-105861000D01*
G37*
G36*
X156228213Y-104776249D02*
G01*
X156322652Y-104804897D01*
X156409687Y-104851418D01*
X156485975Y-104914025D01*
X156548582Y-104990313D01*
X156595103Y-105077348D01*
X156623751Y-105171787D01*
X156633424Y-105270000D01*
X156623751Y-105368213D01*
X156595103Y-105462652D01*
X156548582Y-105549687D01*
X156485975Y-105625975D01*
X156409687Y-105688582D01*
X156322652Y-105735103D01*
X156228213Y-105763751D01*
X156154612Y-105771000D01*
X154505388Y-105771000D01*
X154431787Y-105763751D01*
X154337348Y-105735103D01*
X154250313Y-105688582D01*
X154174025Y-105625975D01*
X154111418Y-105549687D01*
X154064897Y-105462652D01*
X154036249Y-105368213D01*
X154026576Y-105270000D01*
X154036249Y-105171787D01*
X154064897Y-105077348D01*
X154111418Y-104990313D01*
X154174025Y-104914025D01*
X154250313Y-104851418D01*
X154337348Y-104804897D01*
X154431787Y-104776249D01*
X154505388Y-104769000D01*
X156154612Y-104769000D01*
X156228213Y-104776249D01*
X156228213Y-104776249D01*
G37*
G36*
X174228213Y-104776249D02*
G01*
X174322652Y-104804897D01*
X174409687Y-104851418D01*
X174485975Y-104914025D01*
X174548582Y-104990313D01*
X174595103Y-105077348D01*
X174623751Y-105171787D01*
X174633424Y-105270000D01*
X174623751Y-105368213D01*
X174595103Y-105462652D01*
X174548582Y-105549687D01*
X174485975Y-105625975D01*
X174409687Y-105688582D01*
X174322652Y-105735103D01*
X174228213Y-105763751D01*
X174154612Y-105771000D01*
X172505388Y-105771000D01*
X172431787Y-105763751D01*
X172337348Y-105735103D01*
X172250313Y-105688582D01*
X172174025Y-105625975D01*
X172111418Y-105549687D01*
X172064897Y-105462652D01*
X172036249Y-105368213D01*
X172026576Y-105270000D01*
X172036249Y-105171787D01*
X172064897Y-105077348D01*
X172111418Y-104990313D01*
X172174025Y-104914025D01*
X172250313Y-104851418D01*
X172337348Y-104804897D01*
X172431787Y-104776249D01*
X172505388Y-104769000D01*
X174154612Y-104769000D01*
X174228213Y-104776249D01*
X174228213Y-104776249D01*
G37*
G36*
X174228213Y-103506249D02*
G01*
X174322652Y-103534897D01*
X174409687Y-103581418D01*
X174485975Y-103644025D01*
X174548582Y-103720313D01*
X174595103Y-103807348D01*
X174623751Y-103901787D01*
X174633424Y-104000000D01*
X174623751Y-104098213D01*
X174595103Y-104192652D01*
X174548582Y-104279687D01*
X174485975Y-104355975D01*
X174409687Y-104418582D01*
X174322652Y-104465103D01*
X174228213Y-104493751D01*
X174154612Y-104501000D01*
X172505388Y-104501000D01*
X172431787Y-104493751D01*
X172337348Y-104465103D01*
X172250313Y-104418582D01*
X172174025Y-104355975D01*
X172111418Y-104279687D01*
X172064897Y-104192652D01*
X172036249Y-104098213D01*
X172026576Y-104000000D01*
X172036249Y-103901787D01*
X172064897Y-103807348D01*
X172111418Y-103720313D01*
X172174025Y-103644025D01*
X172250313Y-103581418D01*
X172337348Y-103534897D01*
X172431787Y-103506249D01*
X172505388Y-103499000D01*
X174154612Y-103499000D01*
X174228213Y-103506249D01*
X174228213Y-103506249D01*
G37*
G36*
X156228213Y-103506249D02*
G01*
X156322652Y-103534897D01*
X156409687Y-103581418D01*
X156485975Y-103644025D01*
X156548582Y-103720313D01*
X156595103Y-103807348D01*
X156623751Y-103901787D01*
X156633424Y-104000000D01*
X156623751Y-104098213D01*
X156595103Y-104192652D01*
X156548582Y-104279687D01*
X156485975Y-104355975D01*
X156409687Y-104418582D01*
X156322652Y-104465103D01*
X156228213Y-104493751D01*
X156154612Y-104501000D01*
X154505388Y-104501000D01*
X154431787Y-104493751D01*
X154337348Y-104465103D01*
X154250313Y-104418582D01*
X154174025Y-104355975D01*
X154111418Y-104279687D01*
X154064897Y-104192652D01*
X154036249Y-104098213D01*
X154026576Y-104000000D01*
X154036249Y-103901787D01*
X154064897Y-103807348D01*
X154111418Y-103720313D01*
X154174025Y-103644025D01*
X154250313Y-103581418D01*
X154337348Y-103534897D01*
X154431787Y-103506249D01*
X154505388Y-103499000D01*
X156154612Y-103499000D01*
X156228213Y-103506249D01*
X156228213Y-103506249D01*
G37*
G36*
X149716442Y-101975518D02*
G01*
X149782627Y-101982037D01*
X149952466Y-102033557D01*
X150108991Y-102117222D01*
X150144729Y-102146552D01*
X150246186Y-102229814D01*
X150313158Y-102311421D01*
X150358778Y-102367009D01*
X150442443Y-102523534D01*
X150493963Y-102693373D01*
X150511359Y-102870000D01*
X150493963Y-103046627D01*
X150442443Y-103216466D01*
X150358778Y-103372991D01*
X150329448Y-103408729D01*
X150246186Y-103510186D01*
X150144729Y-103593448D01*
X150108991Y-103622778D01*
X149952466Y-103706443D01*
X149782627Y-103757963D01*
X149716443Y-103764481D01*
X149650260Y-103771000D01*
X149561740Y-103771000D01*
X149495557Y-103764481D01*
X149429373Y-103757963D01*
X149259534Y-103706443D01*
X149103009Y-103622778D01*
X149067271Y-103593448D01*
X148965814Y-103510186D01*
X148882552Y-103408729D01*
X148853222Y-103372991D01*
X148769557Y-103216466D01*
X148718037Y-103046627D01*
X148700641Y-102870000D01*
X148718037Y-102693373D01*
X148769557Y-102523534D01*
X148853222Y-102367009D01*
X148898842Y-102311421D01*
X148965814Y-102229814D01*
X149067271Y-102146552D01*
X149103009Y-102117222D01*
X149259534Y-102033557D01*
X149429373Y-101982037D01*
X149495558Y-101975518D01*
X149561740Y-101969000D01*
X149650260Y-101969000D01*
X149716442Y-101975518D01*
X149716442Y-101975518D01*
G37*
G36*
X178926442Y-101975518D02*
G01*
X178992627Y-101982037D01*
X179162466Y-102033557D01*
X179318991Y-102117222D01*
X179354729Y-102146552D01*
X179456186Y-102229814D01*
X179523158Y-102311421D01*
X179568778Y-102367009D01*
X179652443Y-102523534D01*
X179703963Y-102693373D01*
X179721359Y-102870000D01*
X179703963Y-103046627D01*
X179652443Y-103216466D01*
X179568778Y-103372991D01*
X179539448Y-103408729D01*
X179456186Y-103510186D01*
X179354729Y-103593448D01*
X179318991Y-103622778D01*
X179162466Y-103706443D01*
X178992627Y-103757963D01*
X178926443Y-103764481D01*
X178860260Y-103771000D01*
X178771740Y-103771000D01*
X178705557Y-103764481D01*
X178639373Y-103757963D01*
X178469534Y-103706443D01*
X178313009Y-103622778D01*
X178277271Y-103593448D01*
X178175814Y-103510186D01*
X178092552Y-103408729D01*
X178063222Y-103372991D01*
X177979557Y-103216466D01*
X177928037Y-103046627D01*
X177910641Y-102870000D01*
X177928037Y-102693373D01*
X177979557Y-102523534D01*
X178063222Y-102367009D01*
X178108842Y-102311421D01*
X178175814Y-102229814D01*
X178277271Y-102146552D01*
X178313009Y-102117222D01*
X178469534Y-102033557D01*
X178639373Y-101982037D01*
X178705558Y-101975518D01*
X178771740Y-101969000D01*
X178860260Y-101969000D01*
X178926442Y-101975518D01*
X178926442Y-101975518D01*
G37*
G36*
X156228213Y-102236249D02*
G01*
X156322652Y-102264897D01*
X156409687Y-102311418D01*
X156485975Y-102374025D01*
X156548582Y-102450313D01*
X156595103Y-102537348D01*
X156623751Y-102631787D01*
X156633424Y-102730000D01*
X156623751Y-102828213D01*
X156595103Y-102922652D01*
X156548582Y-103009687D01*
X156485975Y-103085975D01*
X156409687Y-103148582D01*
X156322652Y-103195103D01*
X156228213Y-103223751D01*
X156154612Y-103231000D01*
X154505388Y-103231000D01*
X154431787Y-103223751D01*
X154337348Y-103195103D01*
X154250313Y-103148582D01*
X154174025Y-103085975D01*
X154111418Y-103009687D01*
X154064897Y-102922652D01*
X154036249Y-102828213D01*
X154026576Y-102730000D01*
X154036249Y-102631787D01*
X154064897Y-102537348D01*
X154111418Y-102450313D01*
X154174025Y-102374025D01*
X154250313Y-102311418D01*
X154337348Y-102264897D01*
X154431787Y-102236249D01*
X154505388Y-102229000D01*
X156154612Y-102229000D01*
X156228213Y-102236249D01*
X156228213Y-102236249D01*
G37*
G36*
X174228213Y-102236249D02*
G01*
X174322652Y-102264897D01*
X174409687Y-102311418D01*
X174485975Y-102374025D01*
X174548582Y-102450313D01*
X174595103Y-102537348D01*
X174623751Y-102631787D01*
X174633424Y-102730000D01*
X174623751Y-102828213D01*
X174595103Y-102922652D01*
X174548582Y-103009687D01*
X174485975Y-103085975D01*
X174409687Y-103148582D01*
X174322652Y-103195103D01*
X174228213Y-103223751D01*
X174154612Y-103231000D01*
X172505388Y-103231000D01*
X172431787Y-103223751D01*
X172337348Y-103195103D01*
X172250313Y-103148582D01*
X172174025Y-103085975D01*
X172111418Y-103009687D01*
X172064897Y-102922652D01*
X172036249Y-102828213D01*
X172026576Y-102730000D01*
X172036249Y-102631787D01*
X172064897Y-102537348D01*
X172111418Y-102450313D01*
X172174025Y-102374025D01*
X172250313Y-102311418D01*
X172337348Y-102264897D01*
X172431787Y-102236249D01*
X172505388Y-102229000D01*
X174154612Y-102229000D01*
X174228213Y-102236249D01*
X174228213Y-102236249D01*
G37*
G36*
X174228213Y-100966249D02*
G01*
X174322652Y-100994897D01*
X174409687Y-101041418D01*
X174485975Y-101104025D01*
X174548582Y-101180313D01*
X174595103Y-101267348D01*
X174623751Y-101361787D01*
X174633424Y-101460000D01*
X174623751Y-101558213D01*
X174595103Y-101652652D01*
X174548582Y-101739687D01*
X174485975Y-101815975D01*
X174409687Y-101878582D01*
X174322652Y-101925103D01*
X174228213Y-101953751D01*
X174154612Y-101961000D01*
X172505388Y-101961000D01*
X172431787Y-101953751D01*
X172337348Y-101925103D01*
X172250313Y-101878582D01*
X172174025Y-101815975D01*
X172111418Y-101739687D01*
X172064897Y-101652652D01*
X172036249Y-101558213D01*
X172026576Y-101460000D01*
X172036249Y-101361787D01*
X172064897Y-101267348D01*
X172111418Y-101180313D01*
X172174025Y-101104025D01*
X172250313Y-101041418D01*
X172337348Y-100994897D01*
X172431787Y-100966249D01*
X172505388Y-100959000D01*
X174154612Y-100959000D01*
X174228213Y-100966249D01*
X174228213Y-100966249D01*
G37*
G36*
X156228213Y-100966249D02*
G01*
X156322652Y-100994897D01*
X156409687Y-101041418D01*
X156485975Y-101104025D01*
X156548582Y-101180313D01*
X156595103Y-101267348D01*
X156623751Y-101361787D01*
X156633424Y-101460000D01*
X156623751Y-101558213D01*
X156595103Y-101652652D01*
X156548582Y-101739687D01*
X156485975Y-101815975D01*
X156409687Y-101878582D01*
X156322652Y-101925103D01*
X156228213Y-101953751D01*
X156154612Y-101961000D01*
X154505388Y-101961000D01*
X154431787Y-101953751D01*
X154337348Y-101925103D01*
X154250313Y-101878582D01*
X154174025Y-101815975D01*
X154111418Y-101739687D01*
X154064897Y-101652652D01*
X154036249Y-101558213D01*
X154026576Y-101460000D01*
X154036249Y-101361787D01*
X154064897Y-101267348D01*
X154111418Y-101180313D01*
X154174025Y-101104025D01*
X154250313Y-101041418D01*
X154337348Y-100994897D01*
X154431787Y-100966249D01*
X154505388Y-100959000D01*
X156154612Y-100959000D01*
X156228213Y-100966249D01*
X156228213Y-100966249D01*
G37*
G36*
X149716443Y-99435519D02*
G01*
X149782627Y-99442037D01*
X149952466Y-99493557D01*
X150108991Y-99577222D01*
X150144729Y-99606552D01*
X150246186Y-99689814D01*
X150313158Y-99771421D01*
X150358778Y-99827009D01*
X150442443Y-99983534D01*
X150493963Y-100153373D01*
X150511359Y-100330000D01*
X150493963Y-100506627D01*
X150442443Y-100676466D01*
X150358778Y-100832991D01*
X150329448Y-100868729D01*
X150246186Y-100970186D01*
X150144729Y-101053448D01*
X150108991Y-101082778D01*
X149952466Y-101166443D01*
X149782627Y-101217963D01*
X149716443Y-101224481D01*
X149650260Y-101231000D01*
X149561740Y-101231000D01*
X149495558Y-101224482D01*
X149429373Y-101217963D01*
X149259534Y-101166443D01*
X149103009Y-101082778D01*
X149067271Y-101053448D01*
X148965814Y-100970186D01*
X148882552Y-100868729D01*
X148853222Y-100832991D01*
X148769557Y-100676466D01*
X148718037Y-100506627D01*
X148700641Y-100330000D01*
X148718037Y-100153373D01*
X148769557Y-99983534D01*
X148853222Y-99827009D01*
X148898842Y-99771421D01*
X148965814Y-99689814D01*
X149067271Y-99606552D01*
X149103009Y-99577222D01*
X149259534Y-99493557D01*
X149429373Y-99442037D01*
X149495558Y-99435518D01*
X149561740Y-99429000D01*
X149650260Y-99429000D01*
X149716443Y-99435519D01*
X149716443Y-99435519D01*
G37*
G36*
X178926443Y-99435519D02*
G01*
X178992627Y-99442037D01*
X179162466Y-99493557D01*
X179318991Y-99577222D01*
X179354729Y-99606552D01*
X179456186Y-99689814D01*
X179523158Y-99771421D01*
X179568778Y-99827009D01*
X179652443Y-99983534D01*
X179703963Y-100153373D01*
X179721359Y-100330000D01*
X179703963Y-100506627D01*
X179652443Y-100676466D01*
X179568778Y-100832991D01*
X179539448Y-100868729D01*
X179456186Y-100970186D01*
X179354729Y-101053448D01*
X179318991Y-101082778D01*
X179162466Y-101166443D01*
X178992627Y-101217963D01*
X178926443Y-101224481D01*
X178860260Y-101231000D01*
X178771740Y-101231000D01*
X178705558Y-101224482D01*
X178639373Y-101217963D01*
X178469534Y-101166443D01*
X178313009Y-101082778D01*
X178277271Y-101053448D01*
X178175814Y-100970186D01*
X178092552Y-100868729D01*
X178063222Y-100832991D01*
X177979557Y-100676466D01*
X177928037Y-100506627D01*
X177910641Y-100330000D01*
X177928037Y-100153373D01*
X177979557Y-99983534D01*
X178063222Y-99827009D01*
X178108842Y-99771421D01*
X178175814Y-99689814D01*
X178277271Y-99606552D01*
X178313009Y-99577222D01*
X178469534Y-99493557D01*
X178639373Y-99442037D01*
X178705558Y-99435518D01*
X178771740Y-99429000D01*
X178860260Y-99429000D01*
X178926443Y-99435519D01*
X178926443Y-99435519D01*
G37*
G36*
X153242674Y-99463465D02*
G01*
X153280367Y-99474899D01*
X153315103Y-99493466D01*
X153345548Y-99518452D01*
X153370534Y-99548897D01*
X153389101Y-99583633D01*
X153400535Y-99621326D01*
X153405000Y-99666661D01*
X153405000Y-100503339D01*
X153400535Y-100548674D01*
X153389101Y-100586367D01*
X153370534Y-100621103D01*
X153345548Y-100651548D01*
X153315103Y-100676534D01*
X153280367Y-100695101D01*
X153242674Y-100706535D01*
X153197339Y-100711000D01*
X152110661Y-100711000D01*
X152065326Y-100706535D01*
X152027633Y-100695101D01*
X151992897Y-100676534D01*
X151962452Y-100651548D01*
X151937466Y-100621103D01*
X151918899Y-100586367D01*
X151907465Y-100548674D01*
X151903000Y-100503339D01*
X151903000Y-99666661D01*
X151907465Y-99621326D01*
X151918899Y-99583633D01*
X151937466Y-99548897D01*
X151962452Y-99518452D01*
X151992897Y-99493466D01*
X152027633Y-99474899D01*
X152065326Y-99463465D01*
X152110661Y-99459000D01*
X153197339Y-99459000D01*
X153242674Y-99463465D01*
X153242674Y-99463465D01*
G37*
G36*
X156228213Y-99696249D02*
G01*
X156322652Y-99724897D01*
X156409687Y-99771418D01*
X156485975Y-99834025D01*
X156548582Y-99910313D01*
X156595103Y-99997348D01*
X156623751Y-100091787D01*
X156633424Y-100190000D01*
X156623751Y-100288213D01*
X156595103Y-100382652D01*
X156548582Y-100469687D01*
X156485975Y-100545975D01*
X156409687Y-100608582D01*
X156322652Y-100655103D01*
X156228213Y-100683751D01*
X156154612Y-100691000D01*
X154505388Y-100691000D01*
X154431787Y-100683751D01*
X154337348Y-100655103D01*
X154250313Y-100608582D01*
X154174025Y-100545975D01*
X154111418Y-100469687D01*
X154064897Y-100382652D01*
X154036249Y-100288213D01*
X154026576Y-100190000D01*
X154036249Y-100091787D01*
X154064897Y-99997348D01*
X154111418Y-99910313D01*
X154174025Y-99834025D01*
X154250313Y-99771418D01*
X154337348Y-99724897D01*
X154431787Y-99696249D01*
X154505388Y-99689000D01*
X156154612Y-99689000D01*
X156228213Y-99696249D01*
X156228213Y-99696249D01*
G37*
G36*
X174228213Y-99696249D02*
G01*
X174322652Y-99724897D01*
X174409687Y-99771418D01*
X174485975Y-99834025D01*
X174548582Y-99910313D01*
X174595103Y-99997348D01*
X174623751Y-100091787D01*
X174633424Y-100190000D01*
X174623751Y-100288213D01*
X174595103Y-100382652D01*
X174548582Y-100469687D01*
X174485975Y-100545975D01*
X174409687Y-100608582D01*
X174322652Y-100655103D01*
X174228213Y-100683751D01*
X174154612Y-100691000D01*
X172505388Y-100691000D01*
X172431787Y-100683751D01*
X172337348Y-100655103D01*
X172250313Y-100608582D01*
X172174025Y-100545975D01*
X172111418Y-100469687D01*
X172064897Y-100382652D01*
X172036249Y-100288213D01*
X172026576Y-100190000D01*
X172036249Y-100091787D01*
X172064897Y-99997348D01*
X172111418Y-99910313D01*
X172174025Y-99834025D01*
X172250313Y-99771418D01*
X172337348Y-99724897D01*
X172431787Y-99696249D01*
X172505388Y-99689000D01*
X174154612Y-99689000D01*
X174228213Y-99696249D01*
X174228213Y-99696249D01*
G37*
G36*
X156228213Y-98426249D02*
G01*
X156322652Y-98454897D01*
X156409687Y-98501418D01*
X156485975Y-98564025D01*
X156548582Y-98640313D01*
X156595103Y-98727348D01*
X156623751Y-98821787D01*
X156633424Y-98920000D01*
X156623751Y-99018213D01*
X156595103Y-99112652D01*
X156548582Y-99199687D01*
X156485975Y-99275975D01*
X156409687Y-99338582D01*
X156322652Y-99385103D01*
X156228213Y-99413751D01*
X156154612Y-99421000D01*
X154505388Y-99421000D01*
X154431787Y-99413751D01*
X154337348Y-99385103D01*
X154250313Y-99338582D01*
X154174025Y-99275975D01*
X154111418Y-99199687D01*
X154064897Y-99112652D01*
X154036249Y-99018213D01*
X154026576Y-98920000D01*
X154036249Y-98821787D01*
X154064897Y-98727348D01*
X154111418Y-98640313D01*
X154174025Y-98564025D01*
X154250313Y-98501418D01*
X154337348Y-98454897D01*
X154431787Y-98426249D01*
X154505388Y-98419000D01*
X156154612Y-98419000D01*
X156228213Y-98426249D01*
X156228213Y-98426249D01*
G37*
G36*
X174228213Y-98426249D02*
G01*
X174322652Y-98454897D01*
X174409687Y-98501418D01*
X174485975Y-98564025D01*
X174548582Y-98640313D01*
X174595103Y-98727348D01*
X174623751Y-98821787D01*
X174633424Y-98920000D01*
X174623751Y-99018213D01*
X174595103Y-99112652D01*
X174548582Y-99199687D01*
X174485975Y-99275975D01*
X174409687Y-99338582D01*
X174322652Y-99385103D01*
X174228213Y-99413751D01*
X174154612Y-99421000D01*
X172505388Y-99421000D01*
X172431787Y-99413751D01*
X172337348Y-99385103D01*
X172250313Y-99338582D01*
X172174025Y-99275975D01*
X172111418Y-99199687D01*
X172064897Y-99112652D01*
X172036249Y-99018213D01*
X172026576Y-98920000D01*
X172036249Y-98821787D01*
X172064897Y-98727348D01*
X172111418Y-98640313D01*
X172174025Y-98564025D01*
X172250313Y-98501418D01*
X172337348Y-98454897D01*
X172431787Y-98426249D01*
X172505388Y-98419000D01*
X174154612Y-98419000D01*
X174228213Y-98426249D01*
X174228213Y-98426249D01*
G37*
G36*
X178926442Y-96895518D02*
G01*
X178992627Y-96902037D01*
X179162466Y-96953557D01*
X179318991Y-97037222D01*
X179324854Y-97042034D01*
X179456186Y-97149814D01*
X179523158Y-97231421D01*
X179568778Y-97287009D01*
X179652443Y-97443534D01*
X179703963Y-97613373D01*
X179721359Y-97790000D01*
X179703963Y-97966627D01*
X179652443Y-98136466D01*
X179568778Y-98292991D01*
X179539448Y-98328729D01*
X179456186Y-98430186D01*
X179354729Y-98513448D01*
X179318991Y-98542778D01*
X179162466Y-98626443D01*
X178992627Y-98677963D01*
X178926442Y-98684482D01*
X178860260Y-98691000D01*
X178771740Y-98691000D01*
X178705558Y-98684482D01*
X178639373Y-98677963D01*
X178469534Y-98626443D01*
X178313009Y-98542778D01*
X178277271Y-98513448D01*
X178175814Y-98430186D01*
X178092552Y-98328729D01*
X178063222Y-98292991D01*
X177979557Y-98136466D01*
X177928037Y-97966627D01*
X177910641Y-97790000D01*
X177928037Y-97613373D01*
X177979557Y-97443534D01*
X178063222Y-97287009D01*
X178108842Y-97231421D01*
X178175814Y-97149814D01*
X178307146Y-97042034D01*
X178313009Y-97037222D01*
X178469534Y-96953557D01*
X178639373Y-96902037D01*
X178705558Y-96895518D01*
X178771740Y-96889000D01*
X178860260Y-96889000D01*
X178926442Y-96895518D01*
X178926442Y-96895518D01*
G37*
G36*
X149716442Y-96895518D02*
G01*
X149782627Y-96902037D01*
X149952466Y-96953557D01*
X150108991Y-97037222D01*
X150114854Y-97042034D01*
X150246186Y-97149814D01*
X150313158Y-97231421D01*
X150358778Y-97287009D01*
X150442443Y-97443534D01*
X150493963Y-97613373D01*
X150511359Y-97790000D01*
X150493963Y-97966627D01*
X150442443Y-98136466D01*
X150358778Y-98292991D01*
X150329448Y-98328729D01*
X150246186Y-98430186D01*
X150144729Y-98513448D01*
X150108991Y-98542778D01*
X149952466Y-98626443D01*
X149782627Y-98677963D01*
X149716442Y-98684482D01*
X149650260Y-98691000D01*
X149561740Y-98691000D01*
X149495558Y-98684482D01*
X149429373Y-98677963D01*
X149259534Y-98626443D01*
X149103009Y-98542778D01*
X149067271Y-98513448D01*
X148965814Y-98430186D01*
X148882552Y-98328729D01*
X148853222Y-98292991D01*
X148769557Y-98136466D01*
X148718037Y-97966627D01*
X148700641Y-97790000D01*
X148718037Y-97613373D01*
X148769557Y-97443534D01*
X148853222Y-97287009D01*
X148898842Y-97231421D01*
X148965814Y-97149814D01*
X149097146Y-97042034D01*
X149103009Y-97037222D01*
X149259534Y-96953557D01*
X149429373Y-96902037D01*
X149495558Y-96895518D01*
X149561740Y-96889000D01*
X149650260Y-96889000D01*
X149716442Y-96895518D01*
X149716442Y-96895518D01*
G37*
G36*
X153242674Y-97413465D02*
G01*
X153280367Y-97424899D01*
X153315103Y-97443466D01*
X153345548Y-97468452D01*
X153370534Y-97498897D01*
X153389101Y-97533633D01*
X153400535Y-97571326D01*
X153405000Y-97616661D01*
X153405000Y-98453339D01*
X153400535Y-98498674D01*
X153389101Y-98536367D01*
X153370534Y-98571103D01*
X153345548Y-98601548D01*
X153315103Y-98626534D01*
X153280367Y-98645101D01*
X153242674Y-98656535D01*
X153197339Y-98661000D01*
X152110661Y-98661000D01*
X152065326Y-98656535D01*
X152027633Y-98645101D01*
X151992897Y-98626534D01*
X151962452Y-98601548D01*
X151937466Y-98571103D01*
X151918899Y-98536367D01*
X151907465Y-98498674D01*
X151903000Y-98453339D01*
X151903000Y-97616661D01*
X151907465Y-97571326D01*
X151918899Y-97533633D01*
X151937466Y-97498897D01*
X151962452Y-97468452D01*
X151992897Y-97443466D01*
X152027633Y-97424899D01*
X152065326Y-97413465D01*
X152110661Y-97409000D01*
X153197339Y-97409000D01*
X153242674Y-97413465D01*
X153242674Y-97413465D01*
G37*
G36*
X174228213Y-97156249D02*
G01*
X174322652Y-97184897D01*
X174409687Y-97231418D01*
X174485975Y-97294025D01*
X174548582Y-97370313D01*
X174595103Y-97457348D01*
X174623751Y-97551787D01*
X174633424Y-97650000D01*
X174623751Y-97748213D01*
X174595103Y-97842652D01*
X174548582Y-97929687D01*
X174485975Y-98005975D01*
X174409687Y-98068582D01*
X174322652Y-98115103D01*
X174228213Y-98143751D01*
X174154612Y-98151000D01*
X172505388Y-98151000D01*
X172431787Y-98143751D01*
X172337348Y-98115103D01*
X172250313Y-98068582D01*
X172174025Y-98005975D01*
X172111418Y-97929687D01*
X172064897Y-97842652D01*
X172036249Y-97748213D01*
X172026576Y-97650000D01*
X172036249Y-97551787D01*
X172064897Y-97457348D01*
X172111418Y-97370313D01*
X172174025Y-97294025D01*
X172250313Y-97231418D01*
X172337348Y-97184897D01*
X172431787Y-97156249D01*
X172505388Y-97149000D01*
X174154612Y-97149000D01*
X174228213Y-97156249D01*
X174228213Y-97156249D01*
G37*
G36*
X156228213Y-97156249D02*
G01*
X156322652Y-97184897D01*
X156409687Y-97231418D01*
X156485975Y-97294025D01*
X156548582Y-97370313D01*
X156595103Y-97457348D01*
X156623751Y-97551787D01*
X156633424Y-97650000D01*
X156623751Y-97748213D01*
X156595103Y-97842652D01*
X156548582Y-97929687D01*
X156485975Y-98005975D01*
X156409687Y-98068582D01*
X156322652Y-98115103D01*
X156228213Y-98143751D01*
X156154612Y-98151000D01*
X154505388Y-98151000D01*
X154431787Y-98143751D01*
X154337348Y-98115103D01*
X154250313Y-98068582D01*
X154174025Y-98005975D01*
X154111418Y-97929687D01*
X154064897Y-97842652D01*
X154036249Y-97748213D01*
X154026576Y-97650000D01*
X154036249Y-97551787D01*
X154064897Y-97457348D01*
X154111418Y-97370313D01*
X154174025Y-97294025D01*
X154250313Y-97231418D01*
X154337348Y-97184897D01*
X154431787Y-97156249D01*
X154505388Y-97149000D01*
X156154612Y-97149000D01*
X156228213Y-97156249D01*
X156228213Y-97156249D01*
G37*
G36*
X153242674Y-95828965D02*
G01*
X153280367Y-95840399D01*
X153315103Y-95858966D01*
X153345548Y-95883952D01*
X153370534Y-95914397D01*
X153389101Y-95949133D01*
X153400535Y-95986826D01*
X153405000Y-96032161D01*
X153405000Y-96868839D01*
X153400535Y-96914174D01*
X153389101Y-96951867D01*
X153370534Y-96986603D01*
X153345548Y-97017048D01*
X153315103Y-97042034D01*
X153280367Y-97060601D01*
X153242674Y-97072035D01*
X153197339Y-97076500D01*
X152110661Y-97076500D01*
X152065326Y-97072035D01*
X152027633Y-97060601D01*
X151992897Y-97042034D01*
X151962452Y-97017048D01*
X151937466Y-96986603D01*
X151918899Y-96951867D01*
X151907465Y-96914174D01*
X151903000Y-96868839D01*
X151903000Y-96032161D01*
X151907465Y-95986826D01*
X151918899Y-95949133D01*
X151937466Y-95914397D01*
X151962452Y-95883952D01*
X151992897Y-95858966D01*
X152027633Y-95840399D01*
X152065326Y-95828965D01*
X152110661Y-95824500D01*
X153197339Y-95824500D01*
X153242674Y-95828965D01*
X153242674Y-95828965D01*
G37*
G36*
X174228213Y-95886249D02*
G01*
X174322652Y-95914897D01*
X174409687Y-95961418D01*
X174485975Y-96024025D01*
X174548582Y-96100313D01*
X174595103Y-96187348D01*
X174623751Y-96281787D01*
X174633424Y-96380000D01*
X174623751Y-96478213D01*
X174595103Y-96572652D01*
X174548582Y-96659687D01*
X174485975Y-96735975D01*
X174409687Y-96798582D01*
X174322652Y-96845103D01*
X174228213Y-96873751D01*
X174154612Y-96881000D01*
X172505388Y-96881000D01*
X172431787Y-96873751D01*
X172337348Y-96845103D01*
X172250313Y-96798582D01*
X172174025Y-96735975D01*
X172111418Y-96659687D01*
X172064897Y-96572652D01*
X172036249Y-96478213D01*
X172026576Y-96380000D01*
X172036249Y-96281787D01*
X172064897Y-96187348D01*
X172111418Y-96100313D01*
X172174025Y-96024025D01*
X172250313Y-95961418D01*
X172337348Y-95914897D01*
X172431787Y-95886249D01*
X172505388Y-95879000D01*
X174154612Y-95879000D01*
X174228213Y-95886249D01*
X174228213Y-95886249D01*
G37*
G36*
X156228213Y-95886249D02*
G01*
X156322652Y-95914897D01*
X156409687Y-95961418D01*
X156485975Y-96024025D01*
X156548582Y-96100313D01*
X156595103Y-96187348D01*
X156623751Y-96281787D01*
X156633424Y-96380000D01*
X156623751Y-96478213D01*
X156595103Y-96572652D01*
X156548582Y-96659687D01*
X156485975Y-96735975D01*
X156409687Y-96798582D01*
X156322652Y-96845103D01*
X156228213Y-96873751D01*
X156154612Y-96881000D01*
X154505388Y-96881000D01*
X154431787Y-96873751D01*
X154337348Y-96845103D01*
X154250313Y-96798582D01*
X154174025Y-96735975D01*
X154111418Y-96659687D01*
X154064897Y-96572652D01*
X154036249Y-96478213D01*
X154026576Y-96380000D01*
X154036249Y-96281787D01*
X154064897Y-96187348D01*
X154111418Y-96100313D01*
X154174025Y-96024025D01*
X154250313Y-95961418D01*
X154337348Y-95914897D01*
X154431787Y-95886249D01*
X154505388Y-95879000D01*
X156154612Y-95879000D01*
X156228213Y-95886249D01*
X156228213Y-95886249D01*
G37*
G36*
X150507000Y-96151000D02*
G01*
X148705000Y-96151000D01*
X148705000Y-94349000D01*
X150507000Y-94349000D01*
X150507000Y-96151000D01*
X150507000Y-96151000D01*
G37*
G36*
X179717000Y-96151000D02*
G01*
X177915000Y-96151000D01*
X177915000Y-94349000D01*
X179717000Y-94349000D01*
X179717000Y-96151000D01*
X179717000Y-96151000D01*
G37*
G36*
X156228213Y-94616249D02*
G01*
X156322652Y-94644897D01*
X156409687Y-94691418D01*
X156485975Y-94754025D01*
X156548582Y-94830313D01*
X156595103Y-94917348D01*
X156623751Y-95011787D01*
X156633424Y-95110000D01*
X156623751Y-95208213D01*
X156595103Y-95302652D01*
X156548582Y-95389687D01*
X156485975Y-95465975D01*
X156409687Y-95528582D01*
X156322652Y-95575103D01*
X156228213Y-95603751D01*
X156154612Y-95611000D01*
X154505388Y-95611000D01*
X154431787Y-95603751D01*
X154337348Y-95575103D01*
X154250313Y-95528582D01*
X154174025Y-95465975D01*
X154111418Y-95389687D01*
X154064897Y-95302652D01*
X154036249Y-95208213D01*
X154026576Y-95110000D01*
X154036249Y-95011787D01*
X154064897Y-94917348D01*
X154111418Y-94830313D01*
X154174025Y-94754025D01*
X154250313Y-94691418D01*
X154337348Y-94644897D01*
X154431787Y-94616249D01*
X154505388Y-94609000D01*
X156154612Y-94609000D01*
X156228213Y-94616249D01*
X156228213Y-94616249D01*
G37*
G36*
X174228213Y-94616249D02*
G01*
X174322652Y-94644897D01*
X174409687Y-94691418D01*
X174485975Y-94754025D01*
X174548582Y-94830313D01*
X174595103Y-94917348D01*
X174623751Y-95011787D01*
X174633424Y-95110000D01*
X174623751Y-95208213D01*
X174595103Y-95302652D01*
X174548582Y-95389687D01*
X174485975Y-95465975D01*
X174409687Y-95528582D01*
X174322652Y-95575103D01*
X174228213Y-95603751D01*
X174154612Y-95611000D01*
X172505388Y-95611000D01*
X172431787Y-95603751D01*
X172337348Y-95575103D01*
X172250313Y-95528582D01*
X172174025Y-95465975D01*
X172111418Y-95389687D01*
X172064897Y-95302652D01*
X172036249Y-95208213D01*
X172026576Y-95110000D01*
X172036249Y-95011787D01*
X172064897Y-94917348D01*
X172111418Y-94830313D01*
X172174025Y-94754025D01*
X172250313Y-94691418D01*
X172337348Y-94644897D01*
X172431787Y-94616249D01*
X172505388Y-94609000D01*
X174154612Y-94609000D01*
X174228213Y-94616249D01*
X174228213Y-94616249D01*
G37*
G36*
X153242674Y-93778965D02*
G01*
X153280367Y-93790399D01*
X153315103Y-93808966D01*
X153345548Y-93833952D01*
X153370534Y-93864397D01*
X153389101Y-93899133D01*
X153400535Y-93936826D01*
X153405000Y-93982161D01*
X153405000Y-94818839D01*
X153400535Y-94864174D01*
X153389101Y-94901867D01*
X153370534Y-94936603D01*
X153345548Y-94967048D01*
X153315103Y-94992034D01*
X153280367Y-95010601D01*
X153242674Y-95022035D01*
X153197339Y-95026500D01*
X152110661Y-95026500D01*
X152065326Y-95022035D01*
X152027633Y-95010601D01*
X151992897Y-94992034D01*
X151962452Y-94967048D01*
X151937466Y-94936603D01*
X151918899Y-94901867D01*
X151907465Y-94864174D01*
X151903000Y-94818839D01*
X151903000Y-93982161D01*
X151907465Y-93936826D01*
X151918899Y-93899133D01*
X151937466Y-93864397D01*
X151962452Y-93833952D01*
X151992897Y-93808966D01*
X152027633Y-93790399D01*
X152065326Y-93778965D01*
X152110661Y-93774500D01*
X153197339Y-93774500D01*
X153242674Y-93778965D01*
X153242674Y-93778965D01*
G37*
M02*
