G04 #@! TF.GenerationSoftware,KiCad,Pcbnew,(5.1.2)-1*
G04 #@! TF.CreationDate,2019-07-08T23:37:35+09:00*
G04 #@! TF.ProjectId,ESP32-breakout-SMD,45535033-322d-4627-9265-616b6f75742d,rev?*
G04 #@! TF.SameCoordinates,Original*
G04 #@! TF.FileFunction,Copper,L2,Bot*
G04 #@! TF.FilePolarity,Positive*
%FSLAX46Y46*%
G04 Gerber Fmt 4.6, Leading zero omitted, Abs format (unit mm)*
G04 Created by KiCad (PCBNEW (5.1.2)-1) date 2019-07-08 23:37:35*
%MOMM*%
%LPD*%
G04 APERTURE LIST*
%ADD10R,1.700000X1.700000*%
%ADD11O,1.700000X1.700000*%
%ADD12C,0.800000*%
%ADD13C,2.200000*%
%ADD14C,1.000000*%
%ADD15C,0.250000*%
%ADD16C,0.500000*%
%ADD17C,0.254000*%
G04 APERTURE END LIST*
D10*
X166217600Y-128270000D03*
X163423600Y-128244600D03*
X160578800Y-128244600D03*
D11*
X149606000Y-128270000D03*
X149606000Y-125730000D03*
X149606000Y-123190000D03*
X149606000Y-120650000D03*
X149606000Y-118110000D03*
X149606000Y-115570000D03*
X149606000Y-113030000D03*
X149606000Y-110490000D03*
X149606000Y-107950000D03*
X149606000Y-105410000D03*
X149606000Y-102870000D03*
X149606000Y-100330000D03*
X149606000Y-97790000D03*
D10*
X149606000Y-95250000D03*
D11*
X178816000Y-128270000D03*
X178816000Y-125730000D03*
X178816000Y-123190000D03*
X178816000Y-120650000D03*
X178816000Y-118110000D03*
X178816000Y-115570000D03*
X178816000Y-113030000D03*
X178816000Y-110490000D03*
X178816000Y-107950000D03*
X178816000Y-105410000D03*
X178816000Y-102870000D03*
X178816000Y-100330000D03*
X178816000Y-97790000D03*
D10*
X178816000Y-95250000D03*
D12*
X147574000Y-133096000D03*
X166624000Y-125222000D03*
X164541200Y-125222000D03*
D13*
X164033200Y-122555000D03*
D12*
X168656000Y-131572000D03*
D13*
X164084000Y-102743000D03*
D12*
X166370000Y-100584000D03*
X166370000Y-102616000D03*
X164846000Y-107950000D03*
X166370000Y-104902000D03*
X164846000Y-110490000D03*
X153924000Y-94742000D03*
X167386000Y-107950000D03*
X162306000Y-107950000D03*
X159766000Y-95250000D03*
X167386000Y-95250000D03*
X169926000Y-95250000D03*
X162306000Y-110490000D03*
X159766000Y-97790000D03*
X162306000Y-97790000D03*
X164846000Y-97790000D03*
X167386000Y-97790000D03*
X174498000Y-115824000D03*
X174498000Y-118110000D03*
X171958000Y-113411000D03*
X171196000Y-108458000D03*
X174498000Y-121412000D03*
X159766000Y-102616000D03*
X159766000Y-105410000D03*
X160401000Y-107950000D03*
X160401000Y-110490000D03*
X181102000Y-94996000D03*
X147574000Y-94996000D03*
X181102000Y-97536000D03*
X147574000Y-97536000D03*
X181102000Y-100076000D03*
X147574000Y-100076000D03*
X181102000Y-102616000D03*
X147574000Y-102616000D03*
X181102000Y-105156000D03*
X147574000Y-105156000D03*
X181102000Y-107696000D03*
X147574000Y-107696000D03*
X181102000Y-110236000D03*
X147574000Y-110236000D03*
X181102000Y-112776000D03*
X147574000Y-112776000D03*
X181102000Y-115316000D03*
X147574000Y-115316000D03*
X181102000Y-117856000D03*
X147574000Y-117856000D03*
X181102000Y-120396000D03*
X147574000Y-120396000D03*
X181102000Y-122936000D03*
X147574000Y-122936000D03*
X181102000Y-125476000D03*
X147574000Y-125476000D03*
X181102000Y-128016000D03*
X147574000Y-128016000D03*
X181102000Y-130556000D03*
X147574000Y-130556000D03*
X181102000Y-135763000D03*
X147574000Y-135763000D03*
X147574000Y-138303000D03*
X173482000Y-142671800D03*
X176022000Y-142671800D03*
X178562000Y-142671800D03*
X150114000Y-142722600D03*
X152654000Y-142722600D03*
X160274000Y-142671800D03*
X162814000Y-142671800D03*
X165354000Y-142671800D03*
X172212000Y-95250000D03*
X174752000Y-95250000D03*
X177292000Y-95250000D03*
X157226000Y-95250000D03*
X157226000Y-95250000D03*
X150876000Y-99060000D03*
X181102000Y-133096000D03*
X176276000Y-127508000D03*
X152298400Y-127152400D03*
X170789600Y-132537200D03*
X166624000Y-129540000D03*
X170688000Y-129540000D03*
X172720000Y-127508000D03*
X168656000Y-129540000D03*
X170789600Y-134670800D03*
X168910000Y-133731000D03*
X165100000Y-95250000D03*
X162560000Y-95250000D03*
X155498800Y-128600200D03*
X151638000Y-100076000D03*
X153416000Y-99568000D03*
X152400000Y-101092000D03*
X151384000Y-101092000D03*
X150876000Y-96266000D03*
X154940000Y-114046000D03*
X168656000Y-127508000D03*
X170688000Y-127508000D03*
X168656000Y-125222000D03*
X172720000Y-125222000D03*
X164084000Y-104902000D03*
X164084000Y-100584000D03*
X161798000Y-102616000D03*
X161798000Y-104902000D03*
X161798000Y-100584000D03*
X155498800Y-131267200D03*
X181102000Y-138303000D03*
X172720000Y-129540000D03*
X169291000Y-110490000D03*
X169291000Y-107950000D03*
X168910000Y-104902000D03*
X168910000Y-102616000D03*
X168910000Y-100584000D03*
X170180000Y-120142000D03*
X176276000Y-125222000D03*
X169418000Y-116840000D03*
X167132000Y-118872000D03*
X172720000Y-118110000D03*
X161747200Y-125171200D03*
X154432000Y-122936000D03*
X152654000Y-140868400D03*
X152908000Y-130810000D03*
X162814000Y-140843000D03*
X176022000Y-140944600D03*
X176022000Y-138658600D03*
X176022000Y-123444000D03*
X168910000Y-106553000D03*
X154432000Y-120904000D03*
X153035000Y-124206000D03*
X155956000Y-112903000D03*
X174244000Y-114046000D03*
X175514000Y-102362000D03*
X176530000Y-103505000D03*
X171196000Y-102616000D03*
X164084000Y-106680000D03*
X167386000Y-110490000D03*
X156464000Y-119126000D03*
X167132000Y-115062000D03*
X171196000Y-110490000D03*
X166624000Y-122936000D03*
X168656000Y-122936000D03*
X166573200Y-121056400D03*
X170789600Y-122936000D03*
X170738800Y-125222000D03*
X172720000Y-120192800D03*
X172669200Y-122885200D03*
X161290000Y-122732800D03*
X164236400Y-119532400D03*
X152247600Y-129387600D03*
X154533600Y-124764800D03*
X153974800Y-126034800D03*
X162407600Y-121005600D03*
X150114000Y-140868400D03*
X160274000Y-140843000D03*
X165354000Y-140843000D03*
X178562000Y-140944600D03*
X173482000Y-140944600D03*
X150114000Y-138582400D03*
X178562000Y-138658600D03*
X152654000Y-138582400D03*
X157226000Y-132892800D03*
X158089600Y-139090400D03*
X154228800Y-135331200D03*
X157632400Y-128930400D03*
X157480000Y-130810000D03*
X157124400Y-126492000D03*
X173482000Y-138684000D03*
X171297600Y-139293600D03*
X170129200Y-130911600D03*
X153517600Y-132588000D03*
X157886400Y-134721600D03*
X148742400Y-134366000D03*
X178663600Y-131876800D03*
X148945600Y-139750800D03*
X179730400Y-139649200D03*
X167030400Y-132892800D03*
X166827200Y-131216400D03*
X159512000Y-126288800D03*
X172669200Y-132537200D03*
X167081200Y-135432800D03*
X167081200Y-137261600D03*
X169164000Y-137515600D03*
X169011600Y-135636000D03*
X158546800Y-141935200D03*
X159308800Y-130810000D03*
X159258000Y-132994400D03*
X164744400Y-131216400D03*
X164744400Y-132943600D03*
X161950400Y-130810000D03*
X161950400Y-132994400D03*
X175514000Y-133096000D03*
X175514000Y-131013200D03*
X157226000Y-97790000D03*
X161899600Y-117144800D03*
X157226000Y-106680000D03*
X157226000Y-105410000D03*
X157226000Y-104140000D03*
X157226000Y-100330000D03*
X157226000Y-99060000D03*
X171196000Y-98806000D03*
X174650400Y-126441200D03*
X171196000Y-100076000D03*
X176377600Y-129743200D03*
X171196000Y-101346000D03*
X171196000Y-103886000D03*
X171196000Y-105156000D03*
X171196000Y-106426000D03*
D14*
X151275999Y-98660001D02*
X150876000Y-99060000D01*
X151275999Y-96919999D02*
X151275999Y-98660001D01*
X149606000Y-95250000D02*
X151275999Y-96919999D01*
D15*
X148590000Y-99060000D02*
X147574000Y-100076000D01*
X150876000Y-99060000D02*
X148590000Y-99060000D01*
X150970999Y-96614999D02*
X151275999Y-96919999D01*
X148495001Y-96614999D02*
X150970999Y-96614999D01*
X147574000Y-97536000D02*
X148495001Y-96614999D01*
D14*
X150529197Y-94742000D02*
X150033182Y-95238015D01*
X153924000Y-94742000D02*
X150529197Y-94742000D01*
X150001974Y-95534058D02*
X150022968Y-95285170D01*
X149972572Y-95558886D02*
X150001974Y-95534058D01*
X153416000Y-99568000D02*
X153416000Y-99002315D01*
X153416000Y-99002315D02*
X149972572Y-95558886D01*
X153416000Y-99568000D02*
X153416000Y-98044000D01*
X153416000Y-98044000D02*
X150876000Y-95504000D01*
D15*
X169291000Y-116713000D02*
X169418000Y-116840000D01*
X169291000Y-110490000D02*
X169291000Y-116713000D01*
D16*
X157226000Y-97790000D02*
X157226000Y-97801998D01*
X156826001Y-98189999D02*
X157226000Y-97790000D01*
X155675989Y-99340011D02*
X156826001Y-98189999D01*
X150455999Y-101179999D02*
X150455999Y-101795997D01*
X149606000Y-100330000D02*
X150455999Y-101179999D01*
X150455999Y-101795997D02*
X150829992Y-102169990D01*
X155132010Y-102169990D02*
X155675989Y-101626011D01*
X150829992Y-102169990D02*
X155132010Y-102169990D01*
X155675989Y-101626011D02*
X155675989Y-99340011D01*
X157226000Y-97790000D02*
X160947999Y-101511999D01*
X160947999Y-101511999D02*
X160947999Y-107099999D01*
X160947999Y-107099999D02*
X161251001Y-107403001D01*
X161251001Y-116496201D02*
X161251001Y-107403001D01*
X161899600Y-117144800D02*
X161251001Y-116496201D01*
X153162000Y-114554000D02*
X149606000Y-118110000D01*
X153162000Y-107188000D02*
X153162000Y-114554000D01*
X157226000Y-106680000D02*
X153670000Y-106680000D01*
X153670000Y-106680000D02*
X153162000Y-107188000D01*
X159228800Y-128244600D02*
X160578800Y-128244600D01*
X158242000Y-127257800D02*
X159228800Y-128244600D01*
X158242000Y-108261685D02*
X158242000Y-127257800D01*
X157226000Y-107245685D02*
X158242000Y-108261685D01*
X157226000Y-106680000D02*
X157226000Y-107245685D01*
X152146000Y-113030000D02*
X149606000Y-115570000D01*
X152146000Y-105918000D02*
X152146000Y-113030000D01*
X157226000Y-105410000D02*
X152654000Y-105410000D01*
X152654000Y-105410000D02*
X152146000Y-105918000D01*
X159158001Y-107353999D02*
X159158001Y-124371999D01*
X157226000Y-105421998D02*
X159158001Y-107353999D01*
X157226000Y-105410000D02*
X157226000Y-105421998D01*
X159158001Y-124371999D02*
X159181997Y-124371999D01*
X159158001Y-124371999D02*
X159158001Y-124422799D01*
X163030602Y-128244600D02*
X163423600Y-128244600D01*
X159158001Y-124371999D02*
X163030602Y-128244600D01*
X150455999Y-112180001D02*
X149606000Y-113030000D01*
X151130000Y-110720910D02*
X150455999Y-112180001D01*
X151130000Y-104902000D02*
X151130000Y-110720910D01*
X157226000Y-104140000D02*
X152400000Y-104140000D01*
X152400000Y-104140000D02*
X151130000Y-104902000D01*
X156826001Y-99459999D02*
X157226000Y-99060000D01*
X156375999Y-99910001D02*
X156826001Y-99459999D01*
X156375999Y-101942001D02*
X156375999Y-99910001D01*
X155448000Y-102870000D02*
X156375999Y-101942001D01*
X149606000Y-102870000D02*
X155448000Y-102870000D01*
X174608481Y-126399281D02*
X174650400Y-126441200D01*
X174608481Y-123004479D02*
X174608481Y-126399281D01*
X173647999Y-122043997D02*
X174608481Y-123004479D01*
X173647999Y-117767999D02*
X173647999Y-122043997D01*
X170630315Y-98806000D02*
X170345999Y-99090316D01*
X171196000Y-98806000D02*
X170630315Y-98806000D01*
X170345999Y-99090316D02*
X170345999Y-114973999D01*
X172631999Y-117259999D02*
X173139999Y-117259999D01*
X170345999Y-114973999D02*
X172631999Y-117259999D01*
X173139999Y-117259999D02*
X173647999Y-117767999D01*
X169633001Y-97955999D02*
X167220001Y-100368999D01*
X171604001Y-97955999D02*
X169633001Y-97955999D01*
X168567999Y-116177999D02*
X168567999Y-120053999D01*
X170599999Y-126657999D02*
X171096001Y-126657999D01*
X172046001Y-98397999D02*
X171604001Y-97955999D01*
X172046001Y-99225999D02*
X172046001Y-98397999D01*
X171196000Y-100076000D02*
X172046001Y-99225999D01*
X168582001Y-114977999D02*
X168582001Y-116163997D01*
X167220001Y-106857997D02*
X166535999Y-107541999D01*
X169837999Y-121323999D02*
X169837999Y-125895999D01*
X166535999Y-107541999D02*
X166535999Y-112931997D01*
X166535999Y-112931997D02*
X168582001Y-114977999D01*
X168582001Y-116163997D02*
X168567999Y-116177999D01*
X168567999Y-120053999D02*
X169837999Y-121323999D01*
X167220001Y-100368999D02*
X167220001Y-106857997D01*
X169837999Y-125895999D02*
X170599999Y-126657999D01*
X171096001Y-126657999D02*
X173292399Y-126657999D01*
X173292399Y-126657999D02*
X176377600Y-129743200D01*
X177966001Y-107100001D02*
X178816000Y-107950000D01*
X177515999Y-106649999D02*
X177966001Y-107100001D01*
X177515999Y-102585999D02*
X177515999Y-106649999D01*
X176276000Y-101346000D02*
X177515999Y-102585999D01*
X171196000Y-101346000D02*
X176276000Y-101346000D01*
X176530000Y-110998000D02*
X178816000Y-113030000D01*
X176530000Y-104648000D02*
X176530000Y-110998000D01*
X171196000Y-103886000D02*
X175260000Y-103886000D01*
X175260000Y-103886000D02*
X176530000Y-104648000D01*
X177966001Y-114720001D02*
X178816000Y-115570000D01*
X175768000Y-113030000D02*
X177966001Y-114720001D01*
X175768000Y-105664000D02*
X175768000Y-113030000D01*
X171196000Y-105156000D02*
X175006000Y-105156000D01*
X175006000Y-105156000D02*
X175768000Y-105664000D01*
X177966001Y-117260001D02*
X178816000Y-118110000D01*
X177515999Y-116809999D02*
X177966001Y-117260001D01*
X171196000Y-106426000D02*
X171595999Y-106825999D01*
X171595999Y-106825999D02*
X174643999Y-106825999D01*
X174643999Y-106825999D02*
X175006000Y-107188000D01*
X175006000Y-107188000D02*
X175006000Y-113549998D01*
X175006000Y-113549998D02*
X177515999Y-116059997D01*
X177515999Y-116059997D02*
X177515999Y-116809999D01*
D17*
G36*
X148121000Y-94964250D02*
G01*
X148279750Y-95123000D01*
X149479000Y-95123000D01*
X149479000Y-95103000D01*
X149733000Y-95103000D01*
X149733000Y-95123000D01*
X150932250Y-95123000D01*
X151091000Y-94964250D01*
X151094012Y-94411000D01*
X177327988Y-94411000D01*
X177331000Y-94964250D01*
X177489750Y-95123000D01*
X178689000Y-95123000D01*
X178689000Y-95103000D01*
X178943000Y-95103000D01*
X178943000Y-95123000D01*
X180142250Y-95123000D01*
X180301000Y-94964250D01*
X180304012Y-94411000D01*
X180560496Y-94411000D01*
X180706992Y-94425364D01*
X180815670Y-94458176D01*
X180915918Y-94511479D01*
X181003897Y-94583232D01*
X181076263Y-94670707D01*
X181130263Y-94770579D01*
X181163833Y-94879027D01*
X181179000Y-95023331D01*
X181179001Y-142825000D01*
X147497000Y-142825000D01*
X147497000Y-134131000D01*
X147675939Y-134131000D01*
X147875898Y-134091226D01*
X148064256Y-134013205D01*
X148233774Y-133899937D01*
X148377937Y-133755774D01*
X148491205Y-133586256D01*
X148569226Y-133397898D01*
X148609000Y-133197939D01*
X148609000Y-132994061D01*
X148569226Y-132794102D01*
X148491205Y-132605744D01*
X148377937Y-132436226D01*
X148233774Y-132292063D01*
X148064256Y-132178795D01*
X147875898Y-132100774D01*
X147675939Y-132061000D01*
X147497000Y-132061000D01*
X147497000Y-97790000D01*
X148113815Y-97790000D01*
X148142487Y-98081111D01*
X148227401Y-98361034D01*
X148365294Y-98619014D01*
X148550866Y-98845134D01*
X148776986Y-99030706D01*
X148831791Y-99060000D01*
X148776986Y-99089294D01*
X148550866Y-99274866D01*
X148365294Y-99500986D01*
X148227401Y-99758966D01*
X148142487Y-100038889D01*
X148113815Y-100330000D01*
X148142487Y-100621111D01*
X148227401Y-100901034D01*
X148365294Y-101159014D01*
X148550866Y-101385134D01*
X148776986Y-101570706D01*
X148831791Y-101600000D01*
X148776986Y-101629294D01*
X148550866Y-101814866D01*
X148365294Y-102040986D01*
X148227401Y-102298966D01*
X148142487Y-102578889D01*
X148113815Y-102870000D01*
X148142487Y-103161111D01*
X148227401Y-103441034D01*
X148365294Y-103699014D01*
X148550866Y-103925134D01*
X148776986Y-104110706D01*
X148831791Y-104140000D01*
X148776986Y-104169294D01*
X148550866Y-104354866D01*
X148365294Y-104580986D01*
X148227401Y-104838966D01*
X148142487Y-105118889D01*
X148113815Y-105410000D01*
X148142487Y-105701111D01*
X148227401Y-105981034D01*
X148365294Y-106239014D01*
X148550866Y-106465134D01*
X148776986Y-106650706D01*
X148831791Y-106680000D01*
X148776986Y-106709294D01*
X148550866Y-106894866D01*
X148365294Y-107120986D01*
X148227401Y-107378966D01*
X148142487Y-107658889D01*
X148113815Y-107950000D01*
X148142487Y-108241111D01*
X148227401Y-108521034D01*
X148365294Y-108779014D01*
X148550866Y-109005134D01*
X148776986Y-109190706D01*
X148831791Y-109220000D01*
X148776986Y-109249294D01*
X148550866Y-109434866D01*
X148365294Y-109660986D01*
X148227401Y-109918966D01*
X148142487Y-110198889D01*
X148113815Y-110490000D01*
X148142487Y-110781111D01*
X148227401Y-111061034D01*
X148365294Y-111319014D01*
X148550866Y-111545134D01*
X148776986Y-111730706D01*
X148831791Y-111760000D01*
X148776986Y-111789294D01*
X148550866Y-111974866D01*
X148365294Y-112200986D01*
X148227401Y-112458966D01*
X148142487Y-112738889D01*
X148113815Y-113030000D01*
X148142487Y-113321111D01*
X148227401Y-113601034D01*
X148365294Y-113859014D01*
X148550866Y-114085134D01*
X148776986Y-114270706D01*
X148831791Y-114300000D01*
X148776986Y-114329294D01*
X148550866Y-114514866D01*
X148365294Y-114740986D01*
X148227401Y-114998966D01*
X148142487Y-115278889D01*
X148113815Y-115570000D01*
X148142487Y-115861111D01*
X148227401Y-116141034D01*
X148365294Y-116399014D01*
X148550866Y-116625134D01*
X148776986Y-116810706D01*
X148831791Y-116840000D01*
X148776986Y-116869294D01*
X148550866Y-117054866D01*
X148365294Y-117280986D01*
X148227401Y-117538966D01*
X148142487Y-117818889D01*
X148113815Y-118110000D01*
X148142487Y-118401111D01*
X148227401Y-118681034D01*
X148365294Y-118939014D01*
X148550866Y-119165134D01*
X148776986Y-119350706D01*
X148831791Y-119380000D01*
X148776986Y-119409294D01*
X148550866Y-119594866D01*
X148365294Y-119820986D01*
X148227401Y-120078966D01*
X148142487Y-120358889D01*
X148113815Y-120650000D01*
X148142487Y-120941111D01*
X148227401Y-121221034D01*
X148365294Y-121479014D01*
X148550866Y-121705134D01*
X148776986Y-121890706D01*
X148831791Y-121920000D01*
X148776986Y-121949294D01*
X148550866Y-122134866D01*
X148365294Y-122360986D01*
X148227401Y-122618966D01*
X148142487Y-122898889D01*
X148113815Y-123190000D01*
X148142487Y-123481111D01*
X148227401Y-123761034D01*
X148365294Y-124019014D01*
X148550866Y-124245134D01*
X148776986Y-124430706D01*
X148831791Y-124460000D01*
X148776986Y-124489294D01*
X148550866Y-124674866D01*
X148365294Y-124900986D01*
X148227401Y-125158966D01*
X148142487Y-125438889D01*
X148113815Y-125730000D01*
X148142487Y-126021111D01*
X148227401Y-126301034D01*
X148365294Y-126559014D01*
X148550866Y-126785134D01*
X148776986Y-126970706D01*
X148831791Y-127000000D01*
X148776986Y-127029294D01*
X148550866Y-127214866D01*
X148365294Y-127440986D01*
X148227401Y-127698966D01*
X148142487Y-127978889D01*
X148113815Y-128270000D01*
X148142487Y-128561111D01*
X148227401Y-128841034D01*
X148365294Y-129099014D01*
X148550866Y-129325134D01*
X148776986Y-129510706D01*
X149034966Y-129648599D01*
X149314889Y-129733513D01*
X149533050Y-129755000D01*
X149678950Y-129755000D01*
X149897111Y-129733513D01*
X150177034Y-129648599D01*
X150435014Y-129510706D01*
X150661134Y-129325134D01*
X150846706Y-129099014D01*
X150984599Y-128841034D01*
X151069513Y-128561111D01*
X151098185Y-128270000D01*
X151069513Y-127978889D01*
X150984599Y-127698966D01*
X150846706Y-127440986D01*
X150661134Y-127214866D01*
X150435014Y-127029294D01*
X150380209Y-127000000D01*
X150435014Y-126970706D01*
X150661134Y-126785134D01*
X150846706Y-126559014D01*
X150984599Y-126301034D01*
X151069513Y-126021111D01*
X151098185Y-125730000D01*
X151069513Y-125438889D01*
X150984599Y-125158966D01*
X150846706Y-124900986D01*
X150661134Y-124674866D01*
X150435014Y-124489294D01*
X150380209Y-124460000D01*
X150435014Y-124430706D01*
X150661134Y-124245134D01*
X150846706Y-124019014D01*
X150984599Y-123761034D01*
X151069513Y-123481111D01*
X151098185Y-123190000D01*
X151069513Y-122898889D01*
X150984599Y-122618966D01*
X150846706Y-122360986D01*
X150661134Y-122134866D01*
X150435014Y-121949294D01*
X150380209Y-121920000D01*
X150435014Y-121890706D01*
X150661134Y-121705134D01*
X150846706Y-121479014D01*
X150984599Y-121221034D01*
X151069513Y-120941111D01*
X151098185Y-120650000D01*
X151069513Y-120358889D01*
X150984599Y-120078966D01*
X150846706Y-119820986D01*
X150661134Y-119594866D01*
X150435014Y-119409294D01*
X150380209Y-119380000D01*
X150435014Y-119350706D01*
X150661134Y-119165134D01*
X150846706Y-118939014D01*
X150984599Y-118681034D01*
X151069513Y-118401111D01*
X151098185Y-118110000D01*
X151076612Y-117890966D01*
X153757049Y-115210530D01*
X153790817Y-115182817D01*
X153819811Y-115147489D01*
X153901410Y-115048060D01*
X153901411Y-115048059D01*
X153983589Y-114894313D01*
X154034195Y-114727490D01*
X154047000Y-114597477D01*
X154047000Y-114597467D01*
X154051281Y-114554001D01*
X154047000Y-114510535D01*
X154047000Y-107565000D01*
X156398041Y-107565000D01*
X156404411Y-107585998D01*
X156480749Y-107728816D01*
X156486590Y-107739744D01*
X156569468Y-107840731D01*
X156569471Y-107840734D01*
X156597184Y-107874502D01*
X156630951Y-107902214D01*
X157357000Y-108628264D01*
X157357001Y-127214321D01*
X157352719Y-127257800D01*
X157369805Y-127431290D01*
X157420412Y-127598113D01*
X157502590Y-127751859D01*
X157585468Y-127852846D01*
X157585471Y-127852849D01*
X157613184Y-127886617D01*
X157646951Y-127914329D01*
X158572270Y-128839649D01*
X158599983Y-128873417D01*
X158633751Y-128901130D01*
X158633753Y-128901132D01*
X158680216Y-128939263D01*
X158734741Y-128984011D01*
X158888487Y-129066189D01*
X158982144Y-129094600D01*
X159055309Y-129116795D01*
X159070106Y-129118252D01*
X159093282Y-129120535D01*
X159102988Y-129219082D01*
X159139298Y-129338780D01*
X159198263Y-129449094D01*
X159277615Y-129545785D01*
X159374306Y-129625137D01*
X159484620Y-129684102D01*
X159604318Y-129720412D01*
X159728800Y-129732672D01*
X161428800Y-129732672D01*
X161553282Y-129720412D01*
X161672980Y-129684102D01*
X161783294Y-129625137D01*
X161879985Y-129545785D01*
X161959337Y-129449094D01*
X162001200Y-129370775D01*
X162043063Y-129449094D01*
X162122415Y-129545785D01*
X162219106Y-129625137D01*
X162329420Y-129684102D01*
X162449118Y-129720412D01*
X162573600Y-129732672D01*
X164273600Y-129732672D01*
X164398082Y-129720412D01*
X164517780Y-129684102D01*
X164628094Y-129625137D01*
X164724785Y-129545785D01*
X164804137Y-129449094D01*
X164813812Y-129430994D01*
X164837063Y-129474494D01*
X164916415Y-129571185D01*
X165013106Y-129650537D01*
X165123420Y-129709502D01*
X165243118Y-129745812D01*
X165367600Y-129758072D01*
X165931850Y-129755000D01*
X166090600Y-129596250D01*
X166090600Y-128397000D01*
X166344600Y-128397000D01*
X166344600Y-129596250D01*
X166503350Y-129755000D01*
X167067600Y-129758072D01*
X167192082Y-129745812D01*
X167311780Y-129709502D01*
X167422094Y-129650537D01*
X167518785Y-129571185D01*
X167598137Y-129474494D01*
X167657102Y-129364180D01*
X167693412Y-129244482D01*
X167705672Y-129120000D01*
X167702600Y-128555750D01*
X167543850Y-128397000D01*
X166344600Y-128397000D01*
X166090600Y-128397000D01*
X166070600Y-128397000D01*
X166070600Y-128143000D01*
X166090600Y-128143000D01*
X166090600Y-126943750D01*
X166344600Y-126943750D01*
X166344600Y-128143000D01*
X167543850Y-128143000D01*
X167702600Y-127984250D01*
X167705672Y-127420000D01*
X167693412Y-127295518D01*
X167657102Y-127175820D01*
X167598137Y-127065506D01*
X167518785Y-126968815D01*
X167422094Y-126889463D01*
X167311780Y-126830498D01*
X167192082Y-126794188D01*
X167067600Y-126781928D01*
X166503350Y-126785000D01*
X166344600Y-126943750D01*
X166090600Y-126943750D01*
X165931850Y-126785000D01*
X165367600Y-126781928D01*
X165243118Y-126794188D01*
X165123420Y-126830498D01*
X165013106Y-126889463D01*
X164916415Y-126968815D01*
X164837063Y-127065506D01*
X164827388Y-127083606D01*
X164804137Y-127040106D01*
X164724785Y-126943415D01*
X164628094Y-126864063D01*
X164517780Y-126805098D01*
X164398082Y-126768788D01*
X164273600Y-126756528D01*
X162794109Y-126756528D01*
X160043001Y-124005421D01*
X160043001Y-107397465D01*
X160047282Y-107353998D01*
X160043001Y-107310532D01*
X160043001Y-107310522D01*
X160030196Y-107180509D01*
X159979590Y-107013686D01*
X159897412Y-106859940D01*
X159854749Y-106807955D01*
X159814533Y-106758952D01*
X159814531Y-106758950D01*
X159786818Y-106725182D01*
X159753051Y-106697470D01*
X158235514Y-105179934D01*
X158221226Y-105108102D01*
X158143205Y-104919744D01*
X158046490Y-104775000D01*
X158143205Y-104630256D01*
X158221226Y-104441898D01*
X158261000Y-104241939D01*
X158261000Y-104038061D01*
X158221226Y-103838102D01*
X158143205Y-103649744D01*
X158029937Y-103480226D01*
X157885774Y-103336063D01*
X157716256Y-103222795D01*
X157527898Y-103144774D01*
X157327939Y-103105000D01*
X157124061Y-103105000D01*
X156924102Y-103144774D01*
X156735744Y-103222795D01*
X156687546Y-103255000D01*
X156314578Y-103255000D01*
X156971049Y-102598530D01*
X157004816Y-102570818D01*
X157033877Y-102535408D01*
X157115410Y-102436060D01*
X157188687Y-102298966D01*
X157197588Y-102282314D01*
X157248194Y-102115491D01*
X157260999Y-101985478D01*
X157260999Y-101985470D01*
X157265280Y-101942001D01*
X157260999Y-101898532D01*
X157260999Y-101365000D01*
X157327939Y-101365000D01*
X157527898Y-101325226D01*
X157716256Y-101247205D01*
X157885774Y-101133937D01*
X158029937Y-100989774D01*
X158143205Y-100820256D01*
X158221226Y-100631898D01*
X158261000Y-100431939D01*
X158261000Y-100228061D01*
X158223387Y-100038965D01*
X160062999Y-101878578D01*
X160063000Y-107056520D01*
X160058718Y-107099999D01*
X160075804Y-107273489D01*
X160126411Y-107440312D01*
X160208589Y-107594058D01*
X160291467Y-107695045D01*
X160291469Y-107695047D01*
X160319183Y-107728816D01*
X160352951Y-107756529D01*
X160366002Y-107769580D01*
X160366001Y-116452732D01*
X160361720Y-116496201D01*
X160366001Y-116539670D01*
X160366001Y-116539677D01*
X160378806Y-116669690D01*
X160429412Y-116836513D01*
X160511590Y-116990259D01*
X160622184Y-117125018D01*
X160655957Y-117152735D01*
X160893065Y-117389843D01*
X160904374Y-117446698D01*
X160982395Y-117635056D01*
X161095663Y-117804574D01*
X161239826Y-117948737D01*
X161409344Y-118062005D01*
X161597702Y-118140026D01*
X161797661Y-118179800D01*
X162001539Y-118179800D01*
X162201498Y-118140026D01*
X162389856Y-118062005D01*
X162559374Y-117948737D01*
X162703537Y-117804574D01*
X162816805Y-117635056D01*
X162894826Y-117446698D01*
X162934600Y-117246739D01*
X162934600Y-117042861D01*
X162894826Y-116842902D01*
X162816805Y-116654544D01*
X162703537Y-116485026D01*
X162559374Y-116340863D01*
X162389856Y-116227595D01*
X162201498Y-116149574D01*
X162144643Y-116138265D01*
X162136001Y-116129623D01*
X162136001Y-107541999D01*
X165646718Y-107541999D01*
X165650999Y-107585468D01*
X165651000Y-112888518D01*
X165646718Y-112931997D01*
X165663804Y-113105487D01*
X165714411Y-113272310D01*
X165796589Y-113426056D01*
X165879467Y-113527043D01*
X165879470Y-113527046D01*
X165907183Y-113560814D01*
X165940950Y-113588526D01*
X167697001Y-115344578D01*
X167697002Y-116000561D01*
X167695804Y-116004510D01*
X167682999Y-116134523D01*
X167682999Y-116134530D01*
X167678718Y-116177999D01*
X167682999Y-116221468D01*
X167683000Y-120010520D01*
X167678718Y-120053999D01*
X167695804Y-120227489D01*
X167746411Y-120394312D01*
X167828589Y-120548058D01*
X167911467Y-120649045D01*
X167911470Y-120649048D01*
X167939183Y-120682816D01*
X167972950Y-120710528D01*
X168952999Y-121690578D01*
X168953000Y-125852520D01*
X168948718Y-125895999D01*
X168965804Y-126069489D01*
X169016411Y-126236312D01*
X169098589Y-126390058D01*
X169181467Y-126491045D01*
X169181470Y-126491048D01*
X169209183Y-126524816D01*
X169242950Y-126552528D01*
X169943469Y-127253048D01*
X169971182Y-127286816D01*
X170004950Y-127314529D01*
X170004952Y-127314531D01*
X170102516Y-127394600D01*
X170105940Y-127397410D01*
X170259686Y-127479588D01*
X170426509Y-127530194D01*
X170556522Y-127542999D01*
X170556530Y-127542999D01*
X170599999Y-127547280D01*
X170643468Y-127542999D01*
X172925821Y-127542999D01*
X175371065Y-129988244D01*
X175382374Y-130045098D01*
X175460395Y-130233456D01*
X175573663Y-130402974D01*
X175717826Y-130547137D01*
X175887344Y-130660405D01*
X176075702Y-130738426D01*
X176275661Y-130778200D01*
X176479539Y-130778200D01*
X176679498Y-130738426D01*
X176867856Y-130660405D01*
X177037374Y-130547137D01*
X177181537Y-130402974D01*
X177294805Y-130233456D01*
X177372826Y-130045098D01*
X177412600Y-129845139D01*
X177412600Y-129641261D01*
X177372826Y-129441302D01*
X177294805Y-129252944D01*
X177181537Y-129083426D01*
X177037374Y-128939263D01*
X176867856Y-128825995D01*
X176679498Y-128747974D01*
X176622644Y-128736665D01*
X175202836Y-127316858D01*
X175310174Y-127245137D01*
X175454337Y-127100974D01*
X175567605Y-126931456D01*
X175645626Y-126743098D01*
X175685400Y-126543139D01*
X175685400Y-126339261D01*
X175645626Y-126139302D01*
X175567605Y-125950944D01*
X175493481Y-125840009D01*
X175493481Y-123047948D01*
X175497762Y-123004479D01*
X175493481Y-122961010D01*
X175493481Y-122961002D01*
X175480676Y-122830989D01*
X175466242Y-122783408D01*
X175430070Y-122664165D01*
X175347892Y-122510420D01*
X175265013Y-122409432D01*
X175265011Y-122409430D01*
X175237298Y-122375662D01*
X175203531Y-122347950D01*
X174532999Y-121677419D01*
X174532999Y-117811464D01*
X174537280Y-117767998D01*
X174532999Y-117724532D01*
X174532999Y-117724522D01*
X174520194Y-117594509D01*
X174469588Y-117427686D01*
X174387410Y-117273940D01*
X174276816Y-117139182D01*
X174243044Y-117111466D01*
X173796533Y-116664955D01*
X173768816Y-116631182D01*
X173634058Y-116520588D01*
X173480312Y-116438410D01*
X173313489Y-116387804D01*
X173183476Y-116374999D01*
X173183468Y-116374999D01*
X173139999Y-116370718D01*
X173096530Y-116374999D01*
X172998578Y-116374999D01*
X171230999Y-114607421D01*
X171230999Y-107634393D01*
X171255686Y-107647588D01*
X171422509Y-107698194D01*
X171552522Y-107710999D01*
X171552532Y-107710999D01*
X171595998Y-107715280D01*
X171639465Y-107710999D01*
X174121000Y-107710999D01*
X174121001Y-113506519D01*
X174116719Y-113549998D01*
X174133805Y-113723488D01*
X174184412Y-113890311D01*
X174266590Y-114044057D01*
X174349468Y-114145044D01*
X174349471Y-114145047D01*
X174377184Y-114178815D01*
X174410951Y-114206527D01*
X176630999Y-116426576D01*
X176630999Y-116766530D01*
X176626718Y-116809999D01*
X176630999Y-116853468D01*
X176630999Y-116853476D01*
X176643804Y-116983489D01*
X176694411Y-117150312D01*
X176776589Y-117304058D01*
X176859467Y-117405045D01*
X176859470Y-117405048D01*
X176887183Y-117438816D01*
X176920951Y-117466529D01*
X177345388Y-117890966D01*
X177323815Y-118110000D01*
X177352487Y-118401111D01*
X177437401Y-118681034D01*
X177575294Y-118939014D01*
X177760866Y-119165134D01*
X177986986Y-119350706D01*
X178041791Y-119380000D01*
X177986986Y-119409294D01*
X177760866Y-119594866D01*
X177575294Y-119820986D01*
X177437401Y-120078966D01*
X177352487Y-120358889D01*
X177323815Y-120650000D01*
X177352487Y-120941111D01*
X177437401Y-121221034D01*
X177575294Y-121479014D01*
X177760866Y-121705134D01*
X177986986Y-121890706D01*
X178041791Y-121920000D01*
X177986986Y-121949294D01*
X177760866Y-122134866D01*
X177575294Y-122360986D01*
X177437401Y-122618966D01*
X177352487Y-122898889D01*
X177323815Y-123190000D01*
X177352487Y-123481111D01*
X177437401Y-123761034D01*
X177575294Y-124019014D01*
X177760866Y-124245134D01*
X177986986Y-124430706D01*
X178041791Y-124460000D01*
X177986986Y-124489294D01*
X177760866Y-124674866D01*
X177575294Y-124900986D01*
X177437401Y-125158966D01*
X177352487Y-125438889D01*
X177323815Y-125730000D01*
X177352487Y-126021111D01*
X177437401Y-126301034D01*
X177575294Y-126559014D01*
X177760866Y-126785134D01*
X177986986Y-126970706D01*
X178041791Y-127000000D01*
X177986986Y-127029294D01*
X177760866Y-127214866D01*
X177575294Y-127440986D01*
X177437401Y-127698966D01*
X177352487Y-127978889D01*
X177323815Y-128270000D01*
X177352487Y-128561111D01*
X177437401Y-128841034D01*
X177575294Y-129099014D01*
X177760866Y-129325134D01*
X177986986Y-129510706D01*
X178244966Y-129648599D01*
X178524889Y-129733513D01*
X178743050Y-129755000D01*
X178888950Y-129755000D01*
X179107111Y-129733513D01*
X179387034Y-129648599D01*
X179645014Y-129510706D01*
X179871134Y-129325134D01*
X180056706Y-129099014D01*
X180194599Y-128841034D01*
X180279513Y-128561111D01*
X180308185Y-128270000D01*
X180279513Y-127978889D01*
X180194599Y-127698966D01*
X180056706Y-127440986D01*
X179871134Y-127214866D01*
X179645014Y-127029294D01*
X179590209Y-127000000D01*
X179645014Y-126970706D01*
X179871134Y-126785134D01*
X180056706Y-126559014D01*
X180194599Y-126301034D01*
X180279513Y-126021111D01*
X180308185Y-125730000D01*
X180279513Y-125438889D01*
X180194599Y-125158966D01*
X180056706Y-124900986D01*
X179871134Y-124674866D01*
X179645014Y-124489294D01*
X179590209Y-124460000D01*
X179645014Y-124430706D01*
X179871134Y-124245134D01*
X180056706Y-124019014D01*
X180194599Y-123761034D01*
X180279513Y-123481111D01*
X180308185Y-123190000D01*
X180279513Y-122898889D01*
X180194599Y-122618966D01*
X180056706Y-122360986D01*
X179871134Y-122134866D01*
X179645014Y-121949294D01*
X179590209Y-121920000D01*
X179645014Y-121890706D01*
X179871134Y-121705134D01*
X180056706Y-121479014D01*
X180194599Y-121221034D01*
X180279513Y-120941111D01*
X180308185Y-120650000D01*
X180279513Y-120358889D01*
X180194599Y-120078966D01*
X180056706Y-119820986D01*
X179871134Y-119594866D01*
X179645014Y-119409294D01*
X179590209Y-119380000D01*
X179645014Y-119350706D01*
X179871134Y-119165134D01*
X180056706Y-118939014D01*
X180194599Y-118681034D01*
X180279513Y-118401111D01*
X180308185Y-118110000D01*
X180279513Y-117818889D01*
X180194599Y-117538966D01*
X180056706Y-117280986D01*
X179871134Y-117054866D01*
X179645014Y-116869294D01*
X179590209Y-116840000D01*
X179645014Y-116810706D01*
X179871134Y-116625134D01*
X180056706Y-116399014D01*
X180194599Y-116141034D01*
X180279513Y-115861111D01*
X180308185Y-115570000D01*
X180279513Y-115278889D01*
X180194599Y-114998966D01*
X180056706Y-114740986D01*
X179871134Y-114514866D01*
X179645014Y-114329294D01*
X179590209Y-114300000D01*
X179645014Y-114270706D01*
X179871134Y-114085134D01*
X180056706Y-113859014D01*
X180194599Y-113601034D01*
X180279513Y-113321111D01*
X180308185Y-113030000D01*
X180279513Y-112738889D01*
X180194599Y-112458966D01*
X180056706Y-112200986D01*
X179871134Y-111974866D01*
X179645014Y-111789294D01*
X179590209Y-111760000D01*
X179645014Y-111730706D01*
X179871134Y-111545134D01*
X180056706Y-111319014D01*
X180194599Y-111061034D01*
X180279513Y-110781111D01*
X180308185Y-110490000D01*
X180279513Y-110198889D01*
X180194599Y-109918966D01*
X180056706Y-109660986D01*
X179871134Y-109434866D01*
X179645014Y-109249294D01*
X179590209Y-109220000D01*
X179645014Y-109190706D01*
X179871134Y-109005134D01*
X180056706Y-108779014D01*
X180194599Y-108521034D01*
X180279513Y-108241111D01*
X180308185Y-107950000D01*
X180279513Y-107658889D01*
X180194599Y-107378966D01*
X180056706Y-107120986D01*
X179871134Y-106894866D01*
X179645014Y-106709294D01*
X179590209Y-106680000D01*
X179645014Y-106650706D01*
X179871134Y-106465134D01*
X180056706Y-106239014D01*
X180194599Y-105981034D01*
X180279513Y-105701111D01*
X180308185Y-105410000D01*
X180279513Y-105118889D01*
X180194599Y-104838966D01*
X180056706Y-104580986D01*
X179871134Y-104354866D01*
X179645014Y-104169294D01*
X179590209Y-104140000D01*
X179645014Y-104110706D01*
X179871134Y-103925134D01*
X180056706Y-103699014D01*
X180194599Y-103441034D01*
X180279513Y-103161111D01*
X180308185Y-102870000D01*
X180279513Y-102578889D01*
X180194599Y-102298966D01*
X180056706Y-102040986D01*
X179871134Y-101814866D01*
X179645014Y-101629294D01*
X179590209Y-101600000D01*
X179645014Y-101570706D01*
X179871134Y-101385134D01*
X180056706Y-101159014D01*
X180194599Y-100901034D01*
X180279513Y-100621111D01*
X180308185Y-100330000D01*
X180279513Y-100038889D01*
X180194599Y-99758966D01*
X180056706Y-99500986D01*
X179871134Y-99274866D01*
X179645014Y-99089294D01*
X179590209Y-99060000D01*
X179645014Y-99030706D01*
X179871134Y-98845134D01*
X180056706Y-98619014D01*
X180194599Y-98361034D01*
X180279513Y-98081111D01*
X180308185Y-97790000D01*
X180279513Y-97498889D01*
X180194599Y-97218966D01*
X180056706Y-96960986D01*
X179871134Y-96734866D01*
X179841313Y-96710393D01*
X179910180Y-96689502D01*
X180020494Y-96630537D01*
X180117185Y-96551185D01*
X180196537Y-96454494D01*
X180255502Y-96344180D01*
X180291812Y-96224482D01*
X180304072Y-96100000D01*
X180301000Y-95535750D01*
X180142250Y-95377000D01*
X178943000Y-95377000D01*
X178943000Y-95397000D01*
X178689000Y-95397000D01*
X178689000Y-95377000D01*
X177489750Y-95377000D01*
X177331000Y-95535750D01*
X177327928Y-96100000D01*
X177340188Y-96224482D01*
X177376498Y-96344180D01*
X177435463Y-96454494D01*
X177514815Y-96551185D01*
X177611506Y-96630537D01*
X177721820Y-96689502D01*
X177790687Y-96710393D01*
X177760866Y-96734866D01*
X177575294Y-96960986D01*
X177437401Y-97218966D01*
X177352487Y-97498889D01*
X177323815Y-97790000D01*
X177352487Y-98081111D01*
X177437401Y-98361034D01*
X177575294Y-98619014D01*
X177760866Y-98845134D01*
X177986986Y-99030706D01*
X178041791Y-99060000D01*
X177986986Y-99089294D01*
X177760866Y-99274866D01*
X177575294Y-99500986D01*
X177437401Y-99758966D01*
X177352487Y-100038889D01*
X177323815Y-100330000D01*
X177352487Y-100621111D01*
X177437401Y-100901034D01*
X177575294Y-101159014D01*
X177760866Y-101385134D01*
X177986986Y-101570706D01*
X178041791Y-101600000D01*
X177986986Y-101629294D01*
X177890257Y-101708678D01*
X176932534Y-100750956D01*
X176904817Y-100717183D01*
X176770059Y-100606589D01*
X176616313Y-100524411D01*
X176449490Y-100473805D01*
X176319477Y-100461000D01*
X176319469Y-100461000D01*
X176276000Y-100456719D01*
X176232531Y-100461000D01*
X172156804Y-100461000D01*
X172191226Y-100377898D01*
X172202535Y-100321043D01*
X172641051Y-99882528D01*
X172674818Y-99854816D01*
X172785412Y-99720058D01*
X172867590Y-99566312D01*
X172918196Y-99399489D01*
X172931001Y-99269476D01*
X172931001Y-99269468D01*
X172935282Y-99225999D01*
X172931001Y-99182530D01*
X172931001Y-98441464D01*
X172935282Y-98397998D01*
X172931001Y-98354532D01*
X172931001Y-98354522D01*
X172918196Y-98224509D01*
X172867590Y-98057686D01*
X172785412Y-97903940D01*
X172674818Y-97769182D01*
X172641045Y-97741465D01*
X172260535Y-97360955D01*
X172232818Y-97327182D01*
X172098060Y-97216588D01*
X171944314Y-97134410D01*
X171777491Y-97083804D01*
X171647478Y-97070999D01*
X171647470Y-97070999D01*
X171604001Y-97066718D01*
X171560532Y-97070999D01*
X169676466Y-97070999D01*
X169633000Y-97066718D01*
X169589534Y-97070999D01*
X169589524Y-97070999D01*
X169459511Y-97083804D01*
X169292688Y-97134410D01*
X169138942Y-97216588D01*
X169109453Y-97240789D01*
X169037954Y-97299467D01*
X169037952Y-97299469D01*
X169004184Y-97327182D01*
X168976471Y-97360950D01*
X166624957Y-99712465D01*
X166591184Y-99740182D01*
X166480590Y-99874941D01*
X166398412Y-100028687D01*
X166347806Y-100195510D01*
X166335001Y-100325523D01*
X166335001Y-100325530D01*
X166330720Y-100368999D01*
X166335001Y-100412468D01*
X166335002Y-106491417D01*
X165940955Y-106885465D01*
X165907182Y-106913182D01*
X165796588Y-107047941D01*
X165714410Y-107201687D01*
X165681912Y-107308817D01*
X165665934Y-107361490D01*
X165663804Y-107368510D01*
X165650999Y-107498523D01*
X165650999Y-107498530D01*
X165646718Y-107541999D01*
X162136001Y-107541999D01*
X162136001Y-107446470D01*
X162140282Y-107403001D01*
X162136001Y-107359532D01*
X162136001Y-107359524D01*
X162123196Y-107229511D01*
X162072590Y-107062688D01*
X161990412Y-106908942D01*
X161879818Y-106774184D01*
X161846045Y-106746467D01*
X161832999Y-106733421D01*
X161832999Y-101555464D01*
X161837280Y-101511998D01*
X161832999Y-101468532D01*
X161832999Y-101468522D01*
X161820194Y-101338509D01*
X161769588Y-101171686D01*
X161687410Y-101017940D01*
X161647639Y-100969479D01*
X161604531Y-100916952D01*
X161604529Y-100916950D01*
X161576816Y-100883182D01*
X161543049Y-100855470D01*
X158232535Y-97544957D01*
X158221226Y-97488102D01*
X158143205Y-97299744D01*
X158029937Y-97130226D01*
X157885774Y-96986063D01*
X157716256Y-96872795D01*
X157527898Y-96794774D01*
X157327939Y-96755000D01*
X157124061Y-96755000D01*
X156924102Y-96794774D01*
X156735744Y-96872795D01*
X156566226Y-96986063D01*
X156422063Y-97130226D01*
X156308795Y-97299744D01*
X156230774Y-97488102D01*
X156219465Y-97544956D01*
X155080940Y-98683482D01*
X155047173Y-98711194D01*
X155019460Y-98744962D01*
X155019457Y-98744965D01*
X154936579Y-98845952D01*
X154854401Y-98999698D01*
X154803794Y-99166521D01*
X154786708Y-99340011D01*
X154790990Y-99383490D01*
X154790989Y-101259433D01*
X154765432Y-101284990D01*
X151340999Y-101284990D01*
X151340999Y-101223464D01*
X151345280Y-101179998D01*
X151340999Y-101136532D01*
X151340999Y-101136522D01*
X151328194Y-101006509D01*
X151277588Y-100839686D01*
X151195410Y-100685940D01*
X151157547Y-100639804D01*
X151112531Y-100584952D01*
X151112529Y-100584950D01*
X151084816Y-100551182D01*
X151077030Y-100544792D01*
X151098185Y-100330000D01*
X151069513Y-100038889D01*
X150984599Y-99758966D01*
X150846706Y-99500986D01*
X150661134Y-99274866D01*
X150435014Y-99089294D01*
X150380209Y-99060000D01*
X150435014Y-99030706D01*
X150661134Y-98845134D01*
X150846706Y-98619014D01*
X150984599Y-98361034D01*
X151069513Y-98081111D01*
X151098185Y-97790000D01*
X151069513Y-97498889D01*
X150984599Y-97218966D01*
X150846706Y-96960986D01*
X150661134Y-96734866D01*
X150631313Y-96710393D01*
X150700180Y-96689502D01*
X150810494Y-96630537D01*
X150907185Y-96551185D01*
X150986537Y-96454494D01*
X151045502Y-96344180D01*
X151081812Y-96224482D01*
X151094072Y-96100000D01*
X151091000Y-95535750D01*
X150932250Y-95377000D01*
X149733000Y-95377000D01*
X149733000Y-95397000D01*
X149479000Y-95397000D01*
X149479000Y-95377000D01*
X148279750Y-95377000D01*
X148121000Y-95535750D01*
X148117928Y-96100000D01*
X148130188Y-96224482D01*
X148166498Y-96344180D01*
X148225463Y-96454494D01*
X148304815Y-96551185D01*
X148401506Y-96630537D01*
X148511820Y-96689502D01*
X148580687Y-96710393D01*
X148550866Y-96734866D01*
X148365294Y-96960986D01*
X148227401Y-97218966D01*
X148142487Y-97498889D01*
X148113815Y-97790000D01*
X147497000Y-97790000D01*
X147497000Y-95029504D01*
X147511364Y-94883008D01*
X147544176Y-94774330D01*
X147597479Y-94674082D01*
X147669232Y-94586103D01*
X147756707Y-94513737D01*
X147856579Y-94459737D01*
X147965027Y-94426167D01*
X148109331Y-94411000D01*
X148117988Y-94411000D01*
X148121000Y-94964250D01*
X148121000Y-94964250D01*
G37*
X148121000Y-94964250D02*
X148279750Y-95123000D01*
X149479000Y-95123000D01*
X149479000Y-95103000D01*
X149733000Y-95103000D01*
X149733000Y-95123000D01*
X150932250Y-95123000D01*
X151091000Y-94964250D01*
X151094012Y-94411000D01*
X177327988Y-94411000D01*
X177331000Y-94964250D01*
X177489750Y-95123000D01*
X178689000Y-95123000D01*
X178689000Y-95103000D01*
X178943000Y-95103000D01*
X178943000Y-95123000D01*
X180142250Y-95123000D01*
X180301000Y-94964250D01*
X180304012Y-94411000D01*
X180560496Y-94411000D01*
X180706992Y-94425364D01*
X180815670Y-94458176D01*
X180915918Y-94511479D01*
X181003897Y-94583232D01*
X181076263Y-94670707D01*
X181130263Y-94770579D01*
X181163833Y-94879027D01*
X181179000Y-95023331D01*
X181179001Y-142825000D01*
X147497000Y-142825000D01*
X147497000Y-134131000D01*
X147675939Y-134131000D01*
X147875898Y-134091226D01*
X148064256Y-134013205D01*
X148233774Y-133899937D01*
X148377937Y-133755774D01*
X148491205Y-133586256D01*
X148569226Y-133397898D01*
X148609000Y-133197939D01*
X148609000Y-132994061D01*
X148569226Y-132794102D01*
X148491205Y-132605744D01*
X148377937Y-132436226D01*
X148233774Y-132292063D01*
X148064256Y-132178795D01*
X147875898Y-132100774D01*
X147675939Y-132061000D01*
X147497000Y-132061000D01*
X147497000Y-97790000D01*
X148113815Y-97790000D01*
X148142487Y-98081111D01*
X148227401Y-98361034D01*
X148365294Y-98619014D01*
X148550866Y-98845134D01*
X148776986Y-99030706D01*
X148831791Y-99060000D01*
X148776986Y-99089294D01*
X148550866Y-99274866D01*
X148365294Y-99500986D01*
X148227401Y-99758966D01*
X148142487Y-100038889D01*
X148113815Y-100330000D01*
X148142487Y-100621111D01*
X148227401Y-100901034D01*
X148365294Y-101159014D01*
X148550866Y-101385134D01*
X148776986Y-101570706D01*
X148831791Y-101600000D01*
X148776986Y-101629294D01*
X148550866Y-101814866D01*
X148365294Y-102040986D01*
X148227401Y-102298966D01*
X148142487Y-102578889D01*
X148113815Y-102870000D01*
X148142487Y-103161111D01*
X148227401Y-103441034D01*
X148365294Y-103699014D01*
X148550866Y-103925134D01*
X148776986Y-104110706D01*
X148831791Y-104140000D01*
X148776986Y-104169294D01*
X148550866Y-104354866D01*
X148365294Y-104580986D01*
X148227401Y-104838966D01*
X148142487Y-105118889D01*
X148113815Y-105410000D01*
X148142487Y-105701111D01*
X148227401Y-105981034D01*
X148365294Y-106239014D01*
X148550866Y-106465134D01*
X148776986Y-106650706D01*
X148831791Y-106680000D01*
X148776986Y-106709294D01*
X148550866Y-106894866D01*
X148365294Y-107120986D01*
X148227401Y-107378966D01*
X148142487Y-107658889D01*
X148113815Y-107950000D01*
X148142487Y-108241111D01*
X148227401Y-108521034D01*
X148365294Y-108779014D01*
X148550866Y-109005134D01*
X148776986Y-109190706D01*
X148831791Y-109220000D01*
X148776986Y-109249294D01*
X148550866Y-109434866D01*
X148365294Y-109660986D01*
X148227401Y-109918966D01*
X148142487Y-110198889D01*
X148113815Y-110490000D01*
X148142487Y-110781111D01*
X148227401Y-111061034D01*
X148365294Y-111319014D01*
X148550866Y-111545134D01*
X148776986Y-111730706D01*
X148831791Y-111760000D01*
X148776986Y-111789294D01*
X148550866Y-111974866D01*
X148365294Y-112200986D01*
X148227401Y-112458966D01*
X148142487Y-112738889D01*
X148113815Y-113030000D01*
X148142487Y-113321111D01*
X148227401Y-113601034D01*
X148365294Y-113859014D01*
X148550866Y-114085134D01*
X148776986Y-114270706D01*
X148831791Y-114300000D01*
X148776986Y-114329294D01*
X148550866Y-114514866D01*
X148365294Y-114740986D01*
X148227401Y-114998966D01*
X148142487Y-115278889D01*
X148113815Y-115570000D01*
X148142487Y-115861111D01*
X148227401Y-116141034D01*
X148365294Y-116399014D01*
X148550866Y-116625134D01*
X148776986Y-116810706D01*
X148831791Y-116840000D01*
X148776986Y-116869294D01*
X148550866Y-117054866D01*
X148365294Y-117280986D01*
X148227401Y-117538966D01*
X148142487Y-117818889D01*
X148113815Y-118110000D01*
X148142487Y-118401111D01*
X148227401Y-118681034D01*
X148365294Y-118939014D01*
X148550866Y-119165134D01*
X148776986Y-119350706D01*
X148831791Y-119380000D01*
X148776986Y-119409294D01*
X148550866Y-119594866D01*
X148365294Y-119820986D01*
X148227401Y-120078966D01*
X148142487Y-120358889D01*
X148113815Y-120650000D01*
X148142487Y-120941111D01*
X148227401Y-121221034D01*
X148365294Y-121479014D01*
X148550866Y-121705134D01*
X148776986Y-121890706D01*
X148831791Y-121920000D01*
X148776986Y-121949294D01*
X148550866Y-122134866D01*
X148365294Y-122360986D01*
X148227401Y-122618966D01*
X148142487Y-122898889D01*
X148113815Y-123190000D01*
X148142487Y-123481111D01*
X148227401Y-123761034D01*
X148365294Y-124019014D01*
X148550866Y-124245134D01*
X148776986Y-124430706D01*
X148831791Y-124460000D01*
X148776986Y-124489294D01*
X148550866Y-124674866D01*
X148365294Y-124900986D01*
X148227401Y-125158966D01*
X148142487Y-125438889D01*
X148113815Y-125730000D01*
X148142487Y-126021111D01*
X148227401Y-126301034D01*
X148365294Y-126559014D01*
X148550866Y-126785134D01*
X148776986Y-126970706D01*
X148831791Y-127000000D01*
X148776986Y-127029294D01*
X148550866Y-127214866D01*
X148365294Y-127440986D01*
X148227401Y-127698966D01*
X148142487Y-127978889D01*
X148113815Y-128270000D01*
X148142487Y-128561111D01*
X148227401Y-128841034D01*
X148365294Y-129099014D01*
X148550866Y-129325134D01*
X148776986Y-129510706D01*
X149034966Y-129648599D01*
X149314889Y-129733513D01*
X149533050Y-129755000D01*
X149678950Y-129755000D01*
X149897111Y-129733513D01*
X150177034Y-129648599D01*
X150435014Y-129510706D01*
X150661134Y-129325134D01*
X150846706Y-129099014D01*
X150984599Y-128841034D01*
X151069513Y-128561111D01*
X151098185Y-128270000D01*
X151069513Y-127978889D01*
X150984599Y-127698966D01*
X150846706Y-127440986D01*
X150661134Y-127214866D01*
X150435014Y-127029294D01*
X150380209Y-127000000D01*
X150435014Y-126970706D01*
X150661134Y-126785134D01*
X150846706Y-126559014D01*
X150984599Y-126301034D01*
X151069513Y-126021111D01*
X151098185Y-125730000D01*
X151069513Y-125438889D01*
X150984599Y-125158966D01*
X150846706Y-124900986D01*
X150661134Y-124674866D01*
X150435014Y-124489294D01*
X150380209Y-124460000D01*
X150435014Y-124430706D01*
X150661134Y-124245134D01*
X150846706Y-124019014D01*
X150984599Y-123761034D01*
X151069513Y-123481111D01*
X151098185Y-123190000D01*
X151069513Y-122898889D01*
X150984599Y-122618966D01*
X150846706Y-122360986D01*
X150661134Y-122134866D01*
X150435014Y-121949294D01*
X150380209Y-121920000D01*
X150435014Y-121890706D01*
X150661134Y-121705134D01*
X150846706Y-121479014D01*
X150984599Y-121221034D01*
X151069513Y-120941111D01*
X151098185Y-120650000D01*
X151069513Y-120358889D01*
X150984599Y-120078966D01*
X150846706Y-119820986D01*
X150661134Y-119594866D01*
X150435014Y-119409294D01*
X150380209Y-119380000D01*
X150435014Y-119350706D01*
X150661134Y-119165134D01*
X150846706Y-118939014D01*
X150984599Y-118681034D01*
X151069513Y-118401111D01*
X151098185Y-118110000D01*
X151076612Y-117890966D01*
X153757049Y-115210530D01*
X153790817Y-115182817D01*
X153819811Y-115147489D01*
X153901410Y-115048060D01*
X153901411Y-115048059D01*
X153983589Y-114894313D01*
X154034195Y-114727490D01*
X154047000Y-114597477D01*
X154047000Y-114597467D01*
X154051281Y-114554001D01*
X154047000Y-114510535D01*
X154047000Y-107565000D01*
X156398041Y-107565000D01*
X156404411Y-107585998D01*
X156480749Y-107728816D01*
X156486590Y-107739744D01*
X156569468Y-107840731D01*
X156569471Y-107840734D01*
X156597184Y-107874502D01*
X156630951Y-107902214D01*
X157357000Y-108628264D01*
X157357001Y-127214321D01*
X157352719Y-127257800D01*
X157369805Y-127431290D01*
X157420412Y-127598113D01*
X157502590Y-127751859D01*
X157585468Y-127852846D01*
X157585471Y-127852849D01*
X157613184Y-127886617D01*
X157646951Y-127914329D01*
X158572270Y-128839649D01*
X158599983Y-128873417D01*
X158633751Y-128901130D01*
X158633753Y-128901132D01*
X158680216Y-128939263D01*
X158734741Y-128984011D01*
X158888487Y-129066189D01*
X158982144Y-129094600D01*
X159055309Y-129116795D01*
X159070106Y-129118252D01*
X159093282Y-129120535D01*
X159102988Y-129219082D01*
X159139298Y-129338780D01*
X159198263Y-129449094D01*
X159277615Y-129545785D01*
X159374306Y-129625137D01*
X159484620Y-129684102D01*
X159604318Y-129720412D01*
X159728800Y-129732672D01*
X161428800Y-129732672D01*
X161553282Y-129720412D01*
X161672980Y-129684102D01*
X161783294Y-129625137D01*
X161879985Y-129545785D01*
X161959337Y-129449094D01*
X162001200Y-129370775D01*
X162043063Y-129449094D01*
X162122415Y-129545785D01*
X162219106Y-129625137D01*
X162329420Y-129684102D01*
X162449118Y-129720412D01*
X162573600Y-129732672D01*
X164273600Y-129732672D01*
X164398082Y-129720412D01*
X164517780Y-129684102D01*
X164628094Y-129625137D01*
X164724785Y-129545785D01*
X164804137Y-129449094D01*
X164813812Y-129430994D01*
X164837063Y-129474494D01*
X164916415Y-129571185D01*
X165013106Y-129650537D01*
X165123420Y-129709502D01*
X165243118Y-129745812D01*
X165367600Y-129758072D01*
X165931850Y-129755000D01*
X166090600Y-129596250D01*
X166090600Y-128397000D01*
X166344600Y-128397000D01*
X166344600Y-129596250D01*
X166503350Y-129755000D01*
X167067600Y-129758072D01*
X167192082Y-129745812D01*
X167311780Y-129709502D01*
X167422094Y-129650537D01*
X167518785Y-129571185D01*
X167598137Y-129474494D01*
X167657102Y-129364180D01*
X167693412Y-129244482D01*
X167705672Y-129120000D01*
X167702600Y-128555750D01*
X167543850Y-128397000D01*
X166344600Y-128397000D01*
X166090600Y-128397000D01*
X166070600Y-128397000D01*
X166070600Y-128143000D01*
X166090600Y-128143000D01*
X166090600Y-126943750D01*
X166344600Y-126943750D01*
X166344600Y-128143000D01*
X167543850Y-128143000D01*
X167702600Y-127984250D01*
X167705672Y-127420000D01*
X167693412Y-127295518D01*
X167657102Y-127175820D01*
X167598137Y-127065506D01*
X167518785Y-126968815D01*
X167422094Y-126889463D01*
X167311780Y-126830498D01*
X167192082Y-126794188D01*
X167067600Y-126781928D01*
X166503350Y-126785000D01*
X166344600Y-126943750D01*
X166090600Y-126943750D01*
X165931850Y-126785000D01*
X165367600Y-126781928D01*
X165243118Y-126794188D01*
X165123420Y-126830498D01*
X165013106Y-126889463D01*
X164916415Y-126968815D01*
X164837063Y-127065506D01*
X164827388Y-127083606D01*
X164804137Y-127040106D01*
X164724785Y-126943415D01*
X164628094Y-126864063D01*
X164517780Y-126805098D01*
X164398082Y-126768788D01*
X164273600Y-126756528D01*
X162794109Y-126756528D01*
X160043001Y-124005421D01*
X160043001Y-107397465D01*
X160047282Y-107353998D01*
X160043001Y-107310532D01*
X160043001Y-107310522D01*
X160030196Y-107180509D01*
X159979590Y-107013686D01*
X159897412Y-106859940D01*
X159854749Y-106807955D01*
X159814533Y-106758952D01*
X159814531Y-106758950D01*
X159786818Y-106725182D01*
X159753051Y-106697470D01*
X158235514Y-105179934D01*
X158221226Y-105108102D01*
X158143205Y-104919744D01*
X158046490Y-104775000D01*
X158143205Y-104630256D01*
X158221226Y-104441898D01*
X158261000Y-104241939D01*
X158261000Y-104038061D01*
X158221226Y-103838102D01*
X158143205Y-103649744D01*
X158029937Y-103480226D01*
X157885774Y-103336063D01*
X157716256Y-103222795D01*
X157527898Y-103144774D01*
X157327939Y-103105000D01*
X157124061Y-103105000D01*
X156924102Y-103144774D01*
X156735744Y-103222795D01*
X156687546Y-103255000D01*
X156314578Y-103255000D01*
X156971049Y-102598530D01*
X157004816Y-102570818D01*
X157033877Y-102535408D01*
X157115410Y-102436060D01*
X157188687Y-102298966D01*
X157197588Y-102282314D01*
X157248194Y-102115491D01*
X157260999Y-101985478D01*
X157260999Y-101985470D01*
X157265280Y-101942001D01*
X157260999Y-101898532D01*
X157260999Y-101365000D01*
X157327939Y-101365000D01*
X157527898Y-101325226D01*
X157716256Y-101247205D01*
X157885774Y-101133937D01*
X158029937Y-100989774D01*
X158143205Y-100820256D01*
X158221226Y-100631898D01*
X158261000Y-100431939D01*
X158261000Y-100228061D01*
X158223387Y-100038965D01*
X160062999Y-101878578D01*
X160063000Y-107056520D01*
X160058718Y-107099999D01*
X160075804Y-107273489D01*
X160126411Y-107440312D01*
X160208589Y-107594058D01*
X160291467Y-107695045D01*
X160291469Y-107695047D01*
X160319183Y-107728816D01*
X160352951Y-107756529D01*
X160366002Y-107769580D01*
X160366001Y-116452732D01*
X160361720Y-116496201D01*
X160366001Y-116539670D01*
X160366001Y-116539677D01*
X160378806Y-116669690D01*
X160429412Y-116836513D01*
X160511590Y-116990259D01*
X160622184Y-117125018D01*
X160655957Y-117152735D01*
X160893065Y-117389843D01*
X160904374Y-117446698D01*
X160982395Y-117635056D01*
X161095663Y-117804574D01*
X161239826Y-117948737D01*
X161409344Y-118062005D01*
X161597702Y-118140026D01*
X161797661Y-118179800D01*
X162001539Y-118179800D01*
X162201498Y-118140026D01*
X162389856Y-118062005D01*
X162559374Y-117948737D01*
X162703537Y-117804574D01*
X162816805Y-117635056D01*
X162894826Y-117446698D01*
X162934600Y-117246739D01*
X162934600Y-117042861D01*
X162894826Y-116842902D01*
X162816805Y-116654544D01*
X162703537Y-116485026D01*
X162559374Y-116340863D01*
X162389856Y-116227595D01*
X162201498Y-116149574D01*
X162144643Y-116138265D01*
X162136001Y-116129623D01*
X162136001Y-107541999D01*
X165646718Y-107541999D01*
X165650999Y-107585468D01*
X165651000Y-112888518D01*
X165646718Y-112931997D01*
X165663804Y-113105487D01*
X165714411Y-113272310D01*
X165796589Y-113426056D01*
X165879467Y-113527043D01*
X165879470Y-113527046D01*
X165907183Y-113560814D01*
X165940950Y-113588526D01*
X167697001Y-115344578D01*
X167697002Y-116000561D01*
X167695804Y-116004510D01*
X167682999Y-116134523D01*
X167682999Y-116134530D01*
X167678718Y-116177999D01*
X167682999Y-116221468D01*
X167683000Y-120010520D01*
X167678718Y-120053999D01*
X167695804Y-120227489D01*
X167746411Y-120394312D01*
X167828589Y-120548058D01*
X167911467Y-120649045D01*
X167911470Y-120649048D01*
X167939183Y-120682816D01*
X167972950Y-120710528D01*
X168952999Y-121690578D01*
X168953000Y-125852520D01*
X168948718Y-125895999D01*
X168965804Y-126069489D01*
X169016411Y-126236312D01*
X169098589Y-126390058D01*
X169181467Y-126491045D01*
X169181470Y-126491048D01*
X169209183Y-126524816D01*
X169242950Y-126552528D01*
X169943469Y-127253048D01*
X169971182Y-127286816D01*
X170004950Y-127314529D01*
X170004952Y-127314531D01*
X170102516Y-127394600D01*
X170105940Y-127397410D01*
X170259686Y-127479588D01*
X170426509Y-127530194D01*
X170556522Y-127542999D01*
X170556530Y-127542999D01*
X170599999Y-127547280D01*
X170643468Y-127542999D01*
X172925821Y-127542999D01*
X175371065Y-129988244D01*
X175382374Y-130045098D01*
X175460395Y-130233456D01*
X175573663Y-130402974D01*
X175717826Y-130547137D01*
X175887344Y-130660405D01*
X176075702Y-130738426D01*
X176275661Y-130778200D01*
X176479539Y-130778200D01*
X176679498Y-130738426D01*
X176867856Y-130660405D01*
X177037374Y-130547137D01*
X177181537Y-130402974D01*
X177294805Y-130233456D01*
X177372826Y-130045098D01*
X177412600Y-129845139D01*
X177412600Y-129641261D01*
X177372826Y-129441302D01*
X177294805Y-129252944D01*
X177181537Y-129083426D01*
X177037374Y-128939263D01*
X176867856Y-128825995D01*
X176679498Y-128747974D01*
X176622644Y-128736665D01*
X175202836Y-127316858D01*
X175310174Y-127245137D01*
X175454337Y-127100974D01*
X175567605Y-126931456D01*
X175645626Y-126743098D01*
X175685400Y-126543139D01*
X175685400Y-126339261D01*
X175645626Y-126139302D01*
X175567605Y-125950944D01*
X175493481Y-125840009D01*
X175493481Y-123047948D01*
X175497762Y-123004479D01*
X175493481Y-122961010D01*
X175493481Y-122961002D01*
X175480676Y-122830989D01*
X175466242Y-122783408D01*
X175430070Y-122664165D01*
X175347892Y-122510420D01*
X175265013Y-122409432D01*
X175265011Y-122409430D01*
X175237298Y-122375662D01*
X175203531Y-122347950D01*
X174532999Y-121677419D01*
X174532999Y-117811464D01*
X174537280Y-117767998D01*
X174532999Y-117724532D01*
X174532999Y-117724522D01*
X174520194Y-117594509D01*
X174469588Y-117427686D01*
X174387410Y-117273940D01*
X174276816Y-117139182D01*
X174243044Y-117111466D01*
X173796533Y-116664955D01*
X173768816Y-116631182D01*
X173634058Y-116520588D01*
X173480312Y-116438410D01*
X173313489Y-116387804D01*
X173183476Y-116374999D01*
X173183468Y-116374999D01*
X173139999Y-116370718D01*
X173096530Y-116374999D01*
X172998578Y-116374999D01*
X171230999Y-114607421D01*
X171230999Y-107634393D01*
X171255686Y-107647588D01*
X171422509Y-107698194D01*
X171552522Y-107710999D01*
X171552532Y-107710999D01*
X171595998Y-107715280D01*
X171639465Y-107710999D01*
X174121000Y-107710999D01*
X174121001Y-113506519D01*
X174116719Y-113549998D01*
X174133805Y-113723488D01*
X174184412Y-113890311D01*
X174266590Y-114044057D01*
X174349468Y-114145044D01*
X174349471Y-114145047D01*
X174377184Y-114178815D01*
X174410951Y-114206527D01*
X176630999Y-116426576D01*
X176630999Y-116766530D01*
X176626718Y-116809999D01*
X176630999Y-116853468D01*
X176630999Y-116853476D01*
X176643804Y-116983489D01*
X176694411Y-117150312D01*
X176776589Y-117304058D01*
X176859467Y-117405045D01*
X176859470Y-117405048D01*
X176887183Y-117438816D01*
X176920951Y-117466529D01*
X177345388Y-117890966D01*
X177323815Y-118110000D01*
X177352487Y-118401111D01*
X177437401Y-118681034D01*
X177575294Y-118939014D01*
X177760866Y-119165134D01*
X177986986Y-119350706D01*
X178041791Y-119380000D01*
X177986986Y-119409294D01*
X177760866Y-119594866D01*
X177575294Y-119820986D01*
X177437401Y-120078966D01*
X177352487Y-120358889D01*
X177323815Y-120650000D01*
X177352487Y-120941111D01*
X177437401Y-121221034D01*
X177575294Y-121479014D01*
X177760866Y-121705134D01*
X177986986Y-121890706D01*
X178041791Y-121920000D01*
X177986986Y-121949294D01*
X177760866Y-122134866D01*
X177575294Y-122360986D01*
X177437401Y-122618966D01*
X177352487Y-122898889D01*
X177323815Y-123190000D01*
X177352487Y-123481111D01*
X177437401Y-123761034D01*
X177575294Y-124019014D01*
X177760866Y-124245134D01*
X177986986Y-124430706D01*
X178041791Y-124460000D01*
X177986986Y-124489294D01*
X177760866Y-124674866D01*
X177575294Y-124900986D01*
X177437401Y-125158966D01*
X177352487Y-125438889D01*
X177323815Y-125730000D01*
X177352487Y-126021111D01*
X177437401Y-126301034D01*
X177575294Y-126559014D01*
X177760866Y-126785134D01*
X177986986Y-126970706D01*
X178041791Y-127000000D01*
X177986986Y-127029294D01*
X177760866Y-127214866D01*
X177575294Y-127440986D01*
X177437401Y-127698966D01*
X177352487Y-127978889D01*
X177323815Y-128270000D01*
X177352487Y-128561111D01*
X177437401Y-128841034D01*
X177575294Y-129099014D01*
X177760866Y-129325134D01*
X177986986Y-129510706D01*
X178244966Y-129648599D01*
X178524889Y-129733513D01*
X178743050Y-129755000D01*
X178888950Y-129755000D01*
X179107111Y-129733513D01*
X179387034Y-129648599D01*
X179645014Y-129510706D01*
X179871134Y-129325134D01*
X180056706Y-129099014D01*
X180194599Y-128841034D01*
X180279513Y-128561111D01*
X180308185Y-128270000D01*
X180279513Y-127978889D01*
X180194599Y-127698966D01*
X180056706Y-127440986D01*
X179871134Y-127214866D01*
X179645014Y-127029294D01*
X179590209Y-127000000D01*
X179645014Y-126970706D01*
X179871134Y-126785134D01*
X180056706Y-126559014D01*
X180194599Y-126301034D01*
X180279513Y-126021111D01*
X180308185Y-125730000D01*
X180279513Y-125438889D01*
X180194599Y-125158966D01*
X180056706Y-124900986D01*
X179871134Y-124674866D01*
X179645014Y-124489294D01*
X179590209Y-124460000D01*
X179645014Y-124430706D01*
X179871134Y-124245134D01*
X180056706Y-124019014D01*
X180194599Y-123761034D01*
X180279513Y-123481111D01*
X180308185Y-123190000D01*
X180279513Y-122898889D01*
X180194599Y-122618966D01*
X180056706Y-122360986D01*
X179871134Y-122134866D01*
X179645014Y-121949294D01*
X179590209Y-121920000D01*
X179645014Y-121890706D01*
X179871134Y-121705134D01*
X180056706Y-121479014D01*
X180194599Y-121221034D01*
X180279513Y-120941111D01*
X180308185Y-120650000D01*
X180279513Y-120358889D01*
X180194599Y-120078966D01*
X180056706Y-119820986D01*
X179871134Y-119594866D01*
X179645014Y-119409294D01*
X179590209Y-119380000D01*
X179645014Y-119350706D01*
X179871134Y-119165134D01*
X180056706Y-118939014D01*
X180194599Y-118681034D01*
X180279513Y-118401111D01*
X180308185Y-118110000D01*
X180279513Y-117818889D01*
X180194599Y-117538966D01*
X180056706Y-117280986D01*
X179871134Y-117054866D01*
X179645014Y-116869294D01*
X179590209Y-116840000D01*
X179645014Y-116810706D01*
X179871134Y-116625134D01*
X180056706Y-116399014D01*
X180194599Y-116141034D01*
X180279513Y-115861111D01*
X180308185Y-115570000D01*
X180279513Y-115278889D01*
X180194599Y-114998966D01*
X180056706Y-114740986D01*
X179871134Y-114514866D01*
X179645014Y-114329294D01*
X179590209Y-114300000D01*
X179645014Y-114270706D01*
X179871134Y-114085134D01*
X180056706Y-113859014D01*
X180194599Y-113601034D01*
X180279513Y-113321111D01*
X180308185Y-113030000D01*
X180279513Y-112738889D01*
X180194599Y-112458966D01*
X180056706Y-112200986D01*
X179871134Y-111974866D01*
X179645014Y-111789294D01*
X179590209Y-111760000D01*
X179645014Y-111730706D01*
X179871134Y-111545134D01*
X180056706Y-111319014D01*
X180194599Y-111061034D01*
X180279513Y-110781111D01*
X180308185Y-110490000D01*
X180279513Y-110198889D01*
X180194599Y-109918966D01*
X180056706Y-109660986D01*
X179871134Y-109434866D01*
X179645014Y-109249294D01*
X179590209Y-109220000D01*
X179645014Y-109190706D01*
X179871134Y-109005134D01*
X180056706Y-108779014D01*
X180194599Y-108521034D01*
X180279513Y-108241111D01*
X180308185Y-107950000D01*
X180279513Y-107658889D01*
X180194599Y-107378966D01*
X180056706Y-107120986D01*
X179871134Y-106894866D01*
X179645014Y-106709294D01*
X179590209Y-106680000D01*
X179645014Y-106650706D01*
X179871134Y-106465134D01*
X180056706Y-106239014D01*
X180194599Y-105981034D01*
X180279513Y-105701111D01*
X180308185Y-105410000D01*
X180279513Y-105118889D01*
X180194599Y-104838966D01*
X180056706Y-104580986D01*
X179871134Y-104354866D01*
X179645014Y-104169294D01*
X179590209Y-104140000D01*
X179645014Y-104110706D01*
X179871134Y-103925134D01*
X180056706Y-103699014D01*
X180194599Y-103441034D01*
X180279513Y-103161111D01*
X180308185Y-102870000D01*
X180279513Y-102578889D01*
X180194599Y-102298966D01*
X180056706Y-102040986D01*
X179871134Y-101814866D01*
X179645014Y-101629294D01*
X179590209Y-101600000D01*
X179645014Y-101570706D01*
X179871134Y-101385134D01*
X180056706Y-101159014D01*
X180194599Y-100901034D01*
X180279513Y-100621111D01*
X180308185Y-100330000D01*
X180279513Y-100038889D01*
X180194599Y-99758966D01*
X180056706Y-99500986D01*
X179871134Y-99274866D01*
X179645014Y-99089294D01*
X179590209Y-99060000D01*
X179645014Y-99030706D01*
X179871134Y-98845134D01*
X180056706Y-98619014D01*
X180194599Y-98361034D01*
X180279513Y-98081111D01*
X180308185Y-97790000D01*
X180279513Y-97498889D01*
X180194599Y-97218966D01*
X180056706Y-96960986D01*
X179871134Y-96734866D01*
X179841313Y-96710393D01*
X179910180Y-96689502D01*
X180020494Y-96630537D01*
X180117185Y-96551185D01*
X180196537Y-96454494D01*
X180255502Y-96344180D01*
X180291812Y-96224482D01*
X180304072Y-96100000D01*
X180301000Y-95535750D01*
X180142250Y-95377000D01*
X178943000Y-95377000D01*
X178943000Y-95397000D01*
X178689000Y-95397000D01*
X178689000Y-95377000D01*
X177489750Y-95377000D01*
X177331000Y-95535750D01*
X177327928Y-96100000D01*
X177340188Y-96224482D01*
X177376498Y-96344180D01*
X177435463Y-96454494D01*
X177514815Y-96551185D01*
X177611506Y-96630537D01*
X177721820Y-96689502D01*
X177790687Y-96710393D01*
X177760866Y-96734866D01*
X177575294Y-96960986D01*
X177437401Y-97218966D01*
X177352487Y-97498889D01*
X177323815Y-97790000D01*
X177352487Y-98081111D01*
X177437401Y-98361034D01*
X177575294Y-98619014D01*
X177760866Y-98845134D01*
X177986986Y-99030706D01*
X178041791Y-99060000D01*
X177986986Y-99089294D01*
X177760866Y-99274866D01*
X177575294Y-99500986D01*
X177437401Y-99758966D01*
X177352487Y-100038889D01*
X177323815Y-100330000D01*
X177352487Y-100621111D01*
X177437401Y-100901034D01*
X177575294Y-101159014D01*
X177760866Y-101385134D01*
X177986986Y-101570706D01*
X178041791Y-101600000D01*
X177986986Y-101629294D01*
X177890257Y-101708678D01*
X176932534Y-100750956D01*
X176904817Y-100717183D01*
X176770059Y-100606589D01*
X176616313Y-100524411D01*
X176449490Y-100473805D01*
X176319477Y-100461000D01*
X176319469Y-100461000D01*
X176276000Y-100456719D01*
X176232531Y-100461000D01*
X172156804Y-100461000D01*
X172191226Y-100377898D01*
X172202535Y-100321043D01*
X172641051Y-99882528D01*
X172674818Y-99854816D01*
X172785412Y-99720058D01*
X172867590Y-99566312D01*
X172918196Y-99399489D01*
X172931001Y-99269476D01*
X172931001Y-99269468D01*
X172935282Y-99225999D01*
X172931001Y-99182530D01*
X172931001Y-98441464D01*
X172935282Y-98397998D01*
X172931001Y-98354532D01*
X172931001Y-98354522D01*
X172918196Y-98224509D01*
X172867590Y-98057686D01*
X172785412Y-97903940D01*
X172674818Y-97769182D01*
X172641045Y-97741465D01*
X172260535Y-97360955D01*
X172232818Y-97327182D01*
X172098060Y-97216588D01*
X171944314Y-97134410D01*
X171777491Y-97083804D01*
X171647478Y-97070999D01*
X171647470Y-97070999D01*
X171604001Y-97066718D01*
X171560532Y-97070999D01*
X169676466Y-97070999D01*
X169633000Y-97066718D01*
X169589534Y-97070999D01*
X169589524Y-97070999D01*
X169459511Y-97083804D01*
X169292688Y-97134410D01*
X169138942Y-97216588D01*
X169109453Y-97240789D01*
X169037954Y-97299467D01*
X169037952Y-97299469D01*
X169004184Y-97327182D01*
X168976471Y-97360950D01*
X166624957Y-99712465D01*
X166591184Y-99740182D01*
X166480590Y-99874941D01*
X166398412Y-100028687D01*
X166347806Y-100195510D01*
X166335001Y-100325523D01*
X166335001Y-100325530D01*
X166330720Y-100368999D01*
X166335001Y-100412468D01*
X166335002Y-106491417D01*
X165940955Y-106885465D01*
X165907182Y-106913182D01*
X165796588Y-107047941D01*
X165714410Y-107201687D01*
X165681912Y-107308817D01*
X165665934Y-107361490D01*
X165663804Y-107368510D01*
X165650999Y-107498523D01*
X165650999Y-107498530D01*
X165646718Y-107541999D01*
X162136001Y-107541999D01*
X162136001Y-107446470D01*
X162140282Y-107403001D01*
X162136001Y-107359532D01*
X162136001Y-107359524D01*
X162123196Y-107229511D01*
X162072590Y-107062688D01*
X161990412Y-106908942D01*
X161879818Y-106774184D01*
X161846045Y-106746467D01*
X161832999Y-106733421D01*
X161832999Y-101555464D01*
X161837280Y-101511998D01*
X161832999Y-101468532D01*
X161832999Y-101468522D01*
X161820194Y-101338509D01*
X161769588Y-101171686D01*
X161687410Y-101017940D01*
X161647639Y-100969479D01*
X161604531Y-100916952D01*
X161604529Y-100916950D01*
X161576816Y-100883182D01*
X161543049Y-100855470D01*
X158232535Y-97544957D01*
X158221226Y-97488102D01*
X158143205Y-97299744D01*
X158029937Y-97130226D01*
X157885774Y-96986063D01*
X157716256Y-96872795D01*
X157527898Y-96794774D01*
X157327939Y-96755000D01*
X157124061Y-96755000D01*
X156924102Y-96794774D01*
X156735744Y-96872795D01*
X156566226Y-96986063D01*
X156422063Y-97130226D01*
X156308795Y-97299744D01*
X156230774Y-97488102D01*
X156219465Y-97544956D01*
X155080940Y-98683482D01*
X155047173Y-98711194D01*
X155019460Y-98744962D01*
X155019457Y-98744965D01*
X154936579Y-98845952D01*
X154854401Y-98999698D01*
X154803794Y-99166521D01*
X154786708Y-99340011D01*
X154790990Y-99383490D01*
X154790989Y-101259433D01*
X154765432Y-101284990D01*
X151340999Y-101284990D01*
X151340999Y-101223464D01*
X151345280Y-101179998D01*
X151340999Y-101136532D01*
X151340999Y-101136522D01*
X151328194Y-101006509D01*
X151277588Y-100839686D01*
X151195410Y-100685940D01*
X151157547Y-100639804D01*
X151112531Y-100584952D01*
X151112529Y-100584950D01*
X151084816Y-100551182D01*
X151077030Y-100544792D01*
X151098185Y-100330000D01*
X151069513Y-100038889D01*
X150984599Y-99758966D01*
X150846706Y-99500986D01*
X150661134Y-99274866D01*
X150435014Y-99089294D01*
X150380209Y-99060000D01*
X150435014Y-99030706D01*
X150661134Y-98845134D01*
X150846706Y-98619014D01*
X150984599Y-98361034D01*
X151069513Y-98081111D01*
X151098185Y-97790000D01*
X151069513Y-97498889D01*
X150984599Y-97218966D01*
X150846706Y-96960986D01*
X150661134Y-96734866D01*
X150631313Y-96710393D01*
X150700180Y-96689502D01*
X150810494Y-96630537D01*
X150907185Y-96551185D01*
X150986537Y-96454494D01*
X151045502Y-96344180D01*
X151081812Y-96224482D01*
X151094072Y-96100000D01*
X151091000Y-95535750D01*
X150932250Y-95377000D01*
X149733000Y-95377000D01*
X149733000Y-95397000D01*
X149479000Y-95397000D01*
X149479000Y-95377000D01*
X148279750Y-95377000D01*
X148121000Y-95535750D01*
X148117928Y-96100000D01*
X148130188Y-96224482D01*
X148166498Y-96344180D01*
X148225463Y-96454494D01*
X148304815Y-96551185D01*
X148401506Y-96630537D01*
X148511820Y-96689502D01*
X148580687Y-96710393D01*
X148550866Y-96734866D01*
X148365294Y-96960986D01*
X148227401Y-97218966D01*
X148142487Y-97498889D01*
X148113815Y-97790000D01*
X147497000Y-97790000D01*
X147497000Y-95029504D01*
X147511364Y-94883008D01*
X147544176Y-94774330D01*
X147597479Y-94674082D01*
X147669232Y-94586103D01*
X147756707Y-94513737D01*
X147856579Y-94459737D01*
X147965027Y-94426167D01*
X148109331Y-94411000D01*
X148117988Y-94411000D01*
X148121000Y-94964250D01*
G36*
X169473804Y-115147489D02*
G01*
X169524411Y-115314312D01*
X169606589Y-115468058D01*
X169689467Y-115569045D01*
X169689470Y-115569048D01*
X169717183Y-115602816D01*
X169750950Y-115630528D01*
X171975468Y-117855047D01*
X172003182Y-117888816D01*
X172036950Y-117916529D01*
X172036952Y-117916531D01*
X172067362Y-117941488D01*
X172137940Y-117999410D01*
X172291686Y-118081588D01*
X172458509Y-118132194D01*
X172588522Y-118144999D01*
X172588532Y-118144999D01*
X172631998Y-118149280D01*
X172675464Y-118144999D01*
X172762999Y-118144999D01*
X172763000Y-122000518D01*
X172758718Y-122043997D01*
X172775804Y-122217487D01*
X172826411Y-122384310D01*
X172908589Y-122538056D01*
X172991467Y-122639043D01*
X172991470Y-122639046D01*
X173019183Y-122672814D01*
X173052950Y-122700526D01*
X173723481Y-123371058D01*
X173723482Y-125884927D01*
X173632712Y-125836410D01*
X173465889Y-125785804D01*
X173335876Y-125772999D01*
X173335868Y-125772999D01*
X173292399Y-125768718D01*
X173248930Y-125772999D01*
X170966578Y-125772999D01*
X170722999Y-125529421D01*
X170722999Y-121367464D01*
X170727280Y-121323998D01*
X170722999Y-121280532D01*
X170722999Y-121280522D01*
X170710194Y-121150509D01*
X170659588Y-120983686D01*
X170577410Y-120829940D01*
X170466816Y-120695182D01*
X170433049Y-120667470D01*
X169452999Y-119687421D01*
X169452999Y-116341433D01*
X169454196Y-116337487D01*
X169467001Y-116207474D01*
X169467001Y-116207466D01*
X169471282Y-116163997D01*
X169467001Y-116120528D01*
X169467001Y-115078412D01*
X169473804Y-115147489D01*
X169473804Y-115147489D01*
G37*
X169473804Y-115147489D02*
X169524411Y-115314312D01*
X169606589Y-115468058D01*
X169689467Y-115569045D01*
X169689470Y-115569048D01*
X169717183Y-115602816D01*
X169750950Y-115630528D01*
X171975468Y-117855047D01*
X172003182Y-117888816D01*
X172036950Y-117916529D01*
X172036952Y-117916531D01*
X172067362Y-117941488D01*
X172137940Y-117999410D01*
X172291686Y-118081588D01*
X172458509Y-118132194D01*
X172588522Y-118144999D01*
X172588532Y-118144999D01*
X172631998Y-118149280D01*
X172675464Y-118144999D01*
X172762999Y-118144999D01*
X172763000Y-122000518D01*
X172758718Y-122043997D01*
X172775804Y-122217487D01*
X172826411Y-122384310D01*
X172908589Y-122538056D01*
X172991467Y-122639043D01*
X172991470Y-122639046D01*
X173019183Y-122672814D01*
X173052950Y-122700526D01*
X173723481Y-123371058D01*
X173723482Y-125884927D01*
X173632712Y-125836410D01*
X173465889Y-125785804D01*
X173335876Y-125772999D01*
X173335868Y-125772999D01*
X173292399Y-125768718D01*
X173248930Y-125772999D01*
X170966578Y-125772999D01*
X170722999Y-125529421D01*
X170722999Y-121367464D01*
X170727280Y-121323998D01*
X170722999Y-121280532D01*
X170722999Y-121280522D01*
X170710194Y-121150509D01*
X170659588Y-120983686D01*
X170577410Y-120829940D01*
X170466816Y-120695182D01*
X170433049Y-120667470D01*
X169452999Y-119687421D01*
X169452999Y-116341433D01*
X169454196Y-116337487D01*
X169467001Y-116207474D01*
X169467001Y-116207466D01*
X169471282Y-116163997D01*
X169467001Y-116120528D01*
X169467001Y-115078412D01*
X169473804Y-115147489D01*
G36*
X169461000Y-114873592D02*
G01*
X169454196Y-114804509D01*
X169403590Y-114637686D01*
X169321412Y-114483940D01*
X169284760Y-114439280D01*
X169238533Y-114382952D01*
X169238531Y-114382950D01*
X169210818Y-114349182D01*
X169177051Y-114321470D01*
X167420999Y-112565419D01*
X167420999Y-107908577D01*
X167815050Y-107514527D01*
X167848818Y-107486814D01*
X167904329Y-107419175D01*
X167959412Y-107352056D01*
X167976515Y-107320058D01*
X168041590Y-107198310D01*
X168092196Y-107031487D01*
X168105001Y-106901474D01*
X168105001Y-106901466D01*
X168109282Y-106857997D01*
X168105001Y-106814528D01*
X168105001Y-100735577D01*
X169460999Y-99379580D01*
X169461000Y-114873592D01*
X169461000Y-114873592D01*
G37*
X169461000Y-114873592D02*
X169454196Y-114804509D01*
X169403590Y-114637686D01*
X169321412Y-114483940D01*
X169284760Y-114439280D01*
X169238533Y-114382952D01*
X169238531Y-114382950D01*
X169210818Y-114349182D01*
X169177051Y-114321470D01*
X167420999Y-112565419D01*
X167420999Y-107908577D01*
X167815050Y-107514527D01*
X167848818Y-107486814D01*
X167904329Y-107419175D01*
X167959412Y-107352056D01*
X167976515Y-107320058D01*
X168041590Y-107198310D01*
X168092196Y-107031487D01*
X168105001Y-106901474D01*
X168105001Y-106901466D01*
X168109282Y-106857997D01*
X168105001Y-106814528D01*
X168105001Y-100735577D01*
X169460999Y-99379580D01*
X169461000Y-114873592D01*
G36*
X176630999Y-102952578D02*
G01*
X176630999Y-103676521D01*
X175771138Y-103160605D01*
X175754059Y-103146589D01*
X175696510Y-103115829D01*
X175678047Y-103104751D01*
X175658216Y-103095360D01*
X175600313Y-103064411D01*
X175579566Y-103058117D01*
X175559974Y-103048840D01*
X175496320Y-103032865D01*
X175433490Y-103013805D01*
X175411908Y-103011679D01*
X175390888Y-103006404D01*
X175325347Y-103003154D01*
X175303477Y-103001000D01*
X175281909Y-103001000D01*
X175216772Y-102997770D01*
X175194929Y-103001000D01*
X171734454Y-103001000D01*
X171686256Y-102968795D01*
X171497898Y-102890774D01*
X171297939Y-102851000D01*
X171230999Y-102851000D01*
X171230999Y-102381000D01*
X171297939Y-102381000D01*
X171497898Y-102341226D01*
X171686256Y-102263205D01*
X171734454Y-102231000D01*
X175909422Y-102231000D01*
X176630999Y-102952578D01*
X176630999Y-102952578D01*
G37*
X176630999Y-102952578D02*
X176630999Y-103676521D01*
X175771138Y-103160605D01*
X175754059Y-103146589D01*
X175696510Y-103115829D01*
X175678047Y-103104751D01*
X175658216Y-103095360D01*
X175600313Y-103064411D01*
X175579566Y-103058117D01*
X175559974Y-103048840D01*
X175496320Y-103032865D01*
X175433490Y-103013805D01*
X175411908Y-103011679D01*
X175390888Y-103006404D01*
X175325347Y-103003154D01*
X175303477Y-103001000D01*
X175281909Y-103001000D01*
X175216772Y-102997770D01*
X175194929Y-103001000D01*
X171734454Y-103001000D01*
X171686256Y-102968795D01*
X171497898Y-102890774D01*
X171297939Y-102851000D01*
X171230999Y-102851000D01*
X171230999Y-102381000D01*
X171297939Y-102381000D01*
X171497898Y-102341226D01*
X171686256Y-102263205D01*
X171734454Y-102231000D01*
X175909422Y-102231000D01*
X176630999Y-102952578D01*
G36*
X160290952Y-126756528D02*
G01*
X159728800Y-126756528D01*
X159604318Y-126768788D01*
X159484620Y-126805098D01*
X159374306Y-126864063D01*
X159277615Y-126943415D01*
X159233251Y-126997473D01*
X159127000Y-126891222D01*
X159127000Y-125592576D01*
X160290952Y-126756528D01*
X160290952Y-126756528D01*
G37*
X160290952Y-126756528D02*
X159728800Y-126756528D01*
X159604318Y-126768788D01*
X159484620Y-126805098D01*
X159374306Y-126864063D01*
X159277615Y-126943415D01*
X159233251Y-126997473D01*
X159127000Y-126891222D01*
X159127000Y-125592576D01*
X160290952Y-126756528D01*
G36*
X148121000Y-94964250D02*
G01*
X148279750Y-95123000D01*
X149479000Y-95123000D01*
X149479000Y-95103000D01*
X149733000Y-95103000D01*
X149733000Y-95123000D01*
X150932250Y-95123000D01*
X151091000Y-94964250D01*
X151094012Y-94411000D01*
X177327988Y-94411000D01*
X177331000Y-94964250D01*
X177489750Y-95123000D01*
X178689000Y-95123000D01*
X178689000Y-95103000D01*
X178943000Y-95103000D01*
X178943000Y-95123000D01*
X180142250Y-95123000D01*
X180301000Y-94964250D01*
X180304012Y-94411000D01*
X180560496Y-94411000D01*
X180706992Y-94425364D01*
X180815670Y-94458176D01*
X180915918Y-94511479D01*
X181003897Y-94583232D01*
X181076263Y-94670707D01*
X181130263Y-94770579D01*
X181163833Y-94879027D01*
X181179000Y-95023331D01*
X181179001Y-142825000D01*
X147497000Y-142825000D01*
X147497000Y-134131000D01*
X147675939Y-134131000D01*
X147875898Y-134091226D01*
X148064256Y-134013205D01*
X148233774Y-133899937D01*
X148377937Y-133755774D01*
X148491205Y-133586256D01*
X148569226Y-133397898D01*
X148609000Y-133197939D01*
X148609000Y-132994061D01*
X148569226Y-132794102D01*
X148491205Y-132605744D01*
X148377937Y-132436226D01*
X148233774Y-132292063D01*
X148064256Y-132178795D01*
X147875898Y-132100774D01*
X147675939Y-132061000D01*
X147497000Y-132061000D01*
X147497000Y-97790000D01*
X148113815Y-97790000D01*
X148142487Y-98081111D01*
X148227401Y-98361034D01*
X148365294Y-98619014D01*
X148550866Y-98845134D01*
X148776986Y-99030706D01*
X148831791Y-99060000D01*
X148776986Y-99089294D01*
X148550866Y-99274866D01*
X148365294Y-99500986D01*
X148227401Y-99758966D01*
X148142487Y-100038889D01*
X148113815Y-100330000D01*
X148142487Y-100621111D01*
X148227401Y-100901034D01*
X148365294Y-101159014D01*
X148550866Y-101385134D01*
X148776986Y-101570706D01*
X148831791Y-101600000D01*
X148776986Y-101629294D01*
X148550866Y-101814866D01*
X148365294Y-102040986D01*
X148227401Y-102298966D01*
X148142487Y-102578889D01*
X148113815Y-102870000D01*
X148142487Y-103161111D01*
X148227401Y-103441034D01*
X148365294Y-103699014D01*
X148550866Y-103925134D01*
X148776986Y-104110706D01*
X148831791Y-104140000D01*
X148776986Y-104169294D01*
X148550866Y-104354866D01*
X148365294Y-104580986D01*
X148227401Y-104838966D01*
X148142487Y-105118889D01*
X148113815Y-105410000D01*
X148142487Y-105701111D01*
X148227401Y-105981034D01*
X148365294Y-106239014D01*
X148550866Y-106465134D01*
X148776986Y-106650706D01*
X148831791Y-106680000D01*
X148776986Y-106709294D01*
X148550866Y-106894866D01*
X148365294Y-107120986D01*
X148227401Y-107378966D01*
X148142487Y-107658889D01*
X148113815Y-107950000D01*
X148142487Y-108241111D01*
X148227401Y-108521034D01*
X148365294Y-108779014D01*
X148550866Y-109005134D01*
X148776986Y-109190706D01*
X148831791Y-109220000D01*
X148776986Y-109249294D01*
X148550866Y-109434866D01*
X148365294Y-109660986D01*
X148227401Y-109918966D01*
X148142487Y-110198889D01*
X148113815Y-110490000D01*
X148142487Y-110781111D01*
X148227401Y-111061034D01*
X148365294Y-111319014D01*
X148550866Y-111545134D01*
X148776986Y-111730706D01*
X148831791Y-111760000D01*
X148776986Y-111789294D01*
X148550866Y-111974866D01*
X148365294Y-112200986D01*
X148227401Y-112458966D01*
X148142487Y-112738889D01*
X148113815Y-113030000D01*
X148142487Y-113321111D01*
X148227401Y-113601034D01*
X148365294Y-113859014D01*
X148550866Y-114085134D01*
X148776986Y-114270706D01*
X148831791Y-114300000D01*
X148776986Y-114329294D01*
X148550866Y-114514866D01*
X148365294Y-114740986D01*
X148227401Y-114998966D01*
X148142487Y-115278889D01*
X148113815Y-115570000D01*
X148142487Y-115861111D01*
X148227401Y-116141034D01*
X148365294Y-116399014D01*
X148550866Y-116625134D01*
X148776986Y-116810706D01*
X148831791Y-116840000D01*
X148776986Y-116869294D01*
X148550866Y-117054866D01*
X148365294Y-117280986D01*
X148227401Y-117538966D01*
X148142487Y-117818889D01*
X148113815Y-118110000D01*
X148142487Y-118401111D01*
X148227401Y-118681034D01*
X148365294Y-118939014D01*
X148550866Y-119165134D01*
X148776986Y-119350706D01*
X148831791Y-119380000D01*
X148776986Y-119409294D01*
X148550866Y-119594866D01*
X148365294Y-119820986D01*
X148227401Y-120078966D01*
X148142487Y-120358889D01*
X148113815Y-120650000D01*
X148142487Y-120941111D01*
X148227401Y-121221034D01*
X148365294Y-121479014D01*
X148550866Y-121705134D01*
X148776986Y-121890706D01*
X148831791Y-121920000D01*
X148776986Y-121949294D01*
X148550866Y-122134866D01*
X148365294Y-122360986D01*
X148227401Y-122618966D01*
X148142487Y-122898889D01*
X148113815Y-123190000D01*
X148142487Y-123481111D01*
X148227401Y-123761034D01*
X148365294Y-124019014D01*
X148550866Y-124245134D01*
X148776986Y-124430706D01*
X148831791Y-124460000D01*
X148776986Y-124489294D01*
X148550866Y-124674866D01*
X148365294Y-124900986D01*
X148227401Y-125158966D01*
X148142487Y-125438889D01*
X148113815Y-125730000D01*
X148142487Y-126021111D01*
X148227401Y-126301034D01*
X148365294Y-126559014D01*
X148550866Y-126785134D01*
X148776986Y-126970706D01*
X148831791Y-127000000D01*
X148776986Y-127029294D01*
X148550866Y-127214866D01*
X148365294Y-127440986D01*
X148227401Y-127698966D01*
X148142487Y-127978889D01*
X148113815Y-128270000D01*
X148142487Y-128561111D01*
X148227401Y-128841034D01*
X148365294Y-129099014D01*
X148550866Y-129325134D01*
X148776986Y-129510706D01*
X149034966Y-129648599D01*
X149314889Y-129733513D01*
X149533050Y-129755000D01*
X149678950Y-129755000D01*
X149897111Y-129733513D01*
X150177034Y-129648599D01*
X150435014Y-129510706D01*
X150661134Y-129325134D01*
X150846706Y-129099014D01*
X150984599Y-128841034D01*
X151069513Y-128561111D01*
X151098185Y-128270000D01*
X151069513Y-127978889D01*
X150984599Y-127698966D01*
X150846706Y-127440986D01*
X150661134Y-127214866D01*
X150435014Y-127029294D01*
X150380209Y-127000000D01*
X150435014Y-126970706D01*
X150661134Y-126785134D01*
X150846706Y-126559014D01*
X150984599Y-126301034D01*
X151069513Y-126021111D01*
X151098185Y-125730000D01*
X151069513Y-125438889D01*
X150984599Y-125158966D01*
X150846706Y-124900986D01*
X150661134Y-124674866D01*
X150435014Y-124489294D01*
X150380209Y-124460000D01*
X150435014Y-124430706D01*
X150661134Y-124245134D01*
X150846706Y-124019014D01*
X150984599Y-123761034D01*
X151069513Y-123481111D01*
X151098185Y-123190000D01*
X151069513Y-122898889D01*
X150984599Y-122618966D01*
X150846706Y-122360986D01*
X150661134Y-122134866D01*
X150435014Y-121949294D01*
X150380209Y-121920000D01*
X150435014Y-121890706D01*
X150661134Y-121705134D01*
X150846706Y-121479014D01*
X150984599Y-121221034D01*
X151069513Y-120941111D01*
X151098185Y-120650000D01*
X151069513Y-120358889D01*
X150984599Y-120078966D01*
X150846706Y-119820986D01*
X150661134Y-119594866D01*
X150435014Y-119409294D01*
X150380209Y-119380000D01*
X150435014Y-119350706D01*
X150661134Y-119165134D01*
X150846706Y-118939014D01*
X150984599Y-118681034D01*
X151069513Y-118401111D01*
X151098185Y-118110000D01*
X151076612Y-117890966D01*
X153757049Y-115210530D01*
X153790817Y-115182817D01*
X153819811Y-115147489D01*
X153901410Y-115048060D01*
X153901411Y-115048059D01*
X153983589Y-114894313D01*
X154034195Y-114727490D01*
X154047000Y-114597477D01*
X154047000Y-114597467D01*
X154051281Y-114554001D01*
X154047000Y-114510535D01*
X154047000Y-107565000D01*
X156398041Y-107565000D01*
X156404411Y-107585998D01*
X156480749Y-107728816D01*
X156486590Y-107739744D01*
X156569468Y-107840731D01*
X156569471Y-107840734D01*
X156597184Y-107874502D01*
X156630951Y-107902214D01*
X157357000Y-108628264D01*
X157357001Y-127214321D01*
X157352719Y-127257800D01*
X157369805Y-127431290D01*
X157420412Y-127598113D01*
X157502590Y-127751859D01*
X157585468Y-127852846D01*
X157585471Y-127852849D01*
X157613184Y-127886617D01*
X157646951Y-127914329D01*
X158572270Y-128839649D01*
X158599983Y-128873417D01*
X158633751Y-128901130D01*
X158633753Y-128901132D01*
X158680216Y-128939263D01*
X158734741Y-128984011D01*
X158888487Y-129066189D01*
X158982144Y-129094600D01*
X159055309Y-129116795D01*
X159070106Y-129118252D01*
X159093282Y-129120535D01*
X159102988Y-129219082D01*
X159139298Y-129338780D01*
X159198263Y-129449094D01*
X159277615Y-129545785D01*
X159374306Y-129625137D01*
X159484620Y-129684102D01*
X159604318Y-129720412D01*
X159728800Y-129732672D01*
X161428800Y-129732672D01*
X161553282Y-129720412D01*
X161672980Y-129684102D01*
X161783294Y-129625137D01*
X161879985Y-129545785D01*
X161959337Y-129449094D01*
X162001200Y-129370775D01*
X162043063Y-129449094D01*
X162122415Y-129545785D01*
X162219106Y-129625137D01*
X162329420Y-129684102D01*
X162449118Y-129720412D01*
X162573600Y-129732672D01*
X164273600Y-129732672D01*
X164398082Y-129720412D01*
X164517780Y-129684102D01*
X164628094Y-129625137D01*
X164724785Y-129545785D01*
X164804137Y-129449094D01*
X164813812Y-129430994D01*
X164837063Y-129474494D01*
X164916415Y-129571185D01*
X165013106Y-129650537D01*
X165123420Y-129709502D01*
X165243118Y-129745812D01*
X165367600Y-129758072D01*
X165931850Y-129755000D01*
X166090600Y-129596250D01*
X166090600Y-128397000D01*
X166344600Y-128397000D01*
X166344600Y-129596250D01*
X166503350Y-129755000D01*
X167067600Y-129758072D01*
X167192082Y-129745812D01*
X167311780Y-129709502D01*
X167422094Y-129650537D01*
X167518785Y-129571185D01*
X167598137Y-129474494D01*
X167657102Y-129364180D01*
X167693412Y-129244482D01*
X167705672Y-129120000D01*
X167702600Y-128555750D01*
X167543850Y-128397000D01*
X166344600Y-128397000D01*
X166090600Y-128397000D01*
X166070600Y-128397000D01*
X166070600Y-128143000D01*
X166090600Y-128143000D01*
X166090600Y-126943750D01*
X166344600Y-126943750D01*
X166344600Y-128143000D01*
X167543850Y-128143000D01*
X167702600Y-127984250D01*
X167705672Y-127420000D01*
X167693412Y-127295518D01*
X167657102Y-127175820D01*
X167598137Y-127065506D01*
X167518785Y-126968815D01*
X167422094Y-126889463D01*
X167311780Y-126830498D01*
X167192082Y-126794188D01*
X167067600Y-126781928D01*
X166503350Y-126785000D01*
X166344600Y-126943750D01*
X166090600Y-126943750D01*
X165931850Y-126785000D01*
X165367600Y-126781928D01*
X165243118Y-126794188D01*
X165123420Y-126830498D01*
X165013106Y-126889463D01*
X164916415Y-126968815D01*
X164837063Y-127065506D01*
X164827388Y-127083606D01*
X164804137Y-127040106D01*
X164724785Y-126943415D01*
X164628094Y-126864063D01*
X164517780Y-126805098D01*
X164398082Y-126768788D01*
X164273600Y-126756528D01*
X162794109Y-126756528D01*
X160043001Y-124005421D01*
X160043001Y-107397465D01*
X160047282Y-107353998D01*
X160043001Y-107310532D01*
X160043001Y-107310522D01*
X160030196Y-107180509D01*
X159979590Y-107013686D01*
X159897412Y-106859940D01*
X159854749Y-106807955D01*
X159814533Y-106758952D01*
X159814531Y-106758950D01*
X159786818Y-106725182D01*
X159753051Y-106697470D01*
X158235514Y-105179934D01*
X158221226Y-105108102D01*
X158143205Y-104919744D01*
X158046490Y-104775000D01*
X158143205Y-104630256D01*
X158221226Y-104441898D01*
X158261000Y-104241939D01*
X158261000Y-104038061D01*
X158221226Y-103838102D01*
X158143205Y-103649744D01*
X158029937Y-103480226D01*
X157885774Y-103336063D01*
X157716256Y-103222795D01*
X157527898Y-103144774D01*
X157327939Y-103105000D01*
X157124061Y-103105000D01*
X156924102Y-103144774D01*
X156735744Y-103222795D01*
X156687546Y-103255000D01*
X156314578Y-103255000D01*
X156971049Y-102598530D01*
X157004816Y-102570818D01*
X157033877Y-102535408D01*
X157115410Y-102436060D01*
X157188687Y-102298966D01*
X157197588Y-102282314D01*
X157248194Y-102115491D01*
X157260999Y-101985478D01*
X157260999Y-101985470D01*
X157265280Y-101942001D01*
X157260999Y-101898532D01*
X157260999Y-101365000D01*
X157327939Y-101365000D01*
X157527898Y-101325226D01*
X157716256Y-101247205D01*
X157885774Y-101133937D01*
X158029937Y-100989774D01*
X158143205Y-100820256D01*
X158221226Y-100631898D01*
X158261000Y-100431939D01*
X158261000Y-100228061D01*
X158223387Y-100038965D01*
X160062999Y-101878578D01*
X160063000Y-107056520D01*
X160058718Y-107099999D01*
X160075804Y-107273489D01*
X160126411Y-107440312D01*
X160208589Y-107594058D01*
X160291467Y-107695045D01*
X160291469Y-107695047D01*
X160319183Y-107728816D01*
X160352951Y-107756529D01*
X160366002Y-107769580D01*
X160366001Y-116452732D01*
X160361720Y-116496201D01*
X160366001Y-116539670D01*
X160366001Y-116539677D01*
X160378806Y-116669690D01*
X160429412Y-116836513D01*
X160511590Y-116990259D01*
X160622184Y-117125018D01*
X160655957Y-117152735D01*
X160893065Y-117389843D01*
X160904374Y-117446698D01*
X160982395Y-117635056D01*
X161095663Y-117804574D01*
X161239826Y-117948737D01*
X161409344Y-118062005D01*
X161597702Y-118140026D01*
X161797661Y-118179800D01*
X162001539Y-118179800D01*
X162201498Y-118140026D01*
X162389856Y-118062005D01*
X162559374Y-117948737D01*
X162703537Y-117804574D01*
X162816805Y-117635056D01*
X162894826Y-117446698D01*
X162934600Y-117246739D01*
X162934600Y-117042861D01*
X162894826Y-116842902D01*
X162816805Y-116654544D01*
X162703537Y-116485026D01*
X162559374Y-116340863D01*
X162389856Y-116227595D01*
X162201498Y-116149574D01*
X162144643Y-116138265D01*
X162136001Y-116129623D01*
X162136001Y-107541999D01*
X165646718Y-107541999D01*
X165650999Y-107585468D01*
X165651000Y-112888518D01*
X165646718Y-112931997D01*
X165663804Y-113105487D01*
X165714411Y-113272310D01*
X165796589Y-113426056D01*
X165879467Y-113527043D01*
X165879470Y-113527046D01*
X165907183Y-113560814D01*
X165940950Y-113588526D01*
X167697001Y-115344578D01*
X167697002Y-116000561D01*
X167695804Y-116004510D01*
X167682999Y-116134523D01*
X167682999Y-116134530D01*
X167678718Y-116177999D01*
X167682999Y-116221468D01*
X167683000Y-120010520D01*
X167678718Y-120053999D01*
X167695804Y-120227489D01*
X167746411Y-120394312D01*
X167828589Y-120548058D01*
X167911467Y-120649045D01*
X167911470Y-120649048D01*
X167939183Y-120682816D01*
X167972950Y-120710528D01*
X168952999Y-121690578D01*
X168953000Y-125852520D01*
X168948718Y-125895999D01*
X168965804Y-126069489D01*
X169016411Y-126236312D01*
X169098589Y-126390058D01*
X169181467Y-126491045D01*
X169181470Y-126491048D01*
X169209183Y-126524816D01*
X169242950Y-126552528D01*
X169943469Y-127253048D01*
X169971182Y-127286816D01*
X170004950Y-127314529D01*
X170004952Y-127314531D01*
X170102516Y-127394600D01*
X170105940Y-127397410D01*
X170259686Y-127479588D01*
X170426509Y-127530194D01*
X170556522Y-127542999D01*
X170556530Y-127542999D01*
X170599999Y-127547280D01*
X170643468Y-127542999D01*
X172925821Y-127542999D01*
X175371065Y-129988244D01*
X175382374Y-130045098D01*
X175460395Y-130233456D01*
X175573663Y-130402974D01*
X175717826Y-130547137D01*
X175887344Y-130660405D01*
X176075702Y-130738426D01*
X176275661Y-130778200D01*
X176479539Y-130778200D01*
X176679498Y-130738426D01*
X176867856Y-130660405D01*
X177037374Y-130547137D01*
X177181537Y-130402974D01*
X177294805Y-130233456D01*
X177372826Y-130045098D01*
X177412600Y-129845139D01*
X177412600Y-129641261D01*
X177372826Y-129441302D01*
X177294805Y-129252944D01*
X177181537Y-129083426D01*
X177037374Y-128939263D01*
X176867856Y-128825995D01*
X176679498Y-128747974D01*
X176622644Y-128736665D01*
X175202836Y-127316858D01*
X175310174Y-127245137D01*
X175454337Y-127100974D01*
X175567605Y-126931456D01*
X175645626Y-126743098D01*
X175685400Y-126543139D01*
X175685400Y-126339261D01*
X175645626Y-126139302D01*
X175567605Y-125950944D01*
X175493481Y-125840009D01*
X175493481Y-123047948D01*
X175497762Y-123004479D01*
X175493481Y-122961010D01*
X175493481Y-122961002D01*
X175480676Y-122830989D01*
X175466242Y-122783408D01*
X175430070Y-122664165D01*
X175347892Y-122510420D01*
X175265013Y-122409432D01*
X175265011Y-122409430D01*
X175237298Y-122375662D01*
X175203531Y-122347950D01*
X174532999Y-121677419D01*
X174532999Y-117811464D01*
X174537280Y-117767998D01*
X174532999Y-117724532D01*
X174532999Y-117724522D01*
X174520194Y-117594509D01*
X174469588Y-117427686D01*
X174387410Y-117273940D01*
X174276816Y-117139182D01*
X174243044Y-117111466D01*
X173796533Y-116664955D01*
X173768816Y-116631182D01*
X173634058Y-116520588D01*
X173480312Y-116438410D01*
X173313489Y-116387804D01*
X173183476Y-116374999D01*
X173183468Y-116374999D01*
X173139999Y-116370718D01*
X173096530Y-116374999D01*
X172998578Y-116374999D01*
X171230999Y-114607421D01*
X171230999Y-107634393D01*
X171255686Y-107647588D01*
X171422509Y-107698194D01*
X171552522Y-107710999D01*
X171552532Y-107710999D01*
X171595998Y-107715280D01*
X171639465Y-107710999D01*
X174121000Y-107710999D01*
X174121001Y-113506519D01*
X174116719Y-113549998D01*
X174133805Y-113723488D01*
X174184412Y-113890311D01*
X174266590Y-114044057D01*
X174349468Y-114145044D01*
X174349471Y-114145047D01*
X174377184Y-114178815D01*
X174410951Y-114206527D01*
X176630999Y-116426576D01*
X176630999Y-116766530D01*
X176626718Y-116809999D01*
X176630999Y-116853468D01*
X176630999Y-116853476D01*
X176643804Y-116983489D01*
X176694411Y-117150312D01*
X176776589Y-117304058D01*
X176859467Y-117405045D01*
X176859470Y-117405048D01*
X176887183Y-117438816D01*
X176920951Y-117466529D01*
X177345388Y-117890966D01*
X177323815Y-118110000D01*
X177352487Y-118401111D01*
X177437401Y-118681034D01*
X177575294Y-118939014D01*
X177760866Y-119165134D01*
X177986986Y-119350706D01*
X178041791Y-119380000D01*
X177986986Y-119409294D01*
X177760866Y-119594866D01*
X177575294Y-119820986D01*
X177437401Y-120078966D01*
X177352487Y-120358889D01*
X177323815Y-120650000D01*
X177352487Y-120941111D01*
X177437401Y-121221034D01*
X177575294Y-121479014D01*
X177760866Y-121705134D01*
X177986986Y-121890706D01*
X178041791Y-121920000D01*
X177986986Y-121949294D01*
X177760866Y-122134866D01*
X177575294Y-122360986D01*
X177437401Y-122618966D01*
X177352487Y-122898889D01*
X177323815Y-123190000D01*
X177352487Y-123481111D01*
X177437401Y-123761034D01*
X177575294Y-124019014D01*
X177760866Y-124245134D01*
X177986986Y-124430706D01*
X178041791Y-124460000D01*
X177986986Y-124489294D01*
X177760866Y-124674866D01*
X177575294Y-124900986D01*
X177437401Y-125158966D01*
X177352487Y-125438889D01*
X177323815Y-125730000D01*
X177352487Y-126021111D01*
X177437401Y-126301034D01*
X177575294Y-126559014D01*
X177760866Y-126785134D01*
X177986986Y-126970706D01*
X178041791Y-127000000D01*
X177986986Y-127029294D01*
X177760866Y-127214866D01*
X177575294Y-127440986D01*
X177437401Y-127698966D01*
X177352487Y-127978889D01*
X177323815Y-128270000D01*
X177352487Y-128561111D01*
X177437401Y-128841034D01*
X177575294Y-129099014D01*
X177760866Y-129325134D01*
X177986986Y-129510706D01*
X178244966Y-129648599D01*
X178524889Y-129733513D01*
X178743050Y-129755000D01*
X178888950Y-129755000D01*
X179107111Y-129733513D01*
X179387034Y-129648599D01*
X179645014Y-129510706D01*
X179871134Y-129325134D01*
X180056706Y-129099014D01*
X180194599Y-128841034D01*
X180279513Y-128561111D01*
X180308185Y-128270000D01*
X180279513Y-127978889D01*
X180194599Y-127698966D01*
X180056706Y-127440986D01*
X179871134Y-127214866D01*
X179645014Y-127029294D01*
X179590209Y-127000000D01*
X179645014Y-126970706D01*
X179871134Y-126785134D01*
X180056706Y-126559014D01*
X180194599Y-126301034D01*
X180279513Y-126021111D01*
X180308185Y-125730000D01*
X180279513Y-125438889D01*
X180194599Y-125158966D01*
X180056706Y-124900986D01*
X179871134Y-124674866D01*
X179645014Y-124489294D01*
X179590209Y-124460000D01*
X179645014Y-124430706D01*
X179871134Y-124245134D01*
X180056706Y-124019014D01*
X180194599Y-123761034D01*
X180279513Y-123481111D01*
X180308185Y-123190000D01*
X180279513Y-122898889D01*
X180194599Y-122618966D01*
X180056706Y-122360986D01*
X179871134Y-122134866D01*
X179645014Y-121949294D01*
X179590209Y-121920000D01*
X179645014Y-121890706D01*
X179871134Y-121705134D01*
X180056706Y-121479014D01*
X180194599Y-121221034D01*
X180279513Y-120941111D01*
X180308185Y-120650000D01*
X180279513Y-120358889D01*
X180194599Y-120078966D01*
X180056706Y-119820986D01*
X179871134Y-119594866D01*
X179645014Y-119409294D01*
X179590209Y-119380000D01*
X179645014Y-119350706D01*
X179871134Y-119165134D01*
X180056706Y-118939014D01*
X180194599Y-118681034D01*
X180279513Y-118401111D01*
X180308185Y-118110000D01*
X180279513Y-117818889D01*
X180194599Y-117538966D01*
X180056706Y-117280986D01*
X179871134Y-117054866D01*
X179645014Y-116869294D01*
X179590209Y-116840000D01*
X179645014Y-116810706D01*
X179871134Y-116625134D01*
X180056706Y-116399014D01*
X180194599Y-116141034D01*
X180279513Y-115861111D01*
X180308185Y-115570000D01*
X180279513Y-115278889D01*
X180194599Y-114998966D01*
X180056706Y-114740986D01*
X179871134Y-114514866D01*
X179645014Y-114329294D01*
X179590209Y-114300000D01*
X179645014Y-114270706D01*
X179871134Y-114085134D01*
X180056706Y-113859014D01*
X180194599Y-113601034D01*
X180279513Y-113321111D01*
X180308185Y-113030000D01*
X180279513Y-112738889D01*
X180194599Y-112458966D01*
X180056706Y-112200986D01*
X179871134Y-111974866D01*
X179645014Y-111789294D01*
X179590209Y-111760000D01*
X179645014Y-111730706D01*
X179871134Y-111545134D01*
X180056706Y-111319014D01*
X180194599Y-111061034D01*
X180279513Y-110781111D01*
X180308185Y-110490000D01*
X180279513Y-110198889D01*
X180194599Y-109918966D01*
X180056706Y-109660986D01*
X179871134Y-109434866D01*
X179645014Y-109249294D01*
X179590209Y-109220000D01*
X179645014Y-109190706D01*
X179871134Y-109005134D01*
X180056706Y-108779014D01*
X180194599Y-108521034D01*
X180279513Y-108241111D01*
X180308185Y-107950000D01*
X180279513Y-107658889D01*
X180194599Y-107378966D01*
X180056706Y-107120986D01*
X179871134Y-106894866D01*
X179645014Y-106709294D01*
X179590209Y-106680000D01*
X179645014Y-106650706D01*
X179871134Y-106465134D01*
X180056706Y-106239014D01*
X180194599Y-105981034D01*
X180279513Y-105701111D01*
X180308185Y-105410000D01*
X180279513Y-105118889D01*
X180194599Y-104838966D01*
X180056706Y-104580986D01*
X179871134Y-104354866D01*
X179645014Y-104169294D01*
X179590209Y-104140000D01*
X179645014Y-104110706D01*
X179871134Y-103925134D01*
X180056706Y-103699014D01*
X180194599Y-103441034D01*
X180279513Y-103161111D01*
X180308185Y-102870000D01*
X180279513Y-102578889D01*
X180194599Y-102298966D01*
X180056706Y-102040986D01*
X179871134Y-101814866D01*
X179645014Y-101629294D01*
X179590209Y-101600000D01*
X179645014Y-101570706D01*
X179871134Y-101385134D01*
X180056706Y-101159014D01*
X180194599Y-100901034D01*
X180279513Y-100621111D01*
X180308185Y-100330000D01*
X180279513Y-100038889D01*
X180194599Y-99758966D01*
X180056706Y-99500986D01*
X179871134Y-99274866D01*
X179645014Y-99089294D01*
X179590209Y-99060000D01*
X179645014Y-99030706D01*
X179871134Y-98845134D01*
X180056706Y-98619014D01*
X180194599Y-98361034D01*
X180279513Y-98081111D01*
X180308185Y-97790000D01*
X180279513Y-97498889D01*
X180194599Y-97218966D01*
X180056706Y-96960986D01*
X179871134Y-96734866D01*
X179841313Y-96710393D01*
X179910180Y-96689502D01*
X180020494Y-96630537D01*
X180117185Y-96551185D01*
X180196537Y-96454494D01*
X180255502Y-96344180D01*
X180291812Y-96224482D01*
X180304072Y-96100000D01*
X180301000Y-95535750D01*
X180142250Y-95377000D01*
X178943000Y-95377000D01*
X178943000Y-95397000D01*
X178689000Y-95397000D01*
X178689000Y-95377000D01*
X177489750Y-95377000D01*
X177331000Y-95535750D01*
X177327928Y-96100000D01*
X177340188Y-96224482D01*
X177376498Y-96344180D01*
X177435463Y-96454494D01*
X177514815Y-96551185D01*
X177611506Y-96630537D01*
X177721820Y-96689502D01*
X177790687Y-96710393D01*
X177760866Y-96734866D01*
X177575294Y-96960986D01*
X177437401Y-97218966D01*
X177352487Y-97498889D01*
X177323815Y-97790000D01*
X177352487Y-98081111D01*
X177437401Y-98361034D01*
X177575294Y-98619014D01*
X177760866Y-98845134D01*
X177986986Y-99030706D01*
X178041791Y-99060000D01*
X177986986Y-99089294D01*
X177760866Y-99274866D01*
X177575294Y-99500986D01*
X177437401Y-99758966D01*
X177352487Y-100038889D01*
X177323815Y-100330000D01*
X177352487Y-100621111D01*
X177437401Y-100901034D01*
X177575294Y-101159014D01*
X177760866Y-101385134D01*
X177986986Y-101570706D01*
X178041791Y-101600000D01*
X177986986Y-101629294D01*
X177890257Y-101708678D01*
X176932534Y-100750956D01*
X176904817Y-100717183D01*
X176770059Y-100606589D01*
X176616313Y-100524411D01*
X176449490Y-100473805D01*
X176319477Y-100461000D01*
X176319469Y-100461000D01*
X176276000Y-100456719D01*
X176232531Y-100461000D01*
X172156804Y-100461000D01*
X172191226Y-100377898D01*
X172202535Y-100321043D01*
X172641051Y-99882528D01*
X172674818Y-99854816D01*
X172785412Y-99720058D01*
X172867590Y-99566312D01*
X172918196Y-99399489D01*
X172931001Y-99269476D01*
X172931001Y-99269468D01*
X172935282Y-99225999D01*
X172931001Y-99182530D01*
X172931001Y-98441464D01*
X172935282Y-98397998D01*
X172931001Y-98354532D01*
X172931001Y-98354522D01*
X172918196Y-98224509D01*
X172867590Y-98057686D01*
X172785412Y-97903940D01*
X172674818Y-97769182D01*
X172641045Y-97741465D01*
X172260535Y-97360955D01*
X172232818Y-97327182D01*
X172098060Y-97216588D01*
X171944314Y-97134410D01*
X171777491Y-97083804D01*
X171647478Y-97070999D01*
X171647470Y-97070999D01*
X171604001Y-97066718D01*
X171560532Y-97070999D01*
X169676466Y-97070999D01*
X169633000Y-97066718D01*
X169589534Y-97070999D01*
X169589524Y-97070999D01*
X169459511Y-97083804D01*
X169292688Y-97134410D01*
X169138942Y-97216588D01*
X169109453Y-97240789D01*
X169037954Y-97299467D01*
X169037952Y-97299469D01*
X169004184Y-97327182D01*
X168976471Y-97360950D01*
X166624957Y-99712465D01*
X166591184Y-99740182D01*
X166480590Y-99874941D01*
X166398412Y-100028687D01*
X166347806Y-100195510D01*
X166335001Y-100325523D01*
X166335001Y-100325530D01*
X166330720Y-100368999D01*
X166335001Y-100412468D01*
X166335002Y-106491417D01*
X165940955Y-106885465D01*
X165907182Y-106913182D01*
X165796588Y-107047941D01*
X165714410Y-107201687D01*
X165681912Y-107308817D01*
X165665934Y-107361490D01*
X165663804Y-107368510D01*
X165650999Y-107498523D01*
X165650999Y-107498530D01*
X165646718Y-107541999D01*
X162136001Y-107541999D01*
X162136001Y-107446470D01*
X162140282Y-107403001D01*
X162136001Y-107359532D01*
X162136001Y-107359524D01*
X162123196Y-107229511D01*
X162072590Y-107062688D01*
X161990412Y-106908942D01*
X161879818Y-106774184D01*
X161846045Y-106746467D01*
X161832999Y-106733421D01*
X161832999Y-101555464D01*
X161837280Y-101511998D01*
X161832999Y-101468532D01*
X161832999Y-101468522D01*
X161820194Y-101338509D01*
X161769588Y-101171686D01*
X161687410Y-101017940D01*
X161647639Y-100969479D01*
X161604531Y-100916952D01*
X161604529Y-100916950D01*
X161576816Y-100883182D01*
X161543049Y-100855470D01*
X158232535Y-97544957D01*
X158221226Y-97488102D01*
X158143205Y-97299744D01*
X158029937Y-97130226D01*
X157885774Y-96986063D01*
X157716256Y-96872795D01*
X157527898Y-96794774D01*
X157327939Y-96755000D01*
X157124061Y-96755000D01*
X156924102Y-96794774D01*
X156735744Y-96872795D01*
X156566226Y-96986063D01*
X156422063Y-97130226D01*
X156308795Y-97299744D01*
X156230774Y-97488102D01*
X156219465Y-97544956D01*
X155080940Y-98683482D01*
X155047173Y-98711194D01*
X155019460Y-98744962D01*
X155019457Y-98744965D01*
X154936579Y-98845952D01*
X154854401Y-98999698D01*
X154803794Y-99166521D01*
X154786708Y-99340011D01*
X154790990Y-99383490D01*
X154790989Y-101259433D01*
X154765432Y-101284990D01*
X151340999Y-101284990D01*
X151340999Y-101223464D01*
X151345280Y-101179998D01*
X151340999Y-101136532D01*
X151340999Y-101136522D01*
X151328194Y-101006509D01*
X151277588Y-100839686D01*
X151195410Y-100685940D01*
X151157547Y-100639804D01*
X151112531Y-100584952D01*
X151112529Y-100584950D01*
X151084816Y-100551182D01*
X151077030Y-100544792D01*
X151098185Y-100330000D01*
X151069513Y-100038889D01*
X150984599Y-99758966D01*
X150846706Y-99500986D01*
X150661134Y-99274866D01*
X150435014Y-99089294D01*
X150380209Y-99060000D01*
X150435014Y-99030706D01*
X150661134Y-98845134D01*
X150846706Y-98619014D01*
X150984599Y-98361034D01*
X151069513Y-98081111D01*
X151098185Y-97790000D01*
X151069513Y-97498889D01*
X150984599Y-97218966D01*
X150846706Y-96960986D01*
X150661134Y-96734866D01*
X150631313Y-96710393D01*
X150700180Y-96689502D01*
X150810494Y-96630537D01*
X150907185Y-96551185D01*
X150986537Y-96454494D01*
X151045502Y-96344180D01*
X151081812Y-96224482D01*
X151094072Y-96100000D01*
X151091000Y-95535750D01*
X150932250Y-95377000D01*
X149733000Y-95377000D01*
X149733000Y-95397000D01*
X149479000Y-95397000D01*
X149479000Y-95377000D01*
X148279750Y-95377000D01*
X148121000Y-95535750D01*
X148117928Y-96100000D01*
X148130188Y-96224482D01*
X148166498Y-96344180D01*
X148225463Y-96454494D01*
X148304815Y-96551185D01*
X148401506Y-96630537D01*
X148511820Y-96689502D01*
X148580687Y-96710393D01*
X148550866Y-96734866D01*
X148365294Y-96960986D01*
X148227401Y-97218966D01*
X148142487Y-97498889D01*
X148113815Y-97790000D01*
X147497000Y-97790000D01*
X147497000Y-95029504D01*
X147511364Y-94883008D01*
X147544176Y-94774330D01*
X147597479Y-94674082D01*
X147669232Y-94586103D01*
X147756707Y-94513737D01*
X147856579Y-94459737D01*
X147965027Y-94426167D01*
X148109331Y-94411000D01*
X148117988Y-94411000D01*
X148121000Y-94964250D01*
X148121000Y-94964250D01*
G37*
X148121000Y-94964250D02*
X148279750Y-95123000D01*
X149479000Y-95123000D01*
X149479000Y-95103000D01*
X149733000Y-95103000D01*
X149733000Y-95123000D01*
X150932250Y-95123000D01*
X151091000Y-94964250D01*
X151094012Y-94411000D01*
X177327988Y-94411000D01*
X177331000Y-94964250D01*
X177489750Y-95123000D01*
X178689000Y-95123000D01*
X178689000Y-95103000D01*
X178943000Y-95103000D01*
X178943000Y-95123000D01*
X180142250Y-95123000D01*
X180301000Y-94964250D01*
X180304012Y-94411000D01*
X180560496Y-94411000D01*
X180706992Y-94425364D01*
X180815670Y-94458176D01*
X180915918Y-94511479D01*
X181003897Y-94583232D01*
X181076263Y-94670707D01*
X181130263Y-94770579D01*
X181163833Y-94879027D01*
X181179000Y-95023331D01*
X181179001Y-142825000D01*
X147497000Y-142825000D01*
X147497000Y-134131000D01*
X147675939Y-134131000D01*
X147875898Y-134091226D01*
X148064256Y-134013205D01*
X148233774Y-133899937D01*
X148377937Y-133755774D01*
X148491205Y-133586256D01*
X148569226Y-133397898D01*
X148609000Y-133197939D01*
X148609000Y-132994061D01*
X148569226Y-132794102D01*
X148491205Y-132605744D01*
X148377937Y-132436226D01*
X148233774Y-132292063D01*
X148064256Y-132178795D01*
X147875898Y-132100774D01*
X147675939Y-132061000D01*
X147497000Y-132061000D01*
X147497000Y-97790000D01*
X148113815Y-97790000D01*
X148142487Y-98081111D01*
X148227401Y-98361034D01*
X148365294Y-98619014D01*
X148550866Y-98845134D01*
X148776986Y-99030706D01*
X148831791Y-99060000D01*
X148776986Y-99089294D01*
X148550866Y-99274866D01*
X148365294Y-99500986D01*
X148227401Y-99758966D01*
X148142487Y-100038889D01*
X148113815Y-100330000D01*
X148142487Y-100621111D01*
X148227401Y-100901034D01*
X148365294Y-101159014D01*
X148550866Y-101385134D01*
X148776986Y-101570706D01*
X148831791Y-101600000D01*
X148776986Y-101629294D01*
X148550866Y-101814866D01*
X148365294Y-102040986D01*
X148227401Y-102298966D01*
X148142487Y-102578889D01*
X148113815Y-102870000D01*
X148142487Y-103161111D01*
X148227401Y-103441034D01*
X148365294Y-103699014D01*
X148550866Y-103925134D01*
X148776986Y-104110706D01*
X148831791Y-104140000D01*
X148776986Y-104169294D01*
X148550866Y-104354866D01*
X148365294Y-104580986D01*
X148227401Y-104838966D01*
X148142487Y-105118889D01*
X148113815Y-105410000D01*
X148142487Y-105701111D01*
X148227401Y-105981034D01*
X148365294Y-106239014D01*
X148550866Y-106465134D01*
X148776986Y-106650706D01*
X148831791Y-106680000D01*
X148776986Y-106709294D01*
X148550866Y-106894866D01*
X148365294Y-107120986D01*
X148227401Y-107378966D01*
X148142487Y-107658889D01*
X148113815Y-107950000D01*
X148142487Y-108241111D01*
X148227401Y-108521034D01*
X148365294Y-108779014D01*
X148550866Y-109005134D01*
X148776986Y-109190706D01*
X148831791Y-109220000D01*
X148776986Y-109249294D01*
X148550866Y-109434866D01*
X148365294Y-109660986D01*
X148227401Y-109918966D01*
X148142487Y-110198889D01*
X148113815Y-110490000D01*
X148142487Y-110781111D01*
X148227401Y-111061034D01*
X148365294Y-111319014D01*
X148550866Y-111545134D01*
X148776986Y-111730706D01*
X148831791Y-111760000D01*
X148776986Y-111789294D01*
X148550866Y-111974866D01*
X148365294Y-112200986D01*
X148227401Y-112458966D01*
X148142487Y-112738889D01*
X148113815Y-113030000D01*
X148142487Y-113321111D01*
X148227401Y-113601034D01*
X148365294Y-113859014D01*
X148550866Y-114085134D01*
X148776986Y-114270706D01*
X148831791Y-114300000D01*
X148776986Y-114329294D01*
X148550866Y-114514866D01*
X148365294Y-114740986D01*
X148227401Y-114998966D01*
X148142487Y-115278889D01*
X148113815Y-115570000D01*
X148142487Y-115861111D01*
X148227401Y-116141034D01*
X148365294Y-116399014D01*
X148550866Y-116625134D01*
X148776986Y-116810706D01*
X148831791Y-116840000D01*
X148776986Y-116869294D01*
X148550866Y-117054866D01*
X148365294Y-117280986D01*
X148227401Y-117538966D01*
X148142487Y-117818889D01*
X148113815Y-118110000D01*
X148142487Y-118401111D01*
X148227401Y-118681034D01*
X148365294Y-118939014D01*
X148550866Y-119165134D01*
X148776986Y-119350706D01*
X148831791Y-119380000D01*
X148776986Y-119409294D01*
X148550866Y-119594866D01*
X148365294Y-119820986D01*
X148227401Y-120078966D01*
X148142487Y-120358889D01*
X148113815Y-120650000D01*
X148142487Y-120941111D01*
X148227401Y-121221034D01*
X148365294Y-121479014D01*
X148550866Y-121705134D01*
X148776986Y-121890706D01*
X148831791Y-121920000D01*
X148776986Y-121949294D01*
X148550866Y-122134866D01*
X148365294Y-122360986D01*
X148227401Y-122618966D01*
X148142487Y-122898889D01*
X148113815Y-123190000D01*
X148142487Y-123481111D01*
X148227401Y-123761034D01*
X148365294Y-124019014D01*
X148550866Y-124245134D01*
X148776986Y-124430706D01*
X148831791Y-124460000D01*
X148776986Y-124489294D01*
X148550866Y-124674866D01*
X148365294Y-124900986D01*
X148227401Y-125158966D01*
X148142487Y-125438889D01*
X148113815Y-125730000D01*
X148142487Y-126021111D01*
X148227401Y-126301034D01*
X148365294Y-126559014D01*
X148550866Y-126785134D01*
X148776986Y-126970706D01*
X148831791Y-127000000D01*
X148776986Y-127029294D01*
X148550866Y-127214866D01*
X148365294Y-127440986D01*
X148227401Y-127698966D01*
X148142487Y-127978889D01*
X148113815Y-128270000D01*
X148142487Y-128561111D01*
X148227401Y-128841034D01*
X148365294Y-129099014D01*
X148550866Y-129325134D01*
X148776986Y-129510706D01*
X149034966Y-129648599D01*
X149314889Y-129733513D01*
X149533050Y-129755000D01*
X149678950Y-129755000D01*
X149897111Y-129733513D01*
X150177034Y-129648599D01*
X150435014Y-129510706D01*
X150661134Y-129325134D01*
X150846706Y-129099014D01*
X150984599Y-128841034D01*
X151069513Y-128561111D01*
X151098185Y-128270000D01*
X151069513Y-127978889D01*
X150984599Y-127698966D01*
X150846706Y-127440986D01*
X150661134Y-127214866D01*
X150435014Y-127029294D01*
X150380209Y-127000000D01*
X150435014Y-126970706D01*
X150661134Y-126785134D01*
X150846706Y-126559014D01*
X150984599Y-126301034D01*
X151069513Y-126021111D01*
X151098185Y-125730000D01*
X151069513Y-125438889D01*
X150984599Y-125158966D01*
X150846706Y-124900986D01*
X150661134Y-124674866D01*
X150435014Y-124489294D01*
X150380209Y-124460000D01*
X150435014Y-124430706D01*
X150661134Y-124245134D01*
X150846706Y-124019014D01*
X150984599Y-123761034D01*
X151069513Y-123481111D01*
X151098185Y-123190000D01*
X151069513Y-122898889D01*
X150984599Y-122618966D01*
X150846706Y-122360986D01*
X150661134Y-122134866D01*
X150435014Y-121949294D01*
X150380209Y-121920000D01*
X150435014Y-121890706D01*
X150661134Y-121705134D01*
X150846706Y-121479014D01*
X150984599Y-121221034D01*
X151069513Y-120941111D01*
X151098185Y-120650000D01*
X151069513Y-120358889D01*
X150984599Y-120078966D01*
X150846706Y-119820986D01*
X150661134Y-119594866D01*
X150435014Y-119409294D01*
X150380209Y-119380000D01*
X150435014Y-119350706D01*
X150661134Y-119165134D01*
X150846706Y-118939014D01*
X150984599Y-118681034D01*
X151069513Y-118401111D01*
X151098185Y-118110000D01*
X151076612Y-117890966D01*
X153757049Y-115210530D01*
X153790817Y-115182817D01*
X153819811Y-115147489D01*
X153901410Y-115048060D01*
X153901411Y-115048059D01*
X153983589Y-114894313D01*
X154034195Y-114727490D01*
X154047000Y-114597477D01*
X154047000Y-114597467D01*
X154051281Y-114554001D01*
X154047000Y-114510535D01*
X154047000Y-107565000D01*
X156398041Y-107565000D01*
X156404411Y-107585998D01*
X156480749Y-107728816D01*
X156486590Y-107739744D01*
X156569468Y-107840731D01*
X156569471Y-107840734D01*
X156597184Y-107874502D01*
X156630951Y-107902214D01*
X157357000Y-108628264D01*
X157357001Y-127214321D01*
X157352719Y-127257800D01*
X157369805Y-127431290D01*
X157420412Y-127598113D01*
X157502590Y-127751859D01*
X157585468Y-127852846D01*
X157585471Y-127852849D01*
X157613184Y-127886617D01*
X157646951Y-127914329D01*
X158572270Y-128839649D01*
X158599983Y-128873417D01*
X158633751Y-128901130D01*
X158633753Y-128901132D01*
X158680216Y-128939263D01*
X158734741Y-128984011D01*
X158888487Y-129066189D01*
X158982144Y-129094600D01*
X159055309Y-129116795D01*
X159070106Y-129118252D01*
X159093282Y-129120535D01*
X159102988Y-129219082D01*
X159139298Y-129338780D01*
X159198263Y-129449094D01*
X159277615Y-129545785D01*
X159374306Y-129625137D01*
X159484620Y-129684102D01*
X159604318Y-129720412D01*
X159728800Y-129732672D01*
X161428800Y-129732672D01*
X161553282Y-129720412D01*
X161672980Y-129684102D01*
X161783294Y-129625137D01*
X161879985Y-129545785D01*
X161959337Y-129449094D01*
X162001200Y-129370775D01*
X162043063Y-129449094D01*
X162122415Y-129545785D01*
X162219106Y-129625137D01*
X162329420Y-129684102D01*
X162449118Y-129720412D01*
X162573600Y-129732672D01*
X164273600Y-129732672D01*
X164398082Y-129720412D01*
X164517780Y-129684102D01*
X164628094Y-129625137D01*
X164724785Y-129545785D01*
X164804137Y-129449094D01*
X164813812Y-129430994D01*
X164837063Y-129474494D01*
X164916415Y-129571185D01*
X165013106Y-129650537D01*
X165123420Y-129709502D01*
X165243118Y-129745812D01*
X165367600Y-129758072D01*
X165931850Y-129755000D01*
X166090600Y-129596250D01*
X166090600Y-128397000D01*
X166344600Y-128397000D01*
X166344600Y-129596250D01*
X166503350Y-129755000D01*
X167067600Y-129758072D01*
X167192082Y-129745812D01*
X167311780Y-129709502D01*
X167422094Y-129650537D01*
X167518785Y-129571185D01*
X167598137Y-129474494D01*
X167657102Y-129364180D01*
X167693412Y-129244482D01*
X167705672Y-129120000D01*
X167702600Y-128555750D01*
X167543850Y-128397000D01*
X166344600Y-128397000D01*
X166090600Y-128397000D01*
X166070600Y-128397000D01*
X166070600Y-128143000D01*
X166090600Y-128143000D01*
X166090600Y-126943750D01*
X166344600Y-126943750D01*
X166344600Y-128143000D01*
X167543850Y-128143000D01*
X167702600Y-127984250D01*
X167705672Y-127420000D01*
X167693412Y-127295518D01*
X167657102Y-127175820D01*
X167598137Y-127065506D01*
X167518785Y-126968815D01*
X167422094Y-126889463D01*
X167311780Y-126830498D01*
X167192082Y-126794188D01*
X167067600Y-126781928D01*
X166503350Y-126785000D01*
X166344600Y-126943750D01*
X166090600Y-126943750D01*
X165931850Y-126785000D01*
X165367600Y-126781928D01*
X165243118Y-126794188D01*
X165123420Y-126830498D01*
X165013106Y-126889463D01*
X164916415Y-126968815D01*
X164837063Y-127065506D01*
X164827388Y-127083606D01*
X164804137Y-127040106D01*
X164724785Y-126943415D01*
X164628094Y-126864063D01*
X164517780Y-126805098D01*
X164398082Y-126768788D01*
X164273600Y-126756528D01*
X162794109Y-126756528D01*
X160043001Y-124005421D01*
X160043001Y-107397465D01*
X160047282Y-107353998D01*
X160043001Y-107310532D01*
X160043001Y-107310522D01*
X160030196Y-107180509D01*
X159979590Y-107013686D01*
X159897412Y-106859940D01*
X159854749Y-106807955D01*
X159814533Y-106758952D01*
X159814531Y-106758950D01*
X159786818Y-106725182D01*
X159753051Y-106697470D01*
X158235514Y-105179934D01*
X158221226Y-105108102D01*
X158143205Y-104919744D01*
X158046490Y-104775000D01*
X158143205Y-104630256D01*
X158221226Y-104441898D01*
X158261000Y-104241939D01*
X158261000Y-104038061D01*
X158221226Y-103838102D01*
X158143205Y-103649744D01*
X158029937Y-103480226D01*
X157885774Y-103336063D01*
X157716256Y-103222795D01*
X157527898Y-103144774D01*
X157327939Y-103105000D01*
X157124061Y-103105000D01*
X156924102Y-103144774D01*
X156735744Y-103222795D01*
X156687546Y-103255000D01*
X156314578Y-103255000D01*
X156971049Y-102598530D01*
X157004816Y-102570818D01*
X157033877Y-102535408D01*
X157115410Y-102436060D01*
X157188687Y-102298966D01*
X157197588Y-102282314D01*
X157248194Y-102115491D01*
X157260999Y-101985478D01*
X157260999Y-101985470D01*
X157265280Y-101942001D01*
X157260999Y-101898532D01*
X157260999Y-101365000D01*
X157327939Y-101365000D01*
X157527898Y-101325226D01*
X157716256Y-101247205D01*
X157885774Y-101133937D01*
X158029937Y-100989774D01*
X158143205Y-100820256D01*
X158221226Y-100631898D01*
X158261000Y-100431939D01*
X158261000Y-100228061D01*
X158223387Y-100038965D01*
X160062999Y-101878578D01*
X160063000Y-107056520D01*
X160058718Y-107099999D01*
X160075804Y-107273489D01*
X160126411Y-107440312D01*
X160208589Y-107594058D01*
X160291467Y-107695045D01*
X160291469Y-107695047D01*
X160319183Y-107728816D01*
X160352951Y-107756529D01*
X160366002Y-107769580D01*
X160366001Y-116452732D01*
X160361720Y-116496201D01*
X160366001Y-116539670D01*
X160366001Y-116539677D01*
X160378806Y-116669690D01*
X160429412Y-116836513D01*
X160511590Y-116990259D01*
X160622184Y-117125018D01*
X160655957Y-117152735D01*
X160893065Y-117389843D01*
X160904374Y-117446698D01*
X160982395Y-117635056D01*
X161095663Y-117804574D01*
X161239826Y-117948737D01*
X161409344Y-118062005D01*
X161597702Y-118140026D01*
X161797661Y-118179800D01*
X162001539Y-118179800D01*
X162201498Y-118140026D01*
X162389856Y-118062005D01*
X162559374Y-117948737D01*
X162703537Y-117804574D01*
X162816805Y-117635056D01*
X162894826Y-117446698D01*
X162934600Y-117246739D01*
X162934600Y-117042861D01*
X162894826Y-116842902D01*
X162816805Y-116654544D01*
X162703537Y-116485026D01*
X162559374Y-116340863D01*
X162389856Y-116227595D01*
X162201498Y-116149574D01*
X162144643Y-116138265D01*
X162136001Y-116129623D01*
X162136001Y-107541999D01*
X165646718Y-107541999D01*
X165650999Y-107585468D01*
X165651000Y-112888518D01*
X165646718Y-112931997D01*
X165663804Y-113105487D01*
X165714411Y-113272310D01*
X165796589Y-113426056D01*
X165879467Y-113527043D01*
X165879470Y-113527046D01*
X165907183Y-113560814D01*
X165940950Y-113588526D01*
X167697001Y-115344578D01*
X167697002Y-116000561D01*
X167695804Y-116004510D01*
X167682999Y-116134523D01*
X167682999Y-116134530D01*
X167678718Y-116177999D01*
X167682999Y-116221468D01*
X167683000Y-120010520D01*
X167678718Y-120053999D01*
X167695804Y-120227489D01*
X167746411Y-120394312D01*
X167828589Y-120548058D01*
X167911467Y-120649045D01*
X167911470Y-120649048D01*
X167939183Y-120682816D01*
X167972950Y-120710528D01*
X168952999Y-121690578D01*
X168953000Y-125852520D01*
X168948718Y-125895999D01*
X168965804Y-126069489D01*
X169016411Y-126236312D01*
X169098589Y-126390058D01*
X169181467Y-126491045D01*
X169181470Y-126491048D01*
X169209183Y-126524816D01*
X169242950Y-126552528D01*
X169943469Y-127253048D01*
X169971182Y-127286816D01*
X170004950Y-127314529D01*
X170004952Y-127314531D01*
X170102516Y-127394600D01*
X170105940Y-127397410D01*
X170259686Y-127479588D01*
X170426509Y-127530194D01*
X170556522Y-127542999D01*
X170556530Y-127542999D01*
X170599999Y-127547280D01*
X170643468Y-127542999D01*
X172925821Y-127542999D01*
X175371065Y-129988244D01*
X175382374Y-130045098D01*
X175460395Y-130233456D01*
X175573663Y-130402974D01*
X175717826Y-130547137D01*
X175887344Y-130660405D01*
X176075702Y-130738426D01*
X176275661Y-130778200D01*
X176479539Y-130778200D01*
X176679498Y-130738426D01*
X176867856Y-130660405D01*
X177037374Y-130547137D01*
X177181537Y-130402974D01*
X177294805Y-130233456D01*
X177372826Y-130045098D01*
X177412600Y-129845139D01*
X177412600Y-129641261D01*
X177372826Y-129441302D01*
X177294805Y-129252944D01*
X177181537Y-129083426D01*
X177037374Y-128939263D01*
X176867856Y-128825995D01*
X176679498Y-128747974D01*
X176622644Y-128736665D01*
X175202836Y-127316858D01*
X175310174Y-127245137D01*
X175454337Y-127100974D01*
X175567605Y-126931456D01*
X175645626Y-126743098D01*
X175685400Y-126543139D01*
X175685400Y-126339261D01*
X175645626Y-126139302D01*
X175567605Y-125950944D01*
X175493481Y-125840009D01*
X175493481Y-123047948D01*
X175497762Y-123004479D01*
X175493481Y-122961010D01*
X175493481Y-122961002D01*
X175480676Y-122830989D01*
X175466242Y-122783408D01*
X175430070Y-122664165D01*
X175347892Y-122510420D01*
X175265013Y-122409432D01*
X175265011Y-122409430D01*
X175237298Y-122375662D01*
X175203531Y-122347950D01*
X174532999Y-121677419D01*
X174532999Y-117811464D01*
X174537280Y-117767998D01*
X174532999Y-117724532D01*
X174532999Y-117724522D01*
X174520194Y-117594509D01*
X174469588Y-117427686D01*
X174387410Y-117273940D01*
X174276816Y-117139182D01*
X174243044Y-117111466D01*
X173796533Y-116664955D01*
X173768816Y-116631182D01*
X173634058Y-116520588D01*
X173480312Y-116438410D01*
X173313489Y-116387804D01*
X173183476Y-116374999D01*
X173183468Y-116374999D01*
X173139999Y-116370718D01*
X173096530Y-116374999D01*
X172998578Y-116374999D01*
X171230999Y-114607421D01*
X171230999Y-107634393D01*
X171255686Y-107647588D01*
X171422509Y-107698194D01*
X171552522Y-107710999D01*
X171552532Y-107710999D01*
X171595998Y-107715280D01*
X171639465Y-107710999D01*
X174121000Y-107710999D01*
X174121001Y-113506519D01*
X174116719Y-113549998D01*
X174133805Y-113723488D01*
X174184412Y-113890311D01*
X174266590Y-114044057D01*
X174349468Y-114145044D01*
X174349471Y-114145047D01*
X174377184Y-114178815D01*
X174410951Y-114206527D01*
X176630999Y-116426576D01*
X176630999Y-116766530D01*
X176626718Y-116809999D01*
X176630999Y-116853468D01*
X176630999Y-116853476D01*
X176643804Y-116983489D01*
X176694411Y-117150312D01*
X176776589Y-117304058D01*
X176859467Y-117405045D01*
X176859470Y-117405048D01*
X176887183Y-117438816D01*
X176920951Y-117466529D01*
X177345388Y-117890966D01*
X177323815Y-118110000D01*
X177352487Y-118401111D01*
X177437401Y-118681034D01*
X177575294Y-118939014D01*
X177760866Y-119165134D01*
X177986986Y-119350706D01*
X178041791Y-119380000D01*
X177986986Y-119409294D01*
X177760866Y-119594866D01*
X177575294Y-119820986D01*
X177437401Y-120078966D01*
X177352487Y-120358889D01*
X177323815Y-120650000D01*
X177352487Y-120941111D01*
X177437401Y-121221034D01*
X177575294Y-121479014D01*
X177760866Y-121705134D01*
X177986986Y-121890706D01*
X178041791Y-121920000D01*
X177986986Y-121949294D01*
X177760866Y-122134866D01*
X177575294Y-122360986D01*
X177437401Y-122618966D01*
X177352487Y-122898889D01*
X177323815Y-123190000D01*
X177352487Y-123481111D01*
X177437401Y-123761034D01*
X177575294Y-124019014D01*
X177760866Y-124245134D01*
X177986986Y-124430706D01*
X178041791Y-124460000D01*
X177986986Y-124489294D01*
X177760866Y-124674866D01*
X177575294Y-124900986D01*
X177437401Y-125158966D01*
X177352487Y-125438889D01*
X177323815Y-125730000D01*
X177352487Y-126021111D01*
X177437401Y-126301034D01*
X177575294Y-126559014D01*
X177760866Y-126785134D01*
X177986986Y-126970706D01*
X178041791Y-127000000D01*
X177986986Y-127029294D01*
X177760866Y-127214866D01*
X177575294Y-127440986D01*
X177437401Y-127698966D01*
X177352487Y-127978889D01*
X177323815Y-128270000D01*
X177352487Y-128561111D01*
X177437401Y-128841034D01*
X177575294Y-129099014D01*
X177760866Y-129325134D01*
X177986986Y-129510706D01*
X178244966Y-129648599D01*
X178524889Y-129733513D01*
X178743050Y-129755000D01*
X178888950Y-129755000D01*
X179107111Y-129733513D01*
X179387034Y-129648599D01*
X179645014Y-129510706D01*
X179871134Y-129325134D01*
X180056706Y-129099014D01*
X180194599Y-128841034D01*
X180279513Y-128561111D01*
X180308185Y-128270000D01*
X180279513Y-127978889D01*
X180194599Y-127698966D01*
X180056706Y-127440986D01*
X179871134Y-127214866D01*
X179645014Y-127029294D01*
X179590209Y-127000000D01*
X179645014Y-126970706D01*
X179871134Y-126785134D01*
X180056706Y-126559014D01*
X180194599Y-126301034D01*
X180279513Y-126021111D01*
X180308185Y-125730000D01*
X180279513Y-125438889D01*
X180194599Y-125158966D01*
X180056706Y-124900986D01*
X179871134Y-124674866D01*
X179645014Y-124489294D01*
X179590209Y-124460000D01*
X179645014Y-124430706D01*
X179871134Y-124245134D01*
X180056706Y-124019014D01*
X180194599Y-123761034D01*
X180279513Y-123481111D01*
X180308185Y-123190000D01*
X180279513Y-122898889D01*
X180194599Y-122618966D01*
X180056706Y-122360986D01*
X179871134Y-122134866D01*
X179645014Y-121949294D01*
X179590209Y-121920000D01*
X179645014Y-121890706D01*
X179871134Y-121705134D01*
X180056706Y-121479014D01*
X180194599Y-121221034D01*
X180279513Y-120941111D01*
X180308185Y-120650000D01*
X180279513Y-120358889D01*
X180194599Y-120078966D01*
X180056706Y-119820986D01*
X179871134Y-119594866D01*
X179645014Y-119409294D01*
X179590209Y-119380000D01*
X179645014Y-119350706D01*
X179871134Y-119165134D01*
X180056706Y-118939014D01*
X180194599Y-118681034D01*
X180279513Y-118401111D01*
X180308185Y-118110000D01*
X180279513Y-117818889D01*
X180194599Y-117538966D01*
X180056706Y-117280986D01*
X179871134Y-117054866D01*
X179645014Y-116869294D01*
X179590209Y-116840000D01*
X179645014Y-116810706D01*
X179871134Y-116625134D01*
X180056706Y-116399014D01*
X180194599Y-116141034D01*
X180279513Y-115861111D01*
X180308185Y-115570000D01*
X180279513Y-115278889D01*
X180194599Y-114998966D01*
X180056706Y-114740986D01*
X179871134Y-114514866D01*
X179645014Y-114329294D01*
X179590209Y-114300000D01*
X179645014Y-114270706D01*
X179871134Y-114085134D01*
X180056706Y-113859014D01*
X180194599Y-113601034D01*
X180279513Y-113321111D01*
X180308185Y-113030000D01*
X180279513Y-112738889D01*
X180194599Y-112458966D01*
X180056706Y-112200986D01*
X179871134Y-111974866D01*
X179645014Y-111789294D01*
X179590209Y-111760000D01*
X179645014Y-111730706D01*
X179871134Y-111545134D01*
X180056706Y-111319014D01*
X180194599Y-111061034D01*
X180279513Y-110781111D01*
X180308185Y-110490000D01*
X180279513Y-110198889D01*
X180194599Y-109918966D01*
X180056706Y-109660986D01*
X179871134Y-109434866D01*
X179645014Y-109249294D01*
X179590209Y-109220000D01*
X179645014Y-109190706D01*
X179871134Y-109005134D01*
X180056706Y-108779014D01*
X180194599Y-108521034D01*
X180279513Y-108241111D01*
X180308185Y-107950000D01*
X180279513Y-107658889D01*
X180194599Y-107378966D01*
X180056706Y-107120986D01*
X179871134Y-106894866D01*
X179645014Y-106709294D01*
X179590209Y-106680000D01*
X179645014Y-106650706D01*
X179871134Y-106465134D01*
X180056706Y-106239014D01*
X180194599Y-105981034D01*
X180279513Y-105701111D01*
X180308185Y-105410000D01*
X180279513Y-105118889D01*
X180194599Y-104838966D01*
X180056706Y-104580986D01*
X179871134Y-104354866D01*
X179645014Y-104169294D01*
X179590209Y-104140000D01*
X179645014Y-104110706D01*
X179871134Y-103925134D01*
X180056706Y-103699014D01*
X180194599Y-103441034D01*
X180279513Y-103161111D01*
X180308185Y-102870000D01*
X180279513Y-102578889D01*
X180194599Y-102298966D01*
X180056706Y-102040986D01*
X179871134Y-101814866D01*
X179645014Y-101629294D01*
X179590209Y-101600000D01*
X179645014Y-101570706D01*
X179871134Y-101385134D01*
X180056706Y-101159014D01*
X180194599Y-100901034D01*
X180279513Y-100621111D01*
X180308185Y-100330000D01*
X180279513Y-100038889D01*
X180194599Y-99758966D01*
X180056706Y-99500986D01*
X179871134Y-99274866D01*
X179645014Y-99089294D01*
X179590209Y-99060000D01*
X179645014Y-99030706D01*
X179871134Y-98845134D01*
X180056706Y-98619014D01*
X180194599Y-98361034D01*
X180279513Y-98081111D01*
X180308185Y-97790000D01*
X180279513Y-97498889D01*
X180194599Y-97218966D01*
X180056706Y-96960986D01*
X179871134Y-96734866D01*
X179841313Y-96710393D01*
X179910180Y-96689502D01*
X180020494Y-96630537D01*
X180117185Y-96551185D01*
X180196537Y-96454494D01*
X180255502Y-96344180D01*
X180291812Y-96224482D01*
X180304072Y-96100000D01*
X180301000Y-95535750D01*
X180142250Y-95377000D01*
X178943000Y-95377000D01*
X178943000Y-95397000D01*
X178689000Y-95397000D01*
X178689000Y-95377000D01*
X177489750Y-95377000D01*
X177331000Y-95535750D01*
X177327928Y-96100000D01*
X177340188Y-96224482D01*
X177376498Y-96344180D01*
X177435463Y-96454494D01*
X177514815Y-96551185D01*
X177611506Y-96630537D01*
X177721820Y-96689502D01*
X177790687Y-96710393D01*
X177760866Y-96734866D01*
X177575294Y-96960986D01*
X177437401Y-97218966D01*
X177352487Y-97498889D01*
X177323815Y-97790000D01*
X177352487Y-98081111D01*
X177437401Y-98361034D01*
X177575294Y-98619014D01*
X177760866Y-98845134D01*
X177986986Y-99030706D01*
X178041791Y-99060000D01*
X177986986Y-99089294D01*
X177760866Y-99274866D01*
X177575294Y-99500986D01*
X177437401Y-99758966D01*
X177352487Y-100038889D01*
X177323815Y-100330000D01*
X177352487Y-100621111D01*
X177437401Y-100901034D01*
X177575294Y-101159014D01*
X177760866Y-101385134D01*
X177986986Y-101570706D01*
X178041791Y-101600000D01*
X177986986Y-101629294D01*
X177890257Y-101708678D01*
X176932534Y-100750956D01*
X176904817Y-100717183D01*
X176770059Y-100606589D01*
X176616313Y-100524411D01*
X176449490Y-100473805D01*
X176319477Y-100461000D01*
X176319469Y-100461000D01*
X176276000Y-100456719D01*
X176232531Y-100461000D01*
X172156804Y-100461000D01*
X172191226Y-100377898D01*
X172202535Y-100321043D01*
X172641051Y-99882528D01*
X172674818Y-99854816D01*
X172785412Y-99720058D01*
X172867590Y-99566312D01*
X172918196Y-99399489D01*
X172931001Y-99269476D01*
X172931001Y-99269468D01*
X172935282Y-99225999D01*
X172931001Y-99182530D01*
X172931001Y-98441464D01*
X172935282Y-98397998D01*
X172931001Y-98354532D01*
X172931001Y-98354522D01*
X172918196Y-98224509D01*
X172867590Y-98057686D01*
X172785412Y-97903940D01*
X172674818Y-97769182D01*
X172641045Y-97741465D01*
X172260535Y-97360955D01*
X172232818Y-97327182D01*
X172098060Y-97216588D01*
X171944314Y-97134410D01*
X171777491Y-97083804D01*
X171647478Y-97070999D01*
X171647470Y-97070999D01*
X171604001Y-97066718D01*
X171560532Y-97070999D01*
X169676466Y-97070999D01*
X169633000Y-97066718D01*
X169589534Y-97070999D01*
X169589524Y-97070999D01*
X169459511Y-97083804D01*
X169292688Y-97134410D01*
X169138942Y-97216588D01*
X169109453Y-97240789D01*
X169037954Y-97299467D01*
X169037952Y-97299469D01*
X169004184Y-97327182D01*
X168976471Y-97360950D01*
X166624957Y-99712465D01*
X166591184Y-99740182D01*
X166480590Y-99874941D01*
X166398412Y-100028687D01*
X166347806Y-100195510D01*
X166335001Y-100325523D01*
X166335001Y-100325530D01*
X166330720Y-100368999D01*
X166335001Y-100412468D01*
X166335002Y-106491417D01*
X165940955Y-106885465D01*
X165907182Y-106913182D01*
X165796588Y-107047941D01*
X165714410Y-107201687D01*
X165681912Y-107308817D01*
X165665934Y-107361490D01*
X165663804Y-107368510D01*
X165650999Y-107498523D01*
X165650999Y-107498530D01*
X165646718Y-107541999D01*
X162136001Y-107541999D01*
X162136001Y-107446470D01*
X162140282Y-107403001D01*
X162136001Y-107359532D01*
X162136001Y-107359524D01*
X162123196Y-107229511D01*
X162072590Y-107062688D01*
X161990412Y-106908942D01*
X161879818Y-106774184D01*
X161846045Y-106746467D01*
X161832999Y-106733421D01*
X161832999Y-101555464D01*
X161837280Y-101511998D01*
X161832999Y-101468532D01*
X161832999Y-101468522D01*
X161820194Y-101338509D01*
X161769588Y-101171686D01*
X161687410Y-101017940D01*
X161647639Y-100969479D01*
X161604531Y-100916952D01*
X161604529Y-100916950D01*
X161576816Y-100883182D01*
X161543049Y-100855470D01*
X158232535Y-97544957D01*
X158221226Y-97488102D01*
X158143205Y-97299744D01*
X158029937Y-97130226D01*
X157885774Y-96986063D01*
X157716256Y-96872795D01*
X157527898Y-96794774D01*
X157327939Y-96755000D01*
X157124061Y-96755000D01*
X156924102Y-96794774D01*
X156735744Y-96872795D01*
X156566226Y-96986063D01*
X156422063Y-97130226D01*
X156308795Y-97299744D01*
X156230774Y-97488102D01*
X156219465Y-97544956D01*
X155080940Y-98683482D01*
X155047173Y-98711194D01*
X155019460Y-98744962D01*
X155019457Y-98744965D01*
X154936579Y-98845952D01*
X154854401Y-98999698D01*
X154803794Y-99166521D01*
X154786708Y-99340011D01*
X154790990Y-99383490D01*
X154790989Y-101259433D01*
X154765432Y-101284990D01*
X151340999Y-101284990D01*
X151340999Y-101223464D01*
X151345280Y-101179998D01*
X151340999Y-101136532D01*
X151340999Y-101136522D01*
X151328194Y-101006509D01*
X151277588Y-100839686D01*
X151195410Y-100685940D01*
X151157547Y-100639804D01*
X151112531Y-100584952D01*
X151112529Y-100584950D01*
X151084816Y-100551182D01*
X151077030Y-100544792D01*
X151098185Y-100330000D01*
X151069513Y-100038889D01*
X150984599Y-99758966D01*
X150846706Y-99500986D01*
X150661134Y-99274866D01*
X150435014Y-99089294D01*
X150380209Y-99060000D01*
X150435014Y-99030706D01*
X150661134Y-98845134D01*
X150846706Y-98619014D01*
X150984599Y-98361034D01*
X151069513Y-98081111D01*
X151098185Y-97790000D01*
X151069513Y-97498889D01*
X150984599Y-97218966D01*
X150846706Y-96960986D01*
X150661134Y-96734866D01*
X150631313Y-96710393D01*
X150700180Y-96689502D01*
X150810494Y-96630537D01*
X150907185Y-96551185D01*
X150986537Y-96454494D01*
X151045502Y-96344180D01*
X151081812Y-96224482D01*
X151094072Y-96100000D01*
X151091000Y-95535750D01*
X150932250Y-95377000D01*
X149733000Y-95377000D01*
X149733000Y-95397000D01*
X149479000Y-95397000D01*
X149479000Y-95377000D01*
X148279750Y-95377000D01*
X148121000Y-95535750D01*
X148117928Y-96100000D01*
X148130188Y-96224482D01*
X148166498Y-96344180D01*
X148225463Y-96454494D01*
X148304815Y-96551185D01*
X148401506Y-96630537D01*
X148511820Y-96689502D01*
X148580687Y-96710393D01*
X148550866Y-96734866D01*
X148365294Y-96960986D01*
X148227401Y-97218966D01*
X148142487Y-97498889D01*
X148113815Y-97790000D01*
X147497000Y-97790000D01*
X147497000Y-95029504D01*
X147511364Y-94883008D01*
X147544176Y-94774330D01*
X147597479Y-94674082D01*
X147669232Y-94586103D01*
X147756707Y-94513737D01*
X147856579Y-94459737D01*
X147965027Y-94426167D01*
X148109331Y-94411000D01*
X148117988Y-94411000D01*
X148121000Y-94964250D01*
G36*
X169473804Y-115147489D02*
G01*
X169524411Y-115314312D01*
X169606589Y-115468058D01*
X169689467Y-115569045D01*
X169689470Y-115569048D01*
X169717183Y-115602816D01*
X169750950Y-115630528D01*
X171975468Y-117855047D01*
X172003182Y-117888816D01*
X172036950Y-117916529D01*
X172036952Y-117916531D01*
X172067362Y-117941488D01*
X172137940Y-117999410D01*
X172291686Y-118081588D01*
X172458509Y-118132194D01*
X172588522Y-118144999D01*
X172588532Y-118144999D01*
X172631998Y-118149280D01*
X172675464Y-118144999D01*
X172762999Y-118144999D01*
X172763000Y-122000518D01*
X172758718Y-122043997D01*
X172775804Y-122217487D01*
X172826411Y-122384310D01*
X172908589Y-122538056D01*
X172991467Y-122639043D01*
X172991470Y-122639046D01*
X173019183Y-122672814D01*
X173052950Y-122700526D01*
X173723481Y-123371058D01*
X173723482Y-125884927D01*
X173632712Y-125836410D01*
X173465889Y-125785804D01*
X173335876Y-125772999D01*
X173335868Y-125772999D01*
X173292399Y-125768718D01*
X173248930Y-125772999D01*
X170966578Y-125772999D01*
X170722999Y-125529421D01*
X170722999Y-121367464D01*
X170727280Y-121323998D01*
X170722999Y-121280532D01*
X170722999Y-121280522D01*
X170710194Y-121150509D01*
X170659588Y-120983686D01*
X170577410Y-120829940D01*
X170466816Y-120695182D01*
X170433049Y-120667470D01*
X169452999Y-119687421D01*
X169452999Y-116341433D01*
X169454196Y-116337487D01*
X169467001Y-116207474D01*
X169467001Y-116207466D01*
X169471282Y-116163997D01*
X169467001Y-116120528D01*
X169467001Y-115078412D01*
X169473804Y-115147489D01*
X169473804Y-115147489D01*
G37*
X169473804Y-115147489D02*
X169524411Y-115314312D01*
X169606589Y-115468058D01*
X169689467Y-115569045D01*
X169689470Y-115569048D01*
X169717183Y-115602816D01*
X169750950Y-115630528D01*
X171975468Y-117855047D01*
X172003182Y-117888816D01*
X172036950Y-117916529D01*
X172036952Y-117916531D01*
X172067362Y-117941488D01*
X172137940Y-117999410D01*
X172291686Y-118081588D01*
X172458509Y-118132194D01*
X172588522Y-118144999D01*
X172588532Y-118144999D01*
X172631998Y-118149280D01*
X172675464Y-118144999D01*
X172762999Y-118144999D01*
X172763000Y-122000518D01*
X172758718Y-122043997D01*
X172775804Y-122217487D01*
X172826411Y-122384310D01*
X172908589Y-122538056D01*
X172991467Y-122639043D01*
X172991470Y-122639046D01*
X173019183Y-122672814D01*
X173052950Y-122700526D01*
X173723481Y-123371058D01*
X173723482Y-125884927D01*
X173632712Y-125836410D01*
X173465889Y-125785804D01*
X173335876Y-125772999D01*
X173335868Y-125772999D01*
X173292399Y-125768718D01*
X173248930Y-125772999D01*
X170966578Y-125772999D01*
X170722999Y-125529421D01*
X170722999Y-121367464D01*
X170727280Y-121323998D01*
X170722999Y-121280532D01*
X170722999Y-121280522D01*
X170710194Y-121150509D01*
X170659588Y-120983686D01*
X170577410Y-120829940D01*
X170466816Y-120695182D01*
X170433049Y-120667470D01*
X169452999Y-119687421D01*
X169452999Y-116341433D01*
X169454196Y-116337487D01*
X169467001Y-116207474D01*
X169467001Y-116207466D01*
X169471282Y-116163997D01*
X169467001Y-116120528D01*
X169467001Y-115078412D01*
X169473804Y-115147489D01*
G36*
X169461000Y-114873592D02*
G01*
X169454196Y-114804509D01*
X169403590Y-114637686D01*
X169321412Y-114483940D01*
X169284760Y-114439280D01*
X169238533Y-114382952D01*
X169238531Y-114382950D01*
X169210818Y-114349182D01*
X169177051Y-114321470D01*
X167420999Y-112565419D01*
X167420999Y-107908577D01*
X167815050Y-107514527D01*
X167848818Y-107486814D01*
X167904329Y-107419175D01*
X167959412Y-107352056D01*
X167976515Y-107320058D01*
X168041590Y-107198310D01*
X168092196Y-107031487D01*
X168105001Y-106901474D01*
X168105001Y-106901466D01*
X168109282Y-106857997D01*
X168105001Y-106814528D01*
X168105001Y-100735577D01*
X169460999Y-99379580D01*
X169461000Y-114873592D01*
X169461000Y-114873592D01*
G37*
X169461000Y-114873592D02*
X169454196Y-114804509D01*
X169403590Y-114637686D01*
X169321412Y-114483940D01*
X169284760Y-114439280D01*
X169238533Y-114382952D01*
X169238531Y-114382950D01*
X169210818Y-114349182D01*
X169177051Y-114321470D01*
X167420999Y-112565419D01*
X167420999Y-107908577D01*
X167815050Y-107514527D01*
X167848818Y-107486814D01*
X167904329Y-107419175D01*
X167959412Y-107352056D01*
X167976515Y-107320058D01*
X168041590Y-107198310D01*
X168092196Y-107031487D01*
X168105001Y-106901474D01*
X168105001Y-106901466D01*
X168109282Y-106857997D01*
X168105001Y-106814528D01*
X168105001Y-100735577D01*
X169460999Y-99379580D01*
X169461000Y-114873592D01*
G36*
X176630999Y-102952578D02*
G01*
X176630999Y-103676521D01*
X175771138Y-103160605D01*
X175754059Y-103146589D01*
X175696510Y-103115829D01*
X175678047Y-103104751D01*
X175658216Y-103095360D01*
X175600313Y-103064411D01*
X175579566Y-103058117D01*
X175559974Y-103048840D01*
X175496320Y-103032865D01*
X175433490Y-103013805D01*
X175411908Y-103011679D01*
X175390888Y-103006404D01*
X175325347Y-103003154D01*
X175303477Y-103001000D01*
X175281909Y-103001000D01*
X175216772Y-102997770D01*
X175194929Y-103001000D01*
X171734454Y-103001000D01*
X171686256Y-102968795D01*
X171497898Y-102890774D01*
X171297939Y-102851000D01*
X171230999Y-102851000D01*
X171230999Y-102381000D01*
X171297939Y-102381000D01*
X171497898Y-102341226D01*
X171686256Y-102263205D01*
X171734454Y-102231000D01*
X175909422Y-102231000D01*
X176630999Y-102952578D01*
X176630999Y-102952578D01*
G37*
X176630999Y-102952578D02*
X176630999Y-103676521D01*
X175771138Y-103160605D01*
X175754059Y-103146589D01*
X175696510Y-103115829D01*
X175678047Y-103104751D01*
X175658216Y-103095360D01*
X175600313Y-103064411D01*
X175579566Y-103058117D01*
X175559974Y-103048840D01*
X175496320Y-103032865D01*
X175433490Y-103013805D01*
X175411908Y-103011679D01*
X175390888Y-103006404D01*
X175325347Y-103003154D01*
X175303477Y-103001000D01*
X175281909Y-103001000D01*
X175216772Y-102997770D01*
X175194929Y-103001000D01*
X171734454Y-103001000D01*
X171686256Y-102968795D01*
X171497898Y-102890774D01*
X171297939Y-102851000D01*
X171230999Y-102851000D01*
X171230999Y-102381000D01*
X171297939Y-102381000D01*
X171497898Y-102341226D01*
X171686256Y-102263205D01*
X171734454Y-102231000D01*
X175909422Y-102231000D01*
X176630999Y-102952578D01*
G36*
X160290952Y-126756528D02*
G01*
X159728800Y-126756528D01*
X159604318Y-126768788D01*
X159484620Y-126805098D01*
X159374306Y-126864063D01*
X159277615Y-126943415D01*
X159233251Y-126997473D01*
X159127000Y-126891222D01*
X159127000Y-125592576D01*
X160290952Y-126756528D01*
X160290952Y-126756528D01*
G37*
X160290952Y-126756528D02*
X159728800Y-126756528D01*
X159604318Y-126768788D01*
X159484620Y-126805098D01*
X159374306Y-126864063D01*
X159277615Y-126943415D01*
X159233251Y-126997473D01*
X159127000Y-126891222D01*
X159127000Y-125592576D01*
X160290952Y-126756528D01*
M02*
