G04 #@! TF.GenerationSoftware,KiCad,Pcbnew,(5.1.2)-1*
G04 #@! TF.CreationDate,2019-06-15T18:15:40+09:00*
G04 #@! TF.ProjectId,ESP32-breakout-SMD,45535033-322d-4627-9265-616b6f75742d,rev?*
G04 #@! TF.SameCoordinates,Original*
G04 #@! TF.FileFunction,Copper,L1,Top*
G04 #@! TF.FilePolarity,Positive*
%FSLAX46Y46*%
G04 Gerber Fmt 4.6, Leading zero omitted, Abs format (unit mm)*
G04 Created by KiCad (PCBNEW (5.1.2)-1) date 2019-06-15 18:15:40*
%MOMM*%
%LPD*%
G04 APERTURE LIST*
%ADD10C,0.100000*%
%ADD11C,1.500000*%
%ADD12C,1.000000*%
%ADD13R,1.000000X1.000000*%
%ADD14C,1.250000*%
%ADD15O,1.700000X1.700000*%
%ADD16R,1.700000X1.700000*%
%ADD17O,2.500000X0.900000*%
%ADD18O,0.900000X2.500000*%
%ADD19R,6.000000X6.000000*%
%ADD20C,0.975000*%
%ADD21R,1.050000X0.650000*%
%ADD22C,0.800000*%
%ADD23C,2.200000*%
%ADD24C,1.000000*%
%ADD25C,0.250000*%
%ADD26C,0.500000*%
%ADD27C,0.254000*%
G04 APERTURE END LIST*
D10*
G36*
X181492904Y-140240804D02*
G01*
X181517173Y-140244404D01*
X181540971Y-140250365D01*
X181564071Y-140258630D01*
X181586249Y-140269120D01*
X181607293Y-140281733D01*
X181626998Y-140296347D01*
X181645177Y-140312823D01*
X181661653Y-140331002D01*
X181676267Y-140350707D01*
X181688880Y-140371751D01*
X181699370Y-140393929D01*
X181707635Y-140417029D01*
X181713596Y-140440827D01*
X181717196Y-140465096D01*
X181718400Y-140489600D01*
X181718400Y-143389600D01*
X181717196Y-143414104D01*
X181713596Y-143438373D01*
X181707635Y-143462171D01*
X181699370Y-143485271D01*
X181688880Y-143507449D01*
X181676267Y-143528493D01*
X181661653Y-143548198D01*
X181645177Y-143566377D01*
X181626998Y-143582853D01*
X181607293Y-143597467D01*
X181586249Y-143610080D01*
X181564071Y-143620570D01*
X181540971Y-143628835D01*
X181517173Y-143634796D01*
X181492904Y-143638396D01*
X181468400Y-143639600D01*
X180468400Y-143639600D01*
X180443896Y-143638396D01*
X180419627Y-143634796D01*
X180395829Y-143628835D01*
X180372729Y-143620570D01*
X180350551Y-143610080D01*
X180329507Y-143597467D01*
X180309802Y-143582853D01*
X180291623Y-143566377D01*
X180275147Y-143548198D01*
X180260533Y-143528493D01*
X180247920Y-143507449D01*
X180237430Y-143485271D01*
X180229165Y-143462171D01*
X180223204Y-143438373D01*
X180219604Y-143414104D01*
X180218400Y-143389600D01*
X180218400Y-140489600D01*
X180219604Y-140465096D01*
X180223204Y-140440827D01*
X180229165Y-140417029D01*
X180237430Y-140393929D01*
X180247920Y-140371751D01*
X180260533Y-140350707D01*
X180275147Y-140331002D01*
X180291623Y-140312823D01*
X180309802Y-140296347D01*
X180329507Y-140281733D01*
X180350551Y-140269120D01*
X180372729Y-140258630D01*
X180395829Y-140250365D01*
X180419627Y-140244404D01*
X180443896Y-140240804D01*
X180468400Y-140239600D01*
X181468400Y-140239600D01*
X181492904Y-140240804D01*
X181492904Y-140240804D01*
G37*
D11*
X180968400Y-141939600D03*
D10*
G36*
X170792904Y-140240804D02*
G01*
X170817173Y-140244404D01*
X170840971Y-140250365D01*
X170864071Y-140258630D01*
X170886249Y-140269120D01*
X170907293Y-140281733D01*
X170926998Y-140296347D01*
X170945177Y-140312823D01*
X170961653Y-140331002D01*
X170976267Y-140350707D01*
X170988880Y-140371751D01*
X170999370Y-140393929D01*
X171007635Y-140417029D01*
X171013596Y-140440827D01*
X171017196Y-140465096D01*
X171018400Y-140489600D01*
X171018400Y-143389600D01*
X171017196Y-143414104D01*
X171013596Y-143438373D01*
X171007635Y-143462171D01*
X170999370Y-143485271D01*
X170988880Y-143507449D01*
X170976267Y-143528493D01*
X170961653Y-143548198D01*
X170945177Y-143566377D01*
X170926998Y-143582853D01*
X170907293Y-143597467D01*
X170886249Y-143610080D01*
X170864071Y-143620570D01*
X170840971Y-143628835D01*
X170817173Y-143634796D01*
X170792904Y-143638396D01*
X170768400Y-143639600D01*
X169768400Y-143639600D01*
X169743896Y-143638396D01*
X169719627Y-143634796D01*
X169695829Y-143628835D01*
X169672729Y-143620570D01*
X169650551Y-143610080D01*
X169629507Y-143597467D01*
X169609802Y-143582853D01*
X169591623Y-143566377D01*
X169575147Y-143548198D01*
X169560533Y-143528493D01*
X169547920Y-143507449D01*
X169537430Y-143485271D01*
X169529165Y-143462171D01*
X169523204Y-143438373D01*
X169519604Y-143414104D01*
X169518400Y-143389600D01*
X169518400Y-140489600D01*
X169519604Y-140465096D01*
X169523204Y-140440827D01*
X169529165Y-140417029D01*
X169537430Y-140393929D01*
X169547920Y-140371751D01*
X169560533Y-140350707D01*
X169575147Y-140331002D01*
X169591623Y-140312823D01*
X169609802Y-140296347D01*
X169629507Y-140281733D01*
X169650551Y-140269120D01*
X169672729Y-140258630D01*
X169695829Y-140250365D01*
X169719627Y-140244404D01*
X169743896Y-140240804D01*
X169768400Y-140239600D01*
X170768400Y-140239600D01*
X170792904Y-140240804D01*
X170792904Y-140240804D01*
G37*
D11*
X170268400Y-141939600D03*
D10*
G36*
X178892904Y-134440804D02*
G01*
X178917173Y-134444404D01*
X178940971Y-134450365D01*
X178964071Y-134458630D01*
X178986249Y-134469120D01*
X179007293Y-134481733D01*
X179026998Y-134496347D01*
X179045177Y-134512823D01*
X179061653Y-134531002D01*
X179076267Y-134550707D01*
X179088880Y-134571751D01*
X179099370Y-134593929D01*
X179107635Y-134617029D01*
X179113596Y-134640827D01*
X179117196Y-134665096D01*
X179118400Y-134689600D01*
X179118400Y-137689600D01*
X179117196Y-137714104D01*
X179113596Y-137738373D01*
X179107635Y-137762171D01*
X179099370Y-137785271D01*
X179088880Y-137807449D01*
X179076267Y-137828493D01*
X179061653Y-137848198D01*
X179045177Y-137866377D01*
X179026998Y-137882853D01*
X179007293Y-137897467D01*
X178986249Y-137910080D01*
X178964071Y-137920570D01*
X178940971Y-137928835D01*
X178917173Y-137934796D01*
X178892904Y-137938396D01*
X178868400Y-137939600D01*
X178368400Y-137939600D01*
X178343896Y-137938396D01*
X178319627Y-137934796D01*
X178295829Y-137928835D01*
X178272729Y-137920570D01*
X178250551Y-137910080D01*
X178229507Y-137897467D01*
X178209802Y-137882853D01*
X178191623Y-137866377D01*
X178175147Y-137848198D01*
X178160533Y-137828493D01*
X178147920Y-137807449D01*
X178137430Y-137785271D01*
X178129165Y-137762171D01*
X178123204Y-137738373D01*
X178119604Y-137714104D01*
X178118400Y-137689600D01*
X178118400Y-134689600D01*
X178119604Y-134665096D01*
X178123204Y-134640827D01*
X178129165Y-134617029D01*
X178137430Y-134593929D01*
X178147920Y-134571751D01*
X178160533Y-134550707D01*
X178175147Y-134531002D01*
X178191623Y-134512823D01*
X178209802Y-134496347D01*
X178229507Y-134481733D01*
X178250551Y-134469120D01*
X178272729Y-134458630D01*
X178295829Y-134450365D01*
X178319627Y-134444404D01*
X178343896Y-134440804D01*
X178368400Y-134439600D01*
X178868400Y-134439600D01*
X178892904Y-134440804D01*
X178892904Y-134440804D01*
G37*
D12*
X178618400Y-136189600D03*
D10*
G36*
X176892904Y-134440804D02*
G01*
X176917173Y-134444404D01*
X176940971Y-134450365D01*
X176964071Y-134458630D01*
X176986249Y-134469120D01*
X177007293Y-134481733D01*
X177026998Y-134496347D01*
X177045177Y-134512823D01*
X177061653Y-134531002D01*
X177076267Y-134550707D01*
X177088880Y-134571751D01*
X177099370Y-134593929D01*
X177107635Y-134617029D01*
X177113596Y-134640827D01*
X177117196Y-134665096D01*
X177118400Y-134689600D01*
X177118400Y-137689600D01*
X177117196Y-137714104D01*
X177113596Y-137738373D01*
X177107635Y-137762171D01*
X177099370Y-137785271D01*
X177088880Y-137807449D01*
X177076267Y-137828493D01*
X177061653Y-137848198D01*
X177045177Y-137866377D01*
X177026998Y-137882853D01*
X177007293Y-137897467D01*
X176986249Y-137910080D01*
X176964071Y-137920570D01*
X176940971Y-137928835D01*
X176917173Y-137934796D01*
X176892904Y-137938396D01*
X176868400Y-137939600D01*
X176368400Y-137939600D01*
X176343896Y-137938396D01*
X176319627Y-137934796D01*
X176295829Y-137928835D01*
X176272729Y-137920570D01*
X176250551Y-137910080D01*
X176229507Y-137897467D01*
X176209802Y-137882853D01*
X176191623Y-137866377D01*
X176175147Y-137848198D01*
X176160533Y-137828493D01*
X176147920Y-137807449D01*
X176137430Y-137785271D01*
X176129165Y-137762171D01*
X176123204Y-137738373D01*
X176119604Y-137714104D01*
X176118400Y-137689600D01*
X176118400Y-134689600D01*
X176119604Y-134665096D01*
X176123204Y-134640827D01*
X176129165Y-134617029D01*
X176137430Y-134593929D01*
X176147920Y-134571751D01*
X176160533Y-134550707D01*
X176175147Y-134531002D01*
X176191623Y-134512823D01*
X176209802Y-134496347D01*
X176229507Y-134481733D01*
X176250551Y-134469120D01*
X176272729Y-134458630D01*
X176295829Y-134450365D01*
X176319627Y-134444404D01*
X176343896Y-134440804D01*
X176368400Y-134439600D01*
X176868400Y-134439600D01*
X176892904Y-134440804D01*
X176892904Y-134440804D01*
G37*
D12*
X176618400Y-136189600D03*
D10*
G36*
X174892904Y-134440804D02*
G01*
X174917173Y-134444404D01*
X174940971Y-134450365D01*
X174964071Y-134458630D01*
X174986249Y-134469120D01*
X175007293Y-134481733D01*
X175026998Y-134496347D01*
X175045177Y-134512823D01*
X175061653Y-134531002D01*
X175076267Y-134550707D01*
X175088880Y-134571751D01*
X175099370Y-134593929D01*
X175107635Y-134617029D01*
X175113596Y-134640827D01*
X175117196Y-134665096D01*
X175118400Y-134689600D01*
X175118400Y-137689600D01*
X175117196Y-137714104D01*
X175113596Y-137738373D01*
X175107635Y-137762171D01*
X175099370Y-137785271D01*
X175088880Y-137807449D01*
X175076267Y-137828493D01*
X175061653Y-137848198D01*
X175045177Y-137866377D01*
X175026998Y-137882853D01*
X175007293Y-137897467D01*
X174986249Y-137910080D01*
X174964071Y-137920570D01*
X174940971Y-137928835D01*
X174917173Y-137934796D01*
X174892904Y-137938396D01*
X174868400Y-137939600D01*
X174368400Y-137939600D01*
X174343896Y-137938396D01*
X174319627Y-137934796D01*
X174295829Y-137928835D01*
X174272729Y-137920570D01*
X174250551Y-137910080D01*
X174229507Y-137897467D01*
X174209802Y-137882853D01*
X174191623Y-137866377D01*
X174175147Y-137848198D01*
X174160533Y-137828493D01*
X174147920Y-137807449D01*
X174137430Y-137785271D01*
X174129165Y-137762171D01*
X174123204Y-137738373D01*
X174119604Y-137714104D01*
X174118400Y-137689600D01*
X174118400Y-134689600D01*
X174119604Y-134665096D01*
X174123204Y-134640827D01*
X174129165Y-134617029D01*
X174137430Y-134593929D01*
X174147920Y-134571751D01*
X174160533Y-134550707D01*
X174175147Y-134531002D01*
X174191623Y-134512823D01*
X174209802Y-134496347D01*
X174229507Y-134481733D01*
X174250551Y-134469120D01*
X174272729Y-134458630D01*
X174295829Y-134450365D01*
X174319627Y-134444404D01*
X174343896Y-134440804D01*
X174368400Y-134439600D01*
X174868400Y-134439600D01*
X174892904Y-134440804D01*
X174892904Y-134440804D01*
G37*
D12*
X174618400Y-136189600D03*
D10*
G36*
X172892904Y-134440804D02*
G01*
X172917173Y-134444404D01*
X172940971Y-134450365D01*
X172964071Y-134458630D01*
X172986249Y-134469120D01*
X173007293Y-134481733D01*
X173026998Y-134496347D01*
X173045177Y-134512823D01*
X173061653Y-134531002D01*
X173076267Y-134550707D01*
X173088880Y-134571751D01*
X173099370Y-134593929D01*
X173107635Y-134617029D01*
X173113596Y-134640827D01*
X173117196Y-134665096D01*
X173118400Y-134689600D01*
X173118400Y-137689600D01*
X173117196Y-137714104D01*
X173113596Y-137738373D01*
X173107635Y-137762171D01*
X173099370Y-137785271D01*
X173088880Y-137807449D01*
X173076267Y-137828493D01*
X173061653Y-137848198D01*
X173045177Y-137866377D01*
X173026998Y-137882853D01*
X173007293Y-137897467D01*
X172986249Y-137910080D01*
X172964071Y-137920570D01*
X172940971Y-137928835D01*
X172917173Y-137934796D01*
X172892904Y-137938396D01*
X172868400Y-137939600D01*
X172368400Y-137939600D01*
X172343896Y-137938396D01*
X172319627Y-137934796D01*
X172295829Y-137928835D01*
X172272729Y-137920570D01*
X172250551Y-137910080D01*
X172229507Y-137897467D01*
X172209802Y-137882853D01*
X172191623Y-137866377D01*
X172175147Y-137848198D01*
X172160533Y-137828493D01*
X172147920Y-137807449D01*
X172137430Y-137785271D01*
X172129165Y-137762171D01*
X172123204Y-137738373D01*
X172119604Y-137714104D01*
X172118400Y-137689600D01*
X172118400Y-134689600D01*
X172119604Y-134665096D01*
X172123204Y-134640827D01*
X172129165Y-134617029D01*
X172137430Y-134593929D01*
X172147920Y-134571751D01*
X172160533Y-134550707D01*
X172175147Y-134531002D01*
X172191623Y-134512823D01*
X172209802Y-134496347D01*
X172229507Y-134481733D01*
X172250551Y-134469120D01*
X172272729Y-134458630D01*
X172295829Y-134450365D01*
X172319627Y-134444404D01*
X172343896Y-134440804D01*
X172368400Y-134439600D01*
X172868400Y-134439600D01*
X172892904Y-134440804D01*
X172892904Y-134440804D01*
G37*
D12*
X172618400Y-136189600D03*
D13*
X165455600Y-128244600D03*
X161391600Y-128244600D03*
D10*
G36*
X156682704Y-122824204D02*
G01*
X156706973Y-122827804D01*
X156730771Y-122833765D01*
X156753871Y-122842030D01*
X156776049Y-122852520D01*
X156797093Y-122865133D01*
X156816798Y-122879747D01*
X156834977Y-122896223D01*
X156851453Y-122914402D01*
X156866067Y-122934107D01*
X156878680Y-122955151D01*
X156889170Y-122977329D01*
X156897435Y-123000429D01*
X156903396Y-123024227D01*
X156906996Y-123048496D01*
X156908200Y-123073000D01*
X156908200Y-124323000D01*
X156906996Y-124347504D01*
X156903396Y-124371773D01*
X156897435Y-124395571D01*
X156889170Y-124418671D01*
X156878680Y-124440849D01*
X156866067Y-124461893D01*
X156851453Y-124481598D01*
X156834977Y-124499777D01*
X156816798Y-124516253D01*
X156797093Y-124530867D01*
X156776049Y-124543480D01*
X156753871Y-124553970D01*
X156730771Y-124562235D01*
X156706973Y-124568196D01*
X156682704Y-124571796D01*
X156658200Y-124573000D01*
X155908200Y-124573000D01*
X155883696Y-124571796D01*
X155859427Y-124568196D01*
X155835629Y-124562235D01*
X155812529Y-124553970D01*
X155790351Y-124543480D01*
X155769307Y-124530867D01*
X155749602Y-124516253D01*
X155731423Y-124499777D01*
X155714947Y-124481598D01*
X155700333Y-124461893D01*
X155687720Y-124440849D01*
X155677230Y-124418671D01*
X155668965Y-124395571D01*
X155663004Y-124371773D01*
X155659404Y-124347504D01*
X155658200Y-124323000D01*
X155658200Y-123073000D01*
X155659404Y-123048496D01*
X155663004Y-123024227D01*
X155668965Y-123000429D01*
X155677230Y-122977329D01*
X155687720Y-122955151D01*
X155700333Y-122934107D01*
X155714947Y-122914402D01*
X155731423Y-122896223D01*
X155749602Y-122879747D01*
X155769307Y-122865133D01*
X155790351Y-122852520D01*
X155812529Y-122842030D01*
X155835629Y-122833765D01*
X155859427Y-122827804D01*
X155883696Y-122824204D01*
X155908200Y-122823000D01*
X156658200Y-122823000D01*
X156682704Y-122824204D01*
X156682704Y-122824204D01*
G37*
D14*
X156283200Y-123698000D03*
D10*
G36*
X159482704Y-122824204D02*
G01*
X159506973Y-122827804D01*
X159530771Y-122833765D01*
X159553871Y-122842030D01*
X159576049Y-122852520D01*
X159597093Y-122865133D01*
X159616798Y-122879747D01*
X159634977Y-122896223D01*
X159651453Y-122914402D01*
X159666067Y-122934107D01*
X159678680Y-122955151D01*
X159689170Y-122977329D01*
X159697435Y-123000429D01*
X159703396Y-123024227D01*
X159706996Y-123048496D01*
X159708200Y-123073000D01*
X159708200Y-124323000D01*
X159706996Y-124347504D01*
X159703396Y-124371773D01*
X159697435Y-124395571D01*
X159689170Y-124418671D01*
X159678680Y-124440849D01*
X159666067Y-124461893D01*
X159651453Y-124481598D01*
X159634977Y-124499777D01*
X159616798Y-124516253D01*
X159597093Y-124530867D01*
X159576049Y-124543480D01*
X159553871Y-124553970D01*
X159530771Y-124562235D01*
X159506973Y-124568196D01*
X159482704Y-124571796D01*
X159458200Y-124573000D01*
X158708200Y-124573000D01*
X158683696Y-124571796D01*
X158659427Y-124568196D01*
X158635629Y-124562235D01*
X158612529Y-124553970D01*
X158590351Y-124543480D01*
X158569307Y-124530867D01*
X158549602Y-124516253D01*
X158531423Y-124499777D01*
X158514947Y-124481598D01*
X158500333Y-124461893D01*
X158487720Y-124440849D01*
X158477230Y-124418671D01*
X158468965Y-124395571D01*
X158463004Y-124371773D01*
X158459404Y-124347504D01*
X158458200Y-124323000D01*
X158458200Y-123073000D01*
X158459404Y-123048496D01*
X158463004Y-123024227D01*
X158468965Y-123000429D01*
X158477230Y-122977329D01*
X158487720Y-122955151D01*
X158500333Y-122934107D01*
X158514947Y-122914402D01*
X158531423Y-122896223D01*
X158549602Y-122879747D01*
X158569307Y-122865133D01*
X158590351Y-122852520D01*
X158612529Y-122842030D01*
X158635629Y-122833765D01*
X158659427Y-122827804D01*
X158683696Y-122824204D01*
X158708200Y-122823000D01*
X159458200Y-122823000D01*
X159482704Y-122824204D01*
X159482704Y-122824204D01*
G37*
D14*
X159083200Y-123698000D03*
D13*
X163423600Y-128244600D03*
D15*
X149606000Y-128270000D03*
X149606000Y-125730000D03*
X149606000Y-123190000D03*
X149606000Y-120650000D03*
X149606000Y-118110000D03*
X149606000Y-115570000D03*
X149606000Y-113030000D03*
X149606000Y-110490000D03*
X149606000Y-107950000D03*
X149606000Y-105410000D03*
X149606000Y-102870000D03*
X149606000Y-100330000D03*
X149606000Y-97790000D03*
D16*
X149606000Y-95250000D03*
D15*
X178816000Y-128270000D03*
X178816000Y-125730000D03*
X178816000Y-123190000D03*
X178816000Y-120650000D03*
X178816000Y-118110000D03*
X178816000Y-115570000D03*
X178816000Y-113030000D03*
X178816000Y-110490000D03*
X178816000Y-107950000D03*
X178816000Y-105410000D03*
X178816000Y-102870000D03*
X178816000Y-100330000D03*
X178816000Y-97790000D03*
D16*
X178816000Y-95250000D03*
D17*
X173330000Y-95110000D03*
X173330000Y-96380000D03*
X173330000Y-97650000D03*
X173330000Y-98920000D03*
X173330000Y-100190000D03*
X173330000Y-101460000D03*
X173330000Y-102730000D03*
X173330000Y-104000000D03*
X173330000Y-105270000D03*
X173330000Y-106540000D03*
X173330000Y-107810000D03*
X173330000Y-109080000D03*
X173330000Y-110350000D03*
X173330000Y-111620000D03*
D18*
X170045000Y-113110000D03*
X168775000Y-113110000D03*
X167505000Y-113110000D03*
X166235000Y-113110000D03*
X164965000Y-113110000D03*
X163695000Y-113110000D03*
X162425000Y-113110000D03*
X161155000Y-113110000D03*
X159885000Y-113110000D03*
X158615000Y-113110000D03*
D17*
X155330000Y-111620000D03*
X155330000Y-110350000D03*
X155330000Y-109080000D03*
X155330000Y-107810000D03*
X155330000Y-106540000D03*
X155330000Y-105270000D03*
X155330000Y-104000000D03*
X155330000Y-102730000D03*
X155330000Y-101460000D03*
X155330000Y-100190000D03*
X155330000Y-98920000D03*
X155330000Y-97650000D03*
X155330000Y-96380000D03*
X155330000Y-95110000D03*
D19*
X164030000Y-102810000D03*
D10*
G36*
X153134142Y-97636174D02*
G01*
X153157803Y-97639684D01*
X153181007Y-97645496D01*
X153203529Y-97653554D01*
X153225153Y-97663782D01*
X153245670Y-97676079D01*
X153264883Y-97690329D01*
X153282607Y-97706393D01*
X153298671Y-97724117D01*
X153312921Y-97743330D01*
X153325218Y-97763847D01*
X153335446Y-97785471D01*
X153343504Y-97807993D01*
X153349316Y-97831197D01*
X153352826Y-97854858D01*
X153354000Y-97878750D01*
X153354000Y-98366250D01*
X153352826Y-98390142D01*
X153349316Y-98413803D01*
X153343504Y-98437007D01*
X153335446Y-98459529D01*
X153325218Y-98481153D01*
X153312921Y-98501670D01*
X153298671Y-98520883D01*
X153282607Y-98538607D01*
X153264883Y-98554671D01*
X153245670Y-98568921D01*
X153225153Y-98581218D01*
X153203529Y-98591446D01*
X153181007Y-98599504D01*
X153157803Y-98605316D01*
X153134142Y-98608826D01*
X153110250Y-98610000D01*
X152197750Y-98610000D01*
X152173858Y-98608826D01*
X152150197Y-98605316D01*
X152126993Y-98599504D01*
X152104471Y-98591446D01*
X152082847Y-98581218D01*
X152062330Y-98568921D01*
X152043117Y-98554671D01*
X152025393Y-98538607D01*
X152009329Y-98520883D01*
X151995079Y-98501670D01*
X151982782Y-98481153D01*
X151972554Y-98459529D01*
X151964496Y-98437007D01*
X151958684Y-98413803D01*
X151955174Y-98390142D01*
X151954000Y-98366250D01*
X151954000Y-97878750D01*
X151955174Y-97854858D01*
X151958684Y-97831197D01*
X151964496Y-97807993D01*
X151972554Y-97785471D01*
X151982782Y-97763847D01*
X151995079Y-97743330D01*
X152009329Y-97724117D01*
X152025393Y-97706393D01*
X152043117Y-97690329D01*
X152062330Y-97676079D01*
X152082847Y-97663782D01*
X152104471Y-97653554D01*
X152126993Y-97645496D01*
X152150197Y-97639684D01*
X152173858Y-97636174D01*
X152197750Y-97635000D01*
X153110250Y-97635000D01*
X153134142Y-97636174D01*
X153134142Y-97636174D01*
G37*
D20*
X152654000Y-98122500D03*
D10*
G36*
X153134142Y-99511174D02*
G01*
X153157803Y-99514684D01*
X153181007Y-99520496D01*
X153203529Y-99528554D01*
X153225153Y-99538782D01*
X153245670Y-99551079D01*
X153264883Y-99565329D01*
X153282607Y-99581393D01*
X153298671Y-99599117D01*
X153312921Y-99618330D01*
X153325218Y-99638847D01*
X153335446Y-99660471D01*
X153343504Y-99682993D01*
X153349316Y-99706197D01*
X153352826Y-99729858D01*
X153354000Y-99753750D01*
X153354000Y-100241250D01*
X153352826Y-100265142D01*
X153349316Y-100288803D01*
X153343504Y-100312007D01*
X153335446Y-100334529D01*
X153325218Y-100356153D01*
X153312921Y-100376670D01*
X153298671Y-100395883D01*
X153282607Y-100413607D01*
X153264883Y-100429671D01*
X153245670Y-100443921D01*
X153225153Y-100456218D01*
X153203529Y-100466446D01*
X153181007Y-100474504D01*
X153157803Y-100480316D01*
X153134142Y-100483826D01*
X153110250Y-100485000D01*
X152197750Y-100485000D01*
X152173858Y-100483826D01*
X152150197Y-100480316D01*
X152126993Y-100474504D01*
X152104471Y-100466446D01*
X152082847Y-100456218D01*
X152062330Y-100443921D01*
X152043117Y-100429671D01*
X152025393Y-100413607D01*
X152009329Y-100395883D01*
X151995079Y-100376670D01*
X151982782Y-100356153D01*
X151972554Y-100334529D01*
X151964496Y-100312007D01*
X151958684Y-100288803D01*
X151955174Y-100265142D01*
X151954000Y-100241250D01*
X151954000Y-99753750D01*
X151955174Y-99729858D01*
X151958684Y-99706197D01*
X151964496Y-99682993D01*
X151972554Y-99660471D01*
X151982782Y-99638847D01*
X151995079Y-99618330D01*
X152009329Y-99599117D01*
X152025393Y-99581393D01*
X152043117Y-99565329D01*
X152062330Y-99551079D01*
X152082847Y-99538782D01*
X152104471Y-99528554D01*
X152126993Y-99520496D01*
X152150197Y-99514684D01*
X152173858Y-99511174D01*
X152197750Y-99510000D01*
X153110250Y-99510000D01*
X153134142Y-99511174D01*
X153134142Y-99511174D01*
G37*
D20*
X152654000Y-99997500D03*
D10*
G36*
X153134142Y-94001674D02*
G01*
X153157803Y-94005184D01*
X153181007Y-94010996D01*
X153203529Y-94019054D01*
X153225153Y-94029282D01*
X153245670Y-94041579D01*
X153264883Y-94055829D01*
X153282607Y-94071893D01*
X153298671Y-94089617D01*
X153312921Y-94108830D01*
X153325218Y-94129347D01*
X153335446Y-94150971D01*
X153343504Y-94173493D01*
X153349316Y-94196697D01*
X153352826Y-94220358D01*
X153354000Y-94244250D01*
X153354000Y-94731750D01*
X153352826Y-94755642D01*
X153349316Y-94779303D01*
X153343504Y-94802507D01*
X153335446Y-94825029D01*
X153325218Y-94846653D01*
X153312921Y-94867170D01*
X153298671Y-94886383D01*
X153282607Y-94904107D01*
X153264883Y-94920171D01*
X153245670Y-94934421D01*
X153225153Y-94946718D01*
X153203529Y-94956946D01*
X153181007Y-94965004D01*
X153157803Y-94970816D01*
X153134142Y-94974326D01*
X153110250Y-94975500D01*
X152197750Y-94975500D01*
X152173858Y-94974326D01*
X152150197Y-94970816D01*
X152126993Y-94965004D01*
X152104471Y-94956946D01*
X152082847Y-94946718D01*
X152062330Y-94934421D01*
X152043117Y-94920171D01*
X152025393Y-94904107D01*
X152009329Y-94886383D01*
X151995079Y-94867170D01*
X151982782Y-94846653D01*
X151972554Y-94825029D01*
X151964496Y-94802507D01*
X151958684Y-94779303D01*
X151955174Y-94755642D01*
X151954000Y-94731750D01*
X151954000Y-94244250D01*
X151955174Y-94220358D01*
X151958684Y-94196697D01*
X151964496Y-94173493D01*
X151972554Y-94150971D01*
X151982782Y-94129347D01*
X151995079Y-94108830D01*
X152009329Y-94089617D01*
X152025393Y-94071893D01*
X152043117Y-94055829D01*
X152062330Y-94041579D01*
X152082847Y-94029282D01*
X152104471Y-94019054D01*
X152126993Y-94010996D01*
X152150197Y-94005184D01*
X152173858Y-94001674D01*
X152197750Y-94000500D01*
X153110250Y-94000500D01*
X153134142Y-94001674D01*
X153134142Y-94001674D01*
G37*
D20*
X152654000Y-94488000D03*
D10*
G36*
X153134142Y-95876674D02*
G01*
X153157803Y-95880184D01*
X153181007Y-95885996D01*
X153203529Y-95894054D01*
X153225153Y-95904282D01*
X153245670Y-95916579D01*
X153264883Y-95930829D01*
X153282607Y-95946893D01*
X153298671Y-95964617D01*
X153312921Y-95983830D01*
X153325218Y-96004347D01*
X153335446Y-96025971D01*
X153343504Y-96048493D01*
X153349316Y-96071697D01*
X153352826Y-96095358D01*
X153354000Y-96119250D01*
X153354000Y-96606750D01*
X153352826Y-96630642D01*
X153349316Y-96654303D01*
X153343504Y-96677507D01*
X153335446Y-96700029D01*
X153325218Y-96721653D01*
X153312921Y-96742170D01*
X153298671Y-96761383D01*
X153282607Y-96779107D01*
X153264883Y-96795171D01*
X153245670Y-96809421D01*
X153225153Y-96821718D01*
X153203529Y-96831946D01*
X153181007Y-96840004D01*
X153157803Y-96845816D01*
X153134142Y-96849326D01*
X153110250Y-96850500D01*
X152197750Y-96850500D01*
X152173858Y-96849326D01*
X152150197Y-96845816D01*
X152126993Y-96840004D01*
X152104471Y-96831946D01*
X152082847Y-96821718D01*
X152062330Y-96809421D01*
X152043117Y-96795171D01*
X152025393Y-96779107D01*
X152009329Y-96761383D01*
X151995079Y-96742170D01*
X151982782Y-96721653D01*
X151972554Y-96700029D01*
X151964496Y-96677507D01*
X151958684Y-96654303D01*
X151955174Y-96630642D01*
X151954000Y-96606750D01*
X151954000Y-96119250D01*
X151955174Y-96095358D01*
X151958684Y-96071697D01*
X151964496Y-96048493D01*
X151972554Y-96025971D01*
X151982782Y-96004347D01*
X151995079Y-95983830D01*
X152009329Y-95964617D01*
X152025393Y-95946893D01*
X152043117Y-95930829D01*
X152062330Y-95916579D01*
X152082847Y-95904282D01*
X152104471Y-95894054D01*
X152126993Y-95885996D01*
X152150197Y-95880184D01*
X152173858Y-95876674D01*
X152197750Y-95875500D01*
X153110250Y-95875500D01*
X153134142Y-95876674D01*
X153134142Y-95876674D01*
G37*
D20*
X152654000Y-96363000D03*
D10*
G36*
X166189742Y-117189574D02*
G01*
X166213403Y-117193084D01*
X166236607Y-117198896D01*
X166259129Y-117206954D01*
X166280753Y-117217182D01*
X166301270Y-117229479D01*
X166320483Y-117243729D01*
X166338207Y-117259793D01*
X166354271Y-117277517D01*
X166368521Y-117296730D01*
X166380818Y-117317247D01*
X166391046Y-117338871D01*
X166399104Y-117361393D01*
X166404916Y-117384597D01*
X166408426Y-117408258D01*
X166409600Y-117432150D01*
X166409600Y-117919650D01*
X166408426Y-117943542D01*
X166404916Y-117967203D01*
X166399104Y-117990407D01*
X166391046Y-118012929D01*
X166380818Y-118034553D01*
X166368521Y-118055070D01*
X166354271Y-118074283D01*
X166338207Y-118092007D01*
X166320483Y-118108071D01*
X166301270Y-118122321D01*
X166280753Y-118134618D01*
X166259129Y-118144846D01*
X166236607Y-118152904D01*
X166213403Y-118158716D01*
X166189742Y-118162226D01*
X166165850Y-118163400D01*
X165253350Y-118163400D01*
X165229458Y-118162226D01*
X165205797Y-118158716D01*
X165182593Y-118152904D01*
X165160071Y-118144846D01*
X165138447Y-118134618D01*
X165117930Y-118122321D01*
X165098717Y-118108071D01*
X165080993Y-118092007D01*
X165064929Y-118074283D01*
X165050679Y-118055070D01*
X165038382Y-118034553D01*
X165028154Y-118012929D01*
X165020096Y-117990407D01*
X165014284Y-117967203D01*
X165010774Y-117943542D01*
X165009600Y-117919650D01*
X165009600Y-117432150D01*
X165010774Y-117408258D01*
X165014284Y-117384597D01*
X165020096Y-117361393D01*
X165028154Y-117338871D01*
X165038382Y-117317247D01*
X165050679Y-117296730D01*
X165064929Y-117277517D01*
X165080993Y-117259793D01*
X165098717Y-117243729D01*
X165117930Y-117229479D01*
X165138447Y-117217182D01*
X165160071Y-117206954D01*
X165182593Y-117198896D01*
X165205797Y-117193084D01*
X165229458Y-117189574D01*
X165253350Y-117188400D01*
X166165850Y-117188400D01*
X166189742Y-117189574D01*
X166189742Y-117189574D01*
G37*
D20*
X165709600Y-117675900D03*
D10*
G36*
X166189742Y-115314574D02*
G01*
X166213403Y-115318084D01*
X166236607Y-115323896D01*
X166259129Y-115331954D01*
X166280753Y-115342182D01*
X166301270Y-115354479D01*
X166320483Y-115368729D01*
X166338207Y-115384793D01*
X166354271Y-115402517D01*
X166368521Y-115421730D01*
X166380818Y-115442247D01*
X166391046Y-115463871D01*
X166399104Y-115486393D01*
X166404916Y-115509597D01*
X166408426Y-115533258D01*
X166409600Y-115557150D01*
X166409600Y-116044650D01*
X166408426Y-116068542D01*
X166404916Y-116092203D01*
X166399104Y-116115407D01*
X166391046Y-116137929D01*
X166380818Y-116159553D01*
X166368521Y-116180070D01*
X166354271Y-116199283D01*
X166338207Y-116217007D01*
X166320483Y-116233071D01*
X166301270Y-116247321D01*
X166280753Y-116259618D01*
X166259129Y-116269846D01*
X166236607Y-116277904D01*
X166213403Y-116283716D01*
X166189742Y-116287226D01*
X166165850Y-116288400D01*
X165253350Y-116288400D01*
X165229458Y-116287226D01*
X165205797Y-116283716D01*
X165182593Y-116277904D01*
X165160071Y-116269846D01*
X165138447Y-116259618D01*
X165117930Y-116247321D01*
X165098717Y-116233071D01*
X165080993Y-116217007D01*
X165064929Y-116199283D01*
X165050679Y-116180070D01*
X165038382Y-116159553D01*
X165028154Y-116137929D01*
X165020096Y-116115407D01*
X165014284Y-116092203D01*
X165010774Y-116068542D01*
X165009600Y-116044650D01*
X165009600Y-115557150D01*
X165010774Y-115533258D01*
X165014284Y-115509597D01*
X165020096Y-115486393D01*
X165028154Y-115463871D01*
X165038382Y-115442247D01*
X165050679Y-115421730D01*
X165064929Y-115402517D01*
X165080993Y-115384793D01*
X165098717Y-115368729D01*
X165117930Y-115354479D01*
X165138447Y-115342182D01*
X165160071Y-115331954D01*
X165182593Y-115323896D01*
X165205797Y-115318084D01*
X165229458Y-115314574D01*
X165253350Y-115313400D01*
X166165850Y-115313400D01*
X166189742Y-115314574D01*
X166189742Y-115314574D01*
G37*
D20*
X165709600Y-115800900D03*
D10*
G36*
X163751342Y-115314574D02*
G01*
X163775003Y-115318084D01*
X163798207Y-115323896D01*
X163820729Y-115331954D01*
X163842353Y-115342182D01*
X163862870Y-115354479D01*
X163882083Y-115368729D01*
X163899807Y-115384793D01*
X163915871Y-115402517D01*
X163930121Y-115421730D01*
X163942418Y-115442247D01*
X163952646Y-115463871D01*
X163960704Y-115486393D01*
X163966516Y-115509597D01*
X163970026Y-115533258D01*
X163971200Y-115557150D01*
X163971200Y-116044650D01*
X163970026Y-116068542D01*
X163966516Y-116092203D01*
X163960704Y-116115407D01*
X163952646Y-116137929D01*
X163942418Y-116159553D01*
X163930121Y-116180070D01*
X163915871Y-116199283D01*
X163899807Y-116217007D01*
X163882083Y-116233071D01*
X163862870Y-116247321D01*
X163842353Y-116259618D01*
X163820729Y-116269846D01*
X163798207Y-116277904D01*
X163775003Y-116283716D01*
X163751342Y-116287226D01*
X163727450Y-116288400D01*
X162814950Y-116288400D01*
X162791058Y-116287226D01*
X162767397Y-116283716D01*
X162744193Y-116277904D01*
X162721671Y-116269846D01*
X162700047Y-116259618D01*
X162679530Y-116247321D01*
X162660317Y-116233071D01*
X162642593Y-116217007D01*
X162626529Y-116199283D01*
X162612279Y-116180070D01*
X162599982Y-116159553D01*
X162589754Y-116137929D01*
X162581696Y-116115407D01*
X162575884Y-116092203D01*
X162572374Y-116068542D01*
X162571200Y-116044650D01*
X162571200Y-115557150D01*
X162572374Y-115533258D01*
X162575884Y-115509597D01*
X162581696Y-115486393D01*
X162589754Y-115463871D01*
X162599982Y-115442247D01*
X162612279Y-115421730D01*
X162626529Y-115402517D01*
X162642593Y-115384793D01*
X162660317Y-115368729D01*
X162679530Y-115354479D01*
X162700047Y-115342182D01*
X162721671Y-115331954D01*
X162744193Y-115323896D01*
X162767397Y-115318084D01*
X162791058Y-115314574D01*
X162814950Y-115313400D01*
X163727450Y-115313400D01*
X163751342Y-115314574D01*
X163751342Y-115314574D01*
G37*
D20*
X163271200Y-115800900D03*
D10*
G36*
X163751342Y-117189574D02*
G01*
X163775003Y-117193084D01*
X163798207Y-117198896D01*
X163820729Y-117206954D01*
X163842353Y-117217182D01*
X163862870Y-117229479D01*
X163882083Y-117243729D01*
X163899807Y-117259793D01*
X163915871Y-117277517D01*
X163930121Y-117296730D01*
X163942418Y-117317247D01*
X163952646Y-117338871D01*
X163960704Y-117361393D01*
X163966516Y-117384597D01*
X163970026Y-117408258D01*
X163971200Y-117432150D01*
X163971200Y-117919650D01*
X163970026Y-117943542D01*
X163966516Y-117967203D01*
X163960704Y-117990407D01*
X163952646Y-118012929D01*
X163942418Y-118034553D01*
X163930121Y-118055070D01*
X163915871Y-118074283D01*
X163899807Y-118092007D01*
X163882083Y-118108071D01*
X163862870Y-118122321D01*
X163842353Y-118134618D01*
X163820729Y-118144846D01*
X163798207Y-118152904D01*
X163775003Y-118158716D01*
X163751342Y-118162226D01*
X163727450Y-118163400D01*
X162814950Y-118163400D01*
X162791058Y-118162226D01*
X162767397Y-118158716D01*
X162744193Y-118152904D01*
X162721671Y-118144846D01*
X162700047Y-118134618D01*
X162679530Y-118122321D01*
X162660317Y-118108071D01*
X162642593Y-118092007D01*
X162626529Y-118074283D01*
X162612279Y-118055070D01*
X162599982Y-118034553D01*
X162589754Y-118012929D01*
X162581696Y-117990407D01*
X162575884Y-117967203D01*
X162572374Y-117943542D01*
X162571200Y-117919650D01*
X162571200Y-117432150D01*
X162572374Y-117408258D01*
X162575884Y-117384597D01*
X162581696Y-117361393D01*
X162589754Y-117338871D01*
X162599982Y-117317247D01*
X162612279Y-117296730D01*
X162626529Y-117277517D01*
X162642593Y-117259793D01*
X162660317Y-117243729D01*
X162679530Y-117229479D01*
X162700047Y-117217182D01*
X162721671Y-117206954D01*
X162744193Y-117198896D01*
X162767397Y-117193084D01*
X162791058Y-117189574D01*
X162814950Y-117188400D01*
X163727450Y-117188400D01*
X163751342Y-117189574D01*
X163751342Y-117189574D01*
G37*
D20*
X163271200Y-117675900D03*
D21*
X160621800Y-118321400D03*
X156471800Y-118321400D03*
X160621800Y-116171400D03*
X156471800Y-116171400D03*
X168206600Y-116120600D03*
X172356600Y-116120600D03*
X168206600Y-118270600D03*
X172356600Y-118270600D03*
D10*
G36*
X150353704Y-134440804D02*
G01*
X150377973Y-134444404D01*
X150401771Y-134450365D01*
X150424871Y-134458630D01*
X150447049Y-134469120D01*
X150468093Y-134481733D01*
X150487798Y-134496347D01*
X150505977Y-134512823D01*
X150522453Y-134531002D01*
X150537067Y-134550707D01*
X150549680Y-134571751D01*
X150560170Y-134593929D01*
X150568435Y-134617029D01*
X150574396Y-134640827D01*
X150577996Y-134665096D01*
X150579200Y-134689600D01*
X150579200Y-137689600D01*
X150577996Y-137714104D01*
X150574396Y-137738373D01*
X150568435Y-137762171D01*
X150560170Y-137785271D01*
X150549680Y-137807449D01*
X150537067Y-137828493D01*
X150522453Y-137848198D01*
X150505977Y-137866377D01*
X150487798Y-137882853D01*
X150468093Y-137897467D01*
X150447049Y-137910080D01*
X150424871Y-137920570D01*
X150401771Y-137928835D01*
X150377973Y-137934796D01*
X150353704Y-137938396D01*
X150329200Y-137939600D01*
X149829200Y-137939600D01*
X149804696Y-137938396D01*
X149780427Y-137934796D01*
X149756629Y-137928835D01*
X149733529Y-137920570D01*
X149711351Y-137910080D01*
X149690307Y-137897467D01*
X149670602Y-137882853D01*
X149652423Y-137866377D01*
X149635947Y-137848198D01*
X149621333Y-137828493D01*
X149608720Y-137807449D01*
X149598230Y-137785271D01*
X149589965Y-137762171D01*
X149584004Y-137738373D01*
X149580404Y-137714104D01*
X149579200Y-137689600D01*
X149579200Y-134689600D01*
X149580404Y-134665096D01*
X149584004Y-134640827D01*
X149589965Y-134617029D01*
X149598230Y-134593929D01*
X149608720Y-134571751D01*
X149621333Y-134550707D01*
X149635947Y-134531002D01*
X149652423Y-134512823D01*
X149670602Y-134496347D01*
X149690307Y-134481733D01*
X149711351Y-134469120D01*
X149733529Y-134458630D01*
X149756629Y-134450365D01*
X149780427Y-134444404D01*
X149804696Y-134440804D01*
X149829200Y-134439600D01*
X150329200Y-134439600D01*
X150353704Y-134440804D01*
X150353704Y-134440804D01*
G37*
D12*
X150079200Y-136189600D03*
D10*
G36*
X152353704Y-134440804D02*
G01*
X152377973Y-134444404D01*
X152401771Y-134450365D01*
X152424871Y-134458630D01*
X152447049Y-134469120D01*
X152468093Y-134481733D01*
X152487798Y-134496347D01*
X152505977Y-134512823D01*
X152522453Y-134531002D01*
X152537067Y-134550707D01*
X152549680Y-134571751D01*
X152560170Y-134593929D01*
X152568435Y-134617029D01*
X152574396Y-134640827D01*
X152577996Y-134665096D01*
X152579200Y-134689600D01*
X152579200Y-137689600D01*
X152577996Y-137714104D01*
X152574396Y-137738373D01*
X152568435Y-137762171D01*
X152560170Y-137785271D01*
X152549680Y-137807449D01*
X152537067Y-137828493D01*
X152522453Y-137848198D01*
X152505977Y-137866377D01*
X152487798Y-137882853D01*
X152468093Y-137897467D01*
X152447049Y-137910080D01*
X152424871Y-137920570D01*
X152401771Y-137928835D01*
X152377973Y-137934796D01*
X152353704Y-137938396D01*
X152329200Y-137939600D01*
X151829200Y-137939600D01*
X151804696Y-137938396D01*
X151780427Y-137934796D01*
X151756629Y-137928835D01*
X151733529Y-137920570D01*
X151711351Y-137910080D01*
X151690307Y-137897467D01*
X151670602Y-137882853D01*
X151652423Y-137866377D01*
X151635947Y-137848198D01*
X151621333Y-137828493D01*
X151608720Y-137807449D01*
X151598230Y-137785271D01*
X151589965Y-137762171D01*
X151584004Y-137738373D01*
X151580404Y-137714104D01*
X151579200Y-137689600D01*
X151579200Y-134689600D01*
X151580404Y-134665096D01*
X151584004Y-134640827D01*
X151589965Y-134617029D01*
X151598230Y-134593929D01*
X151608720Y-134571751D01*
X151621333Y-134550707D01*
X151635947Y-134531002D01*
X151652423Y-134512823D01*
X151670602Y-134496347D01*
X151690307Y-134481733D01*
X151711351Y-134469120D01*
X151733529Y-134458630D01*
X151756629Y-134450365D01*
X151780427Y-134444404D01*
X151804696Y-134440804D01*
X151829200Y-134439600D01*
X152329200Y-134439600D01*
X152353704Y-134440804D01*
X152353704Y-134440804D01*
G37*
D12*
X152079200Y-136189600D03*
D10*
G36*
X148253704Y-140240804D02*
G01*
X148277973Y-140244404D01*
X148301771Y-140250365D01*
X148324871Y-140258630D01*
X148347049Y-140269120D01*
X148368093Y-140281733D01*
X148387798Y-140296347D01*
X148405977Y-140312823D01*
X148422453Y-140331002D01*
X148437067Y-140350707D01*
X148449680Y-140371751D01*
X148460170Y-140393929D01*
X148468435Y-140417029D01*
X148474396Y-140440827D01*
X148477996Y-140465096D01*
X148479200Y-140489600D01*
X148479200Y-143389600D01*
X148477996Y-143414104D01*
X148474396Y-143438373D01*
X148468435Y-143462171D01*
X148460170Y-143485271D01*
X148449680Y-143507449D01*
X148437067Y-143528493D01*
X148422453Y-143548198D01*
X148405977Y-143566377D01*
X148387798Y-143582853D01*
X148368093Y-143597467D01*
X148347049Y-143610080D01*
X148324871Y-143620570D01*
X148301771Y-143628835D01*
X148277973Y-143634796D01*
X148253704Y-143638396D01*
X148229200Y-143639600D01*
X147229200Y-143639600D01*
X147204696Y-143638396D01*
X147180427Y-143634796D01*
X147156629Y-143628835D01*
X147133529Y-143620570D01*
X147111351Y-143610080D01*
X147090307Y-143597467D01*
X147070602Y-143582853D01*
X147052423Y-143566377D01*
X147035947Y-143548198D01*
X147021333Y-143528493D01*
X147008720Y-143507449D01*
X146998230Y-143485271D01*
X146989965Y-143462171D01*
X146984004Y-143438373D01*
X146980404Y-143414104D01*
X146979200Y-143389600D01*
X146979200Y-140489600D01*
X146980404Y-140465096D01*
X146984004Y-140440827D01*
X146989965Y-140417029D01*
X146998230Y-140393929D01*
X147008720Y-140371751D01*
X147021333Y-140350707D01*
X147035947Y-140331002D01*
X147052423Y-140312823D01*
X147070602Y-140296347D01*
X147090307Y-140281733D01*
X147111351Y-140269120D01*
X147133529Y-140258630D01*
X147156629Y-140250365D01*
X147180427Y-140244404D01*
X147204696Y-140240804D01*
X147229200Y-140239600D01*
X148229200Y-140239600D01*
X148253704Y-140240804D01*
X148253704Y-140240804D01*
G37*
D11*
X147729200Y-141939600D03*
D10*
G36*
X154953704Y-140240804D02*
G01*
X154977973Y-140244404D01*
X155001771Y-140250365D01*
X155024871Y-140258630D01*
X155047049Y-140269120D01*
X155068093Y-140281733D01*
X155087798Y-140296347D01*
X155105977Y-140312823D01*
X155122453Y-140331002D01*
X155137067Y-140350707D01*
X155149680Y-140371751D01*
X155160170Y-140393929D01*
X155168435Y-140417029D01*
X155174396Y-140440827D01*
X155177996Y-140465096D01*
X155179200Y-140489600D01*
X155179200Y-143389600D01*
X155177996Y-143414104D01*
X155174396Y-143438373D01*
X155168435Y-143462171D01*
X155160170Y-143485271D01*
X155149680Y-143507449D01*
X155137067Y-143528493D01*
X155122453Y-143548198D01*
X155105977Y-143566377D01*
X155087798Y-143582853D01*
X155068093Y-143597467D01*
X155047049Y-143610080D01*
X155024871Y-143620570D01*
X155001771Y-143628835D01*
X154977973Y-143634796D01*
X154953704Y-143638396D01*
X154929200Y-143639600D01*
X153929200Y-143639600D01*
X153904696Y-143638396D01*
X153880427Y-143634796D01*
X153856629Y-143628835D01*
X153833529Y-143620570D01*
X153811351Y-143610080D01*
X153790307Y-143597467D01*
X153770602Y-143582853D01*
X153752423Y-143566377D01*
X153735947Y-143548198D01*
X153721333Y-143528493D01*
X153708720Y-143507449D01*
X153698230Y-143485271D01*
X153689965Y-143462171D01*
X153684004Y-143438373D01*
X153680404Y-143414104D01*
X153679200Y-143389600D01*
X153679200Y-140489600D01*
X153680404Y-140465096D01*
X153684004Y-140440827D01*
X153689965Y-140417029D01*
X153698230Y-140393929D01*
X153708720Y-140371751D01*
X153721333Y-140350707D01*
X153735947Y-140331002D01*
X153752423Y-140312823D01*
X153770602Y-140296347D01*
X153790307Y-140281733D01*
X153811351Y-140269120D01*
X153833529Y-140258630D01*
X153856629Y-140250365D01*
X153880427Y-140244404D01*
X153904696Y-140240804D01*
X153929200Y-140239600D01*
X154929200Y-140239600D01*
X154953704Y-140240804D01*
X154953704Y-140240804D01*
G37*
D11*
X154429200Y-141939600D03*
D10*
G36*
X159631304Y-134440804D02*
G01*
X159655573Y-134444404D01*
X159679371Y-134450365D01*
X159702471Y-134458630D01*
X159724649Y-134469120D01*
X159745693Y-134481733D01*
X159765398Y-134496347D01*
X159783577Y-134512823D01*
X159800053Y-134531002D01*
X159814667Y-134550707D01*
X159827280Y-134571751D01*
X159837770Y-134593929D01*
X159846035Y-134617029D01*
X159851996Y-134640827D01*
X159855596Y-134665096D01*
X159856800Y-134689600D01*
X159856800Y-137689600D01*
X159855596Y-137714104D01*
X159851996Y-137738373D01*
X159846035Y-137762171D01*
X159837770Y-137785271D01*
X159827280Y-137807449D01*
X159814667Y-137828493D01*
X159800053Y-137848198D01*
X159783577Y-137866377D01*
X159765398Y-137882853D01*
X159745693Y-137897467D01*
X159724649Y-137910080D01*
X159702471Y-137920570D01*
X159679371Y-137928835D01*
X159655573Y-137934796D01*
X159631304Y-137938396D01*
X159606800Y-137939600D01*
X159106800Y-137939600D01*
X159082296Y-137938396D01*
X159058027Y-137934796D01*
X159034229Y-137928835D01*
X159011129Y-137920570D01*
X158988951Y-137910080D01*
X158967907Y-137897467D01*
X158948202Y-137882853D01*
X158930023Y-137866377D01*
X158913547Y-137848198D01*
X158898933Y-137828493D01*
X158886320Y-137807449D01*
X158875830Y-137785271D01*
X158867565Y-137762171D01*
X158861604Y-137738373D01*
X158858004Y-137714104D01*
X158856800Y-137689600D01*
X158856800Y-134689600D01*
X158858004Y-134665096D01*
X158861604Y-134640827D01*
X158867565Y-134617029D01*
X158875830Y-134593929D01*
X158886320Y-134571751D01*
X158898933Y-134550707D01*
X158913547Y-134531002D01*
X158930023Y-134512823D01*
X158948202Y-134496347D01*
X158967907Y-134481733D01*
X158988951Y-134469120D01*
X159011129Y-134458630D01*
X159034229Y-134450365D01*
X159058027Y-134444404D01*
X159082296Y-134440804D01*
X159106800Y-134439600D01*
X159606800Y-134439600D01*
X159631304Y-134440804D01*
X159631304Y-134440804D01*
G37*
D12*
X159356800Y-136189600D03*
D10*
G36*
X161631304Y-134440804D02*
G01*
X161655573Y-134444404D01*
X161679371Y-134450365D01*
X161702471Y-134458630D01*
X161724649Y-134469120D01*
X161745693Y-134481733D01*
X161765398Y-134496347D01*
X161783577Y-134512823D01*
X161800053Y-134531002D01*
X161814667Y-134550707D01*
X161827280Y-134571751D01*
X161837770Y-134593929D01*
X161846035Y-134617029D01*
X161851996Y-134640827D01*
X161855596Y-134665096D01*
X161856800Y-134689600D01*
X161856800Y-137689600D01*
X161855596Y-137714104D01*
X161851996Y-137738373D01*
X161846035Y-137762171D01*
X161837770Y-137785271D01*
X161827280Y-137807449D01*
X161814667Y-137828493D01*
X161800053Y-137848198D01*
X161783577Y-137866377D01*
X161765398Y-137882853D01*
X161745693Y-137897467D01*
X161724649Y-137910080D01*
X161702471Y-137920570D01*
X161679371Y-137928835D01*
X161655573Y-137934796D01*
X161631304Y-137938396D01*
X161606800Y-137939600D01*
X161106800Y-137939600D01*
X161082296Y-137938396D01*
X161058027Y-137934796D01*
X161034229Y-137928835D01*
X161011129Y-137920570D01*
X160988951Y-137910080D01*
X160967907Y-137897467D01*
X160948202Y-137882853D01*
X160930023Y-137866377D01*
X160913547Y-137848198D01*
X160898933Y-137828493D01*
X160886320Y-137807449D01*
X160875830Y-137785271D01*
X160867565Y-137762171D01*
X160861604Y-137738373D01*
X160858004Y-137714104D01*
X160856800Y-137689600D01*
X160856800Y-134689600D01*
X160858004Y-134665096D01*
X160861604Y-134640827D01*
X160867565Y-134617029D01*
X160875830Y-134593929D01*
X160886320Y-134571751D01*
X160898933Y-134550707D01*
X160913547Y-134531002D01*
X160930023Y-134512823D01*
X160948202Y-134496347D01*
X160967907Y-134481733D01*
X160988951Y-134469120D01*
X161011129Y-134458630D01*
X161034229Y-134450365D01*
X161058027Y-134444404D01*
X161082296Y-134440804D01*
X161106800Y-134439600D01*
X161606800Y-134439600D01*
X161631304Y-134440804D01*
X161631304Y-134440804D01*
G37*
D12*
X161356800Y-136189600D03*
D10*
G36*
X163631304Y-134440804D02*
G01*
X163655573Y-134444404D01*
X163679371Y-134450365D01*
X163702471Y-134458630D01*
X163724649Y-134469120D01*
X163745693Y-134481733D01*
X163765398Y-134496347D01*
X163783577Y-134512823D01*
X163800053Y-134531002D01*
X163814667Y-134550707D01*
X163827280Y-134571751D01*
X163837770Y-134593929D01*
X163846035Y-134617029D01*
X163851996Y-134640827D01*
X163855596Y-134665096D01*
X163856800Y-134689600D01*
X163856800Y-137689600D01*
X163855596Y-137714104D01*
X163851996Y-137738373D01*
X163846035Y-137762171D01*
X163837770Y-137785271D01*
X163827280Y-137807449D01*
X163814667Y-137828493D01*
X163800053Y-137848198D01*
X163783577Y-137866377D01*
X163765398Y-137882853D01*
X163745693Y-137897467D01*
X163724649Y-137910080D01*
X163702471Y-137920570D01*
X163679371Y-137928835D01*
X163655573Y-137934796D01*
X163631304Y-137938396D01*
X163606800Y-137939600D01*
X163106800Y-137939600D01*
X163082296Y-137938396D01*
X163058027Y-137934796D01*
X163034229Y-137928835D01*
X163011129Y-137920570D01*
X162988951Y-137910080D01*
X162967907Y-137897467D01*
X162948202Y-137882853D01*
X162930023Y-137866377D01*
X162913547Y-137848198D01*
X162898933Y-137828493D01*
X162886320Y-137807449D01*
X162875830Y-137785271D01*
X162867565Y-137762171D01*
X162861604Y-137738373D01*
X162858004Y-137714104D01*
X162856800Y-137689600D01*
X162856800Y-134689600D01*
X162858004Y-134665096D01*
X162861604Y-134640827D01*
X162867565Y-134617029D01*
X162875830Y-134593929D01*
X162886320Y-134571751D01*
X162898933Y-134550707D01*
X162913547Y-134531002D01*
X162930023Y-134512823D01*
X162948202Y-134496347D01*
X162967907Y-134481733D01*
X162988951Y-134469120D01*
X163011129Y-134458630D01*
X163034229Y-134450365D01*
X163058027Y-134444404D01*
X163082296Y-134440804D01*
X163106800Y-134439600D01*
X163606800Y-134439600D01*
X163631304Y-134440804D01*
X163631304Y-134440804D01*
G37*
D12*
X163356800Y-136189600D03*
D10*
G36*
X165631304Y-134440804D02*
G01*
X165655573Y-134444404D01*
X165679371Y-134450365D01*
X165702471Y-134458630D01*
X165724649Y-134469120D01*
X165745693Y-134481733D01*
X165765398Y-134496347D01*
X165783577Y-134512823D01*
X165800053Y-134531002D01*
X165814667Y-134550707D01*
X165827280Y-134571751D01*
X165837770Y-134593929D01*
X165846035Y-134617029D01*
X165851996Y-134640827D01*
X165855596Y-134665096D01*
X165856800Y-134689600D01*
X165856800Y-137689600D01*
X165855596Y-137714104D01*
X165851996Y-137738373D01*
X165846035Y-137762171D01*
X165837770Y-137785271D01*
X165827280Y-137807449D01*
X165814667Y-137828493D01*
X165800053Y-137848198D01*
X165783577Y-137866377D01*
X165765398Y-137882853D01*
X165745693Y-137897467D01*
X165724649Y-137910080D01*
X165702471Y-137920570D01*
X165679371Y-137928835D01*
X165655573Y-137934796D01*
X165631304Y-137938396D01*
X165606800Y-137939600D01*
X165106800Y-137939600D01*
X165082296Y-137938396D01*
X165058027Y-137934796D01*
X165034229Y-137928835D01*
X165011129Y-137920570D01*
X164988951Y-137910080D01*
X164967907Y-137897467D01*
X164948202Y-137882853D01*
X164930023Y-137866377D01*
X164913547Y-137848198D01*
X164898933Y-137828493D01*
X164886320Y-137807449D01*
X164875830Y-137785271D01*
X164867565Y-137762171D01*
X164861604Y-137738373D01*
X164858004Y-137714104D01*
X164856800Y-137689600D01*
X164856800Y-134689600D01*
X164858004Y-134665096D01*
X164861604Y-134640827D01*
X164867565Y-134617029D01*
X164875830Y-134593929D01*
X164886320Y-134571751D01*
X164898933Y-134550707D01*
X164913547Y-134531002D01*
X164930023Y-134512823D01*
X164948202Y-134496347D01*
X164967907Y-134481733D01*
X164988951Y-134469120D01*
X165011129Y-134458630D01*
X165034229Y-134450365D01*
X165058027Y-134444404D01*
X165082296Y-134440804D01*
X165106800Y-134439600D01*
X165606800Y-134439600D01*
X165631304Y-134440804D01*
X165631304Y-134440804D01*
G37*
D12*
X165356800Y-136189600D03*
D10*
G36*
X157531304Y-140240804D02*
G01*
X157555573Y-140244404D01*
X157579371Y-140250365D01*
X157602471Y-140258630D01*
X157624649Y-140269120D01*
X157645693Y-140281733D01*
X157665398Y-140296347D01*
X157683577Y-140312823D01*
X157700053Y-140331002D01*
X157714667Y-140350707D01*
X157727280Y-140371751D01*
X157737770Y-140393929D01*
X157746035Y-140417029D01*
X157751996Y-140440827D01*
X157755596Y-140465096D01*
X157756800Y-140489600D01*
X157756800Y-143389600D01*
X157755596Y-143414104D01*
X157751996Y-143438373D01*
X157746035Y-143462171D01*
X157737770Y-143485271D01*
X157727280Y-143507449D01*
X157714667Y-143528493D01*
X157700053Y-143548198D01*
X157683577Y-143566377D01*
X157665398Y-143582853D01*
X157645693Y-143597467D01*
X157624649Y-143610080D01*
X157602471Y-143620570D01*
X157579371Y-143628835D01*
X157555573Y-143634796D01*
X157531304Y-143638396D01*
X157506800Y-143639600D01*
X156506800Y-143639600D01*
X156482296Y-143638396D01*
X156458027Y-143634796D01*
X156434229Y-143628835D01*
X156411129Y-143620570D01*
X156388951Y-143610080D01*
X156367907Y-143597467D01*
X156348202Y-143582853D01*
X156330023Y-143566377D01*
X156313547Y-143548198D01*
X156298933Y-143528493D01*
X156286320Y-143507449D01*
X156275830Y-143485271D01*
X156267565Y-143462171D01*
X156261604Y-143438373D01*
X156258004Y-143414104D01*
X156256800Y-143389600D01*
X156256800Y-140489600D01*
X156258004Y-140465096D01*
X156261604Y-140440827D01*
X156267565Y-140417029D01*
X156275830Y-140393929D01*
X156286320Y-140371751D01*
X156298933Y-140350707D01*
X156313547Y-140331002D01*
X156330023Y-140312823D01*
X156348202Y-140296347D01*
X156367907Y-140281733D01*
X156388951Y-140269120D01*
X156411129Y-140258630D01*
X156434229Y-140250365D01*
X156458027Y-140244404D01*
X156482296Y-140240804D01*
X156506800Y-140239600D01*
X157506800Y-140239600D01*
X157531304Y-140240804D01*
X157531304Y-140240804D01*
G37*
D11*
X157006800Y-141939600D03*
D10*
G36*
X168231304Y-140240804D02*
G01*
X168255573Y-140244404D01*
X168279371Y-140250365D01*
X168302471Y-140258630D01*
X168324649Y-140269120D01*
X168345693Y-140281733D01*
X168365398Y-140296347D01*
X168383577Y-140312823D01*
X168400053Y-140331002D01*
X168414667Y-140350707D01*
X168427280Y-140371751D01*
X168437770Y-140393929D01*
X168446035Y-140417029D01*
X168451996Y-140440827D01*
X168455596Y-140465096D01*
X168456800Y-140489600D01*
X168456800Y-143389600D01*
X168455596Y-143414104D01*
X168451996Y-143438373D01*
X168446035Y-143462171D01*
X168437770Y-143485271D01*
X168427280Y-143507449D01*
X168414667Y-143528493D01*
X168400053Y-143548198D01*
X168383577Y-143566377D01*
X168365398Y-143582853D01*
X168345693Y-143597467D01*
X168324649Y-143610080D01*
X168302471Y-143620570D01*
X168279371Y-143628835D01*
X168255573Y-143634796D01*
X168231304Y-143638396D01*
X168206800Y-143639600D01*
X167206800Y-143639600D01*
X167182296Y-143638396D01*
X167158027Y-143634796D01*
X167134229Y-143628835D01*
X167111129Y-143620570D01*
X167088951Y-143610080D01*
X167067907Y-143597467D01*
X167048202Y-143582853D01*
X167030023Y-143566377D01*
X167013547Y-143548198D01*
X166998933Y-143528493D01*
X166986320Y-143507449D01*
X166975830Y-143485271D01*
X166967565Y-143462171D01*
X166961604Y-143438373D01*
X166958004Y-143414104D01*
X166956800Y-143389600D01*
X166956800Y-140489600D01*
X166958004Y-140465096D01*
X166961604Y-140440827D01*
X166967565Y-140417029D01*
X166975830Y-140393929D01*
X166986320Y-140371751D01*
X166998933Y-140350707D01*
X167013547Y-140331002D01*
X167030023Y-140312823D01*
X167048202Y-140296347D01*
X167067907Y-140281733D01*
X167088951Y-140269120D01*
X167111129Y-140258630D01*
X167134229Y-140250365D01*
X167158027Y-140244404D01*
X167182296Y-140240804D01*
X167206800Y-140239600D01*
X168206800Y-140239600D01*
X168231304Y-140240804D01*
X168231304Y-140240804D01*
G37*
D11*
X167706800Y-141939600D03*
D22*
X147574000Y-133096000D03*
X166624000Y-125222000D03*
X164541200Y-125222000D03*
D23*
X164033200Y-122555000D03*
D22*
X168656000Y-131572000D03*
D23*
X164084000Y-102743000D03*
D22*
X166370000Y-100584000D03*
X166370000Y-102616000D03*
X164846000Y-107950000D03*
X166370000Y-104902000D03*
X164846000Y-110490000D03*
X153924000Y-94742000D03*
X167386000Y-107950000D03*
X162306000Y-107950000D03*
X159766000Y-95250000D03*
X167386000Y-95250000D03*
X169926000Y-95250000D03*
X162306000Y-110490000D03*
X159766000Y-97790000D03*
X162306000Y-97790000D03*
X164846000Y-97790000D03*
X167386000Y-97790000D03*
X174498000Y-115824000D03*
X174498000Y-118110000D03*
X171958000Y-113411000D03*
X171196000Y-108458000D03*
X174498000Y-121412000D03*
X159766000Y-102616000D03*
X159766000Y-105410000D03*
X160401000Y-107950000D03*
X160401000Y-110490000D03*
X181102000Y-94996000D03*
X147574000Y-94996000D03*
X181102000Y-97536000D03*
X147574000Y-97536000D03*
X181102000Y-100076000D03*
X147574000Y-100076000D03*
X181102000Y-102616000D03*
X147574000Y-102616000D03*
X181102000Y-105156000D03*
X147574000Y-105156000D03*
X181102000Y-107696000D03*
X147574000Y-107696000D03*
X181102000Y-110236000D03*
X147574000Y-110236000D03*
X181102000Y-112776000D03*
X147574000Y-112776000D03*
X181102000Y-115316000D03*
X147574000Y-115316000D03*
X181102000Y-117856000D03*
X147574000Y-117856000D03*
X181102000Y-120396000D03*
X147574000Y-120396000D03*
X181102000Y-122936000D03*
X147574000Y-122936000D03*
X181102000Y-125476000D03*
X147574000Y-125476000D03*
X181102000Y-128016000D03*
X147574000Y-128016000D03*
X181102000Y-130556000D03*
X147574000Y-130556000D03*
X181102000Y-135763000D03*
X147574000Y-135763000D03*
X147574000Y-138303000D03*
X173482000Y-142875000D03*
X176022000Y-142875000D03*
X178562000Y-142875000D03*
X150114000Y-142875000D03*
X152654000Y-142875000D03*
X160274000Y-142875000D03*
X162814000Y-142875000D03*
X165354000Y-142875000D03*
X172212000Y-95250000D03*
X174752000Y-95250000D03*
X177292000Y-95250000D03*
X157226000Y-95250000D03*
X157226000Y-95250000D03*
X150876000Y-99060000D03*
X181102000Y-133096000D03*
X176276000Y-127508000D03*
X152298400Y-127152400D03*
X170789600Y-132537200D03*
X166624000Y-129540000D03*
X166624000Y-127508000D03*
X170688000Y-129540000D03*
X172720000Y-127508000D03*
X168656000Y-129540000D03*
X166624000Y-127508000D03*
X170789600Y-134670800D03*
X168910000Y-133731000D03*
X165100000Y-95250000D03*
X162560000Y-95250000D03*
X155498800Y-128600200D03*
X151638000Y-100076000D03*
X153416000Y-99568000D03*
X152400000Y-101092000D03*
X151384000Y-101092000D03*
X150876000Y-96266000D03*
X154940000Y-114046000D03*
X168656000Y-127508000D03*
X170688000Y-127508000D03*
X168656000Y-125222000D03*
X172720000Y-125222000D03*
X164084000Y-104902000D03*
X164084000Y-100584000D03*
X161798000Y-102616000D03*
X161798000Y-104902000D03*
X161798000Y-100584000D03*
X155498800Y-131267200D03*
X181102000Y-138303000D03*
X172720000Y-129540000D03*
X169291000Y-110490000D03*
X169291000Y-107950000D03*
X168910000Y-104902000D03*
X168910000Y-102616000D03*
X168910000Y-100584000D03*
X170180000Y-120142000D03*
X176276000Y-125222000D03*
X169418000Y-116840000D03*
X167132000Y-118872000D03*
X172720000Y-118110000D03*
X161290000Y-125222000D03*
X154432000Y-122936000D03*
X152654000Y-140868400D03*
X152908000Y-130810000D03*
X162814000Y-140843000D03*
X176022000Y-140944600D03*
X176022000Y-138658600D03*
X176022000Y-123444000D03*
X168910000Y-106553000D03*
X154432000Y-120904000D03*
X153035000Y-124206000D03*
X155956000Y-112903000D03*
X174244000Y-114046000D03*
X175514000Y-102362000D03*
X176530000Y-103505000D03*
X171196000Y-102616000D03*
X164084000Y-106680000D03*
X167386000Y-110490000D03*
X156464000Y-119126000D03*
X167132000Y-115062000D03*
X171196000Y-110490000D03*
X166624000Y-122936000D03*
X168656000Y-122936000D03*
X166573200Y-121056400D03*
X170789600Y-122936000D03*
X170738800Y-125222000D03*
X172720000Y-120192800D03*
X172669200Y-122885200D03*
X161290000Y-122732800D03*
X164236400Y-119532400D03*
X152247600Y-129387600D03*
X154533600Y-124764800D03*
X153974800Y-126034800D03*
X162407600Y-121005600D03*
X164388800Y-114960400D03*
X150114000Y-140868400D03*
X160274000Y-140843000D03*
X165354000Y-140843000D03*
X178562000Y-140944600D03*
X173482000Y-140944600D03*
X150114000Y-138582400D03*
X178562000Y-138658600D03*
X152654000Y-138582400D03*
X157226000Y-132892800D03*
X158089600Y-139090400D03*
X154228800Y-135331200D03*
X157632400Y-128930400D03*
X157480000Y-130810000D03*
X157124400Y-126492000D03*
X173482000Y-138684000D03*
X171297600Y-139293600D03*
X170129200Y-130911600D03*
X153517600Y-132588000D03*
X157886400Y-134721600D03*
X148742400Y-134366000D03*
X178663600Y-131876800D03*
X148945600Y-139750800D03*
X179730400Y-139649200D03*
X167030400Y-132892800D03*
X166827200Y-131216400D03*
X159715200Y-126238000D03*
X172669200Y-132537200D03*
X167081200Y-135432800D03*
X167081200Y-137261600D03*
X169164000Y-137515600D03*
X169011600Y-135636000D03*
X158546800Y-141935200D03*
X159562800Y-130810000D03*
X159562800Y-132994400D03*
X157226000Y-97790000D03*
X161899600Y-117144800D03*
X157226000Y-106680000D03*
X157226000Y-105410000D03*
X157226000Y-104140000D03*
X157226000Y-100330000D03*
X157226000Y-99060000D03*
X171196000Y-98806000D03*
X174650400Y-126441200D03*
X171196000Y-100076000D03*
X176377600Y-129743200D03*
X171196000Y-101346000D03*
X171196000Y-103886000D03*
X171196000Y-105156000D03*
X171196000Y-106426000D03*
D24*
X155313000Y-96363000D02*
X155330000Y-96380000D01*
X152654000Y-96363000D02*
X155313000Y-96363000D01*
X151227000Y-97790000D02*
X149606000Y-97790000D01*
X152654000Y-96363000D02*
X152654000Y-98122500D01*
X151559500Y-98122500D02*
X152654000Y-98122500D01*
X151227000Y-97790000D02*
X151559500Y-98122500D01*
X158326001Y-97261999D02*
X158326001Y-110405999D01*
X157514011Y-96450009D02*
X158326001Y-97261999D01*
X155400009Y-96450009D02*
X157514011Y-96450009D01*
X155330000Y-96380000D02*
X155400009Y-96450009D01*
X158326001Y-110405999D02*
X157353000Y-111379000D01*
X162714963Y-115244663D02*
X163271200Y-115800900D01*
X162616699Y-115146399D02*
X162714963Y-115244663D01*
X158225040Y-115146399D02*
X162616699Y-115146399D01*
X157353000Y-114274359D02*
X158225040Y-115146399D01*
X157353000Y-111379000D02*
X157353000Y-114274359D01*
X154874010Y-119496790D02*
X156283200Y-120905980D01*
X155386799Y-115146399D02*
X154874010Y-115659188D01*
X154874010Y-115659188D02*
X154874010Y-119496790D01*
X156430401Y-115146399D02*
X155386799Y-115146399D01*
X157302441Y-114274359D02*
X156430401Y-115146399D01*
X157353000Y-114274359D02*
X157302441Y-114274359D01*
X156283200Y-120905980D02*
X156283200Y-123698000D01*
X151028400Y-133390400D02*
X150079200Y-134339600D01*
X151028400Y-128978798D02*
X151028400Y-133390400D01*
X151719599Y-128287599D02*
X151028400Y-128978798D01*
X153350003Y-128287599D02*
X151719599Y-128287599D01*
X156283200Y-125354402D02*
X153350003Y-128287599D01*
X156283200Y-123698000D02*
X156283200Y-125354402D01*
X158756800Y-136189600D02*
X159356800Y-136189600D01*
X157269198Y-136189600D02*
X158756800Y-136189600D01*
X154819188Y-133739590D02*
X157269198Y-136189600D01*
X150679210Y-133739590D02*
X154819188Y-133739590D01*
X150079200Y-134339600D02*
X150679210Y-133739590D01*
X150079200Y-136189600D02*
X150079200Y-134339600D01*
X172047690Y-136760310D02*
X172618400Y-136189600D01*
X169514400Y-139293600D02*
X172047690Y-136760310D01*
X160610800Y-139293600D02*
X169514400Y-139293600D01*
X159356800Y-138039600D02*
X160610800Y-139293600D01*
X159356800Y-136189600D02*
X159356800Y-138039600D01*
X177025000Y-95110000D02*
X177165000Y-95250000D01*
X173330000Y-95110000D02*
X177025000Y-95110000D01*
X154708000Y-94488000D02*
X155330000Y-95110000D01*
X152654000Y-94488000D02*
X154708000Y-94488000D01*
X157086000Y-95110000D02*
X157226000Y-95250000D01*
X155330000Y-95110000D02*
X157086000Y-95110000D01*
X152654000Y-99997500D02*
X152321500Y-99997500D01*
X178295000Y-95110000D02*
X178435000Y-95250000D01*
X173330000Y-95110000D02*
X178295000Y-95110000D01*
X152654000Y-99997500D02*
X152067500Y-99997500D01*
X152067500Y-99997500D02*
X151384000Y-99314000D01*
X160470000Y-95250000D02*
X164030000Y-98810000D01*
X157226000Y-95250000D02*
X160470000Y-95250000D01*
X164030000Y-98810000D02*
X164030000Y-102810000D01*
X167610010Y-95229990D02*
X164030000Y-98810000D01*
X172486010Y-95229990D02*
X167610010Y-95229990D01*
X172606000Y-95110000D02*
X172486010Y-95229990D01*
X173330000Y-95110000D02*
X172606000Y-95110000D01*
X164030000Y-102810000D02*
X164030000Y-102810000D01*
X151813500Y-100838000D02*
X152654000Y-99997500D01*
X151384000Y-100838000D02*
X151813500Y-100838000D01*
X151062440Y-99322510D02*
X150837965Y-99098035D01*
X151384000Y-100838000D02*
X151384000Y-99644070D01*
X151384000Y-99644070D02*
X151062440Y-99322510D01*
X153083500Y-99568000D02*
X152654000Y-99997500D01*
X153416000Y-99568000D02*
X153083500Y-99568000D01*
X147828000Y-95250000D02*
X147574000Y-94996000D01*
X149606000Y-95250000D02*
X147828000Y-95250000D01*
X149606000Y-95250000D02*
X149606000Y-95504000D01*
X149606000Y-95250000D02*
X149860000Y-95250000D01*
X149860000Y-95250000D02*
X150876000Y-96266000D01*
X150876000Y-95250000D02*
X150876000Y-96266000D01*
X151638000Y-94488000D02*
X150876000Y-95250000D01*
X152654000Y-94488000D02*
X151638000Y-94488000D01*
X153670000Y-94996000D02*
X153924000Y-94742000D01*
X147574000Y-94996000D02*
X153670000Y-94996000D01*
X148717000Y-96139000D02*
X148717000Y-96393000D01*
X147574000Y-94996000D02*
X148717000Y-96139000D01*
X149606000Y-95504000D02*
X148717000Y-96393000D01*
X148717000Y-96393000D02*
X147574000Y-97536000D01*
D25*
X148495001Y-101694999D02*
X150527001Y-101694999D01*
X147574000Y-102616000D02*
X148495001Y-101694999D01*
D24*
X151156001Y-102335999D02*
X151156001Y-102497715D01*
X152400000Y-101092000D02*
X151156001Y-102335999D01*
D25*
X150876000Y-103308046D02*
X151222023Y-102962023D01*
X150139045Y-104045001D02*
X150876000Y-103308046D01*
X148684999Y-104045001D02*
X150139045Y-104045001D01*
X147574000Y-105156000D02*
X148684999Y-104045001D01*
X177292000Y-95250000D02*
X176276000Y-94234000D01*
X176276000Y-94234000D02*
X171704000Y-94234000D01*
D24*
X176726315Y-95250000D02*
X175964315Y-94488000D01*
X177292000Y-95250000D02*
X176726315Y-95250000D01*
X175964315Y-94488000D02*
X171450000Y-94488000D01*
X178593809Y-95250000D02*
X178695534Y-95351725D01*
X177292000Y-95250000D02*
X178593809Y-95250000D01*
D26*
X150527001Y-101706999D02*
X151156001Y-102335999D01*
X150527001Y-101694999D02*
X150527001Y-101706999D01*
X151797001Y-101694999D02*
X152400000Y-101092000D01*
X150527001Y-101694999D02*
X151797001Y-101694999D01*
X151275999Y-99459999D02*
X150876000Y-99060000D01*
X151275999Y-100584003D02*
X151275999Y-99459999D01*
X150527001Y-101333001D02*
X151275999Y-100584003D01*
X150527001Y-101694999D02*
X150527001Y-101333001D01*
X150781001Y-101694999D02*
X151384000Y-101092000D01*
X150527001Y-101694999D02*
X150781001Y-101694999D01*
D25*
X180702001Y-105555999D02*
X181102000Y-105156000D01*
X179672999Y-106585001D02*
X180702001Y-105555999D01*
X178251999Y-106585001D02*
X179672999Y-106585001D01*
X176929999Y-105263001D02*
X178251999Y-106585001D01*
X176929999Y-103904999D02*
X176929999Y-105263001D01*
X176530000Y-103505000D02*
X176929999Y-103904999D01*
X180702001Y-109836001D02*
X181102000Y-110236000D01*
X180155589Y-109289589D02*
X180702001Y-109836001D01*
X178416587Y-109289589D02*
X180155589Y-109289589D01*
X176530000Y-107403002D02*
X178416587Y-109289589D01*
X176530000Y-103505000D02*
X176530000Y-107403002D01*
X176530000Y-104070685D02*
X176599315Y-104140000D01*
X176530000Y-103505000D02*
X176530000Y-104070685D01*
D24*
X176565989Y-104503506D02*
X176766241Y-104703758D01*
X176565989Y-103667989D02*
X176565989Y-104503506D01*
X176530000Y-103505000D02*
X176530000Y-103632000D01*
X176530000Y-103632000D02*
X176565989Y-103667989D01*
X168910000Y-102616000D02*
X166370000Y-102616000D01*
X159766000Y-102616000D02*
X161798000Y-102616000D01*
X164084000Y-106680000D02*
X164084000Y-104902000D01*
X149379918Y-96239999D02*
X149592818Y-95973031D01*
X150350001Y-96239999D02*
X149379918Y-96239999D01*
X153924000Y-94742000D02*
X151848000Y-94742000D01*
X151848000Y-94742000D02*
X150350001Y-96239999D01*
X154323999Y-94342001D02*
X157969001Y-94342001D01*
X153924000Y-94742000D02*
X154323999Y-94342001D01*
D26*
X165709600Y-115800900D02*
X165935900Y-115800900D01*
X166393100Y-115800900D02*
X167132000Y-115062000D01*
X165709600Y-115800900D02*
X166393100Y-115800900D01*
X167132000Y-115062000D02*
X167132000Y-118872000D01*
D24*
X164566980Y-115062000D02*
X164564990Y-115060010D01*
X167132000Y-115062000D02*
X164566980Y-115062000D01*
D26*
X157086000Y-97650000D02*
X157226000Y-97790000D01*
X155330000Y-97650000D02*
X157086000Y-97650000D01*
X165709600Y-117675900D02*
X163271200Y-117675900D01*
X160621800Y-116171400D02*
X156471800Y-116171400D01*
X160926200Y-116171400D02*
X161899600Y-117144800D01*
X160621800Y-116171400D02*
X160926200Y-116171400D01*
X162740100Y-117144800D02*
X163271200Y-117675900D01*
X161899600Y-117144800D02*
X162740100Y-117144800D01*
X153580000Y-110350000D02*
X153162000Y-110768000D01*
X155330000Y-110350000D02*
X153580000Y-110350000D01*
X153162000Y-110768000D02*
X153162000Y-116462020D01*
X153162000Y-116462020D02*
X152530020Y-117094000D01*
X152530020Y-121255943D02*
X151357962Y-122428000D01*
X152530020Y-117094000D02*
X152530020Y-121255943D01*
X151357962Y-123978038D02*
X149606000Y-125730000D01*
X151357962Y-122428000D02*
X151357962Y-123978038D01*
X153580000Y-109080000D02*
X152146000Y-110514000D01*
X155330000Y-109080000D02*
X153580000Y-109080000D01*
X152146000Y-110514000D02*
X152146000Y-116332000D01*
X150455999Y-122340001D02*
X149606000Y-123190000D01*
X151830010Y-120965990D02*
X150455999Y-122340001D01*
X151830010Y-116647990D02*
X151830010Y-120965990D01*
X152146000Y-116332000D02*
X151830010Y-116647990D01*
X155330000Y-107810000D02*
X153580000Y-107810000D01*
X153580000Y-107810000D02*
X151130000Y-110260000D01*
X150455999Y-119800001D02*
X149606000Y-120650000D01*
X151130000Y-110260000D02*
X151130000Y-118110000D01*
X151130000Y-118110000D02*
X150906001Y-118333999D01*
X150906001Y-118333999D02*
X150906001Y-119349999D01*
X150906001Y-119349999D02*
X150455999Y-119800001D01*
X155330000Y-106540000D02*
X157086000Y-106540000D01*
X157086000Y-106540000D02*
X157226000Y-106680000D01*
X161356800Y-128279400D02*
X161391600Y-128244600D01*
X161356800Y-136189600D02*
X161356800Y-128279400D01*
X155330000Y-105270000D02*
X157086000Y-105270000D01*
X157086000Y-105270000D02*
X157226000Y-105410000D01*
X163356800Y-128311400D02*
X163423600Y-128244600D01*
X163356800Y-136189600D02*
X163356800Y-128311400D01*
X155330000Y-104000000D02*
X157086000Y-104000000D01*
X157086000Y-104000000D02*
X157226000Y-104140000D01*
X150455999Y-109640001D02*
X149606000Y-110490000D01*
X153133202Y-106397202D02*
X150455999Y-109640001D01*
X153266597Y-103990597D02*
X153133202Y-106397202D01*
X155330000Y-102730000D02*
X154527194Y-102730000D01*
X154527194Y-102730000D02*
X153266597Y-103990597D01*
X154527194Y-101460000D02*
X152400000Y-103587194D01*
X155330000Y-101460000D02*
X154527194Y-101460000D01*
X152400000Y-105156000D02*
X149606000Y-107950000D01*
X152400000Y-103587194D02*
X152400000Y-105156000D01*
D25*
X155330000Y-100190000D02*
X157086000Y-100190000D01*
X157086000Y-100190000D02*
X157226000Y-100330000D01*
D26*
X154527194Y-100190000D02*
X155330000Y-100190000D01*
X153629990Y-101087204D02*
X154527194Y-100190000D01*
X153629990Y-101367242D02*
X153629990Y-101087204D01*
X150455999Y-104541233D02*
X153629990Y-101367242D01*
X150455999Y-104560001D02*
X150455999Y-104541233D01*
X149606000Y-105410000D02*
X150455999Y-104560001D01*
X157086000Y-98920000D02*
X157226000Y-99060000D01*
X155330000Y-98920000D02*
X157086000Y-98920000D01*
D25*
X173330000Y-96380000D02*
X172530000Y-96380000D01*
D26*
X177025000Y-96380000D02*
X178435000Y-97790000D01*
X173330000Y-96380000D02*
X177025000Y-96380000D01*
D25*
X173330000Y-97650000D02*
X172530000Y-97650000D01*
X173330000Y-97650000D02*
X174485000Y-97650000D01*
D26*
X175755000Y-97650000D02*
X178435000Y-100330000D01*
X173330000Y-97650000D02*
X175755000Y-97650000D01*
D25*
X173330000Y-98920000D02*
X172530000Y-98920000D01*
D26*
X173330000Y-98920000D02*
X171310000Y-98920000D01*
X171310000Y-98920000D02*
X171196000Y-98806000D01*
X177966001Y-102020001D02*
X178816000Y-102870000D01*
X177515999Y-101569999D02*
X177966001Y-102020001D01*
X177515999Y-100400961D02*
X177515999Y-101569999D01*
X176035038Y-98920000D02*
X177515999Y-100400961D01*
X173330000Y-98920000D02*
X176035038Y-98920000D01*
X174650400Y-126441200D02*
X174650400Y-136157600D01*
D25*
X173330000Y-100190000D02*
X172530000Y-100190000D01*
X173330000Y-100190000D02*
X174130000Y-100190000D01*
X173330000Y-100190000D02*
X173956029Y-100190000D01*
D26*
X173330000Y-100190000D02*
X174132806Y-100190000D01*
X173330000Y-100190000D02*
X171310000Y-100190000D01*
X171310000Y-100190000D02*
X171196000Y-100076000D01*
X177515999Y-104109999D02*
X178816000Y-105410000D01*
X177515999Y-102559962D02*
X177515999Y-104109999D01*
X176815989Y-101859952D02*
X177515999Y-102559962D01*
X176815989Y-100690913D02*
X176815989Y-101859952D01*
X173330000Y-100190000D02*
X176315076Y-100190000D01*
X176315076Y-100190000D02*
X176815989Y-100690913D01*
X176377600Y-135948800D02*
X176618400Y-136189600D01*
X176377600Y-129743200D02*
X176377600Y-135948800D01*
D25*
X173330000Y-101460000D02*
X174130000Y-101460000D01*
D26*
X173330000Y-101460000D02*
X171310000Y-101460000D01*
X171310000Y-101460000D02*
X171196000Y-101346000D01*
D25*
X173330000Y-102730000D02*
X174130000Y-102730000D01*
X173330000Y-102730000D02*
X172530000Y-102730000D01*
X178790011Y-109739599D02*
X178790011Y-110490000D01*
D26*
X177585001Y-109640001D02*
X178435000Y-110490000D01*
X175260000Y-107315000D02*
X177585001Y-109640001D01*
X175260000Y-103857194D02*
X175260000Y-107315000D01*
X174132806Y-102730000D02*
X175260000Y-103857194D01*
X173330000Y-102730000D02*
X174132806Y-102730000D01*
X173330000Y-104000000D02*
X171310000Y-104000000D01*
X171310000Y-104000000D02*
X171196000Y-103886000D01*
D25*
X173330000Y-105270000D02*
X174130000Y-105270000D01*
D26*
X173330000Y-105270000D02*
X171310000Y-105270000D01*
X171310000Y-105270000D02*
X171196000Y-105156000D01*
X173330000Y-106540000D02*
X171310000Y-106540000D01*
X171310000Y-106540000D02*
X171196000Y-106426000D01*
D25*
X173330000Y-107810000D02*
X174130000Y-107810000D01*
D26*
X174132806Y-107810000D02*
X177038000Y-110715194D01*
X173330000Y-107810000D02*
X174132806Y-107810000D01*
X177038000Y-118872000D02*
X178816000Y-120650000D01*
X177038000Y-110715194D02*
X177038000Y-118872000D01*
X174132806Y-109080000D02*
X176276000Y-111223194D01*
X173330000Y-109080000D02*
X174132806Y-109080000D01*
X176276000Y-116586000D02*
X176337990Y-116647990D01*
X176276000Y-111223194D02*
X176276000Y-116586000D01*
X176337990Y-119161953D02*
X177064038Y-119888000D01*
X176337990Y-116647990D02*
X176337990Y-119161953D01*
X177064038Y-121438038D02*
X178816000Y-123190000D01*
X177064038Y-119888000D02*
X177064038Y-121438038D01*
X177966001Y-124880001D02*
X178816000Y-125730000D01*
X177380001Y-124294001D02*
X177966001Y-124880001D01*
X177380001Y-122743963D02*
X177380001Y-124294001D01*
X173330000Y-110350000D02*
X174132806Y-110350000D01*
X174132806Y-110350000D02*
X175514000Y-111731194D01*
X175514000Y-111731194D02*
X175514000Y-119327926D01*
X175514000Y-119327926D02*
X176364028Y-120177954D01*
X176364028Y-120177954D02*
X176364028Y-121727991D01*
X176364028Y-121727991D02*
X177380001Y-122743963D01*
X173330000Y-111620000D02*
X173330000Y-113976000D01*
X172356600Y-114949400D02*
X172356600Y-116120600D01*
X173330000Y-113976000D02*
X172356600Y-114949400D01*
X168406600Y-116120600D02*
X168206600Y-116120600D01*
X169231600Y-115295600D02*
X168406600Y-116120600D01*
X170506600Y-115295600D02*
X169231600Y-115295600D01*
X171331600Y-116120600D02*
X170506600Y-115295600D01*
X172356600Y-116120600D02*
X171331600Y-116120600D01*
X172356600Y-116488598D02*
X173647999Y-117779997D01*
X172356600Y-116120600D02*
X172356600Y-116488598D01*
X177966001Y-127420001D02*
X178816000Y-128270000D01*
X176936400Y-126390400D02*
X177966001Y-127420001D01*
X176186398Y-126390400D02*
X176936400Y-126390400D01*
X175171999Y-125376001D02*
X176186398Y-126390400D01*
X175171999Y-123086018D02*
X175171999Y-125376001D01*
X175664018Y-122593999D02*
X175171999Y-123086018D01*
X175664018Y-121320016D02*
X175664018Y-122593999D01*
X173647999Y-119303997D02*
X175664018Y-121320016D01*
X173647999Y-117779997D02*
X173647999Y-119303997D01*
X155330000Y-111620000D02*
X155330000Y-111624000D01*
X155330000Y-111624000D02*
X153924000Y-112268000D01*
X153924000Y-112776000D02*
X153862010Y-112837990D01*
X153924000Y-112268000D02*
X153924000Y-112776000D01*
X150906001Y-125419962D02*
X150906001Y-126969999D01*
X153924000Y-112776000D02*
X153924000Y-116689983D01*
X150906001Y-126969999D02*
X150455999Y-127420001D01*
X153924000Y-116689983D02*
X153230030Y-117383953D01*
X153230030Y-117383953D02*
X153230030Y-121545896D01*
X153230030Y-121545896D02*
X152057972Y-122717954D01*
X152057972Y-122717954D02*
X152057972Y-124267991D01*
X150455999Y-127420001D02*
X149606000Y-128270000D01*
X152057972Y-124267991D02*
X150906001Y-125419962D01*
D27*
G36*
X156218000Y-113157000D02*
G01*
X155575000Y-113157000D01*
X155575000Y-112705000D01*
X156183294Y-112705000D01*
X156218000Y-112701582D01*
X156218000Y-113157000D01*
X156218000Y-113157000D01*
G37*
X156218000Y-113157000D02*
X155575000Y-113157000D01*
X155575000Y-112705000D01*
X156183294Y-112705000D01*
X156218000Y-112701582D01*
X156218000Y-113157000D01*
G36*
X171821609Y-94278413D02*
G01*
X171672986Y-94432592D01*
X171557298Y-94612803D01*
X171485592Y-94815999D01*
X171612498Y-94983000D01*
X173101000Y-94983000D01*
X173101000Y-95237000D01*
X171612498Y-95237000D01*
X171485592Y-95404001D01*
X171557298Y-95607197D01*
X171646537Y-95746208D01*
X171623491Y-95774290D01*
X171522741Y-95962780D01*
X171460700Y-96167303D01*
X171439751Y-96380000D01*
X171460700Y-96592697D01*
X171522741Y-96797220D01*
X171623491Y-96985710D01*
X171647529Y-97015000D01*
X171623491Y-97044290D01*
X171522741Y-97232780D01*
X171460700Y-97437303D01*
X171439751Y-97650000D01*
X171454740Y-97802190D01*
X171297939Y-97771000D01*
X171094061Y-97771000D01*
X170894102Y-97810774D01*
X170705744Y-97888795D01*
X170536226Y-98002063D01*
X170392063Y-98146226D01*
X170278795Y-98315744D01*
X170200774Y-98504102D01*
X170161000Y-98704061D01*
X170161000Y-98907939D01*
X170200774Y-99107898D01*
X170278795Y-99296256D01*
X170375510Y-99441000D01*
X170278795Y-99585744D01*
X170200774Y-99774102D01*
X170161000Y-99974061D01*
X170161000Y-100177939D01*
X170200774Y-100377898D01*
X170278795Y-100566256D01*
X170375510Y-100711000D01*
X170278795Y-100855744D01*
X170200774Y-101044102D01*
X170161000Y-101244061D01*
X170161000Y-101447939D01*
X170200774Y-101647898D01*
X170278795Y-101836256D01*
X170392063Y-102005774D01*
X170536226Y-102149937D01*
X170705744Y-102263205D01*
X170894102Y-102341226D01*
X171094061Y-102381000D01*
X171297939Y-102381000D01*
X171478925Y-102345000D01*
X171512967Y-102345000D01*
X171460700Y-102517303D01*
X171439751Y-102730000D01*
X171454740Y-102882190D01*
X171297939Y-102851000D01*
X171094061Y-102851000D01*
X170894102Y-102890774D01*
X170705744Y-102968795D01*
X170536226Y-103082063D01*
X170392063Y-103226226D01*
X170278795Y-103395744D01*
X170200774Y-103584102D01*
X170161000Y-103784061D01*
X170161000Y-103987939D01*
X170200774Y-104187898D01*
X170278795Y-104376256D01*
X170375510Y-104521000D01*
X170278795Y-104665744D01*
X170200774Y-104854102D01*
X170161000Y-105054061D01*
X170161000Y-105257939D01*
X170200774Y-105457898D01*
X170278795Y-105646256D01*
X170375510Y-105791000D01*
X170278795Y-105935744D01*
X170200774Y-106124102D01*
X170161000Y-106324061D01*
X170161000Y-106527939D01*
X170200774Y-106727898D01*
X170278795Y-106916256D01*
X170392063Y-107085774D01*
X170536226Y-107229937D01*
X170705744Y-107343205D01*
X170894102Y-107421226D01*
X171094061Y-107461000D01*
X171297939Y-107461000D01*
X171478925Y-107425000D01*
X171512967Y-107425000D01*
X171460700Y-107597303D01*
X171439751Y-107810000D01*
X171460700Y-108022697D01*
X171522741Y-108227220D01*
X171623491Y-108415710D01*
X171647529Y-108445000D01*
X171623491Y-108474290D01*
X171522741Y-108662780D01*
X171460700Y-108867303D01*
X171439751Y-109080000D01*
X171460700Y-109292697D01*
X171522741Y-109497220D01*
X171623491Y-109685710D01*
X171647529Y-109715000D01*
X171623491Y-109744290D01*
X171522741Y-109932780D01*
X171460700Y-110137303D01*
X171439751Y-110350000D01*
X171460700Y-110562697D01*
X171522741Y-110767220D01*
X171623491Y-110955710D01*
X171647529Y-110985000D01*
X171623491Y-111014290D01*
X171522741Y-111202780D01*
X171460700Y-111407303D01*
X171439751Y-111620000D01*
X171460700Y-111832697D01*
X171522741Y-112037220D01*
X171623491Y-112225710D01*
X171759078Y-112390922D01*
X171924290Y-112526509D01*
X172112780Y-112627259D01*
X172317303Y-112689300D01*
X172445000Y-112701877D01*
X172445001Y-113157000D01*
X171130000Y-113157000D01*
X171130000Y-112256706D01*
X171114300Y-112097303D01*
X171052259Y-111892780D01*
X170951509Y-111704290D01*
X170815922Y-111539078D01*
X170650710Y-111403491D01*
X170462220Y-111302741D01*
X170257697Y-111240700D01*
X170045000Y-111219751D01*
X169832304Y-111240700D01*
X169627781Y-111302741D01*
X169439291Y-111403491D01*
X169410001Y-111427529D01*
X169380710Y-111403491D01*
X169192220Y-111302741D01*
X168987697Y-111240700D01*
X168775000Y-111219751D01*
X168562304Y-111240700D01*
X168357781Y-111302741D01*
X168169291Y-111403491D01*
X168140001Y-111427529D01*
X168110710Y-111403491D01*
X167922220Y-111302741D01*
X167717697Y-111240700D01*
X167505000Y-111219751D01*
X167292304Y-111240700D01*
X167087781Y-111302741D01*
X166899291Y-111403491D01*
X166870001Y-111427529D01*
X166840710Y-111403491D01*
X166652220Y-111302741D01*
X166447697Y-111240700D01*
X166235000Y-111219751D01*
X166022304Y-111240700D01*
X165817781Y-111302741D01*
X165629291Y-111403491D01*
X165600001Y-111427529D01*
X165570710Y-111403491D01*
X165382220Y-111302741D01*
X165177697Y-111240700D01*
X164965000Y-111219751D01*
X164752304Y-111240700D01*
X164547781Y-111302741D01*
X164359291Y-111403491D01*
X164330001Y-111427529D01*
X164300710Y-111403491D01*
X164112220Y-111302741D01*
X163907697Y-111240700D01*
X163695000Y-111219751D01*
X163482304Y-111240700D01*
X163277781Y-111302741D01*
X163089291Y-111403491D01*
X163060001Y-111427529D01*
X163030710Y-111403491D01*
X162842220Y-111302741D01*
X162637697Y-111240700D01*
X162425000Y-111219751D01*
X162212304Y-111240700D01*
X162007781Y-111302741D01*
X161819291Y-111403491D01*
X161790001Y-111427529D01*
X161760710Y-111403491D01*
X161572220Y-111302741D01*
X161367697Y-111240700D01*
X161155000Y-111219751D01*
X160942304Y-111240700D01*
X160737781Y-111302741D01*
X160549291Y-111403491D01*
X160520001Y-111427529D01*
X160490710Y-111403491D01*
X160302220Y-111302741D01*
X160097697Y-111240700D01*
X159885000Y-111219751D01*
X159672304Y-111240700D01*
X159467781Y-111302741D01*
X159279291Y-111403491D01*
X159250001Y-111427529D01*
X159220710Y-111403491D01*
X159033635Y-111303497D01*
X159089141Y-111247991D01*
X159132450Y-111212448D01*
X159274285Y-111039622D01*
X159379677Y-110842446D01*
X159444578Y-110628498D01*
X159461001Y-110461751D01*
X159461001Y-110461744D01*
X159466491Y-110406000D01*
X159461001Y-110350256D01*
X159461001Y-105810000D01*
X160391928Y-105810000D01*
X160404188Y-105934482D01*
X160440498Y-106054180D01*
X160499463Y-106164494D01*
X160578815Y-106261185D01*
X160675506Y-106340537D01*
X160785820Y-106399502D01*
X160905518Y-106435812D01*
X161030000Y-106448072D01*
X163744250Y-106445000D01*
X163903000Y-106286250D01*
X163903000Y-102937000D01*
X164157000Y-102937000D01*
X164157000Y-106286250D01*
X164315750Y-106445000D01*
X167030000Y-106448072D01*
X167154482Y-106435812D01*
X167274180Y-106399502D01*
X167384494Y-106340537D01*
X167481185Y-106261185D01*
X167560537Y-106164494D01*
X167619502Y-106054180D01*
X167655812Y-105934482D01*
X167668072Y-105810000D01*
X167665000Y-103095750D01*
X167506250Y-102937000D01*
X164157000Y-102937000D01*
X163903000Y-102937000D01*
X160553750Y-102937000D01*
X160395000Y-103095750D01*
X160391928Y-105810000D01*
X159461001Y-105810000D01*
X159461001Y-99810000D01*
X160391928Y-99810000D01*
X160395000Y-102524250D01*
X160553750Y-102683000D01*
X163903000Y-102683000D01*
X163903000Y-99333750D01*
X164157000Y-99333750D01*
X164157000Y-102683000D01*
X167506250Y-102683000D01*
X167665000Y-102524250D01*
X167668072Y-99810000D01*
X167655812Y-99685518D01*
X167619502Y-99565820D01*
X167560537Y-99455506D01*
X167481185Y-99358815D01*
X167384494Y-99279463D01*
X167274180Y-99220498D01*
X167154482Y-99184188D01*
X167030000Y-99171928D01*
X164315750Y-99175000D01*
X164157000Y-99333750D01*
X163903000Y-99333750D01*
X163744250Y-99175000D01*
X161030000Y-99171928D01*
X160905518Y-99184188D01*
X160785820Y-99220498D01*
X160675506Y-99279463D01*
X160578815Y-99358815D01*
X160499463Y-99455506D01*
X160440498Y-99565820D01*
X160404188Y-99685518D01*
X160391928Y-99810000D01*
X159461001Y-99810000D01*
X159461001Y-97317740D01*
X159466491Y-97261998D01*
X159461001Y-97206256D01*
X159461001Y-97206247D01*
X159444578Y-97039500D01*
X159379677Y-96825552D01*
X159274285Y-96628376D01*
X159132450Y-96455550D01*
X159089141Y-96420007D01*
X158356006Y-95686873D01*
X158320460Y-95643560D01*
X158147634Y-95501725D01*
X157950458Y-95396333D01*
X157736510Y-95331432D01*
X157569763Y-95315009D01*
X157569762Y-95315009D01*
X157514011Y-95309518D01*
X157458260Y-95315009D01*
X157106782Y-95315009D01*
X157047502Y-95237000D01*
X155575000Y-95237000D01*
X155575000Y-94983000D01*
X157047502Y-94983000D01*
X157174408Y-94815999D01*
X157102702Y-94612803D01*
X156987014Y-94432592D01*
X156838391Y-94278413D01*
X156663709Y-94157000D01*
X171996291Y-94157000D01*
X171821609Y-94278413D01*
X171821609Y-94278413D01*
G37*
X171821609Y-94278413D02*
X171672986Y-94432592D01*
X171557298Y-94612803D01*
X171485592Y-94815999D01*
X171612498Y-94983000D01*
X173101000Y-94983000D01*
X173101000Y-95237000D01*
X171612498Y-95237000D01*
X171485592Y-95404001D01*
X171557298Y-95607197D01*
X171646537Y-95746208D01*
X171623491Y-95774290D01*
X171522741Y-95962780D01*
X171460700Y-96167303D01*
X171439751Y-96380000D01*
X171460700Y-96592697D01*
X171522741Y-96797220D01*
X171623491Y-96985710D01*
X171647529Y-97015000D01*
X171623491Y-97044290D01*
X171522741Y-97232780D01*
X171460700Y-97437303D01*
X171439751Y-97650000D01*
X171454740Y-97802190D01*
X171297939Y-97771000D01*
X171094061Y-97771000D01*
X170894102Y-97810774D01*
X170705744Y-97888795D01*
X170536226Y-98002063D01*
X170392063Y-98146226D01*
X170278795Y-98315744D01*
X170200774Y-98504102D01*
X170161000Y-98704061D01*
X170161000Y-98907939D01*
X170200774Y-99107898D01*
X170278795Y-99296256D01*
X170375510Y-99441000D01*
X170278795Y-99585744D01*
X170200774Y-99774102D01*
X170161000Y-99974061D01*
X170161000Y-100177939D01*
X170200774Y-100377898D01*
X170278795Y-100566256D01*
X170375510Y-100711000D01*
X170278795Y-100855744D01*
X170200774Y-101044102D01*
X170161000Y-101244061D01*
X170161000Y-101447939D01*
X170200774Y-101647898D01*
X170278795Y-101836256D01*
X170392063Y-102005774D01*
X170536226Y-102149937D01*
X170705744Y-102263205D01*
X170894102Y-102341226D01*
X171094061Y-102381000D01*
X171297939Y-102381000D01*
X171478925Y-102345000D01*
X171512967Y-102345000D01*
X171460700Y-102517303D01*
X171439751Y-102730000D01*
X171454740Y-102882190D01*
X171297939Y-102851000D01*
X171094061Y-102851000D01*
X170894102Y-102890774D01*
X170705744Y-102968795D01*
X170536226Y-103082063D01*
X170392063Y-103226226D01*
X170278795Y-103395744D01*
X170200774Y-103584102D01*
X170161000Y-103784061D01*
X170161000Y-103987939D01*
X170200774Y-104187898D01*
X170278795Y-104376256D01*
X170375510Y-104521000D01*
X170278795Y-104665744D01*
X170200774Y-104854102D01*
X170161000Y-105054061D01*
X170161000Y-105257939D01*
X170200774Y-105457898D01*
X170278795Y-105646256D01*
X170375510Y-105791000D01*
X170278795Y-105935744D01*
X170200774Y-106124102D01*
X170161000Y-106324061D01*
X170161000Y-106527939D01*
X170200774Y-106727898D01*
X170278795Y-106916256D01*
X170392063Y-107085774D01*
X170536226Y-107229937D01*
X170705744Y-107343205D01*
X170894102Y-107421226D01*
X171094061Y-107461000D01*
X171297939Y-107461000D01*
X171478925Y-107425000D01*
X171512967Y-107425000D01*
X171460700Y-107597303D01*
X171439751Y-107810000D01*
X171460700Y-108022697D01*
X171522741Y-108227220D01*
X171623491Y-108415710D01*
X171647529Y-108445000D01*
X171623491Y-108474290D01*
X171522741Y-108662780D01*
X171460700Y-108867303D01*
X171439751Y-109080000D01*
X171460700Y-109292697D01*
X171522741Y-109497220D01*
X171623491Y-109685710D01*
X171647529Y-109715000D01*
X171623491Y-109744290D01*
X171522741Y-109932780D01*
X171460700Y-110137303D01*
X171439751Y-110350000D01*
X171460700Y-110562697D01*
X171522741Y-110767220D01*
X171623491Y-110955710D01*
X171647529Y-110985000D01*
X171623491Y-111014290D01*
X171522741Y-111202780D01*
X171460700Y-111407303D01*
X171439751Y-111620000D01*
X171460700Y-111832697D01*
X171522741Y-112037220D01*
X171623491Y-112225710D01*
X171759078Y-112390922D01*
X171924290Y-112526509D01*
X172112780Y-112627259D01*
X172317303Y-112689300D01*
X172445000Y-112701877D01*
X172445001Y-113157000D01*
X171130000Y-113157000D01*
X171130000Y-112256706D01*
X171114300Y-112097303D01*
X171052259Y-111892780D01*
X170951509Y-111704290D01*
X170815922Y-111539078D01*
X170650710Y-111403491D01*
X170462220Y-111302741D01*
X170257697Y-111240700D01*
X170045000Y-111219751D01*
X169832304Y-111240700D01*
X169627781Y-111302741D01*
X169439291Y-111403491D01*
X169410001Y-111427529D01*
X169380710Y-111403491D01*
X169192220Y-111302741D01*
X168987697Y-111240700D01*
X168775000Y-111219751D01*
X168562304Y-111240700D01*
X168357781Y-111302741D01*
X168169291Y-111403491D01*
X168140001Y-111427529D01*
X168110710Y-111403491D01*
X167922220Y-111302741D01*
X167717697Y-111240700D01*
X167505000Y-111219751D01*
X167292304Y-111240700D01*
X167087781Y-111302741D01*
X166899291Y-111403491D01*
X166870001Y-111427529D01*
X166840710Y-111403491D01*
X166652220Y-111302741D01*
X166447697Y-111240700D01*
X166235000Y-111219751D01*
X166022304Y-111240700D01*
X165817781Y-111302741D01*
X165629291Y-111403491D01*
X165600001Y-111427529D01*
X165570710Y-111403491D01*
X165382220Y-111302741D01*
X165177697Y-111240700D01*
X164965000Y-111219751D01*
X164752304Y-111240700D01*
X164547781Y-111302741D01*
X164359291Y-111403491D01*
X164330001Y-111427529D01*
X164300710Y-111403491D01*
X164112220Y-111302741D01*
X163907697Y-111240700D01*
X163695000Y-111219751D01*
X163482304Y-111240700D01*
X163277781Y-111302741D01*
X163089291Y-111403491D01*
X163060001Y-111427529D01*
X163030710Y-111403491D01*
X162842220Y-111302741D01*
X162637697Y-111240700D01*
X162425000Y-111219751D01*
X162212304Y-111240700D01*
X162007781Y-111302741D01*
X161819291Y-111403491D01*
X161790001Y-111427529D01*
X161760710Y-111403491D01*
X161572220Y-111302741D01*
X161367697Y-111240700D01*
X161155000Y-111219751D01*
X160942304Y-111240700D01*
X160737781Y-111302741D01*
X160549291Y-111403491D01*
X160520001Y-111427529D01*
X160490710Y-111403491D01*
X160302220Y-111302741D01*
X160097697Y-111240700D01*
X159885000Y-111219751D01*
X159672304Y-111240700D01*
X159467781Y-111302741D01*
X159279291Y-111403491D01*
X159250001Y-111427529D01*
X159220710Y-111403491D01*
X159033635Y-111303497D01*
X159089141Y-111247991D01*
X159132450Y-111212448D01*
X159274285Y-111039622D01*
X159379677Y-110842446D01*
X159444578Y-110628498D01*
X159461001Y-110461751D01*
X159461001Y-110461744D01*
X159466491Y-110406000D01*
X159461001Y-110350256D01*
X159461001Y-105810000D01*
X160391928Y-105810000D01*
X160404188Y-105934482D01*
X160440498Y-106054180D01*
X160499463Y-106164494D01*
X160578815Y-106261185D01*
X160675506Y-106340537D01*
X160785820Y-106399502D01*
X160905518Y-106435812D01*
X161030000Y-106448072D01*
X163744250Y-106445000D01*
X163903000Y-106286250D01*
X163903000Y-102937000D01*
X164157000Y-102937000D01*
X164157000Y-106286250D01*
X164315750Y-106445000D01*
X167030000Y-106448072D01*
X167154482Y-106435812D01*
X167274180Y-106399502D01*
X167384494Y-106340537D01*
X167481185Y-106261185D01*
X167560537Y-106164494D01*
X167619502Y-106054180D01*
X167655812Y-105934482D01*
X167668072Y-105810000D01*
X167665000Y-103095750D01*
X167506250Y-102937000D01*
X164157000Y-102937000D01*
X163903000Y-102937000D01*
X160553750Y-102937000D01*
X160395000Y-103095750D01*
X160391928Y-105810000D01*
X159461001Y-105810000D01*
X159461001Y-99810000D01*
X160391928Y-99810000D01*
X160395000Y-102524250D01*
X160553750Y-102683000D01*
X163903000Y-102683000D01*
X163903000Y-99333750D01*
X164157000Y-99333750D01*
X164157000Y-102683000D01*
X167506250Y-102683000D01*
X167665000Y-102524250D01*
X167668072Y-99810000D01*
X167655812Y-99685518D01*
X167619502Y-99565820D01*
X167560537Y-99455506D01*
X167481185Y-99358815D01*
X167384494Y-99279463D01*
X167274180Y-99220498D01*
X167154482Y-99184188D01*
X167030000Y-99171928D01*
X164315750Y-99175000D01*
X164157000Y-99333750D01*
X163903000Y-99333750D01*
X163744250Y-99175000D01*
X161030000Y-99171928D01*
X160905518Y-99184188D01*
X160785820Y-99220498D01*
X160675506Y-99279463D01*
X160578815Y-99358815D01*
X160499463Y-99455506D01*
X160440498Y-99565820D01*
X160404188Y-99685518D01*
X160391928Y-99810000D01*
X159461001Y-99810000D01*
X159461001Y-97317740D01*
X159466491Y-97261998D01*
X159461001Y-97206256D01*
X159461001Y-97206247D01*
X159444578Y-97039500D01*
X159379677Y-96825552D01*
X159274285Y-96628376D01*
X159132450Y-96455550D01*
X159089141Y-96420007D01*
X158356006Y-95686873D01*
X158320460Y-95643560D01*
X158147634Y-95501725D01*
X157950458Y-95396333D01*
X157736510Y-95331432D01*
X157569763Y-95315009D01*
X157569762Y-95315009D01*
X157514011Y-95309518D01*
X157458260Y-95315009D01*
X157106782Y-95315009D01*
X157047502Y-95237000D01*
X155575000Y-95237000D01*
X155575000Y-94983000D01*
X157047502Y-94983000D01*
X157174408Y-94815999D01*
X157102702Y-94612803D01*
X156987014Y-94432592D01*
X156838391Y-94278413D01*
X156663709Y-94157000D01*
X171996291Y-94157000D01*
X171821609Y-94278413D01*
G36*
X148130188Y-94275518D02*
G01*
X148117928Y-94400000D01*
X148121000Y-94964250D01*
X148279750Y-95123000D01*
X149479000Y-95123000D01*
X149479000Y-95103000D01*
X149733000Y-95103000D01*
X149733000Y-95123000D01*
X150932250Y-95123000D01*
X151091000Y-94964250D01*
X151094072Y-94400000D01*
X151081812Y-94275518D01*
X151045860Y-94157000D01*
X151318311Y-94157000D01*
X151319000Y-94202250D01*
X151477750Y-94361000D01*
X152527000Y-94361000D01*
X152527000Y-94341000D01*
X152781000Y-94341000D01*
X152781000Y-94361000D01*
X152801000Y-94361000D01*
X152801000Y-94615000D01*
X152781000Y-94615000D01*
X152781000Y-94635000D01*
X152527000Y-94635000D01*
X152527000Y-94615000D01*
X151477750Y-94615000D01*
X151319000Y-94773750D01*
X151315928Y-94975500D01*
X151328188Y-95099982D01*
X151364498Y-95219680D01*
X151423463Y-95329994D01*
X151502815Y-95426685D01*
X151580564Y-95490492D01*
X151574208Y-95495708D01*
X151464542Y-95629336D01*
X151383053Y-95781791D01*
X151332872Y-95947215D01*
X151315928Y-96119250D01*
X151315928Y-96606750D01*
X151321052Y-96658772D01*
X151282752Y-96655000D01*
X151282751Y-96655000D01*
X151227000Y-96649509D01*
X151171249Y-96655000D01*
X150764728Y-96655000D01*
X150810494Y-96630537D01*
X150907185Y-96551185D01*
X150986537Y-96454494D01*
X151045502Y-96344180D01*
X151081812Y-96224482D01*
X151094072Y-96100000D01*
X151091000Y-95535750D01*
X150932250Y-95377000D01*
X149733000Y-95377000D01*
X149733000Y-95397000D01*
X149479000Y-95397000D01*
X149479000Y-95377000D01*
X148279750Y-95377000D01*
X148121000Y-95535750D01*
X148117928Y-96100000D01*
X148130188Y-96224482D01*
X148166498Y-96344180D01*
X148225463Y-96454494D01*
X148304815Y-96551185D01*
X148401506Y-96630537D01*
X148511820Y-96689502D01*
X148580687Y-96710393D01*
X148550866Y-96734866D01*
X148365294Y-96960986D01*
X148227401Y-97218966D01*
X148142487Y-97498889D01*
X148113815Y-97790000D01*
X148142487Y-98081111D01*
X148227401Y-98361034D01*
X148365294Y-98619014D01*
X148550866Y-98845134D01*
X148776986Y-99030706D01*
X148831791Y-99060000D01*
X148776986Y-99089294D01*
X148550866Y-99274866D01*
X148365294Y-99500986D01*
X148227401Y-99758966D01*
X148142487Y-100038889D01*
X148113815Y-100330000D01*
X148142487Y-100621111D01*
X148227401Y-100901034D01*
X148365294Y-101159014D01*
X148550866Y-101385134D01*
X148776986Y-101570706D01*
X148831791Y-101600000D01*
X148776986Y-101629294D01*
X148550866Y-101814866D01*
X148365294Y-102040986D01*
X148227401Y-102298966D01*
X148142487Y-102578889D01*
X148113815Y-102870000D01*
X148142487Y-103161111D01*
X148227401Y-103441034D01*
X148365294Y-103699014D01*
X148550866Y-103925134D01*
X148776986Y-104110706D01*
X148831791Y-104140000D01*
X148776986Y-104169294D01*
X148550866Y-104354866D01*
X148365294Y-104580986D01*
X148227401Y-104838966D01*
X148142487Y-105118889D01*
X148113815Y-105410000D01*
X148142487Y-105701111D01*
X148227401Y-105981034D01*
X148365294Y-106239014D01*
X148550866Y-106465134D01*
X148776986Y-106650706D01*
X148831791Y-106680000D01*
X148776986Y-106709294D01*
X148550866Y-106894866D01*
X148365294Y-107120986D01*
X148227401Y-107378966D01*
X148142487Y-107658889D01*
X148113815Y-107950000D01*
X148142487Y-108241111D01*
X148227401Y-108521034D01*
X148365294Y-108779014D01*
X148550866Y-109005134D01*
X148776986Y-109190706D01*
X148831791Y-109220000D01*
X148776986Y-109249294D01*
X148550866Y-109434866D01*
X148365294Y-109660986D01*
X148227401Y-109918966D01*
X148142487Y-110198889D01*
X148113815Y-110490000D01*
X148142487Y-110781111D01*
X148227401Y-111061034D01*
X148365294Y-111319014D01*
X148550866Y-111545134D01*
X148776986Y-111730706D01*
X148831791Y-111760000D01*
X148776986Y-111789294D01*
X148550866Y-111974866D01*
X148365294Y-112200986D01*
X148227401Y-112458966D01*
X148142487Y-112738889D01*
X148113815Y-113030000D01*
X148142487Y-113321111D01*
X148227401Y-113601034D01*
X148365294Y-113859014D01*
X148550866Y-114085134D01*
X148776986Y-114270706D01*
X148831791Y-114300000D01*
X148776986Y-114329294D01*
X148550866Y-114514866D01*
X148365294Y-114740986D01*
X148227401Y-114998966D01*
X148142487Y-115278889D01*
X148113815Y-115570000D01*
X148142487Y-115861111D01*
X148227401Y-116141034D01*
X148365294Y-116399014D01*
X148550866Y-116625134D01*
X148776986Y-116810706D01*
X148831791Y-116840000D01*
X148776986Y-116869294D01*
X148550866Y-117054866D01*
X148365294Y-117280986D01*
X148227401Y-117538966D01*
X148142487Y-117818889D01*
X148113815Y-118110000D01*
X148142487Y-118401111D01*
X148227401Y-118681034D01*
X148365294Y-118939014D01*
X148550866Y-119165134D01*
X148776986Y-119350706D01*
X148831791Y-119380000D01*
X148776986Y-119409294D01*
X148550866Y-119594866D01*
X148365294Y-119820986D01*
X148227401Y-120078966D01*
X148142487Y-120358889D01*
X148113815Y-120650000D01*
X148142487Y-120941111D01*
X148227401Y-121221034D01*
X148365294Y-121479014D01*
X148550866Y-121705134D01*
X148776986Y-121890706D01*
X148831791Y-121920000D01*
X148776986Y-121949294D01*
X148550866Y-122134866D01*
X148365294Y-122360986D01*
X148227401Y-122618966D01*
X148142487Y-122898889D01*
X148113815Y-123190000D01*
X148142487Y-123481111D01*
X148227401Y-123761034D01*
X148365294Y-124019014D01*
X148550866Y-124245134D01*
X148776986Y-124430706D01*
X148831791Y-124460000D01*
X148776986Y-124489294D01*
X148550866Y-124674866D01*
X148365294Y-124900986D01*
X148227401Y-125158966D01*
X148142487Y-125438889D01*
X148113815Y-125730000D01*
X148142487Y-126021111D01*
X148227401Y-126301034D01*
X148365294Y-126559014D01*
X148550866Y-126785134D01*
X148776986Y-126970706D01*
X148831791Y-127000000D01*
X148776986Y-127029294D01*
X148550866Y-127214866D01*
X148365294Y-127440986D01*
X148227401Y-127698966D01*
X148142487Y-127978889D01*
X148113815Y-128270000D01*
X148142487Y-128561111D01*
X148227401Y-128841034D01*
X148365294Y-129099014D01*
X148550866Y-129325134D01*
X148776986Y-129510706D01*
X149034966Y-129648599D01*
X149314889Y-129733513D01*
X149533050Y-129755000D01*
X149678950Y-129755000D01*
X149893400Y-129733878D01*
X149893401Y-132916202D01*
X149872761Y-132933141D01*
X149837219Y-132976448D01*
X149316059Y-133497609D01*
X149272752Y-133533151D01*
X149130917Y-133705977D01*
X149112951Y-133739590D01*
X149025524Y-133903154D01*
X148960623Y-134117102D01*
X148938709Y-134339600D01*
X148944201Y-134395361D01*
X148944201Y-134658401D01*
X148941128Y-134689600D01*
X148941128Y-137689600D01*
X148958192Y-137862854D01*
X149008728Y-138029450D01*
X149090795Y-138182986D01*
X149201238Y-138317562D01*
X149335814Y-138428005D01*
X149489350Y-138510072D01*
X149655946Y-138560608D01*
X149829200Y-138577672D01*
X150329200Y-138577672D01*
X150502454Y-138560608D01*
X150669050Y-138510072D01*
X150822586Y-138428005D01*
X150957162Y-138317562D01*
X151020169Y-138240787D01*
X151048663Y-138294094D01*
X151128015Y-138390785D01*
X151224706Y-138470137D01*
X151335020Y-138529102D01*
X151454718Y-138565412D01*
X151579200Y-138577672D01*
X151793450Y-138574600D01*
X151952200Y-138415850D01*
X151952200Y-136316600D01*
X152206200Y-136316600D01*
X152206200Y-138415850D01*
X152364950Y-138574600D01*
X152579200Y-138577672D01*
X152703682Y-138565412D01*
X152823380Y-138529102D01*
X152933694Y-138470137D01*
X153030385Y-138390785D01*
X153109737Y-138294094D01*
X153168702Y-138183780D01*
X153205012Y-138064082D01*
X153217272Y-137939600D01*
X153214200Y-136475350D01*
X153055450Y-136316600D01*
X152206200Y-136316600D01*
X151952200Y-136316600D01*
X151932200Y-136316600D01*
X151932200Y-136062600D01*
X151952200Y-136062600D01*
X151952200Y-136042600D01*
X152206200Y-136042600D01*
X152206200Y-136062600D01*
X153055450Y-136062600D01*
X153214200Y-135903850D01*
X153216359Y-134874590D01*
X154349057Y-134874590D01*
X156427207Y-136952741D01*
X156462749Y-136996049D01*
X156635575Y-137137884D01*
X156832751Y-137243276D01*
X157046699Y-137308177D01*
X157213446Y-137324600D01*
X157213455Y-137324600D01*
X157269197Y-137330090D01*
X157324939Y-137324600D01*
X158218728Y-137324600D01*
X158218728Y-137689600D01*
X158221801Y-137720799D01*
X158221801Y-137983839D01*
X158216309Y-138039600D01*
X158238223Y-138262098D01*
X158303124Y-138476046D01*
X158348323Y-138560608D01*
X158408517Y-138673223D01*
X158550352Y-138846049D01*
X158593660Y-138881591D01*
X159768808Y-140056740D01*
X159804351Y-140100049D01*
X159864912Y-140149750D01*
X159977177Y-140241884D01*
X160174353Y-140347276D01*
X160388301Y-140412177D01*
X160610800Y-140434091D01*
X160666552Y-140428600D01*
X166324736Y-140428600D01*
X166318728Y-140489600D01*
X166318728Y-143206000D01*
X158394872Y-143206000D01*
X158394872Y-140489600D01*
X158377808Y-140316346D01*
X158327272Y-140149750D01*
X158245205Y-139996214D01*
X158134762Y-139861638D01*
X158000186Y-139751195D01*
X157846650Y-139669128D01*
X157680054Y-139618592D01*
X157506800Y-139601528D01*
X156506800Y-139601528D01*
X156333546Y-139618592D01*
X156166950Y-139669128D01*
X156013414Y-139751195D01*
X155878838Y-139861638D01*
X155768395Y-139996214D01*
X155718000Y-140090496D01*
X155667605Y-139996214D01*
X155557162Y-139861638D01*
X155422586Y-139751195D01*
X155269050Y-139669128D01*
X155102454Y-139618592D01*
X154929200Y-139601528D01*
X153929200Y-139601528D01*
X153755946Y-139618592D01*
X153589350Y-139669128D01*
X153435814Y-139751195D01*
X153301238Y-139861638D01*
X153190795Y-139996214D01*
X153108728Y-140149750D01*
X153058192Y-140316346D01*
X153041128Y-140489600D01*
X153041128Y-143206000D01*
X149117272Y-143206000D01*
X149117272Y-140489600D01*
X149100208Y-140316346D01*
X149049672Y-140149750D01*
X148967605Y-139996214D01*
X148857162Y-139861638D01*
X148722586Y-139751195D01*
X148569050Y-139669128D01*
X148402454Y-139618592D01*
X148229200Y-139601528D01*
X147497000Y-139601528D01*
X147497000Y-134131000D01*
X147675939Y-134131000D01*
X147875898Y-134091226D01*
X148064256Y-134013205D01*
X148233774Y-133899937D01*
X148377937Y-133755774D01*
X148491205Y-133586256D01*
X148569226Y-133397898D01*
X148609000Y-133197939D01*
X148609000Y-132994061D01*
X148569226Y-132794102D01*
X148491205Y-132605744D01*
X148377937Y-132436226D01*
X148233774Y-132292063D01*
X148064256Y-132178795D01*
X147875898Y-132100774D01*
X147675939Y-132061000D01*
X147497000Y-132061000D01*
X147497000Y-94775504D01*
X147511364Y-94629008D01*
X147544176Y-94520330D01*
X147597479Y-94420082D01*
X147669232Y-94332103D01*
X147756707Y-94259737D01*
X147856579Y-94205737D01*
X147965027Y-94172167D01*
X148109331Y-94157000D01*
X148166140Y-94157000D01*
X148130188Y-94275518D01*
X148130188Y-94275518D01*
G37*
X148130188Y-94275518D02*
X148117928Y-94400000D01*
X148121000Y-94964250D01*
X148279750Y-95123000D01*
X149479000Y-95123000D01*
X149479000Y-95103000D01*
X149733000Y-95103000D01*
X149733000Y-95123000D01*
X150932250Y-95123000D01*
X151091000Y-94964250D01*
X151094072Y-94400000D01*
X151081812Y-94275518D01*
X151045860Y-94157000D01*
X151318311Y-94157000D01*
X151319000Y-94202250D01*
X151477750Y-94361000D01*
X152527000Y-94361000D01*
X152527000Y-94341000D01*
X152781000Y-94341000D01*
X152781000Y-94361000D01*
X152801000Y-94361000D01*
X152801000Y-94615000D01*
X152781000Y-94615000D01*
X152781000Y-94635000D01*
X152527000Y-94635000D01*
X152527000Y-94615000D01*
X151477750Y-94615000D01*
X151319000Y-94773750D01*
X151315928Y-94975500D01*
X151328188Y-95099982D01*
X151364498Y-95219680D01*
X151423463Y-95329994D01*
X151502815Y-95426685D01*
X151580564Y-95490492D01*
X151574208Y-95495708D01*
X151464542Y-95629336D01*
X151383053Y-95781791D01*
X151332872Y-95947215D01*
X151315928Y-96119250D01*
X151315928Y-96606750D01*
X151321052Y-96658772D01*
X151282752Y-96655000D01*
X151282751Y-96655000D01*
X151227000Y-96649509D01*
X151171249Y-96655000D01*
X150764728Y-96655000D01*
X150810494Y-96630537D01*
X150907185Y-96551185D01*
X150986537Y-96454494D01*
X151045502Y-96344180D01*
X151081812Y-96224482D01*
X151094072Y-96100000D01*
X151091000Y-95535750D01*
X150932250Y-95377000D01*
X149733000Y-95377000D01*
X149733000Y-95397000D01*
X149479000Y-95397000D01*
X149479000Y-95377000D01*
X148279750Y-95377000D01*
X148121000Y-95535750D01*
X148117928Y-96100000D01*
X148130188Y-96224482D01*
X148166498Y-96344180D01*
X148225463Y-96454494D01*
X148304815Y-96551185D01*
X148401506Y-96630537D01*
X148511820Y-96689502D01*
X148580687Y-96710393D01*
X148550866Y-96734866D01*
X148365294Y-96960986D01*
X148227401Y-97218966D01*
X148142487Y-97498889D01*
X148113815Y-97790000D01*
X148142487Y-98081111D01*
X148227401Y-98361034D01*
X148365294Y-98619014D01*
X148550866Y-98845134D01*
X148776986Y-99030706D01*
X148831791Y-99060000D01*
X148776986Y-99089294D01*
X148550866Y-99274866D01*
X148365294Y-99500986D01*
X148227401Y-99758966D01*
X148142487Y-100038889D01*
X148113815Y-100330000D01*
X148142487Y-100621111D01*
X148227401Y-100901034D01*
X148365294Y-101159014D01*
X148550866Y-101385134D01*
X148776986Y-101570706D01*
X148831791Y-101600000D01*
X148776986Y-101629294D01*
X148550866Y-101814866D01*
X148365294Y-102040986D01*
X148227401Y-102298966D01*
X148142487Y-102578889D01*
X148113815Y-102870000D01*
X148142487Y-103161111D01*
X148227401Y-103441034D01*
X148365294Y-103699014D01*
X148550866Y-103925134D01*
X148776986Y-104110706D01*
X148831791Y-104140000D01*
X148776986Y-104169294D01*
X148550866Y-104354866D01*
X148365294Y-104580986D01*
X148227401Y-104838966D01*
X148142487Y-105118889D01*
X148113815Y-105410000D01*
X148142487Y-105701111D01*
X148227401Y-105981034D01*
X148365294Y-106239014D01*
X148550866Y-106465134D01*
X148776986Y-106650706D01*
X148831791Y-106680000D01*
X148776986Y-106709294D01*
X148550866Y-106894866D01*
X148365294Y-107120986D01*
X148227401Y-107378966D01*
X148142487Y-107658889D01*
X148113815Y-107950000D01*
X148142487Y-108241111D01*
X148227401Y-108521034D01*
X148365294Y-108779014D01*
X148550866Y-109005134D01*
X148776986Y-109190706D01*
X148831791Y-109220000D01*
X148776986Y-109249294D01*
X148550866Y-109434866D01*
X148365294Y-109660986D01*
X148227401Y-109918966D01*
X148142487Y-110198889D01*
X148113815Y-110490000D01*
X148142487Y-110781111D01*
X148227401Y-111061034D01*
X148365294Y-111319014D01*
X148550866Y-111545134D01*
X148776986Y-111730706D01*
X148831791Y-111760000D01*
X148776986Y-111789294D01*
X148550866Y-111974866D01*
X148365294Y-112200986D01*
X148227401Y-112458966D01*
X148142487Y-112738889D01*
X148113815Y-113030000D01*
X148142487Y-113321111D01*
X148227401Y-113601034D01*
X148365294Y-113859014D01*
X148550866Y-114085134D01*
X148776986Y-114270706D01*
X148831791Y-114300000D01*
X148776986Y-114329294D01*
X148550866Y-114514866D01*
X148365294Y-114740986D01*
X148227401Y-114998966D01*
X148142487Y-115278889D01*
X148113815Y-115570000D01*
X148142487Y-115861111D01*
X148227401Y-116141034D01*
X148365294Y-116399014D01*
X148550866Y-116625134D01*
X148776986Y-116810706D01*
X148831791Y-116840000D01*
X148776986Y-116869294D01*
X148550866Y-117054866D01*
X148365294Y-117280986D01*
X148227401Y-117538966D01*
X148142487Y-117818889D01*
X148113815Y-118110000D01*
X148142487Y-118401111D01*
X148227401Y-118681034D01*
X148365294Y-118939014D01*
X148550866Y-119165134D01*
X148776986Y-119350706D01*
X148831791Y-119380000D01*
X148776986Y-119409294D01*
X148550866Y-119594866D01*
X148365294Y-119820986D01*
X148227401Y-120078966D01*
X148142487Y-120358889D01*
X148113815Y-120650000D01*
X148142487Y-120941111D01*
X148227401Y-121221034D01*
X148365294Y-121479014D01*
X148550866Y-121705134D01*
X148776986Y-121890706D01*
X148831791Y-121920000D01*
X148776986Y-121949294D01*
X148550866Y-122134866D01*
X148365294Y-122360986D01*
X148227401Y-122618966D01*
X148142487Y-122898889D01*
X148113815Y-123190000D01*
X148142487Y-123481111D01*
X148227401Y-123761034D01*
X148365294Y-124019014D01*
X148550866Y-124245134D01*
X148776986Y-124430706D01*
X148831791Y-124460000D01*
X148776986Y-124489294D01*
X148550866Y-124674866D01*
X148365294Y-124900986D01*
X148227401Y-125158966D01*
X148142487Y-125438889D01*
X148113815Y-125730000D01*
X148142487Y-126021111D01*
X148227401Y-126301034D01*
X148365294Y-126559014D01*
X148550866Y-126785134D01*
X148776986Y-126970706D01*
X148831791Y-127000000D01*
X148776986Y-127029294D01*
X148550866Y-127214866D01*
X148365294Y-127440986D01*
X148227401Y-127698966D01*
X148142487Y-127978889D01*
X148113815Y-128270000D01*
X148142487Y-128561111D01*
X148227401Y-128841034D01*
X148365294Y-129099014D01*
X148550866Y-129325134D01*
X148776986Y-129510706D01*
X149034966Y-129648599D01*
X149314889Y-129733513D01*
X149533050Y-129755000D01*
X149678950Y-129755000D01*
X149893400Y-129733878D01*
X149893401Y-132916202D01*
X149872761Y-132933141D01*
X149837219Y-132976448D01*
X149316059Y-133497609D01*
X149272752Y-133533151D01*
X149130917Y-133705977D01*
X149112951Y-133739590D01*
X149025524Y-133903154D01*
X148960623Y-134117102D01*
X148938709Y-134339600D01*
X148944201Y-134395361D01*
X148944201Y-134658401D01*
X148941128Y-134689600D01*
X148941128Y-137689600D01*
X148958192Y-137862854D01*
X149008728Y-138029450D01*
X149090795Y-138182986D01*
X149201238Y-138317562D01*
X149335814Y-138428005D01*
X149489350Y-138510072D01*
X149655946Y-138560608D01*
X149829200Y-138577672D01*
X150329200Y-138577672D01*
X150502454Y-138560608D01*
X150669050Y-138510072D01*
X150822586Y-138428005D01*
X150957162Y-138317562D01*
X151020169Y-138240787D01*
X151048663Y-138294094D01*
X151128015Y-138390785D01*
X151224706Y-138470137D01*
X151335020Y-138529102D01*
X151454718Y-138565412D01*
X151579200Y-138577672D01*
X151793450Y-138574600D01*
X151952200Y-138415850D01*
X151952200Y-136316600D01*
X152206200Y-136316600D01*
X152206200Y-138415850D01*
X152364950Y-138574600D01*
X152579200Y-138577672D01*
X152703682Y-138565412D01*
X152823380Y-138529102D01*
X152933694Y-138470137D01*
X153030385Y-138390785D01*
X153109737Y-138294094D01*
X153168702Y-138183780D01*
X153205012Y-138064082D01*
X153217272Y-137939600D01*
X153214200Y-136475350D01*
X153055450Y-136316600D01*
X152206200Y-136316600D01*
X151952200Y-136316600D01*
X151932200Y-136316600D01*
X151932200Y-136062600D01*
X151952200Y-136062600D01*
X151952200Y-136042600D01*
X152206200Y-136042600D01*
X152206200Y-136062600D01*
X153055450Y-136062600D01*
X153214200Y-135903850D01*
X153216359Y-134874590D01*
X154349057Y-134874590D01*
X156427207Y-136952741D01*
X156462749Y-136996049D01*
X156635575Y-137137884D01*
X156832751Y-137243276D01*
X157046699Y-137308177D01*
X157213446Y-137324600D01*
X157213455Y-137324600D01*
X157269197Y-137330090D01*
X157324939Y-137324600D01*
X158218728Y-137324600D01*
X158218728Y-137689600D01*
X158221801Y-137720799D01*
X158221801Y-137983839D01*
X158216309Y-138039600D01*
X158238223Y-138262098D01*
X158303124Y-138476046D01*
X158348323Y-138560608D01*
X158408517Y-138673223D01*
X158550352Y-138846049D01*
X158593660Y-138881591D01*
X159768808Y-140056740D01*
X159804351Y-140100049D01*
X159864912Y-140149750D01*
X159977177Y-140241884D01*
X160174353Y-140347276D01*
X160388301Y-140412177D01*
X160610800Y-140434091D01*
X160666552Y-140428600D01*
X166324736Y-140428600D01*
X166318728Y-140489600D01*
X166318728Y-143206000D01*
X158394872Y-143206000D01*
X158394872Y-140489600D01*
X158377808Y-140316346D01*
X158327272Y-140149750D01*
X158245205Y-139996214D01*
X158134762Y-139861638D01*
X158000186Y-139751195D01*
X157846650Y-139669128D01*
X157680054Y-139618592D01*
X157506800Y-139601528D01*
X156506800Y-139601528D01*
X156333546Y-139618592D01*
X156166950Y-139669128D01*
X156013414Y-139751195D01*
X155878838Y-139861638D01*
X155768395Y-139996214D01*
X155718000Y-140090496D01*
X155667605Y-139996214D01*
X155557162Y-139861638D01*
X155422586Y-139751195D01*
X155269050Y-139669128D01*
X155102454Y-139618592D01*
X154929200Y-139601528D01*
X153929200Y-139601528D01*
X153755946Y-139618592D01*
X153589350Y-139669128D01*
X153435814Y-139751195D01*
X153301238Y-139861638D01*
X153190795Y-139996214D01*
X153108728Y-140149750D01*
X153058192Y-140316346D01*
X153041128Y-140489600D01*
X153041128Y-143206000D01*
X149117272Y-143206000D01*
X149117272Y-140489600D01*
X149100208Y-140316346D01*
X149049672Y-140149750D01*
X148967605Y-139996214D01*
X148857162Y-139861638D01*
X148722586Y-139751195D01*
X148569050Y-139669128D01*
X148402454Y-139618592D01*
X148229200Y-139601528D01*
X147497000Y-139601528D01*
X147497000Y-134131000D01*
X147675939Y-134131000D01*
X147875898Y-134091226D01*
X148064256Y-134013205D01*
X148233774Y-133899937D01*
X148377937Y-133755774D01*
X148491205Y-133586256D01*
X148569226Y-133397898D01*
X148609000Y-133197939D01*
X148609000Y-132994061D01*
X148569226Y-132794102D01*
X148491205Y-132605744D01*
X148377937Y-132436226D01*
X148233774Y-132292063D01*
X148064256Y-132178795D01*
X147875898Y-132100774D01*
X147675939Y-132061000D01*
X147497000Y-132061000D01*
X147497000Y-94775504D01*
X147511364Y-94629008D01*
X147544176Y-94520330D01*
X147597479Y-94420082D01*
X147669232Y-94332103D01*
X147756707Y-94259737D01*
X147856579Y-94205737D01*
X147965027Y-94172167D01*
X148109331Y-94157000D01*
X148166140Y-94157000D01*
X148130188Y-94275518D01*
G36*
X171821609Y-94278413D02*
G01*
X171672986Y-94432592D01*
X171557298Y-94612803D01*
X171485592Y-94815999D01*
X171612498Y-94983000D01*
X173203000Y-94983000D01*
X173203000Y-94963000D01*
X173457000Y-94963000D01*
X173457000Y-94983000D01*
X175047502Y-94983000D01*
X175174408Y-94815999D01*
X175102702Y-94612803D01*
X174987014Y-94432592D01*
X174838391Y-94278413D01*
X174663709Y-94157000D01*
X177376140Y-94157000D01*
X177340188Y-94275518D01*
X177327928Y-94400000D01*
X177331000Y-94964250D01*
X177489750Y-95123000D01*
X178689000Y-95123000D01*
X178689000Y-95103000D01*
X178943000Y-95103000D01*
X178943000Y-95123000D01*
X180142250Y-95123000D01*
X180301000Y-94964250D01*
X180304072Y-94400000D01*
X180291812Y-94275518D01*
X180255860Y-94157000D01*
X180560496Y-94157000D01*
X180706992Y-94171364D01*
X180815670Y-94204176D01*
X180915918Y-94257479D01*
X181003897Y-94329232D01*
X181076263Y-94416707D01*
X181130263Y-94516579D01*
X181163833Y-94625027D01*
X181179000Y-94769331D01*
X181179001Y-139601528D01*
X180468400Y-139601528D01*
X180295146Y-139618592D01*
X180128550Y-139669128D01*
X179975014Y-139751195D01*
X179840438Y-139861638D01*
X179729995Y-139996214D01*
X179647928Y-140149750D01*
X179597392Y-140316346D01*
X179580328Y-140489600D01*
X179580328Y-143206000D01*
X171656472Y-143206000D01*
X171656472Y-140489600D01*
X171639408Y-140316346D01*
X171588872Y-140149750D01*
X171506805Y-139996214D01*
X171396362Y-139861638D01*
X171261786Y-139751195D01*
X171108250Y-139669128D01*
X170941654Y-139618592D01*
X170807730Y-139605402D01*
X171946771Y-138466360D01*
X172028550Y-138510072D01*
X172195146Y-138560608D01*
X172368400Y-138577672D01*
X172868400Y-138577672D01*
X173041654Y-138560608D01*
X173208250Y-138510072D01*
X173361786Y-138428005D01*
X173496362Y-138317562D01*
X173606805Y-138182986D01*
X173618400Y-138161293D01*
X173629995Y-138182986D01*
X173740438Y-138317562D01*
X173875014Y-138428005D01*
X174028550Y-138510072D01*
X174195146Y-138560608D01*
X174368400Y-138577672D01*
X174868400Y-138577672D01*
X175041654Y-138560608D01*
X175208250Y-138510072D01*
X175361786Y-138428005D01*
X175496362Y-138317562D01*
X175606805Y-138182986D01*
X175618400Y-138161293D01*
X175629995Y-138182986D01*
X175740438Y-138317562D01*
X175875014Y-138428005D01*
X176028550Y-138510072D01*
X176195146Y-138560608D01*
X176368400Y-138577672D01*
X176868400Y-138577672D01*
X177041654Y-138560608D01*
X177208250Y-138510072D01*
X177361786Y-138428005D01*
X177496362Y-138317562D01*
X177559369Y-138240787D01*
X177587863Y-138294094D01*
X177667215Y-138390785D01*
X177763906Y-138470137D01*
X177874220Y-138529102D01*
X177993918Y-138565412D01*
X178118400Y-138577672D01*
X178332650Y-138574600D01*
X178491400Y-138415850D01*
X178491400Y-136316600D01*
X178745400Y-136316600D01*
X178745400Y-138415850D01*
X178904150Y-138574600D01*
X179118400Y-138577672D01*
X179242882Y-138565412D01*
X179362580Y-138529102D01*
X179472894Y-138470137D01*
X179569585Y-138390785D01*
X179648937Y-138294094D01*
X179707902Y-138183780D01*
X179744212Y-138064082D01*
X179756472Y-137939600D01*
X179753400Y-136475350D01*
X179594650Y-136316600D01*
X178745400Y-136316600D01*
X178491400Y-136316600D01*
X178471400Y-136316600D01*
X178471400Y-136062600D01*
X178491400Y-136062600D01*
X178491400Y-133963350D01*
X178745400Y-133963350D01*
X178745400Y-136062600D01*
X179594650Y-136062600D01*
X179753400Y-135903850D01*
X179756472Y-134439600D01*
X179744212Y-134315118D01*
X179707902Y-134195420D01*
X179648937Y-134085106D01*
X179569585Y-133988415D01*
X179472894Y-133909063D01*
X179362580Y-133850098D01*
X179242882Y-133813788D01*
X179118400Y-133801528D01*
X178904150Y-133804600D01*
X178745400Y-133963350D01*
X178491400Y-133963350D01*
X178332650Y-133804600D01*
X178118400Y-133801528D01*
X177993918Y-133813788D01*
X177874220Y-133850098D01*
X177763906Y-133909063D01*
X177667215Y-133988415D01*
X177587863Y-134085106D01*
X177559369Y-134138413D01*
X177496362Y-134061638D01*
X177361786Y-133951195D01*
X177262600Y-133898179D01*
X177262600Y-130281654D01*
X177294805Y-130233456D01*
X177372826Y-130045098D01*
X177412600Y-129845139D01*
X177412600Y-129641261D01*
X177372826Y-129441302D01*
X177294805Y-129252944D01*
X177181537Y-129083426D01*
X177037374Y-128939263D01*
X176867856Y-128825995D01*
X176679498Y-128747974D01*
X176479539Y-128708200D01*
X176275661Y-128708200D01*
X176075702Y-128747974D01*
X175887344Y-128825995D01*
X175717826Y-128939263D01*
X175573663Y-129083426D01*
X175535400Y-129140691D01*
X175535400Y-126992190D01*
X175557581Y-127019217D01*
X175591349Y-127046930D01*
X175591351Y-127046932D01*
X175692339Y-127129811D01*
X175846085Y-127211989D01*
X176012908Y-127262595D01*
X176142921Y-127275400D01*
X176142929Y-127275400D01*
X176186398Y-127279681D01*
X176229867Y-127275400D01*
X176569822Y-127275400D01*
X177345388Y-128050967D01*
X177323815Y-128270000D01*
X177352487Y-128561111D01*
X177437401Y-128841034D01*
X177575294Y-129099014D01*
X177760866Y-129325134D01*
X177986986Y-129510706D01*
X178244966Y-129648599D01*
X178524889Y-129733513D01*
X178743050Y-129755000D01*
X178888950Y-129755000D01*
X179107111Y-129733513D01*
X179387034Y-129648599D01*
X179645014Y-129510706D01*
X179871134Y-129325134D01*
X180056706Y-129099014D01*
X180194599Y-128841034D01*
X180279513Y-128561111D01*
X180308185Y-128270000D01*
X180279513Y-127978889D01*
X180194599Y-127698966D01*
X180056706Y-127440986D01*
X179871134Y-127214866D01*
X179645014Y-127029294D01*
X179590209Y-127000000D01*
X179645014Y-126970706D01*
X179871134Y-126785134D01*
X180056706Y-126559014D01*
X180194599Y-126301034D01*
X180279513Y-126021111D01*
X180308185Y-125730000D01*
X180279513Y-125438889D01*
X180194599Y-125158966D01*
X180056706Y-124900986D01*
X179871134Y-124674866D01*
X179645014Y-124489294D01*
X179590209Y-124460000D01*
X179645014Y-124430706D01*
X179871134Y-124245134D01*
X180056706Y-124019014D01*
X180194599Y-123761034D01*
X180279513Y-123481111D01*
X180308185Y-123190000D01*
X180279513Y-122898889D01*
X180194599Y-122618966D01*
X180056706Y-122360986D01*
X179871134Y-122134866D01*
X179645014Y-121949294D01*
X179590209Y-121920000D01*
X179645014Y-121890706D01*
X179871134Y-121705134D01*
X180056706Y-121479014D01*
X180194599Y-121221034D01*
X180279513Y-120941111D01*
X180308185Y-120650000D01*
X180279513Y-120358889D01*
X180194599Y-120078966D01*
X180056706Y-119820986D01*
X179871134Y-119594866D01*
X179645014Y-119409294D01*
X179590209Y-119380000D01*
X179645014Y-119350706D01*
X179871134Y-119165134D01*
X180056706Y-118939014D01*
X180194599Y-118681034D01*
X180279513Y-118401111D01*
X180308185Y-118110000D01*
X180279513Y-117818889D01*
X180194599Y-117538966D01*
X180056706Y-117280986D01*
X179871134Y-117054866D01*
X179645014Y-116869294D01*
X179590209Y-116840000D01*
X179645014Y-116810706D01*
X179871134Y-116625134D01*
X180056706Y-116399014D01*
X180194599Y-116141034D01*
X180279513Y-115861111D01*
X180308185Y-115570000D01*
X180279513Y-115278889D01*
X180194599Y-114998966D01*
X180056706Y-114740986D01*
X179871134Y-114514866D01*
X179645014Y-114329294D01*
X179590209Y-114300000D01*
X179645014Y-114270706D01*
X179871134Y-114085134D01*
X180056706Y-113859014D01*
X180194599Y-113601034D01*
X180279513Y-113321111D01*
X180308185Y-113030000D01*
X180279513Y-112738889D01*
X180194599Y-112458966D01*
X180056706Y-112200986D01*
X179871134Y-111974866D01*
X179645014Y-111789294D01*
X179590209Y-111760000D01*
X179645014Y-111730706D01*
X179871134Y-111545134D01*
X180056706Y-111319014D01*
X180194599Y-111061034D01*
X180279513Y-110781111D01*
X180308185Y-110490000D01*
X180279513Y-110198889D01*
X180194599Y-109918966D01*
X180056706Y-109660986D01*
X179871134Y-109434866D01*
X179645014Y-109249294D01*
X179590209Y-109220000D01*
X179645014Y-109190706D01*
X179871134Y-109005134D01*
X180056706Y-108779014D01*
X180194599Y-108521034D01*
X180279513Y-108241111D01*
X180308185Y-107950000D01*
X180279513Y-107658889D01*
X180194599Y-107378966D01*
X180056706Y-107120986D01*
X179871134Y-106894866D01*
X179645014Y-106709294D01*
X179590209Y-106680000D01*
X179645014Y-106650706D01*
X179871134Y-106465134D01*
X180056706Y-106239014D01*
X180194599Y-105981034D01*
X180279513Y-105701111D01*
X180308185Y-105410000D01*
X180279513Y-105118889D01*
X180194599Y-104838966D01*
X180056706Y-104580986D01*
X179871134Y-104354866D01*
X179645014Y-104169294D01*
X179590209Y-104140000D01*
X179645014Y-104110706D01*
X179871134Y-103925134D01*
X180056706Y-103699014D01*
X180194599Y-103441034D01*
X180279513Y-103161111D01*
X180308185Y-102870000D01*
X180279513Y-102578889D01*
X180194599Y-102298966D01*
X180056706Y-102040986D01*
X179871134Y-101814866D01*
X179645014Y-101629294D01*
X179590209Y-101600000D01*
X179645014Y-101570706D01*
X179871134Y-101385134D01*
X180056706Y-101159014D01*
X180194599Y-100901034D01*
X180279513Y-100621111D01*
X180308185Y-100330000D01*
X180279513Y-100038889D01*
X180194599Y-99758966D01*
X180056706Y-99500986D01*
X179871134Y-99274866D01*
X179645014Y-99089294D01*
X179590209Y-99060000D01*
X179645014Y-99030706D01*
X179871134Y-98845134D01*
X180056706Y-98619014D01*
X180194599Y-98361034D01*
X180279513Y-98081111D01*
X180308185Y-97790000D01*
X180279513Y-97498889D01*
X180194599Y-97218966D01*
X180056706Y-96960986D01*
X179871134Y-96734866D01*
X179841313Y-96710393D01*
X179910180Y-96689502D01*
X180020494Y-96630537D01*
X180117185Y-96551185D01*
X180196537Y-96454494D01*
X180255502Y-96344180D01*
X180291812Y-96224482D01*
X180304072Y-96100000D01*
X180301000Y-95535750D01*
X180142250Y-95377000D01*
X178943000Y-95377000D01*
X178943000Y-95397000D01*
X178689000Y-95397000D01*
X178689000Y-95377000D01*
X177489750Y-95377000D01*
X177331000Y-95535750D01*
X177330933Y-95547982D01*
X177198490Y-95507805D01*
X177068477Y-95495000D01*
X177068469Y-95495000D01*
X177025000Y-95490719D01*
X176981531Y-95495000D01*
X175142295Y-95495000D01*
X175174408Y-95404001D01*
X175047502Y-95237000D01*
X173457000Y-95237000D01*
X173457000Y-95257000D01*
X173203000Y-95257000D01*
X173203000Y-95237000D01*
X171612498Y-95237000D01*
X171485592Y-95404001D01*
X171557298Y-95607197D01*
X171646537Y-95746208D01*
X171623491Y-95774290D01*
X171522741Y-95962780D01*
X171460700Y-96167303D01*
X171439751Y-96380000D01*
X171460700Y-96592697D01*
X171522741Y-96797220D01*
X171623491Y-96985710D01*
X171647529Y-97015000D01*
X171623491Y-97044290D01*
X171522741Y-97232780D01*
X171460700Y-97437303D01*
X171439751Y-97650000D01*
X171454740Y-97802190D01*
X171297939Y-97771000D01*
X171094061Y-97771000D01*
X170894102Y-97810774D01*
X170705744Y-97888795D01*
X170536226Y-98002063D01*
X170392063Y-98146226D01*
X170278795Y-98315744D01*
X170200774Y-98504102D01*
X170161000Y-98704061D01*
X170161000Y-98907939D01*
X170200774Y-99107898D01*
X170278795Y-99296256D01*
X170375510Y-99441000D01*
X170278795Y-99585744D01*
X170200774Y-99774102D01*
X170161000Y-99974061D01*
X170161000Y-100177939D01*
X170200774Y-100377898D01*
X170278795Y-100566256D01*
X170375510Y-100711000D01*
X170278795Y-100855744D01*
X170200774Y-101044102D01*
X170161000Y-101244061D01*
X170161000Y-101447939D01*
X170200774Y-101647898D01*
X170278795Y-101836256D01*
X170392063Y-102005774D01*
X170536226Y-102149937D01*
X170705744Y-102263205D01*
X170894102Y-102341226D01*
X171094061Y-102381000D01*
X171297939Y-102381000D01*
X171478925Y-102345000D01*
X171512967Y-102345000D01*
X171460700Y-102517303D01*
X171439751Y-102730000D01*
X171454740Y-102882190D01*
X171297939Y-102851000D01*
X171094061Y-102851000D01*
X170894102Y-102890774D01*
X170705744Y-102968795D01*
X170536226Y-103082063D01*
X170392063Y-103226226D01*
X170278795Y-103395744D01*
X170200774Y-103584102D01*
X170161000Y-103784061D01*
X170161000Y-103987939D01*
X170200774Y-104187898D01*
X170278795Y-104376256D01*
X170375510Y-104521000D01*
X170278795Y-104665744D01*
X170200774Y-104854102D01*
X170161000Y-105054061D01*
X170161000Y-105257939D01*
X170200774Y-105457898D01*
X170278795Y-105646256D01*
X170375510Y-105791000D01*
X170278795Y-105935744D01*
X170200774Y-106124102D01*
X170161000Y-106324061D01*
X170161000Y-106527939D01*
X170200774Y-106727898D01*
X170278795Y-106916256D01*
X170392063Y-107085774D01*
X170536226Y-107229937D01*
X170705744Y-107343205D01*
X170894102Y-107421226D01*
X171094061Y-107461000D01*
X171297939Y-107461000D01*
X171478925Y-107425000D01*
X171512967Y-107425000D01*
X171460700Y-107597303D01*
X171439751Y-107810000D01*
X171460700Y-108022697D01*
X171522741Y-108227220D01*
X171623491Y-108415710D01*
X171647529Y-108445000D01*
X171623491Y-108474290D01*
X171522741Y-108662780D01*
X171460700Y-108867303D01*
X171439751Y-109080000D01*
X171460700Y-109292697D01*
X171522741Y-109497220D01*
X171623491Y-109685710D01*
X171647529Y-109715000D01*
X171623491Y-109744290D01*
X171522741Y-109932780D01*
X171460700Y-110137303D01*
X171439751Y-110350000D01*
X171460700Y-110562697D01*
X171522741Y-110767220D01*
X171623491Y-110955710D01*
X171647529Y-110985000D01*
X171623491Y-111014290D01*
X171522741Y-111202780D01*
X171460700Y-111407303D01*
X171439751Y-111620000D01*
X171460700Y-111832697D01*
X171522741Y-112037220D01*
X171623491Y-112225710D01*
X171759078Y-112390922D01*
X171924290Y-112526509D01*
X172112780Y-112627259D01*
X172317303Y-112689300D01*
X172445000Y-112701877D01*
X172445001Y-113609420D01*
X171761556Y-114292866D01*
X171727783Y-114320583D01*
X171617189Y-114455342D01*
X171535011Y-114609088D01*
X171504155Y-114710805D01*
X171494555Y-114742453D01*
X171484405Y-114775911D01*
X171471600Y-114905924D01*
X171471600Y-114905931D01*
X171467319Y-114949400D01*
X171471600Y-114992870D01*
X171471600Y-115009022D01*
X171163134Y-114700556D01*
X171135417Y-114666783D01*
X171000659Y-114556189D01*
X170943404Y-114525586D01*
X170951509Y-114515710D01*
X171052259Y-114327220D01*
X171114300Y-114122697D01*
X171130000Y-113963294D01*
X171130000Y-112256706D01*
X171114300Y-112097303D01*
X171052259Y-111892780D01*
X170951509Y-111704290D01*
X170815922Y-111539078D01*
X170650710Y-111403491D01*
X170462220Y-111302741D01*
X170257697Y-111240700D01*
X170045000Y-111219751D01*
X169832304Y-111240700D01*
X169627781Y-111302741D01*
X169439291Y-111403491D01*
X169410001Y-111427529D01*
X169380710Y-111403491D01*
X169192220Y-111302741D01*
X168987697Y-111240700D01*
X168775000Y-111219751D01*
X168562304Y-111240700D01*
X168357781Y-111302741D01*
X168169291Y-111403491D01*
X168140001Y-111427529D01*
X168110710Y-111403491D01*
X167922220Y-111302741D01*
X167717697Y-111240700D01*
X167505000Y-111219751D01*
X167292304Y-111240700D01*
X167087781Y-111302741D01*
X166899291Y-111403491D01*
X166870001Y-111427529D01*
X166840710Y-111403491D01*
X166652220Y-111302741D01*
X166447697Y-111240700D01*
X166235000Y-111219751D01*
X166022304Y-111240700D01*
X165817781Y-111302741D01*
X165629291Y-111403491D01*
X165600001Y-111427529D01*
X165570710Y-111403491D01*
X165382220Y-111302741D01*
X165177697Y-111240700D01*
X164965000Y-111219751D01*
X164752304Y-111240700D01*
X164547781Y-111302741D01*
X164359291Y-111403491D01*
X164330001Y-111427529D01*
X164300710Y-111403491D01*
X164112220Y-111302741D01*
X163907697Y-111240700D01*
X163695000Y-111219751D01*
X163482304Y-111240700D01*
X163277781Y-111302741D01*
X163089291Y-111403491D01*
X163060001Y-111427529D01*
X163030710Y-111403491D01*
X162842220Y-111302741D01*
X162637697Y-111240700D01*
X162425000Y-111219751D01*
X162212304Y-111240700D01*
X162007781Y-111302741D01*
X161819291Y-111403491D01*
X161790001Y-111427529D01*
X161760710Y-111403491D01*
X161572220Y-111302741D01*
X161367697Y-111240700D01*
X161155000Y-111219751D01*
X160942304Y-111240700D01*
X160737781Y-111302741D01*
X160549291Y-111403491D01*
X160520001Y-111427529D01*
X160490710Y-111403491D01*
X160302220Y-111302741D01*
X160097697Y-111240700D01*
X159885000Y-111219751D01*
X159672304Y-111240700D01*
X159467781Y-111302741D01*
X159279291Y-111403491D01*
X159250001Y-111427529D01*
X159220710Y-111403491D01*
X159033635Y-111303497D01*
X159089141Y-111247991D01*
X159132450Y-111212448D01*
X159274285Y-111039622D01*
X159379677Y-110842446D01*
X159433964Y-110663489D01*
X159444578Y-110628499D01*
X159453126Y-110541704D01*
X159461001Y-110461751D01*
X159461001Y-110461744D01*
X159466491Y-110406000D01*
X159461001Y-110350256D01*
X159461001Y-105810000D01*
X160391928Y-105810000D01*
X160404188Y-105934482D01*
X160440498Y-106054180D01*
X160499463Y-106164494D01*
X160578815Y-106261185D01*
X160675506Y-106340537D01*
X160785820Y-106399502D01*
X160905518Y-106435812D01*
X161030000Y-106448072D01*
X163744250Y-106445000D01*
X163903000Y-106286250D01*
X163903000Y-102937000D01*
X164157000Y-102937000D01*
X164157000Y-106286250D01*
X164315750Y-106445000D01*
X167030000Y-106448072D01*
X167154482Y-106435812D01*
X167274180Y-106399502D01*
X167384494Y-106340537D01*
X167481185Y-106261185D01*
X167560537Y-106164494D01*
X167619502Y-106054180D01*
X167655812Y-105934482D01*
X167668072Y-105810000D01*
X167665000Y-103095750D01*
X167506250Y-102937000D01*
X164157000Y-102937000D01*
X163903000Y-102937000D01*
X160553750Y-102937000D01*
X160395000Y-103095750D01*
X160391928Y-105810000D01*
X159461001Y-105810000D01*
X159461001Y-99810000D01*
X160391928Y-99810000D01*
X160395000Y-102524250D01*
X160553750Y-102683000D01*
X163903000Y-102683000D01*
X163903000Y-99333750D01*
X164157000Y-99333750D01*
X164157000Y-102683000D01*
X167506250Y-102683000D01*
X167665000Y-102524250D01*
X167668072Y-99810000D01*
X167655812Y-99685518D01*
X167619502Y-99565820D01*
X167560537Y-99455506D01*
X167481185Y-99358815D01*
X167384494Y-99279463D01*
X167274180Y-99220498D01*
X167154482Y-99184188D01*
X167030000Y-99171928D01*
X164315750Y-99175000D01*
X164157000Y-99333750D01*
X163903000Y-99333750D01*
X163744250Y-99175000D01*
X161030000Y-99171928D01*
X160905518Y-99184188D01*
X160785820Y-99220498D01*
X160675506Y-99279463D01*
X160578815Y-99358815D01*
X160499463Y-99455506D01*
X160440498Y-99565820D01*
X160404188Y-99685518D01*
X160391928Y-99810000D01*
X159461001Y-99810000D01*
X159461001Y-97317740D01*
X159466491Y-97261998D01*
X159461001Y-97206256D01*
X159461001Y-97206247D01*
X159444578Y-97039500D01*
X159379677Y-96825552D01*
X159274285Y-96628376D01*
X159132450Y-96455550D01*
X159089141Y-96420007D01*
X158356006Y-95686873D01*
X158320460Y-95643560D01*
X158147634Y-95501725D01*
X157950458Y-95396333D01*
X157736510Y-95331432D01*
X157569763Y-95315009D01*
X157569762Y-95315009D01*
X157514011Y-95309518D01*
X157458260Y-95315009D01*
X157106782Y-95315009D01*
X157047502Y-95237000D01*
X155460131Y-95237000D01*
X155368752Y-95228000D01*
X155368751Y-95228000D01*
X155313000Y-95222509D01*
X155257249Y-95228000D01*
X155183000Y-95228000D01*
X155183000Y-94983000D01*
X155203000Y-94983000D01*
X155203000Y-94963000D01*
X155457000Y-94963000D01*
X155457000Y-94983000D01*
X157047502Y-94983000D01*
X157174408Y-94815999D01*
X157102702Y-94612803D01*
X156987014Y-94432592D01*
X156838391Y-94278413D01*
X156663709Y-94157000D01*
X171996291Y-94157000D01*
X171821609Y-94278413D01*
X171821609Y-94278413D01*
G37*
X171821609Y-94278413D02*
X171672986Y-94432592D01*
X171557298Y-94612803D01*
X171485592Y-94815999D01*
X171612498Y-94983000D01*
X173203000Y-94983000D01*
X173203000Y-94963000D01*
X173457000Y-94963000D01*
X173457000Y-94983000D01*
X175047502Y-94983000D01*
X175174408Y-94815999D01*
X175102702Y-94612803D01*
X174987014Y-94432592D01*
X174838391Y-94278413D01*
X174663709Y-94157000D01*
X177376140Y-94157000D01*
X177340188Y-94275518D01*
X177327928Y-94400000D01*
X177331000Y-94964250D01*
X177489750Y-95123000D01*
X178689000Y-95123000D01*
X178689000Y-95103000D01*
X178943000Y-95103000D01*
X178943000Y-95123000D01*
X180142250Y-95123000D01*
X180301000Y-94964250D01*
X180304072Y-94400000D01*
X180291812Y-94275518D01*
X180255860Y-94157000D01*
X180560496Y-94157000D01*
X180706992Y-94171364D01*
X180815670Y-94204176D01*
X180915918Y-94257479D01*
X181003897Y-94329232D01*
X181076263Y-94416707D01*
X181130263Y-94516579D01*
X181163833Y-94625027D01*
X181179000Y-94769331D01*
X181179001Y-139601528D01*
X180468400Y-139601528D01*
X180295146Y-139618592D01*
X180128550Y-139669128D01*
X179975014Y-139751195D01*
X179840438Y-139861638D01*
X179729995Y-139996214D01*
X179647928Y-140149750D01*
X179597392Y-140316346D01*
X179580328Y-140489600D01*
X179580328Y-143206000D01*
X171656472Y-143206000D01*
X171656472Y-140489600D01*
X171639408Y-140316346D01*
X171588872Y-140149750D01*
X171506805Y-139996214D01*
X171396362Y-139861638D01*
X171261786Y-139751195D01*
X171108250Y-139669128D01*
X170941654Y-139618592D01*
X170807730Y-139605402D01*
X171946771Y-138466360D01*
X172028550Y-138510072D01*
X172195146Y-138560608D01*
X172368400Y-138577672D01*
X172868400Y-138577672D01*
X173041654Y-138560608D01*
X173208250Y-138510072D01*
X173361786Y-138428005D01*
X173496362Y-138317562D01*
X173606805Y-138182986D01*
X173618400Y-138161293D01*
X173629995Y-138182986D01*
X173740438Y-138317562D01*
X173875014Y-138428005D01*
X174028550Y-138510072D01*
X174195146Y-138560608D01*
X174368400Y-138577672D01*
X174868400Y-138577672D01*
X175041654Y-138560608D01*
X175208250Y-138510072D01*
X175361786Y-138428005D01*
X175496362Y-138317562D01*
X175606805Y-138182986D01*
X175618400Y-138161293D01*
X175629995Y-138182986D01*
X175740438Y-138317562D01*
X175875014Y-138428005D01*
X176028550Y-138510072D01*
X176195146Y-138560608D01*
X176368400Y-138577672D01*
X176868400Y-138577672D01*
X177041654Y-138560608D01*
X177208250Y-138510072D01*
X177361786Y-138428005D01*
X177496362Y-138317562D01*
X177559369Y-138240787D01*
X177587863Y-138294094D01*
X177667215Y-138390785D01*
X177763906Y-138470137D01*
X177874220Y-138529102D01*
X177993918Y-138565412D01*
X178118400Y-138577672D01*
X178332650Y-138574600D01*
X178491400Y-138415850D01*
X178491400Y-136316600D01*
X178745400Y-136316600D01*
X178745400Y-138415850D01*
X178904150Y-138574600D01*
X179118400Y-138577672D01*
X179242882Y-138565412D01*
X179362580Y-138529102D01*
X179472894Y-138470137D01*
X179569585Y-138390785D01*
X179648937Y-138294094D01*
X179707902Y-138183780D01*
X179744212Y-138064082D01*
X179756472Y-137939600D01*
X179753400Y-136475350D01*
X179594650Y-136316600D01*
X178745400Y-136316600D01*
X178491400Y-136316600D01*
X178471400Y-136316600D01*
X178471400Y-136062600D01*
X178491400Y-136062600D01*
X178491400Y-133963350D01*
X178745400Y-133963350D01*
X178745400Y-136062600D01*
X179594650Y-136062600D01*
X179753400Y-135903850D01*
X179756472Y-134439600D01*
X179744212Y-134315118D01*
X179707902Y-134195420D01*
X179648937Y-134085106D01*
X179569585Y-133988415D01*
X179472894Y-133909063D01*
X179362580Y-133850098D01*
X179242882Y-133813788D01*
X179118400Y-133801528D01*
X178904150Y-133804600D01*
X178745400Y-133963350D01*
X178491400Y-133963350D01*
X178332650Y-133804600D01*
X178118400Y-133801528D01*
X177993918Y-133813788D01*
X177874220Y-133850098D01*
X177763906Y-133909063D01*
X177667215Y-133988415D01*
X177587863Y-134085106D01*
X177559369Y-134138413D01*
X177496362Y-134061638D01*
X177361786Y-133951195D01*
X177262600Y-133898179D01*
X177262600Y-130281654D01*
X177294805Y-130233456D01*
X177372826Y-130045098D01*
X177412600Y-129845139D01*
X177412600Y-129641261D01*
X177372826Y-129441302D01*
X177294805Y-129252944D01*
X177181537Y-129083426D01*
X177037374Y-128939263D01*
X176867856Y-128825995D01*
X176679498Y-128747974D01*
X176479539Y-128708200D01*
X176275661Y-128708200D01*
X176075702Y-128747974D01*
X175887344Y-128825995D01*
X175717826Y-128939263D01*
X175573663Y-129083426D01*
X175535400Y-129140691D01*
X175535400Y-126992190D01*
X175557581Y-127019217D01*
X175591349Y-127046930D01*
X175591351Y-127046932D01*
X175692339Y-127129811D01*
X175846085Y-127211989D01*
X176012908Y-127262595D01*
X176142921Y-127275400D01*
X176142929Y-127275400D01*
X176186398Y-127279681D01*
X176229867Y-127275400D01*
X176569822Y-127275400D01*
X177345388Y-128050967D01*
X177323815Y-128270000D01*
X177352487Y-128561111D01*
X177437401Y-128841034D01*
X177575294Y-129099014D01*
X177760866Y-129325134D01*
X177986986Y-129510706D01*
X178244966Y-129648599D01*
X178524889Y-129733513D01*
X178743050Y-129755000D01*
X178888950Y-129755000D01*
X179107111Y-129733513D01*
X179387034Y-129648599D01*
X179645014Y-129510706D01*
X179871134Y-129325134D01*
X180056706Y-129099014D01*
X180194599Y-128841034D01*
X180279513Y-128561111D01*
X180308185Y-128270000D01*
X180279513Y-127978889D01*
X180194599Y-127698966D01*
X180056706Y-127440986D01*
X179871134Y-127214866D01*
X179645014Y-127029294D01*
X179590209Y-127000000D01*
X179645014Y-126970706D01*
X179871134Y-126785134D01*
X180056706Y-126559014D01*
X180194599Y-126301034D01*
X180279513Y-126021111D01*
X180308185Y-125730000D01*
X180279513Y-125438889D01*
X180194599Y-125158966D01*
X180056706Y-124900986D01*
X179871134Y-124674866D01*
X179645014Y-124489294D01*
X179590209Y-124460000D01*
X179645014Y-124430706D01*
X179871134Y-124245134D01*
X180056706Y-124019014D01*
X180194599Y-123761034D01*
X180279513Y-123481111D01*
X180308185Y-123190000D01*
X180279513Y-122898889D01*
X180194599Y-122618966D01*
X180056706Y-122360986D01*
X179871134Y-122134866D01*
X179645014Y-121949294D01*
X179590209Y-121920000D01*
X179645014Y-121890706D01*
X179871134Y-121705134D01*
X180056706Y-121479014D01*
X180194599Y-121221034D01*
X180279513Y-120941111D01*
X180308185Y-120650000D01*
X180279513Y-120358889D01*
X180194599Y-120078966D01*
X180056706Y-119820986D01*
X179871134Y-119594866D01*
X179645014Y-119409294D01*
X179590209Y-119380000D01*
X179645014Y-119350706D01*
X179871134Y-119165134D01*
X180056706Y-118939014D01*
X180194599Y-118681034D01*
X180279513Y-118401111D01*
X180308185Y-118110000D01*
X180279513Y-117818889D01*
X180194599Y-117538966D01*
X180056706Y-117280986D01*
X179871134Y-117054866D01*
X179645014Y-116869294D01*
X179590209Y-116840000D01*
X179645014Y-116810706D01*
X179871134Y-116625134D01*
X180056706Y-116399014D01*
X180194599Y-116141034D01*
X180279513Y-115861111D01*
X180308185Y-115570000D01*
X180279513Y-115278889D01*
X180194599Y-114998966D01*
X180056706Y-114740986D01*
X179871134Y-114514866D01*
X179645014Y-114329294D01*
X179590209Y-114300000D01*
X179645014Y-114270706D01*
X179871134Y-114085134D01*
X180056706Y-113859014D01*
X180194599Y-113601034D01*
X180279513Y-113321111D01*
X180308185Y-113030000D01*
X180279513Y-112738889D01*
X180194599Y-112458966D01*
X180056706Y-112200986D01*
X179871134Y-111974866D01*
X179645014Y-111789294D01*
X179590209Y-111760000D01*
X179645014Y-111730706D01*
X179871134Y-111545134D01*
X180056706Y-111319014D01*
X180194599Y-111061034D01*
X180279513Y-110781111D01*
X180308185Y-110490000D01*
X180279513Y-110198889D01*
X180194599Y-109918966D01*
X180056706Y-109660986D01*
X179871134Y-109434866D01*
X179645014Y-109249294D01*
X179590209Y-109220000D01*
X179645014Y-109190706D01*
X179871134Y-109005134D01*
X180056706Y-108779014D01*
X180194599Y-108521034D01*
X180279513Y-108241111D01*
X180308185Y-107950000D01*
X180279513Y-107658889D01*
X180194599Y-107378966D01*
X180056706Y-107120986D01*
X179871134Y-106894866D01*
X179645014Y-106709294D01*
X179590209Y-106680000D01*
X179645014Y-106650706D01*
X179871134Y-106465134D01*
X180056706Y-106239014D01*
X180194599Y-105981034D01*
X180279513Y-105701111D01*
X180308185Y-105410000D01*
X180279513Y-105118889D01*
X180194599Y-104838966D01*
X180056706Y-104580986D01*
X179871134Y-104354866D01*
X179645014Y-104169294D01*
X179590209Y-104140000D01*
X179645014Y-104110706D01*
X179871134Y-103925134D01*
X180056706Y-103699014D01*
X180194599Y-103441034D01*
X180279513Y-103161111D01*
X180308185Y-102870000D01*
X180279513Y-102578889D01*
X180194599Y-102298966D01*
X180056706Y-102040986D01*
X179871134Y-101814866D01*
X179645014Y-101629294D01*
X179590209Y-101600000D01*
X179645014Y-101570706D01*
X179871134Y-101385134D01*
X180056706Y-101159014D01*
X180194599Y-100901034D01*
X180279513Y-100621111D01*
X180308185Y-100330000D01*
X180279513Y-100038889D01*
X180194599Y-99758966D01*
X180056706Y-99500986D01*
X179871134Y-99274866D01*
X179645014Y-99089294D01*
X179590209Y-99060000D01*
X179645014Y-99030706D01*
X179871134Y-98845134D01*
X180056706Y-98619014D01*
X180194599Y-98361034D01*
X180279513Y-98081111D01*
X180308185Y-97790000D01*
X180279513Y-97498889D01*
X180194599Y-97218966D01*
X180056706Y-96960986D01*
X179871134Y-96734866D01*
X179841313Y-96710393D01*
X179910180Y-96689502D01*
X180020494Y-96630537D01*
X180117185Y-96551185D01*
X180196537Y-96454494D01*
X180255502Y-96344180D01*
X180291812Y-96224482D01*
X180304072Y-96100000D01*
X180301000Y-95535750D01*
X180142250Y-95377000D01*
X178943000Y-95377000D01*
X178943000Y-95397000D01*
X178689000Y-95397000D01*
X178689000Y-95377000D01*
X177489750Y-95377000D01*
X177331000Y-95535750D01*
X177330933Y-95547982D01*
X177198490Y-95507805D01*
X177068477Y-95495000D01*
X177068469Y-95495000D01*
X177025000Y-95490719D01*
X176981531Y-95495000D01*
X175142295Y-95495000D01*
X175174408Y-95404001D01*
X175047502Y-95237000D01*
X173457000Y-95237000D01*
X173457000Y-95257000D01*
X173203000Y-95257000D01*
X173203000Y-95237000D01*
X171612498Y-95237000D01*
X171485592Y-95404001D01*
X171557298Y-95607197D01*
X171646537Y-95746208D01*
X171623491Y-95774290D01*
X171522741Y-95962780D01*
X171460700Y-96167303D01*
X171439751Y-96380000D01*
X171460700Y-96592697D01*
X171522741Y-96797220D01*
X171623491Y-96985710D01*
X171647529Y-97015000D01*
X171623491Y-97044290D01*
X171522741Y-97232780D01*
X171460700Y-97437303D01*
X171439751Y-97650000D01*
X171454740Y-97802190D01*
X171297939Y-97771000D01*
X171094061Y-97771000D01*
X170894102Y-97810774D01*
X170705744Y-97888795D01*
X170536226Y-98002063D01*
X170392063Y-98146226D01*
X170278795Y-98315744D01*
X170200774Y-98504102D01*
X170161000Y-98704061D01*
X170161000Y-98907939D01*
X170200774Y-99107898D01*
X170278795Y-99296256D01*
X170375510Y-99441000D01*
X170278795Y-99585744D01*
X170200774Y-99774102D01*
X170161000Y-99974061D01*
X170161000Y-100177939D01*
X170200774Y-100377898D01*
X170278795Y-100566256D01*
X170375510Y-100711000D01*
X170278795Y-100855744D01*
X170200774Y-101044102D01*
X170161000Y-101244061D01*
X170161000Y-101447939D01*
X170200774Y-101647898D01*
X170278795Y-101836256D01*
X170392063Y-102005774D01*
X170536226Y-102149937D01*
X170705744Y-102263205D01*
X170894102Y-102341226D01*
X171094061Y-102381000D01*
X171297939Y-102381000D01*
X171478925Y-102345000D01*
X171512967Y-102345000D01*
X171460700Y-102517303D01*
X171439751Y-102730000D01*
X171454740Y-102882190D01*
X171297939Y-102851000D01*
X171094061Y-102851000D01*
X170894102Y-102890774D01*
X170705744Y-102968795D01*
X170536226Y-103082063D01*
X170392063Y-103226226D01*
X170278795Y-103395744D01*
X170200774Y-103584102D01*
X170161000Y-103784061D01*
X170161000Y-103987939D01*
X170200774Y-104187898D01*
X170278795Y-104376256D01*
X170375510Y-104521000D01*
X170278795Y-104665744D01*
X170200774Y-104854102D01*
X170161000Y-105054061D01*
X170161000Y-105257939D01*
X170200774Y-105457898D01*
X170278795Y-105646256D01*
X170375510Y-105791000D01*
X170278795Y-105935744D01*
X170200774Y-106124102D01*
X170161000Y-106324061D01*
X170161000Y-106527939D01*
X170200774Y-106727898D01*
X170278795Y-106916256D01*
X170392063Y-107085774D01*
X170536226Y-107229937D01*
X170705744Y-107343205D01*
X170894102Y-107421226D01*
X171094061Y-107461000D01*
X171297939Y-107461000D01*
X171478925Y-107425000D01*
X171512967Y-107425000D01*
X171460700Y-107597303D01*
X171439751Y-107810000D01*
X171460700Y-108022697D01*
X171522741Y-108227220D01*
X171623491Y-108415710D01*
X171647529Y-108445000D01*
X171623491Y-108474290D01*
X171522741Y-108662780D01*
X171460700Y-108867303D01*
X171439751Y-109080000D01*
X171460700Y-109292697D01*
X171522741Y-109497220D01*
X171623491Y-109685710D01*
X171647529Y-109715000D01*
X171623491Y-109744290D01*
X171522741Y-109932780D01*
X171460700Y-110137303D01*
X171439751Y-110350000D01*
X171460700Y-110562697D01*
X171522741Y-110767220D01*
X171623491Y-110955710D01*
X171647529Y-110985000D01*
X171623491Y-111014290D01*
X171522741Y-111202780D01*
X171460700Y-111407303D01*
X171439751Y-111620000D01*
X171460700Y-111832697D01*
X171522741Y-112037220D01*
X171623491Y-112225710D01*
X171759078Y-112390922D01*
X171924290Y-112526509D01*
X172112780Y-112627259D01*
X172317303Y-112689300D01*
X172445000Y-112701877D01*
X172445001Y-113609420D01*
X171761556Y-114292866D01*
X171727783Y-114320583D01*
X171617189Y-114455342D01*
X171535011Y-114609088D01*
X171504155Y-114710805D01*
X171494555Y-114742453D01*
X171484405Y-114775911D01*
X171471600Y-114905924D01*
X171471600Y-114905931D01*
X171467319Y-114949400D01*
X171471600Y-114992870D01*
X171471600Y-115009022D01*
X171163134Y-114700556D01*
X171135417Y-114666783D01*
X171000659Y-114556189D01*
X170943404Y-114525586D01*
X170951509Y-114515710D01*
X171052259Y-114327220D01*
X171114300Y-114122697D01*
X171130000Y-113963294D01*
X171130000Y-112256706D01*
X171114300Y-112097303D01*
X171052259Y-111892780D01*
X170951509Y-111704290D01*
X170815922Y-111539078D01*
X170650710Y-111403491D01*
X170462220Y-111302741D01*
X170257697Y-111240700D01*
X170045000Y-111219751D01*
X169832304Y-111240700D01*
X169627781Y-111302741D01*
X169439291Y-111403491D01*
X169410001Y-111427529D01*
X169380710Y-111403491D01*
X169192220Y-111302741D01*
X168987697Y-111240700D01*
X168775000Y-111219751D01*
X168562304Y-111240700D01*
X168357781Y-111302741D01*
X168169291Y-111403491D01*
X168140001Y-111427529D01*
X168110710Y-111403491D01*
X167922220Y-111302741D01*
X167717697Y-111240700D01*
X167505000Y-111219751D01*
X167292304Y-111240700D01*
X167087781Y-111302741D01*
X166899291Y-111403491D01*
X166870001Y-111427529D01*
X166840710Y-111403491D01*
X166652220Y-111302741D01*
X166447697Y-111240700D01*
X166235000Y-111219751D01*
X166022304Y-111240700D01*
X165817781Y-111302741D01*
X165629291Y-111403491D01*
X165600001Y-111427529D01*
X165570710Y-111403491D01*
X165382220Y-111302741D01*
X165177697Y-111240700D01*
X164965000Y-111219751D01*
X164752304Y-111240700D01*
X164547781Y-111302741D01*
X164359291Y-111403491D01*
X164330001Y-111427529D01*
X164300710Y-111403491D01*
X164112220Y-111302741D01*
X163907697Y-111240700D01*
X163695000Y-111219751D01*
X163482304Y-111240700D01*
X163277781Y-111302741D01*
X163089291Y-111403491D01*
X163060001Y-111427529D01*
X163030710Y-111403491D01*
X162842220Y-111302741D01*
X162637697Y-111240700D01*
X162425000Y-111219751D01*
X162212304Y-111240700D01*
X162007781Y-111302741D01*
X161819291Y-111403491D01*
X161790001Y-111427529D01*
X161760710Y-111403491D01*
X161572220Y-111302741D01*
X161367697Y-111240700D01*
X161155000Y-111219751D01*
X160942304Y-111240700D01*
X160737781Y-111302741D01*
X160549291Y-111403491D01*
X160520001Y-111427529D01*
X160490710Y-111403491D01*
X160302220Y-111302741D01*
X160097697Y-111240700D01*
X159885000Y-111219751D01*
X159672304Y-111240700D01*
X159467781Y-111302741D01*
X159279291Y-111403491D01*
X159250001Y-111427529D01*
X159220710Y-111403491D01*
X159033635Y-111303497D01*
X159089141Y-111247991D01*
X159132450Y-111212448D01*
X159274285Y-111039622D01*
X159379677Y-110842446D01*
X159433964Y-110663489D01*
X159444578Y-110628499D01*
X159453126Y-110541704D01*
X159461001Y-110461751D01*
X159461001Y-110461744D01*
X159466491Y-110406000D01*
X159461001Y-110350256D01*
X159461001Y-105810000D01*
X160391928Y-105810000D01*
X160404188Y-105934482D01*
X160440498Y-106054180D01*
X160499463Y-106164494D01*
X160578815Y-106261185D01*
X160675506Y-106340537D01*
X160785820Y-106399502D01*
X160905518Y-106435812D01*
X161030000Y-106448072D01*
X163744250Y-106445000D01*
X163903000Y-106286250D01*
X163903000Y-102937000D01*
X164157000Y-102937000D01*
X164157000Y-106286250D01*
X164315750Y-106445000D01*
X167030000Y-106448072D01*
X167154482Y-106435812D01*
X167274180Y-106399502D01*
X167384494Y-106340537D01*
X167481185Y-106261185D01*
X167560537Y-106164494D01*
X167619502Y-106054180D01*
X167655812Y-105934482D01*
X167668072Y-105810000D01*
X167665000Y-103095750D01*
X167506250Y-102937000D01*
X164157000Y-102937000D01*
X163903000Y-102937000D01*
X160553750Y-102937000D01*
X160395000Y-103095750D01*
X160391928Y-105810000D01*
X159461001Y-105810000D01*
X159461001Y-99810000D01*
X160391928Y-99810000D01*
X160395000Y-102524250D01*
X160553750Y-102683000D01*
X163903000Y-102683000D01*
X163903000Y-99333750D01*
X164157000Y-99333750D01*
X164157000Y-102683000D01*
X167506250Y-102683000D01*
X167665000Y-102524250D01*
X167668072Y-99810000D01*
X167655812Y-99685518D01*
X167619502Y-99565820D01*
X167560537Y-99455506D01*
X167481185Y-99358815D01*
X167384494Y-99279463D01*
X167274180Y-99220498D01*
X167154482Y-99184188D01*
X167030000Y-99171928D01*
X164315750Y-99175000D01*
X164157000Y-99333750D01*
X163903000Y-99333750D01*
X163744250Y-99175000D01*
X161030000Y-99171928D01*
X160905518Y-99184188D01*
X160785820Y-99220498D01*
X160675506Y-99279463D01*
X160578815Y-99358815D01*
X160499463Y-99455506D01*
X160440498Y-99565820D01*
X160404188Y-99685518D01*
X160391928Y-99810000D01*
X159461001Y-99810000D01*
X159461001Y-97317740D01*
X159466491Y-97261998D01*
X159461001Y-97206256D01*
X159461001Y-97206247D01*
X159444578Y-97039500D01*
X159379677Y-96825552D01*
X159274285Y-96628376D01*
X159132450Y-96455550D01*
X159089141Y-96420007D01*
X158356006Y-95686873D01*
X158320460Y-95643560D01*
X158147634Y-95501725D01*
X157950458Y-95396333D01*
X157736510Y-95331432D01*
X157569763Y-95315009D01*
X157569762Y-95315009D01*
X157514011Y-95309518D01*
X157458260Y-95315009D01*
X157106782Y-95315009D01*
X157047502Y-95237000D01*
X155460131Y-95237000D01*
X155368752Y-95228000D01*
X155368751Y-95228000D01*
X155313000Y-95222509D01*
X155257249Y-95228000D01*
X155183000Y-95228000D01*
X155183000Y-94983000D01*
X155203000Y-94983000D01*
X155203000Y-94963000D01*
X155457000Y-94963000D01*
X155457000Y-94983000D01*
X157047502Y-94983000D01*
X157174408Y-94815999D01*
X157102702Y-94612803D01*
X156987014Y-94432592D01*
X156838391Y-94278413D01*
X156663709Y-94157000D01*
X171996291Y-94157000D01*
X171821609Y-94278413D01*
G36*
X170675070Y-116715649D02*
G01*
X170702783Y-116749417D01*
X170736551Y-116777130D01*
X170736553Y-116777132D01*
X170790590Y-116821479D01*
X170837541Y-116860011D01*
X170991287Y-116942189D01*
X171158110Y-116992795D01*
X171288123Y-117005600D01*
X171288133Y-117005600D01*
X171331599Y-117009881D01*
X171375065Y-117005600D01*
X171532227Y-117005600D01*
X171587420Y-117035102D01*
X171684365Y-117064510D01*
X171697779Y-117080854D01*
X171727784Y-117117415D01*
X171761551Y-117145127D01*
X171925153Y-117308729D01*
X171831600Y-117307528D01*
X171707118Y-117319788D01*
X171587420Y-117356098D01*
X171477106Y-117415063D01*
X171380415Y-117494415D01*
X171301063Y-117591106D01*
X171242098Y-117701420D01*
X171205788Y-117821118D01*
X171193528Y-117945600D01*
X171196600Y-117984850D01*
X171355350Y-118143600D01*
X172229600Y-118143600D01*
X172229600Y-118123600D01*
X172483600Y-118123600D01*
X172483600Y-118143600D01*
X172503600Y-118143600D01*
X172503600Y-118397600D01*
X172483600Y-118397600D01*
X172483600Y-119071850D01*
X172642350Y-119230600D01*
X172763000Y-119232149D01*
X172763000Y-119260518D01*
X172758718Y-119303997D01*
X172775804Y-119477487D01*
X172826411Y-119644310D01*
X172908589Y-119798056D01*
X172991467Y-119899043D01*
X172991470Y-119899046D01*
X173019183Y-119932814D01*
X173052950Y-119960526D01*
X174779018Y-121686595D01*
X174779019Y-122227420D01*
X174576955Y-122429484D01*
X174543182Y-122457201D01*
X174432588Y-122591960D01*
X174350410Y-122745706D01*
X174318868Y-122849686D01*
X174303942Y-122898889D01*
X174299804Y-122912529D01*
X174286999Y-123042542D01*
X174286999Y-123042549D01*
X174282718Y-123086018D01*
X174286999Y-123129487D01*
X174287000Y-125332522D01*
X174282718Y-125376001D01*
X174291918Y-125469412D01*
X174160144Y-125523995D01*
X173990626Y-125637263D01*
X173846463Y-125781426D01*
X173733195Y-125950944D01*
X173655174Y-126139302D01*
X173615400Y-126339261D01*
X173615400Y-126543139D01*
X173655174Y-126743098D01*
X173733195Y-126931456D01*
X173765400Y-126979654D01*
X173765401Y-134041152D01*
X173740438Y-134061638D01*
X173629995Y-134196214D01*
X173618400Y-134217907D01*
X173606805Y-134196214D01*
X173496362Y-134061638D01*
X173361786Y-133951195D01*
X173208250Y-133869128D01*
X173041654Y-133818592D01*
X172868400Y-133801528D01*
X172368400Y-133801528D01*
X172195146Y-133818592D01*
X172028550Y-133869128D01*
X171875014Y-133951195D01*
X171740438Y-134061638D01*
X171629995Y-134196214D01*
X171547928Y-134349750D01*
X171497392Y-134516346D01*
X171480328Y-134689600D01*
X171480328Y-135722541D01*
X171284552Y-135918317D01*
X171284546Y-135918322D01*
X169044269Y-138158600D01*
X166453940Y-138158600D01*
X166482612Y-138064082D01*
X166494872Y-137939600D01*
X166491800Y-136475350D01*
X166333050Y-136316600D01*
X165483800Y-136316600D01*
X165483800Y-136336600D01*
X165229800Y-136336600D01*
X165229800Y-136316600D01*
X165209800Y-136316600D01*
X165209800Y-136062600D01*
X165229800Y-136062600D01*
X165229800Y-133963350D01*
X165483800Y-133963350D01*
X165483800Y-136062600D01*
X166333050Y-136062600D01*
X166491800Y-135903850D01*
X166494872Y-134439600D01*
X166482612Y-134315118D01*
X166446302Y-134195420D01*
X166387337Y-134085106D01*
X166307985Y-133988415D01*
X166211294Y-133909063D01*
X166100980Y-133850098D01*
X165981282Y-133813788D01*
X165856800Y-133801528D01*
X165642550Y-133804600D01*
X165483800Y-133963350D01*
X165229800Y-133963350D01*
X165071050Y-133804600D01*
X164856800Y-133801528D01*
X164732318Y-133813788D01*
X164612620Y-133850098D01*
X164502306Y-133909063D01*
X164405615Y-133988415D01*
X164326263Y-134085106D01*
X164297769Y-134138413D01*
X164241800Y-134070214D01*
X164241800Y-129294537D01*
X164278094Y-129275137D01*
X164374785Y-129195785D01*
X164439600Y-129116807D01*
X164504415Y-129195785D01*
X164601106Y-129275137D01*
X164711420Y-129334102D01*
X164831118Y-129370412D01*
X164955600Y-129382672D01*
X165169850Y-129379600D01*
X165328600Y-129220850D01*
X165328600Y-128371600D01*
X165582600Y-128371600D01*
X165582600Y-129220850D01*
X165741350Y-129379600D01*
X165955600Y-129382672D01*
X166080082Y-129370412D01*
X166199780Y-129334102D01*
X166310094Y-129275137D01*
X166406785Y-129195785D01*
X166486137Y-129099094D01*
X166545102Y-128988780D01*
X166581412Y-128869082D01*
X166593672Y-128744600D01*
X166590600Y-128530350D01*
X166431850Y-128371600D01*
X165582600Y-128371600D01*
X165328600Y-128371600D01*
X165308600Y-128371600D01*
X165308600Y-128117600D01*
X165328600Y-128117600D01*
X165328600Y-127268350D01*
X165582600Y-127268350D01*
X165582600Y-128117600D01*
X166431850Y-128117600D01*
X166590600Y-127958850D01*
X166593672Y-127744600D01*
X166581412Y-127620118D01*
X166545102Y-127500420D01*
X166486137Y-127390106D01*
X166406785Y-127293415D01*
X166310094Y-127214063D01*
X166199780Y-127155098D01*
X166080082Y-127118788D01*
X165955600Y-127106528D01*
X165741350Y-127109600D01*
X165582600Y-127268350D01*
X165328600Y-127268350D01*
X165169850Y-127109600D01*
X164955600Y-127106528D01*
X164831118Y-127118788D01*
X164711420Y-127155098D01*
X164601106Y-127214063D01*
X164504415Y-127293415D01*
X164439600Y-127372393D01*
X164374785Y-127293415D01*
X164278094Y-127214063D01*
X164167780Y-127155098D01*
X164048082Y-127118788D01*
X163923600Y-127106528D01*
X162923600Y-127106528D01*
X162799118Y-127118788D01*
X162679420Y-127155098D01*
X162569106Y-127214063D01*
X162472415Y-127293415D01*
X162407600Y-127372393D01*
X162342785Y-127293415D01*
X162246094Y-127214063D01*
X162135780Y-127155098D01*
X162016082Y-127118788D01*
X161891600Y-127106528D01*
X160891600Y-127106528D01*
X160767118Y-127118788D01*
X160647420Y-127155098D01*
X160537106Y-127214063D01*
X160440415Y-127293415D01*
X160361063Y-127390106D01*
X160302098Y-127500420D01*
X160265788Y-127620118D01*
X160253528Y-127744600D01*
X160253528Y-128744600D01*
X160265788Y-128869082D01*
X160302098Y-128988780D01*
X160361063Y-129099094D01*
X160440415Y-129195785D01*
X160471801Y-129221543D01*
X160471800Y-134070214D01*
X160368395Y-134196214D01*
X160356800Y-134217907D01*
X160345205Y-134196214D01*
X160234762Y-134061638D01*
X160100186Y-133951195D01*
X159946650Y-133869128D01*
X159780054Y-133818592D01*
X159606800Y-133801528D01*
X159106800Y-133801528D01*
X158933546Y-133818592D01*
X158766950Y-133869128D01*
X158613414Y-133951195D01*
X158478838Y-134061638D01*
X158368395Y-134196214D01*
X158286328Y-134349750D01*
X158235792Y-134516346D01*
X158218728Y-134689600D01*
X158218728Y-135054600D01*
X157739330Y-135054600D01*
X155661184Y-132976455D01*
X155625637Y-132933141D01*
X155452811Y-132791306D01*
X155255635Y-132685914D01*
X155041687Y-132621013D01*
X154874940Y-132604590D01*
X154874939Y-132604590D01*
X154819188Y-132599099D01*
X154763437Y-132604590D01*
X152163400Y-132604590D01*
X152163400Y-129448929D01*
X152189730Y-129422599D01*
X153294252Y-129422599D01*
X153350003Y-129428090D01*
X153405754Y-129422599D01*
X153405755Y-129422599D01*
X153572502Y-129406176D01*
X153786450Y-129341275D01*
X153983626Y-129235883D01*
X154156452Y-129094048D01*
X154191999Y-129050734D01*
X157046341Y-126196393D01*
X157089649Y-126160851D01*
X157231484Y-125988025D01*
X157336876Y-125790849D01*
X157401777Y-125576901D01*
X157418200Y-125410154D01*
X157423691Y-125354402D01*
X157418200Y-125298651D01*
X157418200Y-124775985D01*
X157478672Y-124662850D01*
X157505927Y-124573000D01*
X157820128Y-124573000D01*
X157832388Y-124697482D01*
X157868698Y-124817180D01*
X157927663Y-124927494D01*
X158007015Y-125024185D01*
X158103706Y-125103537D01*
X158214020Y-125162502D01*
X158333718Y-125198812D01*
X158458200Y-125211072D01*
X158797450Y-125208000D01*
X158956200Y-125049250D01*
X158956200Y-123825000D01*
X159210200Y-123825000D01*
X159210200Y-125049250D01*
X159368950Y-125208000D01*
X159708200Y-125211072D01*
X159832682Y-125198812D01*
X159952380Y-125162502D01*
X160062694Y-125103537D01*
X160159385Y-125024185D01*
X160238737Y-124927494D01*
X160297702Y-124817180D01*
X160334012Y-124697482D01*
X160346272Y-124573000D01*
X160343200Y-123983750D01*
X160184450Y-123825000D01*
X159210200Y-123825000D01*
X158956200Y-123825000D01*
X157981950Y-123825000D01*
X157823200Y-123983750D01*
X157820128Y-124573000D01*
X157505927Y-124573000D01*
X157529208Y-124496254D01*
X157546272Y-124323000D01*
X157546272Y-123073000D01*
X157529208Y-122899746D01*
X157505928Y-122823000D01*
X157820128Y-122823000D01*
X157823200Y-123412250D01*
X157981950Y-123571000D01*
X158956200Y-123571000D01*
X158956200Y-122346750D01*
X159210200Y-122346750D01*
X159210200Y-123571000D01*
X160184450Y-123571000D01*
X160343200Y-123412250D01*
X160346272Y-122823000D01*
X160334012Y-122698518D01*
X160297702Y-122578820D01*
X160238737Y-122468506D01*
X160159385Y-122371815D01*
X160062694Y-122292463D01*
X159952380Y-122233498D01*
X159832682Y-122197188D01*
X159708200Y-122184928D01*
X159368950Y-122188000D01*
X159210200Y-122346750D01*
X158956200Y-122346750D01*
X158797450Y-122188000D01*
X158458200Y-122184928D01*
X158333718Y-122197188D01*
X158214020Y-122233498D01*
X158103706Y-122292463D01*
X158007015Y-122371815D01*
X157927663Y-122468506D01*
X157868698Y-122578820D01*
X157832388Y-122698518D01*
X157820128Y-122823000D01*
X157505928Y-122823000D01*
X157478672Y-122733150D01*
X157418200Y-122620015D01*
X157418200Y-120961732D01*
X157423691Y-120905980D01*
X157409333Y-120760194D01*
X157401777Y-120683481D01*
X157336876Y-120469533D01*
X157231484Y-120272357D01*
X157186224Y-120217208D01*
X157125189Y-120142836D01*
X157125187Y-120142834D01*
X157089649Y-120099531D01*
X157046346Y-120063993D01*
X156224901Y-119242549D01*
X156344800Y-119122650D01*
X156344800Y-118448400D01*
X156598800Y-118448400D01*
X156598800Y-119122650D01*
X156757550Y-119281400D01*
X156996800Y-119284472D01*
X157121282Y-119272212D01*
X157240980Y-119235902D01*
X157351294Y-119176937D01*
X157447985Y-119097585D01*
X157527337Y-119000894D01*
X157586302Y-118890580D01*
X157622612Y-118770882D01*
X157634872Y-118646400D01*
X159458728Y-118646400D01*
X159470988Y-118770882D01*
X159507298Y-118890580D01*
X159566263Y-119000894D01*
X159645615Y-119097585D01*
X159742306Y-119176937D01*
X159852620Y-119235902D01*
X159972318Y-119272212D01*
X160096800Y-119284472D01*
X160336050Y-119281400D01*
X160494800Y-119122650D01*
X160494800Y-118448400D01*
X160748800Y-118448400D01*
X160748800Y-119122650D01*
X160907550Y-119281400D01*
X161146800Y-119284472D01*
X161271282Y-119272212D01*
X161390980Y-119235902D01*
X161501294Y-119176937D01*
X161597985Y-119097585D01*
X161677337Y-119000894D01*
X161736302Y-118890580D01*
X161772612Y-118770882D01*
X161784872Y-118646400D01*
X161781800Y-118607150D01*
X161623050Y-118448400D01*
X160748800Y-118448400D01*
X160494800Y-118448400D01*
X159620550Y-118448400D01*
X159461800Y-118607150D01*
X159458728Y-118646400D01*
X157634872Y-118646400D01*
X157631800Y-118607150D01*
X157473050Y-118448400D01*
X156598800Y-118448400D01*
X156344800Y-118448400D01*
X156324800Y-118448400D01*
X156324800Y-118194400D01*
X156344800Y-118194400D01*
X156344800Y-117520150D01*
X156598800Y-117520150D01*
X156598800Y-118194400D01*
X157473050Y-118194400D01*
X157631800Y-118035650D01*
X157634872Y-117996400D01*
X159458728Y-117996400D01*
X159461800Y-118035650D01*
X159620550Y-118194400D01*
X160494800Y-118194400D01*
X160494800Y-117520150D01*
X160336050Y-117361400D01*
X160096800Y-117358328D01*
X159972318Y-117370588D01*
X159852620Y-117406898D01*
X159742306Y-117465863D01*
X159645615Y-117545215D01*
X159566263Y-117641906D01*
X159507298Y-117752220D01*
X159470988Y-117871918D01*
X159458728Y-117996400D01*
X157634872Y-117996400D01*
X157622612Y-117871918D01*
X157586302Y-117752220D01*
X157527337Y-117641906D01*
X157447985Y-117545215D01*
X157351294Y-117465863D01*
X157240980Y-117406898D01*
X157121282Y-117370588D01*
X156996800Y-117358328D01*
X156757550Y-117361400D01*
X156598800Y-117520150D01*
X156344800Y-117520150D01*
X156186050Y-117361400D01*
X156009010Y-117359127D01*
X156009010Y-117134472D01*
X156996800Y-117134472D01*
X157121282Y-117122212D01*
X157240980Y-117085902D01*
X157296173Y-117056400D01*
X159797427Y-117056400D01*
X159852620Y-117085902D01*
X159972318Y-117122212D01*
X160096800Y-117134472D01*
X160637694Y-117134472D01*
X160886086Y-117382864D01*
X160748800Y-117520150D01*
X160748800Y-118194400D01*
X161623050Y-118194400D01*
X161664197Y-118153253D01*
X161797661Y-118179800D01*
X161976801Y-118179800D01*
X162000253Y-118257109D01*
X162081742Y-118409564D01*
X162191408Y-118543192D01*
X162325036Y-118652858D01*
X162477491Y-118734347D01*
X162642915Y-118784528D01*
X162814950Y-118801472D01*
X163727450Y-118801472D01*
X163899485Y-118784528D01*
X164064909Y-118734347D01*
X164217364Y-118652858D01*
X164329415Y-118560900D01*
X164651385Y-118560900D01*
X164763436Y-118652858D01*
X164915891Y-118734347D01*
X165081315Y-118784528D01*
X165253350Y-118801472D01*
X166165850Y-118801472D01*
X166337885Y-118784528D01*
X166503309Y-118734347D01*
X166655764Y-118652858D01*
X166725532Y-118595600D01*
X167043528Y-118595600D01*
X167055788Y-118720082D01*
X167092098Y-118839780D01*
X167151063Y-118950094D01*
X167230415Y-119046785D01*
X167327106Y-119126137D01*
X167437420Y-119185102D01*
X167557118Y-119221412D01*
X167681600Y-119233672D01*
X167920850Y-119230600D01*
X168079600Y-119071850D01*
X168079600Y-118397600D01*
X168333600Y-118397600D01*
X168333600Y-119071850D01*
X168492350Y-119230600D01*
X168731600Y-119233672D01*
X168856082Y-119221412D01*
X168975780Y-119185102D01*
X169086094Y-119126137D01*
X169182785Y-119046785D01*
X169262137Y-118950094D01*
X169321102Y-118839780D01*
X169357412Y-118720082D01*
X169369672Y-118595600D01*
X171193528Y-118595600D01*
X171205788Y-118720082D01*
X171242098Y-118839780D01*
X171301063Y-118950094D01*
X171380415Y-119046785D01*
X171477106Y-119126137D01*
X171587420Y-119185102D01*
X171707118Y-119221412D01*
X171831600Y-119233672D01*
X172070850Y-119230600D01*
X172229600Y-119071850D01*
X172229600Y-118397600D01*
X171355350Y-118397600D01*
X171196600Y-118556350D01*
X171193528Y-118595600D01*
X169369672Y-118595600D01*
X169366600Y-118556350D01*
X169207850Y-118397600D01*
X168333600Y-118397600D01*
X168079600Y-118397600D01*
X167205350Y-118397600D01*
X167046600Y-118556350D01*
X167043528Y-118595600D01*
X166725532Y-118595600D01*
X166789392Y-118543192D01*
X166899058Y-118409564D01*
X166980547Y-118257109D01*
X167030728Y-118091685D01*
X167044231Y-117954585D01*
X167046600Y-117984850D01*
X167205350Y-118143600D01*
X168079600Y-118143600D01*
X168079600Y-117469350D01*
X168333600Y-117469350D01*
X168333600Y-118143600D01*
X169207850Y-118143600D01*
X169366600Y-117984850D01*
X169369672Y-117945600D01*
X169357412Y-117821118D01*
X169321102Y-117701420D01*
X169262137Y-117591106D01*
X169182785Y-117494415D01*
X169086094Y-117415063D01*
X168975780Y-117356098D01*
X168856082Y-117319788D01*
X168731600Y-117307528D01*
X168492350Y-117310600D01*
X168333600Y-117469350D01*
X168079600Y-117469350D01*
X167920850Y-117310600D01*
X167681600Y-117307528D01*
X167557118Y-117319788D01*
X167437420Y-117356098D01*
X167327106Y-117415063D01*
X167230415Y-117494415D01*
X167151063Y-117591106D01*
X167092098Y-117701420D01*
X167055788Y-117821118D01*
X167047672Y-117903524D01*
X167047672Y-117432150D01*
X167030728Y-117260115D01*
X166980547Y-117094691D01*
X166899058Y-116942236D01*
X166789392Y-116808608D01*
X166783036Y-116803392D01*
X166860785Y-116739585D01*
X166940137Y-116642894D01*
X166999102Y-116532580D01*
X167035412Y-116412882D01*
X167043528Y-116330476D01*
X167043528Y-116445600D01*
X167055788Y-116570082D01*
X167092098Y-116689780D01*
X167151063Y-116800094D01*
X167230415Y-116896785D01*
X167327106Y-116976137D01*
X167437420Y-117035102D01*
X167557118Y-117071412D01*
X167681600Y-117083672D01*
X168731600Y-117083672D01*
X168856082Y-117071412D01*
X168975780Y-117035102D01*
X169086094Y-116976137D01*
X169182785Y-116896785D01*
X169262137Y-116800094D01*
X169321102Y-116689780D01*
X169357412Y-116570082D01*
X169369672Y-116445600D01*
X169369672Y-116409106D01*
X169598179Y-116180600D01*
X170140022Y-116180600D01*
X170675070Y-116715649D01*
X170675070Y-116715649D01*
G37*
X170675070Y-116715649D02*
X170702783Y-116749417D01*
X170736551Y-116777130D01*
X170736553Y-116777132D01*
X170790590Y-116821479D01*
X170837541Y-116860011D01*
X170991287Y-116942189D01*
X171158110Y-116992795D01*
X171288123Y-117005600D01*
X171288133Y-117005600D01*
X171331599Y-117009881D01*
X171375065Y-117005600D01*
X171532227Y-117005600D01*
X171587420Y-117035102D01*
X171684365Y-117064510D01*
X171697779Y-117080854D01*
X171727784Y-117117415D01*
X171761551Y-117145127D01*
X171925153Y-117308729D01*
X171831600Y-117307528D01*
X171707118Y-117319788D01*
X171587420Y-117356098D01*
X171477106Y-117415063D01*
X171380415Y-117494415D01*
X171301063Y-117591106D01*
X171242098Y-117701420D01*
X171205788Y-117821118D01*
X171193528Y-117945600D01*
X171196600Y-117984850D01*
X171355350Y-118143600D01*
X172229600Y-118143600D01*
X172229600Y-118123600D01*
X172483600Y-118123600D01*
X172483600Y-118143600D01*
X172503600Y-118143600D01*
X172503600Y-118397600D01*
X172483600Y-118397600D01*
X172483600Y-119071850D01*
X172642350Y-119230600D01*
X172763000Y-119232149D01*
X172763000Y-119260518D01*
X172758718Y-119303997D01*
X172775804Y-119477487D01*
X172826411Y-119644310D01*
X172908589Y-119798056D01*
X172991467Y-119899043D01*
X172991470Y-119899046D01*
X173019183Y-119932814D01*
X173052950Y-119960526D01*
X174779018Y-121686595D01*
X174779019Y-122227420D01*
X174576955Y-122429484D01*
X174543182Y-122457201D01*
X174432588Y-122591960D01*
X174350410Y-122745706D01*
X174318868Y-122849686D01*
X174303942Y-122898889D01*
X174299804Y-122912529D01*
X174286999Y-123042542D01*
X174286999Y-123042549D01*
X174282718Y-123086018D01*
X174286999Y-123129487D01*
X174287000Y-125332522D01*
X174282718Y-125376001D01*
X174291918Y-125469412D01*
X174160144Y-125523995D01*
X173990626Y-125637263D01*
X173846463Y-125781426D01*
X173733195Y-125950944D01*
X173655174Y-126139302D01*
X173615400Y-126339261D01*
X173615400Y-126543139D01*
X173655174Y-126743098D01*
X173733195Y-126931456D01*
X173765400Y-126979654D01*
X173765401Y-134041152D01*
X173740438Y-134061638D01*
X173629995Y-134196214D01*
X173618400Y-134217907D01*
X173606805Y-134196214D01*
X173496362Y-134061638D01*
X173361786Y-133951195D01*
X173208250Y-133869128D01*
X173041654Y-133818592D01*
X172868400Y-133801528D01*
X172368400Y-133801528D01*
X172195146Y-133818592D01*
X172028550Y-133869128D01*
X171875014Y-133951195D01*
X171740438Y-134061638D01*
X171629995Y-134196214D01*
X171547928Y-134349750D01*
X171497392Y-134516346D01*
X171480328Y-134689600D01*
X171480328Y-135722541D01*
X171284552Y-135918317D01*
X171284546Y-135918322D01*
X169044269Y-138158600D01*
X166453940Y-138158600D01*
X166482612Y-138064082D01*
X166494872Y-137939600D01*
X166491800Y-136475350D01*
X166333050Y-136316600D01*
X165483800Y-136316600D01*
X165483800Y-136336600D01*
X165229800Y-136336600D01*
X165229800Y-136316600D01*
X165209800Y-136316600D01*
X165209800Y-136062600D01*
X165229800Y-136062600D01*
X165229800Y-133963350D01*
X165483800Y-133963350D01*
X165483800Y-136062600D01*
X166333050Y-136062600D01*
X166491800Y-135903850D01*
X166494872Y-134439600D01*
X166482612Y-134315118D01*
X166446302Y-134195420D01*
X166387337Y-134085106D01*
X166307985Y-133988415D01*
X166211294Y-133909063D01*
X166100980Y-133850098D01*
X165981282Y-133813788D01*
X165856800Y-133801528D01*
X165642550Y-133804600D01*
X165483800Y-133963350D01*
X165229800Y-133963350D01*
X165071050Y-133804600D01*
X164856800Y-133801528D01*
X164732318Y-133813788D01*
X164612620Y-133850098D01*
X164502306Y-133909063D01*
X164405615Y-133988415D01*
X164326263Y-134085106D01*
X164297769Y-134138413D01*
X164241800Y-134070214D01*
X164241800Y-129294537D01*
X164278094Y-129275137D01*
X164374785Y-129195785D01*
X164439600Y-129116807D01*
X164504415Y-129195785D01*
X164601106Y-129275137D01*
X164711420Y-129334102D01*
X164831118Y-129370412D01*
X164955600Y-129382672D01*
X165169850Y-129379600D01*
X165328600Y-129220850D01*
X165328600Y-128371600D01*
X165582600Y-128371600D01*
X165582600Y-129220850D01*
X165741350Y-129379600D01*
X165955600Y-129382672D01*
X166080082Y-129370412D01*
X166199780Y-129334102D01*
X166310094Y-129275137D01*
X166406785Y-129195785D01*
X166486137Y-129099094D01*
X166545102Y-128988780D01*
X166581412Y-128869082D01*
X166593672Y-128744600D01*
X166590600Y-128530350D01*
X166431850Y-128371600D01*
X165582600Y-128371600D01*
X165328600Y-128371600D01*
X165308600Y-128371600D01*
X165308600Y-128117600D01*
X165328600Y-128117600D01*
X165328600Y-127268350D01*
X165582600Y-127268350D01*
X165582600Y-128117600D01*
X166431850Y-128117600D01*
X166590600Y-127958850D01*
X166593672Y-127744600D01*
X166581412Y-127620118D01*
X166545102Y-127500420D01*
X166486137Y-127390106D01*
X166406785Y-127293415D01*
X166310094Y-127214063D01*
X166199780Y-127155098D01*
X166080082Y-127118788D01*
X165955600Y-127106528D01*
X165741350Y-127109600D01*
X165582600Y-127268350D01*
X165328600Y-127268350D01*
X165169850Y-127109600D01*
X164955600Y-127106528D01*
X164831118Y-127118788D01*
X164711420Y-127155098D01*
X164601106Y-127214063D01*
X164504415Y-127293415D01*
X164439600Y-127372393D01*
X164374785Y-127293415D01*
X164278094Y-127214063D01*
X164167780Y-127155098D01*
X164048082Y-127118788D01*
X163923600Y-127106528D01*
X162923600Y-127106528D01*
X162799118Y-127118788D01*
X162679420Y-127155098D01*
X162569106Y-127214063D01*
X162472415Y-127293415D01*
X162407600Y-127372393D01*
X162342785Y-127293415D01*
X162246094Y-127214063D01*
X162135780Y-127155098D01*
X162016082Y-127118788D01*
X161891600Y-127106528D01*
X160891600Y-127106528D01*
X160767118Y-127118788D01*
X160647420Y-127155098D01*
X160537106Y-127214063D01*
X160440415Y-127293415D01*
X160361063Y-127390106D01*
X160302098Y-127500420D01*
X160265788Y-127620118D01*
X160253528Y-127744600D01*
X160253528Y-128744600D01*
X160265788Y-128869082D01*
X160302098Y-128988780D01*
X160361063Y-129099094D01*
X160440415Y-129195785D01*
X160471801Y-129221543D01*
X160471800Y-134070214D01*
X160368395Y-134196214D01*
X160356800Y-134217907D01*
X160345205Y-134196214D01*
X160234762Y-134061638D01*
X160100186Y-133951195D01*
X159946650Y-133869128D01*
X159780054Y-133818592D01*
X159606800Y-133801528D01*
X159106800Y-133801528D01*
X158933546Y-133818592D01*
X158766950Y-133869128D01*
X158613414Y-133951195D01*
X158478838Y-134061638D01*
X158368395Y-134196214D01*
X158286328Y-134349750D01*
X158235792Y-134516346D01*
X158218728Y-134689600D01*
X158218728Y-135054600D01*
X157739330Y-135054600D01*
X155661184Y-132976455D01*
X155625637Y-132933141D01*
X155452811Y-132791306D01*
X155255635Y-132685914D01*
X155041687Y-132621013D01*
X154874940Y-132604590D01*
X154874939Y-132604590D01*
X154819188Y-132599099D01*
X154763437Y-132604590D01*
X152163400Y-132604590D01*
X152163400Y-129448929D01*
X152189730Y-129422599D01*
X153294252Y-129422599D01*
X153350003Y-129428090D01*
X153405754Y-129422599D01*
X153405755Y-129422599D01*
X153572502Y-129406176D01*
X153786450Y-129341275D01*
X153983626Y-129235883D01*
X154156452Y-129094048D01*
X154191999Y-129050734D01*
X157046341Y-126196393D01*
X157089649Y-126160851D01*
X157231484Y-125988025D01*
X157336876Y-125790849D01*
X157401777Y-125576901D01*
X157418200Y-125410154D01*
X157423691Y-125354402D01*
X157418200Y-125298651D01*
X157418200Y-124775985D01*
X157478672Y-124662850D01*
X157505927Y-124573000D01*
X157820128Y-124573000D01*
X157832388Y-124697482D01*
X157868698Y-124817180D01*
X157927663Y-124927494D01*
X158007015Y-125024185D01*
X158103706Y-125103537D01*
X158214020Y-125162502D01*
X158333718Y-125198812D01*
X158458200Y-125211072D01*
X158797450Y-125208000D01*
X158956200Y-125049250D01*
X158956200Y-123825000D01*
X159210200Y-123825000D01*
X159210200Y-125049250D01*
X159368950Y-125208000D01*
X159708200Y-125211072D01*
X159832682Y-125198812D01*
X159952380Y-125162502D01*
X160062694Y-125103537D01*
X160159385Y-125024185D01*
X160238737Y-124927494D01*
X160297702Y-124817180D01*
X160334012Y-124697482D01*
X160346272Y-124573000D01*
X160343200Y-123983750D01*
X160184450Y-123825000D01*
X159210200Y-123825000D01*
X158956200Y-123825000D01*
X157981950Y-123825000D01*
X157823200Y-123983750D01*
X157820128Y-124573000D01*
X157505927Y-124573000D01*
X157529208Y-124496254D01*
X157546272Y-124323000D01*
X157546272Y-123073000D01*
X157529208Y-122899746D01*
X157505928Y-122823000D01*
X157820128Y-122823000D01*
X157823200Y-123412250D01*
X157981950Y-123571000D01*
X158956200Y-123571000D01*
X158956200Y-122346750D01*
X159210200Y-122346750D01*
X159210200Y-123571000D01*
X160184450Y-123571000D01*
X160343200Y-123412250D01*
X160346272Y-122823000D01*
X160334012Y-122698518D01*
X160297702Y-122578820D01*
X160238737Y-122468506D01*
X160159385Y-122371815D01*
X160062694Y-122292463D01*
X159952380Y-122233498D01*
X159832682Y-122197188D01*
X159708200Y-122184928D01*
X159368950Y-122188000D01*
X159210200Y-122346750D01*
X158956200Y-122346750D01*
X158797450Y-122188000D01*
X158458200Y-122184928D01*
X158333718Y-122197188D01*
X158214020Y-122233498D01*
X158103706Y-122292463D01*
X158007015Y-122371815D01*
X157927663Y-122468506D01*
X157868698Y-122578820D01*
X157832388Y-122698518D01*
X157820128Y-122823000D01*
X157505928Y-122823000D01*
X157478672Y-122733150D01*
X157418200Y-122620015D01*
X157418200Y-120961732D01*
X157423691Y-120905980D01*
X157409333Y-120760194D01*
X157401777Y-120683481D01*
X157336876Y-120469533D01*
X157231484Y-120272357D01*
X157186224Y-120217208D01*
X157125189Y-120142836D01*
X157125187Y-120142834D01*
X157089649Y-120099531D01*
X157046346Y-120063993D01*
X156224901Y-119242549D01*
X156344800Y-119122650D01*
X156344800Y-118448400D01*
X156598800Y-118448400D01*
X156598800Y-119122650D01*
X156757550Y-119281400D01*
X156996800Y-119284472D01*
X157121282Y-119272212D01*
X157240980Y-119235902D01*
X157351294Y-119176937D01*
X157447985Y-119097585D01*
X157527337Y-119000894D01*
X157586302Y-118890580D01*
X157622612Y-118770882D01*
X157634872Y-118646400D01*
X159458728Y-118646400D01*
X159470988Y-118770882D01*
X159507298Y-118890580D01*
X159566263Y-119000894D01*
X159645615Y-119097585D01*
X159742306Y-119176937D01*
X159852620Y-119235902D01*
X159972318Y-119272212D01*
X160096800Y-119284472D01*
X160336050Y-119281400D01*
X160494800Y-119122650D01*
X160494800Y-118448400D01*
X160748800Y-118448400D01*
X160748800Y-119122650D01*
X160907550Y-119281400D01*
X161146800Y-119284472D01*
X161271282Y-119272212D01*
X161390980Y-119235902D01*
X161501294Y-119176937D01*
X161597985Y-119097585D01*
X161677337Y-119000894D01*
X161736302Y-118890580D01*
X161772612Y-118770882D01*
X161784872Y-118646400D01*
X161781800Y-118607150D01*
X161623050Y-118448400D01*
X160748800Y-118448400D01*
X160494800Y-118448400D01*
X159620550Y-118448400D01*
X159461800Y-118607150D01*
X159458728Y-118646400D01*
X157634872Y-118646400D01*
X157631800Y-118607150D01*
X157473050Y-118448400D01*
X156598800Y-118448400D01*
X156344800Y-118448400D01*
X156324800Y-118448400D01*
X156324800Y-118194400D01*
X156344800Y-118194400D01*
X156344800Y-117520150D01*
X156598800Y-117520150D01*
X156598800Y-118194400D01*
X157473050Y-118194400D01*
X157631800Y-118035650D01*
X157634872Y-117996400D01*
X159458728Y-117996400D01*
X159461800Y-118035650D01*
X159620550Y-118194400D01*
X160494800Y-118194400D01*
X160494800Y-117520150D01*
X160336050Y-117361400D01*
X160096800Y-117358328D01*
X159972318Y-117370588D01*
X159852620Y-117406898D01*
X159742306Y-117465863D01*
X159645615Y-117545215D01*
X159566263Y-117641906D01*
X159507298Y-117752220D01*
X159470988Y-117871918D01*
X159458728Y-117996400D01*
X157634872Y-117996400D01*
X157622612Y-117871918D01*
X157586302Y-117752220D01*
X157527337Y-117641906D01*
X157447985Y-117545215D01*
X157351294Y-117465863D01*
X157240980Y-117406898D01*
X157121282Y-117370588D01*
X156996800Y-117358328D01*
X156757550Y-117361400D01*
X156598800Y-117520150D01*
X156344800Y-117520150D01*
X156186050Y-117361400D01*
X156009010Y-117359127D01*
X156009010Y-117134472D01*
X156996800Y-117134472D01*
X157121282Y-117122212D01*
X157240980Y-117085902D01*
X157296173Y-117056400D01*
X159797427Y-117056400D01*
X159852620Y-117085902D01*
X159972318Y-117122212D01*
X160096800Y-117134472D01*
X160637694Y-117134472D01*
X160886086Y-117382864D01*
X160748800Y-117520150D01*
X160748800Y-118194400D01*
X161623050Y-118194400D01*
X161664197Y-118153253D01*
X161797661Y-118179800D01*
X161976801Y-118179800D01*
X162000253Y-118257109D01*
X162081742Y-118409564D01*
X162191408Y-118543192D01*
X162325036Y-118652858D01*
X162477491Y-118734347D01*
X162642915Y-118784528D01*
X162814950Y-118801472D01*
X163727450Y-118801472D01*
X163899485Y-118784528D01*
X164064909Y-118734347D01*
X164217364Y-118652858D01*
X164329415Y-118560900D01*
X164651385Y-118560900D01*
X164763436Y-118652858D01*
X164915891Y-118734347D01*
X165081315Y-118784528D01*
X165253350Y-118801472D01*
X166165850Y-118801472D01*
X166337885Y-118784528D01*
X166503309Y-118734347D01*
X166655764Y-118652858D01*
X166725532Y-118595600D01*
X167043528Y-118595600D01*
X167055788Y-118720082D01*
X167092098Y-118839780D01*
X167151063Y-118950094D01*
X167230415Y-119046785D01*
X167327106Y-119126137D01*
X167437420Y-119185102D01*
X167557118Y-119221412D01*
X167681600Y-119233672D01*
X167920850Y-119230600D01*
X168079600Y-119071850D01*
X168079600Y-118397600D01*
X168333600Y-118397600D01*
X168333600Y-119071850D01*
X168492350Y-119230600D01*
X168731600Y-119233672D01*
X168856082Y-119221412D01*
X168975780Y-119185102D01*
X169086094Y-119126137D01*
X169182785Y-119046785D01*
X169262137Y-118950094D01*
X169321102Y-118839780D01*
X169357412Y-118720082D01*
X169369672Y-118595600D01*
X171193528Y-118595600D01*
X171205788Y-118720082D01*
X171242098Y-118839780D01*
X171301063Y-118950094D01*
X171380415Y-119046785D01*
X171477106Y-119126137D01*
X171587420Y-119185102D01*
X171707118Y-119221412D01*
X171831600Y-119233672D01*
X172070850Y-119230600D01*
X172229600Y-119071850D01*
X172229600Y-118397600D01*
X171355350Y-118397600D01*
X171196600Y-118556350D01*
X171193528Y-118595600D01*
X169369672Y-118595600D01*
X169366600Y-118556350D01*
X169207850Y-118397600D01*
X168333600Y-118397600D01*
X168079600Y-118397600D01*
X167205350Y-118397600D01*
X167046600Y-118556350D01*
X167043528Y-118595600D01*
X166725532Y-118595600D01*
X166789392Y-118543192D01*
X166899058Y-118409564D01*
X166980547Y-118257109D01*
X167030728Y-118091685D01*
X167044231Y-117954585D01*
X167046600Y-117984850D01*
X167205350Y-118143600D01*
X168079600Y-118143600D01*
X168079600Y-117469350D01*
X168333600Y-117469350D01*
X168333600Y-118143600D01*
X169207850Y-118143600D01*
X169366600Y-117984850D01*
X169369672Y-117945600D01*
X169357412Y-117821118D01*
X169321102Y-117701420D01*
X169262137Y-117591106D01*
X169182785Y-117494415D01*
X169086094Y-117415063D01*
X168975780Y-117356098D01*
X168856082Y-117319788D01*
X168731600Y-117307528D01*
X168492350Y-117310600D01*
X168333600Y-117469350D01*
X168079600Y-117469350D01*
X167920850Y-117310600D01*
X167681600Y-117307528D01*
X167557118Y-117319788D01*
X167437420Y-117356098D01*
X167327106Y-117415063D01*
X167230415Y-117494415D01*
X167151063Y-117591106D01*
X167092098Y-117701420D01*
X167055788Y-117821118D01*
X167047672Y-117903524D01*
X167047672Y-117432150D01*
X167030728Y-117260115D01*
X166980547Y-117094691D01*
X166899058Y-116942236D01*
X166789392Y-116808608D01*
X166783036Y-116803392D01*
X166860785Y-116739585D01*
X166940137Y-116642894D01*
X166999102Y-116532580D01*
X167035412Y-116412882D01*
X167043528Y-116330476D01*
X167043528Y-116445600D01*
X167055788Y-116570082D01*
X167092098Y-116689780D01*
X167151063Y-116800094D01*
X167230415Y-116896785D01*
X167327106Y-116976137D01*
X167437420Y-117035102D01*
X167557118Y-117071412D01*
X167681600Y-117083672D01*
X168731600Y-117083672D01*
X168856082Y-117071412D01*
X168975780Y-117035102D01*
X169086094Y-116976137D01*
X169182785Y-116896785D01*
X169262137Y-116800094D01*
X169321102Y-116689780D01*
X169357412Y-116570082D01*
X169369672Y-116445600D01*
X169369672Y-116409106D01*
X169598179Y-116180600D01*
X170140022Y-116180600D01*
X170675070Y-116715649D01*
G36*
X155148200Y-121376113D02*
G01*
X155148201Y-122620014D01*
X155087728Y-122733150D01*
X155037192Y-122899746D01*
X155020128Y-123073000D01*
X155020128Y-124323000D01*
X155037192Y-124496254D01*
X155087728Y-124662850D01*
X155148200Y-124775985D01*
X155148200Y-124884270D01*
X152879872Y-127152599D01*
X151775433Y-127152599D01*
X151778196Y-127143490D01*
X151782383Y-127100974D01*
X151791001Y-127013476D01*
X151791001Y-127013468D01*
X151795282Y-126969999D01*
X151791001Y-126926530D01*
X151791001Y-125786540D01*
X152653021Y-124924521D01*
X152686789Y-124896808D01*
X152725013Y-124850233D01*
X152797382Y-124762051D01*
X152797383Y-124762050D01*
X152879561Y-124608304D01*
X152930167Y-124441481D01*
X152942972Y-124311468D01*
X152942972Y-124311458D01*
X152947253Y-124267992D01*
X152942972Y-124224525D01*
X152942972Y-123084532D01*
X153825079Y-122202426D01*
X153858847Y-122174713D01*
X153897071Y-122128138D01*
X153969440Y-122039956D01*
X153969441Y-122039955D01*
X154051619Y-121886209D01*
X154102225Y-121719386D01*
X154115030Y-121589373D01*
X154115030Y-121589363D01*
X154119311Y-121545897D01*
X154115030Y-121502431D01*
X154115030Y-120342941D01*
X155148200Y-121376113D01*
X155148200Y-121376113D01*
G37*
X155148200Y-121376113D02*
X155148201Y-122620014D01*
X155087728Y-122733150D01*
X155037192Y-122899746D01*
X155020128Y-123073000D01*
X155020128Y-124323000D01*
X155037192Y-124496254D01*
X155087728Y-124662850D01*
X155148200Y-124775985D01*
X155148200Y-124884270D01*
X152879872Y-127152599D01*
X151775433Y-127152599D01*
X151778196Y-127143490D01*
X151782383Y-127100974D01*
X151791001Y-127013476D01*
X151791001Y-127013468D01*
X151795282Y-126969999D01*
X151791001Y-126926530D01*
X151791001Y-125786540D01*
X152653021Y-124924521D01*
X152686789Y-124896808D01*
X152725013Y-124850233D01*
X152797382Y-124762051D01*
X152797383Y-124762050D01*
X152879561Y-124608304D01*
X152930167Y-124441481D01*
X152942972Y-124311468D01*
X152942972Y-124311458D01*
X152947253Y-124267992D01*
X152942972Y-124224525D01*
X152942972Y-123084532D01*
X153825079Y-122202426D01*
X153858847Y-122174713D01*
X153897071Y-122128138D01*
X153969440Y-122039956D01*
X153969441Y-122039955D01*
X154051619Y-121886209D01*
X154102225Y-121719386D01*
X154115030Y-121589373D01*
X154115030Y-121589363D01*
X154119311Y-121545897D01*
X154115030Y-121502431D01*
X154115030Y-120342941D01*
X155148200Y-121376113D01*
G36*
X176495001Y-123110542D02*
G01*
X176495002Y-124250522D01*
X176490720Y-124294001D01*
X176507806Y-124467491D01*
X176558413Y-124634314D01*
X176640591Y-124788060D01*
X176723469Y-124889047D01*
X176723472Y-124889050D01*
X176751185Y-124922818D01*
X176784953Y-124950531D01*
X177345388Y-125510966D01*
X177336541Y-125600789D01*
X177276713Y-125568811D01*
X177109890Y-125518205D01*
X176979877Y-125505400D01*
X176979869Y-125505400D01*
X176936400Y-125501119D01*
X176892931Y-125505400D01*
X176552977Y-125505400D01*
X176056999Y-125009423D01*
X176056999Y-123452596D01*
X176259062Y-123250533D01*
X176292835Y-123222816D01*
X176403429Y-123088058D01*
X176427494Y-123043035D01*
X176495001Y-123110542D01*
X176495001Y-123110542D01*
G37*
X176495001Y-123110542D02*
X176495002Y-124250522D01*
X176490720Y-124294001D01*
X176507806Y-124467491D01*
X176558413Y-124634314D01*
X176640591Y-124788060D01*
X176723469Y-124889047D01*
X176723472Y-124889050D01*
X176751185Y-124922818D01*
X176784953Y-124950531D01*
X177345388Y-125510966D01*
X177336541Y-125600789D01*
X177276713Y-125568811D01*
X177109890Y-125518205D01*
X176979877Y-125505400D01*
X176979869Y-125505400D01*
X176936400Y-125501119D01*
X176892931Y-125505400D01*
X176552977Y-125505400D01*
X176056999Y-125009423D01*
X176056999Y-123452596D01*
X176259062Y-123250533D01*
X176292835Y-123222816D01*
X176403429Y-123088058D01*
X176427494Y-123043035D01*
X176495001Y-123110542D01*
G36*
X174629001Y-119033421D02*
G01*
X174532999Y-118937419D01*
X174532999Y-117823466D01*
X174537280Y-117779997D01*
X174532999Y-117736528D01*
X174532999Y-117736520D01*
X174520194Y-117606507D01*
X174516579Y-117594588D01*
X174493997Y-117520150D01*
X174469588Y-117439684D01*
X174387410Y-117285938D01*
X174347909Y-117237806D01*
X174304531Y-117184950D01*
X174304529Y-117184948D01*
X174276816Y-117151180D01*
X174243049Y-117123468D01*
X173519672Y-116400092D01*
X173519672Y-115795600D01*
X173507412Y-115671118D01*
X173471102Y-115551420D01*
X173412137Y-115441106D01*
X173332785Y-115344415D01*
X173267083Y-115290495D01*
X173925049Y-114632530D01*
X173958817Y-114604817D01*
X173998725Y-114556190D01*
X174066167Y-114474012D01*
X174069411Y-114470059D01*
X174151589Y-114316313D01*
X174202195Y-114149490D01*
X174215000Y-114019477D01*
X174215000Y-114019467D01*
X174219281Y-113976001D01*
X174215000Y-113932535D01*
X174215000Y-112701877D01*
X174342697Y-112689300D01*
X174547220Y-112627259D01*
X174629000Y-112583547D01*
X174629001Y-119033421D01*
X174629001Y-119033421D01*
G37*
X174629001Y-119033421D02*
X174532999Y-118937419D01*
X174532999Y-117823466D01*
X174537280Y-117779997D01*
X174532999Y-117736528D01*
X174532999Y-117736520D01*
X174520194Y-117606507D01*
X174516579Y-117594588D01*
X174493997Y-117520150D01*
X174469588Y-117439684D01*
X174387410Y-117285938D01*
X174347909Y-117237806D01*
X174304531Y-117184950D01*
X174304529Y-117184948D01*
X174276816Y-117151180D01*
X174243049Y-117123468D01*
X173519672Y-116400092D01*
X173519672Y-115795600D01*
X173507412Y-115671118D01*
X173471102Y-115551420D01*
X173412137Y-115441106D01*
X173332785Y-115344415D01*
X173267083Y-115290495D01*
X173925049Y-114632530D01*
X173958817Y-114604817D01*
X173998725Y-114556190D01*
X174066167Y-114474012D01*
X174069411Y-114470059D01*
X174151589Y-114316313D01*
X174202195Y-114149490D01*
X174215000Y-114019477D01*
X174215000Y-114019467D01*
X174219281Y-113976001D01*
X174215000Y-113932535D01*
X174215000Y-112701877D01*
X174342697Y-112689300D01*
X174547220Y-112627259D01*
X174629000Y-112583547D01*
X174629001Y-119033421D01*
G36*
X165836600Y-115673900D02*
G01*
X165856600Y-115673900D01*
X165856600Y-115927900D01*
X165836600Y-115927900D01*
X165836600Y-115947900D01*
X165582600Y-115947900D01*
X165582600Y-115927900D01*
X165562600Y-115927900D01*
X165562600Y-115673900D01*
X165582600Y-115673900D01*
X165582600Y-115653900D01*
X165836600Y-115653900D01*
X165836600Y-115673900D01*
X165836600Y-115673900D01*
G37*
X165836600Y-115673900D02*
X165856600Y-115673900D01*
X165856600Y-115927900D01*
X165836600Y-115927900D01*
X165836600Y-115947900D01*
X165582600Y-115947900D01*
X165582600Y-115927900D01*
X165562600Y-115927900D01*
X165562600Y-115673900D01*
X165582600Y-115673900D01*
X165582600Y-115653900D01*
X165836600Y-115653900D01*
X165836600Y-115673900D01*
G36*
X168169290Y-114816509D02*
G01*
X168357780Y-114917259D01*
X168358227Y-114917395D01*
X168118094Y-115157528D01*
X167681600Y-115157528D01*
X167557118Y-115169788D01*
X167437420Y-115206098D01*
X167327106Y-115265063D01*
X167230415Y-115344415D01*
X167151063Y-115441106D01*
X167092098Y-115551420D01*
X167055788Y-115671118D01*
X167044600Y-115784715D01*
X167044600Y-115673898D01*
X166885852Y-115673898D01*
X167044600Y-115515150D01*
X167047672Y-115313400D01*
X167035412Y-115188918D01*
X166999102Y-115069220D01*
X166940137Y-114958906D01*
X166860785Y-114862215D01*
X166819140Y-114828038D01*
X166840710Y-114816509D01*
X166870000Y-114792471D01*
X166899290Y-114816509D01*
X167087780Y-114917259D01*
X167292303Y-114979300D01*
X167505000Y-115000249D01*
X167717696Y-114979300D01*
X167922219Y-114917259D01*
X168110710Y-114816509D01*
X168140000Y-114792471D01*
X168169290Y-114816509D01*
X168169290Y-114816509D01*
G37*
X168169290Y-114816509D02*
X168357780Y-114917259D01*
X168358227Y-114917395D01*
X168118094Y-115157528D01*
X167681600Y-115157528D01*
X167557118Y-115169788D01*
X167437420Y-115206098D01*
X167327106Y-115265063D01*
X167230415Y-115344415D01*
X167151063Y-115441106D01*
X167092098Y-115551420D01*
X167055788Y-115671118D01*
X167044600Y-115784715D01*
X167044600Y-115673898D01*
X166885852Y-115673898D01*
X167044600Y-115515150D01*
X167047672Y-115313400D01*
X167035412Y-115188918D01*
X166999102Y-115069220D01*
X166940137Y-114958906D01*
X166860785Y-114862215D01*
X166819140Y-114828038D01*
X166840710Y-114816509D01*
X166870000Y-114792471D01*
X166899290Y-114816509D01*
X167087780Y-114917259D01*
X167292303Y-114979300D01*
X167505000Y-115000249D01*
X167717696Y-114979300D01*
X167922219Y-114917259D01*
X168110710Y-114816509D01*
X168140000Y-114792471D01*
X168169290Y-114816509D01*
G36*
X164359290Y-114816509D02*
G01*
X164523773Y-114904427D01*
X164479063Y-114958906D01*
X164436738Y-115038089D01*
X164350992Y-114933608D01*
X164244752Y-114846419D01*
X164300710Y-114816509D01*
X164330000Y-114792471D01*
X164359290Y-114816509D01*
X164359290Y-114816509D01*
G37*
X164359290Y-114816509D02*
X164523773Y-114904427D01*
X164479063Y-114958906D01*
X164436738Y-115038089D01*
X164350992Y-114933608D01*
X164244752Y-114846419D01*
X164300710Y-114816509D01*
X164330000Y-114792471D01*
X164359290Y-114816509D01*
G36*
X156218001Y-113753668D02*
G01*
X155960270Y-114011399D01*
X155442550Y-114011399D01*
X155386798Y-114005908D01*
X155164299Y-114027822D01*
X155114504Y-114042928D01*
X154950352Y-114092723D01*
X154809000Y-114168277D01*
X154809000Y-112836055D01*
X155095124Y-112705000D01*
X156183294Y-112705000D01*
X156218000Y-112701582D01*
X156218001Y-113753668D01*
X156218001Y-113753668D01*
G37*
X156218001Y-113753668D02*
X155960270Y-114011399D01*
X155442550Y-114011399D01*
X155386798Y-114005908D01*
X155164299Y-114027822D01*
X155114504Y-114042928D01*
X154950352Y-114092723D01*
X154809000Y-114168277D01*
X154809000Y-112836055D01*
X155095124Y-112705000D01*
X156183294Y-112705000D01*
X156218000Y-112701582D01*
X156218001Y-113753668D01*
G36*
X175930990Y-101816474D02*
G01*
X175926708Y-101859952D01*
X175943794Y-102033442D01*
X175994401Y-102200265D01*
X176076579Y-102354011D01*
X176159457Y-102454998D01*
X176159460Y-102455001D01*
X176187173Y-102488769D01*
X176220940Y-102516481D01*
X176630999Y-102926541D01*
X176631000Y-104066520D01*
X176626718Y-104109999D01*
X176643804Y-104283489D01*
X176694411Y-104450312D01*
X176776589Y-104604058D01*
X176859467Y-104705045D01*
X176859470Y-104705048D01*
X176887183Y-104738816D01*
X176920950Y-104766528D01*
X177345388Y-105190966D01*
X177323815Y-105410000D01*
X177352487Y-105701111D01*
X177437401Y-105981034D01*
X177575294Y-106239014D01*
X177760866Y-106465134D01*
X177986986Y-106650706D01*
X178041791Y-106680000D01*
X177986986Y-106709294D01*
X177760866Y-106894866D01*
X177575294Y-107120986D01*
X177437401Y-107378966D01*
X177352487Y-107658889D01*
X177323815Y-107950000D01*
X177343178Y-108146600D01*
X176145000Y-106948422D01*
X176145000Y-103900660D01*
X176149281Y-103857193D01*
X176145000Y-103813727D01*
X176145000Y-103813717D01*
X176132195Y-103683704D01*
X176081589Y-103516881D01*
X175999411Y-103363135D01*
X175968152Y-103325046D01*
X175916532Y-103262147D01*
X175916530Y-103262145D01*
X175888817Y-103228377D01*
X175855050Y-103200665D01*
X175202317Y-102547932D01*
X175199300Y-102517303D01*
X175137259Y-102312780D01*
X175036509Y-102124290D01*
X175012471Y-102095000D01*
X175036509Y-102065710D01*
X175137259Y-101877220D01*
X175199300Y-101672697D01*
X175220249Y-101460000D01*
X175199300Y-101247303D01*
X175147033Y-101075000D01*
X175930989Y-101075000D01*
X175930990Y-101816474D01*
X175930990Y-101816474D01*
G37*
X175930990Y-101816474D02*
X175926708Y-101859952D01*
X175943794Y-102033442D01*
X175994401Y-102200265D01*
X176076579Y-102354011D01*
X176159457Y-102454998D01*
X176159460Y-102455001D01*
X176187173Y-102488769D01*
X176220940Y-102516481D01*
X176630999Y-102926541D01*
X176631000Y-104066520D01*
X176626718Y-104109999D01*
X176643804Y-104283489D01*
X176694411Y-104450312D01*
X176776589Y-104604058D01*
X176859467Y-104705045D01*
X176859470Y-104705048D01*
X176887183Y-104738816D01*
X176920950Y-104766528D01*
X177345388Y-105190966D01*
X177323815Y-105410000D01*
X177352487Y-105701111D01*
X177437401Y-105981034D01*
X177575294Y-106239014D01*
X177760866Y-106465134D01*
X177986986Y-106650706D01*
X178041791Y-106680000D01*
X177986986Y-106709294D01*
X177760866Y-106894866D01*
X177575294Y-107120986D01*
X177437401Y-107378966D01*
X177352487Y-107658889D01*
X177323815Y-107950000D01*
X177343178Y-108146600D01*
X176145000Y-106948422D01*
X176145000Y-103900660D01*
X176149281Y-103857193D01*
X176145000Y-103813727D01*
X176145000Y-103813717D01*
X176132195Y-103683704D01*
X176081589Y-103516881D01*
X175999411Y-103363135D01*
X175968152Y-103325046D01*
X175916532Y-103262147D01*
X175916530Y-103262145D01*
X175888817Y-103228377D01*
X175855050Y-103200665D01*
X175202317Y-102547932D01*
X175199300Y-102517303D01*
X175137259Y-102312780D01*
X175036509Y-102124290D01*
X175012471Y-102095000D01*
X175036509Y-102065710D01*
X175137259Y-101877220D01*
X175199300Y-101672697D01*
X175220249Y-101460000D01*
X175199300Y-101247303D01*
X175147033Y-101075000D01*
X175930989Y-101075000D01*
X175930990Y-101816474D01*
G36*
X150753051Y-98928949D02*
G01*
X150925877Y-99070784D01*
X151123053Y-99176176D01*
X151269162Y-99220498D01*
X151337001Y-99241077D01*
X151375687Y-99244887D01*
X151364498Y-99265820D01*
X151328188Y-99385518D01*
X151315928Y-99510000D01*
X151319000Y-99711750D01*
X151477750Y-99870500D01*
X152527000Y-99870500D01*
X152527000Y-99850500D01*
X152781000Y-99850500D01*
X152781000Y-99870500D01*
X152801000Y-99870500D01*
X152801000Y-100124500D01*
X152781000Y-100124500D01*
X152781000Y-100144500D01*
X152527000Y-100144500D01*
X152527000Y-100124500D01*
X151477750Y-100124500D01*
X151319000Y-100283250D01*
X151315928Y-100485000D01*
X151328188Y-100609482D01*
X151364498Y-100729180D01*
X151423463Y-100839494D01*
X151502815Y-100936185D01*
X151599506Y-101015537D01*
X151709820Y-101074502D01*
X151829518Y-101110812D01*
X151954000Y-101123072D01*
X152368250Y-101120000D01*
X152526998Y-100961252D01*
X152526998Y-101120000D01*
X152625653Y-101120000D01*
X151078233Y-102667421D01*
X151069513Y-102578889D01*
X150984599Y-102298966D01*
X150846706Y-102040986D01*
X150661134Y-101814866D01*
X150435014Y-101629294D01*
X150380209Y-101600000D01*
X150435014Y-101570706D01*
X150661134Y-101385134D01*
X150846706Y-101159014D01*
X150984599Y-100901034D01*
X151069513Y-100621111D01*
X151098185Y-100330000D01*
X151069513Y-100038889D01*
X150984599Y-99758966D01*
X150846706Y-99500986D01*
X150661134Y-99274866D01*
X150435014Y-99089294D01*
X150380209Y-99060000D01*
X150435014Y-99030706D01*
X150563817Y-98925000D01*
X150749810Y-98925000D01*
X150753051Y-98928949D01*
X150753051Y-98928949D01*
G37*
X150753051Y-98928949D02*
X150925877Y-99070784D01*
X151123053Y-99176176D01*
X151269162Y-99220498D01*
X151337001Y-99241077D01*
X151375687Y-99244887D01*
X151364498Y-99265820D01*
X151328188Y-99385518D01*
X151315928Y-99510000D01*
X151319000Y-99711750D01*
X151477750Y-99870500D01*
X152527000Y-99870500D01*
X152527000Y-99850500D01*
X152781000Y-99850500D01*
X152781000Y-99870500D01*
X152801000Y-99870500D01*
X152801000Y-100124500D01*
X152781000Y-100124500D01*
X152781000Y-100144500D01*
X152527000Y-100144500D01*
X152527000Y-100124500D01*
X151477750Y-100124500D01*
X151319000Y-100283250D01*
X151315928Y-100485000D01*
X151328188Y-100609482D01*
X151364498Y-100729180D01*
X151423463Y-100839494D01*
X151502815Y-100936185D01*
X151599506Y-101015537D01*
X151709820Y-101074502D01*
X151829518Y-101110812D01*
X151954000Y-101123072D01*
X152368250Y-101120000D01*
X152526998Y-100961252D01*
X152526998Y-101120000D01*
X152625653Y-101120000D01*
X151078233Y-102667421D01*
X151069513Y-102578889D01*
X150984599Y-102298966D01*
X150846706Y-102040986D01*
X150661134Y-101814866D01*
X150435014Y-101629294D01*
X150380209Y-101600000D01*
X150435014Y-101570706D01*
X150661134Y-101385134D01*
X150846706Y-101159014D01*
X150984599Y-100901034D01*
X151069513Y-100621111D01*
X151098185Y-100330000D01*
X151069513Y-100038889D01*
X150984599Y-99758966D01*
X150846706Y-99500986D01*
X150661134Y-99274866D01*
X150435014Y-99089294D01*
X150380209Y-99060000D01*
X150435014Y-99030706D01*
X150563817Y-98925000D01*
X150749810Y-98925000D01*
X150753051Y-98928949D01*
M02*
