G04 #@! TF.GenerationSoftware,KiCad,Pcbnew,(5.1.2)-1*
G04 #@! TF.CreationDate,2019-07-08T23:37:35+09:00*
G04 #@! TF.ProjectId,ESP32-breakout-SMD,45535033-322d-4627-9265-616b6f75742d,rev?*
G04 #@! TF.SameCoordinates,Original*
G04 #@! TF.FileFunction,Legend,Top*
G04 #@! TF.FilePolarity,Positive*
%FSLAX46Y46*%
G04 Gerber Fmt 4.6, Leading zero omitted, Abs format (unit mm)*
G04 Created by KiCad (PCBNEW (5.1.2)-1) date 2019-07-08 23:37:35*
%MOMM*%
%LPD*%
G04 APERTURE LIST*
%ADD10C,0.150000*%
%ADD11C,0.120000*%
%ADD12C,0.200000*%
%ADD13C,0.203200*%
%ADD14C,0.254000*%
%ADD15C,0.500000*%
%ADD16C,0.300000*%
G04 APERTURE END LIST*
D10*
X171982199Y-122369281D02*
X172648513Y-122390972D01*
X171593702Y-122594855D02*
X172299862Y-122856065D01*
X172320004Y-122237345D01*
X172667105Y-121819846D02*
X172673302Y-121629470D01*
X172628807Y-121532733D01*
X172582762Y-121483590D01*
X172443080Y-121383754D01*
X172254254Y-121329963D01*
X171873503Y-121317568D01*
X171776766Y-121362064D01*
X171727623Y-121408108D01*
X171676930Y-121501746D01*
X171670733Y-121692122D01*
X171715228Y-121788859D01*
X171761273Y-121838002D01*
X171854911Y-121888694D01*
X172092880Y-121896441D01*
X172189617Y-121851946D01*
X172238760Y-121805902D01*
X172289453Y-121712263D01*
X172295650Y-121521888D01*
X172251155Y-121425151D01*
X172205110Y-121376008D01*
X172111472Y-121325315D01*
X172601355Y-120912464D02*
X172650498Y-120866420D01*
X172696542Y-120915563D01*
X172647399Y-120961607D01*
X172601355Y-120912464D01*
X172696542Y-120915563D01*
X172713585Y-120392031D02*
X172719782Y-120201655D01*
X172675287Y-120104918D01*
X172629243Y-120055775D01*
X172489560Y-119955939D01*
X172300734Y-119902148D01*
X171919983Y-119889753D01*
X171823246Y-119934248D01*
X171774103Y-119980293D01*
X171723410Y-120073931D01*
X171717213Y-120264307D01*
X171761708Y-120361044D01*
X171807753Y-120410187D01*
X171901391Y-120460879D01*
X172139360Y-120468626D01*
X172236097Y-120424131D01*
X172285240Y-120378086D01*
X172335933Y-120284448D01*
X172342130Y-120094073D01*
X172297635Y-119997336D01*
X172251591Y-119948193D01*
X172157952Y-119897500D01*
X171757496Y-119026867D02*
X171751299Y-119217242D01*
X171795794Y-119313979D01*
X171841838Y-119363122D01*
X171981521Y-119462958D01*
X172170347Y-119516749D01*
X172551098Y-119529144D01*
X172647835Y-119484649D01*
X172696978Y-119438604D01*
X172747671Y-119344966D01*
X172753868Y-119154591D01*
X172709373Y-119057854D01*
X172663328Y-119008711D01*
X172569690Y-118958018D01*
X172331721Y-118950271D01*
X172234984Y-118994767D01*
X172185841Y-119040811D01*
X172135148Y-119134449D01*
X172128951Y-119324825D01*
X172173446Y-119421562D01*
X172219490Y-119470705D01*
X172313129Y-119521397D01*
X171771440Y-118598522D02*
X171791582Y-117979803D01*
X172161487Y-118325354D01*
X172166135Y-118182573D01*
X172216827Y-118088934D01*
X172265971Y-118042890D01*
X172362708Y-117998395D01*
X172600677Y-118006141D01*
X172694315Y-118056834D01*
X172740360Y-118105977D01*
X172784855Y-118202714D01*
X172775559Y-118488277D01*
X172724866Y-118581915D01*
X172675723Y-118627960D01*
X172829786Y-116822493D02*
X172163472Y-116800802D01*
X172258660Y-116803901D02*
X172212615Y-116754758D01*
X172168120Y-116658021D01*
X172172768Y-116515239D01*
X172223460Y-116421601D01*
X172320197Y-116377106D01*
X172843730Y-116394148D01*
X172320197Y-116377106D02*
X172226559Y-116326413D01*
X172182064Y-116229676D01*
X172186712Y-116086894D01*
X172237405Y-115993256D01*
X172334142Y-115948761D01*
X172857674Y-115965804D01*
X172873167Y-115489865D02*
X172206853Y-115468175D01*
X172302041Y-115471273D02*
X172255997Y-115422130D01*
X172211501Y-115325393D01*
X172216150Y-115182612D01*
X172266842Y-115088973D01*
X172363579Y-115044478D01*
X172887111Y-115061521D01*
X172363579Y-115044478D02*
X172269941Y-114993786D01*
X172225446Y-114897049D01*
X172230094Y-114754267D01*
X172280786Y-114660629D01*
X172377523Y-114616134D01*
X172901055Y-114633176D01*
D11*
X174397799Y-93784649D02*
X172772199Y-143721049D01*
X175717200Y-93827600D02*
X173811689Y-93765569D01*
X174091600Y-143764000D02*
X172186089Y-143701969D01*
X172772199Y-143721049D02*
X172222741Y-142576062D01*
X172772199Y-143721049D02*
X173394961Y-142614222D01*
X174397799Y-93784649D02*
X173775037Y-94891476D01*
X174397799Y-93784649D02*
X174947257Y-94929636D01*
D10*
X169916784Y-94706854D02*
X169440615Y-94711389D01*
X169397533Y-95188011D01*
X169444696Y-95139941D01*
X169539477Y-95091417D01*
X169777561Y-95089149D01*
X169873248Y-95135859D01*
X169921319Y-95183023D01*
X169969843Y-95277803D01*
X169972110Y-95515888D01*
X169925400Y-95611575D01*
X169878237Y-95659645D01*
X169783456Y-95708169D01*
X169545372Y-95710437D01*
X169449685Y-95663727D01*
X169401614Y-95616563D01*
X170401569Y-95607040D02*
X170449639Y-95654203D01*
X170402476Y-95702274D01*
X170354406Y-95655110D01*
X170401569Y-95607040D01*
X170402476Y-95702274D01*
X170773888Y-94698691D02*
X171392907Y-94692796D01*
X171063217Y-95076905D01*
X171206068Y-95075545D01*
X171301755Y-95122255D01*
X171349825Y-95169418D01*
X171398349Y-95264198D01*
X171400617Y-95502283D01*
X171353907Y-95597970D01*
X171306743Y-95646040D01*
X171211963Y-95694564D01*
X170926262Y-95697285D01*
X170830574Y-95650575D01*
X170782504Y-95603412D01*
X171726225Y-94689621D02*
X172345245Y-94683726D01*
X172015555Y-95067835D01*
X172158405Y-95066475D01*
X172254093Y-95113185D01*
X172302163Y-95160348D01*
X172350687Y-95255128D01*
X172352954Y-95493213D01*
X172306244Y-95588900D01*
X172259081Y-95636970D01*
X172164301Y-95685494D01*
X171878599Y-95688215D01*
X171782912Y-95641505D01*
X171734842Y-95594342D01*
X173205523Y-95008881D02*
X173211872Y-95675517D01*
X172963811Y-94630213D02*
X172732529Y-95346734D01*
X173351549Y-95340839D01*
X174497528Y-95663273D02*
X174491179Y-94996637D01*
X174492086Y-95091870D02*
X174539250Y-95043800D01*
X174634030Y-94995276D01*
X174776881Y-94993916D01*
X174872568Y-95040626D01*
X174921092Y-95135406D01*
X174926080Y-95659192D01*
X174921092Y-95135406D02*
X174967802Y-95039719D01*
X175062582Y-94991195D01*
X175205433Y-94989834D01*
X175301120Y-95036544D01*
X175349644Y-95131324D01*
X175354632Y-95655110D01*
X175830801Y-95650575D02*
X175824452Y-94983939D01*
X175825359Y-95079173D02*
X175872523Y-95031102D01*
X175967303Y-94982578D01*
X176110154Y-94981218D01*
X176205841Y-95027928D01*
X176254365Y-95122708D01*
X176259353Y-95646494D01*
X176254365Y-95122708D02*
X176301075Y-95027021D01*
X176395855Y-94978497D01*
X176538706Y-94977136D01*
X176634393Y-95023846D01*
X176682917Y-95118627D01*
X176687905Y-95642412D01*
D11*
X170385619Y-93979976D02*
X175719619Y-93929176D01*
X170383200Y-93726000D02*
X170391204Y-94566371D01*
X175717200Y-93675200D02*
X175725204Y-94515571D01*
X175719619Y-93929176D02*
X174598751Y-94526298D01*
X175719619Y-93929176D02*
X174587582Y-93353510D01*
X170385619Y-93979976D02*
X171517656Y-94555642D01*
X170385619Y-93979976D02*
X171506487Y-93382854D01*
D12*
X178013600Y-132968876D02*
X177951695Y-133092685D01*
X177951695Y-133278400D01*
X178013600Y-133464114D01*
X178137409Y-133587923D01*
X178261219Y-133649828D01*
X178508838Y-133711733D01*
X178694552Y-133711733D01*
X178942171Y-133649828D01*
X179065980Y-133587923D01*
X179189790Y-133464114D01*
X179251695Y-133278400D01*
X179251695Y-133154590D01*
X179189790Y-132968876D01*
X179127885Y-132906971D01*
X178694552Y-132906971D01*
X178694552Y-133154590D01*
X179251695Y-132349828D02*
X177951695Y-132349828D01*
X179251695Y-131606971D01*
X177951695Y-131606971D01*
X179251695Y-130987923D02*
X177951695Y-130987923D01*
X177951695Y-130678400D01*
X178013600Y-130492685D01*
X178137409Y-130368876D01*
X178261219Y-130306971D01*
X178508838Y-130245066D01*
X178694552Y-130245066D01*
X178942171Y-130306971D01*
X179065980Y-130368876D01*
X179189790Y-130492685D01*
X179251695Y-130678400D01*
X179251695Y-130987923D01*
X177270495Y-132845066D02*
X176651447Y-133278400D01*
X177270495Y-133587923D02*
X175970495Y-133587923D01*
X175970495Y-133092685D01*
X176032400Y-132968876D01*
X176094304Y-132906971D01*
X176218114Y-132845066D01*
X176403828Y-132845066D01*
X176527638Y-132906971D01*
X176589542Y-132968876D01*
X176651447Y-133092685D01*
X176651447Y-133587923D01*
X175970495Y-132411733D02*
X177270495Y-131545066D01*
X175970495Y-131545066D02*
X177270495Y-132411733D01*
X177270495Y-131049828D02*
X175970495Y-131049828D01*
X175970495Y-130740304D01*
X176032400Y-130554590D01*
X176156209Y-130430780D01*
X176280019Y-130368876D01*
X176527638Y-130306971D01*
X176713352Y-130306971D01*
X176960971Y-130368876D01*
X177084780Y-130430780D01*
X177208590Y-130554590D01*
X177270495Y-130740304D01*
X177270495Y-131049828D01*
X173887695Y-133618876D02*
X173887695Y-132876019D01*
X175187695Y-133247447D02*
X173887695Y-133247447D01*
X173887695Y-132566495D02*
X175187695Y-131699828D01*
X173887695Y-131699828D02*
X175187695Y-132566495D01*
X175187695Y-131204590D02*
X173887695Y-131204590D01*
X173887695Y-130895066D01*
X173949600Y-130709352D01*
X174073409Y-130585542D01*
X174197219Y-130523638D01*
X174444838Y-130461733D01*
X174630552Y-130461733D01*
X174878171Y-130523638D01*
X175001980Y-130585542D01*
X175125790Y-130709352D01*
X175187695Y-130895066D01*
X175187695Y-131204590D01*
X171906495Y-133897447D02*
X171906495Y-133092685D01*
X172401733Y-133526019D01*
X172401733Y-133340304D01*
X172463638Y-133216495D01*
X172525542Y-133154590D01*
X172649352Y-133092685D01*
X172958876Y-133092685D01*
X173082685Y-133154590D01*
X173144590Y-133216495D01*
X173206495Y-133340304D01*
X173206495Y-133711733D01*
X173144590Y-133835542D01*
X173082685Y-133897447D01*
X173082685Y-132535542D02*
X173144590Y-132473638D01*
X173206495Y-132535542D01*
X173144590Y-132597447D01*
X173082685Y-132535542D01*
X173206495Y-132535542D01*
X171906495Y-132040304D02*
X171906495Y-131235542D01*
X172401733Y-131668876D01*
X172401733Y-131483161D01*
X172463638Y-131359352D01*
X172525542Y-131297447D01*
X172649352Y-131235542D01*
X172958876Y-131235542D01*
X173082685Y-131297447D01*
X173144590Y-131359352D01*
X173206495Y-131483161D01*
X173206495Y-131854590D01*
X173144590Y-131978400D01*
X173082685Y-132040304D01*
X171906495Y-130864114D02*
X173206495Y-130430780D01*
X171906495Y-129997447D01*
X164754800Y-132968876D02*
X164692895Y-133092685D01*
X164692895Y-133278400D01*
X164754800Y-133464114D01*
X164878609Y-133587923D01*
X165002419Y-133649828D01*
X165250038Y-133711733D01*
X165435752Y-133711733D01*
X165683371Y-133649828D01*
X165807180Y-133587923D01*
X165930990Y-133464114D01*
X165992895Y-133278400D01*
X165992895Y-133154590D01*
X165930990Y-132968876D01*
X165869085Y-132906971D01*
X165435752Y-132906971D01*
X165435752Y-133154590D01*
X165992895Y-132349828D02*
X164692895Y-132349828D01*
X165992895Y-131606971D01*
X164692895Y-131606971D01*
X165992895Y-130987923D02*
X164692895Y-130987923D01*
X164692895Y-130678400D01*
X164754800Y-130492685D01*
X164878609Y-130368876D01*
X165002419Y-130306971D01*
X165250038Y-130245066D01*
X165435752Y-130245066D01*
X165683371Y-130306971D01*
X165807180Y-130368876D01*
X165930990Y-130492685D01*
X165992895Y-130678400D01*
X165992895Y-130987923D01*
X163898990Y-133556971D02*
X163960895Y-133371257D01*
X163960895Y-133061733D01*
X163898990Y-132937923D01*
X163837085Y-132876019D01*
X163713276Y-132814114D01*
X163589466Y-132814114D01*
X163465657Y-132876019D01*
X163403752Y-132937923D01*
X163341847Y-133061733D01*
X163279942Y-133309352D01*
X163218038Y-133433161D01*
X163156133Y-133495066D01*
X163032323Y-133556971D01*
X162908514Y-133556971D01*
X162784704Y-133495066D01*
X162722800Y-133433161D01*
X162660895Y-133309352D01*
X162660895Y-132999828D01*
X162722800Y-132814114D01*
X163960895Y-132256971D02*
X162660895Y-132256971D01*
X162660895Y-131947447D01*
X162722800Y-131761733D01*
X162846609Y-131637923D01*
X162970419Y-131576019D01*
X163218038Y-131514114D01*
X163403752Y-131514114D01*
X163651371Y-131576019D01*
X163775180Y-131637923D01*
X163898990Y-131761733D01*
X163960895Y-131947447D01*
X163960895Y-132256971D01*
X163589466Y-131018876D02*
X163589466Y-130399828D01*
X163960895Y-131142685D02*
X162660895Y-130709352D01*
X163960895Y-130276019D01*
X161917790Y-133526019D02*
X161979695Y-133340304D01*
X161979695Y-133030780D01*
X161917790Y-132906971D01*
X161855885Y-132845066D01*
X161732076Y-132783161D01*
X161608266Y-132783161D01*
X161484457Y-132845066D01*
X161422552Y-132906971D01*
X161360647Y-133030780D01*
X161298742Y-133278400D01*
X161236838Y-133402209D01*
X161174933Y-133464114D01*
X161051123Y-133526019D01*
X160927314Y-133526019D01*
X160803504Y-133464114D01*
X160741600Y-133402209D01*
X160679695Y-133278400D01*
X160679695Y-132968876D01*
X160741600Y-132783161D01*
X161855885Y-131483161D02*
X161917790Y-131545066D01*
X161979695Y-131730780D01*
X161979695Y-131854590D01*
X161917790Y-132040304D01*
X161793980Y-132164114D01*
X161670171Y-132226019D01*
X161422552Y-132287923D01*
X161236838Y-132287923D01*
X160989219Y-132226019D01*
X160865409Y-132164114D01*
X160741600Y-132040304D01*
X160679695Y-131854590D01*
X160679695Y-131730780D01*
X160741600Y-131545066D01*
X160803504Y-131483161D01*
X161979695Y-130306971D02*
X161979695Y-130926019D01*
X160679695Y-130926019D01*
X158698495Y-133897447D02*
X158698495Y-133092685D01*
X159193733Y-133526019D01*
X159193733Y-133340304D01*
X159255638Y-133216495D01*
X159317542Y-133154590D01*
X159441352Y-133092685D01*
X159750876Y-133092685D01*
X159874685Y-133154590D01*
X159936590Y-133216495D01*
X159998495Y-133340304D01*
X159998495Y-133711733D01*
X159936590Y-133835542D01*
X159874685Y-133897447D01*
X159874685Y-132535542D02*
X159936590Y-132473638D01*
X159998495Y-132535542D01*
X159936590Y-132597447D01*
X159874685Y-132535542D01*
X159998495Y-132535542D01*
X158698495Y-132040304D02*
X158698495Y-131235542D01*
X159193733Y-131668876D01*
X159193733Y-131483161D01*
X159255638Y-131359352D01*
X159317542Y-131297447D01*
X159441352Y-131235542D01*
X159750876Y-131235542D01*
X159874685Y-131297447D01*
X159936590Y-131359352D01*
X159998495Y-131483161D01*
X159998495Y-131854590D01*
X159936590Y-131978400D01*
X159874685Y-132040304D01*
X158698495Y-130864114D02*
X159998495Y-130430780D01*
X158698495Y-129997447D01*
X151394400Y-132968876D02*
X151332495Y-133092685D01*
X151332495Y-133278400D01*
X151394400Y-133464114D01*
X151518209Y-133587923D01*
X151642019Y-133649828D01*
X151889638Y-133711733D01*
X152075352Y-133711733D01*
X152322971Y-133649828D01*
X152446780Y-133587923D01*
X152570590Y-133464114D01*
X152632495Y-133278400D01*
X152632495Y-133154590D01*
X152570590Y-132968876D01*
X152508685Y-132906971D01*
X152075352Y-132906971D01*
X152075352Y-133154590D01*
X152632495Y-132349828D02*
X151332495Y-132349828D01*
X152632495Y-131606971D01*
X151332495Y-131606971D01*
X152632495Y-130987923D02*
X151332495Y-130987923D01*
X151332495Y-130678400D01*
X151394400Y-130492685D01*
X151518209Y-130368876D01*
X151642019Y-130306971D01*
X151889638Y-130245066D01*
X152075352Y-130245066D01*
X152322971Y-130306971D01*
X152446780Y-130368876D01*
X152570590Y-130492685D01*
X152632495Y-130678400D01*
X152632495Y-130987923D01*
D13*
X152333476Y-126062619D02*
X151752904Y-126062619D01*
X152043190Y-126062619D02*
X152043190Y-125046619D01*
X151946428Y-125191761D01*
X151849666Y-125288523D01*
X151752904Y-125336904D01*
X153204333Y-125385285D02*
X153204333Y-126062619D01*
X152962428Y-124998238D02*
X152720523Y-125723952D01*
X153349476Y-125723952D01*
X151752904Y-120190380D02*
X151801285Y-120142000D01*
X151898047Y-120093619D01*
X152139952Y-120093619D01*
X152236714Y-120142000D01*
X152285095Y-120190380D01*
X152333476Y-120287142D01*
X152333476Y-120383904D01*
X152285095Y-120529047D01*
X151704523Y-121109619D01*
X152333476Y-121109619D01*
X153204333Y-120093619D02*
X153010809Y-120093619D01*
X152914047Y-120142000D01*
X152865666Y-120190380D01*
X152768904Y-120335523D01*
X152720523Y-120529047D01*
X152720523Y-120916095D01*
X152768904Y-121012857D01*
X152817285Y-121061238D01*
X152914047Y-121109619D01*
X153107571Y-121109619D01*
X153204333Y-121061238D01*
X153252714Y-121012857D01*
X153301095Y-120916095D01*
X153301095Y-120674190D01*
X153252714Y-120577428D01*
X153204333Y-120529047D01*
X153107571Y-120480666D01*
X152914047Y-120480666D01*
X152817285Y-120529047D01*
X152768904Y-120577428D01*
X152720523Y-120674190D01*
X151752904Y-122603380D02*
X151801285Y-122555000D01*
X151898047Y-122506619D01*
X152139952Y-122506619D01*
X152236714Y-122555000D01*
X152285095Y-122603380D01*
X152333476Y-122700142D01*
X152333476Y-122796904D01*
X152285095Y-122942047D01*
X151704523Y-123522619D01*
X152333476Y-123522619D01*
X152672142Y-122506619D02*
X153349476Y-122506619D01*
X152914047Y-123522619D01*
X152333476Y-128729619D02*
X151752904Y-128729619D01*
X152043190Y-128729619D02*
X152043190Y-127713619D01*
X151946428Y-127858761D01*
X151849666Y-127955523D01*
X151752904Y-128003904D01*
X152720523Y-127810380D02*
X152768904Y-127762000D01*
X152865666Y-127713619D01*
X153107571Y-127713619D01*
X153204333Y-127762000D01*
X153252714Y-127810380D01*
X153301095Y-127907142D01*
X153301095Y-128003904D01*
X153252714Y-128149047D01*
X152672142Y-128729619D01*
X153301095Y-128729619D01*
X151704523Y-112346619D02*
X152333476Y-112346619D01*
X151994809Y-112733666D01*
X152139952Y-112733666D01*
X152236714Y-112782047D01*
X152285095Y-112830428D01*
X152333476Y-112927190D01*
X152333476Y-113169095D01*
X152285095Y-113265857D01*
X152236714Y-113314238D01*
X152139952Y-113362619D01*
X151849666Y-113362619D01*
X151752904Y-113314238D01*
X151704523Y-113265857D01*
X152720523Y-112443380D02*
X152768904Y-112395000D01*
X152865666Y-112346619D01*
X153107571Y-112346619D01*
X153204333Y-112395000D01*
X153252714Y-112443380D01*
X153301095Y-112540142D01*
X153301095Y-112636904D01*
X153252714Y-112782047D01*
X152672142Y-113362619D01*
X153301095Y-113362619D01*
X151656142Y-104853619D02*
X151994809Y-105869619D01*
X152333476Y-104853619D01*
X152672142Y-105869619D02*
X152672142Y-104853619D01*
X153252714Y-105869619D01*
X153252714Y-104853619D01*
X151680333Y-102440619D02*
X152019000Y-103456619D01*
X152357666Y-102440619D01*
X152696333Y-103456619D02*
X152696333Y-102440619D01*
X153083380Y-102440619D01*
X153180142Y-102489000D01*
X153228523Y-102537380D01*
X153276904Y-102634142D01*
X153276904Y-102779285D01*
X153228523Y-102876047D01*
X153180142Y-102924428D01*
X153083380Y-102972809D01*
X152696333Y-102972809D01*
X151704523Y-107393619D02*
X152333476Y-107393619D01*
X151994809Y-107780666D01*
X152139952Y-107780666D01*
X152236714Y-107829047D01*
X152285095Y-107877428D01*
X152333476Y-107974190D01*
X152333476Y-108216095D01*
X152285095Y-108312857D01*
X152236714Y-108361238D01*
X152139952Y-108409619D01*
X151849666Y-108409619D01*
X151752904Y-108361238D01*
X151704523Y-108312857D01*
X153204333Y-107732285D02*
X153204333Y-108409619D01*
X152962428Y-107345238D02*
X152720523Y-108070952D01*
X153349476Y-108070952D01*
X151704523Y-109933619D02*
X152333476Y-109933619D01*
X151994809Y-110320666D01*
X152139952Y-110320666D01*
X152236714Y-110369047D01*
X152285095Y-110417428D01*
X152333476Y-110514190D01*
X152333476Y-110756095D01*
X152285095Y-110852857D01*
X152236714Y-110901238D01*
X152139952Y-110949619D01*
X151849666Y-110949619D01*
X151752904Y-110901238D01*
X151704523Y-110852857D01*
X153252714Y-109933619D02*
X152768904Y-109933619D01*
X152720523Y-110417428D01*
X152768904Y-110369047D01*
X152865666Y-110320666D01*
X153107571Y-110320666D01*
X153204333Y-110369047D01*
X153252714Y-110417428D01*
X153301095Y-110514190D01*
X153301095Y-110756095D01*
X153252714Y-110852857D01*
X153204333Y-110901238D01*
X153107571Y-110949619D01*
X152865666Y-110949619D01*
X152768904Y-110901238D01*
X152720523Y-110852857D01*
X151752904Y-117650380D02*
X151801285Y-117602000D01*
X151898047Y-117553619D01*
X152139952Y-117553619D01*
X152236714Y-117602000D01*
X152285095Y-117650380D01*
X152333476Y-117747142D01*
X152333476Y-117843904D01*
X152285095Y-117989047D01*
X151704523Y-118569619D01*
X152333476Y-118569619D01*
X153252714Y-117553619D02*
X152768904Y-117553619D01*
X152720523Y-118037428D01*
X152768904Y-117989047D01*
X152865666Y-117940666D01*
X153107571Y-117940666D01*
X153204333Y-117989047D01*
X153252714Y-118037428D01*
X153301095Y-118134190D01*
X153301095Y-118376095D01*
X153252714Y-118472857D01*
X153204333Y-118521238D01*
X153107571Y-118569619D01*
X152865666Y-118569619D01*
X152768904Y-118521238D01*
X152720523Y-118472857D01*
X151704523Y-114886619D02*
X152333476Y-114886619D01*
X151994809Y-115273666D01*
X152139952Y-115273666D01*
X152236714Y-115322047D01*
X152285095Y-115370428D01*
X152333476Y-115467190D01*
X152333476Y-115709095D01*
X152285095Y-115805857D01*
X152236714Y-115854238D01*
X152139952Y-115902619D01*
X151849666Y-115902619D01*
X151752904Y-115854238D01*
X151704523Y-115805857D01*
X152672142Y-114886619D02*
X153301095Y-114886619D01*
X152962428Y-115273666D01*
X153107571Y-115273666D01*
X153204333Y-115322047D01*
X153252714Y-115370428D01*
X153301095Y-115467190D01*
X153301095Y-115709095D01*
X153252714Y-115805857D01*
X153204333Y-115854238D01*
X153107571Y-115902619D01*
X152817285Y-115902619D01*
X152720523Y-115854238D01*
X152672142Y-115805857D01*
X176342523Y-125385285D02*
X176342523Y-126062619D01*
X176100619Y-124998238D02*
X175858714Y-125723952D01*
X176487666Y-125723952D01*
X176100619Y-127586619D02*
X176197380Y-127586619D01*
X176294142Y-127635000D01*
X176342523Y-127683380D01*
X176390904Y-127780142D01*
X176439285Y-127973666D01*
X176439285Y-128215571D01*
X176390904Y-128409095D01*
X176342523Y-128505857D01*
X176294142Y-128554238D01*
X176197380Y-128602619D01*
X176100619Y-128602619D01*
X176003857Y-128554238D01*
X175955476Y-128505857D01*
X175907095Y-128409095D01*
X175858714Y-128215571D01*
X175858714Y-127973666D01*
X175907095Y-127780142D01*
X175955476Y-127683380D01*
X176003857Y-127635000D01*
X176100619Y-127586619D01*
X175955476Y-113362619D02*
X175374904Y-113362619D01*
X175665190Y-113362619D02*
X175665190Y-112346619D01*
X175568428Y-112491761D01*
X175471666Y-112588523D01*
X175374904Y-112636904D01*
X176439285Y-113362619D02*
X176632809Y-113362619D01*
X176729571Y-113314238D01*
X176777952Y-113265857D01*
X176874714Y-113120714D01*
X176923095Y-112927190D01*
X176923095Y-112540142D01*
X176874714Y-112443380D01*
X176826333Y-112395000D01*
X176729571Y-112346619D01*
X176536047Y-112346619D01*
X176439285Y-112395000D01*
X176390904Y-112443380D01*
X176342523Y-112540142D01*
X176342523Y-112782047D01*
X176390904Y-112878809D01*
X176439285Y-112927190D01*
X176536047Y-112975571D01*
X176729571Y-112975571D01*
X176826333Y-112927190D01*
X176874714Y-112878809D01*
X176923095Y-112782047D01*
X175350714Y-110949619D02*
X175350714Y-109933619D01*
X175931285Y-110949619D01*
X175931285Y-109933619D01*
X176995666Y-110852857D02*
X176947285Y-110901238D01*
X176802142Y-110949619D01*
X176705380Y-110949619D01*
X176560238Y-110901238D01*
X176463476Y-110804476D01*
X176415095Y-110707714D01*
X176366714Y-110514190D01*
X176366714Y-110369047D01*
X176415095Y-110175523D01*
X176463476Y-110078761D01*
X176560238Y-109982000D01*
X176705380Y-109933619D01*
X176802142Y-109933619D01*
X176947285Y-109982000D01*
X176995666Y-110030380D01*
X175955476Y-123395619D02*
X175374904Y-123395619D01*
X175665190Y-123395619D02*
X175665190Y-122379619D01*
X175568428Y-122524761D01*
X175471666Y-122621523D01*
X175374904Y-122669904D01*
X176826333Y-122379619D02*
X176632809Y-122379619D01*
X176536047Y-122428000D01*
X176487666Y-122476380D01*
X176390904Y-122621523D01*
X176342523Y-122815047D01*
X176342523Y-123202095D01*
X176390904Y-123298857D01*
X176439285Y-123347238D01*
X176536047Y-123395619D01*
X176729571Y-123395619D01*
X176826333Y-123347238D01*
X176874714Y-123298857D01*
X176923095Y-123202095D01*
X176923095Y-122960190D01*
X176874714Y-122863428D01*
X176826333Y-122815047D01*
X176729571Y-122766666D01*
X176536047Y-122766666D01*
X176439285Y-122815047D01*
X176390904Y-122863428D01*
X176342523Y-122960190D01*
X175955476Y-120855619D02*
X175374904Y-120855619D01*
X175665190Y-120855619D02*
X175665190Y-119839619D01*
X175568428Y-119984761D01*
X175471666Y-120081523D01*
X175374904Y-120129904D01*
X176294142Y-119839619D02*
X176971476Y-119839619D01*
X176536047Y-120855619D01*
X176390904Y-117426619D02*
X175907095Y-117426619D01*
X175858714Y-117910428D01*
X175907095Y-117862047D01*
X176003857Y-117813666D01*
X176245761Y-117813666D01*
X176342523Y-117862047D01*
X176390904Y-117910428D01*
X176439285Y-118007190D01*
X176439285Y-118249095D01*
X176390904Y-118345857D01*
X176342523Y-118394238D01*
X176245761Y-118442619D01*
X176003857Y-118442619D01*
X175907095Y-118394238D01*
X175858714Y-118345857D01*
X175955476Y-115902619D02*
X175374904Y-115902619D01*
X175665190Y-115902619D02*
X175665190Y-114886619D01*
X175568428Y-115031761D01*
X175471666Y-115128523D01*
X175374904Y-115176904D01*
X176536047Y-115322047D02*
X176439285Y-115273666D01*
X176390904Y-115225285D01*
X176342523Y-115128523D01*
X176342523Y-115080142D01*
X176390904Y-114983380D01*
X176439285Y-114935000D01*
X176536047Y-114886619D01*
X176729571Y-114886619D01*
X176826333Y-114935000D01*
X176874714Y-114983380D01*
X176923095Y-115080142D01*
X176923095Y-115128523D01*
X176874714Y-115225285D01*
X176826333Y-115273666D01*
X176729571Y-115322047D01*
X176536047Y-115322047D01*
X176439285Y-115370428D01*
X176390904Y-115418809D01*
X176342523Y-115515571D01*
X176342523Y-115709095D01*
X176390904Y-115805857D01*
X176439285Y-115854238D01*
X176536047Y-115902619D01*
X176729571Y-115902619D01*
X176826333Y-115854238D01*
X176874714Y-115805857D01*
X176923095Y-115709095D01*
X176923095Y-115515571D01*
X176874714Y-115418809D01*
X176826333Y-115370428D01*
X176729571Y-115322047D01*
X175344666Y-105742619D02*
X175006000Y-105258809D01*
X174764095Y-105742619D02*
X174764095Y-104726619D01*
X175151142Y-104726619D01*
X175247904Y-104775000D01*
X175296285Y-104823380D01*
X175344666Y-104920142D01*
X175344666Y-105065285D01*
X175296285Y-105162047D01*
X175247904Y-105210428D01*
X175151142Y-105258809D01*
X174764095Y-105258809D01*
X175683333Y-104726619D02*
X176360666Y-105742619D01*
X176360666Y-104726619D02*
X175683333Y-105742619D01*
X176747714Y-105742619D02*
X176747714Y-104726619D01*
X176989619Y-104726619D01*
X177134761Y-104775000D01*
X177231523Y-104871761D01*
X177279904Y-104968523D01*
X177328285Y-105162047D01*
X177328285Y-105307190D01*
X177279904Y-105500714D01*
X177231523Y-105597476D01*
X177134761Y-105694238D01*
X176989619Y-105742619D01*
X176747714Y-105742619D01*
X174739904Y-102313619D02*
X175320476Y-102313619D01*
X175030190Y-103329619D02*
X175030190Y-102313619D01*
X175562380Y-102313619D02*
X176239714Y-103329619D01*
X176239714Y-102313619D02*
X175562380Y-103329619D01*
X176626761Y-103329619D02*
X176626761Y-102313619D01*
X176868666Y-102313619D01*
X177013809Y-102362000D01*
X177110571Y-102458761D01*
X177158952Y-102555523D01*
X177207333Y-102749047D01*
X177207333Y-102894190D01*
X177158952Y-103087714D01*
X177110571Y-103184476D01*
X177013809Y-103281238D01*
X176868666Y-103329619D01*
X176626761Y-103329619D01*
X175374904Y-107363380D02*
X175423285Y-107315000D01*
X175520047Y-107266619D01*
X175761952Y-107266619D01*
X175858714Y-107315000D01*
X175907095Y-107363380D01*
X175955476Y-107460142D01*
X175955476Y-107556904D01*
X175907095Y-107702047D01*
X175326523Y-108282619D01*
X175955476Y-108282619D01*
X176923095Y-108282619D02*
X176342523Y-108282619D01*
X176632809Y-108282619D02*
X176632809Y-107266619D01*
X176536047Y-107411761D01*
X176439285Y-107508523D01*
X176342523Y-107556904D01*
X175374904Y-99870380D02*
X175423285Y-99822000D01*
X175520047Y-99773619D01*
X175761952Y-99773619D01*
X175858714Y-99822000D01*
X175907095Y-99870380D01*
X175955476Y-99967142D01*
X175955476Y-100063904D01*
X175907095Y-100209047D01*
X175326523Y-100789619D01*
X175955476Y-100789619D01*
X176342523Y-99870380D02*
X176390904Y-99822000D01*
X176487666Y-99773619D01*
X176729571Y-99773619D01*
X176826333Y-99822000D01*
X176874714Y-99870380D01*
X176923095Y-99967142D01*
X176923095Y-100063904D01*
X176874714Y-100209047D01*
X176294142Y-100789619D01*
X176923095Y-100789619D01*
X175374904Y-97330380D02*
X175423285Y-97282000D01*
X175520047Y-97233619D01*
X175761952Y-97233619D01*
X175858714Y-97282000D01*
X175907095Y-97330380D01*
X175955476Y-97427142D01*
X175955476Y-97523904D01*
X175907095Y-97669047D01*
X175326523Y-98249619D01*
X175955476Y-98249619D01*
X176294142Y-97233619D02*
X176923095Y-97233619D01*
X176584428Y-97620666D01*
X176729571Y-97620666D01*
X176826333Y-97669047D01*
X176874714Y-97717428D01*
X176923095Y-97814190D01*
X176923095Y-98056095D01*
X176874714Y-98152857D01*
X176826333Y-98201238D01*
X176729571Y-98249619D01*
X176439285Y-98249619D01*
X176342523Y-98201238D01*
X176294142Y-98152857D01*
X175374904Y-94869000D02*
X175278142Y-94820619D01*
X175133000Y-94820619D01*
X174987857Y-94869000D01*
X174891095Y-94965761D01*
X174842714Y-95062523D01*
X174794333Y-95256047D01*
X174794333Y-95401190D01*
X174842714Y-95594714D01*
X174891095Y-95691476D01*
X174987857Y-95788238D01*
X175133000Y-95836619D01*
X175229761Y-95836619D01*
X175374904Y-95788238D01*
X175423285Y-95739857D01*
X175423285Y-95401190D01*
X175229761Y-95401190D01*
X175858714Y-95836619D02*
X175858714Y-94820619D01*
X176439285Y-95836619D01*
X176439285Y-94820619D01*
X176923095Y-95836619D02*
X176923095Y-94820619D01*
X177165000Y-94820619D01*
X177310142Y-94869000D01*
X177406904Y-94965761D01*
X177455285Y-95062523D01*
X177503666Y-95256047D01*
X177503666Y-95401190D01*
X177455285Y-95594714D01*
X177406904Y-95691476D01*
X177310142Y-95788238D01*
X177165000Y-95836619D01*
X176923095Y-95836619D01*
D14*
X167241507Y-128277906D02*
G75*
G03X167241507Y-128277906I-1023907J0D01*
G01*
X161602707Y-128244600D02*
G75*
G03X161602707Y-128244600I-1023907J0D01*
G01*
X164447507Y-128244600D02*
G75*
G03X164447507Y-128244600I-1023907J0D01*
G01*
D12*
X149402095Y-133897447D02*
X149402095Y-133092685D01*
X149897333Y-133526019D01*
X149897333Y-133340304D01*
X149959238Y-133216495D01*
X150021142Y-133154590D01*
X150144952Y-133092685D01*
X150454476Y-133092685D01*
X150578285Y-133154590D01*
X150640190Y-133216495D01*
X150702095Y-133340304D01*
X150702095Y-133711733D01*
X150640190Y-133835542D01*
X150578285Y-133897447D01*
X150578285Y-132535542D02*
X150640190Y-132473638D01*
X150702095Y-132535542D01*
X150640190Y-132597447D01*
X150578285Y-132535542D01*
X150702095Y-132535542D01*
X149402095Y-132040304D02*
X149402095Y-131235542D01*
X149897333Y-131668876D01*
X149897333Y-131483161D01*
X149959238Y-131359352D01*
X150021142Y-131297447D01*
X150144952Y-131235542D01*
X150454476Y-131235542D01*
X150578285Y-131297447D01*
X150640190Y-131359352D01*
X150702095Y-131483161D01*
X150702095Y-131854590D01*
X150640190Y-131978400D01*
X150578285Y-132040304D01*
X149402095Y-130864114D02*
X150702095Y-130430780D01*
X149402095Y-129997447D01*
D11*
X153364000Y-95686752D02*
X153364000Y-95164248D01*
X151944000Y-95686752D02*
X151944000Y-95164248D01*
X162561200Y-116477148D02*
X162561200Y-116999652D01*
X163981200Y-116477148D02*
X163981200Y-116999652D01*
X166419600Y-116999652D02*
X166419600Y-116477148D01*
X164999600Y-116999652D02*
X164999600Y-116477148D01*
X151944000Y-98798748D02*
X151944000Y-99321252D01*
X153364000Y-98798748D02*
X153364000Y-99321252D01*
X157081136Y-124608000D02*
X158285264Y-124608000D01*
X157081136Y-122788000D02*
X158285264Y-122788000D01*
X171278400Y-143346400D02*
X179958400Y-143346400D01*
X180658400Y-137126400D02*
X179378400Y-137126400D01*
X180658400Y-135526400D02*
X180658400Y-137126400D01*
X181678400Y-135526400D02*
X180658400Y-135526400D01*
X181678400Y-139776400D02*
X181678400Y-135526400D01*
X171858400Y-137126400D02*
X171858400Y-134236400D01*
X170578400Y-137126400D02*
X171858400Y-137126400D01*
X170578400Y-135526400D02*
X170578400Y-137126400D01*
X169558400Y-135526400D02*
X170578400Y-135526400D01*
X169558400Y-139776400D02*
X169558400Y-135526400D01*
X148276000Y-93920000D02*
X149606000Y-93920000D01*
X148276000Y-95250000D02*
X148276000Y-93920000D01*
X148276000Y-96520000D02*
X150936000Y-96520000D01*
X150936000Y-96520000D02*
X150936000Y-129600000D01*
X148276000Y-96520000D02*
X148276000Y-129600000D01*
X148276000Y-129600000D02*
X150936000Y-129600000D01*
X177486000Y-93920000D02*
X178816000Y-93920000D01*
X177486000Y-95250000D02*
X177486000Y-93920000D01*
X177486000Y-96520000D02*
X180146000Y-96520000D01*
X180146000Y-96520000D02*
X180146000Y-129600000D01*
X177486000Y-96520000D02*
X177486000Y-129600000D01*
X177486000Y-129600000D02*
X180146000Y-129600000D01*
D15*
X154707981Y-93756000D02*
G75*
G03X154707981Y-93756000I-283981J0D01*
G01*
D10*
X173330000Y-93610000D02*
X155330000Y-93610000D01*
X155330000Y-87610000D02*
X155330000Y-113110000D01*
X173330000Y-87610000D02*
X173330000Y-113110000D01*
X173330000Y-113110000D02*
X155330000Y-113110000D01*
X173330000Y-87610000D02*
X155330000Y-87610000D01*
D12*
X156446800Y-117696400D02*
X156446800Y-116796400D01*
X160646800Y-116796400D02*
X160646800Y-117696400D01*
X160646800Y-115646400D02*
X156446800Y-115646400D01*
X160646800Y-118846400D02*
X156446800Y-118846400D01*
X172381600Y-118795600D02*
X168181600Y-118795600D01*
X172381600Y-115595600D02*
X168181600Y-115595600D01*
X172381600Y-116745600D02*
X172381600Y-117645600D01*
X168181600Y-117645600D02*
X168181600Y-116745600D01*
D11*
X147019200Y-139776400D02*
X147019200Y-135526400D01*
X147019200Y-135526400D02*
X148039200Y-135526400D01*
X148039200Y-135526400D02*
X148039200Y-137126400D01*
X148039200Y-137126400D02*
X149319200Y-137126400D01*
X149319200Y-137126400D02*
X149319200Y-134236400D01*
X155139200Y-139776400D02*
X155139200Y-135526400D01*
X155139200Y-135526400D02*
X154119200Y-135526400D01*
X154119200Y-135526400D02*
X154119200Y-137126400D01*
X154119200Y-137126400D02*
X152839200Y-137126400D01*
X148739200Y-143346400D02*
X153419200Y-143346400D01*
X156296800Y-139776400D02*
X156296800Y-135526400D01*
X156296800Y-135526400D02*
X157316800Y-135526400D01*
X157316800Y-135526400D02*
X157316800Y-137126400D01*
X157316800Y-137126400D02*
X158596800Y-137126400D01*
X158596800Y-137126400D02*
X158596800Y-134236400D01*
X168416800Y-139776400D02*
X168416800Y-135526400D01*
X168416800Y-135526400D02*
X167396800Y-135526400D01*
X167396800Y-135526400D02*
X167396800Y-137126400D01*
X167396800Y-137126400D02*
X166116800Y-137126400D01*
X158016800Y-143346400D02*
X166696800Y-143346400D01*
D10*
X171116571Y-107820428D02*
X171116571Y-107487095D01*
X171640380Y-107344238D02*
X171640380Y-107820428D01*
X170640380Y-107820428D01*
X170640380Y-107344238D01*
X171592761Y-106963285D02*
X171640380Y-106868047D01*
X171640380Y-106677571D01*
X171592761Y-106582333D01*
X171497523Y-106534714D01*
X171449904Y-106534714D01*
X171354666Y-106582333D01*
X171307047Y-106677571D01*
X171307047Y-106820428D01*
X171259428Y-106915666D01*
X171164190Y-106963285D01*
X171116571Y-106963285D01*
X171021333Y-106915666D01*
X170973714Y-106820428D01*
X170973714Y-106677571D01*
X171021333Y-106582333D01*
X170973714Y-106106142D02*
X171973714Y-106106142D01*
X171021333Y-106106142D02*
X170973714Y-106010904D01*
X170973714Y-105820428D01*
X171021333Y-105725190D01*
X171068952Y-105677571D01*
X171164190Y-105629952D01*
X171449904Y-105629952D01*
X171545142Y-105677571D01*
X171592761Y-105725190D01*
X171640380Y-105820428D01*
X171640380Y-106010904D01*
X171592761Y-106106142D01*
X171640380Y-105201380D02*
X170973714Y-105201380D01*
X171164190Y-105201380D02*
X171068952Y-105153761D01*
X171021333Y-105106142D01*
X170973714Y-105010904D01*
X170973714Y-104915666D01*
X171592761Y-104201380D02*
X171640380Y-104296619D01*
X171640380Y-104487095D01*
X171592761Y-104582333D01*
X171497523Y-104629952D01*
X171116571Y-104629952D01*
X171021333Y-104582333D01*
X170973714Y-104487095D01*
X170973714Y-104296619D01*
X171021333Y-104201380D01*
X171116571Y-104153761D01*
X171211809Y-104153761D01*
X171307047Y-104629952D01*
X171592761Y-103772809D02*
X171640380Y-103677571D01*
X171640380Y-103487095D01*
X171592761Y-103391857D01*
X171497523Y-103344238D01*
X171449904Y-103344238D01*
X171354666Y-103391857D01*
X171307047Y-103487095D01*
X171307047Y-103629952D01*
X171259428Y-103725190D01*
X171164190Y-103772809D01*
X171116571Y-103772809D01*
X171021333Y-103725190D01*
X170973714Y-103629952D01*
X170973714Y-103487095D01*
X171021333Y-103391857D01*
X171592761Y-102963285D02*
X171640380Y-102868047D01*
X171640380Y-102677571D01*
X171592761Y-102582333D01*
X171497523Y-102534714D01*
X171449904Y-102534714D01*
X171354666Y-102582333D01*
X171307047Y-102677571D01*
X171307047Y-102820428D01*
X171259428Y-102915666D01*
X171164190Y-102963285D01*
X171116571Y-102963285D01*
X171021333Y-102915666D01*
X170973714Y-102820428D01*
X170973714Y-102677571D01*
X171021333Y-102582333D01*
X171640380Y-102106142D02*
X170973714Y-102106142D01*
X170640380Y-102106142D02*
X170688000Y-102153761D01*
X170735619Y-102106142D01*
X170688000Y-102058523D01*
X170640380Y-102106142D01*
X170735619Y-102106142D01*
X170973714Y-101772809D02*
X170973714Y-101391857D01*
X171640380Y-101629952D02*
X170783238Y-101629952D01*
X170688000Y-101582333D01*
X170640380Y-101487095D01*
X170640380Y-101391857D01*
X171592761Y-100344238D02*
X171640380Y-100201380D01*
X171640380Y-99963285D01*
X171592761Y-99868047D01*
X171545142Y-99820428D01*
X171449904Y-99772809D01*
X171354666Y-99772809D01*
X171259428Y-99820428D01*
X171211809Y-99868047D01*
X171164190Y-99963285D01*
X171116571Y-100153761D01*
X171068952Y-100249000D01*
X171021333Y-100296619D01*
X170926095Y-100344238D01*
X170830857Y-100344238D01*
X170735619Y-100296619D01*
X170688000Y-100249000D01*
X170640380Y-100153761D01*
X170640380Y-99915666D01*
X170688000Y-99772809D01*
X170973714Y-99439476D02*
X171640380Y-99201380D01*
X170973714Y-98963285D02*
X171640380Y-99201380D01*
X171878476Y-99296619D01*
X171926095Y-99344238D01*
X171973714Y-99439476D01*
X171592761Y-98629952D02*
X171640380Y-98534714D01*
X171640380Y-98344238D01*
X171592761Y-98249000D01*
X171497523Y-98201380D01*
X171449904Y-98201380D01*
X171354666Y-98249000D01*
X171307047Y-98344238D01*
X171307047Y-98487095D01*
X171259428Y-98582333D01*
X171164190Y-98629952D01*
X171116571Y-98629952D01*
X171021333Y-98582333D01*
X170973714Y-98487095D01*
X170973714Y-98344238D01*
X171021333Y-98249000D01*
X170973714Y-97915666D02*
X170973714Y-97534714D01*
X170640380Y-97772809D02*
X171497523Y-97772809D01*
X171592761Y-97725190D01*
X171640380Y-97629952D01*
X171640380Y-97534714D01*
X171592761Y-96820428D02*
X171640380Y-96915666D01*
X171640380Y-97106142D01*
X171592761Y-97201380D01*
X171497523Y-97249000D01*
X171116571Y-97249000D01*
X171021333Y-97201380D01*
X170973714Y-97106142D01*
X170973714Y-96915666D01*
X171021333Y-96820428D01*
X171116571Y-96772809D01*
X171211809Y-96772809D01*
X171307047Y-97249000D01*
X171640380Y-96344238D02*
X170973714Y-96344238D01*
X171068952Y-96344238D02*
X171021333Y-96296619D01*
X170973714Y-96201380D01*
X170973714Y-96058523D01*
X171021333Y-95963285D01*
X171116571Y-95915666D01*
X171640380Y-95915666D01*
X171116571Y-95915666D02*
X171021333Y-95868047D01*
X170973714Y-95772809D01*
X170973714Y-95629952D01*
X171021333Y-95534714D01*
X171116571Y-95487095D01*
X171640380Y-95487095D01*
X171592761Y-95058523D02*
X171640380Y-94963285D01*
X171640380Y-94772809D01*
X171592761Y-94677571D01*
X171497523Y-94629952D01*
X171449904Y-94629952D01*
X171354666Y-94677571D01*
X171307047Y-94772809D01*
X171307047Y-94915666D01*
X171259428Y-95010904D01*
X171164190Y-95058523D01*
X171116571Y-95058523D01*
X171021333Y-95010904D01*
X170973714Y-94915666D01*
X170973714Y-94772809D01*
X171021333Y-94677571D01*
X169465571Y-105558380D02*
X169465571Y-105225047D01*
X169989380Y-105082190D02*
X169989380Y-105558380D01*
X168989380Y-105558380D01*
X168989380Y-105082190D01*
X169941761Y-104701238D02*
X169989380Y-104558380D01*
X169989380Y-104320285D01*
X169941761Y-104225047D01*
X169894142Y-104177428D01*
X169798904Y-104129809D01*
X169703666Y-104129809D01*
X169608428Y-104177428D01*
X169560809Y-104225047D01*
X169513190Y-104320285D01*
X169465571Y-104510761D01*
X169417952Y-104606000D01*
X169370333Y-104653619D01*
X169275095Y-104701238D01*
X169179857Y-104701238D01*
X169084619Y-104653619D01*
X169037000Y-104606000D01*
X168989380Y-104510761D01*
X168989380Y-104272666D01*
X169037000Y-104129809D01*
X169989380Y-103701238D02*
X168989380Y-103701238D01*
X168989380Y-103320285D01*
X169037000Y-103225047D01*
X169084619Y-103177428D01*
X169179857Y-103129809D01*
X169322714Y-103129809D01*
X169417952Y-103177428D01*
X169465571Y-103225047D01*
X169513190Y-103320285D01*
X169513190Y-103701238D01*
X168989380Y-102796476D02*
X168989380Y-102177428D01*
X169370333Y-102510761D01*
X169370333Y-102367904D01*
X169417952Y-102272666D01*
X169465571Y-102225047D01*
X169560809Y-102177428D01*
X169798904Y-102177428D01*
X169894142Y-102225047D01*
X169941761Y-102272666D01*
X169989380Y-102367904D01*
X169989380Y-102653619D01*
X169941761Y-102748857D01*
X169894142Y-102796476D01*
X169084619Y-101796476D02*
X169037000Y-101748857D01*
X168989380Y-101653619D01*
X168989380Y-101415523D01*
X169037000Y-101320285D01*
X169084619Y-101272666D01*
X169179857Y-101225047D01*
X169275095Y-101225047D01*
X169417952Y-101272666D01*
X169989380Y-101844095D01*
X169989380Y-101225047D01*
X169608428Y-100796476D02*
X169608428Y-100034571D01*
X168989380Y-99653619D02*
X169989380Y-99415523D01*
X169275095Y-99225047D01*
X169989380Y-99034571D01*
X168989380Y-98796476D01*
X169989380Y-97844095D02*
X169513190Y-98177428D01*
X169989380Y-98415523D02*
X168989380Y-98415523D01*
X168989380Y-98034571D01*
X169037000Y-97939333D01*
X169084619Y-97891714D01*
X169179857Y-97844095D01*
X169322714Y-97844095D01*
X169417952Y-97891714D01*
X169465571Y-97939333D01*
X169513190Y-98034571D01*
X169513190Y-98415523D01*
X168989380Y-97225047D02*
X168989380Y-97034571D01*
X169037000Y-96939333D01*
X169132238Y-96844095D01*
X169322714Y-96796476D01*
X169656047Y-96796476D01*
X169846523Y-96844095D01*
X169941761Y-96939333D01*
X169989380Y-97034571D01*
X169989380Y-97225047D01*
X169941761Y-97320285D01*
X169846523Y-97415523D01*
X169656047Y-97463142D01*
X169322714Y-97463142D01*
X169132238Y-97415523D01*
X169037000Y-97320285D01*
X168989380Y-97225047D01*
X168989380Y-96177428D02*
X168989380Y-95986952D01*
X169037000Y-95891714D01*
X169132238Y-95796476D01*
X169322714Y-95748857D01*
X169656047Y-95748857D01*
X169846523Y-95796476D01*
X169941761Y-95891714D01*
X169989380Y-95986952D01*
X169989380Y-96177428D01*
X169941761Y-96272666D01*
X169846523Y-96367904D01*
X169656047Y-96415523D01*
X169322714Y-96415523D01*
X169132238Y-96367904D01*
X169037000Y-96272666D01*
X168989380Y-96177428D01*
X169989380Y-95320285D02*
X168989380Y-95320285D01*
X169703666Y-94986952D01*
X168989380Y-94653619D01*
X169989380Y-94653619D01*
D16*
X156368228Y-121430171D02*
X155868228Y-120715885D01*
X155511085Y-121430171D02*
X155511085Y-119930171D01*
X156082514Y-119930171D01*
X156225371Y-120001600D01*
X156296800Y-120073028D01*
X156368228Y-120215885D01*
X156368228Y-120430171D01*
X156296800Y-120573028D01*
X156225371Y-120644457D01*
X156082514Y-120715885D01*
X155511085Y-120715885D01*
X157011085Y-120644457D02*
X157511085Y-120644457D01*
X157725371Y-121430171D02*
X157011085Y-121430171D01*
X157011085Y-119930171D01*
X157725371Y-119930171D01*
X158296800Y-121358742D02*
X158511085Y-121430171D01*
X158868228Y-121430171D01*
X159011085Y-121358742D01*
X159082514Y-121287314D01*
X159153942Y-121144457D01*
X159153942Y-121001600D01*
X159082514Y-120858742D01*
X159011085Y-120787314D01*
X158868228Y-120715885D01*
X158582514Y-120644457D01*
X158439657Y-120573028D01*
X158368228Y-120501600D01*
X158296800Y-120358742D01*
X158296800Y-120215885D01*
X158368228Y-120073028D01*
X158439657Y-120001600D01*
X158582514Y-119930171D01*
X158939657Y-119930171D01*
X159153942Y-120001600D01*
X159796800Y-120644457D02*
X160296800Y-120644457D01*
X160511085Y-121430171D02*
X159796800Y-121430171D01*
X159796800Y-119930171D01*
X160511085Y-119930171D01*
X160939657Y-119930171D02*
X161796800Y-119930171D01*
X161368228Y-121430171D02*
X161368228Y-119930171D01*
X168296685Y-120695257D02*
X168510971Y-120766685D01*
X168582400Y-120838114D01*
X168653828Y-120980971D01*
X168653828Y-121195257D01*
X168582400Y-121338114D01*
X168510971Y-121409542D01*
X168368114Y-121480971D01*
X167796685Y-121480971D01*
X167796685Y-119980971D01*
X168296685Y-119980971D01*
X168439542Y-120052400D01*
X168510971Y-120123828D01*
X168582400Y-120266685D01*
X168582400Y-120409542D01*
X168510971Y-120552400D01*
X168439542Y-120623828D01*
X168296685Y-120695257D01*
X167796685Y-120695257D01*
X169582400Y-119980971D02*
X169868114Y-119980971D01*
X170010971Y-120052400D01*
X170153828Y-120195257D01*
X170225257Y-120480971D01*
X170225257Y-120980971D01*
X170153828Y-121266685D01*
X170010971Y-121409542D01*
X169868114Y-121480971D01*
X169582400Y-121480971D01*
X169439542Y-121409542D01*
X169296685Y-121266685D01*
X169225257Y-120980971D01*
X169225257Y-120480971D01*
X169296685Y-120195257D01*
X169439542Y-120052400D01*
X169582400Y-119980971D01*
X171153828Y-119980971D02*
X171439542Y-119980971D01*
X171582400Y-120052400D01*
X171725257Y-120195257D01*
X171796685Y-120480971D01*
X171796685Y-120980971D01*
X171725257Y-121266685D01*
X171582400Y-121409542D01*
X171439542Y-121480971D01*
X171153828Y-121480971D01*
X171010971Y-121409542D01*
X170868114Y-121266685D01*
X170796685Y-120980971D01*
X170796685Y-120480971D01*
X170868114Y-120195257D01*
X171010971Y-120052400D01*
X171153828Y-119980971D01*
X172225257Y-119980971D02*
X173082400Y-119980971D01*
X172653828Y-121480971D02*
X172653828Y-119980971D01*
M02*
