G04 #@! TF.GenerationSoftware,KiCad,Pcbnew,(5.1.2)-1*
G04 #@! TF.CreationDate,2019-07-28T16:53:52+09:00*
G04 #@! TF.ProjectId,ESP32-breakout-SMD,45535033-322d-4627-9265-616b6f75742d,rev?*
G04 #@! TF.SameCoordinates,Original*
G04 #@! TF.FileFunction,Legend,Bot*
G04 #@! TF.FilePolarity,Positive*
%FSLAX46Y46*%
G04 Gerber Fmt 4.6, Leading zero omitted, Abs format (unit mm)*
G04 Created by KiCad (PCBNEW (5.1.2)-1) date 2019-07-28 16:53:52*
%MOMM*%
%LPD*%
G04 APERTURE LIST*
%ADD10C,0.150000*%
G04 APERTURE END LIST*
D10*
X178203142Y-139997371D02*
X177869809Y-139997371D01*
X177726952Y-140521180D02*
X178203142Y-140521180D01*
X178203142Y-139521180D01*
X177726952Y-139521180D01*
X177346000Y-140473561D02*
X177203142Y-140521180D01*
X176965047Y-140521180D01*
X176869809Y-140473561D01*
X176822190Y-140425942D01*
X176774571Y-140330704D01*
X176774571Y-140235466D01*
X176822190Y-140140228D01*
X176869809Y-140092609D01*
X176965047Y-140044990D01*
X177155523Y-139997371D01*
X177250761Y-139949752D01*
X177298380Y-139902133D01*
X177346000Y-139806895D01*
X177346000Y-139711657D01*
X177298380Y-139616419D01*
X177250761Y-139568800D01*
X177155523Y-139521180D01*
X176917428Y-139521180D01*
X176774571Y-139568800D01*
X176346000Y-140521180D02*
X176346000Y-139521180D01*
X175965047Y-139521180D01*
X175869809Y-139568800D01*
X175822190Y-139616419D01*
X175774571Y-139711657D01*
X175774571Y-139854514D01*
X175822190Y-139949752D01*
X175869809Y-139997371D01*
X175965047Y-140044990D01*
X176346000Y-140044990D01*
X175441238Y-139521180D02*
X174822190Y-139521180D01*
X175155523Y-139902133D01*
X175012666Y-139902133D01*
X174917428Y-139949752D01*
X174869809Y-139997371D01*
X174822190Y-140092609D01*
X174822190Y-140330704D01*
X174869809Y-140425942D01*
X174917428Y-140473561D01*
X175012666Y-140521180D01*
X175298380Y-140521180D01*
X175393619Y-140473561D01*
X175441238Y-140425942D01*
X174441238Y-139616419D02*
X174393619Y-139568800D01*
X174298380Y-139521180D01*
X174060285Y-139521180D01*
X173965047Y-139568800D01*
X173917428Y-139616419D01*
X173869809Y-139711657D01*
X173869809Y-139806895D01*
X173917428Y-139949752D01*
X174488857Y-140521180D01*
X173869809Y-140521180D01*
X172346000Y-139997371D02*
X172203142Y-140044990D01*
X172155523Y-140092609D01*
X172107904Y-140187847D01*
X172107904Y-140330704D01*
X172155523Y-140425942D01*
X172203142Y-140473561D01*
X172298380Y-140521180D01*
X172679333Y-140521180D01*
X172679333Y-139521180D01*
X172346000Y-139521180D01*
X172250761Y-139568800D01*
X172203142Y-139616419D01*
X172155523Y-139711657D01*
X172155523Y-139806895D01*
X172203142Y-139902133D01*
X172250761Y-139949752D01*
X172346000Y-139997371D01*
X172679333Y-139997371D01*
X171679333Y-140521180D02*
X171679333Y-139854514D01*
X171679333Y-140044990D02*
X171631714Y-139949752D01*
X171584095Y-139902133D01*
X171488857Y-139854514D01*
X171393619Y-139854514D01*
X170679333Y-140473561D02*
X170774571Y-140521180D01*
X170965047Y-140521180D01*
X171060285Y-140473561D01*
X171107904Y-140378323D01*
X171107904Y-139997371D01*
X171060285Y-139902133D01*
X170965047Y-139854514D01*
X170774571Y-139854514D01*
X170679333Y-139902133D01*
X170631714Y-139997371D01*
X170631714Y-140092609D01*
X171107904Y-140187847D01*
X169774571Y-140521180D02*
X169774571Y-139997371D01*
X169822190Y-139902133D01*
X169917428Y-139854514D01*
X170107904Y-139854514D01*
X170203142Y-139902133D01*
X169774571Y-140473561D02*
X169869809Y-140521180D01*
X170107904Y-140521180D01*
X170203142Y-140473561D01*
X170250761Y-140378323D01*
X170250761Y-140283085D01*
X170203142Y-140187847D01*
X170107904Y-140140228D01*
X169869809Y-140140228D01*
X169774571Y-140092609D01*
X169298380Y-140521180D02*
X169298380Y-139521180D01*
X169203142Y-140140228D02*
X168917428Y-140521180D01*
X168917428Y-139854514D02*
X169298380Y-140235466D01*
X168346000Y-140521180D02*
X168441238Y-140473561D01*
X168488857Y-140425942D01*
X168536476Y-140330704D01*
X168536476Y-140044990D01*
X168488857Y-139949752D01*
X168441238Y-139902133D01*
X168346000Y-139854514D01*
X168203142Y-139854514D01*
X168107904Y-139902133D01*
X168060285Y-139949752D01*
X168012666Y-140044990D01*
X168012666Y-140330704D01*
X168060285Y-140425942D01*
X168107904Y-140473561D01*
X168203142Y-140521180D01*
X168346000Y-140521180D01*
X167155523Y-139854514D02*
X167155523Y-140521180D01*
X167584095Y-139854514D02*
X167584095Y-140378323D01*
X167536476Y-140473561D01*
X167441238Y-140521180D01*
X167298380Y-140521180D01*
X167203142Y-140473561D01*
X167155523Y-140425942D01*
X166822190Y-139854514D02*
X166441238Y-139854514D01*
X166679333Y-139521180D02*
X166679333Y-140378323D01*
X166631714Y-140473561D01*
X166536476Y-140521180D01*
X166441238Y-140521180D01*
X165012666Y-139997371D02*
X164869809Y-140044990D01*
X164822190Y-140092609D01*
X164774571Y-140187847D01*
X164774571Y-140330704D01*
X164822190Y-140425942D01*
X164869809Y-140473561D01*
X164965047Y-140521180D01*
X165346000Y-140521180D01*
X165346000Y-139521180D01*
X165012666Y-139521180D01*
X164917428Y-139568800D01*
X164869809Y-139616419D01*
X164822190Y-139711657D01*
X164822190Y-139806895D01*
X164869809Y-139902133D01*
X164917428Y-139949752D01*
X165012666Y-139997371D01*
X165346000Y-139997371D01*
X164203142Y-140521180D02*
X164298380Y-140473561D01*
X164346000Y-140425942D01*
X164393619Y-140330704D01*
X164393619Y-140044990D01*
X164346000Y-139949752D01*
X164298380Y-139902133D01*
X164203142Y-139854514D01*
X164060285Y-139854514D01*
X163965047Y-139902133D01*
X163917428Y-139949752D01*
X163869809Y-140044990D01*
X163869809Y-140330704D01*
X163917428Y-140425942D01*
X163965047Y-140473561D01*
X164060285Y-140521180D01*
X164203142Y-140521180D01*
X163012666Y-140521180D02*
X163012666Y-139997371D01*
X163060285Y-139902133D01*
X163155523Y-139854514D01*
X163346000Y-139854514D01*
X163441238Y-139902133D01*
X163012666Y-140473561D02*
X163107904Y-140521180D01*
X163346000Y-140521180D01*
X163441238Y-140473561D01*
X163488857Y-140378323D01*
X163488857Y-140283085D01*
X163441238Y-140187847D01*
X163346000Y-140140228D01*
X163107904Y-140140228D01*
X163012666Y-140092609D01*
X162536476Y-140521180D02*
X162536476Y-139854514D01*
X162536476Y-140044990D02*
X162488857Y-139949752D01*
X162441238Y-139902133D01*
X162346000Y-139854514D01*
X162250761Y-139854514D01*
X161488857Y-140521180D02*
X161488857Y-139521180D01*
X161488857Y-140473561D02*
X161584095Y-140521180D01*
X161774571Y-140521180D01*
X161869809Y-140473561D01*
X161917428Y-140425942D01*
X161965047Y-140330704D01*
X161965047Y-140044990D01*
X161917428Y-139949752D01*
X161869809Y-139902133D01*
X161774571Y-139854514D01*
X161584095Y-139854514D01*
X161488857Y-139902133D01*
X160298380Y-140473561D02*
X160155523Y-140521180D01*
X159917428Y-140521180D01*
X159822190Y-140473561D01*
X159774571Y-140425942D01*
X159726952Y-140330704D01*
X159726952Y-140235466D01*
X159774571Y-140140228D01*
X159822190Y-140092609D01*
X159917428Y-140044990D01*
X160107904Y-139997371D01*
X160203142Y-139949752D01*
X160250761Y-139902133D01*
X160298380Y-139806895D01*
X160298380Y-139711657D01*
X160250761Y-139616419D01*
X160203142Y-139568800D01*
X160107904Y-139521180D01*
X159869809Y-139521180D01*
X159726952Y-139568800D01*
X159298380Y-140521180D02*
X159298380Y-139521180D01*
X158965047Y-140235466D01*
X158631714Y-139521180D01*
X158631714Y-140521180D01*
X158155523Y-140521180D02*
X158155523Y-139521180D01*
X157917428Y-139521180D01*
X157774571Y-139568800D01*
X157679333Y-139664038D01*
X157631714Y-139759276D01*
X157584095Y-139949752D01*
X157584095Y-140092609D01*
X157631714Y-140283085D01*
X157679333Y-140378323D01*
X157774571Y-140473561D01*
X157917428Y-140521180D01*
X158155523Y-140521180D01*
X156393619Y-140521180D02*
X156393619Y-139854514D01*
X156393619Y-140044990D02*
X156346000Y-139949752D01*
X156298380Y-139902133D01*
X156203142Y-139854514D01*
X156107904Y-139854514D01*
X155393619Y-140473561D02*
X155488857Y-140521180D01*
X155679333Y-140521180D01*
X155774571Y-140473561D01*
X155822190Y-140378323D01*
X155822190Y-139997371D01*
X155774571Y-139902133D01*
X155679333Y-139854514D01*
X155488857Y-139854514D01*
X155393619Y-139902133D01*
X155346000Y-139997371D01*
X155346000Y-140092609D01*
X155822190Y-140187847D01*
X155012666Y-139854514D02*
X154774571Y-140521180D01*
X154536476Y-139854514D01*
X153203142Y-139521180D02*
X153107904Y-139521180D01*
X153012666Y-139568800D01*
X152965047Y-139616419D01*
X152917428Y-139711657D01*
X152869809Y-139902133D01*
X152869809Y-140140228D01*
X152917428Y-140330704D01*
X152965047Y-140425942D01*
X153012666Y-140473561D01*
X153107904Y-140521180D01*
X153203142Y-140521180D01*
X153298380Y-140473561D01*
X153346000Y-140425942D01*
X153393619Y-140330704D01*
X153441238Y-140140228D01*
X153441238Y-139902133D01*
X153393619Y-139711657D01*
X153346000Y-139616419D01*
X153298380Y-139568800D01*
X153203142Y-139521180D01*
X152441238Y-140425942D02*
X152393619Y-140473561D01*
X152441238Y-140521180D01*
X152488857Y-140473561D01*
X152441238Y-140425942D01*
X152441238Y-140521180D01*
X152012666Y-139616419D02*
X151965047Y-139568800D01*
X151869809Y-139521180D01*
X151631714Y-139521180D01*
X151536476Y-139568800D01*
X151488857Y-139616419D01*
X151441238Y-139711657D01*
X151441238Y-139806895D01*
X151488857Y-139949752D01*
X152060285Y-140521180D01*
X151441238Y-140521180D01*
X175536476Y-141266419D02*
X175488857Y-141218800D01*
X175393619Y-141171180D01*
X175155523Y-141171180D01*
X175060285Y-141218800D01*
X175012666Y-141266419D01*
X174965047Y-141361657D01*
X174965047Y-141456895D01*
X175012666Y-141599752D01*
X175584095Y-142171180D01*
X174965047Y-142171180D01*
X174346000Y-141171180D02*
X174250761Y-141171180D01*
X174155523Y-141218800D01*
X174107904Y-141266419D01*
X174060285Y-141361657D01*
X174012666Y-141552133D01*
X174012666Y-141790228D01*
X174060285Y-141980704D01*
X174107904Y-142075942D01*
X174155523Y-142123561D01*
X174250761Y-142171180D01*
X174346000Y-142171180D01*
X174441238Y-142123561D01*
X174488857Y-142075942D01*
X174536476Y-141980704D01*
X174584095Y-141790228D01*
X174584095Y-141552133D01*
X174536476Y-141361657D01*
X174488857Y-141266419D01*
X174441238Y-141218800D01*
X174346000Y-141171180D01*
X173060285Y-142171180D02*
X173631714Y-142171180D01*
X173346000Y-142171180D02*
X173346000Y-141171180D01*
X173441238Y-141314038D01*
X173536476Y-141409276D01*
X173631714Y-141456895D01*
X172584095Y-142171180D02*
X172393619Y-142171180D01*
X172298380Y-142123561D01*
X172250761Y-142075942D01*
X172155523Y-141933085D01*
X172107904Y-141742609D01*
X172107904Y-141361657D01*
X172155523Y-141266419D01*
X172203142Y-141218800D01*
X172298380Y-141171180D01*
X172488857Y-141171180D01*
X172584095Y-141218800D01*
X172631714Y-141266419D01*
X172679333Y-141361657D01*
X172679333Y-141599752D01*
X172631714Y-141694990D01*
X172584095Y-141742609D01*
X172488857Y-141790228D01*
X172298380Y-141790228D01*
X172203142Y-141742609D01*
X172155523Y-141694990D01*
X172107904Y-141599752D01*
X171679333Y-142075942D02*
X171631714Y-142123561D01*
X171679333Y-142171180D01*
X171726952Y-142123561D01*
X171679333Y-142075942D01*
X171679333Y-142171180D01*
X171012666Y-141171180D02*
X170917428Y-141171180D01*
X170822190Y-141218800D01*
X170774571Y-141266419D01*
X170726952Y-141361657D01*
X170679333Y-141552133D01*
X170679333Y-141790228D01*
X170726952Y-141980704D01*
X170774571Y-142075942D01*
X170822190Y-142123561D01*
X170917428Y-142171180D01*
X171012666Y-142171180D01*
X171107904Y-142123561D01*
X171155523Y-142075942D01*
X171203142Y-141980704D01*
X171250761Y-141790228D01*
X171250761Y-141552133D01*
X171203142Y-141361657D01*
X171155523Y-141266419D01*
X171107904Y-141218800D01*
X171012666Y-141171180D01*
X170346000Y-141171180D02*
X169679333Y-141171180D01*
X170107904Y-142171180D01*
X169298380Y-142075942D02*
X169250761Y-142123561D01*
X169298380Y-142171180D01*
X169346000Y-142123561D01*
X169298380Y-142075942D01*
X169298380Y-142171180D01*
X168631714Y-141171180D02*
X168536476Y-141171180D01*
X168441238Y-141218800D01*
X168393619Y-141266419D01*
X168346000Y-141361657D01*
X168298380Y-141552133D01*
X168298380Y-141790228D01*
X168346000Y-141980704D01*
X168393619Y-142075942D01*
X168441238Y-142123561D01*
X168536476Y-142171180D01*
X168631714Y-142171180D01*
X168726952Y-142123561D01*
X168774571Y-142075942D01*
X168822190Y-141980704D01*
X168869809Y-141790228D01*
X168869809Y-141552133D01*
X168822190Y-141361657D01*
X168774571Y-141266419D01*
X168726952Y-141218800D01*
X168631714Y-141171180D01*
X167726952Y-141599752D02*
X167822190Y-141552133D01*
X167869809Y-141504514D01*
X167917428Y-141409276D01*
X167917428Y-141361657D01*
X167869809Y-141266419D01*
X167822190Y-141218800D01*
X167726952Y-141171180D01*
X167536476Y-141171180D01*
X167441238Y-141218800D01*
X167393619Y-141266419D01*
X167346000Y-141361657D01*
X167346000Y-141409276D01*
X167393619Y-141504514D01*
X167441238Y-141552133D01*
X167536476Y-141599752D01*
X167726952Y-141599752D01*
X167822190Y-141647371D01*
X167869809Y-141694990D01*
X167917428Y-141790228D01*
X167917428Y-141980704D01*
X167869809Y-142075942D01*
X167822190Y-142123561D01*
X167726952Y-142171180D01*
X167536476Y-142171180D01*
X167441238Y-142123561D01*
X167393619Y-142075942D01*
X167346000Y-141980704D01*
X167346000Y-141790228D01*
X167393619Y-141694990D01*
X167441238Y-141647371D01*
X167536476Y-141599752D01*
X166155523Y-142171180D02*
X166155523Y-141504514D01*
X166155523Y-141694990D02*
X166107904Y-141599752D01*
X166060285Y-141552133D01*
X165965047Y-141504514D01*
X165869809Y-141504514D01*
X165107904Y-142171180D02*
X165107904Y-141647371D01*
X165155523Y-141552133D01*
X165250761Y-141504514D01*
X165441238Y-141504514D01*
X165536476Y-141552133D01*
X165107904Y-142123561D02*
X165203142Y-142171180D01*
X165441238Y-142171180D01*
X165536476Y-142123561D01*
X165584095Y-142028323D01*
X165584095Y-141933085D01*
X165536476Y-141837847D01*
X165441238Y-141790228D01*
X165203142Y-141790228D01*
X165107904Y-141742609D01*
X164631714Y-142171180D02*
X164631714Y-141171180D01*
X164631714Y-141552133D02*
X164536476Y-141504514D01*
X164346000Y-141504514D01*
X164250761Y-141552133D01*
X164203142Y-141599752D01*
X164155523Y-141694990D01*
X164155523Y-141980704D01*
X164203142Y-142075942D01*
X164250761Y-142123561D01*
X164346000Y-142171180D01*
X164536476Y-142171180D01*
X164631714Y-142123561D01*
X163726952Y-142171180D02*
X163726952Y-141171180D01*
X163726952Y-141552133D02*
X163631714Y-141504514D01*
X163441238Y-141504514D01*
X163346000Y-141552133D01*
X163298380Y-141599752D01*
X163250761Y-141694990D01*
X163250761Y-141980704D01*
X163298380Y-142075942D01*
X163346000Y-142123561D01*
X163441238Y-142171180D01*
X163631714Y-142171180D01*
X163726952Y-142123561D01*
X162822190Y-142171180D02*
X162822190Y-141504514D01*
X162822190Y-141171180D02*
X162869809Y-141218800D01*
X162822190Y-141266419D01*
X162774571Y-141218800D01*
X162822190Y-141171180D01*
X162822190Y-141266419D01*
X162488857Y-141504514D02*
X162107904Y-141504514D01*
X162346000Y-141171180D02*
X162346000Y-142028323D01*
X162298380Y-142123561D01*
X162203142Y-142171180D01*
X162107904Y-142171180D01*
X161774571Y-141790228D02*
X161012666Y-141790228D01*
X160536476Y-141504514D02*
X160536476Y-142171180D01*
X160536476Y-141599752D02*
X160488857Y-141552133D01*
X160393619Y-141504514D01*
X160250761Y-141504514D01*
X160155523Y-141552133D01*
X160107904Y-141647371D01*
X160107904Y-142171180D01*
X159488857Y-142171180D02*
X159584095Y-142123561D01*
X159631714Y-142075942D01*
X159679333Y-141980704D01*
X159679333Y-141694990D01*
X159631714Y-141599752D01*
X159584095Y-141552133D01*
X159488857Y-141504514D01*
X159346000Y-141504514D01*
X159250761Y-141552133D01*
X159203142Y-141599752D01*
X159155523Y-141694990D01*
X159155523Y-141980704D01*
X159203142Y-142075942D01*
X159250761Y-142123561D01*
X159346000Y-142171180D01*
X159488857Y-142171180D01*
X158869809Y-141504514D02*
X158488857Y-141504514D01*
X158726952Y-141171180D02*
X158726952Y-142028323D01*
X158679333Y-142123561D01*
X158584095Y-142171180D01*
X158488857Y-142171180D01*
X157774571Y-142123561D02*
X157869809Y-142171180D01*
X158060285Y-142171180D01*
X158155523Y-142123561D01*
X158203142Y-142028323D01*
X158203142Y-141647371D01*
X158155523Y-141552133D01*
X158060285Y-141504514D01*
X157869809Y-141504514D01*
X157774571Y-141552133D01*
X157726952Y-141647371D01*
X157726952Y-141742609D01*
X158203142Y-141837847D01*
X157298380Y-142075942D02*
X157250761Y-142123561D01*
X157298380Y-142171180D01*
X157346000Y-142123561D01*
X157298380Y-142075942D01*
X157298380Y-142171180D01*
X156393619Y-142123561D02*
X156488857Y-142171180D01*
X156679333Y-142171180D01*
X156774571Y-142123561D01*
X156822190Y-142075942D01*
X156869809Y-141980704D01*
X156869809Y-141694990D01*
X156822190Y-141599752D01*
X156774571Y-141552133D01*
X156679333Y-141504514D01*
X156488857Y-141504514D01*
X156393619Y-141552133D01*
X155822190Y-142171180D02*
X155917428Y-142123561D01*
X155965047Y-142075942D01*
X156012666Y-141980704D01*
X156012666Y-141694990D01*
X155965047Y-141599752D01*
X155917428Y-141552133D01*
X155822190Y-141504514D01*
X155679333Y-141504514D01*
X155584095Y-141552133D01*
X155536476Y-141599752D01*
X155488857Y-141694990D01*
X155488857Y-141980704D01*
X155536476Y-142075942D01*
X155584095Y-142123561D01*
X155679333Y-142171180D01*
X155822190Y-142171180D01*
X155060285Y-142171180D02*
X155060285Y-141504514D01*
X155060285Y-141599752D02*
X155012666Y-141552133D01*
X154917428Y-141504514D01*
X154774571Y-141504514D01*
X154679333Y-141552133D01*
X154631714Y-141647371D01*
X154631714Y-142171180D01*
X154631714Y-141647371D02*
X154584095Y-141552133D01*
X154488857Y-141504514D01*
X154346000Y-141504514D01*
X154250761Y-141552133D01*
X154203142Y-141647371D01*
X154203142Y-142171180D01*
M02*
