M48
; DRILL file {KiCad (5.1.2)-1} date 2019/06/15 18:15:46
; FORMAT={-:-/ absolute / inch / decimal}
; #@! TF.CreationDate,2019-06-15T18:15:46+09:00
; #@! TF.GenerationSoftware,Kicad,Pcbnew,(5.1.2)-1
; #@! TF.FileFunction,Plated,1,2,PTH
FMAT,2
INCH
T1C0.0157
T2C0.0256
T3C0.0394
T4C0.0827
%
G90
G05
T1
X5.81Y-3.74
X5.81Y-3.84
X5.81Y-3.94
X5.81Y-4.04
X5.81Y-4.14
X5.81Y-4.24
X5.81Y-4.34
X5.81Y-4.44
X5.81Y-4.54
X5.81Y-4.64
X5.81Y-4.74
X5.81Y-4.84
X5.81Y-4.94
X5.81Y-5.04
X5.81Y-5.14
X5.81Y-5.24
X5.81Y-5.345
X5.81Y-5.445
X5.856Y-5.29
X5.864Y-5.502
X5.91Y-5.456
X5.91Y-5.546
X5.91Y-5.625
X5.94Y-3.79
X5.94Y-3.9
X5.96Y-3.98
X5.97Y-3.94
X5.994Y-5.094
X5.996Y-5.006
X6.0Y-3.98
X6.01Y-5.456
X6.01Y-5.546
X6.01Y-5.625
X6.02Y-5.15
X6.025Y-4.89
X6.04Y-3.92
X6.044Y-5.22
X6.06Y-3.73
X6.062Y-4.962
X6.072Y-5.328
X6.08Y-4.76
X6.08Y-4.84
X6.084Y-4.912
X6.1Y-4.49
X6.122Y-5.063
X6.122Y-5.168
X6.14Y-4.445
X6.16Y-4.69
X6.186Y-4.98
X6.19Y-3.75
X6.19Y-3.75
X6.19Y-3.85
X6.19Y-3.9
X6.19Y-3.95
X6.19Y-4.1
X6.19Y-4.15
X6.19Y-4.2
X6.19Y-5.232
X6.2Y-5.15
X6.206Y-5.076
X6.216Y-5.304
X6.224Y-5.476
X6.242Y-5.588
X6.282Y-5.15
X6.282Y-5.236
X6.288Y-4.97
X6.29Y-3.75
X6.29Y-3.85
X6.29Y-4.04
X6.29Y-4.15
X6.31Y-5.545
X6.31Y-5.625
X6.315Y-4.25
X6.315Y-4.35
X6.35Y-4.832
X6.35Y-4.93
X6.37Y-3.96
X6.37Y-4.04
X6.37Y-4.13
X6.374Y-4.612
X6.39Y-3.85
X6.39Y-4.25
X6.39Y-4.35
X6.394Y-4.764
X6.4Y-3.75
X6.41Y-5.545
X6.41Y-5.625
X6.46Y-3.96
X6.46Y-4.13
X6.46Y-4.2
X6.466Y-4.706
X6.472Y-4.526
X6.478Y-4.93
X6.49Y-3.85
X6.49Y-4.25
X6.49Y-4.35
X6.5Y-3.75
X6.51Y-5.545
X6.51Y-5.625
X6.55Y-3.96
X6.55Y-4.04
X6.55Y-4.13
X6.558Y-4.766
X6.56Y-4.84
X6.56Y-4.93
X6.56Y-5.02
X6.56Y-5.02
X6.56Y-5.1
X6.568Y-5.166
X6.576Y-5.232
X6.578Y-5.332
X6.578Y-5.404
X6.58Y-4.53
X6.58Y-4.68
X6.59Y-3.75
X6.59Y-3.85
X6.59Y-4.25
X6.59Y-4.35
X6.64Y-4.84
X6.64Y-4.93
X6.64Y-5.02
X6.64Y-5.1
X6.64Y-5.18
X6.65Y-3.96
X6.65Y-4.04
X6.65Y-4.13
X6.65Y-4.195
X6.65Y-5.265
X6.654Y-5.34
X6.66Y-5.414
X6.665Y-4.25
X6.665Y-4.35
X6.67Y-4.6
X6.69Y-3.75
X6.698Y-5.154
X6.7Y-4.73
X6.72Y-5.02
X6.72Y-5.1
X6.722Y-4.93
X6.724Y-4.84
X6.724Y-5.218
X6.724Y-5.302
X6.74Y-3.89
X6.74Y-3.94
X6.74Y-3.99
X6.74Y-4.04
X6.74Y-4.09
X6.74Y-4.14
X6.74Y-4.19
X6.74Y-4.27
X6.74Y-4.35
X6.744Y-5.484
X6.77Y-4.465
X6.78Y-3.75
X6.798Y-4.838
X6.798Y-5.218
X6.8Y-4.65
X6.8Y-4.732
X6.8Y-4.93
X6.8Y-5.02
X6.8Y-5.1
X6.83Y-5.46
X6.83Y-5.549
X6.83Y-5.625
X6.86Y-4.49
X6.87Y-4.56
X6.87Y-4.65
X6.87Y-4.78
X6.876Y-4.978
X6.88Y-3.75
X6.91Y-4.03
X6.93Y-4.86
X6.93Y-5.459
X6.93Y-5.549
X6.93Y-5.625
X6.94Y-4.93
X6.94Y-5.02
X6.944Y-5.108
X6.95Y-4.075
X6.98Y-3.75
X7.03Y-5.459
X7.03Y-5.549
X7.03Y-5.625
X7.034Y-5.192
X7.076Y-5.498
X7.13Y-3.74
X7.13Y-3.84
X7.13Y-3.94
X7.13Y-4.04
X7.13Y-4.14
X7.13Y-4.24
X7.13Y-4.34
X7.13Y-4.44
X7.13Y-4.54
X7.13Y-4.64
X7.13Y-4.74
X7.13Y-4.84
X7.13Y-4.94
X7.13Y-5.04
X7.13Y-5.14
X7.13Y-5.24
X7.13Y-5.345
X7.13Y-5.445
T2
X6.354Y-5.049
X6.514Y-5.049
X6.434Y-5.049
T3
X7.04Y-3.75
X7.04Y-3.85
X7.04Y-3.95
X7.04Y-4.05
X7.04Y-4.15
X7.04Y-4.25
X7.04Y-4.35
X7.04Y-4.45
X7.04Y-4.55
X7.04Y-4.65
X7.04Y-4.75
X7.04Y-4.85
X7.04Y-4.95
X7.04Y-5.05
X5.89Y-3.75
X5.89Y-3.85
X5.89Y-3.95
X5.89Y-4.05
X5.89Y-4.15
X5.89Y-4.25
X5.89Y-4.35
X5.89Y-4.45
X5.89Y-4.55
X5.89Y-4.65
X5.89Y-4.75
X5.89Y-4.85
X5.89Y-4.95
X5.89Y-5.05
T4
X6.458Y-4.825
X6.46Y-4.045
T0
M30
