G04 #@! TF.GenerationSoftware,KiCad,Pcbnew,(5.1.2)-1*
G04 #@! TF.CreationDate,2019-06-15T18:15:40+09:00*
G04 #@! TF.ProjectId,ESP32-breakout-SMD,45535033-322d-4627-9265-616b6f75742d,rev?*
G04 #@! TF.SameCoordinates,Original*
G04 #@! TF.FileFunction,Legend,Bot*
G04 #@! TF.FilePolarity,Positive*
%FSLAX46Y46*%
G04 Gerber Fmt 4.6, Leading zero omitted, Abs format (unit mm)*
G04 Created by KiCad (PCBNEW (5.1.2)-1) date 2019-06-15 18:15:40*
%MOMM*%
%LPD*%
G04 APERTURE LIST*
%ADD10C,0.150000*%
G04 APERTURE END LIST*
D10*
X178203142Y-140200571D02*
X177869809Y-140200571D01*
X177726952Y-140724380D02*
X178203142Y-140724380D01*
X178203142Y-139724380D01*
X177726952Y-139724380D01*
X177346000Y-140676761D02*
X177203142Y-140724380D01*
X176965047Y-140724380D01*
X176869809Y-140676761D01*
X176822190Y-140629142D01*
X176774571Y-140533904D01*
X176774571Y-140438666D01*
X176822190Y-140343428D01*
X176869809Y-140295809D01*
X176965047Y-140248190D01*
X177155523Y-140200571D01*
X177250761Y-140152952D01*
X177298380Y-140105333D01*
X177346000Y-140010095D01*
X177346000Y-139914857D01*
X177298380Y-139819619D01*
X177250761Y-139772000D01*
X177155523Y-139724380D01*
X176917428Y-139724380D01*
X176774571Y-139772000D01*
X176346000Y-140724380D02*
X176346000Y-139724380D01*
X175965047Y-139724380D01*
X175869809Y-139772000D01*
X175822190Y-139819619D01*
X175774571Y-139914857D01*
X175774571Y-140057714D01*
X175822190Y-140152952D01*
X175869809Y-140200571D01*
X175965047Y-140248190D01*
X176346000Y-140248190D01*
X175441238Y-139724380D02*
X174822190Y-139724380D01*
X175155523Y-140105333D01*
X175012666Y-140105333D01*
X174917428Y-140152952D01*
X174869809Y-140200571D01*
X174822190Y-140295809D01*
X174822190Y-140533904D01*
X174869809Y-140629142D01*
X174917428Y-140676761D01*
X175012666Y-140724380D01*
X175298380Y-140724380D01*
X175393619Y-140676761D01*
X175441238Y-140629142D01*
X174441238Y-139819619D02*
X174393619Y-139772000D01*
X174298380Y-139724380D01*
X174060285Y-139724380D01*
X173965047Y-139772000D01*
X173917428Y-139819619D01*
X173869809Y-139914857D01*
X173869809Y-140010095D01*
X173917428Y-140152952D01*
X174488857Y-140724380D01*
X173869809Y-140724380D01*
X172346000Y-140200571D02*
X172203142Y-140248190D01*
X172155523Y-140295809D01*
X172107904Y-140391047D01*
X172107904Y-140533904D01*
X172155523Y-140629142D01*
X172203142Y-140676761D01*
X172298380Y-140724380D01*
X172679333Y-140724380D01*
X172679333Y-139724380D01*
X172346000Y-139724380D01*
X172250761Y-139772000D01*
X172203142Y-139819619D01*
X172155523Y-139914857D01*
X172155523Y-140010095D01*
X172203142Y-140105333D01*
X172250761Y-140152952D01*
X172346000Y-140200571D01*
X172679333Y-140200571D01*
X171679333Y-140724380D02*
X171679333Y-140057714D01*
X171679333Y-140248190D02*
X171631714Y-140152952D01*
X171584095Y-140105333D01*
X171488857Y-140057714D01*
X171393619Y-140057714D01*
X170679333Y-140676761D02*
X170774571Y-140724380D01*
X170965047Y-140724380D01*
X171060285Y-140676761D01*
X171107904Y-140581523D01*
X171107904Y-140200571D01*
X171060285Y-140105333D01*
X170965047Y-140057714D01*
X170774571Y-140057714D01*
X170679333Y-140105333D01*
X170631714Y-140200571D01*
X170631714Y-140295809D01*
X171107904Y-140391047D01*
X169774571Y-140724380D02*
X169774571Y-140200571D01*
X169822190Y-140105333D01*
X169917428Y-140057714D01*
X170107904Y-140057714D01*
X170203142Y-140105333D01*
X169774571Y-140676761D02*
X169869809Y-140724380D01*
X170107904Y-140724380D01*
X170203142Y-140676761D01*
X170250761Y-140581523D01*
X170250761Y-140486285D01*
X170203142Y-140391047D01*
X170107904Y-140343428D01*
X169869809Y-140343428D01*
X169774571Y-140295809D01*
X169298380Y-140724380D02*
X169298380Y-139724380D01*
X169203142Y-140343428D02*
X168917428Y-140724380D01*
X168917428Y-140057714D02*
X169298380Y-140438666D01*
X168346000Y-140724380D02*
X168441238Y-140676761D01*
X168488857Y-140629142D01*
X168536476Y-140533904D01*
X168536476Y-140248190D01*
X168488857Y-140152952D01*
X168441238Y-140105333D01*
X168346000Y-140057714D01*
X168203142Y-140057714D01*
X168107904Y-140105333D01*
X168060285Y-140152952D01*
X168012666Y-140248190D01*
X168012666Y-140533904D01*
X168060285Y-140629142D01*
X168107904Y-140676761D01*
X168203142Y-140724380D01*
X168346000Y-140724380D01*
X167155523Y-140057714D02*
X167155523Y-140724380D01*
X167584095Y-140057714D02*
X167584095Y-140581523D01*
X167536476Y-140676761D01*
X167441238Y-140724380D01*
X167298380Y-140724380D01*
X167203142Y-140676761D01*
X167155523Y-140629142D01*
X166822190Y-140057714D02*
X166441238Y-140057714D01*
X166679333Y-139724380D02*
X166679333Y-140581523D01*
X166631714Y-140676761D01*
X166536476Y-140724380D01*
X166441238Y-140724380D01*
X165012666Y-140200571D02*
X164869809Y-140248190D01*
X164822190Y-140295809D01*
X164774571Y-140391047D01*
X164774571Y-140533904D01*
X164822190Y-140629142D01*
X164869809Y-140676761D01*
X164965047Y-140724380D01*
X165346000Y-140724380D01*
X165346000Y-139724380D01*
X165012666Y-139724380D01*
X164917428Y-139772000D01*
X164869809Y-139819619D01*
X164822190Y-139914857D01*
X164822190Y-140010095D01*
X164869809Y-140105333D01*
X164917428Y-140152952D01*
X165012666Y-140200571D01*
X165346000Y-140200571D01*
X164203142Y-140724380D02*
X164298380Y-140676761D01*
X164346000Y-140629142D01*
X164393619Y-140533904D01*
X164393619Y-140248190D01*
X164346000Y-140152952D01*
X164298380Y-140105333D01*
X164203142Y-140057714D01*
X164060285Y-140057714D01*
X163965047Y-140105333D01*
X163917428Y-140152952D01*
X163869809Y-140248190D01*
X163869809Y-140533904D01*
X163917428Y-140629142D01*
X163965047Y-140676761D01*
X164060285Y-140724380D01*
X164203142Y-140724380D01*
X163012666Y-140724380D02*
X163012666Y-140200571D01*
X163060285Y-140105333D01*
X163155523Y-140057714D01*
X163346000Y-140057714D01*
X163441238Y-140105333D01*
X163012666Y-140676761D02*
X163107904Y-140724380D01*
X163346000Y-140724380D01*
X163441238Y-140676761D01*
X163488857Y-140581523D01*
X163488857Y-140486285D01*
X163441238Y-140391047D01*
X163346000Y-140343428D01*
X163107904Y-140343428D01*
X163012666Y-140295809D01*
X162536476Y-140724380D02*
X162536476Y-140057714D01*
X162536476Y-140248190D02*
X162488857Y-140152952D01*
X162441238Y-140105333D01*
X162346000Y-140057714D01*
X162250761Y-140057714D01*
X161488857Y-140724380D02*
X161488857Y-139724380D01*
X161488857Y-140676761D02*
X161584095Y-140724380D01*
X161774571Y-140724380D01*
X161869809Y-140676761D01*
X161917428Y-140629142D01*
X161965047Y-140533904D01*
X161965047Y-140248190D01*
X161917428Y-140152952D01*
X161869809Y-140105333D01*
X161774571Y-140057714D01*
X161584095Y-140057714D01*
X161488857Y-140105333D01*
X160298380Y-140676761D02*
X160155523Y-140724380D01*
X159917428Y-140724380D01*
X159822190Y-140676761D01*
X159774571Y-140629142D01*
X159726952Y-140533904D01*
X159726952Y-140438666D01*
X159774571Y-140343428D01*
X159822190Y-140295809D01*
X159917428Y-140248190D01*
X160107904Y-140200571D01*
X160203142Y-140152952D01*
X160250761Y-140105333D01*
X160298380Y-140010095D01*
X160298380Y-139914857D01*
X160250761Y-139819619D01*
X160203142Y-139772000D01*
X160107904Y-139724380D01*
X159869809Y-139724380D01*
X159726952Y-139772000D01*
X159298380Y-140724380D02*
X159298380Y-139724380D01*
X158965047Y-140438666D01*
X158631714Y-139724380D01*
X158631714Y-140724380D01*
X158155523Y-140724380D02*
X158155523Y-139724380D01*
X157917428Y-139724380D01*
X157774571Y-139772000D01*
X157679333Y-139867238D01*
X157631714Y-139962476D01*
X157584095Y-140152952D01*
X157584095Y-140295809D01*
X157631714Y-140486285D01*
X157679333Y-140581523D01*
X157774571Y-140676761D01*
X157917428Y-140724380D01*
X158155523Y-140724380D01*
X156393619Y-140724380D02*
X156393619Y-140057714D01*
X156393619Y-140248190D02*
X156346000Y-140152952D01*
X156298380Y-140105333D01*
X156203142Y-140057714D01*
X156107904Y-140057714D01*
X155393619Y-140676761D02*
X155488857Y-140724380D01*
X155679333Y-140724380D01*
X155774571Y-140676761D01*
X155822190Y-140581523D01*
X155822190Y-140200571D01*
X155774571Y-140105333D01*
X155679333Y-140057714D01*
X155488857Y-140057714D01*
X155393619Y-140105333D01*
X155346000Y-140200571D01*
X155346000Y-140295809D01*
X155822190Y-140391047D01*
X155012666Y-140057714D02*
X154774571Y-140724380D01*
X154536476Y-140057714D01*
X153203142Y-139724380D02*
X153107904Y-139724380D01*
X153012666Y-139772000D01*
X152965047Y-139819619D01*
X152917428Y-139914857D01*
X152869809Y-140105333D01*
X152869809Y-140343428D01*
X152917428Y-140533904D01*
X152965047Y-140629142D01*
X153012666Y-140676761D01*
X153107904Y-140724380D01*
X153203142Y-140724380D01*
X153298380Y-140676761D01*
X153346000Y-140629142D01*
X153393619Y-140533904D01*
X153441238Y-140343428D01*
X153441238Y-140105333D01*
X153393619Y-139914857D01*
X153346000Y-139819619D01*
X153298380Y-139772000D01*
X153203142Y-139724380D01*
X152441238Y-140629142D02*
X152393619Y-140676761D01*
X152441238Y-140724380D01*
X152488857Y-140676761D01*
X152441238Y-140629142D01*
X152441238Y-140724380D01*
X151441238Y-140724380D02*
X152012666Y-140724380D01*
X151726952Y-140724380D02*
X151726952Y-139724380D01*
X151822190Y-139867238D01*
X151917428Y-139962476D01*
X152012666Y-140010095D01*
X175536476Y-141469619D02*
X175488857Y-141422000D01*
X175393619Y-141374380D01*
X175155523Y-141374380D01*
X175060285Y-141422000D01*
X175012666Y-141469619D01*
X174965047Y-141564857D01*
X174965047Y-141660095D01*
X175012666Y-141802952D01*
X175584095Y-142374380D01*
X174965047Y-142374380D01*
X174346000Y-141374380D02*
X174250761Y-141374380D01*
X174155523Y-141422000D01*
X174107904Y-141469619D01*
X174060285Y-141564857D01*
X174012666Y-141755333D01*
X174012666Y-141993428D01*
X174060285Y-142183904D01*
X174107904Y-142279142D01*
X174155523Y-142326761D01*
X174250761Y-142374380D01*
X174346000Y-142374380D01*
X174441238Y-142326761D01*
X174488857Y-142279142D01*
X174536476Y-142183904D01*
X174584095Y-141993428D01*
X174584095Y-141755333D01*
X174536476Y-141564857D01*
X174488857Y-141469619D01*
X174441238Y-141422000D01*
X174346000Y-141374380D01*
X173060285Y-142374380D02*
X173631714Y-142374380D01*
X173346000Y-142374380D02*
X173346000Y-141374380D01*
X173441238Y-141517238D01*
X173536476Y-141612476D01*
X173631714Y-141660095D01*
X172584095Y-142374380D02*
X172393619Y-142374380D01*
X172298380Y-142326761D01*
X172250761Y-142279142D01*
X172155523Y-142136285D01*
X172107904Y-141945809D01*
X172107904Y-141564857D01*
X172155523Y-141469619D01*
X172203142Y-141422000D01*
X172298380Y-141374380D01*
X172488857Y-141374380D01*
X172584095Y-141422000D01*
X172631714Y-141469619D01*
X172679333Y-141564857D01*
X172679333Y-141802952D01*
X172631714Y-141898190D01*
X172584095Y-141945809D01*
X172488857Y-141993428D01*
X172298380Y-141993428D01*
X172203142Y-141945809D01*
X172155523Y-141898190D01*
X172107904Y-141802952D01*
X171679333Y-142279142D02*
X171631714Y-142326761D01*
X171679333Y-142374380D01*
X171726952Y-142326761D01*
X171679333Y-142279142D01*
X171679333Y-142374380D01*
X171012666Y-141374380D02*
X170917428Y-141374380D01*
X170822190Y-141422000D01*
X170774571Y-141469619D01*
X170726952Y-141564857D01*
X170679333Y-141755333D01*
X170679333Y-141993428D01*
X170726952Y-142183904D01*
X170774571Y-142279142D01*
X170822190Y-142326761D01*
X170917428Y-142374380D01*
X171012666Y-142374380D01*
X171107904Y-142326761D01*
X171155523Y-142279142D01*
X171203142Y-142183904D01*
X171250761Y-141993428D01*
X171250761Y-141755333D01*
X171203142Y-141564857D01*
X171155523Y-141469619D01*
X171107904Y-141422000D01*
X171012666Y-141374380D01*
X169822190Y-141374380D02*
X170012666Y-141374380D01*
X170107904Y-141422000D01*
X170155523Y-141469619D01*
X170250761Y-141612476D01*
X170298380Y-141802952D01*
X170298380Y-142183904D01*
X170250761Y-142279142D01*
X170203142Y-142326761D01*
X170107904Y-142374380D01*
X169917428Y-142374380D01*
X169822190Y-142326761D01*
X169774571Y-142279142D01*
X169726952Y-142183904D01*
X169726952Y-141945809D01*
X169774571Y-141850571D01*
X169822190Y-141802952D01*
X169917428Y-141755333D01*
X170107904Y-141755333D01*
X170203142Y-141802952D01*
X170250761Y-141850571D01*
X170298380Y-141945809D01*
X169298380Y-142279142D02*
X169250761Y-142326761D01*
X169298380Y-142374380D01*
X169346000Y-142326761D01*
X169298380Y-142279142D01*
X169298380Y-142374380D01*
X168298380Y-142374380D02*
X168869809Y-142374380D01*
X168584095Y-142374380D02*
X168584095Y-141374380D01*
X168679333Y-141517238D01*
X168774571Y-141612476D01*
X168869809Y-141660095D01*
X167393619Y-141374380D02*
X167869809Y-141374380D01*
X167917428Y-141850571D01*
X167869809Y-141802952D01*
X167774571Y-141755333D01*
X167536476Y-141755333D01*
X167441238Y-141802952D01*
X167393619Y-141850571D01*
X167346000Y-141945809D01*
X167346000Y-142183904D01*
X167393619Y-142279142D01*
X167441238Y-142326761D01*
X167536476Y-142374380D01*
X167774571Y-142374380D01*
X167869809Y-142326761D01*
X167917428Y-142279142D01*
X166155523Y-142374380D02*
X166155523Y-141707714D01*
X166155523Y-141898190D02*
X166107904Y-141802952D01*
X166060285Y-141755333D01*
X165965047Y-141707714D01*
X165869809Y-141707714D01*
X165107904Y-142374380D02*
X165107904Y-141850571D01*
X165155523Y-141755333D01*
X165250761Y-141707714D01*
X165441238Y-141707714D01*
X165536476Y-141755333D01*
X165107904Y-142326761D02*
X165203142Y-142374380D01*
X165441238Y-142374380D01*
X165536476Y-142326761D01*
X165584095Y-142231523D01*
X165584095Y-142136285D01*
X165536476Y-142041047D01*
X165441238Y-141993428D01*
X165203142Y-141993428D01*
X165107904Y-141945809D01*
X164631714Y-142374380D02*
X164631714Y-141374380D01*
X164631714Y-141755333D02*
X164536476Y-141707714D01*
X164346000Y-141707714D01*
X164250761Y-141755333D01*
X164203142Y-141802952D01*
X164155523Y-141898190D01*
X164155523Y-142183904D01*
X164203142Y-142279142D01*
X164250761Y-142326761D01*
X164346000Y-142374380D01*
X164536476Y-142374380D01*
X164631714Y-142326761D01*
X163726952Y-142374380D02*
X163726952Y-141374380D01*
X163726952Y-141755333D02*
X163631714Y-141707714D01*
X163441238Y-141707714D01*
X163346000Y-141755333D01*
X163298380Y-141802952D01*
X163250761Y-141898190D01*
X163250761Y-142183904D01*
X163298380Y-142279142D01*
X163346000Y-142326761D01*
X163441238Y-142374380D01*
X163631714Y-142374380D01*
X163726952Y-142326761D01*
X162822190Y-142374380D02*
X162822190Y-141707714D01*
X162822190Y-141374380D02*
X162869809Y-141422000D01*
X162822190Y-141469619D01*
X162774571Y-141422000D01*
X162822190Y-141374380D01*
X162822190Y-141469619D01*
X162488857Y-141707714D02*
X162107904Y-141707714D01*
X162346000Y-141374380D02*
X162346000Y-142231523D01*
X162298380Y-142326761D01*
X162203142Y-142374380D01*
X162107904Y-142374380D01*
X161774571Y-141993428D02*
X161012666Y-141993428D01*
X160536476Y-141707714D02*
X160536476Y-142374380D01*
X160536476Y-141802952D02*
X160488857Y-141755333D01*
X160393619Y-141707714D01*
X160250761Y-141707714D01*
X160155523Y-141755333D01*
X160107904Y-141850571D01*
X160107904Y-142374380D01*
X159488857Y-142374380D02*
X159584095Y-142326761D01*
X159631714Y-142279142D01*
X159679333Y-142183904D01*
X159679333Y-141898190D01*
X159631714Y-141802952D01*
X159584095Y-141755333D01*
X159488857Y-141707714D01*
X159346000Y-141707714D01*
X159250761Y-141755333D01*
X159203142Y-141802952D01*
X159155523Y-141898190D01*
X159155523Y-142183904D01*
X159203142Y-142279142D01*
X159250761Y-142326761D01*
X159346000Y-142374380D01*
X159488857Y-142374380D01*
X158869809Y-141707714D02*
X158488857Y-141707714D01*
X158726952Y-141374380D02*
X158726952Y-142231523D01*
X158679333Y-142326761D01*
X158584095Y-142374380D01*
X158488857Y-142374380D01*
X157774571Y-142326761D02*
X157869809Y-142374380D01*
X158060285Y-142374380D01*
X158155523Y-142326761D01*
X158203142Y-142231523D01*
X158203142Y-141850571D01*
X158155523Y-141755333D01*
X158060285Y-141707714D01*
X157869809Y-141707714D01*
X157774571Y-141755333D01*
X157726952Y-141850571D01*
X157726952Y-141945809D01*
X158203142Y-142041047D01*
X157298380Y-142279142D02*
X157250761Y-142326761D01*
X157298380Y-142374380D01*
X157346000Y-142326761D01*
X157298380Y-142279142D01*
X157298380Y-142374380D01*
X156393619Y-142326761D02*
X156488857Y-142374380D01*
X156679333Y-142374380D01*
X156774571Y-142326761D01*
X156822190Y-142279142D01*
X156869809Y-142183904D01*
X156869809Y-141898190D01*
X156822190Y-141802952D01*
X156774571Y-141755333D01*
X156679333Y-141707714D01*
X156488857Y-141707714D01*
X156393619Y-141755333D01*
X155822190Y-142374380D02*
X155917428Y-142326761D01*
X155965047Y-142279142D01*
X156012666Y-142183904D01*
X156012666Y-141898190D01*
X155965047Y-141802952D01*
X155917428Y-141755333D01*
X155822190Y-141707714D01*
X155679333Y-141707714D01*
X155584095Y-141755333D01*
X155536476Y-141802952D01*
X155488857Y-141898190D01*
X155488857Y-142183904D01*
X155536476Y-142279142D01*
X155584095Y-142326761D01*
X155679333Y-142374380D01*
X155822190Y-142374380D01*
X155060285Y-142374380D02*
X155060285Y-141707714D01*
X155060285Y-141802952D02*
X155012666Y-141755333D01*
X154917428Y-141707714D01*
X154774571Y-141707714D01*
X154679333Y-141755333D01*
X154631714Y-141850571D01*
X154631714Y-142374380D01*
X154631714Y-141850571D02*
X154584095Y-141755333D01*
X154488857Y-141707714D01*
X154346000Y-141707714D01*
X154250761Y-141755333D01*
X154203142Y-141850571D01*
X154203142Y-142374380D01*
M02*
